<?xml version="1.0" encoding="us-ascii" standalone="no"?><svg xmlns="http://www.w3.org/2000/svg" xmlns:xlink="http://www.w3.org/1999/xlink" contentStyleType="text/css" height="1993px" preserveAspectRatio="none" style="width:1185px;height:1993px;background:#FFFFFF;" version="1.1" viewBox="0 0 1185 1993" width="1185px" zoomAndPan="magnify"><defs/><g><text fill="#000000" font-family="sans-serif" font-size="14" font-weight="bold" lengthAdjust="spacing" textLength="316" x="433.4375" y="34.5332">Line Follower Robot - Activity Diagram by Alvi</text><polygon fill="none" points="20,48.6094,326,48.6094,333,72.2188,1163.875,72.2188,1163.875,1981.5547,20,1981.5547,20,48.6094" style="stroke:#000000;stroke-width:1.5;"/><line style="stroke:#000000;stroke-width:1.5;" x1="20" x2="333" y1="72.2188" y2="72.2188"/><text fill="#000000" font-family="sans-serif" font-size="14" lengthAdjust="spacing" textLength="300" x="24" y="65.1426">act [Block] LineFollowerRobot [Behavior] by Alvi</text><ellipse cx="579.6875" cy="96.2188" fill="#222222" rx="10" ry="10" style="stroke:#222222;stroke-width:1.0;"/><rect fill="#F1F1F1" height="35.0938" rx="12.5" ry="12.5" style="stroke:#181818;stroke-width:0.5;" width="74" x="542.6875" y="141.2188"/><text fill="#000000" font-family="sans-serif" font-size="12" lengthAdjust="spacing" textLength="54" x="552.6875" y="163.6758">Power On</text><rect fill="#F1F1F1" height="35.0938" rx="12.5" ry="12.5" style="stroke:#181818;stroke-width:0.5;" width="108" x="525.6875" y="211.3125"/><text fill="#000000" font-family="sans-serif" font-size="12" lengthAdjust="spacing" textLength="88" x="535.6875" y="233.7695">Initialize System</text><rect fill="#F1F1F1" height="35.0938" rx="12.5" ry="12.5" style="stroke:#181818;stroke-width:0.5;" width="103" x="528.1875" y="281.4063"/><text fill="#000000" font-family="sans-serif" font-size="12" lengthAdjust="spacing" textLength="83" x="538.1875" y="303.8633">Enter Idle State</text><rect fill="#F1F1F1" height="35.0938" rx="12.5" ry="12.5" style="stroke:#181818;stroke-width:0.5;" width="199" x="480.1875" y="351.5"/><text fill="#000000" font-family="sans-serif" font-size="12" lengthAdjust="spacing" textLength="179" x="490.1875" y="373.957">Transition to LineFollowing State</text><rect fill="#F1F1F1" height="35.0938" rx="12.5" ry="12.5" style="stroke:#181818;stroke-width:0.5;" width="115" x="522.1875" y="493.5938"/><text fill="#000000" font-family="sans-serif" font-size="12" lengthAdjust="spacing" textLength="95" x="532.1875" y="516.0508">Read IR Sensors</text><polygon fill="#F1F1F1" points="543.6875,563.6875,615.6875,563.6875,627.6875,575.6875,615.6875,587.6875,543.6875,587.6875,531.6875,575.6875,543.6875,563.6875" style="stroke:#181818;stroke-width:0.5;"/><text fill="#000000" font-family="sans-serif" font-size="11" lengthAdjust="spacing" textLength="72" x="543.6875" y="580.1885">Line Detected?</text><text fill="#000000" font-family="sans-serif" font-size="11" lengthAdjust="spacing" textLength="18" x="513.6875" y="573.2705">yes</text><rect fill="#F1F1F1" height="35.0938" rx="12.5" ry="12.5" style="stroke:#181818;stroke-width:0.5;" width="212" x="246.125" y="597.6875"/><text fill="#000000" font-family="sans-serif" font-size="12" lengthAdjust="spacing" textLength="192" x="256.125" y="620.1445">Adjust Motor Speeds to Follow Line</text><rect fill="#F1F1F1" height="35.0938" rx="12.5" ry="12.5" style="stroke:#181818;stroke-width:0.5;" width="152" x="276.125" y="667.7813"/><text fill="#000000" font-family="sans-serif" font-size="12" lengthAdjust="spacing" textLength="132" x="286.125" y="690.2383">Read Ultrasonic Sensor</text><polygon fill="#F1F1F1" points="304.625,737.875,399.625,737.875,411.625,749.875,399.625,761.875,304.625,761.875,292.625,749.875,304.625,737.875" style="stroke:#181818;stroke-width:0.5;"/><text fill="#000000" font-family="sans-serif" font-size="11" lengthAdjust="spacing" textLength="95" x="304.625" y="754.376">Obstacle Detected?</text><text fill="#000000" font-family="sans-serif" font-size="11" lengthAdjust="spacing" textLength="18" x="274.625" y="747.458">yes</text><rect fill="#F1F1F1" height="35.0938" rx="12.5" ry="12.5" style="stroke:#181818;stroke-width:0.5;" width="181" x="130.25" y="771.875"/><text fill="#000000" font-family="sans-serif" font-size="12" lengthAdjust="spacing" textLength="161" x="140.25" y="794.332">Enter ObstacleDetected State</text><rect fill="#F1F1F1" height="35.0938" rx="12.5" ry="12.5" style="stroke:#181818;stroke-width:0.5;" width="85" x="178.25" y="841.9688"/><text fill="#000000" font-family="sans-serif" font-size="12" lengthAdjust="spacing" textLength="65" x="188.25" y="864.4258">Stop Motors</text><rect fill="#F1F1F1" height="35.0938" rx="12.5" ry="12.5" style="stroke:#181818;stroke-width:0.5;" width="196" x="122.75" y="912.0625"/><text fill="#000000" font-family="sans-serif" font-size="12" lengthAdjust="spacing" textLength="176" x="132.75" y="934.5195">ScanDirections with Servo Motor</text><rect fill="#F1F1F1" height="35.0938" rx="12.5" ry="12.5" style="stroke:#181818;stroke-width:0.5;" width="221" x="110.25" y="982.1563"/><text fill="#000000" font-family="sans-serif" font-size="12" lengthAdjust="spacing" textLength="201" x="120.25" y="1004.6133">ChooseDirection Based on Distance</text><polygon fill="#F1F1F1" points="197.25,1052.25,244.25,1052.25,256.25,1064.25,244.25,1076.25,197.25,1076.25,185.25,1064.25,197.25,1052.25" style="stroke:#181818;stroke-width:0.5;"/><text fill="#000000" font-family="sans-serif" font-size="11" lengthAdjust="spacing" textLength="47" x="197.25" y="1068.751">Go Right?</text><text fill="#000000" font-family="sans-serif" font-size="11" lengthAdjust="spacing" textLength="18" x="167.25" y="1061.833">yes</text><rect fill="#F1F1F1" height="35.0938" rx="12.5" ry="12.5" style="stroke:#181818;stroke-width:0.5;" width="153" x="60" y="1086.25"/><text fill="#000000" font-family="sans-serif" font-size="12" lengthAdjust="spacing" textLength="133" x="70" y="1108.707">Enter RightBypass State</text><rect fill="#F1F1F1" height="35.0938" rx="12.5" ry="12.5" style="stroke:#181818;stroke-width:0.5;" width="77" x="98" y="1156.3438"/><text fill="#000000" font-family="sans-serif" font-size="12" lengthAdjust="spacing" textLength="57" x="108" y="1178.8008">Turn Right</text><rect fill="#F1F1F1" height="35.0938" rx="12.5" ry="12.5" style="stroke:#181818;stroke-width:0.5;" width="113" x="80" y="1226.4375"/><text fill="#000000" font-family="sans-serif" font-size="12" lengthAdjust="spacing" textLength="93" x="90" y="1248.8945">Bypass Obstacle</text><rect fill="#F1F1F1" height="35.0938" rx="12.5" ry="12.5" style="stroke:#181818;stroke-width:0.5;" width="144" x="233" y="1086.25"/><text fill="#000000" font-family="sans-serif" font-size="12" lengthAdjust="spacing" textLength="124" x="243" y="1108.707">Enter LeftBypass State</text><rect fill="#F1F1F1" height="35.0938" rx="12.5" ry="12.5" style="stroke:#181818;stroke-width:0.5;" width="68" x="271" y="1156.3438"/><text fill="#000000" font-family="sans-serif" font-size="12" lengthAdjust="spacing" textLength="48" x="281" y="1178.8008">Turn Left</text><rect fill="#F1F1F1" height="35.0938" rx="12.5" ry="12.5" style="stroke:#181818;stroke-width:0.5;" width="113" x="248.5" y="1226.4375"/><text fill="#000000" font-family="sans-serif" font-size="12" lengthAdjust="spacing" textLength="93" x="258.5" y="1248.8945">Bypass Obstacle</text><polygon fill="#F1F1F1" points="220.75,1267.5313,232.75,1279.5313,220.75,1291.5313,208.75,1279.5313,220.75,1267.5313" style="stroke:#181818;stroke-width:0.5;"/><rect fill="#F1F1F1" height="35.0938" rx="12.5" ry="12.5" style="stroke:#181818;stroke-width:0.5;" width="101" x="170.25" y="1326.5313"/><text fill="#000000" font-family="sans-serif" font-size="12" lengthAdjust="spacing" textLength="81" x="180.25" y="1348.9883">LookForLineIR</text><rect fill="#F1F1F1" height="35.0938" rx="12.5" ry="12.5" style="stroke:#181818;stroke-width:0.5;" width="95" x="173.25" y="1396.625"/><text fill="#000000" font-family="sans-serif" font-size="12" lengthAdjust="spacing" textLength="75" x="183.25" y="1419.082">FinishBypass</text><rect fill="#F1F1F1" height="35.0938" rx="12.5" ry="12.5" style="stroke:#181818;stroke-width:0.5;" width="150" x="145.75" y="1466.7188"/><text fill="#000000" font-family="sans-serif" font-size="12" lengthAdjust="spacing" textLength="130" x="155.75" y="1489.1758">Return to LineFollowing</text><rect fill="#F1F1F1" height="35.0938" rx="12.5" ry="12.5" style="stroke:#181818;stroke-width:0.5;" width="153" x="407" y="771.875"/><text fill="#000000" font-family="sans-serif" font-size="12" lengthAdjust="spacing" textLength="133" x="417" y="794.332">Continue Following Line</text><polygon fill="#F1F1F1" points="352.125,1507.8125,364.125,1519.8125,352.125,1531.8125,340.125,1519.8125,352.125,1507.8125" style="stroke:#181818;stroke-width:0.5;"/><rect fill="#F1F1F1" height="35.0938" rx="12.5" ry="12.5" style="stroke:#181818;stroke-width:0.5;" width="164" x="725.25" y="597.6875"/><text fill="#000000" font-family="sans-serif" font-size="12" lengthAdjust="spacing" textLength="144" x="735.25" y="620.1445">Enter LookForLineIR State</text><rect fill="#F1F1F1" height="35.0938" rx="12.5" ry="12.5" style="stroke:#181818;stroke-width:0.5;" width="175" x="719.75" y="667.7813"/><text fill="#000000" font-family="sans-serif" font-size="12" lengthAdjust="spacing" textLength="155" x="729.75" y="690.2383">Check Last Known Direction</text><polygon fill="#F1F1F1" points="770.25,737.875,844.25,737.875,856.25,749.875,844.25,761.875,770.25,761.875,758.25,749.875,770.25,737.875" style="stroke:#181818;stroke-width:0.5;"/><text fill="#000000" font-family="sans-serif" font-size="11" lengthAdjust="spacing" textLength="74" x="770.25" y="754.376">Was Last Left?</text><text fill="#000000" font-family="sans-serif" font-size="11" lengthAdjust="spacing" textLength="18" x="740.25" y="747.458">yes</text><rect fill="#F1F1F1" height="35.0938" rx="12.5" ry="12.5" style="stroke:#181818;stroke-width:0.5;" width="195" x="600" y="771.875"/><text fill="#000000" font-family="sans-serif" font-size="12" lengthAdjust="spacing" textLength="175" x="610" y="794.332">Turn Left Slowly While Scanning</text><rect fill="#F1F1F1" height="35.0938" rx="12.5" ry="12.5" style="stroke:#181818;stroke-width:0.5;" width="204" x="815" y="771.875"/><text fill="#000000" font-family="sans-serif" font-size="12" lengthAdjust="spacing" textLength="184" x="825" y="794.332">Turn Right Slowly While Scanning</text><polygon fill="#F1F1F1" points="807.25,812.9688,819.25,824.9688,807.25,836.9688,795.25,824.9688,807.25,812.9688" style="stroke:#181818;stroke-width:0.5;"/><polygon fill="#F1F1F1" points="777.75,871.9688,836.75,871.9688,848.75,883.9688,836.75,895.9688,777.75,895.9688,765.75,883.9688,777.75,871.9688" style="stroke:#181818;stroke-width:0.5;"/><text fill="#000000" font-family="sans-serif" font-size="11" lengthAdjust="spacing" textLength="59" x="777.75" y="888.4697">Line Found?</text><text fill="#000000" font-family="sans-serif" font-size="11" lengthAdjust="spacing" textLength="18" x="747.75" y="881.5518">yes</text><rect fill="#F1F1F1" height="35.0938" rx="12.5" ry="12.5" style="stroke:#181818;stroke-width:0.5;" width="148" x="600.875" y="905.9688"/><text fill="#000000" font-family="sans-serif" font-size="12" lengthAdjust="spacing" textLength="128" x="610.875" y="928.4258">Resume LineFollowing</text><rect fill="#F1F1F1" height="35.0938" rx="12.5" ry="12.5" style="stroke:#181818;stroke-width:0.5;" width="152" x="863.625" y="905.9688"/><text fill="#000000" font-family="sans-serif" font-size="12" lengthAdjust="spacing" textLength="132" x="873.625" y="928.4258">Begin Zig-Zag Scanning</text><rect fill="#F1F1F1" height="35.0938" rx="12.5" ry="12.5" style="stroke:#181818;stroke-width:0.5;" width="110" x="884.625" y="1048.0625"/><text fill="#000000" font-family="sans-serif" font-size="12" lengthAdjust="spacing" textLength="90" x="894.625" y="1070.5195">Turn Left Slightly</text><rect fill="#F1F1F1" height="35.0938" rx="12.5" ry="12.5" style="stroke:#181818;stroke-width:0.5;" width="103" x="888.125" y="1118.1563"/><text fill="#000000" font-family="sans-serif" font-size="12" lengthAdjust="spacing" textLength="83" x="898.125" y="1140.6133">Check For Line</text><polygon fill="#F1F1F1" points="910.125,1188.25,969.125,1188.25,981.125,1200.25,969.125,1212.25,910.125,1212.25,898.125,1200.25,910.125,1188.25" style="stroke:#181818;stroke-width:0.5;"/><text fill="#000000" font-family="sans-serif" font-size="11" lengthAdjust="spacing" textLength="59" x="910.125" y="1204.751">Line Found?</text><text fill="#000000" font-family="sans-serif" font-size="11" lengthAdjust="spacing" textLength="18" x="880.125" y="1197.833">yes</text><rect fill="#F1F1F1" height="35.0938" rx="12.5" ry="12.5" style="stroke:#181818;stroke-width:0.5;" width="148" x="788.875" y="1222.25"/><text fill="#000000" font-family="sans-serif" font-size="12" lengthAdjust="spacing" textLength="128" x="798.875" y="1244.707">Resume LineFollowing</text><rect fill="#F1F1F1" height="35.0938" rx="12.5" ry="12.5" style="stroke:#181818;stroke-width:0.5;" width="119" x="956.875" y="1222.25"/><text fill="#000000" font-family="sans-serif" font-size="12" lengthAdjust="spacing" textLength="99" x="966.875" y="1244.707">Turn Right Slightly</text><rect fill="#F1F1F1" height="35.0938" rx="12.5" ry="12.5" style="stroke:#181818;stroke-width:0.5;" width="103" x="964.875" y="1292.3438"/><text fill="#000000" font-family="sans-serif" font-size="12" lengthAdjust="spacing" textLength="83" x="974.875" y="1314.8008">Check For Line</text><polygon fill="#F1F1F1" points="939.625,976.0625,951.625,988.0625,939.625,1000.0625,927.625,988.0625,939.625,976.0625" style="stroke:#181818;stroke-width:0.5;"/><polygon fill="#F1F1F1" points="888.125,1381.4375,991.125,1381.4375,1003.125,1393.4375,991.125,1405.4375,888.125,1405.4375,876.125,1393.4375,888.125,1381.4375" style="stroke:#181818;stroke-width:0.5;"/><text fill="#000000" font-family="sans-serif" font-size="11" lengthAdjust="spacing" textLength="103" x="888.125" y="1397.9385">Scan Attempts &lt; Max</text><polygon fill="#F1F1F1" points="939.625,1440.4375,951.625,1452.4375,939.625,1464.4375,927.625,1452.4375,939.625,1440.4375" style="stroke:#181818;stroke-width:0.5;"/><rect fill="#F1F1F1" height="35.0938" rx="12.5" ry="12.5" style="stroke:#181818;stroke-width:0.5;" width="252" x="813.625" y="1548.3555"/><text fill="#000000" font-family="sans-serif" font-size="12" lengthAdjust="spacing" textLength="232" x="823.625" y="1570.8125">Enter Fallback Behavior (e.g., Stop or Alert)</text><polygon fill="#F1F1F1" points="891.125,1499.4375,988.125,1499.4375,1000.125,1511.4375,988.125,1523.4375,891.125,1523.4375,879.125,1511.4375,891.125,1499.4375" style="stroke:#181818;stroke-width:0.5;"/><text fill="#000000" font-family="sans-serif" font-size="11" lengthAdjust="spacing" textLength="18" x="943.625" y="1534.8564">yes</text><text fill="#000000" font-family="sans-serif" font-size="11" lengthAdjust="spacing" textLength="97" x="891.125" y="1515.9385">Line Still Not Found?</text><polygon fill="#F1F1F1" points="939.625,1608.3672,951.625,1620.3672,939.625,1632.3672,927.625,1620.3672,939.625,1608.3672" style="stroke:#181818;stroke-width:0.5;"/><polygon fill="#F1F1F1" points="807.25,1638.3672,819.25,1650.3672,807.25,1662.3672,795.25,1650.3672,807.25,1638.3672" style="stroke:#181818;stroke-width:0.5;"/><polygon fill="#F1F1F1" points="579.6875,1668.3672,591.6875,1680.3672,579.6875,1692.3672,567.6875,1680.3672,579.6875,1668.3672" style="stroke:#181818;stroke-width:0.5;"/><polygon fill="#F1F1F1" points="579.6875,421.5938,591.6875,433.5938,579.6875,445.5938,567.6875,433.5938,579.6875,421.5938" style="stroke:#181818;stroke-width:0.5;"/><polygon fill="#F1F1F1" points="479.1875,1740.3672,680.1875,1740.3672,692.1875,1752.3672,680.1875,1764.3672,479.1875,1764.3672,467.1875,1752.3672,479.1875,1740.3672" style="stroke:#181818;stroke-width:0.5;"/><text fill="#000000" font-family="sans-serif" font-size="11" lengthAdjust="spacing" textLength="201" x="479.1875" y="1756.8682">Battery OK? and Stop Button Not Pressed</text><rect fill="#F1F1F1" height="35.0938" rx="12.5" ry="12.5" style="stroke:#181818;stroke-width:0.5;" width="108" x="525.6875" y="1799.3672"/><text fill="#000000" font-family="sans-serif" font-size="12" lengthAdjust="spacing" textLength="88" x="535.6875" y="1821.8242">Enter Stop State</text><rect fill="#F1F1F1" height="35.0938" rx="12.5" ry="12.5" style="stroke:#181818;stroke-width:0.5;" width="119" x="520.1875" y="1869.4609"/><text fill="#000000" font-family="sans-serif" font-size="12" lengthAdjust="spacing" textLength="99" x="530.1875" y="1891.918">System Shutdown</text><ellipse cx="579.6875" cy="1950.5547" fill="none" rx="11" ry="11" style="stroke:#222222;stroke-width:1.0;"/><ellipse cx="579.6875" cy="1950.5547" fill="#222222" rx="6" ry="6" style="stroke:#222222;stroke-width:1.0;"/><line style="stroke:#181818;stroke-width:1.0;" x1="579.6875" x2="579.6875" y1="106.2188" y2="141.2188"/><polygon fill="#181818" points="575.6875,131.2188,579.6875,141.2188,583.6875,131.2188,579.6875,135.2188" style="stroke:#181818;stroke-width:1.0;"/><line style="stroke:#181818;stroke-width:1.0;" x1="579.6875" x2="579.6875" y1="176.3125" y2="211.3125"/><polygon fill="#181818" points="575.6875,201.3125,579.6875,211.3125,583.6875,201.3125,579.6875,205.3125" style="stroke:#181818;stroke-width:1.0;"/><line style="stroke:#181818;stroke-width:1.0;" x1="579.6875" x2="579.6875" y1="246.4063" y2="281.4063"/><polygon fill="#181818" points="575.6875,271.4063,579.6875,281.4063,583.6875,271.4063,579.6875,275.4063" style="stroke:#181818;stroke-width:1.0;"/><line style="stroke:#181818;stroke-width:1.0;" x1="579.6875" x2="579.6875" y1="316.5" y2="351.5"/><polygon fill="#181818" points="575.6875,341.5,579.6875,351.5,583.6875,341.5,579.6875,345.5" style="stroke:#181818;stroke-width:1.0;"/><line style="stroke:#181818;stroke-width:1.0;" x1="352.125" x2="352.125" y1="632.7813" y2="667.7813"/><polygon fill="#181818" points="348.125,657.7813,352.125,667.7813,356.125,657.7813,352.125,661.7813" style="stroke:#181818;stroke-width:1.0;"/><line style="stroke:#181818;stroke-width:1.0;" x1="220.75" x2="220.75" y1="806.9688" y2="841.9688"/><polygon fill="#181818" points="216.75,831.9688,220.75,841.9688,224.75,831.9688,220.75,835.9688" style="stroke:#181818;stroke-width:1.0;"/><line style="stroke:#181818;stroke-width:1.0;" x1="220.75" x2="220.75" y1="877.0625" y2="912.0625"/><polygon fill="#181818" points="216.75,902.0625,220.75,912.0625,224.75,902.0625,220.75,906.0625" style="stroke:#181818;stroke-width:1.0;"/><line style="stroke:#181818;stroke-width:1.0;" x1="220.75" x2="220.75" y1="947.1563" y2="982.1563"/><polygon fill="#181818" points="216.75,972.1563,220.75,982.1563,224.75,972.1563,220.75,976.1563" style="stroke:#181818;stroke-width:1.0;"/><line style="stroke:#181818;stroke-width:1.0;" x1="136.5" x2="136.5" y1="1121.3438" y2="1156.3438"/><polygon fill="#181818" points="132.5,1146.3438,136.5,1156.3438,140.5,1146.3438,136.5,1150.3438" style="stroke:#181818;stroke-width:1.0;"/><line style="stroke:#181818;stroke-width:1.0;" x1="136.5" x2="136.5" y1="1191.4375" y2="1226.4375"/><polygon fill="#181818" points="132.5,1216.4375,136.5,1226.4375,140.5,1216.4375,136.5,1220.4375" style="stroke:#181818;stroke-width:1.0;"/><line style="stroke:#181818;stroke-width:1.0;" x1="305" x2="305" y1="1121.3438" y2="1156.3438"/><polygon fill="#181818" points="301,1146.3438,305,1156.3438,309,1146.3438,305,1150.3438" style="stroke:#181818;stroke-width:1.0;"/><line style="stroke:#181818;stroke-width:1.0;" x1="305" x2="305" y1="1191.4375" y2="1226.4375"/><polygon fill="#181818" points="301,1216.4375,305,1226.4375,309,1216.4375,305,1220.4375" style="stroke:#181818;stroke-width:1.0;"/><line style="stroke:#181818;stroke-width:1.0;" x1="185.25" x2="136.5" y1="1064.25" y2="1064.25"/><line style="stroke:#181818;stroke-width:1.0;" x1="136.5" x2="136.5" y1="1064.25" y2="1086.25"/><polygon fill="#181818" points="132.5,1076.25,136.5,1086.25,140.5,1076.25,136.5,1080.25" style="stroke:#181818;stroke-width:1.0;"/><line style="stroke:#181818;stroke-width:1.0;" x1="256.25" x2="305" y1="1064.25" y2="1064.25"/><line style="stroke:#181818;stroke-width:1.0;" x1="305" x2="305" y1="1064.25" y2="1086.25"/><polygon fill="#181818" points="301,1076.25,305,1086.25,309,1076.25,305,1080.25" style="stroke:#181818;stroke-width:1.0;"/><line style="stroke:#181818;stroke-width:1.0;" x1="136.5" x2="136.5" y1="1261.5313" y2="1279.5313"/><line style="stroke:#181818;stroke-width:1.0;" x1="136.5" x2="208.75" y1="1279.5313" y2="1279.5313"/><polygon fill="#181818" points="198.75,1275.5313,208.75,1279.5313,198.75,1283.5313,202.75,1279.5313" style="stroke:#181818;stroke-width:1.0;"/><line style="stroke:#181818;stroke-width:1.0;" x1="305" x2="305" y1="1261.5313" y2="1279.5313"/><line style="stroke:#181818;stroke-width:1.0;" x1="305" x2="232.75" y1="1279.5313" y2="1279.5313"/><polygon fill="#181818" points="242.75,1275.5313,232.75,1279.5313,242.75,1283.5313,238.75,1279.5313" style="stroke:#181818;stroke-width:1.0;"/><line style="stroke:#181818;stroke-width:1.0;" x1="220.75" x2="220.75" y1="1017.25" y2="1052.25"/><polygon fill="#181818" points="216.75,1042.25,220.75,1052.25,224.75,1042.25,220.75,1046.25" style="stroke:#181818;stroke-width:1.0;"/><line style="stroke:#181818;stroke-width:1.0;" x1="220.75" x2="220.75" y1="1291.5313" y2="1326.5313"/><polygon fill="#181818" points="216.75,1316.5313,220.75,1326.5313,224.75,1316.5313,220.75,1320.5313" style="stroke:#181818;stroke-width:1.0;"/><line style="stroke:#181818;stroke-width:1.0;" x1="220.75" x2="220.75" y1="1361.625" y2="1396.625"/><polygon fill="#181818" points="216.75,1386.625,220.75,1396.625,224.75,1386.625,220.75,1390.625" style="stroke:#181818;stroke-width:1.0;"/><line style="stroke:#181818;stroke-width:1.0;" x1="220.75" x2="220.75" y1="1431.7188" y2="1466.7188"/><polygon fill="#181818" points="216.75,1456.7188,220.75,1466.7188,224.75,1456.7188,220.75,1460.7188" style="stroke:#181818;stroke-width:1.0;"/><line style="stroke:#181818;stroke-width:1.0;" x1="292.625" x2="220.75" y1="749.875" y2="749.875"/><line style="stroke:#181818;stroke-width:1.0;" x1="220.75" x2="220.75" y1="749.875" y2="771.875"/><polygon fill="#181818" points="216.75,761.875,220.75,771.875,224.75,761.875,220.75,765.875" style="stroke:#181818;stroke-width:1.0;"/><line style="stroke:#181818;stroke-width:1.0;" x1="411.625" x2="483.5" y1="749.875" y2="749.875"/><line style="stroke:#181818;stroke-width:1.0;" x1="483.5" x2="483.5" y1="749.875" y2="771.875"/><polygon fill="#181818" points="479.5,761.875,483.5,771.875,487.5,761.875,483.5,765.875" style="stroke:#181818;stroke-width:1.0;"/><line style="stroke:#181818;stroke-width:1.0;" x1="220.75" x2="220.75" y1="1501.8125" y2="1519.8125"/><line style="stroke:#181818;stroke-width:1.0;" x1="220.75" x2="340.125" y1="1519.8125" y2="1519.8125"/><polygon fill="#181818" points="330.125,1515.8125,340.125,1519.8125,330.125,1523.8125,334.125,1519.8125" style="stroke:#181818;stroke-width:1.0;"/><line style="stroke:#181818;stroke-width:1.0;" x1="483.5" x2="483.5" y1="806.9688" y2="1519.8125"/><line style="stroke:#181818;stroke-width:1.0;" x1="483.5" x2="364.125" y1="1519.8125" y2="1519.8125"/><polygon fill="#181818" points="374.125,1515.8125,364.125,1519.8125,374.125,1523.8125,370.125,1519.8125" style="stroke:#181818;stroke-width:1.0;"/><line style="stroke:#181818;stroke-width:1.0;" x1="352.125" x2="352.125" y1="702.875" y2="737.875"/><polygon fill="#181818" points="348.125,727.875,352.125,737.875,356.125,727.875,352.125,731.875" style="stroke:#181818;stroke-width:1.0;"/><line style="stroke:#181818;stroke-width:1.0;" x1="807.25" x2="807.25" y1="632.7813" y2="667.7813"/><polygon fill="#181818" points="803.25,657.7813,807.25,667.7813,811.25,657.7813,807.25,661.7813" style="stroke:#181818;stroke-width:1.0;"/><line style="stroke:#181818;stroke-width:1.0;" x1="758.25" x2="697.5" y1="749.875" y2="749.875"/><line style="stroke:#181818;stroke-width:1.0;" x1="697.5" x2="697.5" y1="749.875" y2="771.875"/><polygon fill="#181818" points="693.5,761.875,697.5,771.875,701.5,761.875,697.5,765.875" style="stroke:#181818;stroke-width:1.0;"/><line style="stroke:#181818;stroke-width:1.0;" x1="856.25" x2="917" y1="749.875" y2="749.875"/><line style="stroke:#181818;stroke-width:1.0;" x1="917" x2="917" y1="749.875" y2="771.875"/><polygon fill="#181818" points="913,761.875,917,771.875,921,761.875,917,765.875" style="stroke:#181818;stroke-width:1.0;"/><line style="stroke:#181818;stroke-width:1.0;" x1="697.5" x2="697.5" y1="806.9688" y2="824.9688"/><line style="stroke:#181818;stroke-width:1.0;" x1="697.5" x2="795.25" y1="824.9688" y2="824.9688"/><polygon fill="#181818" points="785.25,820.9688,795.25,824.9688,785.25,828.9688,789.25,824.9688" style="stroke:#181818;stroke-width:1.0;"/><line style="stroke:#181818;stroke-width:1.0;" x1="917" x2="917" y1="806.9688" y2="824.9688"/><line style="stroke:#181818;stroke-width:1.0;" x1="917" x2="819.25" y1="824.9688" y2="824.9688"/><polygon fill="#181818" points="829.25,820.9688,819.25,824.9688,829.25,828.9688,825.25,824.9688" style="stroke:#181818;stroke-width:1.0;"/><line style="stroke:#181818;stroke-width:1.0;" x1="807.25" x2="807.25" y1="702.875" y2="737.875"/><polygon fill="#181818" points="803.25,727.875,807.25,737.875,811.25,727.875,807.25,731.875" style="stroke:#181818;stroke-width:1.0;"/><line style="stroke:#181818;stroke-width:1.0;" x1="939.625" x2="939.625" y1="1083.1563" y2="1118.1563"/><polygon fill="#181818" points="935.625,1108.1563,939.625,1118.1563,943.625,1108.1563,939.625,1112.1563" style="stroke:#181818;stroke-width:1.0;"/><line style="stroke:#181818;stroke-width:1.0;" x1="862.875" x2="862.875" y1="1257.3438" y2="1452.4375"/><line style="stroke:#181818;stroke-width:1.0;" x1="862.875" x2="927.625" y1="1452.4375" y2="1452.4375"/><polygon fill="#181818" points="917.625,1448.4375,927.625,1452.4375,917.625,1456.4375,921.625,1452.4375" style="stroke:#181818;stroke-width:1.0;"/><line style="stroke:#181818;stroke-width:1.0;" x1="1016.375" x2="1016.375" y1="1257.3438" y2="1292.3438"/><polygon fill="#181818" points="1012.375,1282.3438,1016.375,1292.3438,1020.375,1282.3438,1016.375,1286.3438" style="stroke:#181818;stroke-width:1.0;"/><line style="stroke:#181818;stroke-width:1.0;" x1="898.125" x2="862.875" y1="1200.25" y2="1200.25"/><line style="stroke:#181818;stroke-width:1.0;" x1="862.875" x2="862.875" y1="1200.25" y2="1222.25"/><polygon fill="#181818" points="858.875,1212.25,862.875,1222.25,866.875,1212.25,862.875,1216.25" style="stroke:#181818;stroke-width:1.0;"/><line style="stroke:#181818;stroke-width:1.0;" x1="981.125" x2="1016.375" y1="1200.25" y2="1200.25"/><line style="stroke:#181818;stroke-width:1.0;" x1="1016.375" x2="1016.375" y1="1200.25" y2="1222.25"/><polygon fill="#181818" points="1012.375,1212.25,1016.375,1222.25,1020.375,1212.25,1016.375,1216.25" style="stroke:#181818;stroke-width:1.0;"/><line style="stroke:#181818;stroke-width:1.0;" x1="1016.375" x2="1016.375" y1="1327.4375" y2="1333.4375"/><line style="stroke:#181818;stroke-width:1.0;" x1="1016.375" x2="939.625" y1="1333.4375" y2="1333.4375"/><line style="stroke:#181818;stroke-width:1.0;" x1="939.625" x2="939.625" y1="1333.4375" y2="1381.4375"/><polygon fill="#181818" points="935.625,1371.4375,939.625,1381.4375,943.625,1371.4375,939.625,1375.4375" style="stroke:#181818;stroke-width:1.0;"/><line style="stroke:#181818;stroke-width:1.0;" x1="939.625" x2="939.625" y1="1153.25" y2="1188.25"/><polygon fill="#181818" points="935.625,1178.25,939.625,1188.25,943.625,1178.25,939.625,1182.25" style="stroke:#181818;stroke-width:1.0;"/><line style="stroke:#181818;stroke-width:1.0;" x1="939.625" x2="939.625" y1="1000.0625" y2="1048.0625"/><polygon fill="#181818" points="935.625,1038.0625,939.625,1048.0625,943.625,1038.0625,939.625,1042.0625" style="stroke:#181818;stroke-width:1.0;"/><line style="stroke:#181818;stroke-width:1.0;" x1="1003.125" x2="1097.875" y1="1393.4375" y2="1393.4375"/><polygon fill="#181818" points="1093.875,1200.75,1097.875,1190.75,1101.875,1200.75,1097.875,1196.75" style="stroke:#181818;stroke-width:1.0;"/><line style="stroke:#181818;stroke-width:1.0;" x1="1097.875" x2="1097.875" y1="988.0625" y2="1393.4375"/><line style="stroke:#181818;stroke-width:1.0;" x1="1097.875" x2="951.625" y1="988.0625" y2="988.0625"/><polygon fill="#181818" points="961.625,984.0625,951.625,988.0625,961.625,992.0625,957.625,988.0625" style="stroke:#181818;stroke-width:1.0;"/><line style="stroke:#181818;stroke-width:1.0;" x1="939.625" x2="939.625" y1="1405.4375" y2="1440.4375"/><polygon fill="#181818" points="935.625,1430.4375,939.625,1440.4375,943.625,1430.4375,939.625,1434.4375" style="stroke:#181818;stroke-width:1.0;"/><line style="stroke:#181818;stroke-width:1.0;" x1="939.625" x2="939.625" y1="941.0625" y2="976.0625"/><polygon fill="#181818" points="935.625,966.0625,939.625,976.0625,943.625,966.0625,939.625,970.0625" style="stroke:#181818;stroke-width:1.0;"/><line style="stroke:#181818;stroke-width:1.0;" x1="939.625" x2="939.625" y1="1523.4375" y2="1548.3555"/><polygon fill="#181818" points="935.625,1538.3555,939.625,1548.3555,943.625,1538.3555,939.625,1542.3555" style="stroke:#181818;stroke-width:1.0;"/><line style="stroke:#181818;stroke-width:1.0;" x1="1000.125" x2="1075.625" y1="1511.4375" y2="1511.4375"/><polygon fill="#181818" points="1071.625,1555.9023,1075.625,1565.9023,1079.625,1555.9023,1075.625,1559.9023" style="stroke:#181818;stroke-width:1.0;"/><line style="stroke:#181818;stroke-width:1.0;" x1="1075.625" x2="1075.625" y1="1511.4375" y2="1620.3672"/><line style="stroke:#181818;stroke-width:1.0;" x1="1075.625" x2="951.625" y1="1620.3672" y2="1620.3672"/><polygon fill="#181818" points="961.625,1616.3672,951.625,1620.3672,961.625,1624.3672,957.625,1620.3672" style="stroke:#181818;stroke-width:1.0;"/><line style="stroke:#181818;stroke-width:1.0;" x1="939.625" x2="939.625" y1="1583.4492" y2="1608.3672"/><polygon fill="#181818" points="935.625,1598.3672,939.625,1608.3672,943.625,1598.3672,939.625,1602.3672" style="stroke:#181818;stroke-width:1.0;"/><line style="stroke:#181818;stroke-width:1.0;" x1="939.625" x2="939.625" y1="1464.4375" y2="1499.4375"/><polygon fill="#181818" points="935.625,1489.4375,939.625,1499.4375,943.625,1489.4375,939.625,1493.4375" style="stroke:#181818;stroke-width:1.0;"/><line style="stroke:#181818;stroke-width:1.0;" x1="765.75" x2="674.875" y1="883.9688" y2="883.9688"/><line style="stroke:#181818;stroke-width:1.0;" x1="674.875" x2="674.875" y1="883.9688" y2="905.9688"/><polygon fill="#181818" points="670.875,895.9688,674.875,905.9688,678.875,895.9688,674.875,899.9688" style="stroke:#181818;stroke-width:1.0;"/><line style="stroke:#181818;stroke-width:1.0;" x1="848.75" x2="939.625" y1="883.9688" y2="883.9688"/><line style="stroke:#181818;stroke-width:1.0;" x1="939.625" x2="939.625" y1="883.9688" y2="905.9688"/><polygon fill="#181818" points="935.625,895.9688,939.625,905.9688,943.625,895.9688,939.625,899.9688" style="stroke:#181818;stroke-width:1.0;"/><line style="stroke:#181818;stroke-width:1.0;" x1="674.875" x2="674.875" y1="941.0625" y2="1650.3672"/><line style="stroke:#181818;stroke-width:1.0;" x1="674.875" x2="795.25" y1="1650.3672" y2="1650.3672"/><polygon fill="#181818" points="785.25,1646.3672,795.25,1650.3672,785.25,1654.3672,789.25,1650.3672" style="stroke:#181818;stroke-width:1.0;"/><line style="stroke:#181818;stroke-width:1.0;" x1="939.625" x2="939.625" y1="1632.3672" y2="1650.3672"/><line style="stroke:#181818;stroke-width:1.0;" x1="939.625" x2="819.25" y1="1650.3672" y2="1650.3672"/><polygon fill="#181818" points="829.25,1646.3672,819.25,1650.3672,829.25,1654.3672,825.25,1650.3672" style="stroke:#181818;stroke-width:1.0;"/><line style="stroke:#181818;stroke-width:1.0;" x1="807.25" x2="807.25" y1="836.9688" y2="871.9688"/><polygon fill="#181818" points="803.25,861.9688,807.25,871.9688,811.25,861.9688,807.25,865.9688" style="stroke:#181818;stroke-width:1.0;"/><line style="stroke:#181818;stroke-width:1.0;" x1="531.6875" x2="352.125" y1="575.6875" y2="575.6875"/><line style="stroke:#181818;stroke-width:1.0;" x1="352.125" x2="352.125" y1="575.6875" y2="597.6875"/><polygon fill="#181818" points="348.125,587.6875,352.125,597.6875,356.125,587.6875,352.125,591.6875" style="stroke:#181818;stroke-width:1.0;"/><line style="stroke:#181818;stroke-width:1.0;" x1="627.6875" x2="807.25" y1="575.6875" y2="575.6875"/><line style="stroke:#181818;stroke-width:1.0;" x1="807.25" x2="807.25" y1="575.6875" y2="597.6875"/><polygon fill="#181818" points="803.25,587.6875,807.25,597.6875,811.25,587.6875,807.25,591.6875" style="stroke:#181818;stroke-width:1.0;"/><line style="stroke:#181818;stroke-width:1.0;" x1="352.125" x2="352.125" y1="1531.8125" y2="1680.3672"/><line style="stroke:#181818;stroke-width:1.0;" x1="352.125" x2="567.6875" y1="1680.3672" y2="1680.3672"/><polygon fill="#181818" points="557.6875,1676.3672,567.6875,1680.3672,557.6875,1684.3672,561.6875,1680.3672" style="stroke:#181818;stroke-width:1.0;"/><line style="stroke:#181818;stroke-width:1.0;" x1="807.25" x2="807.25" y1="1662.3672" y2="1680.3672"/><line style="stroke:#181818;stroke-width:1.0;" x1="807.25" x2="591.6875" y1="1680.3672" y2="1680.3672"/><polygon fill="#181818" points="601.6875,1676.3672,591.6875,1680.3672,601.6875,1684.3672,597.6875,1680.3672" style="stroke:#181818;stroke-width:1.0;"/><line style="stroke:#181818;stroke-width:1.0;" x1="579.6875" x2="579.6875" y1="528.6875" y2="563.6875"/><polygon fill="#181818" points="575.6875,553.6875,579.6875,563.6875,583.6875,553.6875,579.6875,557.6875" style="stroke:#181818;stroke-width:1.0;"/><line style="stroke:#181818;stroke-width:1.0;" x1="579.6875" x2="579.6875" y1="445.5938" y2="493.5938"/><polygon fill="#181818" points="575.6875,483.5938,579.6875,493.5938,583.6875,483.5938,579.6875,487.5938" style="stroke:#181818;stroke-width:1.0;"/><line style="stroke:#181818;stroke-width:1.0;" x1="692.1875" x2="1141.875" y1="1752.3672" y2="1752.3672"/><polygon fill="#181818" points="1137.875,1102.9805,1141.875,1092.9805,1145.875,1102.9805,1141.875,1098.9805" style="stroke:#181818;stroke-width:1.0;"/><line style="stroke:#181818;stroke-width:1.0;" x1="1141.875" x2="1141.875" y1="433.5938" y2="1752.3672"/><line style="stroke:#181818;stroke-width:1.0;" x1="1141.875" x2="591.6875" y1="433.5938" y2="433.5938"/><polygon fill="#181818" points="601.6875,429.5938,591.6875,433.5938,601.6875,437.5938,597.6875,433.5938" style="stroke:#181818;stroke-width:1.0;"/><line style="stroke:#181818;stroke-width:1.0;" x1="579.6875" x2="579.6875" y1="1692.3672" y2="1740.3672"/><polygon fill="#181818" points="575.6875,1730.3672,579.6875,1740.3672,583.6875,1730.3672,579.6875,1734.3672" style="stroke:#181818;stroke-width:1.0;"/><line style="stroke:#181818;stroke-width:1.0;" x1="579.6875" x2="579.6875" y1="386.5938" y2="421.5938"/><polygon fill="#181818" points="575.6875,411.5938,579.6875,421.5938,583.6875,411.5938,579.6875,415.5938" style="stroke:#181818;stroke-width:1.0;"/><line style="stroke:#181818;stroke-width:1.0;" x1="579.6875" x2="579.6875" y1="1764.3672" y2="1799.3672"/><polygon fill="#181818" points="575.6875,1789.3672,579.6875,1799.3672,583.6875,1789.3672,579.6875,1793.3672" style="stroke:#181818;stroke-width:1.0;"/><line style="stroke:#181818;stroke-width:1.0;" x1="579.6875" x2="579.6875" y1="1834.4609" y2="1869.4609"/><polygon fill="#181818" points="575.6875,1859.4609,579.6875,1869.4609,583.6875,1859.4609,579.6875,1863.4609" style="stroke:#181818;stroke-width:1.0;"/><line style="stroke:#181818;stroke-width:1.0;" x1="579.6875" x2="579.6875" y1="1904.5547" y2="1939.5547"/><polygon fill="#181818" points="575.6875,1929.5547,579.6875,1939.5547,583.6875,1929.5547,579.6875,1933.5547" style="stroke:#181818;stroke-width:1.0;"/><!--SRC=[ZLNHRjem57tFLrpr2QIr7q0dLMIC2PMkLTAfKgi-cEGsyN1jP5zWsRH_tqqSXn0XLfuI- -IUSwwFBoH98IobHfWRfSmUBIHcPGWkOPgHt4cgO2P5OSKxh2gOgfsCeet8rg90k10PmKkiJBP-ROg46hx4Iuobs4bZNyEd5_0dYXm9Ir4qUMZOxlLrD5beIL8e-HiXhHpXEwzzrSJRYvprfIG8UUdH2kqOQJIGwH5ANGHCP763WYA0IO8YXqK2AMfdhECz0Fa6eyRj30apmlnc35IYXb65Rim0_cwQ_zmwWZj3naAwGSnTJUUf6jQcL63ueSWAPxJCMgRhPhDckb-nrqoTO-CgtcZ01cWmr89ICXiloHtMCg5dqZASE-9WBwba2NPdFB33VIcDSTWX8HQEw_F3J3Adpe8VB_gRWKGM9PtIsgbj476r4SuT2sN4uzPg3-WjjjZWCkoWSZYilSItiwNh_GzKrhby2xucIsFMSsFhmriaNMFcKajN-WBTOe9Kimm3rlQe9tZonMYIUXkkJfr2duuZ_kwBOAylfOjjUr2OhM4fE7stskph0shFx92f9-4yecx3oJnrJOAKLQaAdafPNo9EYswC37qS3kpi5uU6ThTeRhRwTAWJTDjt7BPmo1nZ8JKyo-BoMHGzldQ_kyiddDLoLTNBWMyUTxPt21yJ-n_1_hUoADRT-r5kXoqSIZiZpZUrxnRsJUz7TJDWIZmBD-JWCzo9N-F-DMqifIILWkyyQy-OQtCt5qgjU713cCemmglYwXCqeuLVfmejZO_lpt6I_SEnpbYmHbl1_UqD29txQl6MYETBBUp1ekDnmzfR7GqWJ7G_xI4jjvHpuA_hVmUpYVx-0m00]--></g></svg>