<?xml version="1.0" encoding="us-ascii" standalone="no"?><svg xmlns="http://www.w3.org/2000/svg" xmlns:xlink="http://www.w3.org/1999/xlink" contentStyleType="text/css" height="1094px" preserveAspectRatio="none" style="width:780px;height:1094px;background:#FFFFFF;" version="1.1" viewBox="0 0 780 1094" width="780px" zoomAndPan="magnify"><defs/><g><text fill="#000000" font-family="sans-serif" font-size="14" font-weight="bold" lengthAdjust="spacing" textLength="411" x="177.5" y="24.5332">Line Follower Robot Block Definition Diagram (BDD) by Alvi</text><!--cluster bdd [Package] Line Follower Robot System--><g id="cluster_bdd [Package] Line Follower Robot System"><path d="M8.5,44.6094 L308.5,44.6094 A3.75,3.75 0 0 1 311,47.1094 L318,68.2188 L770.5,68.2188 A2.5,2.5 0 0 1 773,70.7188 L773,1085.1094 A2.5,2.5 0 0 1 770.5,1087.6094 L8.5,1087.6094 A2.5,2.5 0 0 1 6,1085.1094 L6,47.1094 A2.5,2.5 0 0 1 8.5,44.6094 " fill="none" style="stroke:#000000;stroke-width:1.5;"/><line style="stroke:#000000;stroke-width:1.5;" x1="6" x2="318" y1="68.2188" y2="68.2188"/><text fill="#000000" font-family="sans-serif" font-size="14" font-weight="bold" lengthAdjust="spacing" textLength="299" x="10" y="61.1426">bdd [Package] Line Follower Robot System</text></g><!--class Robot--><g id="elem_Robot"><rect codeLine="19" fill="#FFFFFF" height="54.9297" id="Robot" rx="2.5" ry="2.5" style="stroke:#000000;stroke-width:0.5;" width="136" x="414" y="80.6094"/><ellipse cx="429" cy="100.0742" fill="#ADD1B2" rx="11" ry="11" style="stroke:#181818;stroke-width:1.0;"/><path d="M431.7656,95.9492 Q431.9219,95.7305 432.1094,95.6211 Q432.2969,95.5117 432.5156,95.5117 Q432.8906,95.5117 433.125,95.7773 Q433.3594,96.0273 433.3594,96.6367 L433.3594,98.0898 Q433.3594,98.6992 433.125,98.9648 Q432.8906,99.2305 432.5156,99.2305 Q432.1719,99.2305 431.9688,99.0273 Q431.7656,98.8398 431.6563,98.3242 Q431.6094,97.9648 431.4219,97.7773 Q431.0938,97.4023 430.4844,97.1836 Q429.875,96.9648 429.25,96.9648 Q428.4844,96.9648 427.8438,97.293 Q427.2188,97.6211 426.7188,98.3711 Q426.2344,99.1211 426.2344,100.1523 L426.2344,101.2461 Q426.2344,102.4805 427.125,103.3086 Q428.0156,104.1211 429.6094,104.1211 Q430.5469,104.1211 431.2031,103.8711 Q431.5938,103.7148 432.0156,103.2773 Q432.2813,103.0117 432.4219,102.9336 Q432.5781,102.8555 432.7813,102.8555 Q433.1094,102.8555 433.3594,103.1211 Q433.625,103.3711 433.625,103.7148 Q433.625,104.0586 433.2813,104.4648 Q432.7813,105.043 431.9844,105.3711 Q430.9063,105.8242 429.6094,105.8242 Q428.0938,105.8242 426.8906,105.1992 Q425.9063,104.6992 425.2188,103.6367 Q424.5313,102.5586 424.5313,101.2773 L424.5313,100.1211 Q424.5313,98.793 425.1406,97.6523 Q425.7656,96.4961 426.8594,95.8867 Q427.9531,95.2617 429.1875,95.2617 Q429.9219,95.2617 430.5625,95.4336 Q431.2188,95.5898 431.7656,95.9492 Z " fill="#000000"/><text fill="#008800" font-family="sans-serif" font-size="11" font-style="italic" lengthAdjust="spacing" textLength="40" x="475" y="97.0283">&#171;block&#187;</text><text fill="#000000" font-family="sans-serif" font-size="12" lengthAdjust="spacing" textLength="104" x="443" y="111.9023">LineFollowerRobot</text><line style="stroke:#000000;stroke-width:0.5;" x1="415" x2="549" y1="119.5391" y2="119.5391"/><line style="stroke:#000000;stroke-width:0.5;" x1="415" x2="549" y1="127.5391" y2="127.5391"/></g><!--class Arduino--><g id="elem_Arduino"><rect codeLine="23" fill="#FFFFFF" height="125.3672" id="Arduino" rx="2.5" ry="2.5" style="stroke:#000000;stroke-width:0.5;" width="97" x="285.5" y="584.6094"/><ellipse cx="300.5" cy="604.0742" fill="#ADD1B2" rx="11" ry="11" style="stroke:#181818;stroke-width:1.0;"/><path d="M303.2656,599.9492 Q303.4219,599.7305 303.6094,599.6211 Q303.7969,599.5117 304.0156,599.5117 Q304.3906,599.5117 304.625,599.7773 Q304.8594,600.0273 304.8594,600.6367 L304.8594,602.0898 Q304.8594,602.6992 304.625,602.9648 Q304.3906,603.2305 304.0156,603.2305 Q303.6719,603.2305 303.4688,603.0273 Q303.2656,602.8398 303.1563,602.3242 Q303.1094,601.9648 302.9219,601.7773 Q302.5938,601.4023 301.9844,601.1836 Q301.375,600.9648 300.75,600.9648 Q299.9844,600.9648 299.3438,601.293 Q298.7188,601.6211 298.2188,602.3711 Q297.7344,603.1211 297.7344,604.1523 L297.7344,605.2461 Q297.7344,606.4805 298.625,607.3086 Q299.5156,608.1211 301.1094,608.1211 Q302.0469,608.1211 302.7031,607.8711 Q303.0938,607.7148 303.5156,607.2773 Q303.7813,607.0117 303.9219,606.9336 Q304.0781,606.8555 304.2813,606.8555 Q304.6094,606.8555 304.8594,607.1211 Q305.125,607.3711 305.125,607.7148 Q305.125,608.0586 304.7813,608.4648 Q304.2813,609.043 303.4844,609.3711 Q302.4063,609.8242 301.1094,609.8242 Q299.5938,609.8242 298.3906,609.1992 Q297.4063,608.6992 296.7188,607.6367 Q296.0313,606.5586 296.0313,605.2773 L296.0313,604.1211 Q296.0313,602.793 296.6406,601.6523 Q297.2656,600.4961 298.3594,599.8867 Q299.4531,599.2617 300.6875,599.2617 Q301.4219,599.2617 302.0625,599.4336 Q302.7188,599.5898 303.2656,599.9492 Z " fill="#000000"/><text fill="#008800" font-family="sans-serif" font-size="11" font-style="italic" lengthAdjust="spacing" textLength="40" x="327" y="601.0283">&#171;block&#187;</text><text fill="#000000" font-family="sans-serif" font-size="12" lengthAdjust="spacing" textLength="65" x="314.5" y="615.9023">ArduinoUno</text><line style="stroke:#000000;stroke-width:0.5;" x1="286.5" x2="381.5" y1="623.5391" y2="623.5391"/><ellipse cx="296.5" cy="637.8438" fill="none" rx="3" ry="3" style="stroke:#038048;stroke-width:1.0;"/><text fill="#000000" font-family="sans-serif" font-size="14" lengthAdjust="spacing" textLength="52" x="305.5" y="642.0723">D2..D11</text><ellipse cx="296.5" cy="655.4531" fill="none" rx="3" ry="3" style="stroke:#038048;stroke-width:1.0;"/><text fill="#000000" font-family="sans-serif" font-size="14" lengthAdjust="spacing" textLength="20" x="305.5" y="659.6816">Vin</text><ellipse cx="296.5" cy="673.0625" fill="none" rx="3" ry="3" style="stroke:#038048;stroke-width:1.0;"/><text fill="#000000" font-family="sans-serif" font-size="14" lengthAdjust="spacing" textLength="30" x="305.5" y="677.291">GND</text><ellipse cx="296.5" cy="690.6719" fill="none" rx="3" ry="3" style="stroke:#038048;stroke-width:1.0;"/><text fill="#000000" font-family="sans-serif" font-size="14" lengthAdjust="spacing" textLength="17" x="305.5" y="694.9004">5V</text><line style="stroke:#000000;stroke-width:0.5;" x1="286.5" x2="381.5" y1="701.9766" y2="701.9766"/></g><!--class IR--><g id="elem_IR"><rect codeLine="30" fill="#FFFFFF" height="107.7578" id="IR" rx="2.5" ry="2.5" style="stroke:#000000;stroke-width:0.5;" width="91" x="222.5" y="805.1094"/><ellipse cx="237.5" cy="824.5742" fill="#ADD1B2" rx="11" ry="11" style="stroke:#181818;stroke-width:1.0;"/><path d="M240.2656,820.4492 Q240.4219,820.2305 240.6094,820.1211 Q240.7969,820.0117 241.0156,820.0117 Q241.3906,820.0117 241.625,820.2773 Q241.8594,820.5273 241.8594,821.1367 L241.8594,822.5898 Q241.8594,823.1992 241.625,823.4648 Q241.3906,823.7305 241.0156,823.7305 Q240.6719,823.7305 240.4688,823.5273 Q240.2656,823.3398 240.1563,822.8242 Q240.1094,822.4648 239.9219,822.2773 Q239.5938,821.9023 238.9844,821.6836 Q238.375,821.4648 237.75,821.4648 Q236.9844,821.4648 236.3438,821.793 Q235.7188,822.1211 235.2188,822.8711 Q234.7344,823.6211 234.7344,824.6523 L234.7344,825.7461 Q234.7344,826.9805 235.625,827.8086 Q236.5156,828.6211 238.1094,828.6211 Q239.0469,828.6211 239.7031,828.3711 Q240.0938,828.2148 240.5156,827.7773 Q240.7813,827.5117 240.9219,827.4336 Q241.0781,827.3555 241.2813,827.3555 Q241.6094,827.3555 241.8594,827.6211 Q242.125,827.8711 242.125,828.2148 Q242.125,828.5586 241.7813,828.9648 Q241.2813,829.543 240.4844,829.8711 Q239.4063,830.3242 238.1094,830.3242 Q236.5938,830.3242 235.3906,829.6992 Q234.4063,829.1992 233.7188,828.1367 Q233.0313,827.0586 233.0313,825.7773 L233.0313,824.6211 Q233.0313,823.293 233.6406,822.1523 Q234.2656,820.9961 235.3594,820.3867 Q236.4531,819.7617 237.6875,819.7617 Q238.4219,819.7617 239.0625,819.9336 Q239.7188,820.0898 240.2656,820.4492 Z " fill="#000000"/><text fill="#008800" font-family="sans-serif" font-size="11" font-style="italic" lengthAdjust="spacing" textLength="40" x="261" y="821.5283">&#171;block&#187;</text><text fill="#000000" font-family="sans-serif" font-size="12" lengthAdjust="spacing" textLength="59" x="251.5" y="836.4023">IR_Sensor</text><line style="stroke:#000000;stroke-width:0.5;" x1="223.5" x2="312.5" y1="844.0391" y2="844.0391"/><ellipse cx="233.5" cy="858.3438" fill="none" rx="3" ry="3" style="stroke:#038048;stroke-width:1.0;"/><text fill="#000000" font-family="sans-serif" font-size="14" lengthAdjust="spacing" textLength="39" x="242.5" y="862.5723">Signal</text><ellipse cx="233.5" cy="875.9531" fill="none" rx="3" ry="3" style="stroke:#038048;stroke-width:1.0;"/><text fill="#000000" font-family="sans-serif" font-size="14" lengthAdjust="spacing" textLength="29" x="242.5" y="880.1816">VCC</text><ellipse cx="233.5" cy="893.5625" fill="none" rx="3" ry="3" style="stroke:#038048;stroke-width:1.0;"/><text fill="#000000" font-family="sans-serif" font-size="14" lengthAdjust="spacing" textLength="30" x="242.5" y="897.791">GND</text><line style="stroke:#000000;stroke-width:0.5;" x1="223.5" x2="312.5" y1="904.8672" y2="904.8672"/></g><!--class Ultrasonic--><g id="elem_Ultrasonic"><rect codeLine="36" fill="#FFFFFF" height="125.3672" id="Ultrasonic" rx="2.5" ry="2.5" style="stroke:#000000;stroke-width:0.5;" width="128" x="59" y="796.6094"/><ellipse cx="74" cy="816.0742" fill="#ADD1B2" rx="11" ry="11" style="stroke:#181818;stroke-width:1.0;"/><path d="M76.7656,811.9492 Q76.9219,811.7305 77.1094,811.6211 Q77.2969,811.5117 77.5156,811.5117 Q77.8906,811.5117 78.125,811.7773 Q78.3594,812.0273 78.3594,812.6367 L78.3594,814.0898 Q78.3594,814.6992 78.125,814.9648 Q77.8906,815.2305 77.5156,815.2305 Q77.1719,815.2305 76.9688,815.0273 Q76.7656,814.8398 76.6563,814.3242 Q76.6094,813.9648 76.4219,813.7773 Q76.0938,813.4023 75.4844,813.1836 Q74.875,812.9648 74.25,812.9648 Q73.4844,812.9648 72.8438,813.293 Q72.2188,813.6211 71.7188,814.3711 Q71.2344,815.1211 71.2344,816.1523 L71.2344,817.2461 Q71.2344,818.4805 72.125,819.3086 Q73.0156,820.1211 74.6094,820.1211 Q75.5469,820.1211 76.2031,819.8711 Q76.5938,819.7148 77.0156,819.2773 Q77.2813,819.0117 77.4219,818.9336 Q77.5781,818.8555 77.7813,818.8555 Q78.1094,818.8555 78.3594,819.1211 Q78.625,819.3711 78.625,819.7148 Q78.625,820.0586 78.2813,820.4648 Q77.7813,821.043 76.9844,821.3711 Q75.9063,821.8242 74.6094,821.8242 Q73.0938,821.8242 71.8906,821.1992 Q70.9063,820.6992 70.2188,819.6367 Q69.5313,818.5586 69.5313,817.2773 L69.5313,816.1211 Q69.5313,814.793 70.1406,813.6523 Q70.7656,812.4961 71.8594,811.8867 Q72.9531,811.2617 74.1875,811.2617 Q74.9219,811.2617 75.5625,811.4336 Q76.2188,811.5898 76.7656,811.9492 Z " fill="#000000"/><text fill="#008800" font-family="sans-serif" font-size="11" font-style="italic" lengthAdjust="spacing" textLength="40" x="116" y="813.0283">&#171;block&#187;</text><text fill="#000000" font-family="sans-serif" font-size="12" lengthAdjust="spacing" textLength="96" x="88" y="827.9023">UltrasonicSensor</text><line style="stroke:#000000;stroke-width:0.5;" x1="60" x2="186" y1="835.5391" y2="835.5391"/><ellipse cx="70" cy="849.8438" fill="none" rx="3" ry="3" style="stroke:#038048;stroke-width:1.0;"/><text fill="#000000" font-family="sans-serif" font-size="14" lengthAdjust="spacing" textLength="25" x="79" y="854.0723">Trig</text><ellipse cx="70" cy="867.4531" fill="none" rx="3" ry="3" style="stroke:#038048;stroke-width:1.0;"/><text fill="#000000" font-family="sans-serif" font-size="14" lengthAdjust="spacing" textLength="32" x="79" y="871.6816">Echo</text><ellipse cx="70" cy="885.0625" fill="none" rx="3" ry="3" style="stroke:#038048;stroke-width:1.0;"/><text fill="#000000" font-family="sans-serif" font-size="14" lengthAdjust="spacing" textLength="29" x="79" y="889.291">VCC</text><ellipse cx="70" cy="902.6719" fill="none" rx="3" ry="3" style="stroke:#038048;stroke-width:1.0;"/><text fill="#000000" font-family="sans-serif" font-size="14" lengthAdjust="spacing" textLength="30" x="79" y="906.9004">GND</text><line style="stroke:#000000;stroke-width:0.5;" x1="60" x2="186" y1="913.9766" y2="913.9766"/></g><!--class ColorSensor--><g id="elem_ColorSensor"><rect codeLine="43" fill="#FFFFFF" height="142.9766" id="ColorSensor" rx="2.5" ry="2.5" style="stroke:#000000;stroke-width:0.5;" width="161" x="348.5" y="787.6094"/><ellipse cx="363.5" cy="807.0742" fill="#ADD1B2" rx="11" ry="11" style="stroke:#181818;stroke-width:1.0;"/><path d="M366.2656,802.9492 Q366.4219,802.7305 366.6094,802.6211 Q366.7969,802.5117 367.0156,802.5117 Q367.3906,802.5117 367.625,802.7773 Q367.8594,803.0273 367.8594,803.6367 L367.8594,805.0898 Q367.8594,805.6992 367.625,805.9648 Q367.3906,806.2305 367.0156,806.2305 Q366.6719,806.2305 366.4688,806.0273 Q366.2656,805.8398 366.1563,805.3242 Q366.1094,804.9648 365.9219,804.7773 Q365.5938,804.4023 364.9844,804.1836 Q364.375,803.9648 363.75,803.9648 Q362.9844,803.9648 362.3438,804.293 Q361.7188,804.6211 361.2188,805.3711 Q360.7344,806.1211 360.7344,807.1523 L360.7344,808.2461 Q360.7344,809.4805 361.625,810.3086 Q362.5156,811.1211 364.1094,811.1211 Q365.0469,811.1211 365.7031,810.8711 Q366.0938,810.7148 366.5156,810.2773 Q366.7813,810.0117 366.9219,809.9336 Q367.0781,809.8555 367.2813,809.8555 Q367.6094,809.8555 367.8594,810.1211 Q368.125,810.3711 368.125,810.7148 Q368.125,811.0586 367.7813,811.4648 Q367.2813,812.043 366.4844,812.3711 Q365.4063,812.8242 364.1094,812.8242 Q362.5938,812.8242 361.3906,812.1992 Q360.4063,811.6992 359.7188,810.6367 Q359.0313,809.5586 359.0313,808.2773 L359.0313,807.1211 Q359.0313,805.793 359.6406,804.6523 Q360.2656,803.4961 361.3594,802.8867 Q362.4531,802.2617 363.6875,802.2617 Q364.4219,802.2617 365.0625,802.4336 Q365.7188,802.5898 366.2656,802.9492 Z " fill="#000000"/><text fill="#008800" font-family="sans-serif" font-size="11" font-style="italic" lengthAdjust="spacing" textLength="40" x="422" y="804.0283">&#171;block&#187;</text><text fill="#000000" font-family="sans-serif" font-size="12" lengthAdjust="spacing" textLength="129" x="377.5" y="818.9023">TCS3200_ColorSensor</text><line style="stroke:#000000;stroke-width:0.5;" x1="349.5" x2="508.5" y1="826.5391" y2="826.5391"/><ellipse cx="359.5" cy="840.8438" fill="none" rx="3" ry="3" style="stroke:#038048;stroke-width:1.0;"/><text fill="#000000" font-family="sans-serif" font-size="14" lengthAdjust="spacing" textLength="39" x="368.5" y="845.0723">S0-S3</text><ellipse cx="359.5" cy="858.4531" fill="none" rx="3" ry="3" style="stroke:#038048;stroke-width:1.0;"/><text fill="#000000" font-family="sans-serif" font-size="14" lengthAdjust="spacing" textLength="29" x="368.5" y="862.6816">OUT</text><ellipse cx="359.5" cy="876.0625" fill="none" rx="3" ry="3" style="stroke:#038048;stroke-width:1.0;"/><text fill="#000000" font-family="sans-serif" font-size="14" lengthAdjust="spacing" textLength="20" x="368.5" y="880.291">OE</text><ellipse cx="359.5" cy="893.6719" fill="none" rx="3" ry="3" style="stroke:#038048;stroke-width:1.0;"/><text fill="#000000" font-family="sans-serif" font-size="14" lengthAdjust="spacing" textLength="29" x="368.5" y="897.9004">VCC</text><ellipse cx="359.5" cy="911.2813" fill="none" rx="3" ry="3" style="stroke:#038048;stroke-width:1.0;"/><text fill="#000000" font-family="sans-serif" font-size="14" lengthAdjust="spacing" textLength="30" x="368.5" y="915.5098">GND</text><line style="stroke:#000000;stroke-width:0.5;" x1="349.5" x2="508.5" y1="922.5859" y2="922.5859"/></g><!--class Motor--><g id="elem_Motor"><rect codeLine="51" fill="#FFFFFF" height="125.3672" id="Motor" rx="2.5" ry="2.5" style="stroke:#000000;stroke-width:0.5;" width="87" x="544.5" y="796.6094"/><ellipse cx="559.5" cy="816.0742" fill="#ADD1B2" rx="11" ry="11" style="stroke:#181818;stroke-width:1.0;"/><path d="M562.2656,811.9492 Q562.4219,811.7305 562.6094,811.6211 Q562.7969,811.5117 563.0156,811.5117 Q563.3906,811.5117 563.625,811.7773 Q563.8594,812.0273 563.8594,812.6367 L563.8594,814.0898 Q563.8594,814.6992 563.625,814.9648 Q563.3906,815.2305 563.0156,815.2305 Q562.6719,815.2305 562.4688,815.0273 Q562.2656,814.8398 562.1563,814.3242 Q562.1094,813.9648 561.9219,813.7773 Q561.5938,813.4023 560.9844,813.1836 Q560.375,812.9648 559.75,812.9648 Q558.9844,812.9648 558.3438,813.293 Q557.7188,813.6211 557.2188,814.3711 Q556.7344,815.1211 556.7344,816.1523 L556.7344,817.2461 Q556.7344,818.4805 557.625,819.3086 Q558.5156,820.1211 560.1094,820.1211 Q561.0469,820.1211 561.7031,819.8711 Q562.0938,819.7148 562.5156,819.2773 Q562.7813,819.0117 562.9219,818.9336 Q563.0781,818.8555 563.2813,818.8555 Q563.6094,818.8555 563.8594,819.1211 Q564.125,819.3711 564.125,819.7148 Q564.125,820.0586 563.7813,820.4648 Q563.2813,821.043 562.4844,821.3711 Q561.4063,821.8242 560.1094,821.8242 Q558.5938,821.8242 557.3906,821.1992 Q556.4063,820.6992 555.7188,819.6367 Q555.0313,818.5586 555.0313,817.2773 L555.0313,816.1211 Q555.0313,814.793 555.6406,813.6523 Q556.2656,812.4961 557.3594,811.8867 Q558.4531,811.2617 559.6875,811.2617 Q560.4219,811.2617 561.0625,811.4336 Q561.7188,811.5898 562.2656,811.9492 Z " fill="#000000"/><text fill="#008800" font-family="sans-serif" font-size="11" font-style="italic" lengthAdjust="spacing" textLength="40" x="581" y="813.0283">&#171;block&#187;</text><text fill="#000000" font-family="sans-serif" font-size="12" lengthAdjust="spacing" textLength="55" x="573.5" y="827.9023">DC_Motor</text><line style="stroke:#000000;stroke-width:0.5;" x1="545.5" x2="630.5" y1="835.5391" y2="835.5391"/><ellipse cx="555.5" cy="849.8438" fill="none" rx="3" ry="3" style="stroke:#038048;stroke-width:1.0;"/><text fill="#000000" font-family="sans-serif" font-size="14" lengthAdjust="spacing" textLength="40" x="564.5" y="854.0723">InputA</text><ellipse cx="555.5" cy="867.4531" fill="none" rx="3" ry="3" style="stroke:#038048;stroke-width:1.0;"/><text fill="#000000" font-family="sans-serif" font-size="14" lengthAdjust="spacing" textLength="40" x="564.5" y="871.6816">InputB</text><ellipse cx="555.5" cy="885.0625" fill="none" rx="3" ry="3" style="stroke:#038048;stroke-width:1.0;"/><text fill="#000000" font-family="sans-serif" font-size="14" lengthAdjust="spacing" textLength="29" x="564.5" y="889.291">VCC</text><ellipse cx="555.5" cy="902.6719" fill="none" rx="3" ry="3" style="stroke:#038048;stroke-width:1.0;"/><text fill="#000000" font-family="sans-serif" font-size="14" lengthAdjust="spacing" textLength="30" x="564.5" y="906.9004">GND</text><line style="stroke:#000000;stroke-width:0.5;" x1="545.5" x2="630.5" y1="913.9766" y2="913.9766"/></g><!--class Battery--><g id="elem_Battery"><rect codeLine="58" fill="#FFFFFF" height="125.3672" id="Battery" rx="2.5" ry="2.5" style="stroke:#000000;stroke-width:0.5;" width="117" x="328.5" y="213.6094"/><ellipse cx="365.1" cy="233.0742" fill="#ADD1B2" rx="11" ry="11" style="stroke:#181818;stroke-width:1.0;"/><path d="M367.8656,228.9492 Q368.0219,228.7305 368.2094,228.6211 Q368.3969,228.5117 368.6156,228.5117 Q368.9906,228.5117 369.225,228.7773 Q369.4594,229.0273 369.4594,229.6367 L369.4594,231.0898 Q369.4594,231.6992 369.225,231.9648 Q368.9906,232.2305 368.6156,232.2305 Q368.2719,232.2305 368.0688,232.0273 Q367.8656,231.8398 367.7563,231.3242 Q367.7094,230.9648 367.5219,230.7773 Q367.1938,230.4023 366.5844,230.1836 Q365.975,229.9648 365.35,229.9648 Q364.5844,229.9648 363.9438,230.293 Q363.3188,230.6211 362.8188,231.3711 Q362.3344,232.1211 362.3344,233.1523 L362.3344,234.2461 Q362.3344,235.4805 363.225,236.3086 Q364.1156,237.1211 365.7094,237.1211 Q366.6469,237.1211 367.3031,236.8711 Q367.6938,236.7148 368.1156,236.2773 Q368.3813,236.0117 368.5219,235.9336 Q368.6781,235.8555 368.8813,235.8555 Q369.2094,235.8555 369.4594,236.1211 Q369.725,236.3711 369.725,236.7148 Q369.725,237.0586 369.3813,237.4648 Q368.8813,238.043 368.0844,238.3711 Q367.0063,238.8242 365.7094,238.8242 Q364.1938,238.8242 362.9906,238.1992 Q362.0063,237.6992 361.3188,236.6367 Q360.6313,235.5586 360.6313,234.2773 L360.6313,233.1211 Q360.6313,231.793 361.2406,230.6523 Q361.8656,229.4961 362.9594,228.8867 Q364.0531,228.2617 365.2875,228.2617 Q366.0219,228.2617 366.6625,228.4336 Q367.3188,228.5898 367.8656,228.9492 Z " fill="#000000"/><text fill="#008800" font-family="sans-serif" font-size="11" font-style="italic" lengthAdjust="spacing" textLength="40" x="382.4" y="230.0283">&#171;block&#187;</text><text fill="#000000" font-family="sans-serif" font-size="12" lengthAdjust="spacing" textLength="37" x="383.9" y="244.9023">Battery</text><line style="stroke:#000000;stroke-width:0.5;" x1="329.5" x2="444.5" y1="252.5391" y2="252.5391"/><ellipse cx="339.5" cy="266.8438" fill="none" rx="3" ry="3" style="stroke:#038048;stroke-width:1.0;"/><text fill="#000000" font-family="sans-serif" font-size="14" lengthAdjust="spacing" textLength="85" x="348.5" y="271.0723">Voltage: 7.4V</text><ellipse cx="339.5" cy="284.4531" fill="none" rx="3" ry="3" style="stroke:#038048;stroke-width:1.0;"/><text fill="#000000" font-family="sans-serif" font-size="14" lengthAdjust="spacing" textLength="91" x="348.5" y="288.6816">Capacity: mAh</text><ellipse cx="339.5" cy="302.0625" fill="none" rx="3" ry="3" style="stroke:#038048;stroke-width:1.0;"/><text fill="#000000" font-family="sans-serif" font-size="14" lengthAdjust="spacing" textLength="51" x="348.5" y="306.291">Output+</text><ellipse cx="339.5" cy="319.6719" fill="none" rx="3" ry="3" style="stroke:#038048;stroke-width:1.0;"/><text fill="#000000" font-family="sans-serif" font-size="14" lengthAdjust="spacing" textLength="48" x="348.5" y="323.9004">Output-</text><line style="stroke:#000000;stroke-width:0.5;" x1="329.5" x2="444.5" y1="330.9766" y2="330.9766"/></g><!--class Wheel--><g id="elem_Wheel"><rect codeLine="65" fill="#FFFFFF" height="54.9297" id="Wheel" rx="2.5" ry="2.5" style="stroke:#000000;stroke-width:0.5;" width="68" x="561" y="1008.6094"/><ellipse cx="576" cy="1028.0742" fill="#ADD1B2" rx="11" ry="11" style="stroke:#181818;stroke-width:1.0;"/><path d="M578.7656,1023.9492 Q578.9219,1023.7305 579.1094,1023.6211 Q579.2969,1023.5117 579.5156,1023.5117 Q579.8906,1023.5117 580.125,1023.7773 Q580.3594,1024.0273 580.3594,1024.6367 L580.3594,1026.0898 Q580.3594,1026.6992 580.125,1026.9648 Q579.8906,1027.2305 579.5156,1027.2305 Q579.1719,1027.2305 578.9688,1027.0273 Q578.7656,1026.8398 578.6563,1026.3242 Q578.6094,1025.9648 578.4219,1025.7773 Q578.0938,1025.4023 577.4844,1025.1836 Q576.875,1024.9648 576.25,1024.9648 Q575.4844,1024.9648 574.8438,1025.293 Q574.2188,1025.6211 573.7188,1026.3711 Q573.2344,1027.1211 573.2344,1028.1523 L573.2344,1029.2461 Q573.2344,1030.4805 574.125,1031.3086 Q575.0156,1032.1211 576.6094,1032.1211 Q577.5469,1032.1211 578.2031,1031.8711 Q578.5938,1031.7148 579.0156,1031.2773 Q579.2813,1031.0117 579.4219,1030.9336 Q579.5781,1030.8555 579.7813,1030.8555 Q580.1094,1030.8555 580.3594,1031.1211 Q580.625,1031.3711 580.625,1031.7148 Q580.625,1032.0586 580.2813,1032.4648 Q579.7813,1033.043 578.9844,1033.3711 Q577.9063,1033.8242 576.6094,1033.8242 Q575.0938,1033.8242 573.8906,1033.1992 Q572.9063,1032.6992 572.2188,1031.6367 Q571.5313,1030.5586 571.5313,1029.2773 L571.5313,1028.1211 Q571.5313,1026.793 572.1406,1025.6523 Q572.7656,1024.4961 573.8594,1023.8867 Q574.9531,1023.2617 576.1875,1023.2617 Q576.9219,1023.2617 577.5625,1023.4336 Q578.2188,1023.5898 578.7656,1023.9492 Z " fill="#000000"/><text fill="#008800" font-family="sans-serif" font-size="11" font-style="italic" lengthAdjust="spacing" textLength="40" x="588" y="1025.0283">&#171;block&#187;</text><text fill="#000000" font-family="sans-serif" font-size="12" lengthAdjust="spacing" textLength="35" x="590.5" y="1039.9023">Wheel</text><line style="stroke:#000000;stroke-width:0.5;" x1="562" x2="628" y1="1047.5391" y2="1047.5391"/><line style="stroke:#000000;stroke-width:0.5;" x1="562" x2="628" y1="1055.5391" y2="1055.5391"/></g><!--class Caster--><g id="elem_Caster"><rect codeLine="66" fill="#FFFFFF" height="54.9297" id="Caster" rx="2.5" ry="2.5" style="stroke:#000000;stroke-width:0.5;" width="69" x="224.5" y="248.6094"/><ellipse cx="239.5" cy="268.0742" fill="#ADD1B2" rx="11" ry="11" style="stroke:#181818;stroke-width:1.0;"/><path d="M242.2656,263.9492 Q242.4219,263.7305 242.6094,263.6211 Q242.7969,263.5117 243.0156,263.5117 Q243.3906,263.5117 243.625,263.7773 Q243.8594,264.0273 243.8594,264.6367 L243.8594,266.0898 Q243.8594,266.6992 243.625,266.9648 Q243.3906,267.2305 243.0156,267.2305 Q242.6719,267.2305 242.4688,267.0273 Q242.2656,266.8398 242.1563,266.3242 Q242.1094,265.9648 241.9219,265.7773 Q241.5938,265.4023 240.9844,265.1836 Q240.375,264.9648 239.75,264.9648 Q238.9844,264.9648 238.3438,265.293 Q237.7188,265.6211 237.2188,266.3711 Q236.7344,267.1211 236.7344,268.1523 L236.7344,269.2461 Q236.7344,270.4805 237.625,271.3086 Q238.5156,272.1211 240.1094,272.1211 Q241.0469,272.1211 241.7031,271.8711 Q242.0938,271.7148 242.5156,271.2773 Q242.7813,271.0117 242.9219,270.9336 Q243.0781,270.8555 243.2813,270.8555 Q243.6094,270.8555 243.8594,271.1211 Q244.125,271.3711 244.125,271.7148 Q244.125,272.0586 243.7813,272.4648 Q243.2813,273.043 242.4844,273.3711 Q241.4063,273.8242 240.1094,273.8242 Q238.5938,273.8242 237.3906,273.1992 Q236.4063,272.6992 235.7188,271.6367 Q235.0313,270.5586 235.0313,269.2773 L235.0313,268.1211 Q235.0313,266.793 235.6406,265.6523 Q236.2656,264.4961 237.3594,263.8867 Q238.4531,263.2617 239.6875,263.2617 Q240.4219,263.2617 241.0625,263.4336 Q241.7188,263.5898 242.2656,263.9492 Z " fill="#000000"/><text fill="#008800" font-family="sans-serif" font-size="11" font-style="italic" lengthAdjust="spacing" textLength="40" x="252" y="265.0283">&#171;block&#187;</text><text fill="#000000" font-family="sans-serif" font-size="12" lengthAdjust="spacing" textLength="37" x="253.5" y="279.9023">Caster</text><line style="stroke:#000000;stroke-width:0.5;" x1="225.5" x2="292.5" y1="287.5391" y2="287.5391"/><line style="stroke:#000000;stroke-width:0.5;" x1="225.5" x2="292.5" y1="295.5391" y2="295.5391"/></g><!--class Breadboard--><g id="elem_Breadboard"><rect codeLine="68" fill="#FFFFFF" height="90.1484" id="Breadboard" rx="2.5" ry="2.5" style="stroke:#000000;stroke-width:0.5;" width="99" x="284.5" y="416.6094"/><ellipse cx="300.4" cy="436.0742" fill="#ADD1B2" rx="11" ry="11" style="stroke:#181818;stroke-width:1.0;"/><path d="M303.1656,431.9492 Q303.3219,431.7305 303.5094,431.6211 Q303.6969,431.5117 303.9156,431.5117 Q304.2906,431.5117 304.525,431.7773 Q304.7594,432.0273 304.7594,432.6367 L304.7594,434.0898 Q304.7594,434.6992 304.525,434.9648 Q304.2906,435.2305 303.9156,435.2305 Q303.5719,435.2305 303.3688,435.0273 Q303.1656,434.8398 303.0563,434.3242 Q303.0094,433.9648 302.8219,433.7773 Q302.4938,433.4023 301.8844,433.1836 Q301.275,432.9648 300.65,432.9648 Q299.8844,432.9648 299.2438,433.293 Q298.6188,433.6211 298.1188,434.3711 Q297.6344,435.1211 297.6344,436.1523 L297.6344,437.2461 Q297.6344,438.4805 298.525,439.3086 Q299.4156,440.1211 301.0094,440.1211 Q301.9469,440.1211 302.6031,439.8711 Q302.9938,439.7148 303.4156,439.2773 Q303.6813,439.0117 303.8219,438.9336 Q303.9781,438.8555 304.1813,438.8555 Q304.5094,438.8555 304.7594,439.1211 Q305.025,439.3711 305.025,439.7148 Q305.025,440.0586 304.6813,440.4648 Q304.1813,441.043 303.3844,441.3711 Q302.3063,441.8242 301.0094,441.8242 Q299.4938,441.8242 298.2906,441.1992 Q297.3063,440.6992 296.6188,439.6367 Q295.9313,438.5586 295.9313,437.2773 L295.9313,436.1211 Q295.9313,434.793 296.5406,433.6523 Q297.1656,432.4961 298.2594,431.8867 Q299.3531,431.2617 300.5875,431.2617 Q301.3219,431.2617 301.9625,431.4336 Q302.6188,431.5898 303.1656,431.9492 Z " fill="#000000"/><text fill="#008800" font-family="sans-serif" font-size="11" font-style="italic" lengthAdjust="spacing" textLength="40" x="327.1" y="433.0283">&#171;block&#187;</text><text fill="#000000" font-family="sans-serif" font-size="12" lengthAdjust="spacing" textLength="65" x="314.6" y="447.9023">Breadboard</text><line style="stroke:#000000;stroke-width:0.5;" x1="285.5" x2="382.5" y1="455.5391" y2="455.5391"/><ellipse cx="295.5" cy="469.8438" fill="none" rx="3" ry="3" style="stroke:#038048;stroke-width:1.0;"/><text fill="#000000" font-family="sans-serif" font-size="14" lengthAdjust="spacing" textLength="70" x="304.5" y="474.0723">PowerRails</text><ellipse cx="295.5" cy="487.4531" fill="none" rx="3" ry="3" style="stroke:#038048;stroke-width:1.0;"/><text fill="#000000" font-family="sans-serif" font-size="14" lengthAdjust="spacing" textLength="73" x="304.5" y="491.6816">SignalRows</text><line style="stroke:#000000;stroke-width:0.5;" x1="285.5" x2="382.5" y1="498.7578" y2="498.7578"/></g><!--reverse link Robot to Arduino--><g id="link_Robot_Arduino"><path codeLine="75" d="M481.9433,147.9488 C481.5233,191.1488 478.71,266.5394 463,338.6094 C441.27,438.3394 427.32,461.7294 385,554.6094 C380.55,564.3694 375.44,574.4994 370.22,584.2994 " fill="none" id="Robot-backto-Arduino" style="stroke:#000000;stroke-width:1.0;"/><polygon fill="#000000" points="482.06,135.9494,478.0019,141.9102,481.9433,147.9488,486.0015,141.988,482.06,135.9494" style="stroke:#000000;stroke-width:1.0;"/><text fill="#000000" font-family="sans-serif" font-size="13" lengthAdjust="spacing" textLength="7" x="456" y="383.1045">1</text></g><!--reverse link Robot to IR--><g id="link_Robot_IR"><path codeLine="76" d="M493.4404,147.1116 C523.6204,248.6016 623.16,600.7594 583,709.6094 C542.42,819.5994 434.37,732.2894 331,787.6094 C322.61,792.0994 314.78,798.1794 307.7,804.8894 " fill="none" id="Robot-backto-IR" style="stroke:#000000;stroke-width:1.0;"/><polygon fill="#000000" points="490.02,135.6094,487.8961,142.5006,493.4404,147.1116,495.5643,140.2203,490.02,135.6094" style="stroke:#000000;stroke-width:1.0;"/><text fill="#000000" font-family="sans-serif" font-size="13" lengthAdjust="spacing" textLength="7" x="579" y="467.1045">2</text></g><!--reverse link Robot to Ultrasonic--><g id="link_Robot_Ultrasonic"><path codeLine="77" d="M401.828,114.2377 C344.668,119.8777 274.27,132.3894 210,165.6094 C186.81,177.5894 179.09,182.4794 167,205.6094 C64.99,400.8294 92.32,674.8894 111.54,796.1794 " fill="none" id="Robot-backto-Ultrasonic" style="stroke:#000000;stroke-width:1.0;"/><polygon fill="#000000" points="413.77,113.0594,407.4062,109.6679,401.828,114.2377,408.1918,117.6292,413.77,113.0594" style="stroke:#000000;stroke-width:1.0;"/><text fill="#000000" font-family="sans-serif" font-size="13" lengthAdjust="spacing" textLength="7" x="103" y="467.1045">1</text></g><!--reverse link Robot to ColorSensor--><g id="link_Robot_ColorSensor"><path codeLine="78" d="M541.684,142.8471 C553.044,151.0371 554.29,153.9894 562,165.6094 C598.81,221.0694 695.31,705.4094 654,757.6094 C618.01,803.0894 579.77,763.5494 527,787.6094 C521.18,790.2594 515.36,793.2794 509.62,796.5494 " fill="none" id="Robot-backto-ColorSensor" style="stroke:#000000;stroke-width:1.0;"/><polygon fill="#000000" points="531.95,135.8294,534.4778,142.5829,541.684,142.8471,539.1563,136.0936,531.95,135.8294" style="stroke:#000000;stroke-width:1.0;"/><text fill="#000000" font-family="sans-serif" font-size="13" lengthAdjust="spacing" textLength="7" x="645" y="467.1045">1</text></g><!--reverse link Robot to Motor--><g id="link_Robot_Motor"><path codeLine="79" d="M544.0729,141.7951 C558.2529,150.3251 562.78,154.3394 575,165.6094 C661.71,245.5294 642.71,300.1094 661,416.6094 C684.51,566.3494 728.35,619.4494 666,757.6094 C658.24,774.7994 648.03,773.0894 636,787.6094 C633.64,790.4594 631.28,793.4294 628.95,796.4594 " fill="none" id="Robot-backto-Motor" style="stroke:#000000;stroke-width:1.0;"/><polygon fill="#000000" points="533.79,135.6094,536.8695,142.1298,544.0729,141.7951,540.9933,135.2746,533.79,135.6094" style="stroke:#000000;stroke-width:1.0;"/><text fill="#000000" font-family="sans-serif" font-size="13" lengthAdjust="spacing" textLength="7" x="679" y="467.1045">2</text></g><!--reverse link Robot to Wheel--><g id="link_Robot_Wheel"><path codeLine="80" d="M561.0742,138.9677 C593.7442,154.4477 619.33,172.6694 640,205.6094 C691.51,287.6994 681.25,320.6794 695,416.6094 C727.54,643.6494 728.05,715.3094 649,930.6094 C638.86,958.2194 623.05,987.8294 611.14,1008.4594 " fill="none" id="Robot-backto-Wheel" style="stroke:#000000;stroke-width:1.0;"/><polygon fill="#000000" points="550.23,133.8294,553.9393,140.0133,561.0742,138.9677,557.3649,132.7838,550.23,133.8294" style="stroke:#000000;stroke-width:1.0;"/><text fill="#000000" font-family="sans-serif" font-size="13" lengthAdjust="spacing" textLength="7" x="712" y="551.1045">2</text></g><!--reverse link Robot to Caster--><g id="link_Robot_Caster"><path codeLine="81" d="M410.3036,141.0285 C375.7436,157.9585 343.77,176.7994 311,205.6094 C296.97,217.9494 284.33,234.6394 275.02,248.5694 " fill="none" id="Robot-backto-Caster" style="stroke:#000000;stroke-width:1.0;"/><polygon fill="#000000" points="421.08,135.7494,413.9321,134.7968,410.3036,141.0285,417.4515,141.9811,421.08,135.7494" style="stroke:#000000;stroke-width:1.0;"/><text fill="#000000" font-family="sans-serif" font-size="13" lengthAdjust="spacing" textLength="7" x="364" y="180.1045">1</text></g><!--reverse link Robot to Battery--><g id="link_Robot_Battery"><path codeLine="82" d="M460.7799,146.1946 C448.8199,167.0946 437.66,186.5894 422.34,213.3494 " fill="none" id="Robot-backto-Battery" style="stroke:#000000;stroke-width:1.0;"/><polygon fill="#000000" points="466.74,135.7794,460.2882,139.0003,460.7799,146.1946,467.2317,142.9737,466.74,135.7794" style="stroke:#000000;stroke-width:1.0;"/><text fill="#000000" font-family="sans-serif" font-size="13" lengthAdjust="spacing" textLength="7" x="449" y="180.1045">1</text></g><!--reverse link Robot to Breadboard--><g id="link_Robot_Breadboard"><path codeLine="83" d="M401.9158,112.0074 C334.6158,117.9074 246.82,137.4494 198,205.6094 C163.58,253.6594 173.91,284.6294 198,338.6094 C200.42,344.0194 246.39,384.7194 284.23,417.6394 " fill="none" id="Robot-backto-Breadboard" style="stroke:#000000;stroke-width:1.0;"/><polygon fill="#000000" points="413.87,110.9594,407.5436,107.4987,401.9158,112.0074,408.2423,115.4681,413.87,110.9594" style="stroke:#000000;stroke-width:1.0;"/><text fill="#000000" font-family="sans-serif" font-size="13" lengthAdjust="spacing" textLength="7" x="199" y="281.6045">1</text></g><!--link Arduino to IR--><g id="link_Arduino_IR"><path codeLine="86" d="M299.05,709.7294 C294.48,719.5094 290.25,729.6794 287,739.6094 C280.15,760.4994 276.5332,778.3547 273.6932,799.1147 " fill="none" id="Arduino-to-IR" style="stroke:#000000;stroke-width:1.0;"/><polygon fill="#000000" points="272.88,805.0594,278.0629,796.6846,273.5577,800.1055,270.1368,795.6003,272.88,805.0594" style="stroke:#000000;stroke-width:1.0;"/><text fill="#000000" font-family="sans-serif" font-size="13" lengthAdjust="spacing" textLength="46" x="288" y="754.1045">controls</text></g><!--link Arduino to Ultrasonic--><g id="link_Arduino_Ultrasonic"><path codeLine="87" d="M285.31,686.6894 C266.24,702.4694 244.54,721.3094 226,739.6094 C208.06,757.3294 193.5583,773.1655 177.3383,791.9755 " fill="none" id="Arduino-to-Ultrasonic" style="stroke:#000000;stroke-width:1.0;"/><polygon fill="#000000" points="173.42,796.5194,182.3267,792.3157,176.6852,792.7328,176.2681,787.0913,173.42,796.5194" style="stroke:#000000;stroke-width:1.0;"/><text fill="#000000" font-family="sans-serif" font-size="13" lengthAdjust="spacing" textLength="46" x="227" y="754.1045">controls</text></g><!--link Arduino to ColorSensor--><g id="link_Arduino_ColorSensor"><path codeLine="88" d="M361.86,709.6994 C372.87,734.0194 383.1073,756.6526 394.4873,781.8126 " fill="none" id="Arduino-to-ColorSensor" style="stroke:#000000;stroke-width:1.0;"/><polygon fill="#000000" points="396.96,787.2794,396.8955,777.4307,394.8994,782.7237,389.6065,780.7276,396.96,787.2794" style="stroke:#000000;stroke-width:1.0;"/><text fill="#000000" font-family="sans-serif" font-size="13" lengthAdjust="spacing" textLength="46" x="382" y="754.1045">controls</text></g><!--link Arduino to Motor--><g id="link_Arduino_Motor"><path codeLine="89" d="M382.54,688.4894 C391.55,695.6694 400.98,702.9694 410,709.6094 C460.34,746.6394 480.13,746.2694 527,787.6094 C532.83,792.7494 534.4765,794.0903 540.0365,799.9403 " fill="none" id="Arduino-to-Motor" style="stroke:#000000;stroke-width:1.0;"/><polygon fill="#000000" points="544.17,804.2894,540.8692,795.0101,540.7254,800.6652,535.0704,800.5214,544.17,804.2894" style="stroke:#000000;stroke-width:1.0;"/><text fill="#000000" font-family="sans-serif" font-size="13" lengthAdjust="spacing" textLength="46" x="487" y="754.1045">controls</text></g><!--link Battery to Breadboard--><g id="link_Battery_Breadboard"><path codeLine="92" d="M340.71,338.7994 C335.49,348.3694 330.99,358.4594 328,368.6094 C323.52,383.8094 322.8126,395.0392 324.3526,410.4292 " fill="none" id="Battery-to-Breadboard" style="stroke:#000000;stroke-width:1.0;"/><polygon fill="#000000" points="324.95,416.3994,328.034,407.0458,324.4522,411.4242,320.0738,407.8424,324.95,416.3994" style="stroke:#000000;stroke-width:1.0;"/><text fill="#000000" font-family="sans-serif" font-size="13" lengthAdjust="spacing" textLength="41" x="329" y="383.1045">powers</text></g><!--link Breadboard to Arduino--><g id="link_Breadboard_Arduino"><path codeLine="93" d="M334,507.0294 C334,530.2594 334,553.0594 334,578.4194 " fill="none" id="Breadboard-to-Arduino" style="stroke:#000000;stroke-width:1.0;"/><polygon fill="#000000" points="334,584.4194,338,575.4194,334,579.4194,330,575.4194,334,584.4194" style="stroke:#000000;stroke-width:1.0;"/><text fill="#000000" font-family="sans-serif" font-size="13" lengthAdjust="spacing" textLength="41" x="335" y="551.1045">powers</text></g><!--link Breadboard to IR--><g id="link_Breadboard_IR"><path codeLine="94" d="M288.25,506.9094 C261.55,533.9894 231.81,566.7594 225,584.6094 C197.06,657.8094 219.9669,743.0768 241.8669,799.4368 " fill="none" id="Breadboard-to-IR" style="stroke:#000000;stroke-width:1.0;"/><polygon fill="#000000" points="244.04,805.0294,244.5087,795.1917,242.229,800.3689,237.0519,798.0892,244.04,805.0294" style="stroke:#000000;stroke-width:1.0;"/><text fill="#000000" font-family="sans-serif" font-size="13" lengthAdjust="spacing" textLength="41" x="226" y="652.6045">powers</text></g><!--link Breadboard to Ultrasonic--><g id="link_Breadboard_Ultrasonic"><path codeLine="95" d="M284.49,504.0094 C283.32,504.8894 282.16,505.7594 281,506.6094 C229.78,544.3194 195.12,530.9294 161,584.6094 C120.43,648.4294 115.2123,731.4533 117.3523,790.3833 " fill="none" id="Breadboard-to-Ultrasonic" style="stroke:#000000;stroke-width:1.0;"/><polygon fill="#000000" points="117.57,796.3794,121.2408,787.2401,117.3885,791.3827,113.246,787.5305,117.57,796.3794" style="stroke:#000000;stroke-width:1.0;"/><text fill="#000000" font-family="sans-serif" font-size="13" lengthAdjust="spacing" textLength="41" x="162" y="652.6045">powers</text></g><!--link Breadboard to ColorSensor--><g id="link_Breadboard_ColorSensor"><path codeLine="96" d="M367.54,506.6894 C373.9,516.2394 380.08,526.5094 385,536.6094 C407.3,582.4094 431.88,696.1494 437,739.6094 C438.82,755.0694 439.185,765.7276 438.355,781.5176 " fill="none" id="Breadboard-to-ColorSensor" style="stroke:#000000;stroke-width:1.0;"/><polygon fill="#000000" points="438.04,787.5094,442.5069,778.7318,438.3025,782.5163,434.5179,778.3118,438.04,787.5094" style="stroke:#000000;stroke-width:1.0;"/><text fill="#000000" font-family="sans-serif" font-size="13" lengthAdjust="spacing" textLength="41" x="433" y="652.6045">powers</text></g><!--link Breadboard to Motor--><g id="link_Breadboard_Motor"><path codeLine="97" d="M383.81,503.2694 C426.94,538.4994 482.52,583.9494 483,584.6094 C489.52,593.6394 534.2334,712.8539 563.1134,790.7139 " fill="none" id="Breadboard-to-Motor" style="stroke:#000000;stroke-width:1.0;"/><polygon fill="#000000" points="565.2,796.3394,565.8204,786.5101,563.4612,791.6515,558.3198,789.2922,565.2,796.3394" style="stroke:#000000;stroke-width:1.0;"/><text fill="#000000" font-family="sans-serif" font-size="13" lengthAdjust="spacing" textLength="41" x="533" y="652.6045">powers</text></g><!--link Motor to Wheel--><g id="link_Motor_Wheel"><path codeLine="100" d="M565.78,921.8794 C561.93,940.2294 560.44,960.3094 565,978.6094 C567.55,988.8494 569.4365,994.0187 574.4465,1003.0787 " fill="none" id="Motor-to-Wheel" style="stroke:#000000;stroke-width:1.0;"/><polygon fill="#000000" points="577.35,1008.3294,576.4952,998.5177,574.9304,1003.9538,569.4943,1002.389,577.35,1008.3294" style="stroke:#000000;stroke-width:1.0;"/><text fill="#000000" font-family="sans-serif" font-size="13" lengthAdjust="spacing" textLength="33" x="566" y="975.1045">drives</text></g><!--SRC=[bLLHJzim47xFhpXr3y1GKGkRXYg4r2Om8S66MkWUfWcvYMciEdPakrJPn7_VsKvRfqqVo5FkxhlxxZlxaYEubIgby4QLOIdXa3EgY4hpAZAo12DX9esH1MHCqTGmAQB8CCCft3D1CPbpkQ8AnX9nCE8oNK12NvbW5Wi98tD52ZWU9Sa9p2eOyZSMHNh1H4bi8EL4Q_WN0On8kfWhkHHPBBbKyEdMFJOYLKQLzuuumj0tCLHHQQgItafXwenUx_AorzkBJjXV2lq- -hVMELf3fUGgBFiUHKSmgVJ3FM2_a5E2l5tE5XGucL4UbOWYSmgTMPR1xqTl_MaT1POnjEYWD6GwWWV216ZdWvcT4dgzzexDNYUxt0uGNLUvkdBWwsjV9SuPpnGLO8kH0e-DwIKUcfrR2Qyen2XAVSUwAWfgL8M9HiwfoR4rE-SDxr1bIoRaiv2Ei3Qtb3KQu1IIyxEpfDy7s7YcsC7M-luZ2QolK_Vw7eLiT-EN2HLQAaTsDsxbcR2vG3a1JHmtQLegFtEZY9Q2fG71rjbAzAJOF2Xya-RoWwnFyUJYlDTxSVSd80xiTeczxkGYgFxp-IcqRZxOHXA_F4XJSxktLjOxKIxDCAZc7ACFaes8mSMg75VztiesbTpWOWpWszcNQL0r9hX0p5G3A8Pvg7ffi9lJFK-tfOTVEQMy4on648i9xfVgDBTcsxt2VPv9eh9EQzUFRW49upfenD_8iLpfkfUw7zn5Jec0JAx42aj2AejIQl_LuxZH6exjBe8sQfcQfQ8dcEMN-dEtkzcs0VGRVboC0PmtNC5LtaM7bsqtvY_3RZ4tlZsl7znUYVKPx_atatGXFmxyj2h9hVQ5TXzNBx3RlVQYKW_OZJNK7S0qPHu0hVLkmgujTwYRfjQ2BBuXehGmXzXwBMXxJ8SGJjkXO4FS8L1JtI7KMbuTzpyLckP4sDyscXvWeUippXHxepfw_my0]--></g></svg>