<?xml version="1.0" encoding="us-ascii" standalone="no"?><svg xmlns="http://www.w3.org/2000/svg" xmlns:xlink="http://www.w3.org/1999/xlink" contentStyleType="text/css" height="858px" preserveAspectRatio="none" style="width:1438px;height:858px;background:#FFFFFF;" version="1.1" viewBox="0 0 1438 858" width="1438px" zoomAndPan="magnify"><defs/><g><text fill="#000000" font-family="sans-serif" font-size="14" font-weight="bold" lengthAdjust="spacing" textLength="400" x="512" y="24.5332">bdd [Block Definition Diagram] LineFollowerRobot by Alvi</text><!--cluster act [Block] LineFollowerRobot [Behavior] by Alvi--><g id="cluster_act [Block] LineFollowerRobot [Behavior] by Alvi"><path d="M8.5,44.6094 L348.5,44.6094 A3.75,3.75 0 0 1 351,47.1094 L358,68.2188 L1428.5,68.2188 A2.5,2.5 0 0 1 1431,70.7188 L1431,849.1094 A2.5,2.5 0 0 1 1428.5,851.6094 L8.5,851.6094 A2.5,2.5 0 0 1 6,849.1094 L6,47.1094 A2.5,2.5 0 0 1 8.5,44.6094 " fill="none" style="stroke:#000000;stroke-width:1.5;"/><line style="stroke:#000000;stroke-width:1.5;" x1="6" x2="358" y1="68.2188" y2="68.2188"/><text fill="#000000" font-family="sans-serif" font-size="14" font-weight="bold" lengthAdjust="spacing" textLength="339" x="10" y="61.1426">act [Block] LineFollowerRobot [Behavior] by Alvi</text></g><!--class LineFollowerRobot--><g id="elem_LineFollowerRobot"><rect codeLine="17" fill="#F1F1F1" height="270.0156" id="LineFollowerRobot" rx="2.5" ry="2.5" style="stroke:#181818;stroke-width:0.5;" width="168" x="782" y="80.6094"/><ellipse cx="805.1" cy="101.9609" fill="#ADD1B2" rx="11" ry="11" style="stroke:#181818;stroke-width:1.0;"/><path d="M807.8656,97.8359 Q808.0219,97.6172 808.2094,97.5078 Q808.3969,97.3984 808.6156,97.3984 Q808.9906,97.3984 809.225,97.6641 Q809.4594,97.9141 809.4594,98.5234 L809.4594,99.9766 Q809.4594,100.5859 809.225,100.8516 Q808.9906,101.1172 808.6156,101.1172 Q808.2719,101.1172 808.0688,100.9141 Q807.8656,100.7266 807.7563,100.2109 Q807.7094,99.8516 807.5219,99.6641 Q807.1938,99.2891 806.5844,99.0703 Q805.975,98.8516 805.35,98.8516 Q804.5844,98.8516 803.9438,99.1797 Q803.3188,99.5078 802.8188,100.2578 Q802.3344,101.0078 802.3344,102.0391 L802.3344,103.1328 Q802.3344,104.3672 803.225,105.1953 Q804.1156,106.0078 805.7094,106.0078 Q806.6469,106.0078 807.3031,105.7578 Q807.6938,105.6016 808.1156,105.1641 Q808.3813,104.8984 808.5219,104.8203 Q808.6781,104.7422 808.8813,104.7422 Q809.2094,104.7422 809.4594,105.0078 Q809.725,105.2578 809.725,105.6016 Q809.725,105.9453 809.3813,106.3516 Q808.8813,106.9297 808.0844,107.2578 Q807.0063,107.7109 805.7094,107.7109 Q804.1938,107.7109 802.9906,107.0859 Q802.0063,106.5859 801.3188,105.5234 Q800.6313,104.4453 800.6313,103.1641 L800.6313,102.0078 Q800.6313,100.6797 801.2406,99.5391 Q801.8656,98.3828 802.9594,97.7734 Q804.0531,97.1484 805.2875,97.1484 Q806.0219,97.1484 806.6625,97.3203 Q807.3188,97.4766 807.8656,97.8359 Z " fill="#000000"/><text fill="#000000" font-family="sans-serif" font-size="12" font-style="italic" lengthAdjust="spacing" textLength="45" x="857.4" y="98.0664">&#171;block&#187;</text><text fill="#000000" font-family="sans-serif" font-size="14" lengthAdjust="spacing" textLength="118" x="820.9" y="115.2363">LineFollowerRobot</text><line style="stroke:#181818;stroke-width:0.5;" x1="783" x2="949" y1="123.3125" y2="123.3125"/><ellipse cx="793" cy="137.6172" fill="none" rx="3" ry="3" style="stroke:#038048;stroke-width:1.0;"/><text fill="#000000" font-family="sans-serif" font-size="14" lengthAdjust="spacing" textLength="98" x="802" y="141.8457">power: Boolean</text><ellipse cx="793" cy="155.2266" fill="none" rx="3" ry="3" style="stroke:#038048;stroke-width:1.0;"/><text fill="#000000" font-family="sans-serif" font-size="14" lengthAdjust="spacing" textLength="142" x="802" y="159.4551">systemActive: Boolean</text><ellipse cx="793" cy="172.8359" fill="none" rx="3" ry="3" style="stroke:#038048;stroke-width:1.0;"/><text fill="#000000" font-family="sans-serif" font-size="14" lengthAdjust="spacing" textLength="98" x="802" y="177.0645">power: Boolean</text><ellipse cx="793" cy="190.4453" fill="none" rx="3" ry="3" style="stroke:#038048;stroke-width:1.0;"/><text fill="#000000" font-family="sans-serif" font-size="14" lengthAdjust="spacing" textLength="142" x="802" y="194.6738">systemActive: Boolean</text><line style="stroke:#181818;stroke-width:0.5;" x1="783" x2="949" y1="201.75" y2="201.75"/><ellipse cx="793" cy="216.0547" fill="#84BE84" rx="3" ry="3" style="stroke:#038048;stroke-width:1.0;"/><text fill="#000000" font-family="sans-serif" font-size="14" lengthAdjust="spacing" textLength="59" x="802" y="220.2832">initialize()</text><ellipse cx="793" cy="233.6641" fill="#84BE84" rx="3" ry="3" style="stroke:#038048;stroke-width:1.0;"/><text fill="#000000" font-family="sans-serif" font-size="14" lengthAdjust="spacing" textLength="116" x="802" y="237.8926">calibrateSensors()</text><ellipse cx="793" cy="251.2734" fill="#84BE84" rx="3" ry="3" style="stroke:#038048;stroke-width:1.0;"/><text fill="#000000" font-family="sans-serif" font-size="14" lengthAdjust="spacing" textLength="98" x="802" y="255.502">processInputs()</text><ellipse cx="793" cy="268.8828" fill="#84BE84" rx="3" ry="3" style="stroke:#038048;stroke-width:1.0;"/><text fill="#000000" font-family="sans-serif" font-size="14" lengthAdjust="spacing" textLength="105" x="802" y="273.1113">performActions()</text><ellipse cx="793" cy="286.4922" fill="#84BE84" rx="3" ry="3" style="stroke:#038048;stroke-width:1.0;"/><text fill="#000000" font-family="sans-serif" font-size="14" lengthAdjust="spacing" textLength="59" x="802" y="290.7207">initialize()</text><ellipse cx="793" cy="304.1016" fill="#84BE84" rx="3" ry="3" style="stroke:#038048;stroke-width:1.0;"/><text fill="#000000" font-family="sans-serif" font-size="14" lengthAdjust="spacing" textLength="116" x="802" y="308.3301">calibrateSensors()</text><ellipse cx="793" cy="321.7109" fill="#84BE84" rx="3" ry="3" style="stroke:#038048;stroke-width:1.0;"/><text fill="#000000" font-family="sans-serif" font-size="14" lengthAdjust="spacing" textLength="98" x="802" y="325.9395">processInputs()</text><ellipse cx="793" cy="339.3203" fill="#84BE84" rx="3" ry="3" style="stroke:#038048;stroke-width:1.0;"/><text fill="#000000" font-family="sans-serif" font-size="14" lengthAdjust="spacing" textLength="105" x="802" y="343.5488">performActions()</text></g><!--class SensorSystem--><g id="elem_SensorSystem"><rect codeLine="26" fill="#F1F1F1" height="181.9688" id="SensorSystem" rx="2.5" ry="2.5" style="stroke:#181818;stroke-width:0.5;" width="212" x="324" y="428.6094"/><ellipse cx="380.25" cy="449.9609" fill="#ADD1B2" rx="11" ry="11" style="stroke:#181818;stroke-width:1.0;"/><path d="M383.0156,445.8359 Q383.1719,445.6172 383.3594,445.5078 Q383.5469,445.3984 383.7656,445.3984 Q384.1406,445.3984 384.375,445.6641 Q384.6094,445.9141 384.6094,446.5234 L384.6094,447.9766 Q384.6094,448.5859 384.375,448.8516 Q384.1406,449.1172 383.7656,449.1172 Q383.4219,449.1172 383.2188,448.9141 Q383.0156,448.7266 382.9063,448.2109 Q382.8594,447.8516 382.6719,447.6641 Q382.3438,447.2891 381.7344,447.0703 Q381.125,446.8516 380.5,446.8516 Q379.7344,446.8516 379.0938,447.1797 Q378.4688,447.5078 377.9688,448.2578 Q377.4844,449.0078 377.4844,450.0391 L377.4844,451.1328 Q377.4844,452.3672 378.375,453.1953 Q379.2656,454.0078 380.8594,454.0078 Q381.7969,454.0078 382.4531,453.7578 Q382.8438,453.6016 383.2656,453.1641 Q383.5313,452.8984 383.6719,452.8203 Q383.8281,452.7422 384.0313,452.7422 Q384.3594,452.7422 384.6094,453.0078 Q384.875,453.2578 384.875,453.6016 Q384.875,453.9453 384.5313,454.3516 Q384.0313,454.9297 383.2344,455.2578 Q382.1563,455.7109 380.8594,455.7109 Q379.3438,455.7109 378.1406,455.0859 Q377.1563,454.5859 376.4688,453.5234 Q375.7813,452.4453 375.7813,451.1641 L375.7813,450.0078 Q375.7813,448.6797 376.3906,447.5391 Q377.0156,446.3828 378.1094,445.7734 Q379.2031,445.1484 380.4375,445.1484 Q381.1719,445.1484 381.8125,445.3203 Q382.4688,445.4766 383.0156,445.8359 Z " fill="#000000"/><text fill="#000000" font-family="sans-serif" font-size="12" font-style="italic" lengthAdjust="spacing" textLength="45" x="423.75" y="446.0664">&#171;block&#187;</text><text fill="#000000" font-family="sans-serif" font-size="14" lengthAdjust="spacing" textLength="91" x="400.75" y="463.2363">SensorSystem</text><line style="stroke:#181818;stroke-width:0.5;" x1="325" x2="535" y1="471.3125" y2="471.3125"/><ellipse cx="335" cy="485.6172" fill="none" rx="3" ry="3" style="stroke:#038048;stroke-width:1.0;"/><text fill="#000000" font-family="sans-serif" font-size="14" lengthAdjust="spacing" textLength="186" x="344" y="489.8457">sensorReadings: SensorData</text><ellipse cx="335" cy="503.2266" fill="none" rx="3" ry="3" style="stroke:#038048;stroke-width:1.0;"/><text fill="#000000" font-family="sans-serif" font-size="14" lengthAdjust="spacing" textLength="165" x="344" y="507.4551">calibrationStatus: Boolean</text><line style="stroke:#181818;stroke-width:0.5;" x1="325" x2="535" y1="514.5313" y2="514.5313"/><ellipse cx="335" cy="528.8359" fill="#84BE84" rx="3" ry="3" style="stroke:#038048;stroke-width:1.0;"/><text fill="#000000" font-family="sans-serif" font-size="14" lengthAdjust="spacing" textLength="91" x="344" y="533.0645">readSensors()</text><ellipse cx="335" cy="546.4453" fill="#84BE84" rx="3" ry="3" style="stroke:#038048;stroke-width:1.0;"/><text fill="#000000" font-family="sans-serif" font-size="14" lengthAdjust="spacing" textLength="64" x="344" y="550.6738">calibrate()</text><ellipse cx="335" cy="564.0547" fill="#84BE84" rx="3" ry="3" style="stroke:#038048;stroke-width:1.0;"/><text fill="#000000" font-family="sans-serif" font-size="14" lengthAdjust="spacing" textLength="136" x="344" y="568.2832">detectLine(): Boolean</text><ellipse cx="335" cy="581.6641" fill="#84BE84" rx="3" ry="3" style="stroke:#038048;stroke-width:1.0;"/><text fill="#000000" font-family="sans-serif" font-size="14" lengthAdjust="spacing" textLength="165" x="344" y="585.8926">detectObstacle(): Boolean</text><ellipse cx="335" cy="599.2734" fill="#84BE84" rx="3" ry="3" style="stroke:#038048;stroke-width:1.0;"/><text fill="#000000" font-family="sans-serif" font-size="14" lengthAdjust="spacing" textLength="157" x="344" y="603.502">detectColor(): ColorType</text></g><!--class MotorSystem--><g id="elem_MotorSystem"><rect codeLine="36" fill="#F1F1F1" height="181.9688" id="MotorSystem" rx="2.5" ry="2.5" style="stroke:#181818;stroke-width:0.5;" width="252" x="612" y="428.6094"/><ellipse cx="692.75" cy="449.9609" fill="#ADD1B2" rx="11" ry="11" style="stroke:#181818;stroke-width:1.0;"/><path d="M695.5156,445.8359 Q695.6719,445.6172 695.8594,445.5078 Q696.0469,445.3984 696.2656,445.3984 Q696.6406,445.3984 696.875,445.6641 Q697.1094,445.9141 697.1094,446.5234 L697.1094,447.9766 Q697.1094,448.5859 696.875,448.8516 Q696.6406,449.1172 696.2656,449.1172 Q695.9219,449.1172 695.7188,448.9141 Q695.5156,448.7266 695.4063,448.2109 Q695.3594,447.8516 695.1719,447.6641 Q694.8438,447.2891 694.2344,447.0703 Q693.625,446.8516 693,446.8516 Q692.2344,446.8516 691.5938,447.1797 Q690.9688,447.5078 690.4688,448.2578 Q689.9844,449.0078 689.9844,450.0391 L689.9844,451.1328 Q689.9844,452.3672 690.875,453.1953 Q691.7656,454.0078 693.3594,454.0078 Q694.2969,454.0078 694.9531,453.7578 Q695.3438,453.6016 695.7656,453.1641 Q696.0313,452.8984 696.1719,452.8203 Q696.3281,452.7422 696.5313,452.7422 Q696.8594,452.7422 697.1094,453.0078 Q697.375,453.2578 697.375,453.6016 Q697.375,453.9453 697.0313,454.3516 Q696.5313,454.9297 695.7344,455.2578 Q694.6563,455.7109 693.3594,455.7109 Q691.8438,455.7109 690.6406,455.0859 Q689.6563,454.5859 688.9688,453.5234 Q688.2813,452.4453 688.2813,451.1641 L688.2813,450.0078 Q688.2813,448.6797 688.8906,447.5391 Q689.5156,446.3828 690.6094,445.7734 Q691.7031,445.1484 692.9375,445.1484 Q693.6719,445.1484 694.3125,445.3203 Q694.9688,445.4766 695.5156,445.8359 Z " fill="#000000"/><text fill="#000000" font-family="sans-serif" font-size="12" font-style="italic" lengthAdjust="spacing" textLength="45" x="731.75" y="446.0664">&#171;block&#187;</text><text fill="#000000" font-family="sans-serif" font-size="14" lengthAdjust="spacing" textLength="82" x="713.25" y="463.2363">MotorSystem</text><line style="stroke:#181818;stroke-width:0.5;" x1="613" x2="863" y1="471.3125" y2="471.3125"/><ellipse cx="623" cy="485.6172" fill="none" rx="3" ry="3" style="stroke:#038048;stroke-width:1.0;"/><text fill="#000000" font-family="sans-serif" font-size="14" lengthAdjust="spacing" textLength="112" x="632" y="489.8457">leftSpeed: Integer</text><ellipse cx="623" cy="503.2266" fill="none" rx="3" ry="3" style="stroke:#038048;stroke-width:1.0;"/><text fill="#000000" font-family="sans-serif" font-size="14" lengthAdjust="spacing" textLength="121" x="632" y="507.4551">rightSpeed: Integer</text><ellipse cx="623" cy="520.8359" fill="none" rx="3" ry="3" style="stroke:#038048;stroke-width:1.0;"/><text fill="#000000" font-family="sans-serif" font-size="14" lengthAdjust="spacing" textLength="146" x="632" y="525.0645">motorState: MotorState</text><line style="stroke:#181818;stroke-width:0.5;" x1="613" x2="863" y1="532.1406" y2="532.1406"/><ellipse cx="623" cy="546.4453" fill="#84BE84" rx="3" ry="3" style="stroke:#038048;stroke-width:1.0;"/><text fill="#000000" font-family="sans-serif" font-size="14" lengthAdjust="spacing" textLength="226" x="632" y="550.6738">adjustSpeed(leftSpeed, rightSpeed)</text><ellipse cx="623" cy="564.0547" fill="#84BE84" rx="3" ry="3" style="stroke:#038048;stroke-width:1.0;"/><text fill="#000000" font-family="sans-serif" font-size="14" lengthAdjust="spacing" textLength="37" x="632" y="568.2832">stop()</text><ellipse cx="623" cy="581.6641" fill="#84BE84" rx="3" ry="3" style="stroke:#038048;stroke-width:1.0;"/><text fill="#000000" font-family="sans-serif" font-size="14" lengthAdjust="spacing" textLength="132" x="632" y="585.8926">turn(direction, angle)</text><ellipse cx="623" cy="599.2734" fill="#84BE84" rx="3" ry="3" style="stroke:#038048;stroke-width:1.0;"/><text fill="#000000" font-family="sans-serif" font-size="14" lengthAdjust="spacing" textLength="135" x="632" y="603.502">moveForward(speed)</text></g><!--class Controller--><g id="elem_Controller"><rect codeLine="46" fill="#F1F1F1" height="129.1406" id="Controller" rx="2.5" ry="2.5" style="stroke:#181818;stroke-width:0.5;" width="191" x="899.5" y="455.1094"/><ellipse cx="959.75" cy="476.4609" fill="#ADD1B2" rx="11" ry="11" style="stroke:#181818;stroke-width:1.0;"/><path d="M962.5156,472.3359 Q962.6719,472.1172 962.8594,472.0078 Q963.0469,471.8984 963.2656,471.8984 Q963.6406,471.8984 963.875,472.1641 Q964.1094,472.4141 964.1094,473.0234 L964.1094,474.4766 Q964.1094,475.0859 963.875,475.3516 Q963.6406,475.6172 963.2656,475.6172 Q962.9219,475.6172 962.7188,475.4141 Q962.5156,475.2266 962.4063,474.7109 Q962.3594,474.3516 962.1719,474.1641 Q961.8438,473.7891 961.2344,473.5703 Q960.625,473.3516 960,473.3516 Q959.2344,473.3516 958.5938,473.6797 Q957.9688,474.0078 957.4688,474.7578 Q956.9844,475.5078 956.9844,476.5391 L956.9844,477.6328 Q956.9844,478.8672 957.875,479.6953 Q958.7656,480.5078 960.3594,480.5078 Q961.2969,480.5078 961.9531,480.2578 Q962.3438,480.1016 962.7656,479.6641 Q963.0313,479.3984 963.1719,479.3203 Q963.3281,479.2422 963.5313,479.2422 Q963.8594,479.2422 964.1094,479.5078 Q964.375,479.7578 964.375,480.1016 Q964.375,480.4453 964.0313,480.8516 Q963.5313,481.4297 962.7344,481.7578 Q961.6563,482.2109 960.3594,482.2109 Q958.8438,482.2109 957.6406,481.5859 Q956.6563,481.0859 955.9688,480.0234 Q955.2813,478.9453 955.2813,477.6641 L955.2813,476.5078 Q955.2813,475.1797 955.8906,474.0391 Q956.5156,472.8828 957.6094,472.2734 Q958.7031,471.6484 959.9375,471.6484 Q960.6719,471.6484 961.3125,471.8203 Q961.9688,471.9766 962.5156,472.3359 Z " fill="#000000"/><text fill="#000000" font-family="sans-serif" font-size="12" font-style="italic" lengthAdjust="spacing" textLength="45" x="988.75" y="472.5664">&#171;block&#187;</text><text fill="#000000" font-family="sans-serif" font-size="14" lengthAdjust="spacing" textLength="62" x="980.25" y="489.7363">Controller</text><line style="stroke:#181818;stroke-width:0.5;" x1="900.5" x2="1089.5" y1="497.8125" y2="497.8125"/><ellipse cx="910.5" cy="512.1172" fill="none" rx="3" ry="3" style="stroke:#038048;stroke-width:1.0;"/><text fill="#000000" font-family="sans-serif" font-size="14" lengthAdjust="spacing" textLength="165" x="919.5" y="516.3457">currentState: SystemState</text><line style="stroke:#181818;stroke-width:0.5;" x1="900.5" x2="1089.5" y1="523.4219" y2="523.4219"/><ellipse cx="910.5" cy="537.7266" fill="#84BE84" rx="3" ry="3" style="stroke:#038048;stroke-width:1.0;"/><text fill="#000000" font-family="sans-serif" font-size="14" lengthAdjust="spacing" textLength="164" x="919.5" y="541.9551">processInput(sensorData)</text><ellipse cx="910.5" cy="555.3359" fill="#84BE84" rx="3" ry="3" style="stroke:#038048;stroke-width:1.0;"/><text fill="#000000" font-family="sans-serif" font-size="14" lengthAdjust="spacing" textLength="129" x="919.5" y="559.5645">determineBehavior()</text><ellipse cx="910.5" cy="572.9453" fill="#84BE84" rx="3" ry="3" style="stroke:#038048;stroke-width:1.0;"/><text fill="#000000" font-family="sans-serif" font-size="14" lengthAdjust="spacing" textLength="90" x="919.5" y="577.1738">initiateAction()</text></g><!--class IRSensor--><g id="elem_IRSensor"><rect codeLine="53" fill="#F1F1F1" height="146.75" id="IRSensor" rx="2.5" ry="2.5" style="stroke:#181818;stroke-width:0.5;" width="178" x="22" y="688.6094"/><ellipse cx="77.75" cy="709.9609" fill="#ADD1B2" rx="11" ry="11" style="stroke:#181818;stroke-width:1.0;"/><path d="M80.5156,705.8359 Q80.6719,705.6172 80.8594,705.5078 Q81.0469,705.3984 81.2656,705.3984 Q81.6406,705.3984 81.875,705.6641 Q82.1094,705.9141 82.1094,706.5234 L82.1094,707.9766 Q82.1094,708.5859 81.875,708.8516 Q81.6406,709.1172 81.2656,709.1172 Q80.9219,709.1172 80.7188,708.9141 Q80.5156,708.7266 80.4063,708.2109 Q80.3594,707.8516 80.1719,707.6641 Q79.8438,707.2891 79.2344,707.0703 Q78.625,706.8516 78,706.8516 Q77.2344,706.8516 76.5938,707.1797 Q75.9688,707.5078 75.4688,708.2578 Q74.9844,709.0078 74.9844,710.0391 L74.9844,711.1328 Q74.9844,712.3672 75.875,713.1953 Q76.7656,714.0078 78.3594,714.0078 Q79.2969,714.0078 79.9531,713.7578 Q80.3438,713.6016 80.7656,713.1641 Q81.0313,712.8984 81.1719,712.8203 Q81.3281,712.7422 81.5313,712.7422 Q81.8594,712.7422 82.1094,713.0078 Q82.375,713.2578 82.375,713.6016 Q82.375,713.9453 82.0313,714.3516 Q81.5313,714.9297 80.7344,715.2578 Q79.6563,715.7109 78.3594,715.7109 Q76.8438,715.7109 75.6406,715.0859 Q74.6563,714.5859 73.9688,713.5234 Q73.2813,712.4453 73.2813,711.1641 L73.2813,710.0078 Q73.2813,708.6797 73.8906,707.5391 Q74.5156,706.3828 75.6094,705.7734 Q76.7031,705.1484 77.9375,705.1484 Q78.6719,705.1484 79.3125,705.3203 Q79.9688,705.4766 80.5156,705.8359 Z " fill="#000000"/><text fill="#000000" font-family="sans-serif" font-size="12" font-style="italic" lengthAdjust="spacing" textLength="45" x="104.75" y="706.0664">&#171;block&#187;</text><text fill="#000000" font-family="sans-serif" font-size="14" lengthAdjust="spacing" textLength="58" x="98.25" y="723.2363">IRSensor</text><line style="stroke:#181818;stroke-width:0.5;" x1="23" x2="199" y1="731.3125" y2="731.3125"/><ellipse cx="33" cy="745.6172" fill="none" rx="3" ry="3" style="stroke:#038048;stroke-width:1.0;"/><text fill="#000000" font-family="sans-serif" font-size="14" lengthAdjust="spacing" textLength="152" x="42" y="749.8457">position: SensorPosition</text><ellipse cx="33" cy="763.2266" fill="none" rx="3" ry="3" style="stroke:#038048;stroke-width:1.0;"/><text fill="#000000" font-family="sans-serif" font-size="14" lengthAdjust="spacing" textLength="86" x="42" y="767.4551">value: Integer</text><ellipse cx="33" cy="780.8359" fill="none" rx="3" ry="3" style="stroke:#038048;stroke-width:1.0;"/><text fill="#000000" font-family="sans-serif" font-size="14" lengthAdjust="spacing" textLength="111" x="42" y="785.0645">threshold: Integer</text><line style="stroke:#181818;stroke-width:0.5;" x1="23" x2="199" y1="792.1406" y2="792.1406"/><ellipse cx="33" cy="806.4453" fill="#84BE84" rx="3" ry="3" style="stroke:#038048;stroke-width:1.0;"/><text fill="#000000" font-family="sans-serif" font-size="14" lengthAdjust="spacing" textLength="126" x="42" y="810.6738">isOnLine(): Boolean</text><ellipse cx="33" cy="824.0547" fill="#84BE84" rx="3" ry="3" style="stroke:#038048;stroke-width:1.0;"/><text fill="#000000" font-family="sans-serif" font-size="14" lengthAdjust="spacing" textLength="39" x="42" y="828.2832">read()</text></g><!--class UltrasonicSensor--><g id="elem_UltrasonicSensor"><rect codeLine="61" fill="#F1F1F1" height="129.1406" id="UltrasonicSensor" rx="2.5" ry="2.5" style="stroke:#181818;stroke-width:0.5;" width="219" x="235.5" y="697.6094"/><ellipse cx="287.25" cy="718.9609" fill="#ADD1B2" rx="11" ry="11" style="stroke:#181818;stroke-width:1.0;"/><path d="M290.0156,714.8359 Q290.1719,714.6172 290.3594,714.5078 Q290.5469,714.3984 290.7656,714.3984 Q291.1406,714.3984 291.375,714.6641 Q291.6094,714.9141 291.6094,715.5234 L291.6094,716.9766 Q291.6094,717.5859 291.375,717.8516 Q291.1406,718.1172 290.7656,718.1172 Q290.4219,718.1172 290.2188,717.9141 Q290.0156,717.7266 289.9063,717.2109 Q289.8594,716.8516 289.6719,716.6641 Q289.3438,716.2891 288.7344,716.0703 Q288.125,715.8516 287.5,715.8516 Q286.7344,715.8516 286.0938,716.1797 Q285.4688,716.5078 284.9688,717.2578 Q284.4844,718.0078 284.4844,719.0391 L284.4844,720.1328 Q284.4844,721.3672 285.375,722.1953 Q286.2656,723.0078 287.8594,723.0078 Q288.7969,723.0078 289.4531,722.7578 Q289.8438,722.6016 290.2656,722.1641 Q290.5313,721.8984 290.6719,721.8203 Q290.8281,721.7422 291.0313,721.7422 Q291.3594,721.7422 291.6094,722.0078 Q291.875,722.2578 291.875,722.6016 Q291.875,722.9453 291.5313,723.3516 Q291.0313,723.9297 290.2344,724.2578 Q289.1563,724.7109 287.8594,724.7109 Q286.3438,724.7109 285.1406,724.0859 Q284.1563,723.5859 283.4688,722.5234 Q282.7813,721.4453 282.7813,720.1641 L282.7813,719.0078 Q282.7813,717.6797 283.3906,716.5391 Q284.0156,715.3828 285.1094,714.7734 Q286.2031,714.1484 287.4375,714.1484 Q288.1719,714.1484 288.8125,714.3203 Q289.4688,714.4766 290.0156,714.8359 Z " fill="#000000"/><text fill="#000000" font-family="sans-serif" font-size="12" font-style="italic" lengthAdjust="spacing" textLength="45" x="338.75" y="715.0664">&#171;block&#187;</text><text fill="#000000" font-family="sans-serif" font-size="14" lengthAdjust="spacing" textLength="107" x="307.75" y="732.2363">UltrasonicSensor</text><line style="stroke:#181818;stroke-width:0.5;" x1="236.5" x2="453.5" y1="740.3125" y2="740.3125"/><ellipse cx="246.5" cy="754.6172" fill="none" rx="3" ry="3" style="stroke:#038048;stroke-width:1.0;"/><text fill="#000000" font-family="sans-serif" font-size="14" lengthAdjust="spacing" textLength="93" x="255.5" y="758.8457">distance: Float</text><ellipse cx="246.5" cy="772.2266" fill="none" rx="3" ry="3" style="stroke:#038048;stroke-width:1.0;"/><text fill="#000000" font-family="sans-serif" font-size="14" lengthAdjust="spacing" textLength="99" x="255.5" y="776.4551">threshold: Float</text><line style="stroke:#181818;stroke-width:0.5;" x1="236.5" x2="453.5" y1="783.5313" y2="783.5313"/><ellipse cx="246.5" cy="797.8359" fill="#84BE84" rx="3" ry="3" style="stroke:#038048;stroke-width:1.0;"/><text fill="#000000" font-family="sans-serif" font-size="14" lengthAdjust="spacing" textLength="193" x="255.5" y="802.0645">isObstacleDetected(): Boolean</text><ellipse cx="246.5" cy="815.4453" fill="#84BE84" rx="3" ry="3" style="stroke:#038048;stroke-width:1.0;"/><text fill="#000000" font-family="sans-serif" font-size="14" lengthAdjust="spacing" textLength="39" x="255.5" y="819.6738">read()</text></g><!--class ColorSensor--><g id="elem_ColorSensor"><rect codeLine="68" fill="#F1F1F1" height="129.1406" id="ColorSensor" rx="2.5" ry="2.5" style="stroke:#181818;stroke-width:0.5;" width="246" x="490" y="697.6094"/><ellipse cx="569.25" cy="718.9609" fill="#ADD1B2" rx="11" ry="11" style="stroke:#181818;stroke-width:1.0;"/><path d="M572.0156,714.8359 Q572.1719,714.6172 572.3594,714.5078 Q572.5469,714.3984 572.7656,714.3984 Q573.1406,714.3984 573.375,714.6641 Q573.6094,714.9141 573.6094,715.5234 L573.6094,716.9766 Q573.6094,717.5859 573.375,717.8516 Q573.1406,718.1172 572.7656,718.1172 Q572.4219,718.1172 572.2188,717.9141 Q572.0156,717.7266 571.9063,717.2109 Q571.8594,716.8516 571.6719,716.6641 Q571.3438,716.2891 570.7344,716.0703 Q570.125,715.8516 569.5,715.8516 Q568.7344,715.8516 568.0938,716.1797 Q567.4688,716.5078 566.9688,717.2578 Q566.4844,718.0078 566.4844,719.0391 L566.4844,720.1328 Q566.4844,721.3672 567.375,722.1953 Q568.2656,723.0078 569.8594,723.0078 Q570.7969,723.0078 571.4531,722.7578 Q571.8438,722.6016 572.2656,722.1641 Q572.5313,721.8984 572.6719,721.8203 Q572.8281,721.7422 573.0313,721.7422 Q573.3594,721.7422 573.6094,722.0078 Q573.875,722.2578 573.875,722.6016 Q573.875,722.9453 573.5313,723.3516 Q573.0313,723.9297 572.2344,724.2578 Q571.1563,724.7109 569.8594,724.7109 Q568.3438,724.7109 567.1406,724.0859 Q566.1563,723.5859 565.4688,722.5234 Q564.7813,721.4453 564.7813,720.1641 L564.7813,719.0078 Q564.7813,717.6797 565.3906,716.5391 Q566.0156,715.3828 567.1094,714.7734 Q568.2031,714.1484 569.4375,714.1484 Q570.1719,714.1484 570.8125,714.3203 Q571.4688,714.4766 572.0156,714.8359 Z " fill="#000000"/><text fill="#000000" font-family="sans-serif" font-size="12" font-style="italic" lengthAdjust="spacing" textLength="45" x="606.75" y="715.0664">&#171;block&#187;</text><text fill="#000000" font-family="sans-serif" font-size="14" lengthAdjust="spacing" textLength="79" x="589.75" y="732.2363">ColorSensor</text><line style="stroke:#181818;stroke-width:0.5;" x1="491" x2="735" y1="740.3125" y2="740.3125"/><ellipse cx="501" cy="754.6172" fill="none" rx="3" ry="3" style="stroke:#038048;stroke-width:1.0;"/><text fill="#000000" font-family="sans-serif" font-size="14" lengthAdjust="spacing" textLength="163" x="510" y="758.8457">detectedColor: ColorType</text><ellipse cx="501" cy="772.2266" fill="none" rx="3" ry="3" style="stroke:#038048;stroke-width:1.0;"/><text fill="#000000" font-family="sans-serif" font-size="14" lengthAdjust="spacing" textLength="137" x="510" y="776.4551">colorThresholds: Map</text><line style="stroke:#181818;stroke-width:0.5;" x1="491" x2="735" y1="783.5313" y2="783.5313"/><ellipse cx="501" cy="797.8359" fill="#84BE84" rx="3" ry="3" style="stroke:#038048;stroke-width:1.0;"/><text fill="#000000" font-family="sans-serif" font-size="14" lengthAdjust="spacing" textLength="220" x="510" y="802.0645">isSpecificColorDetected(): Boolean</text><ellipse cx="501" cy="815.4453" fill="#84BE84" rx="3" ry="3" style="stroke:#038048;stroke-width:1.0;"/><text fill="#000000" font-family="sans-serif" font-size="14" lengthAdjust="spacing" textLength="39" x="510" y="819.6738">read()</text></g><!--class PowerSystem--><g id="elem_PowerSystem"><rect codeLine="75" fill="#F1F1F1" height="146.75" id="PowerSystem" rx="2.5" ry="2.5" style="stroke:#181818;stroke-width:0.5;" width="164" x="1126" y="446.1094"/><ellipse cx="1162.15" cy="467.4609" fill="#ADD1B2" rx="11" ry="11" style="stroke:#181818;stroke-width:1.0;"/><path d="M1164.9156,463.3359 Q1165.0719,463.1172 1165.2594,463.0078 Q1165.4469,462.8984 1165.6656,462.8984 Q1166.0406,462.8984 1166.275,463.1641 Q1166.5094,463.4141 1166.5094,464.0234 L1166.5094,465.4766 Q1166.5094,466.0859 1166.275,466.3516 Q1166.0406,466.6172 1165.6656,466.6172 Q1165.3219,466.6172 1165.1188,466.4141 Q1164.9156,466.2266 1164.8063,465.7109 Q1164.7594,465.3516 1164.5719,465.1641 Q1164.2438,464.7891 1163.6344,464.5703 Q1163.025,464.3516 1162.4,464.3516 Q1161.6344,464.3516 1160.9938,464.6797 Q1160.3688,465.0078 1159.8688,465.7578 Q1159.3844,466.5078 1159.3844,467.5391 L1159.3844,468.6328 Q1159.3844,469.8672 1160.275,470.6953 Q1161.1656,471.5078 1162.7594,471.5078 Q1163.6969,471.5078 1164.3531,471.2578 Q1164.7438,471.1016 1165.1656,470.6641 Q1165.4313,470.3984 1165.5719,470.3203 Q1165.7281,470.2422 1165.9313,470.2422 Q1166.2594,470.2422 1166.5094,470.5078 Q1166.775,470.7578 1166.775,471.1016 Q1166.775,471.4453 1166.4313,471.8516 Q1165.9313,472.4297 1165.1344,472.7578 Q1164.0563,473.2109 1162.7594,473.2109 Q1161.2438,473.2109 1160.0406,472.5859 Q1159.0563,472.0859 1158.3688,471.0234 Q1157.6813,469.9453 1157.6813,468.6641 L1157.6813,467.5078 Q1157.6813,466.1797 1158.2906,465.0391 Q1158.9156,463.8828 1160.0094,463.2734 Q1161.1031,462.6484 1162.3375,462.6484 Q1163.0719,462.6484 1163.7125,462.8203 Q1164.3688,462.9766 1164.9156,463.3359 Z " fill="#000000"/><text fill="#000000" font-family="sans-serif" font-size="12" font-style="italic" lengthAdjust="spacing" textLength="45" x="1200.85" y="463.5664">&#171;block&#187;</text><text fill="#000000" font-family="sans-serif" font-size="14" lengthAdjust="spacing" textLength="85" x="1180.85" y="480.7363">PowerSystem</text><line style="stroke:#181818;stroke-width:0.5;" x1="1127" x2="1289" y1="488.8125" y2="488.8125"/><ellipse cx="1137" cy="503.1172" fill="none" rx="3" ry="3" style="stroke:#038048;stroke-width:1.0;"/><text fill="#000000" font-family="sans-serif" font-size="14" lengthAdjust="spacing" textLength="118" x="1146" y="507.3457">batteryLevel: Float</text><ellipse cx="1137" cy="520.7266" fill="none" rx="3" ry="3" style="stroke:#038048;stroke-width:1.0;"/><text fill="#000000" font-family="sans-serif" font-size="14" lengthAdjust="spacing" textLength="138" x="1146" y="524.9551">powerStatus: Boolean</text><line style="stroke:#181818;stroke-width:0.5;" x1="1127" x2="1289" y1="532.0313" y2="532.0313"/><ellipse cx="1137" cy="546.3359" fill="#84BE84" rx="3" ry="3" style="stroke:#038048;stroke-width:1.0;"/><text fill="#000000" font-family="sans-serif" font-size="14" lengthAdjust="spacing" textLength="67" x="1146" y="550.5645">powerOn()</text><ellipse cx="1137" cy="563.9453" fill="#84BE84" rx="3" ry="3" style="stroke:#038048;stroke-width:1.0;"/><text fill="#000000" font-family="sans-serif" font-size="14" lengthAdjust="spacing" textLength="67" x="1146" y="568.1738">powerOff()</text><ellipse cx="1137" cy="581.5547" fill="#84BE84" rx="3" ry="3" style="stroke:#038048;stroke-width:1.0;"/><text fill="#000000" font-family="sans-serif" font-size="14" lengthAdjust="spacing" textLength="126" x="1146" y="585.7832">checkBatteryLevel()</text></g><!--class ObstacleAvoidance--><g id="elem_ObstacleAvoidance"><rect codeLine="83" fill="#F1F1F1" height="129.1406" id="ObstacleAvoidance" rx="2.5" ry="2.5" style="stroke:#181818;stroke-width:0.5;" width="205" x="771.5" y="697.6094"/><ellipse cx="809.45" cy="718.9609" fill="#ADD1B2" rx="11" ry="11" style="stroke:#181818;stroke-width:1.0;"/><path d="M812.2156,714.8359 Q812.3719,714.6172 812.5594,714.5078 Q812.7469,714.3984 812.9656,714.3984 Q813.3406,714.3984 813.575,714.6641 Q813.8094,714.9141 813.8094,715.5234 L813.8094,716.9766 Q813.8094,717.5859 813.575,717.8516 Q813.3406,718.1172 812.9656,718.1172 Q812.6219,718.1172 812.4188,717.9141 Q812.2156,717.7266 812.1063,717.2109 Q812.0594,716.8516 811.8719,716.6641 Q811.5438,716.2891 810.9344,716.0703 Q810.325,715.8516 809.7,715.8516 Q808.9344,715.8516 808.2938,716.1797 Q807.6688,716.5078 807.1688,717.2578 Q806.6844,718.0078 806.6844,719.0391 L806.6844,720.1328 Q806.6844,721.3672 807.575,722.1953 Q808.4656,723.0078 810.0594,723.0078 Q810.9969,723.0078 811.6531,722.7578 Q812.0438,722.6016 812.4656,722.1641 Q812.7313,721.8984 812.8719,721.8203 Q813.0281,721.7422 813.2313,721.7422 Q813.5594,721.7422 813.8094,722.0078 Q814.075,722.2578 814.075,722.6016 Q814.075,722.9453 813.7313,723.3516 Q813.2313,723.9297 812.4344,724.2578 Q811.3563,724.7109 810.0594,724.7109 Q808.5438,724.7109 807.3406,724.0859 Q806.3563,723.5859 805.6688,722.5234 Q804.9813,721.4453 804.9813,720.1641 L804.9813,719.0078 Q804.9813,717.6797 805.5906,716.5391 Q806.2156,715.3828 807.3094,714.7734 Q808.4031,714.1484 809.6375,714.1484 Q810.3719,714.1484 811.0125,714.3203 Q811.6688,714.4766 812.2156,714.8359 Z " fill="#000000"/><text fill="#000000" font-family="sans-serif" font-size="12" font-style="italic" lengthAdjust="spacing" textLength="45" x="867.05" y="715.0664">&#171;block&#187;</text><text fill="#000000" font-family="sans-serif" font-size="14" lengthAdjust="spacing" textLength="122" x="828.55" y="732.2363">ObstacleAvoidance</text><line style="stroke:#181818;stroke-width:0.5;" x1="772.5" x2="975.5" y1="740.3125" y2="740.3125"/><ellipse cx="782.5" cy="754.6172" fill="none" rx="3" ry="3" style="stroke:#038048;stroke-width:1.0;"/><text fill="#000000" font-family="sans-serif" font-size="14" lengthAdjust="spacing" textLength="179" x="791.5" y="758.8457">avoidanceStrategy: Strategy</text><line style="stroke:#181818;stroke-width:0.5;" x1="772.5" x2="975.5" y1="765.9219" y2="765.9219"/><ellipse cx="782.5" cy="780.2266" fill="#84BE84" rx="3" ry="3" style="stroke:#038048;stroke-width:1.0;"/><text fill="#000000" font-family="sans-serif" font-size="14" lengthAdjust="spacing" textLength="95" x="791.5" y="784.4551">calculatePath()</text><ellipse cx="782.5" cy="797.8359" fill="#84BE84" rx="3" ry="3" style="stroke:#038048;stroke-width:1.0;"/><text fill="#000000" font-family="sans-serif" font-size="14" lengthAdjust="spacing" textLength="89" x="791.5" y="802.0645">executeTurn()</text><ellipse cx="782.5" cy="815.4453" fill="#84BE84" rx="3" ry="3" style="stroke:#038048;stroke-width:1.0;"/><text fill="#000000" font-family="sans-serif" font-size="14" lengthAdjust="spacing" textLength="116" x="791.5" y="819.6738">resumeFollowing()</text></g><!--class LineFollowing--><g id="elem_LineFollowing"><rect codeLine="90" fill="#F1F1F1" height="146.75" id="LineFollowing" rx="2.5" ry="2.5" style="stroke:#181818;stroke-width:0.5;" width="206" x="1012" y="688.6094"/><ellipse cx="1067.75" cy="709.9609" fill="#ADD1B2" rx="11" ry="11" style="stroke:#181818;stroke-width:1.0;"/><path d="M1070.5156,705.8359 Q1070.6719,705.6172 1070.8594,705.5078 Q1071.0469,705.3984 1071.2656,705.3984 Q1071.6406,705.3984 1071.875,705.6641 Q1072.1094,705.9141 1072.1094,706.5234 L1072.1094,707.9766 Q1072.1094,708.5859 1071.875,708.8516 Q1071.6406,709.1172 1071.2656,709.1172 Q1070.9219,709.1172 1070.7188,708.9141 Q1070.5156,708.7266 1070.4063,708.2109 Q1070.3594,707.8516 1070.1719,707.6641 Q1069.8438,707.2891 1069.2344,707.0703 Q1068.625,706.8516 1068,706.8516 Q1067.2344,706.8516 1066.5938,707.1797 Q1065.9688,707.5078 1065.4688,708.2578 Q1064.9844,709.0078 1064.9844,710.0391 L1064.9844,711.1328 Q1064.9844,712.3672 1065.875,713.1953 Q1066.7656,714.0078 1068.3594,714.0078 Q1069.2969,714.0078 1069.9531,713.7578 Q1070.3438,713.6016 1070.7656,713.1641 Q1071.0313,712.8984 1071.1719,712.8203 Q1071.3281,712.7422 1071.5313,712.7422 Q1071.8594,712.7422 1072.1094,713.0078 Q1072.375,713.2578 1072.375,713.6016 Q1072.375,713.9453 1072.0313,714.3516 Q1071.5313,714.9297 1070.7344,715.2578 Q1069.6563,715.7109 1068.3594,715.7109 Q1066.8438,715.7109 1065.6406,715.0859 Q1064.6563,714.5859 1063.9688,713.5234 Q1063.2813,712.4453 1063.2813,711.1641 L1063.2813,710.0078 Q1063.2813,708.6797 1063.8906,707.5391 Q1064.5156,706.3828 1065.6094,705.7734 Q1066.7031,705.1484 1067.9375,705.1484 Q1068.6719,705.1484 1069.3125,705.3203 Q1069.9688,705.4766 1070.5156,705.8359 Z " fill="#000000"/><text fill="#000000" font-family="sans-serif" font-size="12" font-style="italic" lengthAdjust="spacing" textLength="45" x="1108.75" y="706.0664">&#171;block&#187;</text><text fill="#000000" font-family="sans-serif" font-size="14" lengthAdjust="spacing" textLength="86" x="1088.25" y="723.2363">LineFollowing</text><line style="stroke:#181818;stroke-width:0.5;" x1="1013" x2="1217" y1="731.3125" y2="731.3125"/><ellipse cx="1023" cy="745.6172" fill="none" rx="3" ry="3" style="stroke:#038048;stroke-width:1.0;"/><text fill="#000000" font-family="sans-serif" font-size="14" lengthAdjust="spacing" textLength="180" x="1032" y="749.8457">followingAlgorithm: Algorithm</text><ellipse cx="1023" cy="763.2266" fill="none" rx="3" ry="3" style="stroke:#038048;stroke-width:1.0;"/><text fill="#000000" font-family="sans-serif" font-size="14" lengthAdjust="spacing" textLength="166" x="1032" y="767.4551">PIDParameters: PIDConfig</text><line style="stroke:#181818;stroke-width:0.5;" x1="1013" x2="1217" y1="774.5313" y2="774.5313"/><ellipse cx="1023" cy="788.8359" fill="#84BE84" rx="3" ry="3" style="stroke:#038048;stroke-width:1.0;"/><text fill="#000000" font-family="sans-serif" font-size="14" lengthAdjust="spacing" textLength="132" x="1032" y="793.0645">calculateCorrection()</text><ellipse cx="1023" cy="806.4453" fill="#84BE84" rx="3" ry="3" style="stroke:#038048;stroke-width:1.0;"/><text fill="#000000" font-family="sans-serif" font-size="14" lengthAdjust="spacing" textLength="91" x="1032" y="810.6738">adjustMotors()</text><ellipse cx="1023" cy="824.0547" fill="#84BE84" rx="3" ry="3" style="stroke:#038048;stroke-width:1.0;"/><text fill="#000000" font-family="sans-serif" font-size="14" lengthAdjust="spacing" textLength="102" x="1032" y="828.2832">searchForLine()</text></g><!--class ZoneAction--><g id="elem_ZoneAction"><rect codeLine="98" fill="#F1F1F1" height="129.1406" id="ZoneAction" rx="2.5" ry="2.5" style="stroke:#181818;stroke-width:0.5;" width="162" x="1253" y="697.6094"/><ellipse cx="1294.55" cy="718.9609" fill="#ADD1B2" rx="11" ry="11" style="stroke:#181818;stroke-width:1.0;"/><path d="M1297.3156,714.8359 Q1297.4719,714.6172 1297.6594,714.5078 Q1297.8469,714.3984 1298.0656,714.3984 Q1298.4406,714.3984 1298.675,714.6641 Q1298.9094,714.9141 1298.9094,715.5234 L1298.9094,716.9766 Q1298.9094,717.5859 1298.675,717.8516 Q1298.4406,718.1172 1298.0656,718.1172 Q1297.7219,718.1172 1297.5188,717.9141 Q1297.3156,717.7266 1297.2063,717.2109 Q1297.1594,716.8516 1296.9719,716.6641 Q1296.6438,716.2891 1296.0344,716.0703 Q1295.425,715.8516 1294.8,715.8516 Q1294.0344,715.8516 1293.3938,716.1797 Q1292.7688,716.5078 1292.2688,717.2578 Q1291.7844,718.0078 1291.7844,719.0391 L1291.7844,720.1328 Q1291.7844,721.3672 1292.675,722.1953 Q1293.5656,723.0078 1295.1594,723.0078 Q1296.0969,723.0078 1296.7531,722.7578 Q1297.1438,722.6016 1297.5656,722.1641 Q1297.8313,721.8984 1297.9719,721.8203 Q1298.1281,721.7422 1298.3313,721.7422 Q1298.6594,721.7422 1298.9094,722.0078 Q1299.175,722.2578 1299.175,722.6016 Q1299.175,722.9453 1298.8313,723.3516 Q1298.3313,723.9297 1297.5344,724.2578 Q1296.4563,724.7109 1295.1594,724.7109 Q1293.6438,724.7109 1292.4406,724.0859 Q1291.4563,723.5859 1290.7688,722.5234 Q1290.0813,721.4453 1290.0813,720.1641 L1290.0813,719.0078 Q1290.0813,717.6797 1290.6906,716.5391 Q1291.3156,715.3828 1292.4094,714.7734 Q1293.5031,714.1484 1294.7375,714.1484 Q1295.4719,714.1484 1296.1125,714.3203 Q1296.7688,714.4766 1297.3156,714.8359 Z " fill="#000000"/><text fill="#000000" font-family="sans-serif" font-size="12" font-style="italic" lengthAdjust="spacing" textLength="45" x="1327.45" y="715.0664">&#171;block&#187;</text><text fill="#000000" font-family="sans-serif" font-size="14" lengthAdjust="spacing" textLength="71" x="1314.45" y="732.2363">ZoneAction</text><line style="stroke:#181818;stroke-width:0.5;" x1="1254" x2="1414" y1="740.3125" y2="740.3125"/><ellipse cx="1264" cy="754.6172" fill="none" rx="3" ry="3" style="stroke:#038048;stroke-width:1.0;"/><text fill="#000000" font-family="sans-serif" font-size="14" lengthAdjust="spacing" textLength="92" x="1273" y="758.8457">zoneMap: Map</text><ellipse cx="1264" cy="772.2266" fill="none" rx="3" ry="3" style="stroke:#038048;stroke-width:1.0;"/><text fill="#000000" font-family="sans-serif" font-size="14" lengthAdjust="spacing" textLength="117" x="1273" y="776.4551">currentZone: Zone</text><line style="stroke:#181818;stroke-width:0.5;" x1="1254" x2="1414" y1="783.5313" y2="783.5313"/><ellipse cx="1264" cy="797.8359" fill="#84BE84" rx="3" ry="3" style="stroke:#038048;stroke-width:1.0;"/><text fill="#000000" font-family="sans-serif" font-size="14" lengthAdjust="spacing" textLength="136" x="1273" y="802.0645">determineZone(color)</text><ellipse cx="1264" cy="815.4453" fill="#84BE84" rx="3" ry="3" style="stroke:#038048;stroke-width:1.0;"/><text fill="#000000" font-family="sans-serif" font-size="14" lengthAdjust="spacing" textLength="130" x="1273" y="819.6738">executeZoneAction()</text></g><!--reverse link LineFollowerRobot to SensorSystem--><g id="link_LineFollowerRobot_SensorSystem"><path codeLine="106" d="M772.066,281.6732 C702.046,330.1832 611.77,392.7094 536.2,445.0494 " fill="none" id="LineFollowerRobot-backto-SensorSystem" style="stroke:#181818;stroke-width:1.0;"/><polygon fill="#181818" points="781.93,274.8394,774.72,274.9683,772.066,281.6732,779.2759,281.5443,781.93,274.8394" style="stroke:#181818;stroke-width:1.0;"/><text fill="#000000" font-family="sans-serif" font-size="13" lengthAdjust="spacing" textLength="49" x="622" y="395.1045">contains</text><text fill="#000000" font-family="sans-serif" font-size="13" lengthAdjust="spacing" textLength="7" x="767.1308" y="276.9121">1</text><text fill="#000000" font-family="sans-serif" font-size="13" lengthAdjust="spacing" textLength="7" x="543.9133" y="436.753">1</text></g><!--reverse link LineFollowerRobot to MotorSystem--><g id="link_LineFollowerRobot_MotorSystem"><path codeLine="107" d="M804.4276,361.8781 C793.2776,388.1881 786.52,404.1294 776.16,428.5694 " fill="none" id="LineFollowerRobot-backto-MotorSystem" style="stroke:#181818;stroke-width:1.0;"/><polygon fill="#181818" points="809.11,350.8294,803.0859,354.793,804.4276,361.8781,810.4517,357.9146,809.11,350.8294" style="stroke:#181818;stroke-width:1.0;"/><text fill="#000000" font-family="sans-serif" font-size="13" lengthAdjust="spacing" textLength="49" x="795" y="395.1045">contains</text><text fill="#000000" font-family="sans-serif" font-size="13" lengthAdjust="spacing" textLength="7" x="798.8074" y="372.166">1</text><text fill="#000000" font-family="sans-serif" font-size="13" lengthAdjust="spacing" textLength="7" x="772.0303" y="417.8786">1</text></g><!--reverse link LineFollowerRobot to Controller--><g id="link_LineFollowerRobot_Controller"><path codeLine="108" d="M928.0449,361.8643 C943.5249,398.0943 954.84,424.5994 967.81,454.9594 " fill="none" id="LineFollowerRobot-backto-Controller" style="stroke:#181818;stroke-width:1.0;"/><polygon fill="#181818" points="923.33,350.8294,922.0091,357.9185,928.0449,361.8643,929.3658,354.7752,923.33,350.8294" style="stroke:#181818;stroke-width:1.0;"/><text fill="#000000" font-family="sans-serif" font-size="13" lengthAdjust="spacing" textLength="49" x="943" y="395.1045">contains</text><text fill="#000000" font-family="sans-serif" font-size="13" lengthAdjust="spacing" textLength="7" x="919.2738" y="372.166">1</text><text fill="#000000" font-family="sans-serif" font-size="13" lengthAdjust="spacing" textLength="7" x="957.2615" y="444.0665">1</text></g><!--reverse link LineFollowerRobot to PowerSystem--><g id="link_LineFollowerRobot_PowerSystem"><path codeLine="109" d="M959.2806,297.8103 C1005.9106,338.5103 1055.79,382.2494 1108,428.6094 C1114.37,434.2694 1120.96,440.1494 1127.58,446.0594 " fill="none" id="LineFollowerRobot-backto-PowerSystem" style="stroke:#181818;stroke-width:1.0;"/><polygon fill="#181818" points="950.24,289.9194,952.13,296.8784,959.2806,297.8103,957.3906,290.8513,950.24,289.9194" style="stroke:#181818;stroke-width:1.0;"/><text fill="#000000" font-family="sans-serif" font-size="13" lengthAdjust="spacing" textLength="49" x="1069" y="395.1045">contains</text><text fill="#000000" font-family="sans-serif" font-size="13" lengthAdjust="spacing" textLength="7" x="958.0543" y="293.3352">1</text><text fill="#000000" font-family="sans-serif" font-size="13" lengthAdjust="spacing" textLength="7" x="1111.9257" y="435.1757">1</text></g><!--reverse link SensorSystem to IRSensor--><g id="link_SensorSystem_IRSensor"><path codeLine="110" d="M314.1978,607.9131 C274.1378,638.1131 238.6,664.9094 200.25,693.8194 " fill="none" id="SensorSystem-backto-IRSensor" style="stroke:#181818;stroke-width:1.0;"/><polygon fill="#181818" points="323.78,600.6894,316.581,601.1072,314.1978,607.9131,321.3968,607.4953,323.78,600.6894" style="stroke:#181818;stroke-width:1.0;"/><text fill="#000000" font-family="sans-serif" font-size="13" lengthAdjust="spacing" textLength="49" x="271" y="655.1045">contains</text><text fill="#000000" font-family="sans-serif" font-size="13" lengthAdjust="spacing" textLength="7" x="309.0653" y="603.3364">1</text><text fill="#000000" font-family="sans-serif" font-size="13" lengthAdjust="spacing" textLength="22" x="207.9254" y="685.4966">2..8</text></g><!--reverse link SensorSystem to UltrasonicSensor--><g id="link_SensorSystem_UltrasonicSensor"><path codeLine="111" d="M394.1096,622.1629 C383.9296,650.9529 376.89,670.8794 367.52,697.3794 " fill="none" id="SensorSystem-backto-UltrasonicSensor" style="stroke:#181818;stroke-width:1.0;"/><polygon fill="#181818" points="398.11,610.8494,392.3386,615.1727,394.1096,622.1629,399.881,617.8396,398.11,610.8494" style="stroke:#181818;stroke-width:1.0;"/><text fill="#000000" font-family="sans-serif" font-size="13" lengthAdjust="spacing" textLength="49" x="388" y="655.1045">contains</text><text fill="#000000" font-family="sans-serif" font-size="13" lengthAdjust="spacing" textLength="7" x="388.4005" y="631.9572">1</text><text fill="#000000" font-family="sans-serif" font-size="13" lengthAdjust="spacing" textLength="7" x="362.6003" y="686.9312">1</text></g><!--reverse link SensorSystem to ColorSensor--><g id="link_SensorSystem_ColorSensor"><path codeLine="112" d="M505.9272,620.3986 C527.8372,649.1886 544.34,670.8794 564.51,697.3794 " fill="none" id="SensorSystem-backto-ColorSensor" style="stroke:#181818;stroke-width:1.0;"/><polygon fill="#181818" points="498.66,610.8494,499.1105,618.0464,505.9272,620.3986,505.4767,613.2016,498.66,610.8494" style="stroke:#181818;stroke-width:1.0;"/><text fill="#000000" font-family="sans-serif" font-size="13" lengthAdjust="spacing" textLength="49" x="533" y="655.1045">contains</text><text fill="#000000" font-family="sans-serif" font-size="13" lengthAdjust="spacing" textLength="7" x="496.6488" y="631.9572">1</text><text fill="#000000" font-family="sans-serif" font-size="13" lengthAdjust="spacing" textLength="7" x="551.8236" y="686.9312">1</text></g><!--reverse link Controller to ObstacleAvoidance--><g id="link_Controller_ObstacleAvoidance"><path codeLine="113" d="M957.6577,594.8296 C940.0877,629.7596 923.73,662.2594 906.13,697.2494 " fill="none" id="Controller-backto-ObstacleAvoidance" style="stroke:#181818;stroke-width:1.0;"/><polygon fill="#181818" points="963.05,584.1094,956.7804,587.672,957.6577,594.8296,963.9272,591.2669,963.05,584.1094" style="stroke:#181818;stroke-width:1.0;"/><text fill="#000000" font-family="sans-serif" font-size="13" lengthAdjust="spacing" textLength="49" x="935" y="655.1045">contains</text><text fill="#000000" font-family="sans-serif" font-size="13" lengthAdjust="spacing" textLength="7" x="952.1727" y="605.5457">1</text><text fill="#000000" font-family="sans-serif" font-size="13" lengthAdjust="spacing" textLength="7" x="902.2614" y="686.787">1</text></g><!--reverse link Controller to LineFollowing--><g id="link_Controller_LineFollowing"><path codeLine="114" d="M1032.0472,594.8472 C1048.0172,626.8572 1062.1,655.0894 1078.67,688.3094 " fill="none" id="Controller-backto-LineFollowing" style="stroke:#181818;stroke-width:1.0;"/><polygon fill="#181818" points="1026.69,584.1094,1025.7893,591.264,1032.0472,594.8472,1032.9479,587.6926,1026.69,584.1094" style="stroke:#181818;stroke-width:1.0;"/><text fill="#000000" font-family="sans-serif" font-size="13" lengthAdjust="spacing" textLength="49" x="1063" y="655.1045">contains</text><text fill="#000000" font-family="sans-serif" font-size="13" lengthAdjust="spacing" textLength="7" x="1022.7733" y="605.5457">1</text><text fill="#000000" font-family="sans-serif" font-size="13" lengthAdjust="spacing" textLength="7" x="1067.7492" y="677.7819">1</text></g><!--reverse link Controller to ZoneAction--><g id="link_Controller_ZoneAction"><path codeLine="115" d="M1082.727,591.5956 C1094.557,600.6556 1097.22,602.3794 1109,610.6094 C1163.31,648.5294 1181.1,651.5394 1236,688.6094 C1241.53,692.3394 1247.17,696.2494 1252.83,700.2394 " fill="none" id="Controller-backto-ZoneAction" style="stroke:#181818;stroke-width:1.0;"/><polygon fill="#181818" points="1073.2,584.2994,1075.5314,591.1232,1082.727,591.5956,1080.3956,584.7718,1073.2,584.2994" style="stroke:#181818;stroke-width:1.0;"/><text fill="#000000" font-family="sans-serif" font-size="13" lengthAdjust="spacing" textLength="49" x="1188" y="655.1045">contains</text><text fill="#000000" font-family="sans-serif" font-size="13" lengthAdjust="spacing" textLength="7" x="1074.3703" y="605.7565">1</text><text fill="#000000" font-family="sans-serif" font-size="13" lengthAdjust="spacing" textLength="7" x="1238.0245" y="691.3031">1</text></g><!--SRC=[ZLLDRzim3BtdLmYvDDqNi9s6e1ZGDXXGO4M3fhkiw46H6Lkh8XaIdIqTzjz7VTYH4sVfAPRuA3wIZmnALC2MHS4UhvGHpsm6AwabIgFPJFBIylKJ-oOrV3LAcLzWxytI85jksQNQoD6evkAPby36N61wOWZ_U0KLtqXZdrhNCVipOkoCjGRc09kQhWwTf-njxKzJTcMC0gwFeTpM8Qml1SeDd0I7BBcIBp0vFuOHP5zQZh00xOnrnv6rDGASkz5rW_-3WLqP6oWQxN6ZCogpXN1E9K1JCpICFD2iMT5QFVHQSUTOqRN8ZKIuEOnrSR7qlVZo9PJvi7v7QxLVb-4Q3EHxcDlVKQ8NFHSXuZup5sptm0kfIpTDs1b7dWUd5nV8iN4zgfQyUgmwhl5O05BjV74cvpt7QBXREkH23HklZJBMMyB7mxQ6NJwt1e-bes25YngWcB8RZL223KHbMGrShyCxb1TruBRxzXPU_6nSz9XqJxvZktT2Vewa4ZF5nkf99vLtZEjImNcCiI5fs5_S5XCNFRiyher6Ix81kv-6QAm5ZObRJBKZb_T-uhf-TIMtQwfuEzUHNnGLGXH7hesR-zZ1GyMw8F5M4VDqzhODLmtqAecL1LSPrQ-lT7TweFjUDZc5xmejTqPBCKobaAGJBIZYLsKuxiNhxYXQ4jGiA8XQz_-uGLb7GgON0YJNeEzDEBG4Q29kUHtZapA4N4aHuAyaCVUROLZBIuxKpEqts83AyWoxP60Qm_sTJiiW75QhD9SLYEUhxBcSGLkrousHXQ_pFW_U6XRePxlSaYRILnfwqIWwpZbMCHxy1j4WFFYfE8zPksQTLYJjcJpyRdUIOJ_qgZLSgj9OYTLwohfF3vZVpEQS_YIzxAaSTAIXMicoH-pQs3IPaKsSxZ3nQN4vu5PKDATHhZjsFunEGxDFxOKirFck_MbalSCqkFN6qLzCWdBo0krUZp7Fs3sei6rT9MitElnV6NySipVltuVVtbgVCa7RX4jzoYjVdgzsoZRLgtroPMTEFTOT_jE73v_7ksLq4a-_1slZDKxvp6VuBBySVJWQfttwUZwDpnIMWV-E_W40]--></g></svg>