<?xml version="1.0" encoding="us-ascii" standalone="no"?><svg xmlns="http://www.w3.org/2000/svg" xmlns:xlink="http://www.w3.org/1999/xlink" contentStyleType="text/css" height="751px" preserveAspectRatio="none" style="width:1250px;height:751px;background:#FFFFFF;" version="1.1" viewBox="0 0 1250 751" width="1250px" zoomAndPan="magnify"><defs/><g><!--cluster act [Block] LineFollowerRobot [classDiagram] by Alvi--><g id="cluster_act [Block] LineFollowerRobot [classDiagram] by Alvi"><path d="M8.5,6 L377.5,6 A3.75,3.75 0 0 1 380,8.5 L387,29.6094 L1240.5,29.6094 A2.5,2.5 0 0 1 1243,32.1094 L1243,741.5 A2.5,2.5 0 0 1 1240.5,744 L8.5,744 A2.5,2.5 0 0 1 6,741.5 L6,8.5 A2.5,2.5 0 0 1 8.5,6 " fill="none" style="stroke:#000000;stroke-width:1.5;"/><line style="stroke:#000000;stroke-width:1.5;" x1="6" x2="387" y1="29.6094" y2="29.6094"/><text fill="#000000" font-family="sans-serif" font-size="14" font-weight="bold" lengthAdjust="spacing" textLength="368" x="10" y="22.5332">act [Block] LineFollowerRobot [classDiagram] by Alvi</text></g><!--cluster act [Class Diagram] LineFollowerRobot - by Alvi--><g id="cluster_act [Class Diagram] LineFollowerRobot - by Alvi"><rect fill="#FFFFFF" height="670" rx="2.5" ry="2.5" style="stroke:#000000;stroke-width:1.0;" width="1189" x="30" y="50"/><text fill="#000000" font-family="sans-serif" font-size="14" font-style="italic" lengthAdjust="spacing" textLength="52" x="598.5" y="66.5332">&#171;frame&#187;</text><text fill="#000000" font-family="sans-serif" font-size="14" font-weight="bold" lengthAdjust="spacing" textLength="330" x="459.5" y="84.1426">act [Class Diagram] LineFollowerRobot - by Alvi</text></g><!--class LineFollowerRobot--><g id="elem_LineFollowerRobot"><rect codeLine="14" fill="#F1F1F1" height="153.6563" id="LineFollowerRobot" rx="2.5" ry="2.5" style="stroke:#181818;stroke-width:0.5;" width="159" x="689.5" y="104"/><ellipse cx="708.55" cy="120" fill="#ADD1B2" rx="11" ry="11" style="stroke:#181818;stroke-width:1.0;"/><path d="M711.3156,115.875 Q711.4719,115.6563 711.6594,115.5469 Q711.8469,115.4375 712.0656,115.4375 Q712.4406,115.4375 712.675,115.7031 Q712.9094,115.9531 712.9094,116.5625 L712.9094,118.0156 Q712.9094,118.625 712.675,118.8906 Q712.4406,119.1563 712.0656,119.1563 Q711.7219,119.1563 711.5188,118.9531 Q711.3156,118.7656 711.2063,118.25 Q711.1594,117.8906 710.9719,117.7031 Q710.6438,117.3281 710.0344,117.1094 Q709.425,116.8906 708.8,116.8906 Q708.0344,116.8906 707.3938,117.2188 Q706.7688,117.5469 706.2688,118.2969 Q705.7844,119.0469 705.7844,120.0781 L705.7844,121.1719 Q705.7844,122.4063 706.675,123.2344 Q707.5656,124.0469 709.1594,124.0469 Q710.0969,124.0469 710.7531,123.7969 Q711.1438,123.6406 711.5656,123.2031 Q711.8313,122.9375 711.9719,122.8594 Q712.1281,122.7813 712.3313,122.7813 Q712.6594,122.7813 712.9094,123.0469 Q713.175,123.2969 713.175,123.6406 Q713.175,123.9844 712.8313,124.3906 Q712.3313,124.9688 711.5344,125.2969 Q710.4563,125.75 709.1594,125.75 Q707.6438,125.75 706.4406,125.125 Q705.4563,124.625 704.7688,123.5625 Q704.0813,122.4844 704.0813,121.2031 L704.0813,120.0469 Q704.0813,118.7188 704.6906,117.5781 Q705.3156,116.4219 706.4094,115.8125 Q707.5031,115.1875 708.7375,115.1875 Q709.4719,115.1875 710.1125,115.3594 Q710.7688,115.5156 711.3156,115.875 Z " fill="#000000"/><text fill="#000000" font-family="sans-serif" font-size="14" lengthAdjust="spacing" textLength="118" x="723.45" y="125.7285">LineFollowerRobot</text><line style="stroke:#181818;stroke-width:0.5;" x1="690.5" x2="847.5" y1="136" y2="136"/><text fill="#000000" font-family="sans-serif" font-size="14" lengthAdjust="spacing" textLength="103" x="695.5" y="154.5332">-power: Boolean</text><text fill="#000000" font-family="sans-serif" font-size="14" lengthAdjust="spacing" textLength="147" x="695.5" y="172.1426">-systemActive: Boolean</text><line style="stroke:#181818;stroke-width:0.5;" x1="690.5" x2="847.5" y1="179.2188" y2="179.2188"/><text fill="#000000" font-family="sans-serif" font-size="14" lengthAdjust="spacing" textLength="67" x="695.5" y="197.752">+initialize()</text><text fill="#000000" font-family="sans-serif" font-size="14" lengthAdjust="spacing" textLength="124" x="695.5" y="215.3613">+calibrateSensors()</text><text fill="#000000" font-family="sans-serif" font-size="14" lengthAdjust="spacing" textLength="106" x="695.5" y="232.9707">+processInputs()</text><text fill="#000000" font-family="sans-serif" font-size="14" lengthAdjust="spacing" textLength="113" x="695.5" y="250.5801">+performActions()</text></g><!--class SensorSystem--><g id="elem_SensorSystem"><rect codeLine="23" fill="#F1F1F1" height="171.2656" id="SensorSystem" rx="2.5" ry="2.5" style="stroke:#181818;stroke-width:0.5;" width="203" x="204.5" y="319"/><ellipse cx="256.25" cy="335" fill="#ADD1B2" rx="11" ry="11" style="stroke:#181818;stroke-width:1.0;"/><path d="M259.0156,330.875 Q259.1719,330.6563 259.3594,330.5469 Q259.5469,330.4375 259.7656,330.4375 Q260.1406,330.4375 260.375,330.7031 Q260.6094,330.9531 260.6094,331.5625 L260.6094,333.0156 Q260.6094,333.625 260.375,333.8906 Q260.1406,334.1563 259.7656,334.1563 Q259.4219,334.1563 259.2188,333.9531 Q259.0156,333.7656 258.9063,333.25 Q258.8594,332.8906 258.6719,332.7031 Q258.3438,332.3281 257.7344,332.1094 Q257.125,331.8906 256.5,331.8906 Q255.7344,331.8906 255.0938,332.2188 Q254.4688,332.5469 253.9688,333.2969 Q253.4844,334.0469 253.4844,335.0781 L253.4844,336.1719 Q253.4844,337.4063 254.375,338.2344 Q255.2656,339.0469 256.8594,339.0469 Q257.7969,339.0469 258.4531,338.7969 Q258.8438,338.6406 259.2656,338.2031 Q259.5313,337.9375 259.6719,337.8594 Q259.8281,337.7813 260.0313,337.7813 Q260.3594,337.7813 260.6094,338.0469 Q260.875,338.2969 260.875,338.6406 Q260.875,338.9844 260.5313,339.3906 Q260.0313,339.9688 259.2344,340.2969 Q258.1563,340.75 256.8594,340.75 Q255.3438,340.75 254.1406,340.125 Q253.1563,339.625 252.4688,338.5625 Q251.7813,337.4844 251.7813,336.2031 L251.7813,335.0469 Q251.7813,333.7188 252.3906,332.5781 Q253.0156,331.4219 254.1094,330.8125 Q255.2031,330.1875 256.4375,330.1875 Q257.1719,330.1875 257.8125,330.3594 Q258.4688,330.5156 259.0156,330.875 Z " fill="#000000"/><text fill="#000000" font-family="sans-serif" font-size="14" lengthAdjust="spacing" textLength="91" x="276.75" y="340.7285">SensorSystem</text><line style="stroke:#181818;stroke-width:0.5;" x1="205.5" x2="406.5" y1="351" y2="351"/><text fill="#000000" font-family="sans-serif" font-size="14" lengthAdjust="spacing" textLength="191" x="210.5" y="369.5332">-sensorReadings: SensorData</text><text fill="#000000" font-family="sans-serif" font-size="14" lengthAdjust="spacing" textLength="170" x="210.5" y="387.1426">-calibrationStatus: Boolean</text><line style="stroke:#181818;stroke-width:0.5;" x1="205.5" x2="406.5" y1="394.2188" y2="394.2188"/><text fill="#000000" font-family="sans-serif" font-size="14" lengthAdjust="spacing" textLength="99" x="210.5" y="412.752">+readSensors()</text><text fill="#000000" font-family="sans-serif" font-size="14" lengthAdjust="spacing" textLength="72" x="210.5" y="430.3613">+calibrate()</text><text fill="#000000" font-family="sans-serif" font-size="14" lengthAdjust="spacing" textLength="144" x="210.5" y="447.9707">+detectLine(): Boolean</text><text fill="#000000" font-family="sans-serif" font-size="14" lengthAdjust="spacing" textLength="173" x="210.5" y="465.5801">+detectObstacle(): Boolean</text><text fill="#000000" font-family="sans-serif" font-size="14" lengthAdjust="spacing" textLength="165" x="210.5" y="483.1895">+detectColor(): ColorType</text></g><!--class MotorSystem--><g id="elem_MotorSystem"><rect codeLine="33" fill="#F1F1F1" height="171.2656" id="MotorSystem" rx="2.5" ry="2.5" style="stroke:#181818;stroke-width:0.5;" width="350" x="443" y="319"/><ellipse cx="572.75" cy="335" fill="#ADD1B2" rx="11" ry="11" style="stroke:#181818;stroke-width:1.0;"/><path d="M575.5156,330.875 Q575.6719,330.6563 575.8594,330.5469 Q576.0469,330.4375 576.2656,330.4375 Q576.6406,330.4375 576.875,330.7031 Q577.1094,330.9531 577.1094,331.5625 L577.1094,333.0156 Q577.1094,333.625 576.875,333.8906 Q576.6406,334.1563 576.2656,334.1563 Q575.9219,334.1563 575.7188,333.9531 Q575.5156,333.7656 575.4063,333.25 Q575.3594,332.8906 575.1719,332.7031 Q574.8438,332.3281 574.2344,332.1094 Q573.625,331.8906 573,331.8906 Q572.2344,331.8906 571.5938,332.2188 Q570.9688,332.5469 570.4688,333.2969 Q569.9844,334.0469 569.9844,335.0781 L569.9844,336.1719 Q569.9844,337.4063 570.875,338.2344 Q571.7656,339.0469 573.3594,339.0469 Q574.2969,339.0469 574.9531,338.7969 Q575.3438,338.6406 575.7656,338.2031 Q576.0313,337.9375 576.1719,337.8594 Q576.3281,337.7813 576.5313,337.7813 Q576.8594,337.7813 577.1094,338.0469 Q577.375,338.2969 577.375,338.6406 Q577.375,338.9844 577.0313,339.3906 Q576.5313,339.9688 575.7344,340.2969 Q574.6563,340.75 573.3594,340.75 Q571.8438,340.75 570.6406,340.125 Q569.6563,339.625 568.9688,338.5625 Q568.2813,337.4844 568.2813,336.2031 L568.2813,335.0469 Q568.2813,333.7188 568.8906,332.5781 Q569.5156,331.4219 570.6094,330.8125 Q571.7031,330.1875 572.9375,330.1875 Q573.6719,330.1875 574.3125,330.3594 Q574.9688,330.5156 575.5156,330.875 Z " fill="#000000"/><text fill="#000000" font-family="sans-serif" font-size="14" lengthAdjust="spacing" textLength="82" x="593.25" y="340.7285">MotorSystem</text><line style="stroke:#181818;stroke-width:0.5;" x1="444" x2="792" y1="351" y2="351"/><text fill="#000000" font-family="sans-serif" font-size="14" lengthAdjust="spacing" textLength="117" x="449" y="369.5332">-leftSpeed: Integer</text><text fill="#000000" font-family="sans-serif" font-size="14" lengthAdjust="spacing" textLength="126" x="449" y="387.1426">-rightSpeed: Integer</text><text fill="#000000" font-family="sans-serif" font-size="14" lengthAdjust="spacing" textLength="151" x="449" y="404.752">-motorState: MotorState</text><line style="stroke:#181818;stroke-width:0.5;" x1="444" x2="792" y1="411.8281" y2="411.8281"/><text fill="#000000" font-family="sans-serif" font-size="14" lengthAdjust="spacing" textLength="338" x="449" y="430.3613">+adjustSpeed(leftSpeed: Integer, rightSpeed: Integer)</text><text fill="#000000" font-family="sans-serif" font-size="14" lengthAdjust="spacing" textLength="45" x="449" y="447.9707">+stop()</text><text fill="#000000" font-family="sans-serif" font-size="14" lengthAdjust="spacing" textLength="140" x="449" y="465.5801">+turn(direction, angle)</text><text fill="#000000" font-family="sans-serif" font-size="14" lengthAdjust="spacing" textLength="143" x="449" y="483.1895">+moveForward(speed)</text></g><!--class Controller--><g id="elem_Controller"><rect codeLine="43" fill="#F1F1F1" height="118.4375" id="Controller" rx="2.5" ry="2.5" style="stroke:#181818;stroke-width:0.5;" width="184" x="828" y="345.5"/><ellipse cx="884.75" cy="361.5" fill="#ADD1B2" rx="11" ry="11" style="stroke:#181818;stroke-width:1.0;"/><path d="M887.5156,357.375 Q887.6719,357.1563 887.8594,357.0469 Q888.0469,356.9375 888.2656,356.9375 Q888.6406,356.9375 888.875,357.2031 Q889.1094,357.4531 889.1094,358.0625 L889.1094,359.5156 Q889.1094,360.125 888.875,360.3906 Q888.6406,360.6563 888.2656,360.6563 Q887.9219,360.6563 887.7188,360.4531 Q887.5156,360.2656 887.4063,359.75 Q887.3594,359.3906 887.1719,359.2031 Q886.8438,358.8281 886.2344,358.6094 Q885.625,358.3906 885,358.3906 Q884.2344,358.3906 883.5938,358.7188 Q882.9688,359.0469 882.4688,359.7969 Q881.9844,360.5469 881.9844,361.5781 L881.9844,362.6719 Q881.9844,363.9063 882.875,364.7344 Q883.7656,365.5469 885.3594,365.5469 Q886.2969,365.5469 886.9531,365.2969 Q887.3438,365.1406 887.7656,364.7031 Q888.0313,364.4375 888.1719,364.3594 Q888.3281,364.2813 888.5313,364.2813 Q888.8594,364.2813 889.1094,364.5469 Q889.375,364.7969 889.375,365.1406 Q889.375,365.4844 889.0313,365.8906 Q888.5313,366.4688 887.7344,366.7969 Q886.6563,367.25 885.3594,367.25 Q883.8438,367.25 882.6406,366.625 Q881.6563,366.125 880.9688,365.0625 Q880.2813,363.9844 880.2813,362.7031 L880.2813,361.5469 Q880.2813,360.2188 880.8906,359.0781 Q881.5156,357.9219 882.6094,357.3125 Q883.7031,356.6875 884.9375,356.6875 Q885.6719,356.6875 886.3125,356.8594 Q886.9688,357.0156 887.5156,357.375 Z " fill="#000000"/><text fill="#000000" font-family="sans-serif" font-size="14" lengthAdjust="spacing" textLength="62" x="905.25" y="367.2285">Controller</text><line style="stroke:#181818;stroke-width:0.5;" x1="829" x2="1011" y1="377.5" y2="377.5"/><text fill="#000000" font-family="sans-serif" font-size="14" lengthAdjust="spacing" textLength="170" x="834" y="396.0332">-currentState: SystemState</text><line style="stroke:#181818;stroke-width:0.5;" x1="829" x2="1011" y1="403.1094" y2="403.1094"/><text fill="#000000" font-family="sans-serif" font-size="14" lengthAdjust="spacing" textLength="172" x="834" y="421.6426">+processInput(sensorData)</text><text fill="#000000" font-family="sans-serif" font-size="14" lengthAdjust="spacing" textLength="137" x="834" y="439.252">+determineBehavior()</text><text fill="#000000" font-family="sans-serif" font-size="14" lengthAdjust="spacing" textLength="98" x="834" y="456.8613">+initiateAction()</text></g><!--class IRSensor--><g id="elem_IRSensor"><rect codeLine="50" fill="#F1F1F1" height="136.0469" id="IRSensor" rx="2.5" ry="2.5" style="stroke:#181818;stroke-width:0.5;" width="169" x="46.5" y="568"/><ellipse cx="97.75" cy="584" fill="#ADD1B2" rx="11" ry="11" style="stroke:#181818;stroke-width:1.0;"/><path d="M100.5156,579.875 Q100.6719,579.6563 100.8594,579.5469 Q101.0469,579.4375 101.2656,579.4375 Q101.6406,579.4375 101.875,579.7031 Q102.1094,579.9531 102.1094,580.5625 L102.1094,582.0156 Q102.1094,582.625 101.875,582.8906 Q101.6406,583.1563 101.2656,583.1563 Q100.9219,583.1563 100.7188,582.9531 Q100.5156,582.7656 100.4063,582.25 Q100.3594,581.8906 100.1719,581.7031 Q99.8438,581.3281 99.2344,581.1094 Q98.625,580.8906 98,580.8906 Q97.2344,580.8906 96.5938,581.2188 Q95.9688,581.5469 95.4688,582.2969 Q94.9844,583.0469 94.9844,584.0781 L94.9844,585.1719 Q94.9844,586.4063 95.875,587.2344 Q96.7656,588.0469 98.3594,588.0469 Q99.2969,588.0469 99.9531,587.7969 Q100.3438,587.6406 100.7656,587.2031 Q101.0313,586.9375 101.1719,586.8594 Q101.3281,586.7813 101.5313,586.7813 Q101.8594,586.7813 102.1094,587.0469 Q102.375,587.2969 102.375,587.6406 Q102.375,587.9844 102.0313,588.3906 Q101.5313,588.9688 100.7344,589.2969 Q99.6563,589.75 98.3594,589.75 Q96.8438,589.75 95.6406,589.125 Q94.6563,588.625 93.9688,587.5625 Q93.2813,586.4844 93.2813,585.2031 L93.2813,584.0469 Q93.2813,582.7188 93.8906,581.5781 Q94.5156,580.4219 95.6094,579.8125 Q96.7031,579.1875 97.9375,579.1875 Q98.6719,579.1875 99.3125,579.3594 Q99.9688,579.5156 100.5156,579.875 Z " fill="#000000"/><text fill="#000000" font-family="sans-serif" font-size="14" lengthAdjust="spacing" textLength="58" x="118.25" y="589.7285">IRSensor</text><line style="stroke:#181818;stroke-width:0.5;" x1="47.5" x2="214.5" y1="600" y2="600"/><text fill="#000000" font-family="sans-serif" font-size="14" lengthAdjust="spacing" textLength="157" x="52.5" y="618.5332">-position: SensorPosition</text><text fill="#000000" font-family="sans-serif" font-size="14" lengthAdjust="spacing" textLength="91" x="52.5" y="636.1426">-value: Integer</text><text fill="#000000" font-family="sans-serif" font-size="14" lengthAdjust="spacing" textLength="116" x="52.5" y="653.752">-threshold: Integer</text><line style="stroke:#181818;stroke-width:0.5;" x1="47.5" x2="214.5" y1="660.8281" y2="660.8281"/><text fill="#000000" font-family="sans-serif" font-size="14" lengthAdjust="spacing" textLength="134" x="52.5" y="679.3613">+isOnLine(): Boolean</text><text fill="#000000" font-family="sans-serif" font-size="14" lengthAdjust="spacing" textLength="47" x="52.5" y="696.9707">+read()</text></g><!--class UltrasonicSensor--><g id="elem_UltrasonicSensor"><rect codeLine="58" fill="#F1F1F1" height="118.4375" id="UltrasonicSensor" rx="2.5" ry="2.5" style="stroke:#181818;stroke-width:0.5;" width="213" x="250.5" y="577"/><ellipse cx="299.25" cy="593" fill="#ADD1B2" rx="11" ry="11" style="stroke:#181818;stroke-width:1.0;"/><path d="M302.0156,588.875 Q302.1719,588.6563 302.3594,588.5469 Q302.5469,588.4375 302.7656,588.4375 Q303.1406,588.4375 303.375,588.7031 Q303.6094,588.9531 303.6094,589.5625 L303.6094,591.0156 Q303.6094,591.625 303.375,591.8906 Q303.1406,592.1563 302.7656,592.1563 Q302.4219,592.1563 302.2188,591.9531 Q302.0156,591.7656 301.9063,591.25 Q301.8594,590.8906 301.6719,590.7031 Q301.3438,590.3281 300.7344,590.1094 Q300.125,589.8906 299.5,589.8906 Q298.7344,589.8906 298.0938,590.2188 Q297.4688,590.5469 296.9688,591.2969 Q296.4844,592.0469 296.4844,593.0781 L296.4844,594.1719 Q296.4844,595.4063 297.375,596.2344 Q298.2656,597.0469 299.8594,597.0469 Q300.7969,597.0469 301.4531,596.7969 Q301.8438,596.6406 302.2656,596.2031 Q302.5313,595.9375 302.6719,595.8594 Q302.8281,595.7813 303.0313,595.7813 Q303.3594,595.7813 303.6094,596.0469 Q303.875,596.2969 303.875,596.6406 Q303.875,596.9844 303.5313,597.3906 Q303.0313,597.9688 302.2344,598.2969 Q301.1563,598.75 299.8594,598.75 Q298.3438,598.75 297.1406,598.125 Q296.1563,597.625 295.4688,596.5625 Q294.7813,595.4844 294.7813,594.2031 L294.7813,593.0469 Q294.7813,591.7188 295.3906,590.5781 Q296.0156,589.4219 297.1094,588.8125 Q298.2031,588.1875 299.4375,588.1875 Q300.1719,588.1875 300.8125,588.3594 Q301.4688,588.5156 302.0156,588.875 Z " fill="#000000"/><text fill="#000000" font-family="sans-serif" font-size="14" lengthAdjust="spacing" textLength="107" x="319.75" y="598.7285">UltrasonicSensor</text><line style="stroke:#181818;stroke-width:0.5;" x1="251.5" x2="462.5" y1="609" y2="609"/><text fill="#000000" font-family="sans-serif" font-size="14" lengthAdjust="spacing" textLength="98" x="256.5" y="627.5332">-distance: Float</text><text fill="#000000" font-family="sans-serif" font-size="14" lengthAdjust="spacing" textLength="104" x="256.5" y="645.1426">-threshold: Float</text><line style="stroke:#181818;stroke-width:0.5;" x1="251.5" x2="462.5" y1="652.2188" y2="652.2188"/><text fill="#000000" font-family="sans-serif" font-size="14" lengthAdjust="spacing" textLength="201" x="256.5" y="670.752">+isObstacleDetected(): Boolean</text><text fill="#000000" font-family="sans-serif" font-size="14" lengthAdjust="spacing" textLength="47" x="256.5" y="688.3613">+read()</text></g><!--class ColorSensor--><g id="elem_ColorSensor"><rect codeLine="65" fill="#F1F1F1" height="118.4375" id="ColorSensor" rx="2.5" ry="2.5" style="stroke:#181818;stroke-width:0.5;" width="240" x="499" y="577"/><ellipse cx="575.25" cy="593" fill="#ADD1B2" rx="11" ry="11" style="stroke:#181818;stroke-width:1.0;"/><path d="M578.0156,588.875 Q578.1719,588.6563 578.3594,588.5469 Q578.5469,588.4375 578.7656,588.4375 Q579.1406,588.4375 579.375,588.7031 Q579.6094,588.9531 579.6094,589.5625 L579.6094,591.0156 Q579.6094,591.625 579.375,591.8906 Q579.1406,592.1563 578.7656,592.1563 Q578.4219,592.1563 578.2188,591.9531 Q578.0156,591.7656 577.9063,591.25 Q577.8594,590.8906 577.6719,590.7031 Q577.3438,590.3281 576.7344,590.1094 Q576.125,589.8906 575.5,589.8906 Q574.7344,589.8906 574.0938,590.2188 Q573.4688,590.5469 572.9688,591.2969 Q572.4844,592.0469 572.4844,593.0781 L572.4844,594.1719 Q572.4844,595.4063 573.375,596.2344 Q574.2656,597.0469 575.8594,597.0469 Q576.7969,597.0469 577.4531,596.7969 Q577.8438,596.6406 578.2656,596.2031 Q578.5313,595.9375 578.6719,595.8594 Q578.8281,595.7813 579.0313,595.7813 Q579.3594,595.7813 579.6094,596.0469 Q579.875,596.2969 579.875,596.6406 Q579.875,596.9844 579.5313,597.3906 Q579.0313,597.9688 578.2344,598.2969 Q577.1563,598.75 575.8594,598.75 Q574.3438,598.75 573.1406,598.125 Q572.1563,597.625 571.4688,596.5625 Q570.7813,595.4844 570.7813,594.2031 L570.7813,593.0469 Q570.7813,591.7188 571.3906,590.5781 Q572.0156,589.4219 573.1094,588.8125 Q574.2031,588.1875 575.4375,588.1875 Q576.1719,588.1875 576.8125,588.3594 Q577.4688,588.5156 578.0156,588.875 Z " fill="#000000"/><text fill="#000000" font-family="sans-serif" font-size="14" lengthAdjust="spacing" textLength="79" x="595.75" y="598.7285">ColorSensor</text><line style="stroke:#181818;stroke-width:0.5;" x1="500" x2="738" y1="609" y2="609"/><text fill="#000000" font-family="sans-serif" font-size="14" lengthAdjust="spacing" textLength="168" x="505" y="627.5332">-detectedColor: ColorType</text><text fill="#000000" font-family="sans-serif" font-size="14" lengthAdjust="spacing" textLength="142" x="505" y="645.1426">-colorThresholds: Map</text><line style="stroke:#181818;stroke-width:0.5;" x1="500" x2="738" y1="652.2188" y2="652.2188"/><text fill="#000000" font-family="sans-serif" font-size="14" lengthAdjust="spacing" textLength="228" x="505" y="670.752">+isSpecificColorDetected(): Boolean</text><text fill="#000000" font-family="sans-serif" font-size="14" lengthAdjust="spacing" textLength="47" x="505" y="688.3613">+read()</text></g><!--class PowerSystem--><g id="elem_PowerSystem"><rect codeLine="72" fill="#F1F1F1" height="136.0469" id="PowerSystem" rx="2.5" ry="2.5" style="stroke:#181818;stroke-width:0.5;" width="155" x="1047.5" y="336.5"/><ellipse cx="1079.6" cy="352.5" fill="#ADD1B2" rx="11" ry="11" style="stroke:#181818;stroke-width:1.0;"/><path d="M1082.3656,348.375 Q1082.5219,348.1563 1082.7094,348.0469 Q1082.8969,347.9375 1083.1156,347.9375 Q1083.4906,347.9375 1083.725,348.2031 Q1083.9594,348.4531 1083.9594,349.0625 L1083.9594,350.5156 Q1083.9594,351.125 1083.725,351.3906 Q1083.4906,351.6563 1083.1156,351.6563 Q1082.7719,351.6563 1082.5688,351.4531 Q1082.3656,351.2656 1082.2563,350.75 Q1082.2094,350.3906 1082.0219,350.2031 Q1081.6938,349.8281 1081.0844,349.6094 Q1080.475,349.3906 1079.85,349.3906 Q1079.0844,349.3906 1078.4438,349.7188 Q1077.8188,350.0469 1077.3188,350.7969 Q1076.8344,351.5469 1076.8344,352.5781 L1076.8344,353.6719 Q1076.8344,354.9063 1077.725,355.7344 Q1078.6156,356.5469 1080.2094,356.5469 Q1081.1469,356.5469 1081.8031,356.2969 Q1082.1938,356.1406 1082.6156,355.7031 Q1082.8813,355.4375 1083.0219,355.3594 Q1083.1781,355.2813 1083.3813,355.2813 Q1083.7094,355.2813 1083.9594,355.5469 Q1084.225,355.7969 1084.225,356.1406 Q1084.225,356.4844 1083.8813,356.8906 Q1083.3813,357.4688 1082.5844,357.7969 Q1081.5063,358.25 1080.2094,358.25 Q1078.6938,358.25 1077.4906,357.625 Q1076.5063,357.125 1075.8188,356.0625 Q1075.1313,354.9844 1075.1313,353.7031 L1075.1313,352.5469 Q1075.1313,351.2188 1075.7406,350.0781 Q1076.3656,348.9219 1077.4594,348.3125 Q1078.5531,347.6875 1079.7875,347.6875 Q1080.5219,347.6875 1081.1625,347.8594 Q1081.8188,348.0156 1082.3656,348.375 Z " fill="#000000"/><text fill="#000000" font-family="sans-serif" font-size="14" lengthAdjust="spacing" textLength="85" x="1097.4" y="358.2285">PowerSystem</text><line style="stroke:#181818;stroke-width:0.5;" x1="1048.5" x2="1201.5" y1="368.5" y2="368.5"/><text fill="#000000" font-family="sans-serif" font-size="14" lengthAdjust="spacing" textLength="123" x="1053.5" y="387.0332">-batteryLevel: Float</text><text fill="#000000" font-family="sans-serif" font-size="14" lengthAdjust="spacing" textLength="143" x="1053.5" y="404.6426">-powerStatus: Boolean</text><line style="stroke:#181818;stroke-width:0.5;" x1="1048.5" x2="1201.5" y1="411.7188" y2="411.7188"/><text fill="#000000" font-family="sans-serif" font-size="14" lengthAdjust="spacing" textLength="75" x="1053.5" y="430.252">+powerOn()</text><text fill="#000000" font-family="sans-serif" font-size="14" lengthAdjust="spacing" textLength="75" x="1053.5" y="447.8613">+powerOff()</text><text fill="#000000" font-family="sans-serif" font-size="14" lengthAdjust="spacing" textLength="134" x="1053.5" y="465.4707">+checkBatteryLevel()</text></g><!--class ObstacleAvoidance--><g id="elem_ObstacleAvoidance"><rect codeLine="80" fill="#F1F1F1" height="118.4375" id="ObstacleAvoidance" rx="2.5" ry="2.5" style="stroke:#181818;stroke-width:0.5;" width="196" x="774" y="577"/><ellipse cx="807.9" cy="593" fill="#ADD1B2" rx="11" ry="11" style="stroke:#181818;stroke-width:1.0;"/><path d="M810.6656,588.875 Q810.8219,588.6563 811.0094,588.5469 Q811.1969,588.4375 811.4156,588.4375 Q811.7906,588.4375 812.025,588.7031 Q812.2594,588.9531 812.2594,589.5625 L812.2594,591.0156 Q812.2594,591.625 812.025,591.8906 Q811.7906,592.1563 811.4156,592.1563 Q811.0719,592.1563 810.8688,591.9531 Q810.6656,591.7656 810.5563,591.25 Q810.5094,590.8906 810.3219,590.7031 Q809.9938,590.3281 809.3844,590.1094 Q808.775,589.8906 808.15,589.8906 Q807.3844,589.8906 806.7438,590.2188 Q806.1188,590.5469 805.6188,591.2969 Q805.1344,592.0469 805.1344,593.0781 L805.1344,594.1719 Q805.1344,595.4063 806.025,596.2344 Q806.9156,597.0469 808.5094,597.0469 Q809.4469,597.0469 810.1031,596.7969 Q810.4938,596.6406 810.9156,596.2031 Q811.1813,595.9375 811.3219,595.8594 Q811.4781,595.7813 811.6813,595.7813 Q812.0094,595.7813 812.2594,596.0469 Q812.525,596.2969 812.525,596.6406 Q812.525,596.9844 812.1813,597.3906 Q811.6813,597.9688 810.8844,598.2969 Q809.8063,598.75 808.5094,598.75 Q806.9938,598.75 805.7906,598.125 Q804.8063,597.625 804.1188,596.5625 Q803.4313,595.4844 803.4313,594.2031 L803.4313,593.0469 Q803.4313,591.7188 804.0406,590.5781 Q804.6656,589.4219 805.7594,588.8125 Q806.8531,588.1875 808.0875,588.1875 Q808.8219,588.1875 809.4625,588.3594 Q810.1188,588.5156 810.6656,588.875 Z " fill="#000000"/><text fill="#000000" font-family="sans-serif" font-size="14" lengthAdjust="spacing" textLength="122" x="826.1" y="598.7285">ObstacleAvoidance</text><line style="stroke:#181818;stroke-width:0.5;" x1="775" x2="969" y1="609" y2="609"/><text fill="#000000" font-family="sans-serif" font-size="14" lengthAdjust="spacing" textLength="184" x="780" y="627.5332">-avoidanceStrategy: Strategy</text><line style="stroke:#181818;stroke-width:0.5;" x1="775" x2="969" y1="634.6094" y2="634.6094"/><text fill="#000000" font-family="sans-serif" font-size="14" lengthAdjust="spacing" textLength="103" x="780" y="653.1426">+calculatePath()</text><text fill="#000000" font-family="sans-serif" font-size="14" lengthAdjust="spacing" textLength="97" x="780" y="670.752">+executeTurn()</text><text fill="#000000" font-family="sans-serif" font-size="14" lengthAdjust="spacing" textLength="124" x="780" y="688.3613">+resumeFollowing()</text></g><!--class LineFollowing--><g id="elem_LineFollowing"><rect codeLine="87" fill="#F1F1F1" height="136.0469" id="LineFollowing" rx="2.5" ry="2.5" style="stroke:#181818;stroke-width:0.5;" width="197" x="1005.5" y="568"/><ellipse cx="1056.75" cy="584" fill="#ADD1B2" rx="11" ry="11" style="stroke:#181818;stroke-width:1.0;"/><path d="M1059.5156,579.875 Q1059.6719,579.6563 1059.8594,579.5469 Q1060.0469,579.4375 1060.2656,579.4375 Q1060.6406,579.4375 1060.875,579.7031 Q1061.1094,579.9531 1061.1094,580.5625 L1061.1094,582.0156 Q1061.1094,582.625 1060.875,582.8906 Q1060.6406,583.1563 1060.2656,583.1563 Q1059.9219,583.1563 1059.7188,582.9531 Q1059.5156,582.7656 1059.4063,582.25 Q1059.3594,581.8906 1059.1719,581.7031 Q1058.8438,581.3281 1058.2344,581.1094 Q1057.625,580.8906 1057,580.8906 Q1056.2344,580.8906 1055.5938,581.2188 Q1054.9688,581.5469 1054.4688,582.2969 Q1053.9844,583.0469 1053.9844,584.0781 L1053.9844,585.1719 Q1053.9844,586.4063 1054.875,587.2344 Q1055.7656,588.0469 1057.3594,588.0469 Q1058.2969,588.0469 1058.9531,587.7969 Q1059.3438,587.6406 1059.7656,587.2031 Q1060.0313,586.9375 1060.1719,586.8594 Q1060.3281,586.7813 1060.5313,586.7813 Q1060.8594,586.7813 1061.1094,587.0469 Q1061.375,587.2969 1061.375,587.6406 Q1061.375,587.9844 1061.0313,588.3906 Q1060.5313,588.9688 1059.7344,589.2969 Q1058.6563,589.75 1057.3594,589.75 Q1055.8438,589.75 1054.6406,589.125 Q1053.6563,588.625 1052.9688,587.5625 Q1052.2813,586.4844 1052.2813,585.2031 L1052.2813,584.0469 Q1052.2813,582.7188 1052.8906,581.5781 Q1053.5156,580.4219 1054.6094,579.8125 Q1055.7031,579.1875 1056.9375,579.1875 Q1057.6719,579.1875 1058.3125,579.3594 Q1058.9688,579.5156 1059.5156,579.875 Z " fill="#000000"/><text fill="#000000" font-family="sans-serif" font-size="14" lengthAdjust="spacing" textLength="86" x="1077.25" y="589.7285">LineFollowing</text><line style="stroke:#181818;stroke-width:0.5;" x1="1006.5" x2="1201.5" y1="600" y2="600"/><text fill="#000000" font-family="sans-serif" font-size="14" lengthAdjust="spacing" textLength="185" x="1011.5" y="618.5332">-followingAlgorithm: Algorithm</text><text fill="#000000" font-family="sans-serif" font-size="14" lengthAdjust="spacing" textLength="171" x="1011.5" y="636.1426">-PIDParameters: PIDConfig</text><line style="stroke:#181818;stroke-width:0.5;" x1="1006.5" x2="1201.5" y1="643.2188" y2="643.2188"/><text fill="#000000" font-family="sans-serif" font-size="14" lengthAdjust="spacing" textLength="140" x="1011.5" y="661.752">+calculateCorrection()</text><text fill="#000000" font-family="sans-serif" font-size="14" lengthAdjust="spacing" textLength="99" x="1011.5" y="679.3613">+adjustMotors()</text><text fill="#000000" font-family="sans-serif" font-size="14" lengthAdjust="spacing" textLength="110" x="1011.5" y="696.9707">+searchForLine()</text></g><!--reverse link LineFollowerRobot to SensorSystem--><g id="link_LineFollowerRobot_SensorSystem"><path codeLine="96" d="M677.9927,211.7638 C606.9227,236.2138 512.39,272.17 426,319 C419.95,322.28 413.84,325.81 407.76,329.49 " fill="none" id="LineFollowerRobot-backto-SensorSystem" style="stroke:#181818;stroke-width:1.0;"/><polygon fill="#181818" points="689.34,207.86,682.3651,206.0295,677.9927,211.7638,684.9676,213.5943,689.34,207.86" style="stroke:#181818;stroke-width:1.0;"/></g><!--reverse link LineFollowerRobot to MotorSystem--><g id="link_LineFollowerRobot_MotorSystem"><path codeLine="97" d="M710.2731,268.1469 C696.9731,287.6669 689.33,298.86 675.75,318.78 " fill="none" id="LineFollowerRobot-backto-MotorSystem" style="stroke:#181818;stroke-width:1.0;"/><polygon fill="#181818" points="717.03,258.23,710.3459,260.9361,710.2731,268.1469,716.9572,265.4407,717.03,258.23" style="stroke:#181818;stroke-width:1.0;"/></g><!--reverse link LineFollowerRobot to Controller--><g id="link_LineFollowerRobot_Controller"><path codeLine="98" d="M827.7295,268.1451 C847.1795,296.6751 862.18,318.69 880.35,345.33 " fill="none" id="LineFollowerRobot-backto-Controller" style="stroke:#181818;stroke-width:1.0;"/><polygon fill="#181818" points="820.97,258.23,821.0447,265.4407,827.7295,268.1451,827.6548,260.9344,820.97,258.23" style="stroke:#181818;stroke-width:1.0;"/></g><!--reverse link LineFollowerRobot to PowerSystem--><g id="link_LineFollowerRobot_PowerSystem"><path codeLine="99" d="M859.512,222.713 C912.742,247.963 972.45,279.19 1030,319 C1037.72,324.34 1045.49,330.23 1053.08,336.35 " fill="none" id="LineFollowerRobot-backto-PowerSystem" style="stroke:#181818;stroke-width:1.0;"/><polygon fill="#181818" points="848.67,217.57,852.3767,223.7555,859.512,222.713,855.8053,216.5275,848.67,217.57" style="stroke:#181818;stroke-width:1.0;"/></g><!--reverse link SensorSystem to IRSensor--><g id="link_SensorSystem_IRSensor"><path codeLine="101" d="M234.0531,499.8518 C214.5831,525.3818 200.77,543.51 182.29,567.74 " fill="none" id="SensorSystem-backto-IRSensor" style="stroke:#181818;stroke-width:1.0;"/><polygon fill="#181818" points="241.33,490.31,234.5109,492.6553,234.0531,499.8518,240.8722,497.5066,241.33,490.31" style="stroke:#181818;stroke-width:1.0;"/><text fill="#000000" font-family="sans-serif" font-size="13" lengthAdjust="spacing" textLength="7" x="219" y="534.4951">2</text></g><!--reverse link SensorSystem to UltrasonicSensor--><g id="link_SensorSystem_UltrasonicSensor"><path codeLine="102" d="M327.4523,502.0244 C333.8323,530.7444 338.21,550.46 344.03,576.66 " fill="none" id="SensorSystem-backto-UltrasonicSensor" style="stroke:#181818;stroke-width:1.0;"/><polygon fill="#181818" points="324.85,490.31,322.2463,497.0347,327.4523,502.0244,330.056,495.2998,324.85,490.31" style="stroke:#181818;stroke-width:1.0;"/></g><!--reverse link SensorSystem to ColorSensor--><g id="link_SensorSystem_ColorSensor"><path codeLine="103" d="M417.2975,487.1055 C460.1375,518.5155 499.59,547.44 539.69,576.85 " fill="none" id="SensorSystem-backto-ColorSensor" style="stroke:#181818;stroke-width:1.0;"/><polygon fill="#181818" points="407.62,480.01,410.0936,486.7836,417.2975,487.1055,414.8239,480.3319,407.62,480.01" style="stroke:#181818;stroke-width:1.0;"/></g><!--reverse link Controller to ObstacleAvoidance--><g id="link_Controller_ObstacleAvoidance"><path codeLine="105" d="M905.3731,475.4558 C898.1231,510.1158 891.41,542.2 884.16,576.85 " fill="none" id="Controller-backto-ObstacleAvoidance" style="stroke:#181818;stroke-width:1.0;"/><polygon fill="#181818" points="907.83,463.71,902.6863,468.7639,905.3731,475.4558,910.5168,470.4019,907.83,463.71" style="stroke:#181818;stroke-width:1.0;"/></g><!--reverse link Controller to LineFollowing--><g id="link_Controller_LineFollowing"><path codeLine="106" d="M974.175,473.0735 C999.615,504.8135 1023.73,534.88 1050.21,567.91 " fill="none" id="Controller-backto-LineFollowing" style="stroke:#181818;stroke-width:1.0;"/><polygon fill="#181818" points="966.67,463.71,967.3013,470.8934,974.175,473.0735,973.5437,465.8901,966.67,463.71" style="stroke:#181818;stroke-width:1.0;"/></g><!--SRC=[bLPDRzim3BtdLmYzDDqQODWnA0ha0m42D6YGTAUX1qMcRIsoP4XoigpeVnybsxAZ9C1s262H5Fb8Fb8fATlJ3CWTPPRyd0h5zk_aXKjOA27K4VH6xHHgcA36p3dDD2tUoUv49kB0xyZ7mEovB2bAYJUPMAlvhhAmP4fk-HyWttec6fYbCXE05mcPOknCgqecCoMKVdfAqGQUdyanvnQSWT89w4Wv5NXjyDdpQdAQg2EN6KcfC30Ot9FHQ4Is9xDw8GjtpPq7NV0wsPd3Iq9EbqcFkZoxy1y316PLYJ-2HbOL9E7EDLVIgNmLhZXp2HDqMJhH65DJ0gXiXEPaB1GJT7A0SzrNmYMtd0eivV2X4J4yxZIri0Lfb3P1KMh5m9YbB2lRau9EbVRkbQp5dntKsiVM8mWeZHTkW2POLZDkZERKqiQWXO0UjvRQoiImDTwDuGNSGPA0nTAvQWqVOW-rxdLdB6NYfjwpmodznzkfXFFqLifUP2SWjTiI81cJfRIGWMuKccVvTKtXtM2cs9zL-6wGqEHNPUfxmqlVZzVSjWKmIALG3LjfEGniUYIUhQsoK0Uab3vIdGoDynNrSQQarKWvq25FLcaDqZQmwoBqSVVfCZIXnVtcw09xCuMS7hWhynadBTIKYXcrtDIDxt7US6VOycZTd1lrWOeAueBRN8F9bOWwWR7DgxnE64Uv6CiFOJKrId8MOKeuyaeoZBiGYjhBg9tOnsneEFUampx_KtJFoJXmuy7hpcdhU-RFBGmSgnKj0mha4ECfP_xI_q5PkxqJpS6EMkpmwGKE8CxhuBVKzS7sgbVPRHT_JjDkodDW-sdFTGobhUNae7ZYUX00qLQojMvDP2TaJFFLhH1M2PIigSr3IFWD3D-SDpS_3w48fYgQ9OnBB0RHRMZtSBG0qbOo4PdItER5c8JFncQzdA_Tk-Ec0wk3Hnozb6SnmfdIpIG7JFMYyFkZsue6g6OvZdRDwXRcFTc0y0lMvBmqABbyLBwuPwwtlsyQzRRWJPjkWTmqwP78GJnxEfm-JFwOVB-cZwVncarlPboCtbfpsWlkN9gSTHR_A7p-1G00]--></g></svg>
