<?xml version="1.0" encoding="us-ascii" standalone="no"?><svg xmlns="http://www.w3.org/2000/svg" xmlns:xlink="http://www.w3.org/1999/xlink" contentStyleType="text/css" height="1358px" preserveAspectRatio="none" style="width:881px;height:1358px;background:#FFFFFF;" version="1.1" viewBox="0 0 881 1358" width="881px" zoomAndPan="magnify"><defs/><g><text fill="#000000" font-family="sans-serif" font-size="14" font-weight="bold" lengthAdjust="spacing" textLength="383" x="242" y="24.5332">IBD [Internal Block Diagram] LineFollowerRobot by Alvi</text><!--cluster act [IBD] LineFollowerRobot [Behavior] by Alvi--><g id="cluster_act [IBD] LineFollowerRobot [Behavior] by Alvi"><path d="M8.5,44.6094 L333.5,44.6094 A3.75,3.75 0 0 1 336,47.1094 L343,68.2188 L871.5,68.2188 A2.5,2.5 0 0 1 874,70.7188 L874,1349.1094 A2.5,2.5 0 0 1 871.5,1351.6094 L8.5,1351.6094 A2.5,2.5 0 0 1 6,1349.1094 L6,47.1094 A2.5,2.5 0 0 1 8.5,44.6094 " fill="none" style="stroke:#000000;stroke-width:1.5;"/><line style="stroke:#000000;stroke-width:1.5;" x1="6" x2="343" y1="68.2188" y2="68.2188"/><text fill="#000000" font-family="sans-serif" font-size="14" font-weight="bold" lengthAdjust="spacing" textLength="324" x="10" y="61.1426">act [IBD] LineFollowerRobot [Behavior] by Alvi</text></g><!--class LineFollowerRobot--><g id="elem_LineFollowerRobot"><rect codeLine="6" fill="#F1F1F1" height="252.4063" id="LineFollowerRobot" rx="2.5" ry="2.5" style="stroke:#181818;stroke-width:0.5;" width="159" x="246.5" y="80.6094"/><ellipse cx="265.55" cy="101.9609" fill="#ADD1B2" rx="11" ry="11" style="stroke:#181818;stroke-width:1.0;"/><path d="M268.3156,97.8359 Q268.4719,97.6172 268.6594,97.5078 Q268.8469,97.3984 269.0656,97.3984 Q269.4406,97.3984 269.675,97.6641 Q269.9094,97.9141 269.9094,98.5234 L269.9094,99.9766 Q269.9094,100.5859 269.675,100.8516 Q269.4406,101.1172 269.0656,101.1172 Q268.7219,101.1172 268.5188,100.9141 Q268.3156,100.7266 268.2063,100.2109 Q268.1594,99.8516 267.9719,99.6641 Q267.6438,99.2891 267.0344,99.0703 Q266.425,98.8516 265.8,98.8516 Q265.0344,98.8516 264.3938,99.1797 Q263.7688,99.5078 263.2688,100.2578 Q262.7844,101.0078 262.7844,102.0391 L262.7844,103.1328 Q262.7844,104.3672 263.675,105.1953 Q264.5656,106.0078 266.1594,106.0078 Q267.0969,106.0078 267.7531,105.7578 Q268.1438,105.6016 268.5656,105.1641 Q268.8313,104.8984 268.9719,104.8203 Q269.1281,104.7422 269.3313,104.7422 Q269.6594,104.7422 269.9094,105.0078 Q270.175,105.2578 270.175,105.6016 Q270.175,105.9453 269.8313,106.3516 Q269.3313,106.9297 268.5344,107.2578 Q267.4563,107.7109 266.1594,107.7109 Q264.6438,107.7109 263.4406,107.0859 Q262.4563,106.5859 261.7688,105.5234 Q261.0813,104.4453 261.0813,103.1641 L261.0813,102.0078 Q261.0813,100.6797 261.6906,99.5391 Q262.3156,98.3828 263.4094,97.7734 Q264.5031,97.1484 265.7375,97.1484 Q266.4719,97.1484 267.1125,97.3203 Q267.7688,97.4766 268.3156,97.8359 Z " fill="#000000"/><text fill="#000000" font-family="sans-serif" font-size="12" font-style="italic" lengthAdjust="spacing" textLength="45" x="316.95" y="98.0664">&#171;block&#187;</text><text fill="#000000" font-family="sans-serif" font-size="14" lengthAdjust="spacing" textLength="118" x="280.45" y="115.2363">LineFollowerRobot</text><line style="stroke:#181818;stroke-width:0.5;" x1="247.5" x2="404.5" y1="123.3125" y2="123.3125"/><text fill="#000000" font-family="sans-serif" font-size="14" lengthAdjust="spacing" textLength="98" x="252.5" y="141.8457">power: Boolean</text><text fill="#000000" font-family="sans-serif" font-size="14" lengthAdjust="spacing" textLength="142" x="252.5" y="159.4551">systemActive: Boolean</text><text fill="#000000" font-family="sans-serif" font-size="14" lengthAdjust="spacing" textLength="117" x="252.5" y="177.0645">currentZone: Zone</text><text fill="#000000" font-family="sans-serif" font-size="14" lengthAdjust="spacing" textLength="125" x="252.5" y="194.6738">algorithm: Algorithm</text><text fill="#000000" font-family="sans-serif" font-size="14" lengthAdjust="spacing" textLength="147" x="252.5" y="212.2832">strategyMode: Strategy</text><line style="stroke:#181818;stroke-width:0.5;" x1="247.5" x2="404.5" y1="219.3594" y2="219.3594"/><text fill="#000000" font-family="sans-serif" font-size="14" lengthAdjust="spacing" textLength="59" x="252.5" y="237.8926">initialize()</text><text fill="#000000" font-family="sans-serif" font-size="14" lengthAdjust="spacing" textLength="116" x="252.5" y="255.502">calibrateSensors()</text><text fill="#000000" font-family="sans-serif" font-size="14" lengthAdjust="spacing" textLength="98" x="252.5" y="273.1113">processInputs()</text><text fill="#000000" font-family="sans-serif" font-size="14" lengthAdjust="spacing" textLength="105" x="252.5" y="290.7207">performActions()</text><text fill="#000000" font-family="sans-serif" font-size="14" lengthAdjust="spacing" textLength="87" x="252.5" y="308.3301">updateState()</text><text fill="#000000" font-family="sans-serif" font-size="14" lengthAdjust="spacing" textLength="85" x="252.5" y="325.9395">handleError()</text></g><!--class PowerSystem--><g id="elem_PowerSystem"><rect codeLine="22" fill="#F1F1F1" height="146.75" id="PowerSystem" rx="2.5" ry="2.5" style="stroke:#181818;stroke-width:0.5;" width="156" x="338" y="393.6094"/><ellipse cx="370.55" cy="414.9609" fill="#ADD1B2" rx="11" ry="11" style="stroke:#181818;stroke-width:1.0;"/><path d="M373.3156,410.8359 Q373.4719,410.6172 373.6594,410.5078 Q373.8469,410.3984 374.0656,410.3984 Q374.4406,410.3984 374.675,410.6641 Q374.9094,410.9141 374.9094,411.5234 L374.9094,412.9766 Q374.9094,413.5859 374.675,413.8516 Q374.4406,414.1172 374.0656,414.1172 Q373.7219,414.1172 373.5188,413.9141 Q373.3156,413.7266 373.2063,413.2109 Q373.1594,412.8516 372.9719,412.6641 Q372.6438,412.2891 372.0344,412.0703 Q371.425,411.8516 370.8,411.8516 Q370.0344,411.8516 369.3938,412.1797 Q368.7688,412.5078 368.2688,413.2578 Q367.7844,414.0078 367.7844,415.0391 L367.7844,416.1328 Q367.7844,417.3672 368.675,418.1953 Q369.5656,419.0078 371.1594,419.0078 Q372.0969,419.0078 372.7531,418.7578 Q373.1438,418.6016 373.5656,418.1641 Q373.8313,417.8984 373.9719,417.8203 Q374.1281,417.7422 374.3313,417.7422 Q374.6594,417.7422 374.9094,418.0078 Q375.175,418.2578 375.175,418.6016 Q375.175,418.9453 374.8313,419.3516 Q374.3313,419.9297 373.5344,420.2578 Q372.4563,420.7109 371.1594,420.7109 Q369.6438,420.7109 368.4406,420.0859 Q367.4563,419.5859 366.7688,418.5234 Q366.0813,417.4453 366.0813,416.1641 L366.0813,415.0078 Q366.0813,413.6797 366.6906,412.5391 Q367.3156,411.3828 368.4094,410.7734 Q369.5031,410.1484 370.7375,410.1484 Q371.4719,410.1484 372.1125,410.3203 Q372.7688,410.4766 373.3156,410.8359 Z " fill="#000000"/><text fill="#000000" font-family="sans-serif" font-size="12" font-style="italic" lengthAdjust="spacing" textLength="35" x="413.45" y="411.0664">&#171;part&#187;</text><text fill="#000000" font-family="sans-serif" font-size="14" lengthAdjust="spacing" textLength="85" x="388.45" y="428.2363">PowerSystem</text><line style="stroke:#181818;stroke-width:0.5;" x1="339" x2="493" y1="436.3125" y2="436.3125"/><text fill="#000000" font-family="sans-serif" font-size="14" lengthAdjust="spacing" textLength="118" x="344" y="454.8457">batteryLevel: Float</text><text fill="#000000" font-family="sans-serif" font-size="14" lengthAdjust="spacing" textLength="86" x="344" y="472.4551">voltage: Float</text><text fill="#000000" font-family="sans-serif" font-size="14" lengthAdjust="spacing" textLength="117" x="344" y="490.0645">currentDraw: Float</text><text fill="#000000" font-family="sans-serif" font-size="14" lengthAdjust="spacing" textLength="138" x="344" y="507.6738">powerStatus: Boolean</text><text fill="#000000" font-family="sans-serif" font-size="14" lengthAdjust="spacing" textLength="144" x="344" y="525.2832">faultDetected: Boolean</text><line style="stroke:#181818;stroke-width:0.5;" x1="339" x2="493" y1="532.3594" y2="532.3594"/></g><!--class SensorSystem--><g id="elem_SensorSystem"><rect codeLine="30" fill="#F1F1F1" height="129.1406" id="SensorSystem" rx="2.5" ry="2.5" style="stroke:#181818;stroke-width:0.5;" width="175" x="340.5" y="601.6094"/><ellipse cx="378.9" cy="622.9609" fill="#ADD1B2" rx="11" ry="11" style="stroke:#181818;stroke-width:1.0;"/><path d="M381.6656,618.8359 Q381.8219,618.6172 382.0094,618.5078 Q382.1969,618.3984 382.4156,618.3984 Q382.7906,618.3984 383.025,618.6641 Q383.2594,618.9141 383.2594,619.5234 L383.2594,620.9766 Q383.2594,621.5859 383.025,621.8516 Q382.7906,622.1172 382.4156,622.1172 Q382.0719,622.1172 381.8688,621.9141 Q381.6656,621.7266 381.5563,621.2109 Q381.5094,620.8516 381.3219,620.6641 Q380.9938,620.2891 380.3844,620.0703 Q379.775,619.8516 379.15,619.8516 Q378.3844,619.8516 377.7438,620.1797 Q377.1188,620.5078 376.6188,621.2578 Q376.1344,622.0078 376.1344,623.0391 L376.1344,624.1328 Q376.1344,625.3672 377.025,626.1953 Q377.9156,627.0078 379.5094,627.0078 Q380.4469,627.0078 381.1031,626.7578 Q381.4938,626.6016 381.9156,626.1641 Q382.1813,625.8984 382.3219,625.8203 Q382.4781,625.7422 382.6813,625.7422 Q383.0094,625.7422 383.2594,626.0078 Q383.525,626.2578 383.525,626.6016 Q383.525,626.9453 383.1813,627.3516 Q382.6813,627.9297 381.8844,628.2578 Q380.8063,628.7109 379.5094,628.7109 Q377.9938,628.7109 376.7906,628.0859 Q375.8063,627.5859 375.1188,626.5234 Q374.4313,625.4453 374.4313,624.1641 L374.4313,623.0078 Q374.4313,621.6797 375.0406,620.5391 Q375.6656,619.3828 376.7594,618.7734 Q377.8531,618.1484 379.0875,618.1484 Q379.8219,618.1484 380.4625,618.3203 Q381.1188,618.4766 381.6656,618.8359 Z " fill="#000000"/><text fill="#000000" font-family="sans-serif" font-size="12" font-style="italic" lengthAdjust="spacing" textLength="35" x="426.1" y="619.0664">&#171;part&#187;</text><text fill="#000000" font-family="sans-serif" font-size="14" lengthAdjust="spacing" textLength="91" x="398.1" y="636.2363">SensorSystem</text><line style="stroke:#181818;stroke-width:0.5;" x1="341.5" x2="514.5" y1="644.3125" y2="644.3125"/><text fill="#000000" font-family="sans-serif" font-size="14" lengthAdjust="spacing" textLength="134" x="346.5" y="662.8457">irValues: SensorData</text><text fill="#000000" font-family="sans-serif" font-size="14" lengthAdjust="spacing" textLength="137" x="346.5" y="680.4551">ultrasonicValue: Float</text><text fill="#000000" font-family="sans-serif" font-size="14" lengthAdjust="spacing" textLength="163" x="346.5" y="698.0645">detectedColor: ColorType</text><text fill="#000000" font-family="sans-serif" font-size="14" lengthAdjust="spacing" textLength="143" x="346.5" y="715.6738">sensorStatus: Boolean</text><line style="stroke:#181818;stroke-width:0.5;" x1="341.5" x2="514.5" y1="722.75" y2="722.75"/></g><!--class Controller--><g id="elem_Controller"><rect codeLine="37" fill="#F1F1F1" height="129.1406" id="Controller" rx="2.5" ry="2.5" style="stroke:#181818;stroke-width:0.5;" width="177" x="22.5" y="808.6094"/><ellipse cx="75.75" cy="829.9609" fill="#ADD1B2" rx="11" ry="11" style="stroke:#181818;stroke-width:1.0;"/><path d="M78.5156,825.8359 Q78.6719,825.6172 78.8594,825.5078 Q79.0469,825.3984 79.2656,825.3984 Q79.6406,825.3984 79.875,825.6641 Q80.1094,825.9141 80.1094,826.5234 L80.1094,827.9766 Q80.1094,828.5859 79.875,828.8516 Q79.6406,829.1172 79.2656,829.1172 Q78.9219,829.1172 78.7188,828.9141 Q78.5156,828.7266 78.4063,828.2109 Q78.3594,827.8516 78.1719,827.6641 Q77.8438,827.2891 77.2344,827.0703 Q76.625,826.8516 76,826.8516 Q75.2344,826.8516 74.5938,827.1797 Q73.9688,827.5078 73.4688,828.2578 Q72.9844,829.0078 72.9844,830.0391 L72.9844,831.1328 Q72.9844,832.3672 73.875,833.1953 Q74.7656,834.0078 76.3594,834.0078 Q77.2969,834.0078 77.9531,833.7578 Q78.3438,833.6016 78.7656,833.1641 Q79.0313,832.8984 79.1719,832.8203 Q79.3281,832.7422 79.5313,832.7422 Q79.8594,832.7422 80.1094,833.0078 Q80.375,833.2578 80.375,833.6016 Q80.375,833.9453 80.0313,834.3516 Q79.5313,834.9297 78.7344,835.2578 Q77.6563,835.7109 76.3594,835.7109 Q74.8438,835.7109 73.6406,835.0859 Q72.6563,834.5859 71.9688,833.5234 Q71.2813,832.4453 71.2813,831.1641 L71.2813,830.0078 Q71.2813,828.6797 71.8906,827.5391 Q72.5156,826.3828 73.6094,825.7734 Q74.7031,825.1484 75.9375,825.1484 Q76.6719,825.1484 77.3125,825.3203 Q77.9688,825.4766 78.5156,825.8359 Z " fill="#000000"/><text fill="#000000" font-family="sans-serif" font-size="12" font-style="italic" lengthAdjust="spacing" textLength="35" x="109.75" y="826.0664">&#171;part&#187;</text><text fill="#000000" font-family="sans-serif" font-size="14" lengthAdjust="spacing" textLength="62" x="96.25" y="843.2363">Controller</text><line style="stroke:#181818;stroke-width:0.5;" x1="23.5" x2="198.5" y1="851.3125" y2="851.3125"/><text fill="#000000" font-family="sans-serif" font-size="14" lengthAdjust="spacing" textLength="165" x="28.5" y="869.8457">currentState: SystemState</text><text fill="#000000" font-family="sans-serif" font-size="14" lengthAdjust="spacing" textLength="131" x="28.5" y="887.4551">lastCommand: String</text><text fill="#000000" font-family="sans-serif" font-size="14" lengthAdjust="spacing" textLength="117" x="28.5" y="905.0645">errorCode: Integer</text><text fill="#000000" font-family="sans-serif" font-size="14" lengthAdjust="spacing" textLength="164" x="28.5" y="922.6738">updateFrequency: Integer</text><line style="stroke:#181818;stroke-width:0.5;" x1="23.5" x2="198.5" y1="929.75" y2="929.75"/></g><!--class MotorSystem--><g id="elem_MotorSystem"><rect codeLine="44" fill="#F1F1F1" height="146.75" id="MotorSystem" rx="2.5" ry="2.5" style="stroke:#181818;stroke-width:0.5;" width="158" x="450" y="1188.6094"/><ellipse cx="484.8" cy="1209.9609" fill="#ADD1B2" rx="11" ry="11" style="stroke:#181818;stroke-width:1.0;"/><path d="M487.5656,1205.8359 Q487.7219,1205.6172 487.9094,1205.5078 Q488.0969,1205.3984 488.3156,1205.3984 Q488.6906,1205.3984 488.925,1205.6641 Q489.1594,1205.9141 489.1594,1206.5234 L489.1594,1207.9766 Q489.1594,1208.5859 488.925,1208.8516 Q488.6906,1209.1172 488.3156,1209.1172 Q487.9719,1209.1172 487.7688,1208.9141 Q487.5656,1208.7266 487.4563,1208.2109 Q487.4094,1207.8516 487.2219,1207.6641 Q486.8938,1207.2891 486.2844,1207.0703 Q485.675,1206.8516 485.05,1206.8516 Q484.2844,1206.8516 483.6438,1207.1797 Q483.0188,1207.5078 482.5188,1208.2578 Q482.0344,1209.0078 482.0344,1210.0391 L482.0344,1211.1328 Q482.0344,1212.3672 482.925,1213.1953 Q483.8156,1214.0078 485.4094,1214.0078 Q486.3469,1214.0078 487.0031,1213.7578 Q487.3938,1213.6016 487.8156,1213.1641 Q488.0813,1212.8984 488.2219,1212.8203 Q488.3781,1212.7422 488.5813,1212.7422 Q488.9094,1212.7422 489.1594,1213.0078 Q489.425,1213.2578 489.425,1213.6016 Q489.425,1213.9453 489.0813,1214.3516 Q488.5813,1214.9297 487.7844,1215.2578 Q486.7063,1215.7109 485.4094,1215.7109 Q483.8938,1215.7109 482.6906,1215.0859 Q481.7063,1214.5859 481.0188,1213.5234 Q480.3313,1212.4453 480.3313,1211.1641 L480.3313,1210.0078 Q480.3313,1208.6797 480.9406,1207.5391 Q481.5656,1206.3828 482.6594,1205.7734 Q483.7531,1205.1484 484.9875,1205.1484 Q485.7219,1205.1484 486.3625,1205.3203 Q487.0188,1205.4766 487.5656,1205.8359 Z " fill="#000000"/><text fill="#000000" font-family="sans-serif" font-size="12" font-style="italic" lengthAdjust="spacing" textLength="35" x="526.7" y="1206.0664">&#171;part&#187;</text><text fill="#000000" font-family="sans-serif" font-size="14" lengthAdjust="spacing" textLength="82" x="503.2" y="1223.2363">MotorSystem</text><line style="stroke:#181818;stroke-width:0.5;" x1="451" x2="607" y1="1231.3125" y2="1231.3125"/><text fill="#000000" font-family="sans-serif" font-size="14" lengthAdjust="spacing" textLength="112" x="456" y="1249.8457">leftSpeed: Integer</text><text fill="#000000" font-family="sans-serif" font-size="14" lengthAdjust="spacing" textLength="121" x="456" y="1267.4551">rightSpeed: Integer</text><text fill="#000000" font-family="sans-serif" font-size="14" lengthAdjust="spacing" textLength="146" x="456" y="1285.0645">motorState: MotorState</text><text fill="#000000" font-family="sans-serif" font-size="14" lengthAdjust="spacing" textLength="118" x="456" y="1302.6738">maxSpeed: Integer</text><text fill="#000000" font-family="sans-serif" font-size="14" lengthAdjust="spacing" textLength="142" x="456" y="1320.2832">stallDetected: Boolean</text><line style="stroke:#181818;stroke-width:0.5;" x1="451" x2="607" y1="1327.3594" y2="1327.3594"/></g><!--class IRSensor--><g id="elem_IRSensor"><rect codeLine="53" fill="#F1F1F1" height="129.1406" id="IRSensor" rx="2.5" ry="2.5" style="stroke:#181818;stroke-width:0.5;" width="164" x="235" y="808.6094"/><ellipse cx="283.75" cy="829.9609" fill="#ADD1B2" rx="11" ry="11" style="stroke:#181818;stroke-width:1.0;"/><path d="M286.5156,825.8359 Q286.6719,825.6172 286.8594,825.5078 Q287.0469,825.3984 287.2656,825.3984 Q287.6406,825.3984 287.875,825.6641 Q288.1094,825.9141 288.1094,826.5234 L288.1094,827.9766 Q288.1094,828.5859 287.875,828.8516 Q287.6406,829.1172 287.2656,829.1172 Q286.9219,829.1172 286.7188,828.9141 Q286.5156,828.7266 286.4063,828.2109 Q286.3594,827.8516 286.1719,827.6641 Q285.8438,827.2891 285.2344,827.0703 Q284.625,826.8516 284,826.8516 Q283.2344,826.8516 282.5938,827.1797 Q281.9688,827.5078 281.4688,828.2578 Q280.9844,829.0078 280.9844,830.0391 L280.9844,831.1328 Q280.9844,832.3672 281.875,833.1953 Q282.7656,834.0078 284.3594,834.0078 Q285.2969,834.0078 285.9531,833.7578 Q286.3438,833.6016 286.7656,833.1641 Q287.0313,832.8984 287.1719,832.8203 Q287.3281,832.7422 287.5313,832.7422 Q287.8594,832.7422 288.1094,833.0078 Q288.375,833.2578 288.375,833.6016 Q288.375,833.9453 288.0313,834.3516 Q287.5313,834.9297 286.7344,835.2578 Q285.6563,835.7109 284.3594,835.7109 Q282.8438,835.7109 281.6406,835.0859 Q280.6563,834.5859 279.9688,833.5234 Q279.2813,832.4453 279.2813,831.1641 L279.2813,830.0078 Q279.2813,828.6797 279.8906,827.5391 Q280.5156,826.3828 281.6094,825.7734 Q282.7031,825.1484 283.9375,825.1484 Q284.6719,825.1484 285.3125,825.3203 Q285.9688,825.4766 286.5156,825.8359 Z " fill="#000000"/><text fill="#000000" font-family="sans-serif" font-size="12" font-style="italic" lengthAdjust="spacing" textLength="35" x="315.75" y="826.0664">&#171;part&#187;</text><text fill="#000000" font-family="sans-serif" font-size="14" lengthAdjust="spacing" textLength="58" x="304.25" y="843.2363">IRSensor</text><line style="stroke:#181818;stroke-width:0.5;" x1="236" x2="398" y1="851.3125" y2="851.3125"/><text fill="#000000" font-family="sans-serif" font-size="14" lengthAdjust="spacing" textLength="86" x="241" y="869.8457">value: Integer</text><text fill="#000000" font-family="sans-serif" font-size="14" lengthAdjust="spacing" textLength="111" x="241" y="887.4551">threshold: Integer</text><text fill="#000000" font-family="sans-serif" font-size="14" lengthAdjust="spacing" textLength="152" x="241" y="905.0645">position: SensorPosition</text><text fill="#000000" font-family="sans-serif" font-size="14" lengthAdjust="spacing" textLength="122" x="241" y="922.6738">calibrated: Boolean</text><line style="stroke:#181818;stroke-width:0.5;" x1="236" x2="398" y1="929.75" y2="929.75"/></g><!--class UltrasonicSensor--><g id="elem_UltrasonicSensor"><rect codeLine="60" fill="#F1F1F1" height="129.1406" id="UltrasonicSensor" rx="2.5" ry="2.5" style="stroke:#181818;stroke-width:0.5;" width="139" x="434.5" y="808.6094"/><ellipse cx="449.5" cy="829.9609" fill="#ADD1B2" rx="11" ry="11" style="stroke:#181818;stroke-width:1.0;"/><path d="M452.2656,825.8359 Q452.4219,825.6172 452.6094,825.5078 Q452.7969,825.3984 453.0156,825.3984 Q453.3906,825.3984 453.625,825.6641 Q453.8594,825.9141 453.8594,826.5234 L453.8594,827.9766 Q453.8594,828.5859 453.625,828.8516 Q453.3906,829.1172 453.0156,829.1172 Q452.6719,829.1172 452.4688,828.9141 Q452.2656,828.7266 452.1563,828.2109 Q452.1094,827.8516 451.9219,827.6641 Q451.5938,827.2891 450.9844,827.0703 Q450.375,826.8516 449.75,826.8516 Q448.9844,826.8516 448.3438,827.1797 Q447.7188,827.5078 447.2188,828.2578 Q446.7344,829.0078 446.7344,830.0391 L446.7344,831.1328 Q446.7344,832.3672 447.625,833.1953 Q448.5156,834.0078 450.1094,834.0078 Q451.0469,834.0078 451.7031,833.7578 Q452.0938,833.6016 452.5156,833.1641 Q452.7813,832.8984 452.9219,832.8203 Q453.0781,832.7422 453.2813,832.7422 Q453.6094,832.7422 453.8594,833.0078 Q454.125,833.2578 454.125,833.6016 Q454.125,833.9453 453.7813,834.3516 Q453.2813,834.9297 452.4844,835.2578 Q451.4063,835.7109 450.1094,835.7109 Q448.5938,835.7109 447.3906,835.0859 Q446.4063,834.5859 445.7188,833.5234 Q445.0313,832.4453 445.0313,831.1641 L445.0313,830.0078 Q445.0313,828.6797 445.6406,827.5391 Q446.2656,826.3828 447.3594,825.7734 Q448.4531,825.1484 449.6875,825.1484 Q450.4219,825.1484 451.0625,825.3203 Q451.7188,825.4766 452.2656,825.8359 Z " fill="#000000"/><text fill="#000000" font-family="sans-serif" font-size="12" font-style="italic" lengthAdjust="spacing" textLength="35" x="499.5" y="826.0664">&#171;part&#187;</text><text fill="#000000" font-family="sans-serif" font-size="14" lengthAdjust="spacing" textLength="107" x="463.5" y="843.2363">UltrasonicSensor</text><line style="stroke:#181818;stroke-width:0.5;" x1="435.5" x2="572.5" y1="851.3125" y2="851.3125"/><text fill="#000000" font-family="sans-serif" font-size="14" lengthAdjust="spacing" textLength="93" x="440.5" y="869.8457">distance: Float</text><text fill="#000000" font-family="sans-serif" font-size="14" lengthAdjust="spacing" textLength="99" x="440.5" y="887.4551">threshold: Float</text><text fill="#000000" font-family="sans-serif" font-size="14" lengthAdjust="spacing" textLength="75" x="440.5" y="905.0645">angle: Float</text><text fill="#000000" font-family="sans-serif" font-size="14" lengthAdjust="spacing" textLength="97" x="440.5" y="922.6738">active: Boolean</text><line style="stroke:#181818;stroke-width:0.5;" x1="435.5" x2="572.5" y1="929.75" y2="929.75"/></g><!--class ColorSensor--><g id="elem_ColorSensor"><rect codeLine="67" fill="#F1F1F1" height="111.5313" id="ColorSensor" rx="2.5" ry="2.5" style="stroke:#181818;stroke-width:0.5;" width="175" x="608.5" y="817.1094"/><ellipse cx="652.3" cy="838.4609" fill="#ADD1B2" rx="11" ry="11" style="stroke:#181818;stroke-width:1.0;"/><path d="M655.0656,834.3359 Q655.2219,834.1172 655.4094,834.0078 Q655.5969,833.8984 655.8156,833.8984 Q656.1906,833.8984 656.425,834.1641 Q656.6594,834.4141 656.6594,835.0234 L656.6594,836.4766 Q656.6594,837.0859 656.425,837.3516 Q656.1906,837.6172 655.8156,837.6172 Q655.4719,837.6172 655.2688,837.4141 Q655.0656,837.2266 654.9563,836.7109 Q654.9094,836.3516 654.7219,836.1641 Q654.3938,835.7891 653.7844,835.5703 Q653.175,835.3516 652.55,835.3516 Q651.7844,835.3516 651.1438,835.6797 Q650.5188,836.0078 650.0188,836.7578 Q649.5344,837.5078 649.5344,838.5391 L649.5344,839.6328 Q649.5344,840.8672 650.425,841.6953 Q651.3156,842.5078 652.9094,842.5078 Q653.8469,842.5078 654.5031,842.2578 Q654.8938,842.1016 655.3156,841.6641 Q655.5813,841.3984 655.7219,841.3203 Q655.8781,841.2422 656.0813,841.2422 Q656.4094,841.2422 656.6594,841.5078 Q656.925,841.7578 656.925,842.1016 Q656.925,842.4453 656.5813,842.8516 Q656.0813,843.4297 655.2844,843.7578 Q654.2063,844.2109 652.9094,844.2109 Q651.3938,844.2109 650.1906,843.5859 Q649.2063,843.0859 648.5188,842.0234 Q647.8313,840.9453 647.8313,839.6641 L647.8313,838.5078 Q647.8313,837.1797 648.4406,836.0391 Q649.0656,834.8828 650.1594,834.2734 Q651.2531,833.6484 652.4875,833.6484 Q653.2219,833.6484 653.8625,833.8203 Q654.5188,833.9766 655.0656,834.3359 Z " fill="#000000"/><text fill="#000000" font-family="sans-serif" font-size="12" font-style="italic" lengthAdjust="spacing" textLength="35" x="694.7" y="834.5664">&#171;part&#187;</text><text fill="#000000" font-family="sans-serif" font-size="14" lengthAdjust="spacing" textLength="79" x="672.7" y="851.7363">ColorSensor</text><line style="stroke:#181818;stroke-width:0.5;" x1="609.5" x2="782.5" y1="859.8125" y2="859.8125"/><text fill="#000000" font-family="sans-serif" font-size="14" lengthAdjust="spacing" textLength="163" x="614.5" y="878.3457">detectedColor: ColorType</text><text fill="#000000" font-family="sans-serif" font-size="14" lengthAdjust="spacing" textLength="109" x="614.5" y="895.9551">rgbValues: String</text><text fill="#000000" font-family="sans-serif" font-size="14" lengthAdjust="spacing" textLength="122" x="614.5" y="913.5645">calibrated: Boolean</text><line style="stroke:#181818;stroke-width:0.5;" x1="609.5" x2="782.5" y1="920.6406" y2="920.6406"/></g><!--class LineFollowing--><g id="elem_LineFollowing"><rect codeLine="74" fill="#F1F1F1" height="129.1406" id="LineFollowing" rx="2.5" ry="2.5" style="stroke:#181818;stroke-width:0.5;" width="178" x="158" y="998.6094"/><ellipse cx="200" cy="1019.9609" fill="#ADD1B2" rx="11" ry="11" style="stroke:#181818;stroke-width:1.0;"/><path d="M202.7656,1015.8359 Q202.9219,1015.6172 203.1094,1015.5078 Q203.2969,1015.3984 203.5156,1015.3984 Q203.8906,1015.3984 204.125,1015.6641 Q204.3594,1015.9141 204.3594,1016.5234 L204.3594,1017.9766 Q204.3594,1018.5859 204.125,1018.8516 Q203.8906,1019.1172 203.5156,1019.1172 Q203.1719,1019.1172 202.9688,1018.9141 Q202.7656,1018.7266 202.6563,1018.2109 Q202.6094,1017.8516 202.4219,1017.6641 Q202.0938,1017.2891 201.4844,1017.0703 Q200.875,1016.8516 200.25,1016.8516 Q199.4844,1016.8516 198.8438,1017.1797 Q198.2188,1017.5078 197.7188,1018.2578 Q197.2344,1019.0078 197.2344,1020.0391 L197.2344,1021.1328 Q197.2344,1022.3672 198.125,1023.1953 Q199.0156,1024.0078 200.6094,1024.0078 Q201.5469,1024.0078 202.2031,1023.7578 Q202.5938,1023.6016 203.0156,1023.1641 Q203.2813,1022.8984 203.4219,1022.8203 Q203.5781,1022.7422 203.7813,1022.7422 Q204.1094,1022.7422 204.3594,1023.0078 Q204.625,1023.2578 204.625,1023.6016 Q204.625,1023.9453 204.2813,1024.3516 Q203.7813,1024.9297 202.9844,1025.2578 Q201.9063,1025.7109 200.6094,1025.7109 Q199.0938,1025.7109 197.8906,1025.0859 Q196.9063,1024.5859 196.2188,1023.5234 Q195.5313,1022.4453 195.5313,1021.1641 L195.5313,1020.0078 Q195.5313,1018.6797 196.1406,1017.5391 Q196.7656,1016.3828 197.8594,1015.7734 Q198.9531,1015.1484 200.1875,1015.1484 Q200.9219,1015.1484 201.5625,1015.3203 Q202.2188,1015.4766 202.7656,1015.8359 Z " fill="#000000"/><text fill="#000000" font-family="sans-serif" font-size="12" font-style="italic" lengthAdjust="spacing" textLength="35" x="245.5" y="1016.0664">&#171;part&#187;</text><text fill="#000000" font-family="sans-serif" font-size="14" lengthAdjust="spacing" textLength="86" x="220" y="1033.2363">LineFollowing</text><line style="stroke:#181818;stroke-width:0.5;" x1="159" x2="335" y1="1041.3125" y2="1041.3125"/><text fill="#000000" font-family="sans-serif" font-size="14" lengthAdjust="spacing" textLength="166" x="164" y="1059.8457">PIDParameters: PIDConfig</text><text fill="#000000" font-family="sans-serif" font-size="14" lengthAdjust="spacing" textLength="125" x="164" y="1077.4551">algorithm: Algorithm</text><text fill="#000000" font-family="sans-serif" font-size="14" lengthAdjust="spacing" textLength="114" x="164" y="1095.0645">errorMargin: Float</text><text fill="#000000" font-family="sans-serif" font-size="14" lengthAdjust="spacing" textLength="140" x="164" y="1112.6738">lastCorrection: Integer</text><line style="stroke:#181818;stroke-width:0.5;" x1="159" x2="335" y1="1119.75" y2="1119.75"/></g><!--class ObstacleAvoidance--><g id="elem_ObstacleAvoidance"><rect codeLine="81" fill="#F1F1F1" height="129.1406" id="ObstacleAvoidance" rx="2.5" ry="2.5" style="stroke:#181818;stroke-width:0.5;" width="199" x="371.5" y="998.6094"/><ellipse cx="406.75" cy="1019.9609" fill="#ADD1B2" rx="11" ry="11" style="stroke:#181818;stroke-width:1.0;"/><path d="M409.5156,1015.8359 Q409.6719,1015.6172 409.8594,1015.5078 Q410.0469,1015.3984 410.2656,1015.3984 Q410.6406,1015.3984 410.875,1015.6641 Q411.1094,1015.9141 411.1094,1016.5234 L411.1094,1017.9766 Q411.1094,1018.5859 410.875,1018.8516 Q410.6406,1019.1172 410.2656,1019.1172 Q409.9219,1019.1172 409.7188,1018.9141 Q409.5156,1018.7266 409.4063,1018.2109 Q409.3594,1017.8516 409.1719,1017.6641 Q408.8438,1017.2891 408.2344,1017.0703 Q407.625,1016.8516 407,1016.8516 Q406.2344,1016.8516 405.5938,1017.1797 Q404.9688,1017.5078 404.4688,1018.2578 Q403.9844,1019.0078 403.9844,1020.0391 L403.9844,1021.1328 Q403.9844,1022.3672 404.875,1023.1953 Q405.7656,1024.0078 407.3594,1024.0078 Q408.2969,1024.0078 408.9531,1023.7578 Q409.3438,1023.6016 409.7656,1023.1641 Q410.0313,1022.8984 410.1719,1022.8203 Q410.3281,1022.7422 410.5313,1022.7422 Q410.8594,1022.7422 411.1094,1023.0078 Q411.375,1023.2578 411.375,1023.6016 Q411.375,1023.9453 411.0313,1024.3516 Q410.5313,1024.9297 409.7344,1025.2578 Q408.6563,1025.7109 407.3594,1025.7109 Q405.8438,1025.7109 404.6406,1025.0859 Q403.6563,1024.5859 402.9688,1023.5234 Q402.2813,1022.4453 402.2813,1021.1641 L402.2813,1020.0078 Q402.2813,1018.6797 402.8906,1017.5391 Q403.5156,1016.3828 404.6094,1015.7734 Q405.7031,1015.1484 406.9375,1015.1484 Q407.6719,1015.1484 408.3125,1015.3203 Q408.9688,1015.4766 409.5156,1015.8359 Z " fill="#000000"/><text fill="#000000" font-family="sans-serif" font-size="12" font-style="italic" lengthAdjust="spacing" textLength="35" x="468.75" y="1016.0664">&#171;part&#187;</text><text fill="#000000" font-family="sans-serif" font-size="14" lengthAdjust="spacing" textLength="122" x="425.25" y="1033.2363">ObstacleAvoidance</text><line style="stroke:#181818;stroke-width:0.5;" x1="372.5" x2="569.5" y1="1041.3125" y2="1041.3125"/><text fill="#000000" font-family="sans-serif" font-size="14" lengthAdjust="spacing" textLength="112" x="377.5" y="1059.8457">strategy: Strategy</text><text fill="#000000" font-family="sans-serif" font-size="14" lengthAdjust="spacing" textLength="97" x="377.5" y="1077.4551">active: Boolean</text><text fill="#000000" font-family="sans-serif" font-size="14" lengthAdjust="spacing" textLength="187" x="377.5" y="1095.0645">avoidanceTriggered: Boolean</text><text fill="#000000" font-family="sans-serif" font-size="14" lengthAdjust="spacing" textLength="148" x="377.5" y="1112.6738">obstacleDistance: Float</text><line style="stroke:#181818;stroke-width:0.5;" x1="372.5" x2="569.5" y1="1119.75" y2="1119.75"/></g><!--class ZoneAction--><g id="elem_ZoneAction"><rect codeLine="88" fill="#F1F1F1" height="129.1406" id="ZoneAction" rx="2.5" ry="2.5" style="stroke:#181818;stroke-width:0.5;" width="178" x="606" y="998.6094"/><ellipse cx="655.25" cy="1019.9609" fill="#ADD1B2" rx="11" ry="11" style="stroke:#181818;stroke-width:1.0;"/><path d="M658.0156,1015.8359 Q658.1719,1015.6172 658.3594,1015.5078 Q658.5469,1015.3984 658.7656,1015.3984 Q659.1406,1015.3984 659.375,1015.6641 Q659.6094,1015.9141 659.6094,1016.5234 L659.6094,1017.9766 Q659.6094,1018.5859 659.375,1018.8516 Q659.1406,1019.1172 658.7656,1019.1172 Q658.4219,1019.1172 658.2188,1018.9141 Q658.0156,1018.7266 657.9063,1018.2109 Q657.8594,1017.8516 657.6719,1017.6641 Q657.3438,1017.2891 656.7344,1017.0703 Q656.125,1016.8516 655.5,1016.8516 Q654.7344,1016.8516 654.0938,1017.1797 Q653.4688,1017.5078 652.9688,1018.2578 Q652.4844,1019.0078 652.4844,1020.0391 L652.4844,1021.1328 Q652.4844,1022.3672 653.375,1023.1953 Q654.2656,1024.0078 655.8594,1024.0078 Q656.7969,1024.0078 657.4531,1023.7578 Q657.8438,1023.6016 658.2656,1023.1641 Q658.5313,1022.8984 658.6719,1022.8203 Q658.8281,1022.7422 659.0313,1022.7422 Q659.3594,1022.7422 659.6094,1023.0078 Q659.875,1023.2578 659.875,1023.6016 Q659.875,1023.9453 659.5313,1024.3516 Q659.0313,1024.9297 658.2344,1025.2578 Q657.1563,1025.7109 655.8594,1025.7109 Q654.3438,1025.7109 653.1406,1025.0859 Q652.1563,1024.5859 651.4688,1023.5234 Q650.7813,1022.4453 650.7813,1021.1641 L650.7813,1020.0078 Q650.7813,1018.6797 651.3906,1017.5391 Q652.0156,1016.3828 653.1094,1015.7734 Q654.2031,1015.1484 655.4375,1015.1484 Q656.1719,1015.1484 656.8125,1015.3203 Q657.4688,1015.4766 658.0156,1015.8359 Z " fill="#000000"/><text fill="#000000" font-family="sans-serif" font-size="12" font-style="italic" lengthAdjust="spacing" textLength="35" x="693.75" y="1016.0664">&#171;part&#187;</text><text fill="#000000" font-family="sans-serif" font-size="14" lengthAdjust="spacing" textLength="71" x="675.75" y="1033.2363">ZoneAction</text><line style="stroke:#181818;stroke-width:0.5;" x1="607" x2="783" y1="1041.3125" y2="1041.3125"/><text fill="#000000" font-family="sans-serif" font-size="14" lengthAdjust="spacing" textLength="117" x="612" y="1059.8457">currentZone: Zone</text><text fill="#000000" font-family="sans-serif" font-size="14" lengthAdjust="spacing" textLength="106" x="612" y="1077.4551">lastAction: String</text><text fill="#000000" font-family="sans-serif" font-size="14" lengthAdjust="spacing" textLength="166" x="612" y="1095.0645">actionCompleted: Boolean</text><text fill="#000000" font-family="sans-serif" font-size="14" lengthAdjust="spacing" textLength="102" x="612" y="1112.6738">zoneMap: String</text><line style="stroke:#181818;stroke-width:0.5;" x1="607" x2="783" y1="1119.75" y2="1119.75"/></g><!--reverse link LineFollowerRobot to PowerSystem--><g id="link_LineFollowerRobot_PowerSystem"><path codeLine="96" d="M373.4975,344.0315 C380.7675,364.9015 384.14,374.5994 390.75,393.5794 " fill="none" id="LineFollowerRobot-backto-PowerSystem" style="stroke:#181818;stroke-width:1.0;"/><polygon fill="#181818" points="369.55,332.6994,367.7464,339.6813,373.4975,344.0315,375.3011,337.0496,369.55,332.6994" style="stroke:#181818;stroke-width:1.0;"/></g><!--reverse link LineFollowerRobot to SensorSystem--><g id="link_LineFollowerRobot_SensorSystem"><path codeLine="97" d="M301.8242,344.5666 C295.2442,408.6466 296.63,474.8794 321,540.6094 C329.17,562.6594 343.19,583.4194 358.44,601.4494 " fill="none" id="LineFollowerRobot-backto-SensorSystem" style="stroke:#181818;stroke-width:1.0;"/><polygon fill="#181818" points="303.05,332.6294,298.458,338.1894,301.8242,344.5666,306.4162,339.0066,303.05,332.6294" style="stroke:#181818;stroke-width:1.0;"/></g><!--reverse link LineFollowerRobot to Controller--><g id="link_LineFollowerRobot_Controller"><path codeLine="98" d="M281.7363,344.4068 C235.9263,486.0068 166.86,699.4594 131.56,808.5694 " fill="none" id="LineFollowerRobot-backto-Controller" style="stroke:#181818;stroke-width:1.0;"/><polygon fill="#181818" points="285.43,332.9894,279.7774,337.4668,281.7363,344.4068,287.3889,339.9293,285.43,332.9894" style="stroke:#181818;stroke-width:1.0;"/></g><!--reverse link LineFollowerRobot to MotorSystem--><g id="link_LineFollowerRobot_MotorSystem"><path codeLine="99" d="M417.7485,211.7181 C565.9885,222.4781 857,267.8394 857,466.1094 C857,466.1094 857,466.1094 857,1064.1094 C857,1179.6894 705.47,1229.1594 608.4,1248.9994 " fill="none" id="LineFollowerRobot-backto-MotorSystem" style="stroke:#181818;stroke-width:1.0;"/><polygon fill="#181818" points="405.78,210.8494,411.4747,215.2732,417.7485,211.7181,412.0538,207.2942,405.78,210.8494" style="stroke:#181818;stroke-width:1.0;"/></g><!--reverse link SensorSystem to IRSensor--><g id="link_SensorSystem_IRSensor"><path codeLine="101" d="M387.7741,741.4006 C374.4041,766.0806 364.85,783.7294 351.49,808.4094 " fill="none" id="SensorSystem-backto-IRSensor" style="stroke:#181818;stroke-width:1.0;"/><polygon fill="#181818" points="393.49,730.8494,387.115,734.2197,387.7741,741.4006,394.1491,738.0303,393.49,730.8494" style="stroke:#181818;stroke-width:1.0;"/><text fill="#000000" font-family="sans-serif" font-size="13" lengthAdjust="spacing" textLength="22" x="376" y="775.1045">2..8</text></g><!--reverse link SensorSystem to UltrasonicSensor--><g id="link_SensorSystem_UltrasonicSensor"><path codeLine="102" d="M455.8015,742.101 C464.9515,766.781 471.24,783.7294 480.38,808.4094 " fill="none" id="SensorSystem-backto-UltrasonicSensor" style="stroke:#181818;stroke-width:1.0;"/><polygon fill="#181818" points="451.63,730.8494,449.9652,737.8657,455.8015,742.101,457.4663,735.0847,451.63,730.8494" style="stroke:#181818;stroke-width:1.0;"/></g><!--reverse link SensorSystem to ColorSensor--><g id="link_SensorSystem_ColorSensor"><path codeLine="103" d="M520.8615,738.1399 C556.9715,765.7599 589.3,790.4994 624.04,817.0594 " fill="none" id="SensorSystem-backto-ColorSensor" style="stroke:#181818;stroke-width:1.0;"/><polygon fill="#181818" points="511.33,730.8494,513.6656,737.6718,520.8615,738.1399,518.5259,731.3175,511.33,730.8494" style="stroke:#181818;stroke-width:1.0;"/></g><!--reverse link Controller to LineFollowing--><g id="link_Controller_LineFollowing"><path codeLine="105" d="M162.8432,947.5425 C170.2032,957.8725 170.81,958.6694 178,968.6094 C185.04,978.3394 192.53,988.5894 199.88,998.6094 " fill="none" id="Controller-backto-LineFollowing" style="stroke:#181818;stroke-width:1.0;"/><polygon fill="#181818" points="155.88,937.7694,156.1039,944.977,162.8432,947.5425,162.6193,940.3349,155.88,937.7694" style="stroke:#181818;stroke-width:1.0;"/></g><!--reverse link Controller to ObstacleAvoidance--><g id="link_Controller_ObstacleAvoidance"><path codeLine="106" d="M197.3603,944.7359 C213.6503,956.1759 221.43,960.2194 239,968.6094 C286.66,991.3694 304.87,979.1994 354,998.6094 C359.7,1000.8594 365.47,1003.3194 371.24,1005.9394 " fill="none" id="Controller-backto-ObstacleAvoidance" style="stroke:#181818;stroke-width:1.0;"/><polygon fill="#181818" points="187.54,937.8394,190.1513,944.5611,197.3603,944.7359,194.749,938.0142,187.54,937.8394" style="stroke:#181818;stroke-width:1.0;"/></g><!--reverse link Controller to ZoneAction--><g id="link_Controller_ZoneAction"><path codeLine="107" d="M210.5929,935.0438 C216.6729,937.8538 211.91,935.3894 218,937.6094 C374.59,994.6794 431.41,941.5394 588,998.6094 C593.99,1000.7894 600.02,1003.3094 606,1006.0694 " fill="none" id="Controller-backto-ZoneAction" style="stroke:#181818;stroke-width:1.0;"/><polygon fill="#181818" points="199.7,930.0094,203.4683,936.1575,210.5929,935.0438,206.8246,928.8956,199.7,930.0094" style="stroke:#181818;stroke-width:1.0;"/></g><!--link PowerSystem to Controller--><g id="link_PowerSystem_Controller"><path codeLine="110" d="M362.79,540.7394 C349.28,560.1694 335.16,581.3994 323,601.6094 C277.4,677.3994 288.57,710.6094 232,778.6094 C222.49,790.0394 215.8828,797.0083 204.2828,807.0683 " fill="none" id="PowerSystem-to-Controller" style="stroke:#181818;stroke-width:1.0;"/><polygon fill="#181818" points="199.75,810.9994,209.17,808.1247,203.5274,807.7235,203.9286,802.0809,199.75,810.9994" style="stroke:#181818;stroke-width:1.0;"/></g><!--link PowerSystem to SensorSystem--><g id="link_PowerSystem_SensorSystem"><path codeLine="111" d="M420.42,540.6294 C421.63,560.5894 422.5732,576.1006 423.7632,595.5306 " fill="none" id="PowerSystem-to-SensorSystem" style="stroke:#181818;stroke-width:1.0;"/><polygon fill="#181818" points="424.13,601.5194,427.5723,592.2917,423.8243,596.5287,419.5873,592.7807,424.13,601.5194" style="stroke:#181818;stroke-width:1.0;"/></g><!--link PowerSystem to MotorSystem--><g id="link_PowerSystem_MotorSystem"><path codeLine="112" d="M494.37,472.0594 C611.86,482.6794 820,521.7194 820,665.1094 C820,665.1094 820,665.1094 820,1064.1094 C820,1093.4394 820.81,1105.0994 802,1127.6094 C752.27,1187.1194 675.367,1220.5202 614.007,1239.6902 " fill="none" id="PowerSystem-to-MotorSystem" style="stroke:#181818;stroke-width:1.0;"/><polygon fill="#181818" points="608.28,1241.4794,618.0633,1242.6135,613.0525,1239.9884,615.6777,1234.9775,608.28,1241.4794" style="stroke:#181818;stroke-width:1.0;"/></g><!--link SensorSystem to Controller--><g id="link_SensorSystem_Controller"><path codeLine="114" d="M372.76,730.7794 C355.09,748.1994 334.49,765.7894 313,778.6094 C274.98,801.2994 258.42,790.5294 218,808.6094 C211.89,811.3494 211.0286,811.6109 204.8486,814.7809 " fill="none" id="SensorSystem-to-Controller" style="stroke:#181818;stroke-width:1.0;"/><polygon fill="#181818" points="199.51,817.5194,209.3436,816.9708,203.9589,815.2374,205.6923,809.8526,199.51,817.5194" style="stroke:#181818;stroke-width:1.0;"/></g><!--link IRSensor to LineFollowing--><g id="link_IRSensor_LineFollowing"><path codeLine="115" d="M293.3,937.7594 C286,957.3594 280.0642,973.3067 272.7642,992.9067 " fill="none" id="IRSensor-to-LineFollowing" style="stroke:#181818;stroke-width:1.0;"/><polygon fill="#181818" points="270.67,998.5294,277.5597,991.4915,272.4151,993.8438,270.0628,988.6993,270.67,998.5294" style="stroke:#181818;stroke-width:1.0;"/></g><!--link UltrasonicSensor to ObstacleAvoidance--><g id="link_UltrasonicSensor_ObstacleAvoidance"><path codeLine="116" d="M492.83,937.7594 C489.39,957.3594 486.6372,973.0197 483.1972,992.6197 " fill="none" id="UltrasonicSensor-to-ObstacleAvoidance" style="stroke:#181818;stroke-width:1.0;"/><polygon fill="#181818" points="482.16,998.5294,487.6556,990.3563,483.0243,993.6046,479.776,988.9734,482.16,998.5294" style="stroke:#181818;stroke-width:1.0;"/></g><!--link ColorSensor to ZoneAction--><g id="link_ColorSensor_ZoneAction"><path codeLine="117" d="M695.71,929.2494 C695.59,950.9194 695.4921,969.9295 695.3721,992.3695 " fill="none" id="ColorSensor-to-ZoneAction" style="stroke:#181818;stroke-width:1.0;"/><polygon fill="#181818" points="695.34,998.3694,699.3881,989.3909,695.3667,993.3694,691.3882,989.3481,695.34,998.3694" style="stroke:#181818;stroke-width:1.0;"/></g><!--link Controller to MotorSystem--><g id="link_Controller_MotorSystem"><path codeLine="119" d="M101.06,937.7394 C96.01,993.7994 98.23,1074.5694 141,1127.6094 C216.12,1220.7694 353.7667,1248.5838 443.6367,1257.0938 " fill="none" id="Controller-to-MotorSystem" style="stroke:#181818;stroke-width:1.0;"/><polygon fill="#181818" points="449.61,1257.6594,441.0272,1252.8288,444.6323,1257.188,440.273,1260.7931,449.61,1257.6594" style="stroke:#181818;stroke-width:1.0;"/></g><!--link LineFollowing to MotorSystem--><g id="link_LineFollowing_MotorSystem"><path codeLine="120" d="M336.23,1126.4394 C372.69,1151.9194 409.6117,1177.7028 444.9617,1202.4028 " fill="none" id="LineFollowing-to-MotorSystem" style="stroke:#181818;stroke-width:1.0;"/><polygon fill="#181818" points="449.88,1205.8394,444.7936,1197.4056,445.7814,1202.9756,440.2115,1203.9634,449.88,1205.8394" style="stroke:#181818;stroke-width:1.0;"/></g><!--link ObstacleAvoidance to MotorSystem--><g id="link_ObstacleAvoidance_MotorSystem"><path codeLine="121" d="M489.75,1127.7994 C495.44,1147.1294 500.0462,1162.7634 505.8962,1182.6434 " fill="none" id="ObstacleAvoidance-to-MotorSystem" style="stroke:#181818;stroke-width:1.0;"/><polygon fill="#181818" points="507.59,1188.3994,508.8866,1178.6362,506.1785,1183.6027,501.212,1180.8946,507.59,1188.3994" style="stroke:#181818;stroke-width:1.0;"/></g><!--link ZoneAction to MotorSystem--><g id="link_ZoneAction_MotorSystem"><path codeLine="122" d="M641.33,1127.7994 C625.04,1147.1294 610.886,1163.9309 594.136,1183.8109 " fill="none" id="ZoneAction-to-MotorSystem" style="stroke:#181818;stroke-width:1.0;"/><polygon fill="#181818" points="590.27,1188.3994,599.128,1184.094,593.4917,1184.5757,593.0101,1178.9394,590.27,1188.3994" style="stroke:#181818;stroke-width:1.0;"/></g><!--SRC=[ZLMnRjim4Dtz5KINj0MSeLDX105Ygm4CnAWHfnqQPA3aiqo48bMISkeK-VSUALcYA5gf1zlYFV4Utxqx6cOuaEKy8OzBOK09oicSo-oP98pcYXPFv8u9k9MSonTGzpALXgH7SiCFR38fQVPCSo0VQ6PmWtaIGp_EOKyFJAgdquiVoD_9XE3dWgme4oIr2Tr2ngdMaJskhXpc-XhV9CsdjE4PcKl9WOfsMH-rWU8cC-m0msXMAGN2_982W_QxZL2UIyNClfWXn-PljwbHr41-NCajlhTfdYPjd0bc6ENi5Jv-wdBXGcgH6n1QAks5IYKpq7efoihqra7jf7BifV03LRcr6ndyybRtL6mvV5DAgcRrhIUihj9Q3ksfkxQwRTmowbfIPNgofjIW3uvtS00-8xTSKjF63f8Rh7Uut8YQAFeIXboHBErA3uknenKt2HZ836pxuUOSDUDQl_EKcVf9UGMOeKOcrD1EEOxLqbAmp852Wjic_K9oYMvoFm_7ilE5hfD7Zj3Zk932AFGig1Z3HY5NFsJfJk8UMWHkOXQoAB2Ypc1Cv6qCR84NpdgsINDGWIzk5VokG6J7Fg17S2NDc8OSTcPJWgr3c4EnV7ykLhXTwsEjslzTcFuvyw8sbFFHsbyqrIIPB4hiL65y5o_lcsZaB8Uwq65AirUWzv97s9HICzjo9mUjc-TXBu_vz4ThjVFSjWnFBhA13pro_G0LEH-WQMIy1NP47u-mUC_rAa_RdkgRyHqbBlnEY5Qkc-wuROpSUfciALuzo55XVdp4BNSi_xzHxPfbHLNEHAXQtMFOYLbTwxEzyZt58cKSRWwIRMsrOZHFTu9t7uoLnwsVzdl0diBCeORs8vlSISGeFPBszgelYf694xdeh0etZG91RQbRnZ5KSZ0nSg-uqOgMlHUzmXUbtpV3Q_ppTEfVFoCeV-IFm3glZO2yoLTJxTqd5j4EandvSddvDGuAkpkEyXglJkQrWuttt1y33BmN0tMrzxfErBwkUys_vQVJwr2fC3pGEmICYnZ9q6fgOyDJ3sQbXPqxUpVBB2eylATDoBHl2ZjlOeXXkyTGNh-5uRV9Fm00]--></g></svg>