<?xml version="1.0" encoding="us-ascii" standalone="no"?><svg xmlns="http://www.w3.org/2000/svg" xmlns:xlink="http://www.w3.org/1999/xlink" contentStyleType="text/css" height="1092px" preserveAspectRatio="none" style="width:908px;height:1092px;background:#FFFFFF;" version="1.1" viewBox="0 0 908 1092" width="908px" zoomAndPan="magnify"><defs/><g><text fill="#000000" font-family="sans-serif" font-size="14" font-weight="bold" lengthAdjust="spacing" textLength="400" x="247" y="24.5332">bdd [Block Definition Diagram] LineFollowerRobot by Alvi</text><!--cluster act [Block] LineFollowerRobot [Behavior] by Alvi--><g id="cluster_act [Block] LineFollowerRobot [Behavior] by Alvi"><path d="M8.5,44.6094 L348.5,44.6094 A3.75,3.75 0 0 1 351,47.1094 L358,68.2188 L898.5,68.2188 A2.5,2.5 0 0 1 901,70.7188 L901,1083.1094 A2.5,2.5 0 0 1 898.5,1085.6094 L8.5,1085.6094 A2.5,2.5 0 0 1 6,1083.1094 L6,47.1094 A2.5,2.5 0 0 1 8.5,44.6094 " fill="none" style="stroke:#000000;stroke-width:1.5;"/><line style="stroke:#000000;stroke-width:1.5;" x1="6" x2="358" y1="68.2188" y2="68.2188"/><text fill="#000000" font-family="sans-serif" font-size="14" font-weight="bold" lengthAdjust="spacing" textLength="339" x="10" y="61.1426">act [Block] LineFollowerRobot [Behavior] by Alvi</text></g><!--class LineFollowerRobot--><g id="elem_LineFollowerRobot"><rect codeLine="7" fill="#F1F1F1" height="164.3594" id="LineFollowerRobot" rx="2.5" ry="2.5" style="stroke:#181818;stroke-width:0.5;" width="364" x="67" y="80.6094"/><ellipse cx="185.75" cy="101.9609" fill="#ADD1B2" rx="11" ry="11" style="stroke:#181818;stroke-width:1.0;"/><path d="M188.5156,97.8359 Q188.6719,97.6172 188.8594,97.5078 Q189.0469,97.3984 189.2656,97.3984 Q189.6406,97.3984 189.875,97.6641 Q190.1094,97.9141 190.1094,98.5234 L190.1094,99.9766 Q190.1094,100.5859 189.875,100.8516 Q189.6406,101.1172 189.2656,101.1172 Q188.9219,101.1172 188.7188,100.9141 Q188.5156,100.7266 188.4063,100.2109 Q188.3594,99.8516 188.1719,99.6641 Q187.8438,99.2891 187.2344,99.0703 Q186.625,98.8516 186,98.8516 Q185.2344,98.8516 184.5938,99.1797 Q183.9688,99.5078 183.4688,100.2578 Q182.9844,101.0078 182.9844,102.0391 L182.9844,103.1328 Q182.9844,104.3672 183.875,105.1953 Q184.7656,106.0078 186.3594,106.0078 Q187.2969,106.0078 187.9531,105.7578 Q188.3438,105.6016 188.7656,105.1641 Q189.0313,104.8984 189.1719,104.8203 Q189.3281,104.7422 189.5313,104.7422 Q189.8594,104.7422 190.1094,105.0078 Q190.375,105.2578 190.375,105.6016 Q190.375,105.9453 190.0313,106.3516 Q189.5313,106.9297 188.7344,107.2578 Q187.6563,107.7109 186.3594,107.7109 Q184.8438,107.7109 183.6406,107.0859 Q182.6563,106.5859 181.9688,105.5234 Q181.2813,104.4453 181.2813,103.1641 L181.2813,102.0078 Q181.2813,100.6797 181.8906,99.5391 Q182.5156,98.3828 183.6094,97.7734 Q184.7031,97.1484 185.9375,97.1484 Q186.6719,97.1484 187.3125,97.3203 Q187.9688,97.4766 188.5156,97.8359 Z " fill="#000000"/><text fill="#000000" font-family="sans-serif" font-size="12" font-style="italic" lengthAdjust="spacing" textLength="45" x="242.75" y="98.0664">&#171;block&#187;</text><text fill="#000000" font-family="sans-serif" font-size="14" lengthAdjust="spacing" textLength="118" x="206.25" y="115.2363">LineFollowerRobot</text><line style="stroke:#181818;stroke-width:0.5;" x1="68" x2="430" y1="123.3125" y2="123.3125"/><text fill="#000000" font-family="sans-serif" font-size="14" lengthAdjust="spacing" textLength="260" x="73" y="141.8457">power: Boolean            ' Main power state</text><text fill="#000000" font-family="sans-serif" font-size="14" lengthAdjust="spacing" textLength="325" x="73" y="159.4551">systemActive: Boolean     ' System operational state</text><line style="stroke:#181818;stroke-width:0.5;" x1="68" x2="430" y1="166.5313" y2="166.5313"/><text fill="#000000" font-family="sans-serif" font-size="14" lengthAdjust="spacing" textLength="308" x="73" y="185.0645">initialize()              ' Init: System startup sequence</text><text fill="#000000" font-family="sans-serif" font-size="14" lengthAdjust="spacing" textLength="313" x="73" y="202.6738">calibrateSensors()        ' Cal: Calibrate all sensors</text><text fill="#000000" font-family="sans-serif" font-size="14" lengthAdjust="spacing" textLength="309" x="73" y="220.2832">processInputs()           ' PI: Process sensor inputs</text><text fill="#000000" font-family="sans-serif" font-size="14" lengthAdjust="spacing" textLength="352" x="73" y="237.8926">performActions()          ' PA: Execute determined actions</text></g><!--class PowerSystem--><g id="elem_PowerSystem"><rect codeLine="37" fill="#F1F1F1" height="93.9219" id="PowerSystem" rx="2.5" ry="2.5" style="stroke:#181818;stroke-width:0.5;" width="150" x="275" y="322.6094"/><ellipse cx="304.85" cy="343.9609" fill="#ADD1B2" rx="11" ry="11" style="stroke:#181818;stroke-width:1.0;"/><path d="M307.6156,339.8359 Q307.7719,339.6172 307.9594,339.5078 Q308.1469,339.3984 308.3656,339.3984 Q308.7406,339.3984 308.975,339.6641 Q309.2094,339.9141 309.2094,340.5234 L309.2094,341.9766 Q309.2094,342.5859 308.975,342.8516 Q308.7406,343.1172 308.3656,343.1172 Q308.0219,343.1172 307.8188,342.9141 Q307.6156,342.7266 307.5063,342.2109 Q307.4594,341.8516 307.2719,341.6641 Q306.9438,341.2891 306.3344,341.0703 Q305.725,340.8516 305.1,340.8516 Q304.3344,340.8516 303.6938,341.1797 Q303.0688,341.5078 302.5688,342.2578 Q302.0844,343.0078 302.0844,344.0391 L302.0844,345.1328 Q302.0844,346.3672 302.975,347.1953 Q303.8656,348.0078 305.4594,348.0078 Q306.3969,348.0078 307.0531,347.7578 Q307.4438,347.6016 307.8656,347.1641 Q308.1313,346.8984 308.2719,346.8203 Q308.4281,346.7422 308.6313,346.7422 Q308.9594,346.7422 309.2094,347.0078 Q309.475,347.2578 309.475,347.6016 Q309.475,347.9453 309.1313,348.3516 Q308.6313,348.9297 307.8344,349.2578 Q306.7563,349.7109 305.4594,349.7109 Q303.9438,349.7109 302.7406,349.0859 Q301.7563,348.5859 301.0688,347.5234 Q300.3813,346.4453 300.3813,345.1641 L300.3813,344.0078 Q300.3813,342.6797 300.9906,341.5391 Q301.6156,340.3828 302.7094,339.7734 Q303.8031,339.1484 305.0375,339.1484 Q305.7719,339.1484 306.4125,339.3203 Q307.0688,339.4766 307.6156,339.8359 Z " fill="#000000"/><text fill="#000000" font-family="sans-serif" font-size="12" font-style="italic" lengthAdjust="spacing" textLength="35" x="347.15" y="340.0664">&#171;part&#187;</text><text fill="#000000" font-family="sans-serif" font-size="14" lengthAdjust="spacing" textLength="85" x="322.15" y="357.2363">PowerSystem</text><line style="stroke:#181818;stroke-width:0.5;" x1="276" x2="424" y1="365.3125" y2="365.3125"/><text fill="#000000" font-family="sans-serif" font-size="14" lengthAdjust="spacing" textLength="118" x="281" y="383.8457">batteryLevel: Float</text><text fill="#000000" font-family="sans-serif" font-size="14" lengthAdjust="spacing" textLength="138" x="281" y="401.4551">powerStatus: Boolean</text><line style="stroke:#181818;stroke-width:0.5;" x1="276" x2="424" y1="408.5313" y2="408.5313"/></g><!--class SensorSystem--><g id="elem_SensorSystem"><rect codeLine="42" fill="#F1F1F1" height="58.7031" id="SensorSystem" rx="2.5" ry="2.5" style="stroke:#181818;stroke-width:0.5;" width="123" x="293.5" y="494.6094"/><ellipse cx="308.5" cy="515.9609" fill="#ADD1B2" rx="11" ry="11" style="stroke:#181818;stroke-width:1.0;"/><path d="M311.2656,511.8359 Q311.4219,511.6172 311.6094,511.5078 Q311.7969,511.3984 312.0156,511.3984 Q312.3906,511.3984 312.625,511.6641 Q312.8594,511.9141 312.8594,512.5234 L312.8594,513.9766 Q312.8594,514.5859 312.625,514.8516 Q312.3906,515.1172 312.0156,515.1172 Q311.6719,515.1172 311.4688,514.9141 Q311.2656,514.7266 311.1563,514.2109 Q311.1094,513.8516 310.9219,513.6641 Q310.5938,513.2891 309.9844,513.0703 Q309.375,512.8516 308.75,512.8516 Q307.9844,512.8516 307.3438,513.1797 Q306.7188,513.5078 306.2188,514.2578 Q305.7344,515.0078 305.7344,516.0391 L305.7344,517.1328 Q305.7344,518.3672 306.625,519.1953 Q307.5156,520.0078 309.1094,520.0078 Q310.0469,520.0078 310.7031,519.7578 Q311.0938,519.6016 311.5156,519.1641 Q311.7813,518.8984 311.9219,518.8203 Q312.0781,518.7422 312.2813,518.7422 Q312.6094,518.7422 312.8594,519.0078 Q313.125,519.2578 313.125,519.6016 Q313.125,519.9453 312.7813,520.3516 Q312.2813,520.9297 311.4844,521.2578 Q310.4063,521.7109 309.1094,521.7109 Q307.5938,521.7109 306.3906,521.0859 Q305.4063,520.5859 304.7188,519.5234 Q304.0313,518.4453 304.0313,517.1641 L304.0313,516.0078 Q304.0313,514.6797 304.6406,513.5391 Q305.2656,512.3828 306.3594,511.7734 Q307.4531,511.1484 308.6875,511.1484 Q309.4219,511.1484 310.0625,511.3203 Q310.7188,511.4766 311.2656,511.8359 Z " fill="#000000"/><text fill="#000000" font-family="sans-serif" font-size="12" font-style="italic" lengthAdjust="spacing" textLength="35" x="350.5" y="512.0664">&#171;part&#187;</text><text fill="#000000" font-family="sans-serif" font-size="14" lengthAdjust="spacing" textLength="91" x="322.5" y="529.2363">SensorSystem</text><line style="stroke:#181818;stroke-width:0.5;" x1="294.5" x2="415.5" y1="537.3125" y2="537.3125"/><line style="stroke:#181818;stroke-width:0.5;" x1="294.5" x2="415.5" y1="545.3125" y2="545.3125"/></g><!--class Controller--><g id="elem_Controller"><rect codeLine="45" fill="#F1F1F1" height="76.3125" id="Controller" rx="2.5" ry="2.5" style="stroke:#181818;stroke-width:0.5;" width="177" x="22.5" y="640.6094"/><ellipse cx="75.75" cy="661.9609" fill="#ADD1B2" rx="11" ry="11" style="stroke:#181818;stroke-width:1.0;"/><path d="M78.5156,657.8359 Q78.6719,657.6172 78.8594,657.5078 Q79.0469,657.3984 79.2656,657.3984 Q79.6406,657.3984 79.875,657.6641 Q80.1094,657.9141 80.1094,658.5234 L80.1094,659.9766 Q80.1094,660.5859 79.875,660.8516 Q79.6406,661.1172 79.2656,661.1172 Q78.9219,661.1172 78.7188,660.9141 Q78.5156,660.7266 78.4063,660.2109 Q78.3594,659.8516 78.1719,659.6641 Q77.8438,659.2891 77.2344,659.0703 Q76.625,658.8516 76,658.8516 Q75.2344,658.8516 74.5938,659.1797 Q73.9688,659.5078 73.4688,660.2578 Q72.9844,661.0078 72.9844,662.0391 L72.9844,663.1328 Q72.9844,664.3672 73.875,665.1953 Q74.7656,666.0078 76.3594,666.0078 Q77.2969,666.0078 77.9531,665.7578 Q78.3438,665.6016 78.7656,665.1641 Q79.0313,664.8984 79.1719,664.8203 Q79.3281,664.7422 79.5313,664.7422 Q79.8594,664.7422 80.1094,665.0078 Q80.375,665.2578 80.375,665.6016 Q80.375,665.9453 80.0313,666.3516 Q79.5313,666.9297 78.7344,667.2578 Q77.6563,667.7109 76.3594,667.7109 Q74.8438,667.7109 73.6406,667.0859 Q72.6563,666.5859 71.9688,665.5234 Q71.2813,664.4453 71.2813,663.1641 L71.2813,662.0078 Q71.2813,660.6797 71.8906,659.5391 Q72.5156,658.3828 73.6094,657.7734 Q74.7031,657.1484 75.9375,657.1484 Q76.6719,657.1484 77.3125,657.3203 Q77.9688,657.4766 78.5156,657.8359 Z " fill="#000000"/><text fill="#000000" font-family="sans-serif" font-size="12" font-style="italic" lengthAdjust="spacing" textLength="35" x="109.75" y="658.0664">&#171;part&#187;</text><text fill="#000000" font-family="sans-serif" font-size="14" lengthAdjust="spacing" textLength="62" x="96.25" y="675.2363">Controller</text><line style="stroke:#181818;stroke-width:0.5;" x1="23.5" x2="198.5" y1="683.3125" y2="683.3125"/><text fill="#000000" font-family="sans-serif" font-size="14" lengthAdjust="spacing" textLength="165" x="28.5" y="701.8457">currentState: SystemState</text><line style="stroke:#181818;stroke-width:0.5;" x1="23.5" x2="198.5" y1="708.9219" y2="708.9219"/></g><!--class MotorSystem--><g id="elem_MotorSystem"><rect codeLine="49" fill="#F1F1F1" height="111.5313" id="MotorSystem" rx="2.5" ry="2.5" style="stroke:#181818;stroke-width:0.5;" width="158" x="487" y="957.6094"/><ellipse cx="521.8" cy="978.9609" fill="#ADD1B2" rx="11" ry="11" style="stroke:#181818;stroke-width:1.0;"/><path d="M524.5656,974.8359 Q524.7219,974.6172 524.9094,974.5078 Q525.0969,974.3984 525.3156,974.3984 Q525.6906,974.3984 525.925,974.6641 Q526.1594,974.9141 526.1594,975.5234 L526.1594,976.9766 Q526.1594,977.5859 525.925,977.8516 Q525.6906,978.1172 525.3156,978.1172 Q524.9719,978.1172 524.7688,977.9141 Q524.5656,977.7266 524.4563,977.2109 Q524.4094,976.8516 524.2219,976.6641 Q523.8938,976.2891 523.2844,976.0703 Q522.675,975.8516 522.05,975.8516 Q521.2844,975.8516 520.6438,976.1797 Q520.0188,976.5078 519.5188,977.2578 Q519.0344,978.0078 519.0344,979.0391 L519.0344,980.1328 Q519.0344,981.3672 519.925,982.1953 Q520.8156,983.0078 522.4094,983.0078 Q523.3469,983.0078 524.0031,982.7578 Q524.3938,982.6016 524.8156,982.1641 Q525.0813,981.8984 525.2219,981.8203 Q525.3781,981.7422 525.5813,981.7422 Q525.9094,981.7422 526.1594,982.0078 Q526.425,982.2578 526.425,982.6016 Q526.425,982.9453 526.0813,983.3516 Q525.5813,983.9297 524.7844,984.2578 Q523.7063,984.7109 522.4094,984.7109 Q520.8938,984.7109 519.6906,984.0859 Q518.7063,983.5859 518.0188,982.5234 Q517.3313,981.4453 517.3313,980.1641 L517.3313,979.0078 Q517.3313,977.6797 517.9406,976.5391 Q518.5656,975.3828 519.6594,974.7734 Q520.7531,974.1484 521.9875,974.1484 Q522.7219,974.1484 523.3625,974.3203 Q524.0188,974.4766 524.5656,974.8359 Z " fill="#000000"/><text fill="#000000" font-family="sans-serif" font-size="12" font-style="italic" lengthAdjust="spacing" textLength="35" x="563.7" y="975.0664">&#171;part&#187;</text><text fill="#000000" font-family="sans-serif" font-size="14" lengthAdjust="spacing" textLength="82" x="540.2" y="992.2363">MotorSystem</text><line style="stroke:#181818;stroke-width:0.5;" x1="488" x2="644" y1="1000.3125" y2="1000.3125"/><text fill="#000000" font-family="sans-serif" font-size="14" lengthAdjust="spacing" textLength="112" x="493" y="1018.8457">leftSpeed: Integer</text><text fill="#000000" font-family="sans-serif" font-size="14" lengthAdjust="spacing" textLength="121" x="493" y="1036.4551">rightSpeed: Integer</text><text fill="#000000" font-family="sans-serif" font-size="14" lengthAdjust="spacing" textLength="146" x="493" y="1054.0645">motorState: MotorState</text><line style="stroke:#181818;stroke-width:0.5;" x1="488" x2="644" y1="1061.1406" y2="1061.1406"/></g><!--class IRSensor--><g id="elem_IRSensor"><rect codeLine="56" fill="#F1F1F1" height="93.9219" id="IRSensor" rx="2.5" ry="2.5" style="stroke:#181818;stroke-width:0.5;" width="123" x="234.5" y="631.6094"/><ellipse cx="264.35" cy="652.9609" fill="#ADD1B2" rx="11" ry="11" style="stroke:#181818;stroke-width:1.0;"/><path d="M267.1156,648.8359 Q267.2719,648.6172 267.4594,648.5078 Q267.6469,648.3984 267.8656,648.3984 Q268.2406,648.3984 268.475,648.6641 Q268.7094,648.9141 268.7094,649.5234 L268.7094,650.9766 Q268.7094,651.5859 268.475,651.8516 Q268.2406,652.1172 267.8656,652.1172 Q267.5219,652.1172 267.3188,651.9141 Q267.1156,651.7266 267.0063,651.2109 Q266.9594,650.8516 266.7719,650.6641 Q266.4438,650.2891 265.8344,650.0703 Q265.225,649.8516 264.6,649.8516 Q263.8344,649.8516 263.1938,650.1797 Q262.5688,650.5078 262.0688,651.2578 Q261.5844,652.0078 261.5844,653.0391 L261.5844,654.1328 Q261.5844,655.3672 262.475,656.1953 Q263.3656,657.0078 264.9594,657.0078 Q265.8969,657.0078 266.5531,656.7578 Q266.9438,656.6016 267.3656,656.1641 Q267.6313,655.8984 267.7719,655.8203 Q267.9281,655.7422 268.1313,655.7422 Q268.4594,655.7422 268.7094,656.0078 Q268.975,656.2578 268.975,656.6016 Q268.975,656.9453 268.6313,657.3516 Q268.1313,657.9297 267.3344,658.2578 Q266.2563,658.7109 264.9594,658.7109 Q263.4438,658.7109 262.2406,658.0859 Q261.2563,657.5859 260.5688,656.5234 Q259.8813,655.4453 259.8813,654.1641 L259.8813,653.0078 Q259.8813,651.6797 260.4906,650.5391 Q261.1156,649.3828 262.2094,648.7734 Q263.3031,648.1484 264.5375,648.1484 Q265.2719,648.1484 265.9125,648.3203 Q266.5688,648.4766 267.1156,648.8359 Z " fill="#000000"/><text fill="#000000" font-family="sans-serif" font-size="12" font-style="italic" lengthAdjust="spacing" textLength="35" x="293.15" y="649.0664">&#171;part&#187;</text><text fill="#000000" font-family="sans-serif" font-size="14" lengthAdjust="spacing" textLength="58" x="281.65" y="666.2363">IRSensor</text><line style="stroke:#181818;stroke-width:0.5;" x1="235.5" x2="356.5" y1="674.3125" y2="674.3125"/><text fill="#000000" font-family="sans-serif" font-size="14" lengthAdjust="spacing" textLength="86" x="240.5" y="692.8457">value: Integer</text><text fill="#000000" font-family="sans-serif" font-size="14" lengthAdjust="spacing" textLength="111" x="240.5" y="710.4551">threshold: Integer</text><line style="stroke:#181818;stroke-width:0.5;" x1="235.5" x2="356.5" y1="717.5313" y2="717.5313"/></g><!--class UltrasonicSensor--><g id="elem_UltrasonicSensor"><rect codeLine="61" fill="#F1F1F1" height="93.9219" id="UltrasonicSensor" rx="2.5" ry="2.5" style="stroke:#181818;stroke-width:0.5;" width="139" x="392.5" y="631.6094"/><ellipse cx="407.5" cy="652.9609" fill="#ADD1B2" rx="11" ry="11" style="stroke:#181818;stroke-width:1.0;"/><path d="M410.2656,648.8359 Q410.4219,648.6172 410.6094,648.5078 Q410.7969,648.3984 411.0156,648.3984 Q411.3906,648.3984 411.625,648.6641 Q411.8594,648.9141 411.8594,649.5234 L411.8594,650.9766 Q411.8594,651.5859 411.625,651.8516 Q411.3906,652.1172 411.0156,652.1172 Q410.6719,652.1172 410.4688,651.9141 Q410.2656,651.7266 410.1563,651.2109 Q410.1094,650.8516 409.9219,650.6641 Q409.5938,650.2891 408.9844,650.0703 Q408.375,649.8516 407.75,649.8516 Q406.9844,649.8516 406.3438,650.1797 Q405.7188,650.5078 405.2188,651.2578 Q404.7344,652.0078 404.7344,653.0391 L404.7344,654.1328 Q404.7344,655.3672 405.625,656.1953 Q406.5156,657.0078 408.1094,657.0078 Q409.0469,657.0078 409.7031,656.7578 Q410.0938,656.6016 410.5156,656.1641 Q410.7813,655.8984 410.9219,655.8203 Q411.0781,655.7422 411.2813,655.7422 Q411.6094,655.7422 411.8594,656.0078 Q412.125,656.2578 412.125,656.6016 Q412.125,656.9453 411.7813,657.3516 Q411.2813,657.9297 410.4844,658.2578 Q409.4063,658.7109 408.1094,658.7109 Q406.5938,658.7109 405.3906,658.0859 Q404.4063,657.5859 403.7188,656.5234 Q403.0313,655.4453 403.0313,654.1641 L403.0313,653.0078 Q403.0313,651.6797 403.6406,650.5391 Q404.2656,649.3828 405.3594,648.7734 Q406.4531,648.1484 407.6875,648.1484 Q408.4219,648.1484 409.0625,648.3203 Q409.7188,648.4766 410.2656,648.8359 Z " fill="#000000"/><text fill="#000000" font-family="sans-serif" font-size="12" font-style="italic" lengthAdjust="spacing" textLength="35" x="457.5" y="649.0664">&#171;part&#187;</text><text fill="#000000" font-family="sans-serif" font-size="14" lengthAdjust="spacing" textLength="107" x="421.5" y="666.2363">UltrasonicSensor</text><line style="stroke:#181818;stroke-width:0.5;" x1="393.5" x2="530.5" y1="674.3125" y2="674.3125"/><text fill="#000000" font-family="sans-serif" font-size="14" lengthAdjust="spacing" textLength="93" x="398.5" y="692.8457">distance: Float</text><text fill="#000000" font-family="sans-serif" font-size="14" lengthAdjust="spacing" textLength="99" x="398.5" y="710.4551">threshold: Float</text><line style="stroke:#181818;stroke-width:0.5;" x1="393.5" x2="530.5" y1="717.5313" y2="717.5313"/></g><!--class ColorSensor--><g id="elem_ColorSensor"><rect codeLine="66" fill="#F1F1F1" height="76.3125" id="ColorSensor" rx="2.5" ry="2.5" style="stroke:#181818;stroke-width:0.5;" width="175" x="566.5" y="640.6094"/><ellipse cx="610.3" cy="661.9609" fill="#ADD1B2" rx="11" ry="11" style="stroke:#181818;stroke-width:1.0;"/><path d="M613.0656,657.8359 Q613.2219,657.6172 613.4094,657.5078 Q613.5969,657.3984 613.8156,657.3984 Q614.1906,657.3984 614.425,657.6641 Q614.6594,657.9141 614.6594,658.5234 L614.6594,659.9766 Q614.6594,660.5859 614.425,660.8516 Q614.1906,661.1172 613.8156,661.1172 Q613.4719,661.1172 613.2688,660.9141 Q613.0656,660.7266 612.9563,660.2109 Q612.9094,659.8516 612.7219,659.6641 Q612.3938,659.2891 611.7844,659.0703 Q611.175,658.8516 610.55,658.8516 Q609.7844,658.8516 609.1438,659.1797 Q608.5188,659.5078 608.0188,660.2578 Q607.5344,661.0078 607.5344,662.0391 L607.5344,663.1328 Q607.5344,664.3672 608.425,665.1953 Q609.3156,666.0078 610.9094,666.0078 Q611.8469,666.0078 612.5031,665.7578 Q612.8938,665.6016 613.3156,665.1641 Q613.5813,664.8984 613.7219,664.8203 Q613.8781,664.7422 614.0813,664.7422 Q614.4094,664.7422 614.6594,665.0078 Q614.925,665.2578 614.925,665.6016 Q614.925,665.9453 614.5813,666.3516 Q614.0813,666.9297 613.2844,667.2578 Q612.2063,667.7109 610.9094,667.7109 Q609.3938,667.7109 608.1906,667.0859 Q607.2063,666.5859 606.5188,665.5234 Q605.8313,664.4453 605.8313,663.1641 L605.8313,662.0078 Q605.8313,660.6797 606.4406,659.5391 Q607.0656,658.3828 608.1594,657.7734 Q609.2531,657.1484 610.4875,657.1484 Q611.2219,657.1484 611.8625,657.3203 Q612.5188,657.4766 613.0656,657.8359 Z " fill="#000000"/><text fill="#000000" font-family="sans-serif" font-size="12" font-style="italic" lengthAdjust="spacing" textLength="35" x="652.7" y="658.0664">&#171;part&#187;</text><text fill="#000000" font-family="sans-serif" font-size="14" lengthAdjust="spacing" textLength="79" x="630.7" y="675.2363">ColorSensor</text><line style="stroke:#181818;stroke-width:0.5;" x1="567.5" x2="740.5" y1="683.3125" y2="683.3125"/><text fill="#000000" font-family="sans-serif" font-size="14" lengthAdjust="spacing" textLength="163" x="572.5" y="701.8457">detectedColor: ColorType</text><line style="stroke:#181818;stroke-width:0.5;" x1="567.5" x2="740.5" y1="708.9219" y2="708.9219"/></g><!--class LineFollowing--><g id="elem_LineFollowing"><rect codeLine="71" fill="#F1F1F1" height="76.3125" id="LineFollowing" rx="2.5" ry="2.5" style="stroke:#181818;stroke-width:0.5;" width="178" x="187" y="803.6094"/><ellipse cx="229" cy="824.9609" fill="#ADD1B2" rx="11" ry="11" style="stroke:#181818;stroke-width:1.0;"/><path d="M231.7656,820.8359 Q231.9219,820.6172 232.1094,820.5078 Q232.2969,820.3984 232.5156,820.3984 Q232.8906,820.3984 233.125,820.6641 Q233.3594,820.9141 233.3594,821.5234 L233.3594,822.9766 Q233.3594,823.5859 233.125,823.8516 Q232.8906,824.1172 232.5156,824.1172 Q232.1719,824.1172 231.9688,823.9141 Q231.7656,823.7266 231.6563,823.2109 Q231.6094,822.8516 231.4219,822.6641 Q231.0938,822.2891 230.4844,822.0703 Q229.875,821.8516 229.25,821.8516 Q228.4844,821.8516 227.8438,822.1797 Q227.2188,822.5078 226.7188,823.2578 Q226.2344,824.0078 226.2344,825.0391 L226.2344,826.1328 Q226.2344,827.3672 227.125,828.1953 Q228.0156,829.0078 229.6094,829.0078 Q230.5469,829.0078 231.2031,828.7578 Q231.5938,828.6016 232.0156,828.1641 Q232.2813,827.8984 232.4219,827.8203 Q232.5781,827.7422 232.7813,827.7422 Q233.1094,827.7422 233.3594,828.0078 Q233.625,828.2578 233.625,828.6016 Q233.625,828.9453 233.2813,829.3516 Q232.7813,829.9297 231.9844,830.2578 Q230.9063,830.7109 229.6094,830.7109 Q228.0938,830.7109 226.8906,830.0859 Q225.9063,829.5859 225.2188,828.5234 Q224.5313,827.4453 224.5313,826.1641 L224.5313,825.0078 Q224.5313,823.6797 225.1406,822.5391 Q225.7656,821.3828 226.8594,820.7734 Q227.9531,820.1484 229.1875,820.1484 Q229.9219,820.1484 230.5625,820.3203 Q231.2188,820.4766 231.7656,820.8359 Z " fill="#000000"/><text fill="#000000" font-family="sans-serif" font-size="12" font-style="italic" lengthAdjust="spacing" textLength="35" x="274.5" y="821.0664">&#171;part&#187;</text><text fill="#000000" font-family="sans-serif" font-size="14" lengthAdjust="spacing" textLength="86" x="249" y="838.2363">LineFollowing</text><line style="stroke:#181818;stroke-width:0.5;" x1="188" x2="364" y1="846.3125" y2="846.3125"/><text fill="#000000" font-family="sans-serif" font-size="14" lengthAdjust="spacing" textLength="166" x="193" y="864.8457">PIDParameters: PIDConfig</text><line style="stroke:#181818;stroke-width:0.5;" x1="188" x2="364" y1="871.9219" y2="871.9219"/></g><!--class ObstacleAvoidance--><g id="elem_ObstacleAvoidance"><rect codeLine="75" fill="#F1F1F1" height="58.7031" id="ObstacleAvoidance" rx="2.5" ry="2.5" style="stroke:#181818;stroke-width:0.5;" width="154" x="400" y="812.1094"/><ellipse cx="415" cy="833.4609" fill="#ADD1B2" rx="11" ry="11" style="stroke:#181818;stroke-width:1.0;"/><path d="M417.7656,829.3359 Q417.9219,829.1172 418.1094,829.0078 Q418.2969,828.8984 418.5156,828.8984 Q418.8906,828.8984 419.125,829.1641 Q419.3594,829.4141 419.3594,830.0234 L419.3594,831.4766 Q419.3594,832.0859 419.125,832.3516 Q418.8906,832.6172 418.5156,832.6172 Q418.1719,832.6172 417.9688,832.4141 Q417.7656,832.2266 417.6563,831.7109 Q417.6094,831.3516 417.4219,831.1641 Q417.0938,830.7891 416.4844,830.5703 Q415.875,830.3516 415.25,830.3516 Q414.4844,830.3516 413.8438,830.6797 Q413.2188,831.0078 412.7188,831.7578 Q412.2344,832.5078 412.2344,833.5391 L412.2344,834.6328 Q412.2344,835.8672 413.125,836.6953 Q414.0156,837.5078 415.6094,837.5078 Q416.5469,837.5078 417.2031,837.2578 Q417.5938,837.1016 418.0156,836.6641 Q418.2813,836.3984 418.4219,836.3203 Q418.5781,836.2422 418.7813,836.2422 Q419.1094,836.2422 419.3594,836.5078 Q419.625,836.7578 419.625,837.1016 Q419.625,837.4453 419.2813,837.8516 Q418.7813,838.4297 417.9844,838.7578 Q416.9063,839.2109 415.6094,839.2109 Q414.0938,839.2109 412.8906,838.5859 Q411.9063,838.0859 411.2188,837.0234 Q410.5313,835.9453 410.5313,834.6641 L410.5313,833.5078 Q410.5313,832.1797 411.1406,831.0391 Q411.7656,829.8828 412.8594,829.2734 Q413.9531,828.6484 415.1875,828.6484 Q415.9219,828.6484 416.5625,828.8203 Q417.2188,828.9766 417.7656,829.3359 Z " fill="#000000"/><text fill="#000000" font-family="sans-serif" font-size="12" font-style="italic" lengthAdjust="spacing" textLength="35" x="472.5" y="829.5664">&#171;part&#187;</text><text fill="#000000" font-family="sans-serif" font-size="14" lengthAdjust="spacing" textLength="122" x="429" y="846.7363">ObstacleAvoidance</text><line style="stroke:#181818;stroke-width:0.5;" x1="401" x2="553" y1="854.8125" y2="854.8125"/><line style="stroke:#181818;stroke-width:0.5;" x1="401" x2="553" y1="862.8125" y2="862.8125"/></g><!--class ZoneAction--><g id="elem_ZoneAction"><rect codeLine="78" fill="#F1F1F1" height="76.3125" id="ZoneAction" rx="2.5" ry="2.5" style="stroke:#181818;stroke-width:0.5;" width="129" x="589.5" y="803.6094"/><ellipse cx="616.2" cy="824.9609" fill="#ADD1B2" rx="11" ry="11" style="stroke:#181818;stroke-width:1.0;"/><path d="M618.9656,820.8359 Q619.1219,820.6172 619.3094,820.5078 Q619.4969,820.3984 619.7156,820.3984 Q620.0906,820.3984 620.325,820.6641 Q620.5594,820.9141 620.5594,821.5234 L620.5594,822.9766 Q620.5594,823.5859 620.325,823.8516 Q620.0906,824.1172 619.7156,824.1172 Q619.3719,824.1172 619.1688,823.9141 Q618.9656,823.7266 618.8563,823.2109 Q618.8094,822.8516 618.6219,822.6641 Q618.2938,822.2891 617.6844,822.0703 Q617.075,821.8516 616.45,821.8516 Q615.6844,821.8516 615.0438,822.1797 Q614.4188,822.5078 613.9188,823.2578 Q613.4344,824.0078 613.4344,825.0391 L613.4344,826.1328 Q613.4344,827.3672 614.325,828.1953 Q615.2156,829.0078 616.8094,829.0078 Q617.7469,829.0078 618.4031,828.7578 Q618.7938,828.6016 619.2156,828.1641 Q619.4813,827.8984 619.6219,827.8203 Q619.7781,827.7422 619.9813,827.7422 Q620.3094,827.7422 620.5594,828.0078 Q620.825,828.2578 620.825,828.6016 Q620.825,828.9453 620.4813,829.3516 Q619.9813,829.9297 619.1844,830.2578 Q618.1063,830.7109 616.8094,830.7109 Q615.2938,830.7109 614.0906,830.0859 Q613.1063,829.5859 612.4188,828.5234 Q611.7313,827.4453 611.7313,826.1641 L611.7313,825.0078 Q611.7313,823.6797 612.3406,822.5391 Q612.9656,821.3828 614.0594,820.7734 Q615.1531,820.1484 616.3875,820.1484 Q617.1219,820.1484 617.7625,820.3203 Q618.4188,820.4766 618.9656,820.8359 Z " fill="#000000"/><text fill="#000000" font-family="sans-serif" font-size="12" font-style="italic" lengthAdjust="spacing" textLength="35" x="650.8" y="821.0664">&#171;part&#187;</text><text fill="#000000" font-family="sans-serif" font-size="14" lengthAdjust="spacing" textLength="71" x="632.8" y="838.2363">ZoneAction</text><line style="stroke:#181818;stroke-width:0.5;" x1="590.5" x2="717.5" y1="846.3125" y2="846.3125"/><text fill="#000000" font-family="sans-serif" font-size="14" lengthAdjust="spacing" textLength="117" x="595.5" y="864.8457">currentZone: Zone</text><line style="stroke:#181818;stroke-width:0.5;" x1="590.5" x2="717.5" y1="871.9219" y2="871.9219"/></g><!--reverse link LineFollowerRobot to PowerSystem--><g id="link_LineFollowerRobot_PowerSystem"><path codeLine="83" d="M294.2229,255.3941 C307.2329,281.8041 315.93,299.4494 327.23,322.3994 " fill="none" id="LineFollowerRobot-backto-PowerSystem" style="stroke:#181818;stroke-width:1.0;"/><polygon fill="#181818" points="288.92,244.6294,287.9832,251.7794,294.2229,255.3941,295.1597,248.2441,288.92,244.6294" style="stroke:#181818;stroke-width:1.0;"/><text fill="#000000" font-family="sans-serif" font-size="13" lengthAdjust="spacing" textLength="20" x="312" y="289.1045">pwr</text><text fill="#000000" font-family="sans-serif" font-size="13" lengthAdjust="spacing" textLength="7" x="316.3716" y="311.8171">1</text></g><!--reverse link LineFollowerRobot to SensorSystem--><g id="link_LineFollowerRobot_SensorSystem"><path codeLine="84" d="M215.2414,256.4525 C200.9314,308.0225 195.26,363.2794 221,416.6094 C237.21,450.1994 269.73,476.4494 298.67,494.4794 " fill="none" id="LineFollowerRobot-backto-SensorSystem" style="stroke:#181818;stroke-width:1.0;"/><polygon fill="#181818" points="218.45,244.8894,212.9913,249.6014,215.2414,256.4525,220.7001,251.7405,218.45,244.8894" style="stroke:#181818;stroke-width:1.0;"/><text fill="#000000" font-family="sans-serif" font-size="13" lengthAdjust="spacing" textLength="35" x="222" y="375.1045">sense</text><text fill="#000000" font-family="sans-serif" font-size="13" lengthAdjust="spacing" textLength="7" x="278.5822" y="483.8139">1</text></g><!--reverse link LineFollowerRobot to Controller--><g id="link_LineFollowerRobot_Controller"><path codeLine="85" d="M206.5144,255.8595 C202.5044,265.8095 203.21,264.7994 200,274.6094 C156.9,406.1994 128.15,568.7694 116.65,640.5594 " fill="none" id="LineFollowerRobot-backto-Controller" style="stroke:#181818;stroke-width:1.0;"/><polygon fill="#181818" points="211,244.7294,205.0472,248.7992,206.5144,255.8595,212.4672,251.7896,211,244.7294" style="stroke:#181818;stroke-width:1.0;"/><text fill="#000000" font-family="sans-serif" font-size="13" lengthAdjust="spacing" textLength="18" x="154" y="461.1045">ctrl</text><text fill="#000000" font-family="sans-serif" font-size="13" lengthAdjust="spacing" textLength="7" x="110.033" y="629.8553">1</text></g><!--reverse link LineFollowerRobot to MotorSystem--><g id="link_LineFollowerRobot_MotorSystem"><path codeLine="86" d="M426.1258,250.6258 C563.2758,328.1758 736.07,453.6994 809,631.6094 C861.1,758.7194 821.12,834.6194 720,927.6094 C698.2,947.6594 670.81,964.7194 645.19,978.1794 " fill="none" id="LineFollowerRobot-backto-MotorSystem" style="stroke:#181818;stroke-width:1.0;"/><polygon fill="#181818" points="415.68,244.7194,418.9341,251.1545,426.1258,250.6258,422.8717,244.1907,415.68,244.7194" style="stroke:#181818;stroke-width:1.0;"/><text fill="#000000" font-family="sans-serif" font-size="13" lengthAdjust="spacing" textLength="40" x="794" y="598.1045">motors</text><text fill="#000000" font-family="sans-serif" font-size="13" lengthAdjust="spacing" textLength="7" x="653.0714" y="971.5742">1</text></g><!--reverse link SensorSystem to IRSensor--><g id="link_SensorSystem_IRSensor"><path codeLine="88" d="M339.5727,564.982 C331.1327,586.812 323.66,606.1094 313.89,631.3694 " fill="none" id="SensorSystem-backto-IRSensor" style="stroke:#181818;stroke-width:1.0;"/><polygon fill="#181818" points="343.9,553.7894,338.0055,557.9432,339.5727,564.982,345.4672,560.8281,343.9,553.7894" style="stroke:#181818;stroke-width:1.0;"/><text fill="#000000" font-family="sans-serif" font-size="13" lengthAdjust="spacing" textLength="7" x="331" y="598.1045">ir</text><text fill="#000000" font-family="sans-serif" font-size="13" lengthAdjust="spacing" textLength="22" x="292.902" y="620.7827">2..8</text></g><!--reverse link SensorSystem to UltrasonicSensor--><g id="link_SensorSystem_UltrasonicSensor"><path codeLine="89" d="M382.0203,563.614 C397.3303,585.444 411.83,606.1094 429.56,631.3694 " fill="none" id="SensorSystem-backto-UltrasonicSensor" style="stroke:#181818;stroke-width:1.0;"/><polygon fill="#181818" points="375.13,553.7894,375.3003,560.9985,382.0203,563.614,381.85,556.4049,375.13,553.7894" style="stroke:#181818;stroke-width:1.0;"/><text fill="#000000" font-family="sans-serif" font-size="13" lengthAdjust="spacing" textLength="14" x="409" y="598.1045">us</text><text fill="#000000" font-family="sans-serif" font-size="13" lengthAdjust="spacing" textLength="7" x="417.2813" y="620.7827">1</text></g><!--reverse link SensorSystem to ColorSensor--><g id="link_SensorSystem_ColorSensor"><path codeLine="90" d="M421.5806,559.0701 C469.7506,583.6301 528.93,613.8194 581.42,640.5894 " fill="none" id="SensorSystem-backto-ColorSensor" style="stroke:#181818;stroke-width:1.0;"/><polygon fill="#181818" points="410.89,553.6194,414.4184,559.9083,421.5806,559.0701,418.0522,552.7812,410.89,553.6194" style="stroke:#181818;stroke-width:1.0;"/><text fill="#000000" font-family="sans-serif" font-size="13" lengthAdjust="spacing" textLength="14" x="505" y="598.1045">cs</text><text fill="#000000" font-family="sans-serif" font-size="13" lengthAdjust="spacing" textLength="7" x="560.8683" y="629.8907">1</text></g><!--reverse link Controller to LineFollowing--><g id="link_Controller_LineFollowing"><path codeLine="92" d="M111.8703,728.7815 C113.5503,747.5415 117.39,757.6894 130,773.6094 C144.63,792.0794 165.51,805.6594 186.92,815.5594 " fill="none" id="Controller-backto-LineFollowing" style="stroke:#181818;stroke-width:1.0;"/><polygon fill="#181818" points="110.8,716.8294,107.3511,723.1622,111.8703,728.7815,115.3192,722.4487,110.8,716.8294" style="stroke:#181818;stroke-width:1.0;"/><text fill="#000000" font-family="sans-serif" font-size="13" lengthAdjust="spacing" textLength="6" x="131" y="770.1045">lf</text><text fill="#000000" font-family="sans-serif" font-size="13" lengthAdjust="spacing" textLength="7" x="171.9639" y="810.13">1</text></g><!--reverse link Controller to ObstacleAvoidance--><g id="link_Controller_ObstacleAvoidance"><path codeLine="93" d="M133.2812,727.6032 C144.1312,747.6532 154.58,760.3294 176,773.6094 C255.01,822.5794 293.15,779.7594 383,803.6094 C391.81,805.9494 400.93,808.8694 409.85,812.0294 " fill="none" id="Controller-backto-ObstacleAvoidance" style="stroke:#181818;stroke-width:1.0;"/><polygon fill="#181818" points="127.57,717.0494,126.9076,724.23,133.2812,727.6032,133.9435,720.4226,127.57,717.0494" style="stroke:#181818;stroke-width:1.0;"/><text fill="#000000" font-family="sans-serif" font-size="13" lengthAdjust="spacing" textLength="14" x="177" y="770.1045">oa</text><text fill="#000000" font-family="sans-serif" font-size="13" lengthAdjust="spacing" textLength="7" x="387.3953" y="801.3748">1</text></g><!--reverse link Controller to ZoneAction--><g id="link_Controller_ZoneAction"><path codeLine="94" d="M166.7594,723.7048 C194.8194,744.1448 222.66,760.8494 260,773.6094 C391.82,818.6594 437.37,767.8194 572,803.6094 C577.74,805.1294 583.58,807.0194 589.36,809.1294 " fill="none" id="Controller-backto-ZoneAction" style="stroke:#181818;stroke-width:1.0;"/><polygon fill="#181818" points="157.06,716.6394,159.5546,723.4053,166.7594,723.7048,164.2649,716.939,157.06,716.6394" style="stroke:#181818;stroke-width:1.0;"/><text fill="#000000" font-family="sans-serif" font-size="13" lengthAdjust="spacing" textLength="14" x="261" y="770.1045">za</text><text fill="#000000" font-family="sans-serif" font-size="13" lengthAdjust="spacing" textLength="7" x="574.4813" y="801.9463">1</text></g><!--link PowerSystem to Controller--><g id="link_PowerSystem_Controller"><path codeLine="97" d="M306.95,416.6494 C286.1,439.5594 261.08,467.9894 240,494.6094 C201.39,543.3694 163.9819,597.6695 138.8619,635.2895 " fill="none" id="PowerSystem-to-Controller" style="stroke:#181818;stroke-width:1.0;"/><polygon fill="#181818" points="135.53,640.2794,143.8544,635.0158,138.3066,636.1212,137.2012,630.5733,135.53,640.2794" style="stroke:#181818;stroke-width:1.0;"/><text fill="#000000" font-family="sans-serif" font-size="13" lengthAdjust="spacing" textLength="34" x="241" y="529.6045">power</text></g><!--link PowerSystem to SensorSystem--><g id="link_PowerSystem_SensorSystem"><path codeLine="98" d="M351.51,416.7794 C352.34,442.0294 353.1424,466.5126 353.8624,488.3626 " fill="none" id="PowerSystem-to-SensorSystem" style="stroke:#181818;stroke-width:1.0;"/><polygon fill="#181818" points="354.06,494.3594,357.7614,485.2325,353.8953,489.3621,349.7658,485.496,354.06,494.3594" style="stroke:#181818;stroke-width:1.0;"/><text fill="#000000" font-family="sans-serif" font-size="13" lengthAdjust="spacing" textLength="34" x="353" y="461.1045">power</text></g><!--link PowerSystem to MotorSystem--><g id="link_PowerSystem_MotorSystem"><path codeLine="99" d="M425.23,393.4894 C522.57,427.6294 688.05,502.1594 759,631.6094 C782.45,674.3994 738.01,874.8894 736,879.6094 C718.61,920.4694 685.9849,948.8305 650.4849,970.9105 " fill="none" id="PowerSystem-to-MotorSystem" style="stroke:#181818;stroke-width:1.0;"/><polygon fill="#181818" points="645.39,974.0794,655.145,972.7226,649.6358,971.4386,650.9198,965.9294,645.39,974.0794" style="stroke:#181818;stroke-width:1.0;"/><text fill="#000000" font-family="sans-serif" font-size="13" lengthAdjust="spacing" textLength="34" x="766" y="684.1045">power</text></g><!--link SensorSystem to Controller--><g id="link_SensorSystem_Controller"><path codeLine="101" d="M300.79,553.7594 C284,562.9694 265.56,573.4294 249,583.6094 C219.98,601.4494 193.4533,619.28 167.9133,637.07 " fill="none" id="SensorSystem-to-Controller" style="stroke:#181818;stroke-width:1.0;"/><polygon fill="#181818" points="162.99,640.4994,172.6613,638.6375,167.0928,637.6416,168.0888,632.0731,162.99,640.4994" style="stroke:#181818;stroke-width:1.0;"/><text fill="#000000" font-family="sans-serif" font-size="13" lengthAdjust="spacing" textLength="66" x="250" y="598.1045">sensorData</text></g><!--link IRSensor to LineFollowing--><g id="link_IRSensor_LineFollowing"><path codeLine="102" d="M290.27,725.7494 C287.21,750.3694 284.2414,774.3154 281.3614,797.4454 " fill="none" id="IRSensor-to-LineFollowing" style="stroke:#181818;stroke-width:1.0;"/><polygon fill="#181818" points="280.62,803.3994,285.7014,794.9626,281.2378,798.4377,277.7627,793.9741,280.62,803.3994" style="stroke:#181818;stroke-width:1.0;"/><text fill="#000000" font-family="sans-serif" font-size="13" lengthAdjust="spacing" textLength="47" x="287" y="770.1045">lineData</text></g><!--link UltrasonicSensor to ObstacleAvoidance--><g id="link_UltrasonicSensor_ObstacleAvoidance"><path codeLine="103" d="M466.3,725.7494 C468.88,753.4394 471.5226,781.8253 473.7526,805.7253 " fill="none" id="UltrasonicSensor-to-ObstacleAvoidance" style="stroke:#181818;stroke-width:1.0;"/><polygon fill="#181818" points="474.31,811.6994,477.4566,802.3667,473.8455,806.721,469.4912,803.1099,474.31,811.6994" style="stroke:#181818;stroke-width:1.0;"/><text fill="#000000" font-family="sans-serif" font-size="13" lengthAdjust="spacing" textLength="76" x="471" y="770.1045">obstacleData</text></g><!--link ColorSensor to ZoneAction--><g id="link_ColorSensor_ZoneAction"><path codeLine="104" d="M654,716.9494 C654,742.9594 654,771.5094 654,797.4694 " fill="none" id="ColorSensor-to-ZoneAction" style="stroke:#181818;stroke-width:1.0;"/><polygon fill="#181818" points="654,803.4694,658,794.4694,654,798.4694,650,794.4694,654,803.4694" style="stroke:#181818;stroke-width:1.0;"/><text fill="#000000" font-family="sans-serif" font-size="13" lengthAdjust="spacing" textLength="55" x="655" y="770.1045">colorData</text></g><!--link Controller to MotorSystem--><g id="link_Controller_MotorSystem"><path codeLine="106" d="M96.89,716.9494 C83.05,760.5594 68.69,832.6994 104,879.6094 C150.05,940.7894 361.5327,981.668 480.9827,1000.438 " fill="none" id="Controller-to-MotorSystem" style="stroke:#181818;stroke-width:1.0;"/><polygon fill="#181818" points="486.91,1001.3694,478.64,996.0208,481.9706,1000.5932,477.3982,1003.9238,486.91,1001.3694" style="stroke:#181818;stroke-width:1.0;"/><text fill="#000000" font-family="sans-serif" font-size="13" lengthAdjust="spacing" textLength="64" x="105" y="847.1045">commands</text></g><!--link LineFollowing to MotorSystem--><g id="link_LineFollowing_MotorSystem"><path codeLine="107" d="M339.28,879.7094 C382.61,905.1094 435.2241,935.9446 481.6141,963.1446 " fill="none" id="LineFollowing-to-MotorSystem" style="stroke:#181818;stroke-width:1.0;"/><polygon fill="#181818" points="486.79,966.1794,481.0493,958.1766,482.4767,963.6504,477.0029,965.0778,486.79,966.1794" style="stroke:#181818;stroke-width:1.0;"/><text fill="#000000" font-family="sans-serif" font-size="13" lengthAdjust="spacing" textLength="72" x="422" y="924.1045">speedAdjust</text></g><!--link ObstacleAvoidance to MotorSystem--><g id="link_ObstacleAvoidance_MotorSystem"><path codeLine="108" d="M487.3,871.1194 C493.71,887.8894 502.52,909.3294 512,927.6094 C517.07,937.3894 519.7743,942.384 525.7143,952.074 " fill="none" id="ObstacleAvoidance-to-MotorSystem" style="stroke:#181818;stroke-width:1.0;"/><polygon fill="#181818" points="528.85,957.1894,527.5566,947.4258,526.2369,952.9266,520.7361,951.6068,528.85,957.1894" style="stroke:#181818;stroke-width:1.0;"/><text fill="#000000" font-family="sans-serif" font-size="13" lengthAdjust="spacing" textLength="88" x="513" y="924.1045">turnCommands</text></g><!--link ZoneAction to MotorSystem--><g id="link_ZoneAction_MotorSystem"><path codeLine="109" d="M634.69,879.9194 C622.95,902.5894 610.5079,926.6307 597.3879,951.9807 " fill="none" id="ZoneAction-to-MotorSystem" style="stroke:#181818;stroke-width:1.0;"/><polygon fill="#181818" points="594.63,957.3094,602.3192,951.155,596.9282,952.8689,595.2144,947.4779,594.63,957.3094" style="stroke:#181818;stroke-width:1.0;"/><text fill="#000000" font-family="sans-serif" font-size="13" lengthAdjust="spacing" textLength="72" x="618" y="924.1045">zoneActions</text></g><!--SRC=[XLPRRvj857xthpZAYtTNJgNTfnMA8c5C6ZQkGHWtQgeg6c1YpnOptfd1RLBrl-yPXi1WS8CK1y_vpkqxbx5Ygg2GvZbydXSy-meB-iHAfXWlOS78Lf3z5rYoajxmek3Vg8XvoXMap-0MHpQP74ZsbMmfN91CDIR6y9_dT4UEZ8ilhweNy6Co0Nocy86m4bAjMXza1P5onCRLLOsvlaPDQ9ufk4e9bbQAolRme7KSc7DUK5A2zJI-QW18HHHjbUIpL7JlPeeTQLzt2kjQ1ln01T7CaE94sOedV0LryTHyaeAzqDz-1-Z74w3CUNM0HeMg3Y3fVnKjiyv-XjefcgLhMaekP6Td2Xuf7FrX040A3CwWEa84pwYKGNcebEp5C8KeS20oyaOFuzMuJfkA9ovgQZ0hMnsrNGVyxpH3_Y6dYeezbYq7alKPiFY9C4LmqrJG8plXQGg7RrYtgAwEeSIIwU2mCeQ1eJXJGlF0IoMmQwYmH7kka0q7FkZ_fveMRa4KWUJvGEsG37ojo-t0Zs0L93Fmt6KmZzqa25Spk0cNo_0-MBsVWVin31RrsqEuyXzTpo3yE0xZdvRDEf1NapTXVE_6YnaactXLAw-JC8fyF74N_spM2PxPoeO07IkIeKILgKfGo31nR6rMRgqE0459ZaTsFXulkD19eklvqlNkPd1_6oJ-36Bjydti-nZoVBd1aq- -JcteFEAotX1eOkdV98_X9l7Z6TJlmMgbtpr_LP_5mVlRzj1ygT6sqIXOODsUs1RjtKKpk0lm3sEHL4MSbQeNWD9Tldr6gERhKViqr3tMrcUmUTJVC2itI6nDjzXomTHkhnDtru4tquwnVfk7Xq-Qwu_kolCNjie3BpLDwyIDTTLlVUyk2eCLleTpFFIMoD72zuArQGHiZlMjqJUVzdxB-Fw0vifciCoIgrkz6VwhgmEEHc-xfKJXI3qlwP5YRzyKdAZ-ajCzLCbsNPswDavCpSQz3C3T08q5b5L2O0fDwrgZCMxCzFdPz0hwfDO7IdC7ro0MrHfQmRQxSxAzDJtT90rfRpQ5h5ApsstYWxYHZeHr94L5XsxLJb2vuyL9H8EaDmMsgEGboywxo1ckUbpmfqMrV7I2aHhX2F_2EExXJD6yXZdTm0yPieezob9t1-kzCk8A1mZtETdhpOzjs0xoUDnXYbbd1NMFdEKw_JUxKG-WkNT-qOrcIlNdM8OuTMPPuJ8ip8MpOmUJvV0tnX-Nbt3nvqLlC1rzBRs1xysOO-wgDrGiyftwzde3Rm-JqznfNQgz06gLlzwz-_kYQtG7c3Y3HEE3fdMWakVXTWTYy5OSLbQlu7uNEL0ydKCE6yG1JiwXhUPmu8MSD7P9ipDLjsjxUNdTBqIzLaTX9oK-3-mNgiCDwHnub-tTNeFRucdWW4RytY87zTCQetGsPwscNKgjr6Crqy8MUbg8OR9uoUr9cPzEbmvu29PwlRlvlvKqUsuOxb07V-kKdkt42dU8Vcc5Sl9pyZy0]--></g></svg>