<?xml version="1.0" encoding="us-ascii" standalone="no"?><svg xmlns="http://www.w3.org/2000/svg" xmlns:xlink="http://www.w3.org/1999/xlink" contentStyleType="text/css" height="764px" preserveAspectRatio="none" style="width:1057px;height:764px;background:#FFFFFF;" version="1.1" viewBox="0 0 1057 764" width="1057px" zoomAndPan="magnify"><defs/><g><text fill="#000000" font-family="sans-serif" font-size="14" font-weight="bold" lengthAdjust="spacing" textLength="400" x="321.5" y="24.5332">Line Follower Robot - Internal Block Diagram (IBD) by Alvi</text><!--cluster ibd [Block] LineFollowerRobot [Internal Structure] by Alvi--><g id="cluster_ibd [Block] LineFollowerRobot [Internal Structure] by Alvi"><path d="M8.5,44.6094 L409.5,44.6094 A3.75,3.75 0 0 1 412,47.1094 L419,68.2188 L1047.5,68.2188 A2.5,2.5 0 0 1 1050,70.7188 L1050,755.1094 A2.5,2.5 0 0 1 1047.5,757.6094 L8.5,757.6094 A2.5,2.5 0 0 1 6,755.1094 L6,47.1094 A2.5,2.5 0 0 1 8.5,44.6094 " fill="none" style="stroke:#000000;stroke-width:1.5;"/><line style="stroke:#000000;stroke-width:1.5;" x1="6" x2="419" y1="68.2188" y2="68.2188"/><text fill="#000000" font-family="sans-serif" font-size="14" font-weight="bold" lengthAdjust="spacing" textLength="400" x="10" y="61.1426">ibd [Block] LineFollowerRobot [Internal Structure] by Alvi</text></g><!--entity Robot--><g id="elem_Robot"><rect fill="#FFFFFF" height="47.6719" rx="7.5" ry="7.5" style="stroke:#000000;stroke-width:0.5;" width="110" x="470" y="80.6094"/><text fill="#008800" font-family="sans-serif" font-size="11" font-style="italic" lengthAdjust="spacing" textLength="40" x="505" y="102.0283">&#171;block&#187;</text><text fill="#000000" font-family="sans-serif" font-size="11" lengthAdjust="spacing" textLength="90" x="480" y="115.8643">LineFollowerRobot</text></g><!--entity IR1--><g id="elem_IR1"><rect fill="#FFFFFF" height="47.6719" rx="7.5" ry="7.5" style="stroke:#000000;stroke-width:0.5;" width="76" x="710" y="567.6094"/><text fill="#008800" font-family="sans-serif" font-size="11" font-style="italic" lengthAdjust="spacing" textLength="40" x="728" y="589.0283">&#171;block&#187;</text><text fill="#000000" font-family="sans-serif" font-size="11" lengthAdjust="spacing" textLength="56" x="720" y="602.8643">IR Sensor 1</text></g><!--entity IR2--><g id="elem_IR2"><rect fill="#FFFFFF" height="47.6719" rx="7.5" ry="7.5" style="stroke:#000000;stroke-width:0.5;" width="76" x="849" y="567.6094"/><text fill="#008800" font-family="sans-serif" font-size="11" font-style="italic" lengthAdjust="spacing" textLength="40" x="867" y="589.0283">&#171;block&#187;</text><text fill="#000000" font-family="sans-serif" font-size="11" lengthAdjust="spacing" textLength="56" x="859" y="602.8643">IR Sensor 2</text></g><!--entity Ultrasonic--><g id="elem_Ultrasonic"><rect fill="#FFFFFF" height="47.6719" rx="7.5" ry="7.5" style="stroke:#000000;stroke-width:0.5;" width="68" x="370" y="567.6094"/><text fill="#008800" font-family="sans-serif" font-size="11" font-style="italic" lengthAdjust="spacing" textLength="40" x="384" y="589.0283">&#171;block&#187;</text><text fill="#000000" font-family="sans-serif" font-size="11" lengthAdjust="spacing" textLength="48" x="380" y="602.8643">Ultrasonic</text></g><!--entity Color--><g id="elem_Color"><rect fill="#FFFFFF" height="47.6719" rx="7.5" ry="7.5" style="stroke:#000000;stroke-width:0.5;" width="83" x="59.5" y="567.6094"/><text fill="#008800" font-family="sans-serif" font-size="11" font-style="italic" lengthAdjust="spacing" textLength="40" x="81" y="589.0283">&#171;block&#187;</text><text fill="#000000" font-family="sans-serif" font-size="11" lengthAdjust="spacing" textLength="63" x="69.5" y="602.8643">Color Sensor</text></g><!--entity MotorL--><g id="elem_MotorL"><rect fill="#FFFFFF" height="47.6719" rx="7.5" ry="7.5" style="stroke:#000000;stroke-width:0.5;" width="69" x="177.5" y="567.6094"/><text fill="#008800" font-family="sans-serif" font-size="11" font-style="italic" lengthAdjust="spacing" textLength="40" x="192" y="589.0283">&#171;block&#187;</text><text fill="#000000" font-family="sans-serif" font-size="11" lengthAdjust="spacing" textLength="49" x="187.5" y="602.8643">Motor Left</text></g><!--entity MotorR--><g id="elem_MotorR"><rect fill="#FFFFFF" height="47.6719" rx="7.5" ry="7.5" style="stroke:#000000;stroke-width:0.5;" width="74" x="601" y="567.6094"/><text fill="#008800" font-family="sans-serif" font-size="11" font-style="italic" lengthAdjust="spacing" textLength="40" x="618" y="589.0283">&#171;block&#187;</text><text fill="#000000" font-family="sans-serif" font-size="11" lengthAdjust="spacing" textLength="54" x="611" y="602.8643">Motor Right</text></g><!--entity WheelL--><g id="elem_WheelL"><rect fill="#FFFFFF" height="47.6719" rx="7.5" ry="7.5" style="stroke:#000000;stroke-width:0.5;" width="72" x="61" y="693.6094"/><text fill="#008800" font-family="sans-serif" font-size="11" font-style="italic" lengthAdjust="spacing" textLength="40" x="77" y="715.0283">&#171;block&#187;</text><text fill="#000000" font-family="sans-serif" font-size="11" lengthAdjust="spacing" textLength="52" x="71" y="728.8643">Wheel Left</text></g><!--entity WheelR--><g id="elem_WheelR"><rect fill="#FFFFFF" height="47.6719" rx="7.5" ry="7.5" style="stroke:#000000;stroke-width:0.5;" width="77" x="866.5" y="693.6094"/><text fill="#008800" font-family="sans-serif" font-size="11" font-style="italic" lengthAdjust="spacing" textLength="40" x="885" y="715.0283">&#171;block&#187;</text><text fill="#000000" font-family="sans-serif" font-size="11" lengthAdjust="spacing" textLength="57" x="876.5" y="728.8643">Wheel Right</text></g><!--entity Caster--><g id="elem_Caster"><rect fill="#FFFFFF" height="47.6719" rx="7.5" ry="7.5" style="stroke:#000000;stroke-width:0.5;" width="60" x="852" y="189.6094"/><text fill="#008800" font-family="sans-serif" font-size="11" font-style="italic" lengthAdjust="spacing" textLength="40" x="862" y="211.0283">&#171;block&#187;</text><text fill="#000000" font-family="sans-serif" font-size="11" lengthAdjust="spacing" textLength="32" x="866" y="224.8643">Caster</text></g><!--entity Arduino--><g id="elem_Arduino"><rect fill="#FFFFFF" height="47.6719" rx="7.5" ry="7.5" style="stroke:#000000;stroke-width:0.5;" width="80" x="382" y="441.6094"/><text fill="#008800" font-family="sans-serif" font-size="11" font-style="italic" lengthAdjust="spacing" textLength="40" x="402" y="463.0283">&#171;block&#187;</text><text fill="#000000" font-family="sans-serif" font-size="11" lengthAdjust="spacing" textLength="60" x="392" y="476.8643">Arduino Uno</text></g><!--entity Battery--><g id="elem_Battery"><rect fill="#FFFFFF" height="47.6719" rx="7.5" ry="7.5" style="stroke:#000000;stroke-width:0.5;" width="60" x="542" y="189.6094"/><text fill="#008800" font-family="sans-serif" font-size="11" font-style="italic" lengthAdjust="spacing" textLength="40" x="552" y="211.0283">&#171;block&#187;</text><text fill="#000000" font-family="sans-serif" font-size="11" lengthAdjust="spacing" textLength="35" x="554.5" y="224.8643">Battery</text></g><!--entity Breadboard--><g id="elem_Breadboard"><rect fill="#FFFFFF" height="47.6719" rx="7.5" ry="7.5" style="stroke:#000000;stroke-width:0.5;" width="77" x="493.5" y="315.6094"/><text fill="#008800" font-family="sans-serif" font-size="11" font-style="italic" lengthAdjust="spacing" textLength="40" x="512" y="337.0283">&#171;block&#187;</text><text fill="#000000" font-family="sans-serif" font-size="11" lengthAdjust="spacing" textLength="57" x="503.5" y="350.8643">Breadboard</text></g><!--reverse link Robot to Arduino--><g id="link_Robot_Arduino"><path d="M515.0906,140.144 C496.5306,204.834 447.33,376.3094 428.68,441.3294 " fill="none" id="Robot-backto-Arduino" style="stroke:#000000;stroke-width:1.0;"/><polygon fill="#000000" points="518.4,128.6094,512.9004,133.2736,515.0906,140.144,520.5902,135.4798,518.4,128.6094" style="stroke:#000000;stroke-width:1.0;"/></g><!--reverse link Robot to IR1--><g id="link_Robot_IR1"><path d="M592.3947,108.3058 C709.3947,114.2258 959,135.4894 959,212.6094 C959,212.6094 959,212.6094 959,466.6094 C959,506.2294 847.01,553.9294 786.21,576.9194 " fill="none" id="Robot-backto-IR1" style="stroke:#000000;stroke-width:1.0;"/><polygon fill="#000000" points="580.41,107.6994,586.2002,111.9975,592.3947,108.3058,586.6045,104.0077,580.41,107.6994" style="stroke:#000000;stroke-width:1.0;"/></g><!--reverse link Robot to IR2--><g id="link_Robot_IR2"><path d="M592.4045,106.9826 C716.9145,110.7526 996,128.2294 996,212.6094 C996,212.6094 996,212.6094 996,466.6094 C996,510.7494 956.56,546.6594 925.12,568.2594 " fill="none" id="Robot-backto-IR2" style="stroke:#000000;stroke-width:1.0;"/><polygon fill="#000000" points="580.41,106.6194,586.2862,110.7991,592.4045,106.9826,586.5283,102.8028,580.41,106.6194" style="stroke:#000000;stroke-width:1.0;"/></g><!--reverse link Robot to Ultrasonic--><g id="link_Robot_Ultrasonic"><path d="M457.9099,116.9406 C375.0299,132.2606 240,164.0494 240,212.6094 C240,212.6094 240,212.6094 240,403.6094 C240,441.8994 228.77,454.9394 245,489.6094 C253.27,507.2694 262.81,506.2394 277,519.6094 C285.47,527.5894 286.45,530.9694 296,537.6094 C319.15,553.6994 347.92,567.5594 369.94,577.0694 " fill="none" id="Robot-backto-Ultrasonic" style="stroke:#000000;stroke-width:1.0;"/><polygon fill="#000000" points="469.71,114.7594,463.0829,111.9166,457.9099,116.9406,464.537,119.7833,469.71,114.7594" style="stroke:#000000;stroke-width:1.0;"/></g><!--reverse link Robot to Color--><g id="link_Robot_Color"><path d="M457.8366,107.1776 C334.6666,111.2676 60,129.3594 60,212.6094 C60,212.6094 60,212.6094 60,466.6094 C60,503.3394 76.42,543.2394 88.48,567.5894 " fill="none" id="Robot-backto-Color" style="stroke:#000000;stroke-width:1.0;"/><polygon fill="#000000" points="469.83,106.7794,463.7006,102.9807,457.8366,107.1776,463.9661,110.9763,469.83,106.7794" style="stroke:#000000;stroke-width:1.0;"/></g><!--reverse link Robot to MotorL--><g id="link_Robot_MotorL"><path d="M457.9376,108.5183 C342.3476,114.7783 97,136.5894 97,212.6094 C97,212.6094 97,212.6094 97,403.6094 C97,471.0694 151.97,534.6394 185.9,567.4494 " fill="none" id="Robot-backto-MotorL" style="stroke:#000000;stroke-width:1.0;"/><polygon fill="#000000" points="469.92,107.8694,463.7125,104.1997,457.9376,108.5183,464.1451,112.188,469.92,107.8694" style="stroke:#000000;stroke-width:1.0;"/></g><!--reverse link Robot to MotorR--><g id="link_Robot_MotorR"><path d="M591.8973,116.3952 C676.2573,131.2852 816,162.8894 816,212.6094 C816,212.6094 816,212.6094 816,403.6094 C816,484.5094 727.51,544.2894 675.31,572.5194 " fill="none" id="Robot-backto-MotorR" style="stroke:#000000;stroke-width:1.0;"/><polygon fill="#000000" points="580.08,114.3094,585.2934,119.2914,591.8973,116.3952,586.6839,111.4132,580.08,114.3094" style="stroke:#000000;stroke-width:1.0;"/></g><!--reverse link Robot to WheelL--><g id="link_Robot_WheelL"><path d="M457.8414,106.0143 C327.4414,108.0243 23,122.0494 23,212.6094 C23,212.6094 23,212.6094 23,592.6094 C23,632.2194 51.19,670.1694 72.77,693.4194 " fill="none" id="Robot-backto-WheelL" style="stroke:#000000;stroke-width:1.0;"/><polygon fill="#000000" points="469.84,105.8294,463.7791,101.9223,457.8414,106.0143,463.9024,109.9214,469.84,105.8294" style="stroke:#000000;stroke-width:1.0;"/></g><!--reverse link Robot to WheelR--><g id="link_Robot_WheelR"><path d="M592.329,105.8434 C723.989,107.5334 1033,120.8994 1033,212.6094 C1033,212.6094 1033,212.6094 1033,592.6094 C1033,642.8894 981.43,679.2994 943.75,699.1894 " fill="none" id="Robot-backto-WheelR" style="stroke:#000000;stroke-width:1.0;"/><polygon fill="#000000" points="580.33,105.6894,586.2782,109.7661,592.329,105.8434,586.3808,101.7667,580.33,105.6894" style="stroke:#000000;stroke-width:1.0;"/></g><!--reverse link Robot to Caster--><g id="link_Robot_Caster"><path d="M592.2406,106.4548 C654.7906,108.9348 746.23,118.9294 825,158.6094 C839.73,166.0294 853.27,178.4994 863.45,189.5894 " fill="none" id="Robot-backto-Caster" style="stroke:#000000;stroke-width:1.0;"/><polygon fill="#000000" points="580.25,105.9794,586.0868,110.2139,592.2406,106.4548,586.4038,102.2202,580.25,105.9794" style="stroke:#000000;stroke-width:1.0;"/></g><!--reverse link Robot to Battery--><g id="link_Robot_Battery"><path d="M540.0259,139.8162 C547.9059,157.7562 553.94,171.4994 561.82,189.4394 " fill="none" id="Robot-backto-Battery" style="stroke:#000000;stroke-width:1.0;"/><polygon fill="#000000" points="535.2,128.8294,533.9507,135.9314,540.0259,139.8162,541.2752,132.7142,535.2,128.8294" style="stroke:#000000;stroke-width:1.0;"/></g><!--reverse link Robot to Breadboard--><g id="link_Robot_Breadboard"><path d="M524.31,140.9877 C523.87,167.3777 523.68,199.5894 525,237.6094 C525.92,264.3094 528.22,294.9094 529.93,315.3694 " fill="none" id="Robot-backto-Breadboard" style="stroke:#000000;stroke-width:1.0;"/><polygon fill="#000000" points="524.51,128.9894,520.4105,134.9219,524.31,140.9877,528.4094,135.0552,524.51,128.9894" style="stroke:#000000;stroke-width:1.0;"/></g><!--link Arduino to IR1--><g id="link_Arduino_IR1"><path d="M462.29,480.7694 C471.07,483.7594 480.33,486.8494 489,489.6094 C534.02,503.9494 546.7,503.1694 591,519.6094 C632.51,535.0094 673.1025,553.7188 704.5125,568.9688 " fill="none" id="Arduino-to-IR1" style="stroke:#000000;stroke-width:1.0;"/><polygon fill="#000000" points="709.91,571.5894,703.5608,564.0602,705.4121,569.4056,700.0668,571.2569,709.91,571.5894" style="stroke:#000000;stroke-width:1.0;"/><text fill="#000000" font-family="sans-serif" font-size="13" lengthAdjust="spacing" textLength="39" x="635" y="534.1045">control</text></g><!--link Arduino to IR2--><g id="link_Arduino_IR2"><path d="M462.04,481.6494 C470.84,484.5894 480.16,487.4294 489,489.6094 C573.7,510.5194 598.34,498.5194 683,519.6094 C742.13,534.3394 802.8109,556.7717 843.3209,572.8017 " fill="none" id="Arduino-to-IR2" style="stroke:#000000;stroke-width:1.0;"/><polygon fill="#000000" points="848.9,575.0094,842.0032,567.9785,844.2508,573.1696,839.0596,575.4173,848.9,575.0094" style="stroke:#000000;stroke-width:1.0;"/><text fill="#000000" font-family="sans-serif" font-size="13" lengthAdjust="spacing" textLength="39" x="740" y="534.1045">control</text></g><!--link Arduino to Ultrasonic--><g id="link_Arduino_Ultrasonic"><path d="M410.62,489.7794 C406.76,498.8594 402.93,509.4994 401,519.6094 C397.99,535.3594 398.1521,547.4656 399.6921,561.4256 " fill="none" id="Arduino-to-Ultrasonic" style="stroke:#000000;stroke-width:1.0;"/><polygon fill="#000000" points="400.35,567.3894,403.339,558.005,399.8017,562.4195,395.3873,558.8822,400.35,567.3894" style="stroke:#000000;stroke-width:1.0;"/><text fill="#000000" font-family="sans-serif" font-size="13" lengthAdjust="spacing" textLength="39" x="402" y="534.1045">control</text></g><!--link Arduino to Color--><g id="link_Arduino_Color"><path d="M381.7,480.7294 C372.92,483.7294 363.66,486.8194 355,489.6094 C310.83,503.8094 298.4,503.1894 255,519.6094 C216.17,534.2994 178.7844,551.7021 148.1944,566.7421 " fill="none" id="Arduino-to-Color" style="stroke:#000000;stroke-width:1.0;"/><polygon fill="#000000" points="142.81,569.3894,152.6515,569.008,147.297,567.1833,149.1217,561.8288,142.81,569.3894" style="stroke:#000000;stroke-width:1.0;"/><text fill="#000000" font-family="sans-serif" font-size="13" lengthAdjust="spacing" textLength="39" x="256" y="534.1045">control</text></g><!--link Arduino to MotorL--><g id="link_Arduino_MotorL"><path d="M382.99,489.6394 C343.85,512.7594 289.2965,544.9685 251.7865,567.1185 " fill="none" id="Arduino-to-MotorL" style="stroke:#000000;stroke-width:1.0;"/><polygon fill="#000000" points="246.62,570.1694,256.4036,569.0374,250.9254,567.627,252.3358,562.1488,246.62,570.1694" style="stroke:#000000;stroke-width:1.0;"/><text fill="#000000" font-family="sans-serif" font-size="13" lengthAdjust="spacing" textLength="39" x="330" y="534.1045">control</text></g><!--link Arduino to MotorR--><g id="link_Arduino_MotorR"><path d="M462.12,489.6394 C501.89,512.4794 557.1163,544.1825 595.7763,566.3725 " fill="none" id="Arduino-to-MotorR" style="stroke:#000000;stroke-width:1.0;"/><polygon fill="#000000" points="600.98,569.3594,595.1656,561.41,596.6436,566.8703,591.1832,568.3483,600.98,569.3594" style="stroke:#000000;stroke-width:1.0;"/><text fill="#000000" font-family="sans-serif" font-size="13" lengthAdjust="spacing" textLength="39" x="543" y="534.1045">control</text></g><!--link Battery to Breadboard--><g id="link_Battery_Breadboard"><path d="M564.57,237.6394 C557.43,259.7794 548.5418,287.3391 541.3718,309.5691 " fill="none" id="Battery-to-Breadboard" style="stroke:#000000;stroke-width:1.0;"/><polygon fill="#000000" points="539.53,315.2794,546.0996,307.9417,541.0648,310.5208,538.4858,305.486,539.53,315.2794" style="stroke:#000000;stroke-width:1.0;"/><text fill="#000000" font-family="sans-serif" font-size="13" lengthAdjust="spacing" textLength="27" x="555" y="282.1045">7.4V</text></g><!--link Breadboard to Arduino--><g id="link_Breadboard_Arduino"><path d="M511.57,363.6394 C491.93,385.7794 466.4017,414.5609 446.6817,436.7909 " fill="none" id="Breadboard-to-Arduino" style="stroke:#000000;stroke-width:1.0;"/><polygon fill="#000000" points="442.7,441.2794,451.6648,437.2011,446.0181,437.539,445.6802,431.8922,442.7,441.2794" style="stroke:#000000;stroke-width:1.0;"/><text fill="#000000" font-family="sans-serif" font-size="13" lengthAdjust="spacing" textLength="16" x="484" y="408.1045">5V</text></g><!--link Breadboard to IR1--><g id="link_Breadboard_IR1"><path d="M559.57,363.7594 C582.26,383.4194 614.69,412.9294 640,441.6094 C676.78,483.2894 710.1811,532.1246 729.9011,562.3446 " fill="none" id="Breadboard-to-IR1" style="stroke:#000000;stroke-width:1.0;"/><polygon fill="#000000" points="733.18,567.3694,731.6115,557.6462,730.4476,563.182,724.9117,562.0181,733.18,567.3694" style="stroke:#000000;stroke-width:1.0;"/><text fill="#000000" font-family="sans-serif" font-size="13" lengthAdjust="spacing" textLength="34" x="678" y="471.1045">power</text></g><!--link Breadboard to IR2--><g id="link_Breadboard_IR2"><path d="M570.87,357.9894 C610.22,376.3494 672.1,407.3494 721,441.6094 C776.82,480.7194 830.1441,532.2003 860.6441,563.2303 " fill="none" id="Breadboard-to-IR2" style="stroke:#000000;stroke-width:1.0;"/><polygon fill="#000000" points="864.85,567.5094,861.3938,558.2869,861.3451,563.9435,855.6884,563.8948,864.85,567.5094" style="stroke:#000000;stroke-width:1.0;"/><text fill="#000000" font-family="sans-serif" font-size="13" lengthAdjust="spacing" textLength="34" x="780" y="471.1045">power</text></g><!--link Breadboard to Ultrasonic--><g id="link_Breadboard_Ultrasonic"><path d="M532.07,363.7494 C532.15,414.2694 531.79,530.5294 527,537.6094 C507.07,567.0794 472.9119,579.0649 443.9119,584.9049 " fill="none" id="Breadboard-to-Ultrasonic" style="stroke:#000000;stroke-width:1.0;"/><polygon fill="#000000" points="438.03,586.0894,447.6425,588.2339,442.9316,585.1023,446.0632,580.3914,438.03,586.0894" style="stroke:#000000;stroke-width:1.0;"/><text fill="#000000" font-family="sans-serif" font-size="13" lengthAdjust="spacing" textLength="34" x="532" y="471.1045">power</text></g><!--link Breadboard to Color--><g id="link_Breadboard_Color"><path d="M493.42,341.3894 C422.81,344.8094 271.63,361.6894 180,441.6094 C140.61,475.9594 119.541,529.126 109.311,561.636 " fill="none" id="Breadboard-to-Color" style="stroke:#000000;stroke-width:1.0;"/><polygon fill="#000000" points="107.51,567.3594,114.027,559.975,109.0108,562.5899,106.3959,557.5737,107.51,567.3594" style="stroke:#000000;stroke-width:1.0;"/><text fill="#000000" font-family="sans-serif" font-size="13" lengthAdjust="spacing" textLength="34" x="181" y="471.1045">power</text></g><!--link Breadboard to MotorL--><g id="link_Breadboard_MotorL"><path d="M493.41,347.8094 C420.46,363.7894 264.15,409.8294 203,519.6094 C194.9,534.1594 195.949,547.2029 200.509,561.7829 " fill="none" id="Breadboard-to-MotorL" style="stroke:#000000;stroke-width:1.0;"/><polygon fill="#000000" points="202.3,567.5094,203.4312,557.7257,200.8075,562.7373,195.7959,560.1137,202.3,567.5094" style="stroke:#000000;stroke-width:1.0;"/><text fill="#000000" font-family="sans-serif" font-size="13" lengthAdjust="spacing" textLength="34" x="273" y="471.1045">power</text></g><!--link Breadboard to MotorR--><g id="link_Breadboard_MotorR"><path d="M542.25,363.8294 C551.23,384.2694 564.61,414.8594 576,441.6094 C594.94,486.0794 614.2176,532.7204 626.2776,562.0404 " fill="none" id="Breadboard-to-MotorR" style="stroke:#000000;stroke-width:1.0;"/><polygon fill="#000000" points="628.56,567.5894,628.8357,557.7444,626.658,562.9653,621.4371,560.7876,628.56,567.5894" style="stroke:#000000;stroke-width:1.0;"/><text fill="#000000" font-family="sans-serif" font-size="13" lengthAdjust="spacing" textLength="34" x="597" y="471.1045">power</text></g><!--link MotorL to WheelL--><g id="link_MotorL_WheelL"><path d="M190.64,615.6394 C170.11,637.7794 143.3293,666.6494 122.7193,688.8794 " fill="none" id="MotorL-to-WheelL" style="stroke:#000000;stroke-width:1.0;"/><polygon fill="#000000" points="118.64,693.2794,127.6922,689.399,122.0394,689.6128,121.8256,683.96,118.64,693.2794" style="stroke:#000000;stroke-width:1.0;"/><text fill="#000000" font-family="sans-serif" font-size="13" lengthAdjust="spacing" textLength="33" x="162" y="660.1045">drives</text></g><!--link MotorR to WheelR--><g id="link_MotorR_WheelR"><path d="M675.13,609.8494 C725.56,633.2794 809.8582,672.4221 861.0182,696.1821 " fill="none" id="MotorR-to-WheelR" style="stroke:#000000;stroke-width:1.0;"/><polygon fill="#000000" points="866.46,698.7094,859.9822,691.2906,861.9252,696.6033,856.6125,698.5463,866.46,698.7094" style="stroke:#000000;stroke-width:1.0;"/><text fill="#000000" font-family="sans-serif" font-size="13" lengthAdjust="spacing" textLength="33" x="788" y="660.1045">drives</text></g><!--SRC=[XPJVJnf14CVVxw-Oq8Tg6neWDJL4IG2bafnY5gqFneU5Mt73iNFPMpJO-BztRlT-5kxaYPdzpCpETsRFI1CAyAKICC4mn3UXWU423RHXgepGYeSm2d6vXWl9Lvflu6WwkZY6nGw6uQlqF8CH60GACRY1G6gnD1ALvyLhgIAUH2nn4w4IoipDZgeb15UhK1n2uAy7CEBBzKhZLWLZ3573budz9IUe0w6TTnGIHhuvNLEWsKLYWiga4PtEwMcditSwb-y2kbtoLwsXrlXMJSjSVQr8aku9EMvv44YrWcx7-_2yht1-VWvNWjDzm3KseKu4F5EE-Iw-ze64IY0leeHy9Q0b5m4yMZMVhEQPv4xnnrpmkT7RfTbgyPJft29Tw0gkw9XqqlbSaWfG4h2rbxa5F4wdUdQsI886WoBRNAWOTGo_IV1eFzkKfGHqRPufwvQorA2z5EtLeVSXTH2ZaajB5cPTW9kDIsz3dED0FqDIZYShMDVHDHgAzCMp4yQQVbrT1pEvUYdHh8v-U14YB59Rqs-6YzJMhaqzvZ5jXslT_ZtK-vYMMcC8t-7MFkMzteSws4g5SA_Gfihicg8ZRgZIpgBf_rfKqrDO8DU1etFpy3qfBfPsIaTtMjXFq3e-JY_iTlLRkvtTh-AZ3VpFxbNiOfagRhim5O-R_BwBLLnkYFkkAkLcKd6bWbLzkImbCMOtTspcmyIVFQG2P6Df1_YcsWFxwFgajftkmVDUutdfVJLXxaqr4UbZ-HHX9IHlz7RsSCdARMOhbOMMbgOFltxy_9CmXI_3iefzEAaXd5vHyWRgW5upK56iWSiaQq1opJvZMCxaabrVZg-6DzFniB8UQSOiEFtCz27GybN46S2g02k03-yV]--></g></svg>