<?xml version="1.0" encoding="us-ascii" standalone="no"?><svg xmlns="http://www.w3.org/2000/svg" xmlns:xlink="http://www.w3.org/1999/xlink" contentStyleType="text/css" height="1426px" preserveAspectRatio="none" style="width:1728px;height:1426px;background:#FFFFFF;" version="1.1" viewBox="0 0 1728 1426" width="1728px" zoomAndPan="magnify"><defs/><g><text fill="#000000" font-family="sans-serif" font-size="14" font-weight="bold" lengthAdjust="spacing" textLength="383" x="665.95" y="24.5332">IBD [Internal Block Diagram] LineFollowerRobot by Alvi</text><!--cluster act [IBD] LineFollowerRobot [Behavior] by Alvi--><g id="cluster_act [IBD] LineFollowerRobot [Behavior] by Alvi"><path d="M8.5,44.6094 L333.5,44.6094 A3.75,3.75 0 0 1 336,47.1094 L343,68.2188 L1677.5,68.2188 A2.5,2.5 0 0 1 1680,70.7188 L1680,1417.1094 A2.5,2.5 0 0 1 1677.5,1419.6094 L8.5,1419.6094 A2.5,2.5 0 0 1 6,1417.1094 L6,47.1094 A2.5,2.5 0 0 1 8.5,44.6094 " fill="none" style="stroke:#000000;stroke-width:1.5;"/><line style="stroke:#000000;stroke-width:1.5;" x1="6" x2="343" y1="68.2188" y2="68.2188"/><text fill="#000000" font-family="sans-serif" font-size="14" font-weight="bold" lengthAdjust="spacing" textLength="324" x="10" y="61.1426">act [IBD] LineFollowerRobot [Behavior] by Alvi</text></g><!--class LineFollowerRobot--><g id="elem_LineFollowerRobot"><rect codeLine="7" fill="#F1F1F1" height="252.4063" id="LineFollowerRobot" rx="2.5" ry="2.5" style="stroke:#181818;stroke-width:0.5;" width="414" x="427" y="80.6094"/><ellipse cx="570.75" cy="101.9609" fill="#ADD1B2" rx="11" ry="11" style="stroke:#181818;stroke-width:1.0;"/><path d="M573.5156,97.8359 Q573.6719,97.6172 573.8594,97.5078 Q574.0469,97.3984 574.2656,97.3984 Q574.6406,97.3984 574.875,97.6641 Q575.1094,97.9141 575.1094,98.5234 L575.1094,99.9766 Q575.1094,100.5859 574.875,100.8516 Q574.6406,101.1172 574.2656,101.1172 Q573.9219,101.1172 573.7188,100.9141 Q573.5156,100.7266 573.4063,100.2109 Q573.3594,99.8516 573.1719,99.6641 Q572.8438,99.2891 572.2344,99.0703 Q571.625,98.8516 571,98.8516 Q570.2344,98.8516 569.5938,99.1797 Q568.9688,99.5078 568.4688,100.2578 Q567.9844,101.0078 567.9844,102.0391 L567.9844,103.1328 Q567.9844,104.3672 568.875,105.1953 Q569.7656,106.0078 571.3594,106.0078 Q572.2969,106.0078 572.9531,105.7578 Q573.3438,105.6016 573.7656,105.1641 Q574.0313,104.8984 574.1719,104.8203 Q574.3281,104.7422 574.5313,104.7422 Q574.8594,104.7422 575.1094,105.0078 Q575.375,105.2578 575.375,105.6016 Q575.375,105.9453 575.0313,106.3516 Q574.5313,106.9297 573.7344,107.2578 Q572.6563,107.7109 571.3594,107.7109 Q569.8438,107.7109 568.6406,107.0859 Q567.6563,106.5859 566.9688,105.5234 Q566.2813,104.4453 566.2813,103.1641 L566.2813,102.0078 Q566.2813,100.6797 566.8906,99.5391 Q567.5156,98.3828 568.6094,97.7734 Q569.7031,97.1484 570.9375,97.1484 Q571.6719,97.1484 572.3125,97.3203 Q572.9688,97.4766 573.5156,97.8359 Z " fill="#000000"/><text fill="#000000" font-family="sans-serif" font-size="12" font-style="italic" lengthAdjust="spacing" textLength="45" x="627.75" y="98.0664">&#171;block&#187;</text><text fill="#000000" font-family="sans-serif" font-size="14" lengthAdjust="spacing" textLength="118" x="591.25" y="115.2363">LineFollowerRobot</text><line style="stroke:#181818;stroke-width:0.5;" x1="428" x2="840" y1="123.3125" y2="123.3125"/><text fill="#000000" font-family="sans-serif" font-size="14" lengthAdjust="spacing" textLength="276" x="433" y="141.8457">power: Boolean                ' Main power state</text><text fill="#000000" font-family="sans-serif" font-size="14" lengthAdjust="spacing" textLength="341" x="433" y="159.4551">systemActive: Boolean         ' System operational state</text><text fill="#000000" font-family="sans-serif" font-size="14" lengthAdjust="spacing" textLength="333" x="433" y="177.0645">currentZone: Zone             ' Zone robot is currently in</text><text fill="#000000" font-family="sans-serif" font-size="14" lengthAdjust="spacing" textLength="378" x="433" y="194.6738">algorithm: Algorithm          ' Algorithm in use for line following</text><text fill="#000000" font-family="sans-serif" font-size="14" lengthAdjust="spacing" textLength="402" x="433" y="212.2832">strategyMode: Strategy        ' Strategy chosen in current context</text><line style="stroke:#181818;stroke-width:0.5;" x1="428" x2="840" y1="219.3594" y2="219.3594"/><text fill="#000000" font-family="sans-serif" font-size="14" lengthAdjust="spacing" textLength="59" x="433" y="237.8926">initialize()</text><text fill="#000000" font-family="sans-serif" font-size="14" lengthAdjust="spacing" textLength="116" x="433" y="255.502">calibrateSensors()</text><text fill="#000000" font-family="sans-serif" font-size="14" lengthAdjust="spacing" textLength="98" x="433" y="273.1113">processInputs()</text><text fill="#000000" font-family="sans-serif" font-size="14" lengthAdjust="spacing" textLength="105" x="433" y="290.7207">performActions()</text><text fill="#000000" font-family="sans-serif" font-size="14" lengthAdjust="spacing" textLength="87" x="433" y="308.3301">updateState()</text><text fill="#000000" font-family="sans-serif" font-size="14" lengthAdjust="spacing" textLength="85" x="433" y="325.9395">handleError()</text></g><!--class PowerSystem--><g id="elem_PowerSystem"><rect codeLine="25" fill="#F1F1F1" height="146.75" id="PowerSystem" rx="2.5" ry="2.5" style="stroke:#181818;stroke-width:0.5;" width="350" x="645" y="410.6094"/><ellipse cx="773.25" cy="431.9609" fill="#ADD1B2" rx="11" ry="11" style="stroke:#181818;stroke-width:1.0;"/><path d="M776.0156,427.8359 Q776.1719,427.6172 776.3594,427.5078 Q776.5469,427.3984 776.7656,427.3984 Q777.1406,427.3984 777.375,427.6641 Q777.6094,427.9141 777.6094,428.5234 L777.6094,429.9766 Q777.6094,430.5859 777.375,430.8516 Q777.1406,431.1172 776.7656,431.1172 Q776.4219,431.1172 776.2188,430.9141 Q776.0156,430.7266 775.9063,430.2109 Q775.8594,429.8516 775.6719,429.6641 Q775.3438,429.2891 774.7344,429.0703 Q774.125,428.8516 773.5,428.8516 Q772.7344,428.8516 772.0938,429.1797 Q771.4688,429.5078 770.9688,430.2578 Q770.4844,431.0078 770.4844,432.0391 L770.4844,433.1328 Q770.4844,434.3672 771.375,435.1953 Q772.2656,436.0078 773.8594,436.0078 Q774.7969,436.0078 775.4531,435.7578 Q775.8438,435.6016 776.2656,435.1641 Q776.5313,434.8984 776.6719,434.8203 Q776.8281,434.7422 777.0313,434.7422 Q777.3594,434.7422 777.6094,435.0078 Q777.875,435.2578 777.875,435.6016 Q777.875,435.9453 777.5313,436.3516 Q777.0313,436.9297 776.2344,437.2578 Q775.1563,437.7109 773.8594,437.7109 Q772.3438,437.7109 771.1406,437.0859 Q770.1563,436.5859 769.4688,435.5234 Q768.7813,434.4453 768.7813,433.1641 L768.7813,432.0078 Q768.7813,430.6797 769.3906,429.5391 Q770.0156,428.3828 771.1094,427.7734 Q772.2031,427.1484 773.4375,427.1484 Q774.1719,427.1484 774.8125,427.3203 Q775.4688,427.4766 776.0156,427.8359 Z " fill="#000000"/><text fill="#000000" font-family="sans-serif" font-size="12" font-style="italic" lengthAdjust="spacing" textLength="35" x="818.75" y="428.0664">&#171;part&#187;</text><text fill="#000000" font-family="sans-serif" font-size="14" lengthAdjust="spacing" textLength="85" x="793.75" y="445.2363">PowerSystem</text><line style="stroke:#181818;stroke-width:0.5;" x1="646" x2="994" y1="453.3125" y2="453.3125"/><text fill="#000000" font-family="sans-serif" font-size="14" lengthAdjust="spacing" textLength="338" x="651" y="471.8457">batteryLevel: Float           ' Battery charge percentage</text><text fill="#000000" font-family="sans-serif" font-size="14" lengthAdjust="spacing" textLength="255" x="651" y="489.4551">voltage: Float                ' Current voltage</text><text fill="#000000" font-family="sans-serif" font-size="14" lengthAdjust="spacing" textLength="294" x="651" y="507.0645">currentDraw: Float            ' Current in amperes</text><text fill="#000000" font-family="sans-serif" font-size="14" lengthAdjust="spacing" textLength="273" x="651" y="524.6738">powerStatus: Boolean          ' ON/OFF state</text><text fill="#000000" font-family="sans-serif" font-size="14" lengthAdjust="spacing" textLength="312" x="651" y="542.2832">faultDetected: Boolean        ' Indicates power fault</text><line style="stroke:#181818;stroke-width:0.5;" x1="646" x2="994" y1="549.3594" y2="549.3594"/></g><!--class SensorSystem--><g id="elem_SensorSystem"><rect codeLine="33" fill="#F1F1F1" height="129.1406" id="SensorSystem" rx="2.5" ry="2.5" style="stroke:#181818;stroke-width:0.5;" width="396" x="643" y="635.6094"/><ellipse cx="791.25" cy="656.9609" fill="#ADD1B2" rx="11" ry="11" style="stroke:#181818;stroke-width:1.0;"/><path d="M794.0156,652.8359 Q794.1719,652.6172 794.3594,652.5078 Q794.5469,652.3984 794.7656,652.3984 Q795.1406,652.3984 795.375,652.6641 Q795.6094,652.9141 795.6094,653.5234 L795.6094,654.9766 Q795.6094,655.5859 795.375,655.8516 Q795.1406,656.1172 794.7656,656.1172 Q794.4219,656.1172 794.2188,655.9141 Q794.0156,655.7266 793.9063,655.2109 Q793.8594,654.8516 793.6719,654.6641 Q793.3438,654.2891 792.7344,654.0703 Q792.125,653.8516 791.5,653.8516 Q790.7344,653.8516 790.0938,654.1797 Q789.4688,654.5078 788.9688,655.2578 Q788.4844,656.0078 788.4844,657.0391 L788.4844,658.1328 Q788.4844,659.3672 789.375,660.1953 Q790.2656,661.0078 791.8594,661.0078 Q792.7969,661.0078 793.4531,660.7578 Q793.8438,660.6016 794.2656,660.1641 Q794.5313,659.8984 794.6719,659.8203 Q794.8281,659.7422 795.0313,659.7422 Q795.3594,659.7422 795.6094,660.0078 Q795.875,660.2578 795.875,660.6016 Q795.875,660.9453 795.5313,661.3516 Q795.0313,661.9297 794.2344,662.2578 Q793.1563,662.7109 791.8594,662.7109 Q790.3438,662.7109 789.1406,662.0859 Q788.1563,661.5859 787.4688,660.5234 Q786.7813,659.4453 786.7813,658.1641 L786.7813,657.0078 Q786.7813,655.6797 787.3906,654.5391 Q788.0156,653.3828 789.1094,652.7734 Q790.2031,652.1484 791.4375,652.1484 Q792.1719,652.1484 792.8125,652.3203 Q793.4688,652.4766 794.0156,652.8359 Z " fill="#000000"/><text fill="#000000" font-family="sans-serif" font-size="12" font-style="italic" lengthAdjust="spacing" textLength="35" x="839.75" y="653.0664">&#171;part&#187;</text><text fill="#000000" font-family="sans-serif" font-size="14" lengthAdjust="spacing" textLength="91" x="811.75" y="670.2363">SensorSystem</text><line style="stroke:#181818;stroke-width:0.5;" x1="644" x2="1038" y1="678.3125" y2="678.3125"/><text fill="#000000" font-family="sans-serif" font-size="14" lengthAdjust="spacing" textLength="331" x="649" y="696.8457">irValues: SensorData          ' Raw IR sensor readings</text><text fill="#000000" font-family="sans-serif" font-size="14" lengthAdjust="spacing" textLength="335" x="649" y="714.4551">ultrasonicValue: Float        ' Distance measured in cm</text><text fill="#000000" font-family="sans-serif" font-size="14" lengthAdjust="spacing" textLength="336" x="649" y="732.0645">detectedColor: ColorType      ' Current detected color</text><text fill="#000000" font-family="sans-serif" font-size="14" lengthAdjust="spacing" textLength="384" x="649" y="749.6738">sensorStatus: Boolean         ' Sensor health/diagnostic status</text><line style="stroke:#181818;stroke-width:0.5;" x1="644" x2="1038" y1="756.75" y2="756.75"/></g><!--class Controller--><g id="elem_Controller"><rect codeLine="40" fill="#F1F1F1" height="129.1406" id="Controller" rx="2.5" ry="2.5" style="stroke:#181818;stroke-width:0.5;" width="352" x="22" y="842.6094"/><ellipse cx="162.75" cy="863.9609" fill="#ADD1B2" rx="11" ry="11" style="stroke:#181818;stroke-width:1.0;"/><path d="M165.5156,859.8359 Q165.6719,859.6172 165.8594,859.5078 Q166.0469,859.3984 166.2656,859.3984 Q166.6406,859.3984 166.875,859.6641 Q167.1094,859.9141 167.1094,860.5234 L167.1094,861.9766 Q167.1094,862.5859 166.875,862.8516 Q166.6406,863.1172 166.2656,863.1172 Q165.9219,863.1172 165.7188,862.9141 Q165.5156,862.7266 165.4063,862.2109 Q165.3594,861.8516 165.1719,861.6641 Q164.8438,861.2891 164.2344,861.0703 Q163.625,860.8516 163,860.8516 Q162.2344,860.8516 161.5938,861.1797 Q160.9688,861.5078 160.4688,862.2578 Q159.9844,863.0078 159.9844,864.0391 L159.9844,865.1328 Q159.9844,866.3672 160.875,867.1953 Q161.7656,868.0078 163.3594,868.0078 Q164.2969,868.0078 164.9531,867.7578 Q165.3438,867.6016 165.7656,867.1641 Q166.0313,866.8984 166.1719,866.8203 Q166.3281,866.7422 166.5313,866.7422 Q166.8594,866.7422 167.1094,867.0078 Q167.375,867.2578 167.375,867.6016 Q167.375,867.9453 167.0313,868.3516 Q166.5313,868.9297 165.7344,869.2578 Q164.6563,869.7109 163.3594,869.7109 Q161.8438,869.7109 160.6406,869.0859 Q159.6563,868.5859 158.9688,867.5234 Q158.2813,866.4453 158.2813,865.1641 L158.2813,864.0078 Q158.2813,862.6797 158.8906,861.5391 Q159.5156,860.3828 160.6094,859.7734 Q161.7031,859.1484 162.9375,859.1484 Q163.6719,859.1484 164.3125,859.3203 Q164.9688,859.4766 165.5156,859.8359 Z " fill="#000000"/><text fill="#000000" font-family="sans-serif" font-size="12" font-style="italic" lengthAdjust="spacing" textLength="35" x="196.75" y="860.0664">&#171;part&#187;</text><text fill="#000000" font-family="sans-serif" font-size="14" lengthAdjust="spacing" textLength="62" x="183.25" y="877.2363">Controller</text><line style="stroke:#181818;stroke-width:0.5;" x1="23" x2="373" y1="885.3125" y2="885.3125"/><text fill="#000000" font-family="sans-serif" font-size="14" lengthAdjust="spacing" textLength="340" x="28" y="903.8457">currentState: SystemState     ' Current high-level state</text><text fill="#000000" font-family="sans-serif" font-size="14" lengthAdjust="spacing" textLength="319" x="28" y="921.4551">lastCommand: String           ' Last command issued</text><text fill="#000000" font-family="sans-serif" font-size="14" lengthAdjust="spacing" textLength="277" x="28" y="939.0645">errorCode: Integer            ' Error code if any</text><text fill="#000000" font-family="sans-serif" font-size="14" lengthAdjust="spacing" textLength="303" x="28" y="956.6738">updateFrequency: Integer      ' Update rate in Hz</text><line style="stroke:#181818;stroke-width:0.5;" x1="23" x2="373" y1="963.75" y2="963.75"/></g><!--class MotorSystem--><g id="elem_MotorSystem"><rect codeLine="47" fill="#F1F1F1" height="146.75" id="MotorSystem" rx="2.5" ry="2.5" style="stroke:#181818;stroke-width:0.5;" width="364" x="1030" y="1256.6094"/><ellipse cx="1166.75" cy="1277.9609" fill="#ADD1B2" rx="11" ry="11" style="stroke:#181818;stroke-width:1.0;"/><path d="M1169.5156,1273.8359 Q1169.6719,1273.6172 1169.8594,1273.5078 Q1170.0469,1273.3984 1170.2656,1273.3984 Q1170.6406,1273.3984 1170.875,1273.6641 Q1171.1094,1273.9141 1171.1094,1274.5234 L1171.1094,1275.9766 Q1171.1094,1276.5859 1170.875,1276.8516 Q1170.6406,1277.1172 1170.2656,1277.1172 Q1169.9219,1277.1172 1169.7188,1276.9141 Q1169.5156,1276.7266 1169.4063,1276.2109 Q1169.3594,1275.8516 1169.1719,1275.6641 Q1168.8438,1275.2891 1168.2344,1275.0703 Q1167.625,1274.8516 1167,1274.8516 Q1166.2344,1274.8516 1165.5938,1275.1797 Q1164.9688,1275.5078 1164.4688,1276.2578 Q1163.9844,1277.0078 1163.9844,1278.0391 L1163.9844,1279.1328 Q1163.9844,1280.3672 1164.875,1281.1953 Q1165.7656,1282.0078 1167.3594,1282.0078 Q1168.2969,1282.0078 1168.9531,1281.7578 Q1169.3438,1281.6016 1169.7656,1281.1641 Q1170.0313,1280.8984 1170.1719,1280.8203 Q1170.3281,1280.7422 1170.5313,1280.7422 Q1170.8594,1280.7422 1171.1094,1281.0078 Q1171.375,1281.2578 1171.375,1281.6016 Q1171.375,1281.9453 1171.0313,1282.3516 Q1170.5313,1282.9297 1169.7344,1283.2578 Q1168.6563,1283.7109 1167.3594,1283.7109 Q1165.8438,1283.7109 1164.6406,1283.0859 Q1163.6563,1282.5859 1162.9688,1281.5234 Q1162.2813,1280.4453 1162.2813,1279.1641 L1162.2813,1278.0078 Q1162.2813,1276.6797 1162.8906,1275.5391 Q1163.5156,1274.3828 1164.6094,1273.7734 Q1165.7031,1273.1484 1166.9375,1273.1484 Q1167.6719,1273.1484 1168.3125,1273.3203 Q1168.9688,1273.4766 1169.5156,1273.8359 Z " fill="#000000"/><text fill="#000000" font-family="sans-serif" font-size="12" font-style="italic" lengthAdjust="spacing" textLength="35" x="1210.75" y="1274.0664">&#171;part&#187;</text><text fill="#000000" font-family="sans-serif" font-size="14" lengthAdjust="spacing" textLength="82" x="1187.25" y="1291.2363">MotorSystem</text><line style="stroke:#181818;stroke-width:0.5;" x1="1031" x2="1393" y1="1299.3125" y2="1299.3125"/><text fill="#000000" font-family="sans-serif" font-size="14" lengthAdjust="spacing" textLength="284" x="1036" y="1317.8457">leftSpeed: Integer            ' PWM for left motor</text><text fill="#000000" font-family="sans-serif" font-size="14" lengthAdjust="spacing" textLength="298" x="1036" y="1335.4551">rightSpeed: Integer           ' PWM for right motor</text><text fill="#000000" font-family="sans-serif" font-size="14" lengthAdjust="spacing" textLength="331" x="1036" y="1353.0645">motorState: MotorState        ' Current behavior mode</text><text fill="#000000" font-family="sans-serif" font-size="14" lengthAdjust="spacing" textLength="245" x="1036" y="1370.6738">maxSpeed: Integer             ' Speed cap</text><text fill="#000000" font-family="sans-serif" font-size="14" lengthAdjust="spacing" textLength="352" x="1036" y="1388.2832">stallDetected: Boolean        ' Detect motor stall condition</text><line style="stroke:#181818;stroke-width:0.5;" x1="1031" x2="1393" y1="1395.3594" y2="1395.3594"/></g><!--class IRSensor--><g id="elem_IRSensor"><rect codeLine="56" fill="#F1F1F1" height="129.1406" id="IRSensor" rx="2.5" ry="2.5" style="stroke:#181818;stroke-width:0.5;" width="350" x="409" y="842.6094"/><ellipse cx="550.75" cy="863.9609" fill="#ADD1B2" rx="11" ry="11" style="stroke:#181818;stroke-width:1.0;"/><path d="M553.5156,859.8359 Q553.6719,859.6172 553.8594,859.5078 Q554.0469,859.3984 554.2656,859.3984 Q554.6406,859.3984 554.875,859.6641 Q555.1094,859.9141 555.1094,860.5234 L555.1094,861.9766 Q555.1094,862.5859 554.875,862.8516 Q554.6406,863.1172 554.2656,863.1172 Q553.9219,863.1172 553.7188,862.9141 Q553.5156,862.7266 553.4063,862.2109 Q553.3594,861.8516 553.1719,861.6641 Q552.8438,861.2891 552.2344,861.0703 Q551.625,860.8516 551,860.8516 Q550.2344,860.8516 549.5938,861.1797 Q548.9688,861.5078 548.4688,862.2578 Q547.9844,863.0078 547.9844,864.0391 L547.9844,865.1328 Q547.9844,866.3672 548.875,867.1953 Q549.7656,868.0078 551.3594,868.0078 Q552.2969,868.0078 552.9531,867.7578 Q553.3438,867.6016 553.7656,867.1641 Q554.0313,866.8984 554.1719,866.8203 Q554.3281,866.7422 554.5313,866.7422 Q554.8594,866.7422 555.1094,867.0078 Q555.375,867.2578 555.375,867.6016 Q555.375,867.9453 555.0313,868.3516 Q554.5313,868.9297 553.7344,869.2578 Q552.6563,869.7109 551.3594,869.7109 Q549.8438,869.7109 548.6406,869.0859 Q547.6563,868.5859 546.9688,867.5234 Q546.2813,866.4453 546.2813,865.1641 L546.2813,864.0078 Q546.2813,862.6797 546.8906,861.5391 Q547.5156,860.3828 548.6094,859.7734 Q549.7031,859.1484 550.9375,859.1484 Q551.6719,859.1484 552.3125,859.3203 Q552.9688,859.4766 553.5156,859.8359 Z " fill="#000000"/><text fill="#000000" font-family="sans-serif" font-size="12" font-style="italic" lengthAdjust="spacing" textLength="35" x="582.75" y="860.0664">&#171;part&#187;</text><text fill="#000000" font-family="sans-serif" font-size="14" lengthAdjust="spacing" textLength="58" x="571.25" y="877.2363">IRSensor</text><line style="stroke:#181818;stroke-width:0.5;" x1="410" x2="758" y1="885.3125" y2="885.3125"/><text fill="#000000" font-family="sans-serif" font-size="14" lengthAdjust="spacing" textLength="86" x="415" y="903.8457">value: Integer</text><text fill="#000000" font-family="sans-serif" font-size="14" lengthAdjust="spacing" textLength="111" x="415" y="921.4551">threshold: Integer</text><text fill="#000000" font-family="sans-serif" font-size="14" lengthAdjust="spacing" textLength="338" x="415" y="939.0645">position: SensorPosition      ' Sensor position on robot</text><text fill="#000000" font-family="sans-serif" font-size="14" lengthAdjust="spacing" textLength="122" x="415" y="956.6738">calibrated: Boolean</text><line style="stroke:#181818;stroke-width:0.5;" x1="410" x2="758" y1="963.75" y2="963.75"/></g><!--class UltrasonicSensor--><g id="elem_UltrasonicSensor"><rect codeLine="63" fill="#F1F1F1" height="129.1406" id="UltrasonicSensor" rx="2.5" ry="2.5" style="stroke:#181818;stroke-width:0.5;" width="379" x="794.5" y="842.6094"/><ellipse cx="926.25" cy="863.9609" fill="#ADD1B2" rx="11" ry="11" style="stroke:#181818;stroke-width:1.0;"/><path d="M929.0156,859.8359 Q929.1719,859.6172 929.3594,859.5078 Q929.5469,859.3984 929.7656,859.3984 Q930.1406,859.3984 930.375,859.6641 Q930.6094,859.9141 930.6094,860.5234 L930.6094,861.9766 Q930.6094,862.5859 930.375,862.8516 Q930.1406,863.1172 929.7656,863.1172 Q929.4219,863.1172 929.2188,862.9141 Q929.0156,862.7266 928.9063,862.2109 Q928.8594,861.8516 928.6719,861.6641 Q928.3438,861.2891 927.7344,861.0703 Q927.125,860.8516 926.5,860.8516 Q925.7344,860.8516 925.0938,861.1797 Q924.4688,861.5078 923.9688,862.2578 Q923.4844,863.0078 923.4844,864.0391 L923.4844,865.1328 Q923.4844,866.3672 924.375,867.1953 Q925.2656,868.0078 926.8594,868.0078 Q927.7969,868.0078 928.4531,867.7578 Q928.8438,867.6016 929.2656,867.1641 Q929.5313,866.8984 929.6719,866.8203 Q929.8281,866.7422 930.0313,866.7422 Q930.3594,866.7422 930.6094,867.0078 Q930.875,867.2578 930.875,867.6016 Q930.875,867.9453 930.5313,868.3516 Q930.0313,868.9297 929.2344,869.2578 Q928.1563,869.7109 926.8594,869.7109 Q925.3438,869.7109 924.1406,869.0859 Q923.1563,868.5859 922.4688,867.5234 Q921.7813,866.4453 921.7813,865.1641 L921.7813,864.0078 Q921.7813,862.6797 922.3906,861.5391 Q923.0156,860.3828 924.1094,859.7734 Q925.2031,859.1484 926.4375,859.1484 Q927.1719,859.1484 927.8125,859.3203 Q928.4688,859.4766 929.0156,859.8359 Z " fill="#000000"/><text fill="#000000" font-family="sans-serif" font-size="12" font-style="italic" lengthAdjust="spacing" textLength="35" x="982.75" y="860.0664">&#171;part&#187;</text><text fill="#000000" font-family="sans-serif" font-size="14" lengthAdjust="spacing" textLength="107" x="946.75" y="877.2363">UltrasonicSensor</text><line style="stroke:#181818;stroke-width:0.5;" x1="795.5" x2="1172.5" y1="885.3125" y2="885.3125"/><text fill="#000000" font-family="sans-serif" font-size="14" lengthAdjust="spacing" textLength="93" x="800.5" y="903.8457">distance: Float</text><text fill="#000000" font-family="sans-serif" font-size="14" lengthAdjust="spacing" textLength="99" x="800.5" y="921.4551">threshold: Float</text><text fill="#000000" font-family="sans-serif" font-size="14" lengthAdjust="spacing" textLength="367" x="800.5" y="939.0645">angle: Float                  ' Sensor angle if mounted on servo</text><text fill="#000000" font-family="sans-serif" font-size="14" lengthAdjust="spacing" textLength="298" x="800.5" y="956.6738">active: Boolean               ' Active/standby status</text><line style="stroke:#181818;stroke-width:0.5;" x1="795.5" x2="1172.5" y1="963.75" y2="963.75"/></g><!--class ColorSensor--><g id="elem_ColorSensor"><rect codeLine="70" fill="#F1F1F1" height="111.5313" id="ColorSensor" rx="2.5" ry="2.5" style="stroke:#181818;stroke-width:0.5;" width="312" x="1209" y="851.1094"/><ellipse cx="1321.25" cy="872.4609" fill="#ADD1B2" rx="11" ry="11" style="stroke:#181818;stroke-width:1.0;"/><path d="M1324.0156,868.3359 Q1324.1719,868.1172 1324.3594,868.0078 Q1324.5469,867.8984 1324.7656,867.8984 Q1325.1406,867.8984 1325.375,868.1641 Q1325.6094,868.4141 1325.6094,869.0234 L1325.6094,870.4766 Q1325.6094,871.0859 1325.375,871.3516 Q1325.1406,871.6172 1324.7656,871.6172 Q1324.4219,871.6172 1324.2188,871.4141 Q1324.0156,871.2266 1323.9063,870.7109 Q1323.8594,870.3516 1323.6719,870.1641 Q1323.3438,869.7891 1322.7344,869.5703 Q1322.125,869.3516 1321.5,869.3516 Q1320.7344,869.3516 1320.0938,869.6797 Q1319.4688,870.0078 1318.9688,870.7578 Q1318.4844,871.5078 1318.4844,872.5391 L1318.4844,873.6328 Q1318.4844,874.8672 1319.375,875.6953 Q1320.2656,876.5078 1321.8594,876.5078 Q1322.7969,876.5078 1323.4531,876.2578 Q1323.8438,876.1016 1324.2656,875.6641 Q1324.5313,875.3984 1324.6719,875.3203 Q1324.8281,875.2422 1325.0313,875.2422 Q1325.3594,875.2422 1325.6094,875.5078 Q1325.875,875.7578 1325.875,876.1016 Q1325.875,876.4453 1325.5313,876.8516 Q1325.0313,877.4297 1324.2344,877.7578 Q1323.1563,878.2109 1321.8594,878.2109 Q1320.3438,878.2109 1319.1406,877.5859 Q1318.1563,877.0859 1317.4688,876.0234 Q1316.7813,874.9453 1316.7813,873.6641 L1316.7813,872.5078 Q1316.7813,871.1797 1317.3906,870.0391 Q1318.0156,868.8828 1319.1094,868.2734 Q1320.2031,867.6484 1321.4375,867.6484 Q1322.1719,867.6484 1322.8125,867.8203 Q1323.4688,867.9766 1324.0156,868.3359 Z " fill="#000000"/><text fill="#000000" font-family="sans-serif" font-size="12" font-style="italic" lengthAdjust="spacing" textLength="35" x="1363.75" y="868.5664">&#171;part&#187;</text><text fill="#000000" font-family="sans-serif" font-size="14" lengthAdjust="spacing" textLength="79" x="1341.75" y="885.7363">ColorSensor</text><line style="stroke:#181818;stroke-width:0.5;" x1="1210" x2="1520" y1="893.8125" y2="893.8125"/><text fill="#000000" font-family="sans-serif" font-size="14" lengthAdjust="spacing" textLength="163" x="1215" y="912.3457">detectedColor: ColorType</text><text fill="#000000" font-family="sans-serif" font-size="14" lengthAdjust="spacing" textLength="300" x="1215" y="929.9551">rgbValues: String             ' Raw RGB data string</text><text fill="#000000" font-family="sans-serif" font-size="14" lengthAdjust="spacing" textLength="122" x="1215" y="947.5645">calibrated: Boolean</text><line style="stroke:#181818;stroke-width:0.5;" x1="1210" x2="1520" y1="954.6406" y2="954.6406"/></g><!--class LineFollowing--><g id="elem_LineFollowing"><rect codeLine="77" fill="#F1F1F1" height="129.1406" id="LineFollowing" rx="2.5" ry="2.5" style="stroke:#181818;stroke-width:0.5;" width="381" x="357.5" y="1049.6094"/><ellipse cx="500.75" cy="1070.9609" fill="#ADD1B2" rx="11" ry="11" style="stroke:#181818;stroke-width:1.0;"/><path d="M503.5156,1066.8359 Q503.6719,1066.6172 503.8594,1066.5078 Q504.0469,1066.3984 504.2656,1066.3984 Q504.6406,1066.3984 504.875,1066.6641 Q505.1094,1066.9141 505.1094,1067.5234 L505.1094,1068.9766 Q505.1094,1069.5859 504.875,1069.8516 Q504.6406,1070.1172 504.2656,1070.1172 Q503.9219,1070.1172 503.7188,1069.9141 Q503.5156,1069.7266 503.4063,1069.2109 Q503.3594,1068.8516 503.1719,1068.6641 Q502.8438,1068.2891 502.2344,1068.0703 Q501.625,1067.8516 501,1067.8516 Q500.2344,1067.8516 499.5938,1068.1797 Q498.9688,1068.5078 498.4688,1069.2578 Q497.9844,1070.0078 497.9844,1071.0391 L497.9844,1072.1328 Q497.9844,1073.3672 498.875,1074.1953 Q499.7656,1075.0078 501.3594,1075.0078 Q502.2969,1075.0078 502.9531,1074.7578 Q503.3438,1074.6016 503.7656,1074.1641 Q504.0313,1073.8984 504.1719,1073.8203 Q504.3281,1073.7422 504.5313,1073.7422 Q504.8594,1073.7422 505.1094,1074.0078 Q505.375,1074.2578 505.375,1074.6016 Q505.375,1074.9453 505.0313,1075.3516 Q504.5313,1075.9297 503.7344,1076.2578 Q502.6563,1076.7109 501.3594,1076.7109 Q499.8438,1076.7109 498.6406,1076.0859 Q497.6563,1075.5859 496.9688,1074.5234 Q496.2813,1073.4453 496.2813,1072.1641 L496.2813,1071.0078 Q496.2813,1069.6797 496.8906,1068.5391 Q497.5156,1067.3828 498.6094,1066.7734 Q499.7031,1066.1484 500.9375,1066.1484 Q501.6719,1066.1484 502.3125,1066.3203 Q502.9688,1066.4766 503.5156,1066.8359 Z " fill="#000000"/><text fill="#000000" font-family="sans-serif" font-size="12" font-style="italic" lengthAdjust="spacing" textLength="35" x="546.75" y="1067.0664">&#171;part&#187;</text><text fill="#000000" font-family="sans-serif" font-size="14" lengthAdjust="spacing" textLength="86" x="521.25" y="1084.2363">LineFollowing</text><line style="stroke:#181818;stroke-width:0.5;" x1="358.5" x2="737.5" y1="1092.3125" y2="1092.3125"/><text fill="#000000" font-family="sans-serif" font-size="14" lengthAdjust="spacing" textLength="166" x="363.5" y="1110.8457">PIDParameters: PIDConfig</text><text fill="#000000" font-family="sans-serif" font-size="14" lengthAdjust="spacing" textLength="320" x="363.5" y="1128.4551">algorithm: Algorithm          ' Selected algorithm type</text><text fill="#000000" font-family="sans-serif" font-size="14" lengthAdjust="spacing" textLength="300" x="363.5" y="1146.0645">errorMargin: Float            ' Acceptable deviation</text><text fill="#000000" font-family="sans-serif" font-size="14" lengthAdjust="spacing" textLength="369" x="363.5" y="1163.6738">lastCorrection: Integer       ' Last adjustment sent to motors</text><line style="stroke:#181818;stroke-width:0.5;" x1="358.5" x2="737.5" y1="1170.75" y2="1170.75"/></g><!--class ObstacleAvoidance--><g id="elem_ObstacleAvoidance"><rect codeLine="84" fill="#F1F1F1" height="129.1406" id="ObstacleAvoidance" rx="2.5" ry="2.5" style="stroke:#181818;stroke-width:0.5;" width="366" x="774" y="1049.6094"/><ellipse cx="891.75" cy="1070.9609" fill="#ADD1B2" rx="11" ry="11" style="stroke:#181818;stroke-width:1.0;"/><path d="M894.5156,1066.8359 Q894.6719,1066.6172 894.8594,1066.5078 Q895.0469,1066.3984 895.2656,1066.3984 Q895.6406,1066.3984 895.875,1066.6641 Q896.1094,1066.9141 896.1094,1067.5234 L896.1094,1068.9766 Q896.1094,1069.5859 895.875,1069.8516 Q895.6406,1070.1172 895.2656,1070.1172 Q894.9219,1070.1172 894.7188,1069.9141 Q894.5156,1069.7266 894.4063,1069.2109 Q894.3594,1068.8516 894.1719,1068.6641 Q893.8438,1068.2891 893.2344,1068.0703 Q892.625,1067.8516 892,1067.8516 Q891.2344,1067.8516 890.5938,1068.1797 Q889.9688,1068.5078 889.4688,1069.2578 Q888.9844,1070.0078 888.9844,1071.0391 L888.9844,1072.1328 Q888.9844,1073.3672 889.875,1074.1953 Q890.7656,1075.0078 892.3594,1075.0078 Q893.2969,1075.0078 893.9531,1074.7578 Q894.3438,1074.6016 894.7656,1074.1641 Q895.0313,1073.8984 895.1719,1073.8203 Q895.3281,1073.7422 895.5313,1073.7422 Q895.8594,1073.7422 896.1094,1074.0078 Q896.375,1074.2578 896.375,1074.6016 Q896.375,1074.9453 896.0313,1075.3516 Q895.5313,1075.9297 894.7344,1076.2578 Q893.6563,1076.7109 892.3594,1076.7109 Q890.8438,1076.7109 889.6406,1076.0859 Q888.6563,1075.5859 887.9688,1074.5234 Q887.2813,1073.4453 887.2813,1072.1641 L887.2813,1071.0078 Q887.2813,1069.6797 887.8906,1068.5391 Q888.5156,1067.3828 889.6094,1066.7734 Q890.7031,1066.1484 891.9375,1066.1484 Q892.6719,1066.1484 893.3125,1066.3203 Q893.9688,1066.4766 894.5156,1066.8359 Z " fill="#000000"/><text fill="#000000" font-family="sans-serif" font-size="12" font-style="italic" lengthAdjust="spacing" textLength="35" x="955.75" y="1067.0664">&#171;part&#187;</text><text fill="#000000" font-family="sans-serif" font-size="14" lengthAdjust="spacing" textLength="122" x="912.25" y="1084.2363">ObstacleAvoidance</text><line style="stroke:#181818;stroke-width:0.5;" x1="775" x2="1139" y1="1092.3125" y2="1092.3125"/><text fill="#000000" font-family="sans-serif" font-size="14" lengthAdjust="spacing" textLength="112" x="780" y="1110.8457">strategy: Strategy</text><text fill="#000000" font-family="sans-serif" font-size="14" lengthAdjust="spacing" textLength="97" x="780" y="1128.4551">active: Boolean</text><text fill="#000000" font-family="sans-serif" font-size="14" lengthAdjust="spacing" textLength="187" x="780" y="1146.0645">avoidanceTriggered: Boolean</text><text fill="#000000" font-family="sans-serif" font-size="14" lengthAdjust="spacing" textLength="354" x="780" y="1163.6738">obstacleDistance: Float       ' Detected obstacle distance</text><line style="stroke:#181818;stroke-width:0.5;" x1="775" x2="1139" y1="1170.75" y2="1170.75"/></g><!--class ZoneAction--><g id="elem_ZoneAction"><rect codeLine="91" fill="#F1F1F1" height="129.1406" id="ZoneAction" rx="2.5" ry="2.5" style="stroke:#181818;stroke-width:0.5;" width="380" x="1175" y="1049.6094"/><ellipse cx="1325.25" cy="1070.9609" fill="#ADD1B2" rx="11" ry="11" style="stroke:#181818;stroke-width:1.0;"/><path d="M1328.0156,1066.8359 Q1328.1719,1066.6172 1328.3594,1066.5078 Q1328.5469,1066.3984 1328.7656,1066.3984 Q1329.1406,1066.3984 1329.375,1066.6641 Q1329.6094,1066.9141 1329.6094,1067.5234 L1329.6094,1068.9766 Q1329.6094,1069.5859 1329.375,1069.8516 Q1329.1406,1070.1172 1328.7656,1070.1172 Q1328.4219,1070.1172 1328.2188,1069.9141 Q1328.0156,1069.7266 1327.9063,1069.2109 Q1327.8594,1068.8516 1327.6719,1068.6641 Q1327.3438,1068.2891 1326.7344,1068.0703 Q1326.125,1067.8516 1325.5,1067.8516 Q1324.7344,1067.8516 1324.0938,1068.1797 Q1323.4688,1068.5078 1322.9688,1069.2578 Q1322.4844,1070.0078 1322.4844,1071.0391 L1322.4844,1072.1328 Q1322.4844,1073.3672 1323.375,1074.1953 Q1324.2656,1075.0078 1325.8594,1075.0078 Q1326.7969,1075.0078 1327.4531,1074.7578 Q1327.8438,1074.6016 1328.2656,1074.1641 Q1328.5313,1073.8984 1328.6719,1073.8203 Q1328.8281,1073.7422 1329.0313,1073.7422 Q1329.3594,1073.7422 1329.6094,1074.0078 Q1329.875,1074.2578 1329.875,1074.6016 Q1329.875,1074.9453 1329.5313,1075.3516 Q1329.0313,1075.9297 1328.2344,1076.2578 Q1327.1563,1076.7109 1325.8594,1076.7109 Q1324.3438,1076.7109 1323.1406,1076.0859 Q1322.1563,1075.5859 1321.4688,1074.5234 Q1320.7813,1073.4453 1320.7813,1072.1641 L1320.7813,1071.0078 Q1320.7813,1069.6797 1321.3906,1068.5391 Q1322.0156,1067.3828 1323.1094,1066.7734 Q1324.2031,1066.1484 1325.4375,1066.1484 Q1326.1719,1066.1484 1326.8125,1066.3203 Q1327.4688,1066.4766 1328.0156,1066.8359 Z " fill="#000000"/><text fill="#000000" font-family="sans-serif" font-size="12" font-style="italic" lengthAdjust="spacing" textLength="35" x="1363.75" y="1067.0664">&#171;part&#187;</text><text fill="#000000" font-family="sans-serif" font-size="14" lengthAdjust="spacing" textLength="71" x="1345.75" y="1084.2363">ZoneAction</text><line style="stroke:#181818;stroke-width:0.5;" x1="1176" x2="1554" y1="1092.3125" y2="1092.3125"/><text fill="#000000" font-family="sans-serif" font-size="14" lengthAdjust="spacing" textLength="117" x="1181" y="1110.8457">currentZone: Zone</text><text fill="#000000" font-family="sans-serif" font-size="14" lengthAdjust="spacing" textLength="106" x="1181" y="1128.4551">lastAction: String</text><text fill="#000000" font-family="sans-serif" font-size="14" lengthAdjust="spacing" textLength="166" x="1181" y="1146.0645">actionCompleted: Boolean</text><text fill="#000000" font-family="sans-serif" font-size="14" lengthAdjust="spacing" textLength="368" x="1181" y="1163.6738">zoneMap: String               ' Simplified internal map of zones</text><line style="stroke:#181818;stroke-width:0.5;" x1="1176" x2="1554" y1="1170.75" y2="1170.75"/></g><!--reverse link LineFollowerRobot to PowerSystem--><g id="link_LineFollowerRobot_PowerSystem"><path codeLine="99" d="M725.2741,342.8053 C743.2241,369.3953 754.88,386.6494 770.97,410.4794 " fill="none" id="LineFollowerRobot-backto-PowerSystem" style="stroke:#181818;stroke-width:1.0;"/><polygon fill="#181818" points="718.56,332.8594,718.6018,340.0704,725.2741,342.8053,725.2324,335.5943,718.56,332.8594" style="stroke:#181818;stroke-width:1.0;"/><text fill="#000000" font-family="sans-serif" font-size="13" lengthAdjust="spacing" textLength="20" x="750" y="377.1045">pwr</text><text fill="#000000" font-family="sans-serif" font-size="13" lengthAdjust="spacing" textLength="7" x="758.5528" y="399.5874">1</text></g><!--reverse link LineFollowerRobot to SensorSystem--><g id="link_LineFollowerRobot_SensorSystem"><path codeLine="100" d="M579.3124,344.193 C558.8524,414.623 551.68,490.1794 591,557.6094 C609.9,590.0294 639.29,615.6194 671.37,635.5894 " fill="none" id="LineFollowerRobot-backto-SensorSystem" style="stroke:#181818;stroke-width:1.0;"/><polygon fill="#181818" points="582.66,332.6694,577.145,337.3153,579.3124,344.193,584.8274,339.5471,582.66,332.6694" style="stroke:#181818;stroke-width:1.0;"/><text fill="#000000" font-family="sans-serif" font-size="13" lengthAdjust="spacing" textLength="35" x="592" y="489.6045">sense</text><text fill="#000000" font-family="sans-serif" font-size="13" lengthAdjust="spacing" textLength="7" x="644.3518" y="624.7116">1</text></g><!--reverse link LineFollowerRobot to Controller--><g id="link_LineFollowerRobot_Controller"><path codeLine="101" d="M549.446,343.0691 C455.956,492.8491 309.49,727.4894 237.66,842.5694 " fill="none" id="LineFollowerRobot-backto-Controller" style="stroke:#181818;stroke-width:1.0;"/><polygon fill="#181818" points="555.8,332.8894,549.2298,335.8612,549.446,343.0691,556.0162,340.0972,555.8,332.8894" style="stroke:#181818;stroke-width:1.0;"/><text fill="#000000" font-family="sans-serif" font-size="13" lengthAdjust="spacing" textLength="18" x="396" y="602.1045">ctrl</text><text fill="#000000" font-family="sans-serif" font-size="13" lengthAdjust="spacing" textLength="7" x="234.841" y="831.6892">1</text></g><!--reverse link LineFollowerRobot to MotorSystem--><g id="link_LineFollowerRobot_MotorSystem"><path codeLine="102" d="M852.4639,267.864 C1101.9639,348.844 1496.02,521.1194 1655,842.6094 C1721.9,977.8894 1685.64,1050.4194 1606,1178.6094 C1560.74,1251.4594 1474.42,1289.1494 1394.09,1308.6094 " fill="none" id="LineFollowerRobot-backto-MotorSystem" style="stroke:#181818;stroke-width:1.0;"/><polygon fill="#181818" points="841.05,264.1594,845.5221,269.8163,852.4639,267.864,847.9918,262.207,841.05,264.1594" style="stroke:#181818;stroke-width:1.0;"/><text fill="#000000" font-family="sans-serif" font-size="13" lengthAdjust="spacing" textLength="40" x="1638" y="809.1045">motors</text><text fill="#000000" font-family="sans-serif" font-size="13" lengthAdjust="spacing" textLength="7" x="1401.9196" y="1304.8727">1</text></g><!--reverse link SensorSystem to IRSensor--><g id="link_SensorSystem_IRSensor"><path codeLine="104" d="M781.1872,773.6461 C766.2072,790.1961 757.26,798.4394 740,812.6094 C727.31,823.0294 713.34,833.0694 699.13,842.4594 " fill="none" id="SensorSystem-backto-IRSensor" style="stroke:#181818;stroke-width:1.0;"/><polygon fill="#181818" points="789.24,764.7494,782.248,766.5135,781.1872,773.6461,788.1792,771.882,789.24,764.7494" style="stroke:#181818;stroke-width:1.0;"/><text fill="#000000" font-family="sans-serif" font-size="13" lengthAdjust="spacing" textLength="7" x="759" y="809.1045">ir</text><text fill="#000000" font-family="sans-serif" font-size="13" lengthAdjust="spacing" textLength="22" x="689.17" y="831.5665">2..8</text></g><!--reverse link SensorSystem to UltrasonicSensor--><g id="link_SensorSystem_UltrasonicSensor"><path codeLine="105" d="M892.3266,774.6906 C909.5466,799.3706 922.35,817.7294 939.57,842.4094 " fill="none" id="SensorSystem-backto-UltrasonicSensor" style="stroke:#181818;stroke-width:1.0;"/><polygon fill="#181818" points="885.46,764.8494,885.6129,772.0589,892.3266,774.6906,892.1737,767.4812,885.46,764.8494" style="stroke:#181818;stroke-width:1.0;"/><text fill="#000000" font-family="sans-serif" font-size="13" lengthAdjust="spacing" textLength="14" x="917" y="809.1045">us</text><text fill="#000000" font-family="sans-serif" font-size="13" lengthAdjust="spacing" textLength="7" x="927.3277" y="831.9645">1</text></g><!--reverse link SensorSystem to ColorSensor--><g id="link_SensorSystem_ColorSensor"><path codeLine="106" d="M1014.7449,769.0822 C1085.3549,796.7122 1156.12,824.3894 1224.11,850.9894 " fill="none" id="SensorSystem-backto-ColorSensor" style="stroke:#181818;stroke-width:1.0;"/><polygon fill="#181818" points="1003.57,764.7094,1007.6999,770.6207,1014.7449,769.0822,1010.6151,763.1708,1003.57,764.7094" style="stroke:#181818;stroke-width:1.0;"/><text fill="#000000" font-family="sans-serif" font-size="13" lengthAdjust="spacing" textLength="14" x="1119" y="809.1045">cs</text><text fill="#000000" font-family="sans-serif" font-size="13" lengthAdjust="spacing" textLength="7" x="1198.61" y="840.3217">1</text></g><!--reverse link Controller to LineFollowing--><g id="link_Controller_LineFollowing"><path codeLine="108" d="M240.4976,981.6059 C252.7076,999.0259 260.81,1006.7894 278,1019.6094 C301.86,1037.4094 329.36,1051.9994 357.5,1063.9094 " fill="none" id="Controller-backto-LineFollowing" style="stroke:#181818;stroke-width:1.0;"/><polygon fill="#181818" points="233.61,971.7794,233.7783,978.9885,240.4976,981.6059,240.3293,974.3968,233.61,971.7794" style="stroke:#181818;stroke-width:1.0;"/><text fill="#000000" font-family="sans-serif" font-size="13" lengthAdjust="spacing" textLength="6" x="279" y="1016.1045">lf</text><text fill="#000000" font-family="sans-serif" font-size="13" lengthAdjust="spacing" textLength="7" x="342.3156" y="1058.9536">1</text></g><!--reverse link Controller to ObstacleAvoidance--><g id="link_Controller_ObstacleAvoidance"><path codeLine="109" d="M308.8458,977.3719 C342.7658,995.9419 371.14,1008.4694 409,1019.6094 C557.5,1063.3094 604.17,1019.4494 756,1049.6094 C761.92,1050.7894 767.92,1052.0794 773.95,1053.4594 " fill="none" id="Controller-backto-ObstacleAvoidance" style="stroke:#181818;stroke-width:1.0;"/><polygon fill="#181818" points="298.32,971.6094,301.6621,977.9993,308.8458,977.3719,305.5038,970.982,298.32,971.6094" style="stroke:#181818;stroke-width:1.0;"/><text fill="#000000" font-family="sans-serif" font-size="13" lengthAdjust="spacing" textLength="14" x="410" y="1016.1045">oa</text><text fill="#000000" font-family="sans-serif" font-size="13" lengthAdjust="spacing" textLength="7" x="759.0799" y="1048.0628">1</text></g><!--reverse link Controller to ZoneAction--><g id="link_Controller_ZoneAction"><path codeLine="110" d="M385.4621,969.4693 C391.5221,971.4393 386.1,969.6894 392,971.6094 C457.75,993.0294 471.98,1007.1594 540,1019.6094 C810.49,1069.1294 887.12,1002.2494 1158,1049.6094 C1163.55,1050.5794 1169.17,1051.6594 1174.82,1052.8194 " fill="none" id="Controller-backto-ZoneAction" style="stroke:#181818;stroke-width:1.0;"/><polygon fill="#181818" points="374.05,965.7594,378.5194,971.4184,385.4621,969.4693,380.9927,963.8103,374.05,965.7594" style="stroke:#181818;stroke-width:1.0;"/><text fill="#000000" font-family="sans-serif" font-size="13" lengthAdjust="spacing" textLength="14" x="541" y="1016.1045">za</text><text fill="#000000" font-family="sans-serif" font-size="13" lengthAdjust="spacing" textLength="7" x="1160.2544" y="1047.612">1</text></g><!--link PowerSystem to Controller--><g id="link_PowerSystem_Controller"><path codeLine="113" d="M696.97,557.7294 C661.19,580.9194 622.9,607.8194 590,635.6094 C508.08,704.8194 514.13,751.4994 426,812.6094 C409.92,823.7594 397.6541,831.2113 379.5641,840.3613 " fill="none" id="PowerSystem-to-Controller" style="stroke:#181818;stroke-width:1.0;"/><polygon fill="#181818" points="374.21,843.0694,384.0465,842.5766,378.6717,840.8126,380.4357,835.4378,374.21,843.0694" style="stroke:#181818;stroke-width:1.0;"/><text fill="#000000" font-family="sans-serif" font-size="13" lengthAdjust="spacing" textLength="34" x="591" y="705.6045">power</text></g><!--link PowerSystem to SensorSystem--><g id="link_PowerSystem_SensorSystem"><path codeLine="114" d="M827.14,557.8594 C829.61,583.0594 831.7729,605.1282 834.1729,629.5382 " fill="none" id="PowerSystem-to-SensorSystem" style="stroke:#181818;stroke-width:1.0;"/><polygon fill="#181818" points="834.76,635.5094,837.8602,626.1612,834.2708,630.5334,829.8986,626.944,834.76,635.5094" style="stroke:#181818;stroke-width:1.0;"/><text fill="#000000" font-family="sans-serif" font-size="13" lengthAdjust="spacing" textLength="34" x="832" y="602.1045">power</text></g><!--link PowerSystem to MotorSystem--><g id="link_PowerSystem_MotorSystem"><path codeLine="115" d="M995.13,523.4994 C1162.24,569.7294 1407.43,664.4494 1539,842.6094 C1628.16,963.3494 1656.25,1053.7094 1573,1178.6094 C1532.42,1239.4894 1467.7672,1273.959 1399.8672,1295.579 " fill="none" id="PowerSystem-to-MotorSystem" style="stroke:#181818;stroke-width:1.0;"/><polygon fill="#181818" points="1394.15,1297.3994,1403.9394,1298.4802,1398.9143,1295.8824,1401.5122,1290.8573,1394.15,1297.3994" style="stroke:#181818;stroke-width:1.0;"/><text fill="#000000" font-family="sans-serif" font-size="13" lengthAdjust="spacing" textLength="34" x="1612" y="912.6045">power</text></g><!--link SensorSystem to Controller--><g id="link_SensorSystem_Controller"><path codeLine="117" d="M710.05,764.7494 C669.45,782.4294 624.06,800.1694 581,812.6094 C499.29,836.2194 474.68,822.6494 392,842.6094 C386.14,844.0194 386.0109,843.9967 380.0309,845.5767 " fill="none" id="SensorSystem-to-Controller" style="stroke:#181818;stroke-width:1.0;"/><polygon fill="#181818" points="374.23,847.1094,383.9532,848.6776,379.0641,845.8321,381.9096,840.9431,374.23,847.1094" style="stroke:#181818;stroke-width:1.0;"/><text fill="#000000" font-family="sans-serif" font-size="13" lengthAdjust="spacing" textLength="66" x="633" y="809.1045">sensorData</text></g><!--link IRSensor to LineFollowing--><g id="link_IRSensor_LineFollowing"><path codeLine="118" d="M572.81,971.8494 C568.47,996.5294 564.5568,1018.8196 560.2268,1043.4996 " fill="none" id="IRSensor-to-LineFollowing" style="stroke:#181818;stroke-width:1.0;"/><polygon fill="#181818" points="559.19,1049.4094,564.6851,1041.236,560.054,1044.4846,556.8054,1039.8535,559.19,1049.4094" style="stroke:#181818;stroke-width:1.0;"/><text fill="#000000" font-family="sans-serif" font-size="13" lengthAdjust="spacing" textLength="47" x="568" y="1016.1045">lineData</text></g><!--link UltrasonicSensor to ObstacleAvoidance--><g id="link_UltrasonicSensor_ObstacleAvoidance"><path codeLine="119" d="M975.61,971.8494 C972.35,996.5294 969.4234,1018.7807 966.1734,1043.4607 " fill="none" id="UltrasonicSensor-to-ObstacleAvoidance" style="stroke:#181818;stroke-width:1.0;"/><polygon fill="#181818" points="965.39,1049.4094,970.5308,1041.0086,966.0428,1044.4522,962.5993,1039.9642,965.39,1049.4094" style="stroke:#181818;stroke-width:1.0;"/><text fill="#000000" font-family="sans-serif" font-size="13" lengthAdjust="spacing" textLength="76" x="972" y="1016.1045">obstacleData</text></g><!--link ColorSensor to ZoneAction--><g id="link_ColorSensor_ZoneAction"><path codeLine="120" d="M1365,963.3194 C1365,989.8794 1365,1015.8694 1365,1043.4594 " fill="none" id="ColorSensor-to-ZoneAction" style="stroke:#181818;stroke-width:1.0;"/><polygon fill="#181818" points="1365,1049.4594,1369,1040.4594,1365,1044.4594,1361,1040.4594,1365,1049.4594" style="stroke:#181818;stroke-width:1.0;"/><text fill="#000000" font-family="sans-serif" font-size="13" lengthAdjust="spacing" textLength="55" x="1366" y="1016.1045">colorData</text></g><!--link Controller to MotorSystem--><g id="link_Controller_MotorSystem"><path codeLine="122" d="M197.47,971.7894 C200.61,1033.9994 215.74,1126.6794 274,1178.6094 C382.89,1275.6594 783.0877,1310.1449 1023.7777,1322.3749 " fill="none" id="Controller-to-MotorSystem" style="stroke:#181818;stroke-width:1.0;"/><polygon fill="#181818" points="1029.77,1322.6794,1020.9846,1318.2278,1024.7764,1322.4256,1020.5786,1326.2175,1029.77,1322.6794" style="stroke:#181818;stroke-width:1.0;"/><text fill="#000000" font-family="sans-serif" font-size="13" lengthAdjust="spacing" textLength="64" x="275" y="1119.6045">commands</text></g><!--link LineFollowing to MotorSystem--><g id="link_LineFollowing_MotorSystem"><path codeLine="123" d="M738.72,1176.5794 C830.3,1206.0894 933.7992,1239.4489 1024.2192,1268.5889 " fill="none" id="LineFollowing-to-MotorSystem" style="stroke:#181818;stroke-width:1.0;"/><polygon fill="#181818" points="1029.93,1270.4294,1022.5908,1263.8616,1025.171,1268.8957,1020.1369,1271.4759,1029.93,1270.4294" style="stroke:#181818;stroke-width:1.0;"/><text fill="#000000" font-family="sans-serif" font-size="13" lengthAdjust="spacing" textLength="72" x="881" y="1223.1045">speedAdjust</text></g><!--link ObstacleAvoidance to MotorSystem--><g id="link_ObstacleAvoidance_MotorSystem"><path codeLine="124" d="M1032.82,1178.7394 C1061.89,1203.1294 1090.6744,1227.2919 1120.6844,1252.4819 " fill="none" id="ObstacleAvoidance-to-MotorSystem" style="stroke:#181818;stroke-width:1.0;"/><polygon fill="#181818" points="1125.28,1256.3394,1120.9582,1247.4894,1121.4503,1253.1248,1115.8149,1253.6169,1125.28,1256.3394" style="stroke:#181818;stroke-width:1.0;"/><text fill="#000000" font-family="sans-serif" font-size="13" lengthAdjust="spacing" textLength="88" x="1085" y="1223.1045">turnCommands</text></g><!--link ZoneAction to MotorSystem--><g id="link_ZoneAction_MotorSystem"><path codeLine="125" d="M1319.51,1178.7394 C1302.07,1203.1294 1285.5296,1226.2685 1267.5196,1251.4585 " fill="none" id="ZoneAction-to-MotorSystem" style="stroke:#181818;stroke-width:1.0;"/><polygon fill="#181818" points="1264.03,1256.3394,1272.5183,1251.3445,1266.938,1252.272,1266.0106,1246.6917,1264.03,1256.3394" style="stroke:#181818;stroke-width:1.0;"/><text fill="#000000" font-family="sans-serif" font-size="13" lengthAdjust="spacing" textLength="72" x="1298" y="1223.1045">zoneActions</text></g><!--SRC=[ZLVRRkCs47tFLmpouhP0DcYV2Y48u4lJ6eYR8DvjWIxsWPR6DhiKgPAKiyvY_xr3YfAeMx92u5ZacU5S3yUMMu6mNgpWurfQr989M0YLVeOLPmVDyazmpoNUAI7KC-edjLCMTcUOYnE_k2XO-faT42vPQad1OZM6_hZ08pjnfJ_LWfVmzU82w9d1Xd49EtUWNqW5CsP4nysDnzpUaYI4PmPpQpNVbHPDirWucGGMIWba4dfFEC-3m5XciH4qPsCndwUMdt0eFuEjtmTLe6QMAnUdheAqr1gb_KT9adUVlPFzalRUS5EZnHcuR5GmSL2QssEUK9Z2rrX5kqXEb0PXhpG82XPzST7Yyj3wOybEF9mtAYDxjk4jygTUIO_Ae7GQWqsGAgg4BxPH5KNyeNQ_ZJYNt78c-0l-y6CR35hOkGEsA8tI9jegj4hHcBKiIjjPHqtk-0oG-cYZB3Ado0KxMZqocGdyJMkbm-gtJasbAYyeujAQgB0UNU939czk2gPjfw9sp58BdE_nX2A1Ew6OxQHmKUrJo9YcgYUBKpg06g3HS5B2lG-5WuPb2770zOjdfTdpY6mhHuwndCxjLxoBJcb6wfvIzkVrmzrThrZth1HsXHPJYzb0R0PhcV6K14pe5O-Ferp5iyhkT42v_ek94icm2hbYbiMsFR5dM3-1yPkWaMLKmgrhTAPcHacUUZMzoCo8eiWhcIBao4ofCVDLd3VoMN1mgOGYKl3_tfyBx4Urnb7H4A9jeSgxYT3EWazmH2RiyJeZlfJAM9xwM9Tc6AubDPQcJgM0ZWGhr80lz2JmZN_fMNlaX-ELS3NQIogTOPSgpwapVCTJB3j5T4_xhYySW3Z8b9WrikWQQUcvmjq31pAn8-iRZOGp1Bu79i-zzhpJ-5-9CZttv6VmmU-38mENdZzUXd7PAFjQ5GdSsss1hb17RNlyUrCn8U4WTxeQKKsncfPjHJsk9-lVGZOspVTXJ-x2zKO2MPkCd7sPjjaLZziadYmYncP2lDAJrLPbLWLsJ9rnnvTT0Wo5QSfTTQl55BX-2hiZWJvLNHOCRfRjaVZcg4Gst2gKyUVN3VuOtdijKiE0_lmLEBmeMe-7zV6XuO5fsxF01O4aneplRZ1v45D47PdkOQxcSrLAnn7aWa5zKgsYYPcXkRNz_hKpBwC1Q9eSY7jUyM-2ozfIF-mQikttVisrJxyl87CSR3pYUxCmYvbhjAhQYSqTF6B-uthro6YS92yqMKYlf7BF3zyz-snHL1pT0C76xdi2sz2zpENe3JfFKomisr4oCpnnrdHDovpKpcbLpDsM3Sp9idzBOtFNyiPzM5NruaWk7tQKvLJW_AHuvc-eaP3K4rexdKsLLBjUwtjFX4K6zlFb7XNENdKReaSZhf03i6cTeHzkPgq6ibSkh7RYxSHp7cAvxPOQyyjqJHK2xPZzBwHemuhHAlQ5m4cKxxc_xSClbfmLeFPUrFGBDs_8HwEePjSZBohOy8V6JrTNSFdpPMTIJA1urc_WEvDGuaS7V4Cawga4Kgl56_ZubapgqlCodSCz_9TtxtwzRBa-eKbi0acA1_IQG22eKNXCL6Hui27ofWPsII41iPz23lib0SMcq55L9l328ewILGEFP3hEvzNLRJVuViOTXVNIEWti9gV23KCuEDaqOx47Dmbpm47uwBr13dBc94R3MDD1BHcdpmbreka7O0_j1t_eP9Wa-vtaZ1s2ZHjtvfv1FNvewb36bbekuqCYKuVebsRJN7ox-1y0]--></g></svg>