<?xml version="1.0" encoding="us-ascii" standalone="no"?><svg xmlns="http://www.w3.org/2000/svg" xmlns:xlink="http://www.w3.org/1999/xlink" contentStyleType="text/css" height="768px" preserveAspectRatio="none" style="width:1250px;height:768px;background:#FFFFFF;" version="1.1" viewBox="0 0 1250 768" width="1250px" zoomAndPan="magnify"><defs/><g><!--cluster act [Block] LineFollowerRobot [classDiagram] by Alvi--><g id="cluster_act [Block] LineFollowerRobot [classDiagram] by Alvi"><path d="M8.5,6 L377.5,6 A3.75,3.75 0 0 1 380,8.5 L387,29.6094 L1240.5,29.6094 A2.5,2.5 0 0 1 1243,32.1094 L1243,758.5 A2.5,2.5 0 0 1 1240.5,761 L8.5,761 A2.5,2.5 0 0 1 6,758.5 L6,8.5 A2.5,2.5 0 0 1 8.5,6 " fill="none" style="stroke:#000000;stroke-width:1.5;"/><line style="stroke:#000000;stroke-width:1.5;" x1="6" x2="387" y1="29.6094" y2="29.6094"/><text fill="#000000" font-family="sans-serif" font-size="14" font-weight="bold" lengthAdjust="spacing" textLength="368" x="10" y="22.5332">act [Block] LineFollowerRobot [classDiagram] by Alvi</text></g><!--cluster act [Class Diagram] LineFollowerRobot - by Alvi--><g id="cluster_act [Class Diagram] LineFollowerRobot - by Alvi"><rect fill="#FFFFFF" height="687" rx="2.5" ry="2.5" style="stroke:#000000;stroke-width:1.0;" width="1189" x="30" y="50"/><text fill="#000000" font-family="sans-serif" font-size="14" font-style="italic" lengthAdjust="spacing" textLength="52" x="598.5" y="66.5332">&#171;frame&#187;</text><text fill="#000000" font-family="sans-serif" font-size="14" font-weight="bold" lengthAdjust="spacing" textLength="330" x="459.5" y="84.1426">act [Class Diagram] LineFollowerRobot - by Alvi</text></g><!--class LineFollowerRobot--><g id="elem_LineFollowerRobot"><rect codeLine="14" fill="#F1F1F1" height="153.6563" id="LineFollowerRobot" rx="2.5" ry="2.5" style="stroke:#181818;stroke-width:0.5;" width="159" x="689.5" y="112.5"/><ellipse cx="708.55" cy="128.5" fill="#ADD1B2" rx="11" ry="11" style="stroke:#181818;stroke-width:1.0;"/><path d="M711.3156,124.375 Q711.4719,124.1563 711.6594,124.0469 Q711.8469,123.9375 712.0656,123.9375 Q712.4406,123.9375 712.675,124.2031 Q712.9094,124.4531 712.9094,125.0625 L712.9094,126.5156 Q712.9094,127.125 712.675,127.3906 Q712.4406,127.6563 712.0656,127.6563 Q711.7219,127.6563 711.5188,127.4531 Q711.3156,127.2656 711.2063,126.75 Q711.1594,126.3906 710.9719,126.2031 Q710.6438,125.8281 710.0344,125.6094 Q709.425,125.3906 708.8,125.3906 Q708.0344,125.3906 707.3938,125.7188 Q706.7688,126.0469 706.2688,126.7969 Q705.7844,127.5469 705.7844,128.5781 L705.7844,129.6719 Q705.7844,130.9063 706.675,131.7344 Q707.5656,132.5469 709.1594,132.5469 Q710.0969,132.5469 710.7531,132.2969 Q711.1438,132.1406 711.5656,131.7031 Q711.8313,131.4375 711.9719,131.3594 Q712.1281,131.2813 712.3313,131.2813 Q712.6594,131.2813 712.9094,131.5469 Q713.175,131.7969 713.175,132.1406 Q713.175,132.4844 712.8313,132.8906 Q712.3313,133.4688 711.5344,133.7969 Q710.4563,134.25 709.1594,134.25 Q707.6438,134.25 706.4406,133.625 Q705.4563,133.125 704.7688,132.0625 Q704.0813,130.9844 704.0813,129.7031 L704.0813,128.5469 Q704.0813,127.2188 704.6906,126.0781 Q705.3156,124.9219 706.4094,124.3125 Q707.5031,123.6875 708.7375,123.6875 Q709.4719,123.6875 710.1125,123.8594 Q710.7688,124.0156 711.3156,124.375 Z " fill="#000000"/><text fill="#000000" font-family="sans-serif" font-size="14" lengthAdjust="spacing" textLength="118" x="723.45" y="134.2285">LineFollowerRobot</text><line style="stroke:#181818;stroke-width:0.5;" x1="690.5" x2="847.5" y1="144.5" y2="144.5"/><text fill="#000000" font-family="sans-serif" font-size="14" lengthAdjust="spacing" textLength="103" x="695.5" y="163.0332">-power: Boolean</text><text fill="#000000" font-family="sans-serif" font-size="14" lengthAdjust="spacing" textLength="147" x="695.5" y="180.6426">-systemActive: Boolean</text><line style="stroke:#181818;stroke-width:0.5;" x1="690.5" x2="847.5" y1="187.7188" y2="187.7188"/><text fill="#000000" font-family="sans-serif" font-size="14" lengthAdjust="spacing" textLength="67" x="695.5" y="206.252">+initialize()</text><text fill="#000000" font-family="sans-serif" font-size="14" lengthAdjust="spacing" textLength="124" x="695.5" y="223.8613">+calibrateSensors()</text><text fill="#000000" font-family="sans-serif" font-size="14" lengthAdjust="spacing" textLength="106" x="695.5" y="241.4707">+processInputs()</text><text fill="#000000" font-family="sans-serif" font-size="14" lengthAdjust="spacing" textLength="113" x="695.5" y="259.0801">+performActions()</text></g><!--class SensorSystem--><g id="elem_SensorSystem"><rect codeLine="23" fill="#F1F1F1" height="171.2656" id="SensorSystem" rx="2.5" ry="2.5" style="stroke:#181818;stroke-width:0.5;" width="203" x="204.5" y="336"/><ellipse cx="256.25" cy="352" fill="#ADD1B2" rx="11" ry="11" style="stroke:#181818;stroke-width:1.0;"/><path d="M259.0156,347.875 Q259.1719,347.6563 259.3594,347.5469 Q259.5469,347.4375 259.7656,347.4375 Q260.1406,347.4375 260.375,347.7031 Q260.6094,347.9531 260.6094,348.5625 L260.6094,350.0156 Q260.6094,350.625 260.375,350.8906 Q260.1406,351.1563 259.7656,351.1563 Q259.4219,351.1563 259.2188,350.9531 Q259.0156,350.7656 258.9063,350.25 Q258.8594,349.8906 258.6719,349.7031 Q258.3438,349.3281 257.7344,349.1094 Q257.125,348.8906 256.5,348.8906 Q255.7344,348.8906 255.0938,349.2188 Q254.4688,349.5469 253.9688,350.2969 Q253.4844,351.0469 253.4844,352.0781 L253.4844,353.1719 Q253.4844,354.4063 254.375,355.2344 Q255.2656,356.0469 256.8594,356.0469 Q257.7969,356.0469 258.4531,355.7969 Q258.8438,355.6406 259.2656,355.2031 Q259.5313,354.9375 259.6719,354.8594 Q259.8281,354.7813 260.0313,354.7813 Q260.3594,354.7813 260.6094,355.0469 Q260.875,355.2969 260.875,355.6406 Q260.875,355.9844 260.5313,356.3906 Q260.0313,356.9688 259.2344,357.2969 Q258.1563,357.75 256.8594,357.75 Q255.3438,357.75 254.1406,357.125 Q253.1563,356.625 252.4688,355.5625 Q251.7813,354.4844 251.7813,353.2031 L251.7813,352.0469 Q251.7813,350.7188 252.3906,349.5781 Q253.0156,348.4219 254.1094,347.8125 Q255.2031,347.1875 256.4375,347.1875 Q257.1719,347.1875 257.8125,347.3594 Q258.4688,347.5156 259.0156,347.875 Z " fill="#000000"/><text fill="#000000" font-family="sans-serif" font-size="14" lengthAdjust="spacing" textLength="91" x="276.75" y="357.7285">SensorSystem</text><line style="stroke:#181818;stroke-width:0.5;" x1="205.5" x2="406.5" y1="368" y2="368"/><text fill="#000000" font-family="sans-serif" font-size="14" lengthAdjust="spacing" textLength="191" x="210.5" y="386.5332">-sensorReadings: SensorData</text><text fill="#000000" font-family="sans-serif" font-size="14" lengthAdjust="spacing" textLength="170" x="210.5" y="404.1426">-calibrationStatus: Boolean</text><line style="stroke:#181818;stroke-width:0.5;" x1="205.5" x2="406.5" y1="411.2188" y2="411.2188"/><text fill="#000000" font-family="sans-serif" font-size="14" lengthAdjust="spacing" textLength="99" x="210.5" y="429.752">+readSensors()</text><text fill="#000000" font-family="sans-serif" font-size="14" lengthAdjust="spacing" textLength="72" x="210.5" y="447.3613">+calibrate()</text><text fill="#000000" font-family="sans-serif" font-size="14" lengthAdjust="spacing" textLength="144" x="210.5" y="464.9707">+detectLine(): Boolean</text><text fill="#000000" font-family="sans-serif" font-size="14" lengthAdjust="spacing" textLength="173" x="210.5" y="482.5801">+detectObstacle(): Boolean</text><text fill="#000000" font-family="sans-serif" font-size="14" lengthAdjust="spacing" textLength="165" x="210.5" y="500.1895">+detectColor(): ColorType</text></g><!--class MotorSystem--><g id="elem_MotorSystem"><rect codeLine="33" fill="#F1F1F1" height="171.2656" id="MotorSystem" rx="2.5" ry="2.5" style="stroke:#181818;stroke-width:0.5;" width="350" x="443" y="336"/><ellipse cx="572.75" cy="352" fill="#ADD1B2" rx="11" ry="11" style="stroke:#181818;stroke-width:1.0;"/><path d="M575.5156,347.875 Q575.6719,347.6563 575.8594,347.5469 Q576.0469,347.4375 576.2656,347.4375 Q576.6406,347.4375 576.875,347.7031 Q577.1094,347.9531 577.1094,348.5625 L577.1094,350.0156 Q577.1094,350.625 576.875,350.8906 Q576.6406,351.1563 576.2656,351.1563 Q575.9219,351.1563 575.7188,350.9531 Q575.5156,350.7656 575.4063,350.25 Q575.3594,349.8906 575.1719,349.7031 Q574.8438,349.3281 574.2344,349.1094 Q573.625,348.8906 573,348.8906 Q572.2344,348.8906 571.5938,349.2188 Q570.9688,349.5469 570.4688,350.2969 Q569.9844,351.0469 569.9844,352.0781 L569.9844,353.1719 Q569.9844,354.4063 570.875,355.2344 Q571.7656,356.0469 573.3594,356.0469 Q574.2969,356.0469 574.9531,355.7969 Q575.3438,355.6406 575.7656,355.2031 Q576.0313,354.9375 576.1719,354.8594 Q576.3281,354.7813 576.5313,354.7813 Q576.8594,354.7813 577.1094,355.0469 Q577.375,355.2969 577.375,355.6406 Q577.375,355.9844 577.0313,356.3906 Q576.5313,356.9688 575.7344,357.2969 Q574.6563,357.75 573.3594,357.75 Q571.8438,357.75 570.6406,357.125 Q569.6563,356.625 568.9688,355.5625 Q568.2813,354.4844 568.2813,353.2031 L568.2813,352.0469 Q568.2813,350.7188 568.8906,349.5781 Q569.5156,348.4219 570.6094,347.8125 Q571.7031,347.1875 572.9375,347.1875 Q573.6719,347.1875 574.3125,347.3594 Q574.9688,347.5156 575.5156,347.875 Z " fill="#000000"/><text fill="#000000" font-family="sans-serif" font-size="14" lengthAdjust="spacing" textLength="82" x="593.25" y="357.7285">MotorSystem</text><line style="stroke:#181818;stroke-width:0.5;" x1="444" x2="792" y1="368" y2="368"/><text fill="#000000" font-family="sans-serif" font-size="14" lengthAdjust="spacing" textLength="117" x="449" y="386.5332">-leftSpeed: Integer</text><text fill="#000000" font-family="sans-serif" font-size="14" lengthAdjust="spacing" textLength="126" x="449" y="404.1426">-rightSpeed: Integer</text><text fill="#000000" font-family="sans-serif" font-size="14" lengthAdjust="spacing" textLength="151" x="449" y="421.752">-motorState: MotorState</text><line style="stroke:#181818;stroke-width:0.5;" x1="444" x2="792" y1="428.8281" y2="428.8281"/><text fill="#000000" font-family="sans-serif" font-size="14" lengthAdjust="spacing" textLength="338" x="449" y="447.3613">+adjustSpeed(leftSpeed: Integer, rightSpeed: Integer)</text><text fill="#000000" font-family="sans-serif" font-size="14" lengthAdjust="spacing" textLength="45" x="449" y="464.9707">+stop()</text><text fill="#000000" font-family="sans-serif" font-size="14" lengthAdjust="spacing" textLength="140" x="449" y="482.5801">+turn(direction, angle)</text><text fill="#000000" font-family="sans-serif" font-size="14" lengthAdjust="spacing" textLength="143" x="449" y="500.1895">+moveForward(speed)</text></g><!--class Controller--><g id="elem_Controller"><rect codeLine="43" fill="#F1F1F1" height="118.4375" id="Controller" rx="2.5" ry="2.5" style="stroke:#181818;stroke-width:0.5;" width="184" x="828" y="362.5"/><ellipse cx="884.75" cy="378.5" fill="#ADD1B2" rx="11" ry="11" style="stroke:#181818;stroke-width:1.0;"/><path d="M887.5156,374.375 Q887.6719,374.1563 887.8594,374.0469 Q888.0469,373.9375 888.2656,373.9375 Q888.6406,373.9375 888.875,374.2031 Q889.1094,374.4531 889.1094,375.0625 L889.1094,376.5156 Q889.1094,377.125 888.875,377.3906 Q888.6406,377.6563 888.2656,377.6563 Q887.9219,377.6563 887.7188,377.4531 Q887.5156,377.2656 887.4063,376.75 Q887.3594,376.3906 887.1719,376.2031 Q886.8438,375.8281 886.2344,375.6094 Q885.625,375.3906 885,375.3906 Q884.2344,375.3906 883.5938,375.7188 Q882.9688,376.0469 882.4688,376.7969 Q881.9844,377.5469 881.9844,378.5781 L881.9844,379.6719 Q881.9844,380.9063 882.875,381.7344 Q883.7656,382.5469 885.3594,382.5469 Q886.2969,382.5469 886.9531,382.2969 Q887.3438,382.1406 887.7656,381.7031 Q888.0313,381.4375 888.1719,381.3594 Q888.3281,381.2813 888.5313,381.2813 Q888.8594,381.2813 889.1094,381.5469 Q889.375,381.7969 889.375,382.1406 Q889.375,382.4844 889.0313,382.8906 Q888.5313,383.4688 887.7344,383.7969 Q886.6563,384.25 885.3594,384.25 Q883.8438,384.25 882.6406,383.625 Q881.6563,383.125 880.9688,382.0625 Q880.2813,380.9844 880.2813,379.7031 L880.2813,378.5469 Q880.2813,377.2188 880.8906,376.0781 Q881.5156,374.9219 882.6094,374.3125 Q883.7031,373.6875 884.9375,373.6875 Q885.6719,373.6875 886.3125,373.8594 Q886.9688,374.0156 887.5156,374.375 Z " fill="#000000"/><text fill="#000000" font-family="sans-serif" font-size="14" lengthAdjust="spacing" textLength="62" x="905.25" y="384.2285">Controller</text><line style="stroke:#181818;stroke-width:0.5;" x1="829" x2="1011" y1="394.5" y2="394.5"/><text fill="#000000" font-family="sans-serif" font-size="14" lengthAdjust="spacing" textLength="170" x="834" y="413.0332">-currentState: SystemState</text><line style="stroke:#181818;stroke-width:0.5;" x1="829" x2="1011" y1="420.1094" y2="420.1094"/><text fill="#000000" font-family="sans-serif" font-size="14" lengthAdjust="spacing" textLength="172" x="834" y="438.6426">+processInput(sensorData)</text><text fill="#000000" font-family="sans-serif" font-size="14" lengthAdjust="spacing" textLength="137" x="834" y="456.252">+determineBehavior()</text><text fill="#000000" font-family="sans-serif" font-size="14" lengthAdjust="spacing" textLength="98" x="834" y="473.8613">+initiateAction()</text></g><!--class IRSensor--><g id="elem_IRSensor"><rect codeLine="50" fill="#F1F1F1" height="136.0469" id="IRSensor" rx="2.5" ry="2.5" style="stroke:#181818;stroke-width:0.5;" width="169" x="46.5" y="585"/><ellipse cx="97.75" cy="601" fill="#ADD1B2" rx="11" ry="11" style="stroke:#181818;stroke-width:1.0;"/><path d="M100.5156,596.875 Q100.6719,596.6563 100.8594,596.5469 Q101.0469,596.4375 101.2656,596.4375 Q101.6406,596.4375 101.875,596.7031 Q102.1094,596.9531 102.1094,597.5625 L102.1094,599.0156 Q102.1094,599.625 101.875,599.8906 Q101.6406,600.1563 101.2656,600.1563 Q100.9219,600.1563 100.7188,599.9531 Q100.5156,599.7656 100.4063,599.25 Q100.3594,598.8906 100.1719,598.7031 Q99.8438,598.3281 99.2344,598.1094 Q98.625,597.8906 98,597.8906 Q97.2344,597.8906 96.5938,598.2188 Q95.9688,598.5469 95.4688,599.2969 Q94.9844,600.0469 94.9844,601.0781 L94.9844,602.1719 Q94.9844,603.4063 95.875,604.2344 Q96.7656,605.0469 98.3594,605.0469 Q99.2969,605.0469 99.9531,604.7969 Q100.3438,604.6406 100.7656,604.2031 Q101.0313,603.9375 101.1719,603.8594 Q101.3281,603.7813 101.5313,603.7813 Q101.8594,603.7813 102.1094,604.0469 Q102.375,604.2969 102.375,604.6406 Q102.375,604.9844 102.0313,605.3906 Q101.5313,605.9688 100.7344,606.2969 Q99.6563,606.75 98.3594,606.75 Q96.8438,606.75 95.6406,606.125 Q94.6563,605.625 93.9688,604.5625 Q93.2813,603.4844 93.2813,602.2031 L93.2813,601.0469 Q93.2813,599.7188 93.8906,598.5781 Q94.5156,597.4219 95.6094,596.8125 Q96.7031,596.1875 97.9375,596.1875 Q98.6719,596.1875 99.3125,596.3594 Q99.9688,596.5156 100.5156,596.875 Z " fill="#000000"/><text fill="#000000" font-family="sans-serif" font-size="14" lengthAdjust="spacing" textLength="58" x="118.25" y="606.7285">IRSensor</text><line style="stroke:#181818;stroke-width:0.5;" x1="47.5" x2="214.5" y1="617" y2="617"/><text fill="#000000" font-family="sans-serif" font-size="14" lengthAdjust="spacing" textLength="157" x="52.5" y="635.5332">-position: SensorPosition</text><text fill="#000000" font-family="sans-serif" font-size="14" lengthAdjust="spacing" textLength="91" x="52.5" y="653.1426">-value: Integer</text><text fill="#000000" font-family="sans-serif" font-size="14" lengthAdjust="spacing" textLength="116" x="52.5" y="670.752">-threshold: Integer</text><line style="stroke:#181818;stroke-width:0.5;" x1="47.5" x2="214.5" y1="677.8281" y2="677.8281"/><text fill="#000000" font-family="sans-serif" font-size="14" lengthAdjust="spacing" textLength="134" x="52.5" y="696.3613">+isOnLine(): Boolean</text><text fill="#000000" font-family="sans-serif" font-size="14" lengthAdjust="spacing" textLength="47" x="52.5" y="713.9707">+read()</text></g><!--class UltrasonicSensor--><g id="elem_UltrasonicSensor"><rect codeLine="58" fill="#F1F1F1" height="118.4375" id="UltrasonicSensor" rx="2.5" ry="2.5" style="stroke:#181818;stroke-width:0.5;" width="213" x="250.5" y="594"/><ellipse cx="299.25" cy="610" fill="#ADD1B2" rx="11" ry="11" style="stroke:#181818;stroke-width:1.0;"/><path d="M302.0156,605.875 Q302.1719,605.6563 302.3594,605.5469 Q302.5469,605.4375 302.7656,605.4375 Q303.1406,605.4375 303.375,605.7031 Q303.6094,605.9531 303.6094,606.5625 L303.6094,608.0156 Q303.6094,608.625 303.375,608.8906 Q303.1406,609.1563 302.7656,609.1563 Q302.4219,609.1563 302.2188,608.9531 Q302.0156,608.7656 301.9063,608.25 Q301.8594,607.8906 301.6719,607.7031 Q301.3438,607.3281 300.7344,607.1094 Q300.125,606.8906 299.5,606.8906 Q298.7344,606.8906 298.0938,607.2188 Q297.4688,607.5469 296.9688,608.2969 Q296.4844,609.0469 296.4844,610.0781 L296.4844,611.1719 Q296.4844,612.4063 297.375,613.2344 Q298.2656,614.0469 299.8594,614.0469 Q300.7969,614.0469 301.4531,613.7969 Q301.8438,613.6406 302.2656,613.2031 Q302.5313,612.9375 302.6719,612.8594 Q302.8281,612.7813 303.0313,612.7813 Q303.3594,612.7813 303.6094,613.0469 Q303.875,613.2969 303.875,613.6406 Q303.875,613.9844 303.5313,614.3906 Q303.0313,614.9688 302.2344,615.2969 Q301.1563,615.75 299.8594,615.75 Q298.3438,615.75 297.1406,615.125 Q296.1563,614.625 295.4688,613.5625 Q294.7813,612.4844 294.7813,611.2031 L294.7813,610.0469 Q294.7813,608.7188 295.3906,607.5781 Q296.0156,606.4219 297.1094,605.8125 Q298.2031,605.1875 299.4375,605.1875 Q300.1719,605.1875 300.8125,605.3594 Q301.4688,605.5156 302.0156,605.875 Z " fill="#000000"/><text fill="#000000" font-family="sans-serif" font-size="14" lengthAdjust="spacing" textLength="107" x="319.75" y="615.7285">UltrasonicSensor</text><line style="stroke:#181818;stroke-width:0.5;" x1="251.5" x2="462.5" y1="626" y2="626"/><text fill="#000000" font-family="sans-serif" font-size="14" lengthAdjust="spacing" textLength="98" x="256.5" y="644.5332">-distance: Float</text><text fill="#000000" font-family="sans-serif" font-size="14" lengthAdjust="spacing" textLength="104" x="256.5" y="662.1426">-threshold: Float</text><line style="stroke:#181818;stroke-width:0.5;" x1="251.5" x2="462.5" y1="669.2188" y2="669.2188"/><text fill="#000000" font-family="sans-serif" font-size="14" lengthAdjust="spacing" textLength="201" x="256.5" y="687.752">+isObstacleDetected(): Boolean</text><text fill="#000000" font-family="sans-serif" font-size="14" lengthAdjust="spacing" textLength="47" x="256.5" y="705.3613">+read()</text></g><!--class ColorSensor--><g id="elem_ColorSensor"><rect codeLine="65" fill="#F1F1F1" height="118.4375" id="ColorSensor" rx="2.5" ry="2.5" style="stroke:#181818;stroke-width:0.5;" width="240" x="499" y="594"/><ellipse cx="575.25" cy="610" fill="#ADD1B2" rx="11" ry="11" style="stroke:#181818;stroke-width:1.0;"/><path d="M578.0156,605.875 Q578.1719,605.6563 578.3594,605.5469 Q578.5469,605.4375 578.7656,605.4375 Q579.1406,605.4375 579.375,605.7031 Q579.6094,605.9531 579.6094,606.5625 L579.6094,608.0156 Q579.6094,608.625 579.375,608.8906 Q579.1406,609.1563 578.7656,609.1563 Q578.4219,609.1563 578.2188,608.9531 Q578.0156,608.7656 577.9063,608.25 Q577.8594,607.8906 577.6719,607.7031 Q577.3438,607.3281 576.7344,607.1094 Q576.125,606.8906 575.5,606.8906 Q574.7344,606.8906 574.0938,607.2188 Q573.4688,607.5469 572.9688,608.2969 Q572.4844,609.0469 572.4844,610.0781 L572.4844,611.1719 Q572.4844,612.4063 573.375,613.2344 Q574.2656,614.0469 575.8594,614.0469 Q576.7969,614.0469 577.4531,613.7969 Q577.8438,613.6406 578.2656,613.2031 Q578.5313,612.9375 578.6719,612.8594 Q578.8281,612.7813 579.0313,612.7813 Q579.3594,612.7813 579.6094,613.0469 Q579.875,613.2969 579.875,613.6406 Q579.875,613.9844 579.5313,614.3906 Q579.0313,614.9688 578.2344,615.2969 Q577.1563,615.75 575.8594,615.75 Q574.3438,615.75 573.1406,615.125 Q572.1563,614.625 571.4688,613.5625 Q570.7813,612.4844 570.7813,611.2031 L570.7813,610.0469 Q570.7813,608.7188 571.3906,607.5781 Q572.0156,606.4219 573.1094,605.8125 Q574.2031,605.1875 575.4375,605.1875 Q576.1719,605.1875 576.8125,605.3594 Q577.4688,605.5156 578.0156,605.875 Z " fill="#000000"/><text fill="#000000" font-family="sans-serif" font-size="14" lengthAdjust="spacing" textLength="79" x="595.75" y="615.7285">ColorSensor</text><line style="stroke:#181818;stroke-width:0.5;" x1="500" x2="738" y1="626" y2="626"/><text fill="#000000" font-family="sans-serif" font-size="14" lengthAdjust="spacing" textLength="168" x="505" y="644.5332">-detectedColor: ColorType</text><text fill="#000000" font-family="sans-serif" font-size="14" lengthAdjust="spacing" textLength="142" x="505" y="662.1426">-colorThresholds: Map</text><line style="stroke:#181818;stroke-width:0.5;" x1="500" x2="738" y1="669.2188" y2="669.2188"/><text fill="#000000" font-family="sans-serif" font-size="14" lengthAdjust="spacing" textLength="228" x="505" y="687.752">+isSpecificColorDetected(): Boolean</text><text fill="#000000" font-family="sans-serif" font-size="14" lengthAdjust="spacing" textLength="47" x="505" y="705.3613">+read()</text></g><!--class PowerSystem--><g id="elem_PowerSystem"><rect codeLine="72" fill="#F1F1F1" height="136.0469" id="PowerSystem" rx="2.5" ry="2.5" style="stroke:#181818;stroke-width:0.5;" width="155" x="1047.5" y="353.5"/><ellipse cx="1079.6" cy="369.5" fill="#ADD1B2" rx="11" ry="11" style="stroke:#181818;stroke-width:1.0;"/><path d="M1082.3656,365.375 Q1082.5219,365.1563 1082.7094,365.0469 Q1082.8969,364.9375 1083.1156,364.9375 Q1083.4906,364.9375 1083.725,365.2031 Q1083.9594,365.4531 1083.9594,366.0625 L1083.9594,367.5156 Q1083.9594,368.125 1083.725,368.3906 Q1083.4906,368.6563 1083.1156,368.6563 Q1082.7719,368.6563 1082.5688,368.4531 Q1082.3656,368.2656 1082.2563,367.75 Q1082.2094,367.3906 1082.0219,367.2031 Q1081.6938,366.8281 1081.0844,366.6094 Q1080.475,366.3906 1079.85,366.3906 Q1079.0844,366.3906 1078.4438,366.7188 Q1077.8188,367.0469 1077.3188,367.7969 Q1076.8344,368.5469 1076.8344,369.5781 L1076.8344,370.6719 Q1076.8344,371.9063 1077.725,372.7344 Q1078.6156,373.5469 1080.2094,373.5469 Q1081.1469,373.5469 1081.8031,373.2969 Q1082.1938,373.1406 1082.6156,372.7031 Q1082.8813,372.4375 1083.0219,372.3594 Q1083.1781,372.2813 1083.3813,372.2813 Q1083.7094,372.2813 1083.9594,372.5469 Q1084.225,372.7969 1084.225,373.1406 Q1084.225,373.4844 1083.8813,373.8906 Q1083.3813,374.4688 1082.5844,374.7969 Q1081.5063,375.25 1080.2094,375.25 Q1078.6938,375.25 1077.4906,374.625 Q1076.5063,374.125 1075.8188,373.0625 Q1075.1313,371.9844 1075.1313,370.7031 L1075.1313,369.5469 Q1075.1313,368.2188 1075.7406,367.0781 Q1076.3656,365.9219 1077.4594,365.3125 Q1078.5531,364.6875 1079.7875,364.6875 Q1080.5219,364.6875 1081.1625,364.8594 Q1081.8188,365.0156 1082.3656,365.375 Z " fill="#000000"/><text fill="#000000" font-family="sans-serif" font-size="14" lengthAdjust="spacing" textLength="85" x="1097.4" y="375.2285">PowerSystem</text><line style="stroke:#181818;stroke-width:0.5;" x1="1048.5" x2="1201.5" y1="385.5" y2="385.5"/><text fill="#000000" font-family="sans-serif" font-size="14" lengthAdjust="spacing" textLength="123" x="1053.5" y="404.0332">-batteryLevel: Float</text><text fill="#000000" font-family="sans-serif" font-size="14" lengthAdjust="spacing" textLength="143" x="1053.5" y="421.6426">-powerStatus: Boolean</text><line style="stroke:#181818;stroke-width:0.5;" x1="1048.5" x2="1201.5" y1="428.7188" y2="428.7188"/><text fill="#000000" font-family="sans-serif" font-size="14" lengthAdjust="spacing" textLength="75" x="1053.5" y="447.252">+powerOn()</text><text fill="#000000" font-family="sans-serif" font-size="14" lengthAdjust="spacing" textLength="75" x="1053.5" y="464.8613">+powerOff()</text><text fill="#000000" font-family="sans-serif" font-size="14" lengthAdjust="spacing" textLength="134" x="1053.5" y="482.4707">+checkBatteryLevel()</text></g><!--class ObstacleAvoidance--><g id="elem_ObstacleAvoidance"><rect codeLine="80" fill="#F1F1F1" height="118.4375" id="ObstacleAvoidance" rx="2.5" ry="2.5" style="stroke:#181818;stroke-width:0.5;" width="196" x="774" y="594"/><ellipse cx="807.9" cy="610" fill="#ADD1B2" rx="11" ry="11" style="stroke:#181818;stroke-width:1.0;"/><path d="M810.6656,605.875 Q810.8219,605.6563 811.0094,605.5469 Q811.1969,605.4375 811.4156,605.4375 Q811.7906,605.4375 812.025,605.7031 Q812.2594,605.9531 812.2594,606.5625 L812.2594,608.0156 Q812.2594,608.625 812.025,608.8906 Q811.7906,609.1563 811.4156,609.1563 Q811.0719,609.1563 810.8688,608.9531 Q810.6656,608.7656 810.5563,608.25 Q810.5094,607.8906 810.3219,607.7031 Q809.9938,607.3281 809.3844,607.1094 Q808.775,606.8906 808.15,606.8906 Q807.3844,606.8906 806.7438,607.2188 Q806.1188,607.5469 805.6188,608.2969 Q805.1344,609.0469 805.1344,610.0781 L805.1344,611.1719 Q805.1344,612.4063 806.025,613.2344 Q806.9156,614.0469 808.5094,614.0469 Q809.4469,614.0469 810.1031,613.7969 Q810.4938,613.6406 810.9156,613.2031 Q811.1813,612.9375 811.3219,612.8594 Q811.4781,612.7813 811.6813,612.7813 Q812.0094,612.7813 812.2594,613.0469 Q812.525,613.2969 812.525,613.6406 Q812.525,613.9844 812.1813,614.3906 Q811.6813,614.9688 810.8844,615.2969 Q809.8063,615.75 808.5094,615.75 Q806.9938,615.75 805.7906,615.125 Q804.8063,614.625 804.1188,613.5625 Q803.4313,612.4844 803.4313,611.2031 L803.4313,610.0469 Q803.4313,608.7188 804.0406,607.5781 Q804.6656,606.4219 805.7594,605.8125 Q806.8531,605.1875 808.0875,605.1875 Q808.8219,605.1875 809.4625,605.3594 Q810.1188,605.5156 810.6656,605.875 Z " fill="#000000"/><text fill="#000000" font-family="sans-serif" font-size="14" lengthAdjust="spacing" textLength="122" x="826.1" y="615.7285">ObstacleAvoidance</text><line style="stroke:#181818;stroke-width:0.5;" x1="775" x2="969" y1="626" y2="626"/><text fill="#000000" font-family="sans-serif" font-size="14" lengthAdjust="spacing" textLength="184" x="780" y="644.5332">-avoidanceStrategy: Strategy</text><line style="stroke:#181818;stroke-width:0.5;" x1="775" x2="969" y1="651.6094" y2="651.6094"/><text fill="#000000" font-family="sans-serif" font-size="14" lengthAdjust="spacing" textLength="103" x="780" y="670.1426">+calculatePath()</text><text fill="#000000" font-family="sans-serif" font-size="14" lengthAdjust="spacing" textLength="97" x="780" y="687.752">+executeTurn()</text><text fill="#000000" font-family="sans-serif" font-size="14" lengthAdjust="spacing" textLength="124" x="780" y="705.3613">+resumeFollowing()</text></g><!--class LineFollowing--><g id="elem_LineFollowing"><rect codeLine="87" fill="#F1F1F1" height="136.0469" id="LineFollowing" rx="2.5" ry="2.5" style="stroke:#181818;stroke-width:0.5;" width="197" x="1005.5" y="585"/><ellipse cx="1056.75" cy="601" fill="#ADD1B2" rx="11" ry="11" style="stroke:#181818;stroke-width:1.0;"/><path d="M1059.5156,596.875 Q1059.6719,596.6563 1059.8594,596.5469 Q1060.0469,596.4375 1060.2656,596.4375 Q1060.6406,596.4375 1060.875,596.7031 Q1061.1094,596.9531 1061.1094,597.5625 L1061.1094,599.0156 Q1061.1094,599.625 1060.875,599.8906 Q1060.6406,600.1563 1060.2656,600.1563 Q1059.9219,600.1563 1059.7188,599.9531 Q1059.5156,599.7656 1059.4063,599.25 Q1059.3594,598.8906 1059.1719,598.7031 Q1058.8438,598.3281 1058.2344,598.1094 Q1057.625,597.8906 1057,597.8906 Q1056.2344,597.8906 1055.5938,598.2188 Q1054.9688,598.5469 1054.4688,599.2969 Q1053.9844,600.0469 1053.9844,601.0781 L1053.9844,602.1719 Q1053.9844,603.4063 1054.875,604.2344 Q1055.7656,605.0469 1057.3594,605.0469 Q1058.2969,605.0469 1058.9531,604.7969 Q1059.3438,604.6406 1059.7656,604.2031 Q1060.0313,603.9375 1060.1719,603.8594 Q1060.3281,603.7813 1060.5313,603.7813 Q1060.8594,603.7813 1061.1094,604.0469 Q1061.375,604.2969 1061.375,604.6406 Q1061.375,604.9844 1061.0313,605.3906 Q1060.5313,605.9688 1059.7344,606.2969 Q1058.6563,606.75 1057.3594,606.75 Q1055.8438,606.75 1054.6406,606.125 Q1053.6563,605.625 1052.9688,604.5625 Q1052.2813,603.4844 1052.2813,602.2031 L1052.2813,601.0469 Q1052.2813,599.7188 1052.8906,598.5781 Q1053.5156,597.4219 1054.6094,596.8125 Q1055.7031,596.1875 1056.9375,596.1875 Q1057.6719,596.1875 1058.3125,596.3594 Q1058.9688,596.5156 1059.5156,596.875 Z " fill="#000000"/><text fill="#000000" font-family="sans-serif" font-size="14" lengthAdjust="spacing" textLength="86" x="1077.25" y="606.7285">LineFollowing</text><line style="stroke:#181818;stroke-width:0.5;" x1="1006.5" x2="1201.5" y1="617" y2="617"/><text fill="#000000" font-family="sans-serif" font-size="14" lengthAdjust="spacing" textLength="185" x="1011.5" y="635.5332">-followingAlgorithm: Algorithm</text><text fill="#000000" font-family="sans-serif" font-size="14" lengthAdjust="spacing" textLength="171" x="1011.5" y="653.1426">-PIDParameters: PIDConfig</text><line style="stroke:#181818;stroke-width:0.5;" x1="1006.5" x2="1201.5" y1="660.2188" y2="660.2188"/><text fill="#000000" font-family="sans-serif" font-size="14" lengthAdjust="spacing" textLength="140" x="1011.5" y="678.752">+calculateCorrection()</text><text fill="#000000" font-family="sans-serif" font-size="14" lengthAdjust="spacing" textLength="99" x="1011.5" y="696.3613">+adjustMotors()</text><text fill="#000000" font-family="sans-serif" font-size="14" lengthAdjust="spacing" textLength="110" x="1011.5" y="713.9707">+searchForLine()</text></g><!--class ZoneAction--><g id="elem_ZoneAction"><rect codeLine="95" fill="#F1F1F1" height="118.4375" id="ZoneAction" rx="2.5" ry="2.5" style="stroke:#181818;stroke-width:0.5;" width="270" x="378" y="130.5"/><ellipse cx="473.25" cy="146.5" fill="#ADD1B2" rx="11" ry="11" style="stroke:#181818;stroke-width:1.0;"/><path d="M476.0156,142.375 Q476.1719,142.1563 476.3594,142.0469 Q476.5469,141.9375 476.7656,141.9375 Q477.1406,141.9375 477.375,142.2031 Q477.6094,142.4531 477.6094,143.0625 L477.6094,144.5156 Q477.6094,145.125 477.375,145.3906 Q477.1406,145.6563 476.7656,145.6563 Q476.4219,145.6563 476.2188,145.4531 Q476.0156,145.2656 475.9063,144.75 Q475.8594,144.3906 475.6719,144.2031 Q475.3438,143.8281 474.7344,143.6094 Q474.125,143.3906 473.5,143.3906 Q472.7344,143.3906 472.0938,143.7188 Q471.4688,144.0469 470.9688,144.7969 Q470.4844,145.5469 470.4844,146.5781 L470.4844,147.6719 Q470.4844,148.9063 471.375,149.7344 Q472.2656,150.5469 473.8594,150.5469 Q474.7969,150.5469 475.4531,150.2969 Q475.8438,150.1406 476.2656,149.7031 Q476.5313,149.4375 476.6719,149.3594 Q476.8281,149.2813 477.0313,149.2813 Q477.3594,149.2813 477.6094,149.5469 Q477.875,149.7969 477.875,150.1406 Q477.875,150.4844 477.5313,150.8906 Q477.0313,151.4688 476.2344,151.7969 Q475.1563,152.25 473.8594,152.25 Q472.3438,152.25 471.1406,151.625 Q470.1563,151.125 469.4688,150.0625 Q468.7813,148.9844 468.7813,147.7031 L468.7813,146.5469 Q468.7813,145.2188 469.3906,144.0781 Q470.0156,142.9219 471.1094,142.3125 Q472.2031,141.6875 473.4375,141.6875 Q474.1719,141.6875 474.8125,141.8594 Q475.4688,142.0156 476.0156,142.375 Z " fill="#000000"/><text fill="#000000" font-family="sans-serif" font-size="14" lengthAdjust="spacing" textLength="71" x="493.75" y="152.2285">ZoneAction</text><line style="stroke:#181818;stroke-width:0.5;" x1="379" x2="647" y1="162.5" y2="162.5"/><text fill="#000000" font-family="sans-serif" font-size="14" lengthAdjust="spacing" textLength="97" x="384" y="181.0332">-zoneMap: Map</text><text fill="#000000" font-family="sans-serif" font-size="14" lengthAdjust="spacing" textLength="122" x="384" y="198.6426">-currentZone: Zone</text><line style="stroke:#181818;stroke-width:0.5;" x1="379" x2="647" y1="205.7188" y2="205.7188"/><text fill="#000000" font-family="sans-serif" font-size="14" lengthAdjust="spacing" textLength="258" x="384" y="224.252">+determineZone(color: ColorType): Zone</text><text fill="#000000" font-family="sans-serif" font-size="14" lengthAdjust="spacing" textLength="138" x="384" y="241.8613">+executeZoneAction()</text></g><!--class Zone--><g id="elem_Zone"><rect codeLine="102" fill="#F1F1F1" height="171.2656" id="Zone" rx="2.5" ry="2.5" style="stroke:#181818;stroke-width:0.5;" width="134" x="197" y="104"/><ellipse cx="243.75" cy="120" fill="#ADD1B2" rx="11" ry="11" style="stroke:#181818;stroke-width:1.0;"/><path d="M246.5156,115.875 Q246.6719,115.6563 246.8594,115.5469 Q247.0469,115.4375 247.2656,115.4375 Q247.6406,115.4375 247.875,115.7031 Q248.1094,115.9531 248.1094,116.5625 L248.1094,118.0156 Q248.1094,118.625 247.875,118.8906 Q247.6406,119.1563 247.2656,119.1563 Q246.9219,119.1563 246.7188,118.9531 Q246.5156,118.7656 246.4063,118.25 Q246.3594,117.8906 246.1719,117.7031 Q245.8438,117.3281 245.2344,117.1094 Q244.625,116.8906 244,116.8906 Q243.2344,116.8906 242.5938,117.2188 Q241.9688,117.5469 241.4688,118.2969 Q240.9844,119.0469 240.9844,120.0781 L240.9844,121.1719 Q240.9844,122.4063 241.875,123.2344 Q242.7656,124.0469 244.3594,124.0469 Q245.2969,124.0469 245.9531,123.7969 Q246.3438,123.6406 246.7656,123.2031 Q247.0313,122.9375 247.1719,122.8594 Q247.3281,122.7813 247.5313,122.7813 Q247.8594,122.7813 248.1094,123.0469 Q248.375,123.2969 248.375,123.6406 Q248.375,123.9844 248.0313,124.3906 Q247.5313,124.9688 246.7344,125.2969 Q245.6563,125.75 244.3594,125.75 Q242.8438,125.75 241.6406,125.125 Q240.6563,124.625 239.9688,123.5625 Q239.2813,122.4844 239.2813,121.2031 L239.2813,120.0469 Q239.2813,118.7188 239.8906,117.5781 Q240.5156,116.4219 241.6094,115.8125 Q242.7031,115.1875 243.9375,115.1875 Q244.6719,115.1875 245.3125,115.3594 Q245.9688,115.5156 246.5156,115.875 Z " fill="#000000"/><text fill="#000000" font-family="sans-serif" font-size="14" lengthAdjust="spacing" textLength="32" x="264.25" y="125.7285">Zone</text><line style="stroke:#181818;stroke-width:0.5;" x1="198" x2="330" y1="136" y2="136"/><text fill="#000000" font-family="sans-serif" font-size="14" lengthAdjust="spacing" textLength="68" x="203" y="154.5332">-id: Integer</text><text fill="#000000" font-family="sans-serif" font-size="14" lengthAdjust="spacing" textLength="85" x="203" y="172.1426">-name: String</text><text fill="#000000" font-family="sans-serif" font-size="14" lengthAdjust="spacing" textLength="88" x="203" y="189.752">-action: String</text><line style="stroke:#181818;stroke-width:0.5;" x1="198" x2="330" y1="196.8281" y2="196.8281"/><text fill="#000000" font-family="sans-serif" font-size="14" lengthAdjust="spacing" textLength="101" x="203" y="215.3613">+getId(): Integer</text><text fill="#000000" font-family="sans-serif" font-size="14" lengthAdjust="spacing" textLength="119" x="203" y="232.9707">+getName(): String</text><text fill="#000000" font-family="sans-serif" font-size="14" lengthAdjust="spacing" textLength="122" x="203" y="250.5801">+getAction(): String</text><text fill="#000000" font-family="sans-serif" font-size="14" lengthAdjust="spacing" textLength="106" x="203" y="268.1895">+performAction()</text></g><!--reverse link LineFollowerRobot to SensorSystem--><g id="link_LineFollowerRobot_SensorSystem"><path codeLine="113" d="M679.5194,267.8024 C671.8494,272.9224 673.95,270.98 666,275 C567.77,324.64 525.98,290 426,336 C419.87,338.82 413.72,341.97 407.62,345.33 " fill="none" id="LineFollowerRobot-backto-SensorSystem" style="stroke:#181818;stroke-width:1.0;"/><polygon fill="#181818" points="689.5,261.14,682.2889,261.1443,679.5194,267.8024,686.7305,267.7981,689.5,261.14" style="stroke:#181818;stroke-width:1.0;"/></g><!--reverse link LineFollowerRobot to MotorSystem--><g id="link_LineFollowerRobot_MotorSystem"><path codeLine="114" d="M712.3439,276.8011 C697.8339,298.9011 688.49,313.13 673.67,335.71 " fill="none" id="LineFollowerRobot-backto-MotorSystem" style="stroke:#181818;stroke-width:1.0;"/><polygon fill="#181818" points="718.93,266.77,712.2933,269.5902,712.3439,276.8011,718.9807,273.9809,718.93,266.77" style="stroke:#181818;stroke-width:1.0;"/></g><!--reverse link LineFollowerRobot to Controller--><g id="link_LineFollowerRobot_Controller"><path codeLine="115" d="M825.6556,276.8015 C846.0856,307.9215 862.75,333.3 881.78,362.28 " fill="none" id="LineFollowerRobot-backto-Controller" style="stroke:#181818;stroke-width:1.0;"/><polygon fill="#181818" points="819.07,266.77,819.019,273.9809,825.6556,276.8015,825.7066,269.5905,819.07,266.77" style="stroke:#181818;stroke-width:1.0;"/></g><!--reverse link LineFollowerRobot to PowerSystem--><g id="link_LineFollowerRobot_PowerSystem"><path codeLine="116" d="M859.4756,234.6605 C912.5856,261.8005 972.27,294.98 1030,336 C1037.56,341.37 1045.19,347.25 1052.68,353.33 " fill="none" id="LineFollowerRobot-backto-PowerSystem" style="stroke:#181818;stroke-width:1.0;"/><polygon fill="#181818" points="848.79,229.2,852.3126,235.4921,859.4756,234.6605,855.953,228.3684,848.79,229.2" style="stroke:#181818;stroke-width:1.0;"/></g><!--reverse link SensorSystem to IRSensor--><g id="link_SensorSystem_IRSensor"><path codeLine="118" d="M234.0531,516.8518 C214.5831,542.3818 200.77,560.51 182.29,584.74 " fill="none" id="SensorSystem-backto-IRSensor" style="stroke:#181818;stroke-width:1.0;"/><polygon fill="#181818" points="241.33,507.31,234.5109,509.6553,234.0531,516.8518,240.8722,514.5066,241.33,507.31" style="stroke:#181818;stroke-width:1.0;"/><text fill="#000000" font-family="sans-serif" font-size="13" lengthAdjust="spacing" textLength="7" x="219" y="551.4951">2</text></g><!--reverse link SensorSystem to UltrasonicSensor--><g id="link_SensorSystem_UltrasonicSensor"><path codeLine="119" d="M327.4523,519.0244 C333.8323,547.7444 338.21,567.46 344.03,593.66 " fill="none" id="SensorSystem-backto-UltrasonicSensor" style="stroke:#181818;stroke-width:1.0;"/><polygon fill="#181818" points="324.85,507.31,322.2463,514.0347,327.4523,519.0244,330.056,512.2998,324.85,507.31" style="stroke:#181818;stroke-width:1.0;"/></g><!--reverse link SensorSystem to ColorSensor--><g id="link_SensorSystem_ColorSensor"><path codeLine="120" d="M417.2975,504.1055 C460.1375,535.5155 499.59,564.44 539.69,593.85 " fill="none" id="SensorSystem-backto-ColorSensor" style="stroke:#181818;stroke-width:1.0;"/><polygon fill="#181818" points="407.62,497.01,410.0936,503.7836,417.2975,504.1055,414.8239,497.3319,407.62,497.01" style="stroke:#181818;stroke-width:1.0;"/></g><!--reverse link Controller to ObstacleAvoidance--><g id="link_Controller_ObstacleAvoidance"><path codeLine="122" d="M905.3731,492.4558 C898.1231,527.1158 891.41,559.2 884.16,593.85 " fill="none" id="Controller-backto-ObstacleAvoidance" style="stroke:#181818;stroke-width:1.0;"/><polygon fill="#181818" points="907.83,480.71,902.6863,485.7639,905.3731,492.4558,910.5168,487.4019,907.83,480.71" style="stroke:#181818;stroke-width:1.0;"/></g><!--reverse link Controller to LineFollowing--><g id="link_Controller_LineFollowing"><path codeLine="123" d="M974.175,490.0735 C999.615,521.8135 1023.73,551.88 1050.21,584.91 " fill="none" id="Controller-backto-LineFollowing" style="stroke:#181818;stroke-width:1.0;"/><polygon fill="#181818" points="966.67,480.71,967.3013,487.8934,974.175,490.0735,973.5437,482.8901,966.67,480.71" style="stroke:#181818;stroke-width:1.0;"/></g><!--SRC=[bLPHQzim47xFhn1zQRgsCFOOoY19AGJQDIJToqOV5FbiQrKa8yd9qj7_lfCioxQIm0OjM7UdkqzttzsbekoD5a0kABFavqmezlPA7hc41oM4seDUgOr23HFKc7jE2qsthsHp85EnunVapyYySLbHb19lChLMyqrjOS6KNFDt89zx9XgOfR8GW1S9cM7iGgjQPdCbbBwxoz46ldub-v9RS0PAPw0JvKpWjT57pwifQQRsN1OafyB0Q7H9RczloVfWdXx9WxlcpgCkUFFOkSDBufkE7ttRlRCBxu3ZdrKL_XCqisfBCkwSSoL7gF9vEE7EtIJej7AY2JvE2Q0o2Ct1MDXEqSaEXhfhmYMtd0fCvlWgY1WUDvfQM8CqIfkegBHYOCn2LhNjIK7dIdltIZRYZmvgusFj4KIKnWjNG3DCh9a4etjgQJ1e8Q37jQMsDYbiZNTJU15tb6HWCNKkM-Ehr4EZUzuOIvaug_VyS4h_yNAeOFYy9sMFNYSWj-iA89kGXRHGW0uApOloj6RhtU1BiJvFyJiWeTclsZJtniU-RqwvRHDWa4en6xRMSXpPT4CyNrlbLksGKdfFTJOspbTInxcILYFbGCTtibfha3R0RfBGnzsdozZ44lUBexTOcncKTCTTcWUSjD1GAcNKOjKKliTvmvrXowDbE0VrZeeQqeJRKeCfbKWgWR7DipnD64Uv5CjtOJKrIdAMOCeuyaeoZFiW5BN7KJknZnbeUEz9XtN-f-YUasdWuC7hXhJrDVFd5WQsrHEj8Wha4ECvP_xI_q5PkhcJzC66MgpmuH5s88Pvy5FgT6DxrRFifei_vtdNvIMmjrdFTGgbpULqftZcQX01qLQojcvC50TaJFZgHWYh1KgMr9On9Fm6XbldnVNFLKo2gRTX2ECGIq5q4zgjZXP0tagceb2Qst8x8V4ps2mNzqktULntO7RmYAsNyo95E5SwT7B4r0mAFp-wgMY0QbPYQpUi7iByeMJeieZn7KL8YeuPiT6TySHVIJlOoSOiOTpLm3Rai0ju2ae4mOycfCIC-79Xzjfoij3rdV2Q560NdhF3jaRnD_JW5Abv2oVH3DPQ1_QIh43unMHANXcK72_ZJ-u7Gc_ldJNgRO-pDjtWFMlIQpu7SR1odJvEp0dvSagVJh5JDhrPusBqre7J7lNSiScW8qO4dU3lh8_HNm00]--></g></svg>