<?xml version="1.0" encoding="us-ascii" standalone="no"?><svg xmlns="http://www.w3.org/2000/svg" xmlns:xlink="http://www.w3.org/1999/xlink" contentStyleType="text/css" height="983px" preserveAspectRatio="none" style="width:1555px;height:983px;background:#FFFFFF;" version="1.1" viewBox="0 0 1555 983" width="1555px" zoomAndPan="magnify"><defs/><g><!--cluster act [Block] LineFollowerRobot [classDiagram] by Alvi--><g id="cluster_act [Block] LineFollowerRobot [classDiagram] by Alvi"><path d="M8.5,6 L377.5,6 A3.75,3.75 0 0 1 380,8.5 L387,29.6094 L1545.5,29.6094 A2.5,2.5 0 0 1 1548,32.1094 L1548,973.5 A2.5,2.5 0 0 1 1545.5,976 L8.5,976 A2.5,2.5 0 0 1 6,973.5 L6,8.5 A2.5,2.5 0 0 1 8.5,6 " fill="none" style="stroke:#000000;stroke-width:1.5;"/><line style="stroke:#000000;stroke-width:1.5;" x1="6" x2="387" y1="29.6094" y2="29.6094"/><text fill="#000000" font-family="sans-serif" font-size="14" font-weight="bold" lengthAdjust="spacing" textLength="368" x="10" y="22.5332">act [Block] LineFollowerRobot [classDiagram] by Alvi</text></g><!--cluster bdd [Class Diagram] LineFollowerRobot - by Alvi--><g id="cluster_bdd [Class Diagram] LineFollowerRobot - by Alvi"><rect fill="#FFFFFF" height="902" rx="2.5" ry="2.5" style="stroke:#000000;stroke-width:1.0;" width="1494" x="30" y="50"/><text fill="#000000" font-family="sans-serif" font-size="14" font-style="italic" lengthAdjust="spacing" textLength="52" x="751" y="66.5332">&#171;frame&#187;</text><text fill="#000000" font-family="sans-serif" font-size="14" font-weight="bold" lengthAdjust="spacing" textLength="336" x="609" y="84.1426">bdd [Class Diagram] LineFollowerRobot - by Alvi</text></g><!--class LineFollowerRobot--><g id="elem_LineFollowerRobot"><rect codeLine="14" fill="#F1F1F1" height="153.6563" id="LineFollowerRobot" rx="2.5" ry="2.5" style="stroke:#181818;stroke-width:0.5;" width="159" x="856.5" y="104"/><ellipse cx="875.55" cy="120" fill="#ADD1B2" rx="11" ry="11" style="stroke:#181818;stroke-width:1.0;"/><path d="M878.3156,115.875 Q878.4719,115.6563 878.6594,115.5469 Q878.8469,115.4375 879.0656,115.4375 Q879.4406,115.4375 879.675,115.7031 Q879.9094,115.9531 879.9094,116.5625 L879.9094,118.0156 Q879.9094,118.625 879.675,118.8906 Q879.4406,119.1563 879.0656,119.1563 Q878.7219,119.1563 878.5188,118.9531 Q878.3156,118.7656 878.2063,118.25 Q878.1594,117.8906 877.9719,117.7031 Q877.6438,117.3281 877.0344,117.1094 Q876.425,116.8906 875.8,116.8906 Q875.0344,116.8906 874.3938,117.2188 Q873.7688,117.5469 873.2688,118.2969 Q872.7844,119.0469 872.7844,120.0781 L872.7844,121.1719 Q872.7844,122.4063 873.675,123.2344 Q874.5656,124.0469 876.1594,124.0469 Q877.0969,124.0469 877.7531,123.7969 Q878.1438,123.6406 878.5656,123.2031 Q878.8313,122.9375 878.9719,122.8594 Q879.1281,122.7813 879.3313,122.7813 Q879.6594,122.7813 879.9094,123.0469 Q880.175,123.2969 880.175,123.6406 Q880.175,123.9844 879.8313,124.3906 Q879.3313,124.9688 878.5344,125.2969 Q877.4563,125.75 876.1594,125.75 Q874.6438,125.75 873.4406,125.125 Q872.4563,124.625 871.7688,123.5625 Q871.0813,122.4844 871.0813,121.2031 L871.0813,120.0469 Q871.0813,118.7188 871.6906,117.5781 Q872.3156,116.4219 873.4094,115.8125 Q874.5031,115.1875 875.7375,115.1875 Q876.4719,115.1875 877.1125,115.3594 Q877.7688,115.5156 878.3156,115.875 Z " fill="#000000"/><text fill="#000000" font-family="sans-serif" font-size="14" lengthAdjust="spacing" textLength="118" x="890.45" y="125.7285">LineFollowerRobot</text><line style="stroke:#181818;stroke-width:0.5;" x1="857.5" x2="1014.5" y1="136" y2="136"/><text fill="#000000" font-family="sans-serif" font-size="14" lengthAdjust="spacing" textLength="103" x="862.5" y="154.5332">-power: Boolean</text><text fill="#000000" font-family="sans-serif" font-size="14" lengthAdjust="spacing" textLength="147" x="862.5" y="172.1426">-systemActive: Boolean</text><line style="stroke:#181818;stroke-width:0.5;" x1="857.5" x2="1014.5" y1="179.2188" y2="179.2188"/><text fill="#000000" font-family="sans-serif" font-size="14" lengthAdjust="spacing" textLength="67" x="862.5" y="197.752">+initialize()</text><text fill="#000000" font-family="sans-serif" font-size="14" lengthAdjust="spacing" textLength="124" x="862.5" y="215.3613">+calibrateSensors()</text><text fill="#000000" font-family="sans-serif" font-size="14" lengthAdjust="spacing" textLength="106" x="862.5" y="232.9707">+processInputs()</text><text fill="#000000" font-family="sans-serif" font-size="14" lengthAdjust="spacing" textLength="113" x="862.5" y="250.5801">+performActions()</text></g><!--class SensorSystem--><g id="elem_SensorSystem"><rect codeLine="23" fill="#F1F1F1" height="171.2656" id="SensorSystem" rx="2.5" ry="2.5" style="stroke:#181818;stroke-width:0.5;" width="203" x="305.5" y="319"/><ellipse cx="357.25" cy="335" fill="#ADD1B2" rx="11" ry="11" style="stroke:#181818;stroke-width:1.0;"/><path d="M360.0156,330.875 Q360.1719,330.6563 360.3594,330.5469 Q360.5469,330.4375 360.7656,330.4375 Q361.1406,330.4375 361.375,330.7031 Q361.6094,330.9531 361.6094,331.5625 L361.6094,333.0156 Q361.6094,333.625 361.375,333.8906 Q361.1406,334.1563 360.7656,334.1563 Q360.4219,334.1563 360.2188,333.9531 Q360.0156,333.7656 359.9063,333.25 Q359.8594,332.8906 359.6719,332.7031 Q359.3438,332.3281 358.7344,332.1094 Q358.125,331.8906 357.5,331.8906 Q356.7344,331.8906 356.0938,332.2188 Q355.4688,332.5469 354.9688,333.2969 Q354.4844,334.0469 354.4844,335.0781 L354.4844,336.1719 Q354.4844,337.4063 355.375,338.2344 Q356.2656,339.0469 357.8594,339.0469 Q358.7969,339.0469 359.4531,338.7969 Q359.8438,338.6406 360.2656,338.2031 Q360.5313,337.9375 360.6719,337.8594 Q360.8281,337.7813 361.0313,337.7813 Q361.3594,337.7813 361.6094,338.0469 Q361.875,338.2969 361.875,338.6406 Q361.875,338.9844 361.5313,339.3906 Q361.0313,339.9688 360.2344,340.2969 Q359.1563,340.75 357.8594,340.75 Q356.3438,340.75 355.1406,340.125 Q354.1563,339.625 353.4688,338.5625 Q352.7813,337.4844 352.7813,336.2031 L352.7813,335.0469 Q352.7813,333.7188 353.3906,332.5781 Q354.0156,331.4219 355.1094,330.8125 Q356.2031,330.1875 357.4375,330.1875 Q358.1719,330.1875 358.8125,330.3594 Q359.4688,330.5156 360.0156,330.875 Z " fill="#000000"/><text fill="#000000" font-family="sans-serif" font-size="14" lengthAdjust="spacing" textLength="91" x="377.75" y="340.7285">SensorSystem</text><line style="stroke:#181818;stroke-width:0.5;" x1="306.5" x2="507.5" y1="351" y2="351"/><text fill="#000000" font-family="sans-serif" font-size="14" lengthAdjust="spacing" textLength="191" x="311.5" y="369.5332">-sensorReadings: SensorData</text><text fill="#000000" font-family="sans-serif" font-size="14" lengthAdjust="spacing" textLength="170" x="311.5" y="387.1426">-calibrationStatus: Boolean</text><line style="stroke:#181818;stroke-width:0.5;" x1="306.5" x2="507.5" y1="394.2188" y2="394.2188"/><text fill="#000000" font-family="sans-serif" font-size="14" lengthAdjust="spacing" textLength="99" x="311.5" y="412.752">+readSensors()</text><text fill="#000000" font-family="sans-serif" font-size="14" lengthAdjust="spacing" textLength="72" x="311.5" y="430.3613">+calibrate()</text><text fill="#000000" font-family="sans-serif" font-size="14" lengthAdjust="spacing" textLength="144" x="311.5" y="447.9707">+detectLine(): Boolean</text><text fill="#000000" font-family="sans-serif" font-size="14" lengthAdjust="spacing" textLength="173" x="311.5" y="465.5801">+detectObstacle(): Boolean</text><text fill="#000000" font-family="sans-serif" font-size="14" lengthAdjust="spacing" textLength="165" x="311.5" y="483.1895">+detectColor(): ColorType</text></g><!--class MotorSystem--><g id="elem_MotorSystem"><rect codeLine="33" fill="#F1F1F1" height="171.2656" id="MotorSystem" rx="2.5" ry="2.5" style="stroke:#181818;stroke-width:0.5;" width="350" x="610" y="319"/><ellipse cx="739.75" cy="335" fill="#ADD1B2" rx="11" ry="11" style="stroke:#181818;stroke-width:1.0;"/><path d="M742.5156,330.875 Q742.6719,330.6563 742.8594,330.5469 Q743.0469,330.4375 743.2656,330.4375 Q743.6406,330.4375 743.875,330.7031 Q744.1094,330.9531 744.1094,331.5625 L744.1094,333.0156 Q744.1094,333.625 743.875,333.8906 Q743.6406,334.1563 743.2656,334.1563 Q742.9219,334.1563 742.7188,333.9531 Q742.5156,333.7656 742.4063,333.25 Q742.3594,332.8906 742.1719,332.7031 Q741.8438,332.3281 741.2344,332.1094 Q740.625,331.8906 740,331.8906 Q739.2344,331.8906 738.5938,332.2188 Q737.9688,332.5469 737.4688,333.2969 Q736.9844,334.0469 736.9844,335.0781 L736.9844,336.1719 Q736.9844,337.4063 737.875,338.2344 Q738.7656,339.0469 740.3594,339.0469 Q741.2969,339.0469 741.9531,338.7969 Q742.3438,338.6406 742.7656,338.2031 Q743.0313,337.9375 743.1719,337.8594 Q743.3281,337.7813 743.5313,337.7813 Q743.8594,337.7813 744.1094,338.0469 Q744.375,338.2969 744.375,338.6406 Q744.375,338.9844 744.0313,339.3906 Q743.5313,339.9688 742.7344,340.2969 Q741.6563,340.75 740.3594,340.75 Q738.8438,340.75 737.6406,340.125 Q736.6563,339.625 735.9688,338.5625 Q735.2813,337.4844 735.2813,336.2031 L735.2813,335.0469 Q735.2813,333.7188 735.8906,332.5781 Q736.5156,331.4219 737.6094,330.8125 Q738.7031,330.1875 739.9375,330.1875 Q740.6719,330.1875 741.3125,330.3594 Q741.9688,330.5156 742.5156,330.875 Z " fill="#000000"/><text fill="#000000" font-family="sans-serif" font-size="14" lengthAdjust="spacing" textLength="82" x="760.25" y="340.7285">MotorSystem</text><line style="stroke:#181818;stroke-width:0.5;" x1="611" x2="959" y1="351" y2="351"/><text fill="#000000" font-family="sans-serif" font-size="14" lengthAdjust="spacing" textLength="117" x="616" y="369.5332">-leftSpeed: Integer</text><text fill="#000000" font-family="sans-serif" font-size="14" lengthAdjust="spacing" textLength="126" x="616" y="387.1426">-rightSpeed: Integer</text><text fill="#000000" font-family="sans-serif" font-size="14" lengthAdjust="spacing" textLength="151" x="616" y="404.752">-motorState: MotorState</text><line style="stroke:#181818;stroke-width:0.5;" x1="611" x2="959" y1="411.8281" y2="411.8281"/><text fill="#000000" font-family="sans-serif" font-size="14" lengthAdjust="spacing" textLength="338" x="616" y="430.3613">+adjustSpeed(leftSpeed: Integer, rightSpeed: Integer)</text><text fill="#000000" font-family="sans-serif" font-size="14" lengthAdjust="spacing" textLength="45" x="616" y="447.9707">+stop()</text><text fill="#000000" font-family="sans-serif" font-size="14" lengthAdjust="spacing" textLength="140" x="616" y="465.5801">+turn(direction, angle)</text><text fill="#000000" font-family="sans-serif" font-size="14" lengthAdjust="spacing" textLength="143" x="616" y="483.1895">+moveForward(speed)</text></g><!--class Controller--><g id="elem_Controller"><rect codeLine="43" fill="#F1F1F1" height="118.4375" id="Controller" rx="2.5" ry="2.5" style="stroke:#181818;stroke-width:0.5;" width="184" x="995" y="345.5"/><ellipse cx="1051.75" cy="361.5" fill="#ADD1B2" rx="11" ry="11" style="stroke:#181818;stroke-width:1.0;"/><path d="M1054.5156,357.375 Q1054.6719,357.1563 1054.8594,357.0469 Q1055.0469,356.9375 1055.2656,356.9375 Q1055.6406,356.9375 1055.875,357.2031 Q1056.1094,357.4531 1056.1094,358.0625 L1056.1094,359.5156 Q1056.1094,360.125 1055.875,360.3906 Q1055.6406,360.6563 1055.2656,360.6563 Q1054.9219,360.6563 1054.7188,360.4531 Q1054.5156,360.2656 1054.4063,359.75 Q1054.3594,359.3906 1054.1719,359.2031 Q1053.8438,358.8281 1053.2344,358.6094 Q1052.625,358.3906 1052,358.3906 Q1051.2344,358.3906 1050.5938,358.7188 Q1049.9688,359.0469 1049.4688,359.7969 Q1048.9844,360.5469 1048.9844,361.5781 L1048.9844,362.6719 Q1048.9844,363.9063 1049.875,364.7344 Q1050.7656,365.5469 1052.3594,365.5469 Q1053.2969,365.5469 1053.9531,365.2969 Q1054.3438,365.1406 1054.7656,364.7031 Q1055.0313,364.4375 1055.1719,364.3594 Q1055.3281,364.2813 1055.5313,364.2813 Q1055.8594,364.2813 1056.1094,364.5469 Q1056.375,364.7969 1056.375,365.1406 Q1056.375,365.4844 1056.0313,365.8906 Q1055.5313,366.4688 1054.7344,366.7969 Q1053.6563,367.25 1052.3594,367.25 Q1050.8438,367.25 1049.6406,366.625 Q1048.6563,366.125 1047.9688,365.0625 Q1047.2813,363.9844 1047.2813,362.7031 L1047.2813,361.5469 Q1047.2813,360.2188 1047.8906,359.0781 Q1048.5156,357.9219 1049.6094,357.3125 Q1050.7031,356.6875 1051.9375,356.6875 Q1052.6719,356.6875 1053.3125,356.8594 Q1053.9688,357.0156 1054.5156,357.375 Z " fill="#000000"/><text fill="#000000" font-family="sans-serif" font-size="14" lengthAdjust="spacing" textLength="62" x="1072.25" y="367.2285">Controller</text><line style="stroke:#181818;stroke-width:0.5;" x1="996" x2="1178" y1="377.5" y2="377.5"/><text fill="#000000" font-family="sans-serif" font-size="14" lengthAdjust="spacing" textLength="170" x="1001" y="396.0332">-currentState: SystemState</text><line style="stroke:#181818;stroke-width:0.5;" x1="996" x2="1178" y1="403.1094" y2="403.1094"/><text fill="#000000" font-family="sans-serif" font-size="14" lengthAdjust="spacing" textLength="172" x="1001" y="421.6426">+processInput(sensorData)</text><text fill="#000000" font-family="sans-serif" font-size="14" lengthAdjust="spacing" textLength="137" x="1001" y="439.252">+determineBehavior()</text><text fill="#000000" font-family="sans-serif" font-size="14" lengthAdjust="spacing" textLength="98" x="1001" y="456.8613">+initiateAction()</text></g><!--class IRSensor--><g id="elem_IRSensor"><rect codeLine="50" fill="#F1F1F1" height="136.0469" id="IRSensor" rx="2.5" ry="2.5" style="stroke:#181818;stroke-width:0.5;" width="169" x="46.5" y="568"/><ellipse cx="97.75" cy="584" fill="#ADD1B2" rx="11" ry="11" style="stroke:#181818;stroke-width:1.0;"/><path d="M100.5156,579.875 Q100.6719,579.6563 100.8594,579.5469 Q101.0469,579.4375 101.2656,579.4375 Q101.6406,579.4375 101.875,579.7031 Q102.1094,579.9531 102.1094,580.5625 L102.1094,582.0156 Q102.1094,582.625 101.875,582.8906 Q101.6406,583.1563 101.2656,583.1563 Q100.9219,583.1563 100.7188,582.9531 Q100.5156,582.7656 100.4063,582.25 Q100.3594,581.8906 100.1719,581.7031 Q99.8438,581.3281 99.2344,581.1094 Q98.625,580.8906 98,580.8906 Q97.2344,580.8906 96.5938,581.2188 Q95.9688,581.5469 95.4688,582.2969 Q94.9844,583.0469 94.9844,584.0781 L94.9844,585.1719 Q94.9844,586.4063 95.875,587.2344 Q96.7656,588.0469 98.3594,588.0469 Q99.2969,588.0469 99.9531,587.7969 Q100.3438,587.6406 100.7656,587.2031 Q101.0313,586.9375 101.1719,586.8594 Q101.3281,586.7813 101.5313,586.7813 Q101.8594,586.7813 102.1094,587.0469 Q102.375,587.2969 102.375,587.6406 Q102.375,587.9844 102.0313,588.3906 Q101.5313,588.9688 100.7344,589.2969 Q99.6563,589.75 98.3594,589.75 Q96.8438,589.75 95.6406,589.125 Q94.6563,588.625 93.9688,587.5625 Q93.2813,586.4844 93.2813,585.2031 L93.2813,584.0469 Q93.2813,582.7188 93.8906,581.5781 Q94.5156,580.4219 95.6094,579.8125 Q96.7031,579.1875 97.9375,579.1875 Q98.6719,579.1875 99.3125,579.3594 Q99.9688,579.5156 100.5156,579.875 Z " fill="#000000"/><text fill="#000000" font-family="sans-serif" font-size="14" lengthAdjust="spacing" textLength="58" x="118.25" y="589.7285">IRSensor</text><line style="stroke:#181818;stroke-width:0.5;" x1="47.5" x2="214.5" y1="600" y2="600"/><text fill="#000000" font-family="sans-serif" font-size="14" lengthAdjust="spacing" textLength="157" x="52.5" y="618.5332">-position: SensorPosition</text><text fill="#000000" font-family="sans-serif" font-size="14" lengthAdjust="spacing" textLength="91" x="52.5" y="636.1426">-value: Integer</text><text fill="#000000" font-family="sans-serif" font-size="14" lengthAdjust="spacing" textLength="116" x="52.5" y="653.752">-threshold: Integer</text><line style="stroke:#181818;stroke-width:0.5;" x1="47.5" x2="214.5" y1="660.8281" y2="660.8281"/><text fill="#000000" font-family="sans-serif" font-size="14" lengthAdjust="spacing" textLength="134" x="52.5" y="679.3613">+isOnLine(): Boolean</text><text fill="#000000" font-family="sans-serif" font-size="14" lengthAdjust="spacing" textLength="47" x="52.5" y="696.9707">+read()</text></g><!--class UltrasonicSensor--><g id="elem_UltrasonicSensor"><rect codeLine="58" fill="#F1F1F1" height="118.4375" id="UltrasonicSensor" rx="2.5" ry="2.5" style="stroke:#181818;stroke-width:0.5;" width="213" x="250.5" y="577"/><ellipse cx="299.25" cy="593" fill="#ADD1B2" rx="11" ry="11" style="stroke:#181818;stroke-width:1.0;"/><path d="M302.0156,588.875 Q302.1719,588.6563 302.3594,588.5469 Q302.5469,588.4375 302.7656,588.4375 Q303.1406,588.4375 303.375,588.7031 Q303.6094,588.9531 303.6094,589.5625 L303.6094,591.0156 Q303.6094,591.625 303.375,591.8906 Q303.1406,592.1563 302.7656,592.1563 Q302.4219,592.1563 302.2188,591.9531 Q302.0156,591.7656 301.9063,591.25 Q301.8594,590.8906 301.6719,590.7031 Q301.3438,590.3281 300.7344,590.1094 Q300.125,589.8906 299.5,589.8906 Q298.7344,589.8906 298.0938,590.2188 Q297.4688,590.5469 296.9688,591.2969 Q296.4844,592.0469 296.4844,593.0781 L296.4844,594.1719 Q296.4844,595.4063 297.375,596.2344 Q298.2656,597.0469 299.8594,597.0469 Q300.7969,597.0469 301.4531,596.7969 Q301.8438,596.6406 302.2656,596.2031 Q302.5313,595.9375 302.6719,595.8594 Q302.8281,595.7813 303.0313,595.7813 Q303.3594,595.7813 303.6094,596.0469 Q303.875,596.2969 303.875,596.6406 Q303.875,596.9844 303.5313,597.3906 Q303.0313,597.9688 302.2344,598.2969 Q301.1563,598.75 299.8594,598.75 Q298.3438,598.75 297.1406,598.125 Q296.1563,597.625 295.4688,596.5625 Q294.7813,595.4844 294.7813,594.2031 L294.7813,593.0469 Q294.7813,591.7188 295.3906,590.5781 Q296.0156,589.4219 297.1094,588.8125 Q298.2031,588.1875 299.4375,588.1875 Q300.1719,588.1875 300.8125,588.3594 Q301.4688,588.5156 302.0156,588.875 Z " fill="#000000"/><text fill="#000000" font-family="sans-serif" font-size="14" lengthAdjust="spacing" textLength="107" x="319.75" y="598.7285">UltrasonicSensor</text><line style="stroke:#181818;stroke-width:0.5;" x1="251.5" x2="462.5" y1="609" y2="609"/><text fill="#000000" font-family="sans-serif" font-size="14" lengthAdjust="spacing" textLength="98" x="256.5" y="627.5332">-distance: Float</text><text fill="#000000" font-family="sans-serif" font-size="14" lengthAdjust="spacing" textLength="104" x="256.5" y="645.1426">-threshold: Float</text><line style="stroke:#181818;stroke-width:0.5;" x1="251.5" x2="462.5" y1="652.2188" y2="652.2188"/><text fill="#000000" font-family="sans-serif" font-size="14" lengthAdjust="spacing" textLength="201" x="256.5" y="670.752">+isObstacleDetected(): Boolean</text><text fill="#000000" font-family="sans-serif" font-size="14" lengthAdjust="spacing" textLength="47" x="256.5" y="688.3613">+read()</text></g><!--class ColorSensor--><g id="elem_ColorSensor"><rect codeLine="65" fill="#F1F1F1" height="118.4375" id="ColorSensor" rx="2.5" ry="2.5" style="stroke:#181818;stroke-width:0.5;" width="240" x="499" y="577"/><ellipse cx="575.25" cy="593" fill="#ADD1B2" rx="11" ry="11" style="stroke:#181818;stroke-width:1.0;"/><path d="M578.0156,588.875 Q578.1719,588.6563 578.3594,588.5469 Q578.5469,588.4375 578.7656,588.4375 Q579.1406,588.4375 579.375,588.7031 Q579.6094,588.9531 579.6094,589.5625 L579.6094,591.0156 Q579.6094,591.625 579.375,591.8906 Q579.1406,592.1563 578.7656,592.1563 Q578.4219,592.1563 578.2188,591.9531 Q578.0156,591.7656 577.9063,591.25 Q577.8594,590.8906 577.6719,590.7031 Q577.3438,590.3281 576.7344,590.1094 Q576.125,589.8906 575.5,589.8906 Q574.7344,589.8906 574.0938,590.2188 Q573.4688,590.5469 572.9688,591.2969 Q572.4844,592.0469 572.4844,593.0781 L572.4844,594.1719 Q572.4844,595.4063 573.375,596.2344 Q574.2656,597.0469 575.8594,597.0469 Q576.7969,597.0469 577.4531,596.7969 Q577.8438,596.6406 578.2656,596.2031 Q578.5313,595.9375 578.6719,595.8594 Q578.8281,595.7813 579.0313,595.7813 Q579.3594,595.7813 579.6094,596.0469 Q579.875,596.2969 579.875,596.6406 Q579.875,596.9844 579.5313,597.3906 Q579.0313,597.9688 578.2344,598.2969 Q577.1563,598.75 575.8594,598.75 Q574.3438,598.75 573.1406,598.125 Q572.1563,597.625 571.4688,596.5625 Q570.7813,595.4844 570.7813,594.2031 L570.7813,593.0469 Q570.7813,591.7188 571.3906,590.5781 Q572.0156,589.4219 573.1094,588.8125 Q574.2031,588.1875 575.4375,588.1875 Q576.1719,588.1875 576.8125,588.3594 Q577.4688,588.5156 578.0156,588.875 Z " fill="#000000"/><text fill="#000000" font-family="sans-serif" font-size="14" lengthAdjust="spacing" textLength="79" x="595.75" y="598.7285">ColorSensor</text><line style="stroke:#181818;stroke-width:0.5;" x1="500" x2="738" y1="609" y2="609"/><text fill="#000000" font-family="sans-serif" font-size="14" lengthAdjust="spacing" textLength="168" x="505" y="627.5332">-detectedColor: ColorType</text><text fill="#000000" font-family="sans-serif" font-size="14" lengthAdjust="spacing" textLength="142" x="505" y="645.1426">-colorThresholds: Map</text><line style="stroke:#181818;stroke-width:0.5;" x1="500" x2="738" y1="652.2188" y2="652.2188"/><text fill="#000000" font-family="sans-serif" font-size="14" lengthAdjust="spacing" textLength="228" x="505" y="670.752">+isSpecificColorDetected(): Boolean</text><text fill="#000000" font-family="sans-serif" font-size="14" lengthAdjust="spacing" textLength="47" x="505" y="688.3613">+read()</text></g><!--class PowerSystem--><g id="elem_PowerSystem"><rect codeLine="72" fill="#F1F1F1" height="136.0469" id="PowerSystem" rx="2.5" ry="2.5" style="stroke:#181818;stroke-width:0.5;" width="155" x="1214.5" y="336.5"/><ellipse cx="1246.6" cy="352.5" fill="#ADD1B2" rx="11" ry="11" style="stroke:#181818;stroke-width:1.0;"/><path d="M1249.3656,348.375 Q1249.5219,348.1563 1249.7094,348.0469 Q1249.8969,347.9375 1250.1156,347.9375 Q1250.4906,347.9375 1250.725,348.2031 Q1250.9594,348.4531 1250.9594,349.0625 L1250.9594,350.5156 Q1250.9594,351.125 1250.725,351.3906 Q1250.4906,351.6563 1250.1156,351.6563 Q1249.7719,351.6563 1249.5688,351.4531 Q1249.3656,351.2656 1249.2563,350.75 Q1249.2094,350.3906 1249.0219,350.2031 Q1248.6938,349.8281 1248.0844,349.6094 Q1247.475,349.3906 1246.85,349.3906 Q1246.0844,349.3906 1245.4438,349.7188 Q1244.8188,350.0469 1244.3188,350.7969 Q1243.8344,351.5469 1243.8344,352.5781 L1243.8344,353.6719 Q1243.8344,354.9063 1244.725,355.7344 Q1245.6156,356.5469 1247.2094,356.5469 Q1248.1469,356.5469 1248.8031,356.2969 Q1249.1938,356.1406 1249.6156,355.7031 Q1249.8813,355.4375 1250.0219,355.3594 Q1250.1781,355.2813 1250.3813,355.2813 Q1250.7094,355.2813 1250.9594,355.5469 Q1251.225,355.7969 1251.225,356.1406 Q1251.225,356.4844 1250.8813,356.8906 Q1250.3813,357.4688 1249.5844,357.7969 Q1248.5063,358.25 1247.2094,358.25 Q1245.6938,358.25 1244.4906,357.625 Q1243.5063,357.125 1242.8188,356.0625 Q1242.1313,354.9844 1242.1313,353.7031 L1242.1313,352.5469 Q1242.1313,351.2188 1242.7406,350.0781 Q1243.3656,348.9219 1244.4594,348.3125 Q1245.5531,347.6875 1246.7875,347.6875 Q1247.5219,347.6875 1248.1625,347.8594 Q1248.8188,348.0156 1249.3656,348.375 Z " fill="#000000"/><text fill="#000000" font-family="sans-serif" font-size="14" lengthAdjust="spacing" textLength="85" x="1264.4" y="358.2285">PowerSystem</text><line style="stroke:#181818;stroke-width:0.5;" x1="1215.5" x2="1368.5" y1="368.5" y2="368.5"/><text fill="#000000" font-family="sans-serif" font-size="14" lengthAdjust="spacing" textLength="123" x="1220.5" y="387.0332">-batteryLevel: Float</text><text fill="#000000" font-family="sans-serif" font-size="14" lengthAdjust="spacing" textLength="143" x="1220.5" y="404.6426">-powerStatus: Boolean</text><line style="stroke:#181818;stroke-width:0.5;" x1="1215.5" x2="1368.5" y1="411.7188" y2="411.7188"/><text fill="#000000" font-family="sans-serif" font-size="14" lengthAdjust="spacing" textLength="75" x="1220.5" y="430.252">+powerOn()</text><text fill="#000000" font-family="sans-serif" font-size="14" lengthAdjust="spacing" textLength="75" x="1220.5" y="447.8613">+powerOff()</text><text fill="#000000" font-family="sans-serif" font-size="14" lengthAdjust="spacing" textLength="134" x="1220.5" y="465.4707">+checkBatteryLevel()</text></g><!--class ObstacleAvoidance--><g id="elem_ObstacleAvoidance"><rect codeLine="80" fill="#F1F1F1" height="118.4375" id="ObstacleAvoidance" rx="2.5" ry="2.5" style="stroke:#181818;stroke-width:0.5;" width="196" x="774" y="577"/><ellipse cx="807.9" cy="593" fill="#ADD1B2" rx="11" ry="11" style="stroke:#181818;stroke-width:1.0;"/><path d="M810.6656,588.875 Q810.8219,588.6563 811.0094,588.5469 Q811.1969,588.4375 811.4156,588.4375 Q811.7906,588.4375 812.025,588.7031 Q812.2594,588.9531 812.2594,589.5625 L812.2594,591.0156 Q812.2594,591.625 812.025,591.8906 Q811.7906,592.1563 811.4156,592.1563 Q811.0719,592.1563 810.8688,591.9531 Q810.6656,591.7656 810.5563,591.25 Q810.5094,590.8906 810.3219,590.7031 Q809.9938,590.3281 809.3844,590.1094 Q808.775,589.8906 808.15,589.8906 Q807.3844,589.8906 806.7438,590.2188 Q806.1188,590.5469 805.6188,591.2969 Q805.1344,592.0469 805.1344,593.0781 L805.1344,594.1719 Q805.1344,595.4063 806.025,596.2344 Q806.9156,597.0469 808.5094,597.0469 Q809.4469,597.0469 810.1031,596.7969 Q810.4938,596.6406 810.9156,596.2031 Q811.1813,595.9375 811.3219,595.8594 Q811.4781,595.7813 811.6813,595.7813 Q812.0094,595.7813 812.2594,596.0469 Q812.525,596.2969 812.525,596.6406 Q812.525,596.9844 812.1813,597.3906 Q811.6813,597.9688 810.8844,598.2969 Q809.8063,598.75 808.5094,598.75 Q806.9938,598.75 805.7906,598.125 Q804.8063,597.625 804.1188,596.5625 Q803.4313,595.4844 803.4313,594.2031 L803.4313,593.0469 Q803.4313,591.7188 804.0406,590.5781 Q804.6656,589.4219 805.7594,588.8125 Q806.8531,588.1875 808.0875,588.1875 Q808.8219,588.1875 809.4625,588.3594 Q810.1188,588.5156 810.6656,588.875 Z " fill="#000000"/><text fill="#000000" font-family="sans-serif" font-size="14" lengthAdjust="spacing" textLength="122" x="826.1" y="598.7285">ObstacleAvoidance</text><line style="stroke:#181818;stroke-width:0.5;" x1="775" x2="969" y1="609" y2="609"/><text fill="#000000" font-family="sans-serif" font-size="14" lengthAdjust="spacing" textLength="184" x="780" y="627.5332">-avoidanceStrategy: Strategy</text><line style="stroke:#181818;stroke-width:0.5;" x1="775" x2="969" y1="634.6094" y2="634.6094"/><text fill="#000000" font-family="sans-serif" font-size="14" lengthAdjust="spacing" textLength="103" x="780" y="653.1426">+calculatePath()</text><text fill="#000000" font-family="sans-serif" font-size="14" lengthAdjust="spacing" textLength="97" x="780" y="670.752">+executeTurn()</text><text fill="#000000" font-family="sans-serif" font-size="14" lengthAdjust="spacing" textLength="124" x="780" y="688.3613">+resumeFollowing()</text></g><!--class LineFollowing--><g id="elem_LineFollowing"><rect codeLine="87" fill="#F1F1F1" height="136.0469" id="LineFollowing" rx="2.5" ry="2.5" style="stroke:#181818;stroke-width:0.5;" width="197" x="1005.5" y="568"/><ellipse cx="1056.75" cy="584" fill="#ADD1B2" rx="11" ry="11" style="stroke:#181818;stroke-width:1.0;"/><path d="M1059.5156,579.875 Q1059.6719,579.6563 1059.8594,579.5469 Q1060.0469,579.4375 1060.2656,579.4375 Q1060.6406,579.4375 1060.875,579.7031 Q1061.1094,579.9531 1061.1094,580.5625 L1061.1094,582.0156 Q1061.1094,582.625 1060.875,582.8906 Q1060.6406,583.1563 1060.2656,583.1563 Q1059.9219,583.1563 1059.7188,582.9531 Q1059.5156,582.7656 1059.4063,582.25 Q1059.3594,581.8906 1059.1719,581.7031 Q1058.8438,581.3281 1058.2344,581.1094 Q1057.625,580.8906 1057,580.8906 Q1056.2344,580.8906 1055.5938,581.2188 Q1054.9688,581.5469 1054.4688,582.2969 Q1053.9844,583.0469 1053.9844,584.0781 L1053.9844,585.1719 Q1053.9844,586.4063 1054.875,587.2344 Q1055.7656,588.0469 1057.3594,588.0469 Q1058.2969,588.0469 1058.9531,587.7969 Q1059.3438,587.6406 1059.7656,587.2031 Q1060.0313,586.9375 1060.1719,586.8594 Q1060.3281,586.7813 1060.5313,586.7813 Q1060.8594,586.7813 1061.1094,587.0469 Q1061.375,587.2969 1061.375,587.6406 Q1061.375,587.9844 1061.0313,588.3906 Q1060.5313,588.9688 1059.7344,589.2969 Q1058.6563,589.75 1057.3594,589.75 Q1055.8438,589.75 1054.6406,589.125 Q1053.6563,588.625 1052.9688,587.5625 Q1052.2813,586.4844 1052.2813,585.2031 L1052.2813,584.0469 Q1052.2813,582.7188 1052.8906,581.5781 Q1053.5156,580.4219 1054.6094,579.8125 Q1055.7031,579.1875 1056.9375,579.1875 Q1057.6719,579.1875 1058.3125,579.3594 Q1058.9688,579.5156 1059.5156,579.875 Z " fill="#000000"/><text fill="#000000" font-family="sans-serif" font-size="14" lengthAdjust="spacing" textLength="86" x="1077.25" y="589.7285">LineFollowing</text><line style="stroke:#181818;stroke-width:0.5;" x1="1006.5" x2="1201.5" y1="600" y2="600"/><text fill="#000000" font-family="sans-serif" font-size="14" lengthAdjust="spacing" textLength="185" x="1011.5" y="618.5332">-followingAlgorithm: Algorithm</text><text fill="#000000" font-family="sans-serif" font-size="14" lengthAdjust="spacing" textLength="171" x="1011.5" y="636.1426">-PIDParameters: PIDConfig</text><line style="stroke:#181818;stroke-width:0.5;" x1="1006.5" x2="1201.5" y1="643.2188" y2="643.2188"/><text fill="#000000" font-family="sans-serif" font-size="14" lengthAdjust="spacing" textLength="140" x="1011.5" y="661.752">+calculateCorrection()</text><text fill="#000000" font-family="sans-serif" font-size="14" lengthAdjust="spacing" textLength="99" x="1011.5" y="679.3613">+adjustMotors()</text><text fill="#000000" font-family="sans-serif" font-size="14" lengthAdjust="spacing" textLength="110" x="1011.5" y="696.9707">+searchForLine()</text></g><!--class ZoneAction--><g id="elem_ZoneAction"><rect codeLine="95" fill="#F1F1F1" height="118.4375" id="ZoneAction" rx="2.5" ry="2.5" style="stroke:#181818;stroke-width:0.5;" width="270" x="1238" y="577"/><ellipse cx="1333.25" cy="593" fill="#ADD1B2" rx="11" ry="11" style="stroke:#181818;stroke-width:1.0;"/><path d="M1336.0156,588.875 Q1336.1719,588.6563 1336.3594,588.5469 Q1336.5469,588.4375 1336.7656,588.4375 Q1337.1406,588.4375 1337.375,588.7031 Q1337.6094,588.9531 1337.6094,589.5625 L1337.6094,591.0156 Q1337.6094,591.625 1337.375,591.8906 Q1337.1406,592.1563 1336.7656,592.1563 Q1336.4219,592.1563 1336.2188,591.9531 Q1336.0156,591.7656 1335.9063,591.25 Q1335.8594,590.8906 1335.6719,590.7031 Q1335.3438,590.3281 1334.7344,590.1094 Q1334.125,589.8906 1333.5,589.8906 Q1332.7344,589.8906 1332.0938,590.2188 Q1331.4688,590.5469 1330.9688,591.2969 Q1330.4844,592.0469 1330.4844,593.0781 L1330.4844,594.1719 Q1330.4844,595.4063 1331.375,596.2344 Q1332.2656,597.0469 1333.8594,597.0469 Q1334.7969,597.0469 1335.4531,596.7969 Q1335.8438,596.6406 1336.2656,596.2031 Q1336.5313,595.9375 1336.6719,595.8594 Q1336.8281,595.7813 1337.0313,595.7813 Q1337.3594,595.7813 1337.6094,596.0469 Q1337.875,596.2969 1337.875,596.6406 Q1337.875,596.9844 1337.5313,597.3906 Q1337.0313,597.9688 1336.2344,598.2969 Q1335.1563,598.75 1333.8594,598.75 Q1332.3438,598.75 1331.1406,598.125 Q1330.1563,597.625 1329.4688,596.5625 Q1328.7813,595.4844 1328.7813,594.2031 L1328.7813,593.0469 Q1328.7813,591.7188 1329.3906,590.5781 Q1330.0156,589.4219 1331.1094,588.8125 Q1332.2031,588.1875 1333.4375,588.1875 Q1334.1719,588.1875 1334.8125,588.3594 Q1335.4688,588.5156 1336.0156,588.875 Z " fill="#000000"/><text fill="#000000" font-family="sans-serif" font-size="14" lengthAdjust="spacing" textLength="71" x="1353.75" y="598.7285">ZoneAction</text><line style="stroke:#181818;stroke-width:0.5;" x1="1239" x2="1507" y1="609" y2="609"/><text fill="#000000" font-family="sans-serif" font-size="14" lengthAdjust="spacing" textLength="97" x="1244" y="627.5332">-zoneMap: Map</text><text fill="#000000" font-family="sans-serif" font-size="14" lengthAdjust="spacing" textLength="122" x="1244" y="645.1426">-currentZone: Zone</text><line style="stroke:#181818;stroke-width:0.5;" x1="1239" x2="1507" y1="652.2188" y2="652.2188"/><text fill="#000000" font-family="sans-serif" font-size="14" lengthAdjust="spacing" textLength="258" x="1244" y="670.752">+determineZone(color: ColorType): Zone</text><text fill="#000000" font-family="sans-serif" font-size="14" lengthAdjust="spacing" textLength="138" x="1244" y="688.3613">+executeZoneAction()</text></g><!--class Zone--><g id="elem_Zone"><rect codeLine="102" fill="#F1F1F1" height="171.2656" id="Zone" rx="2.5" ry="2.5" style="stroke:#181818;stroke-width:0.5;" width="134" x="1306" y="765"/><ellipse cx="1352.75" cy="781" fill="#ADD1B2" rx="11" ry="11" style="stroke:#181818;stroke-width:1.0;"/><path d="M1355.5156,776.875 Q1355.6719,776.6563 1355.8594,776.5469 Q1356.0469,776.4375 1356.2656,776.4375 Q1356.6406,776.4375 1356.875,776.7031 Q1357.1094,776.9531 1357.1094,777.5625 L1357.1094,779.0156 Q1357.1094,779.625 1356.875,779.8906 Q1356.6406,780.1563 1356.2656,780.1563 Q1355.9219,780.1563 1355.7188,779.9531 Q1355.5156,779.7656 1355.4063,779.25 Q1355.3594,778.8906 1355.1719,778.7031 Q1354.8438,778.3281 1354.2344,778.1094 Q1353.625,777.8906 1353,777.8906 Q1352.2344,777.8906 1351.5938,778.2188 Q1350.9688,778.5469 1350.4688,779.2969 Q1349.9844,780.0469 1349.9844,781.0781 L1349.9844,782.1719 Q1349.9844,783.4063 1350.875,784.2344 Q1351.7656,785.0469 1353.3594,785.0469 Q1354.2969,785.0469 1354.9531,784.7969 Q1355.3438,784.6406 1355.7656,784.2031 Q1356.0313,783.9375 1356.1719,783.8594 Q1356.3281,783.7813 1356.5313,783.7813 Q1356.8594,783.7813 1357.1094,784.0469 Q1357.375,784.2969 1357.375,784.6406 Q1357.375,784.9844 1357.0313,785.3906 Q1356.5313,785.9688 1355.7344,786.2969 Q1354.6563,786.75 1353.3594,786.75 Q1351.8438,786.75 1350.6406,786.125 Q1349.6563,785.625 1348.9688,784.5625 Q1348.2813,783.4844 1348.2813,782.2031 L1348.2813,781.0469 Q1348.2813,779.7188 1348.8906,778.5781 Q1349.5156,777.4219 1350.6094,776.8125 Q1351.7031,776.1875 1352.9375,776.1875 Q1353.6719,776.1875 1354.3125,776.3594 Q1354.9688,776.5156 1355.5156,776.875 Z " fill="#000000"/><text fill="#000000" font-family="sans-serif" font-size="14" lengthAdjust="spacing" textLength="32" x="1373.25" y="786.7285">Zone</text><line style="stroke:#181818;stroke-width:0.5;" x1="1307" x2="1439" y1="797" y2="797"/><text fill="#000000" font-family="sans-serif" font-size="14" lengthAdjust="spacing" textLength="68" x="1312" y="815.5332">-id: Integer</text><text fill="#000000" font-family="sans-serif" font-size="14" lengthAdjust="spacing" textLength="85" x="1312" y="833.1426">-name: String</text><text fill="#000000" font-family="sans-serif" font-size="14" lengthAdjust="spacing" textLength="88" x="1312" y="850.752">-action: String</text><line style="stroke:#181818;stroke-width:0.5;" x1="1307" x2="1439" y1="857.8281" y2="857.8281"/><text fill="#000000" font-family="sans-serif" font-size="14" lengthAdjust="spacing" textLength="101" x="1312" y="876.3613">+getId(): Integer</text><text fill="#000000" font-family="sans-serif" font-size="14" lengthAdjust="spacing" textLength="119" x="1312" y="893.9707">+getName(): String</text><text fill="#000000" font-family="sans-serif" font-size="14" lengthAdjust="spacing" textLength="122" x="1312" y="911.5801">+getAction(): String</text><text fill="#000000" font-family="sans-serif" font-size="14" lengthAdjust="spacing" textLength="106" x="1312" y="929.1895">+performAction()</text></g><!--reverse link LineFollowerRobot to SensorSystem--><g id="link_LineFollowerRobot_SensorSystem"><path codeLine="113" d="M845.0237,217.0037 C775.2337,244.1037 682.5,280.82 593,319 C565.6,330.69 536.15,343.81 508.95,356.15 " fill="none" id="LineFollowerRobot-backto-SensorSystem" style="stroke:#181818;stroke-width:1.0;"/><polygon fill="#181818" points="856.21,212.66,849.169,211.1031,845.0237,217.0037,852.0648,218.5606,856.21,212.66" style="stroke:#181818;stroke-width:1.0;"/></g><!--reverse link LineFollowerRobot to MotorSystem--><g id="link_LineFollowerRobot_MotorSystem"><path codeLine="114" d="M877.2731,268.1469 C863.9731,287.6669 856.33,298.86 842.75,318.78 " fill="none" id="LineFollowerRobot-backto-MotorSystem" style="stroke:#181818;stroke-width:1.0;"/><polygon fill="#181818" points="884.03,258.23,877.3459,260.9361,877.2731,268.1469,883.9572,265.4407,884.03,258.23" style="stroke:#181818;stroke-width:1.0;"/></g><!--reverse link LineFollowerRobot to Controller--><g id="link_LineFollowerRobot_Controller"><path codeLine="115" d="M994.7295,268.1451 C1014.1795,296.6751 1029.18,318.69 1047.35,345.33 " fill="none" id="LineFollowerRobot-backto-Controller" style="stroke:#181818;stroke-width:1.0;"/><polygon fill="#181818" points="987.97,258.23,988.0447,265.4407,994.7295,268.1451,994.6548,260.9344,987.97,258.23" style="stroke:#181818;stroke-width:1.0;"/></g><!--reverse link LineFollowerRobot to PowerSystem--><g id="link_LineFollowerRobot_PowerSystem"><path codeLine="116" d="M1026.512,222.713 C1079.742,247.963 1139.45,279.19 1197,319 C1204.72,324.34 1212.49,330.23 1220.08,336.35 " fill="none" id="LineFollowerRobot-backto-PowerSystem" style="stroke:#181818;stroke-width:1.0;"/><polygon fill="#181818" points="1015.67,217.57,1019.3767,223.7555,1026.512,222.713,1022.8053,216.5275,1015.67,217.57" style="stroke:#181818;stroke-width:1.0;"/></g><!--reverse link SensorSystem to IRSensor--><g id="link_SensorSystem_IRSensor"><path codeLine="118" d="M296.1738,497.6531 C265.2838,523.3431 240.99,543.54 211.67,567.92 " fill="none" id="SensorSystem-backto-IRSensor" style="stroke:#181818;stroke-width:1.0;"/><polygon fill="#181818" points="305.4,489.98,298.2292,490.7411,296.1738,497.6531,303.3446,496.892,305.4,489.98" style="stroke:#181818;stroke-width:1.0;"/><text fill="#000000" font-family="sans-serif" font-size="13" lengthAdjust="spacing" textLength="7" x="270" y="534.4951">2</text></g><!--reverse link SensorSystem to UltrasonicSensor--><g id="link_SensorSystem_UltrasonicSensor"><path codeLine="119" d="M385.9644,502.0347 C379.7044,530.7547 375.42,550.46 369.71,576.66 " fill="none" id="SensorSystem-backto-UltrasonicSensor" style="stroke:#181818;stroke-width:1.0;"/><polygon fill="#181818" points="388.52,490.31,383.334,495.3205,385.9644,502.0347,391.1504,497.0242,388.52,490.31" style="stroke:#181818;stroke-width:1.0;"/></g><!--reverse link SensorSystem to ColorSensor--><g id="link_SensorSystem_ColorSensor"><path codeLine="120" d="M493.4842,499.1232 C520.0242,527.8432 540.9,550.46 565.11,576.66 " fill="none" id="SensorSystem-backto-ColorSensor" style="stroke:#181818;stroke-width:1.0;"/><polygon fill="#181818" points="485.34,490.31,486.4744,497.4313,493.4842,499.1232,492.3498,492.0019,485.34,490.31" style="stroke:#181818;stroke-width:1.0;"/></g><!--reverse link Controller to ObstacleAvoidance--><g id="link_Controller_ObstacleAvoidance"><path codeLine="122" d="M1024.2659,472.4674 C991.7959,507.1274 958.93,542.2 926.47,576.85 " fill="none" id="Controller-backto-ObstacleAvoidance" style="stroke:#181818;stroke-width:1.0;"/><polygon fill="#181818" points="1032.47,463.71,1025.4488,465.354,1024.2659,472.4674,1031.2871,470.8234,1032.47,463.71" style="stroke:#181818;stroke-width:1.0;"/></g><!--reverse link Controller to LineFollowing--><g id="link_Controller_LineFollowing"><path codeLine="123" d="M1092.196,475.6772 C1094.546,507.4172 1096.58,534.88 1099.03,567.91 " fill="none" id="Controller-backto-LineFollowing" style="stroke:#181818;stroke-width:1.0;"/><polygon fill="#181818" points="1091.31,463.71,1087.7639,469.989,1092.196,475.6772,1095.7421,469.3983,1091.31,463.71" style="stroke:#181818;stroke-width:1.0;"/></g><!--reverse link Controller to ZoneAction--><g id="link_Controller_ZoneAction"><path codeLine="124" d="M1168.899,471.2206 C1212.089,505.8806 1257.36,542.2 1300.54,576.85 " fill="none" id="Controller-backto-ZoneAction" style="stroke:#181818;stroke-width:1.0;"/><polygon fill="#181818" points="1159.54,463.71,1161.716,470.585,1168.899,471.2206,1166.723,464.3456,1159.54,463.71" style="stroke:#181818;stroke-width:1.0;"/></g><!--link ZoneAction to Zone--><g id="link_ZoneAction_Zone"><path codeLine="126" d="M1373,695.07 C1373,716.57 1373,735.42 1373,758.81 " fill="none" id="ZoneAction-to-Zone" style="stroke:#181818;stroke-width:1.0;"/><polygon fill="#181818" points="1373,764.81,1377,755.81,1373,759.81,1369,755.81,1373,764.81" style="stroke:#181818;stroke-width:1.0;"/></g><!--SRC=[bLPHJzim47xlhx1ueGmgJNki458BGge4ewBiPOW7rxaa7guTsKvPcVZlEpkEapX5sWH8yTtvxlFTTtTKbBtI0iW9PPOyBuLYho_aZakuLKAeDz2FQgjGmmGrveRJGjFT2zaUo4Bi-GdvCp6lN5OKfSIRBApLV5jRM34bD_mToDUUYGPcgIm4u4L2bXYxqAgMsRKIIbzUvcW3LrVahUGMd87I6UX4kHHuRVBHysfAcgatBWkIKs5WCZabizcCR0xc_exSkclkFEc2dsopZ3nVExmalcdyw5dtpYwy0uw_LbNuHz3CgXt9k7FEbPoWokVXY3jtaw3Joedc-3WbWCeWD0TZORT09tiOwiu9bznoAZ2PqxCWOdZSQcfX0z8eRQAYqeg1CIjPrROd1PqhxTqhsOW_EgYDZur7454QBtm4cc5YpJmOtL1BWq4B0JrkBBMrIM5hl9l2YxYZ90EBgNFPcfwb7XhTmzPOoiIdUiyFf_GVJuSAXi-xLtRqEW6vtLG0sPoif8K2T51eNfJ7DJll1b-AzRcFtm49pNxLfhat7Vk-EEQsJO11AiLis5hBQMJJ1V5yRPKxjKTAwJUgiwbnlf8wNYjfDL8ET7mdgxK6QGFi9Wbzt7swJ4qiSRyuUeUrMK99zzobUS192msbKaQj7fl2zpXlk3DiURGEvw3UKr53cd1RQZ2b4aabCBPvaCS9uoYNOlaXhAP6ISuIJ1b7Nac6SM-5edOSjHFxc866DvvqMET_YkuvcGOE7hnkI5jVCtzkOM1RtTCgea0ECPvpvY_z7vIrcpj97sofnGeVxc0FOfW7FwMEDxPNFSXkklXpddTTNW9xNVPSfr3QN2xsYcUk1X4GRIKRwyP4SK36XAzkXB1Qe6HDRHb3mczWk7MUNF-SnIIOUXU6C0wn54GteTtgQ07ahMGX2gMvBNTp4Z-3pNfritQRntK7PWUFs7evBrA4rqg7JewOca7XvqSt5GrGpKfixORLGvW_bGnT5Z6-emX9qJ4ZDhepdlihQGSxsPGbZ3iRs8OSTW6FGOaW-6X2Iio8BnTchoqd2rtV2Sz90NRbEJjiQnH_HmzEaPgtS1BDOArrO4_98mY_c4p9AuEIyJB-ulv1wEszJurws-DJcsxmVchIQpu7SR1odJvEp3dvTaoVJh5ZDhrPusBqre7JZdfkR3BeYB6w8uPpt-FbR7RLyEW3V_u2]--></g></svg>