<?xml version="1.0" encoding="us-ascii" standalone="no"?><svg xmlns="http://www.w3.org/2000/svg" xmlns:xlink="http://www.w3.org/1999/xlink" contentStyleType="text/css" height="334px" preserveAspectRatio="none" style="width:1674px;height:334px;background:#FFFFFF;" version="1.1" viewBox="0 0 1674 334" width="1674px" zoomAndPan="magnify"><defs/><g><text fill="#000000" font-family="sans-serif" font-size="14" font-weight="bold" lengthAdjust="spacing" textLength="340" x="660" y="24.5332">Line Follower Robot - Parametric Diagram by Alvi</text><!--cluster param [Block] LineFollowerRobot [Parametric Relationships] by Alvi--><g id="cluster_param [Block] LineFollowerRobot [Parametric Relationships] by Alvi"><path d="M8.5,44.6094 L481.5,44.6094 A3.75,3.75 0 0 1 484,47.1094 L491,68.2188 L1664.5,68.2188 A2.5,2.5 0 0 1 1667,70.7188 L1667,325.1094 A2.5,2.5 0 0 1 1664.5,327.6094 L8.5,327.6094 A2.5,2.5 0 0 1 6,325.1094 L6,47.1094 A2.5,2.5 0 0 1 8.5,44.6094 " fill="none" style="stroke:#000000;stroke-width:1.5;"/><line style="stroke:#000000;stroke-width:1.5;" x1="6" x2="491" y1="68.2188" y2="68.2188"/><text fill="#000000" font-family="sans-serif" font-size="14" font-weight="bold" lengthAdjust="spacing" textLength="472" x="10" y="61.1426">param [Block] LineFollowerRobot [Parametric Relationships] by Alvi</text></g><!--class IRSensorReading--><g id="elem_IRSensorReading"><rect codeLine="14" fill="#FFFFFF" height="83.2188" id="IRSensorReading" rx="2.5" ry="2.5" style="stroke:#000000;stroke-width:0.5;" width="131" x="1519.5" y="219.6094"/><ellipse cx="1541.7" cy="235.6094" fill="#ADD1B2" rx="11" ry="11" style="stroke:#181818;stroke-width:1.0;"/><path d="M1544.4656,231.4844 Q1544.6219,231.2656 1544.8094,231.1563 Q1544.9969,231.0469 1545.2156,231.0469 Q1545.5906,231.0469 1545.825,231.3125 Q1546.0594,231.5625 1546.0594,232.1719 L1546.0594,233.625 Q1546.0594,234.2344 1545.825,234.5 Q1545.5906,234.7656 1545.2156,234.7656 Q1544.8719,234.7656 1544.6688,234.5625 Q1544.4656,234.375 1544.3563,233.8594 Q1544.3094,233.5 1544.1219,233.3125 Q1543.7938,232.9375 1543.1844,232.7188 Q1542.575,232.5 1541.95,232.5 Q1541.1844,232.5 1540.5438,232.8281 Q1539.9188,233.1563 1539.4188,233.9063 Q1538.9344,234.6563 1538.9344,235.6875 L1538.9344,236.7813 Q1538.9344,238.0156 1539.825,238.8438 Q1540.7156,239.6563 1542.3094,239.6563 Q1543.2469,239.6563 1543.9031,239.4063 Q1544.2938,239.25 1544.7156,238.8125 Q1544.9813,238.5469 1545.1219,238.4688 Q1545.2781,238.3906 1545.4813,238.3906 Q1545.8094,238.3906 1546.0594,238.6563 Q1546.325,238.9063 1546.325,239.25 Q1546.325,239.5938 1545.9813,240 Q1545.4813,240.5781 1544.6844,240.9063 Q1543.6063,241.3594 1542.3094,241.3594 Q1540.7938,241.3594 1539.5906,240.7344 Q1538.6063,240.2344 1537.9188,239.1719 Q1537.2313,238.0938 1537.2313,236.8125 L1537.2313,235.6563 Q1537.2313,234.3281 1537.8406,233.1875 Q1538.4656,232.0313 1539.5594,231.4219 Q1540.6531,230.7969 1541.8875,230.7969 Q1542.6219,230.7969 1543.2625,230.9688 Q1543.9188,231.125 1544.4656,231.4844 Z " fill="#000000"/><text fill="#000000" font-family="sans-serif" font-size="11" lengthAdjust="spacing" textLength="83" x="1557.3" y="240.1104">IRSensorReading</text><line style="stroke:#000000;stroke-width:0.5;" x1="1520.5" x2="1649.5" y1="251.6094" y2="251.6094"/><ellipse cx="1530.5" cy="265.9141" fill="none" rx="3" ry="3" style="stroke:#038048;stroke-width:1.0;"/><text fill="#000000" font-family="sans-serif" font-size="14" lengthAdjust="spacing" textLength="96" x="1539.5" y="270.1426">leftValue : Real</text><ellipse cx="1530.5" cy="283.5234" fill="none" rx="3" ry="3" style="stroke:#038048;stroke-width:1.0;"/><text fill="#000000" font-family="sans-serif" font-size="14" lengthAdjust="spacing" textLength="105" x="1539.5" y="287.752">rightValue : Real</text><line style="stroke:#000000;stroke-width:0.5;" x1="1520.5" x2="1649.5" y1="294.8281" y2="294.8281"/></g><!--class UltrasonicReading--><g id="elem_UltrasonicReading"><rect codeLine="19" fill="#FFFFFF" height="65.6094" id="UltrasonicReading" rx="2.5" ry="2.5" style="stroke:#000000;stroke-width:0.5;" width="120" x="1193" y="228.1094"/><ellipse cx="1208.45" cy="244.1094" fill="#ADD1B2" rx="11" ry="11" style="stroke:#181818;stroke-width:1.0;"/><path d="M1211.2156,239.9844 Q1211.3719,239.7656 1211.5594,239.6563 Q1211.7469,239.5469 1211.9656,239.5469 Q1212.3406,239.5469 1212.575,239.8125 Q1212.8094,240.0625 1212.8094,240.6719 L1212.8094,242.125 Q1212.8094,242.7344 1212.575,243 Q1212.3406,243.2656 1211.9656,243.2656 Q1211.6219,243.2656 1211.4188,243.0625 Q1211.2156,242.875 1211.1063,242.3594 Q1211.0594,242 1210.8719,241.8125 Q1210.5438,241.4375 1209.9344,241.2188 Q1209.325,241 1208.7,241 Q1207.9344,241 1207.2938,241.3281 Q1206.6688,241.6563 1206.1688,242.4063 Q1205.6844,243.1563 1205.6844,244.1875 L1205.6844,245.2813 Q1205.6844,246.5156 1206.575,247.3438 Q1207.4656,248.1563 1209.0594,248.1563 Q1209.9969,248.1563 1210.6531,247.9063 Q1211.0438,247.75 1211.4656,247.3125 Q1211.7313,247.0469 1211.8719,246.9688 Q1212.0281,246.8906 1212.2313,246.8906 Q1212.5594,246.8906 1212.8094,247.1563 Q1213.075,247.4063 1213.075,247.75 Q1213.075,248.0938 1212.7313,248.5 Q1212.2313,249.0781 1211.4344,249.4063 Q1210.3563,249.8594 1209.0594,249.8594 Q1207.5438,249.8594 1206.3406,249.2344 Q1205.3563,248.7344 1204.6688,247.6719 Q1203.9813,246.5938 1203.9813,245.3125 L1203.9813,244.1563 Q1203.9813,242.8281 1204.5906,241.6875 Q1205.2156,240.5313 1206.3094,239.9219 Q1207.4031,239.2969 1208.6375,239.2969 Q1209.3719,239.2969 1210.0125,239.4688 Q1210.6688,239.625 1211.2156,239.9844 Z " fill="#000000"/><text fill="#000000" font-family="sans-serif" font-size="11" lengthAdjust="spacing" textLength="87" x="1222.55" y="248.6104">UltrasonicReading</text><line style="stroke:#000000;stroke-width:0.5;" x1="1194" x2="1312" y1="260.1094" y2="260.1094"/><ellipse cx="1204" cy="274.4141" fill="none" rx="3" ry="3" style="stroke:#038048;stroke-width:1.0;"/><text fill="#000000" font-family="sans-serif" font-size="14" lengthAdjust="spacing" textLength="94" x="1213" y="278.6426">distance : Real</text><line style="stroke:#000000;stroke-width:0.5;" x1="1194" x2="1312" y1="285.7188" y2="285.7188"/></g><!--class ColorReading--><g id="elem_ColorReading"><rect codeLine="23" fill="#FFFFFF" height="100.8281" id="ColorReading" rx="2.5" ry="2.5" style="stroke:#000000;stroke-width:0.5;" width="96" x="895" y="210.6094"/><ellipse cx="910" cy="226.6094" fill="#ADD1B2" rx="11" ry="11" style="stroke:#181818;stroke-width:1.0;"/><path d="M912.7656,222.4844 Q912.9219,222.2656 913.1094,222.1563 Q913.2969,222.0469 913.5156,222.0469 Q913.8906,222.0469 914.125,222.3125 Q914.3594,222.5625 914.3594,223.1719 L914.3594,224.625 Q914.3594,225.2344 914.125,225.5 Q913.8906,225.7656 913.5156,225.7656 Q913.1719,225.7656 912.9688,225.5625 Q912.7656,225.375 912.6563,224.8594 Q912.6094,224.5 912.4219,224.3125 Q912.0938,223.9375 911.4844,223.7188 Q910.875,223.5 910.25,223.5 Q909.4844,223.5 908.8438,223.8281 Q908.2188,224.1563 907.7188,224.9063 Q907.2344,225.6563 907.2344,226.6875 L907.2344,227.7813 Q907.2344,229.0156 908.125,229.8438 Q909.0156,230.6563 910.6094,230.6563 Q911.5469,230.6563 912.2031,230.4063 Q912.5938,230.25 913.0156,229.8125 Q913.2813,229.5469 913.4219,229.4688 Q913.5781,229.3906 913.7813,229.3906 Q914.1094,229.3906 914.3594,229.6563 Q914.625,229.9063 914.625,230.25 Q914.625,230.5938 914.2813,231 Q913.7813,231.5781 912.9844,231.9063 Q911.9063,232.3594 910.6094,232.3594 Q909.0938,232.3594 907.8906,231.7344 Q906.9063,231.2344 906.2188,230.1719 Q905.5313,229.0938 905.5313,227.8125 L905.5313,226.6563 Q905.5313,225.3281 906.1406,224.1875 Q906.7656,223.0313 907.8594,222.4219 Q908.9531,221.7969 910.1875,221.7969 Q910.9219,221.7969 911.5625,221.9688 Q912.2188,222.125 912.7656,222.4844 Z " fill="#000000"/><text fill="#000000" font-family="sans-serif" font-size="11" lengthAdjust="spacing" textLength="64" x="924" y="231.1104">ColorReading</text><line style="stroke:#000000;stroke-width:0.5;" x1="896" x2="990" y1="242.6094" y2="242.6094"/><ellipse cx="906" cy="256.9141" fill="none" rx="3" ry="3" style="stroke:#038048;stroke-width:1.0;"/><text fill="#000000" font-family="sans-serif" font-size="14" lengthAdjust="spacing" textLength="66" x="915" y="261.1426">R : Integer</text><ellipse cx="906" cy="274.5234" fill="none" rx="3" ry="3" style="stroke:#038048;stroke-width:1.0;"/><text fill="#000000" font-family="sans-serif" font-size="14" lengthAdjust="spacing" textLength="67" x="915" y="278.752">G : Integer</text><ellipse cx="906" cy="292.1328" fill="none" rx="3" ry="3" style="stroke:#038048;stroke-width:1.0;"/><text fill="#000000" font-family="sans-serif" font-size="14" lengthAdjust="spacing" textLength="65" x="915" y="296.3613">B : Integer</text><line style="stroke:#000000;stroke-width:0.5;" x1="896" x2="990" y1="303.4375" y2="303.4375"/></g><!--class PowerStatus--><g id="elem_PowerStatus"><rect codeLine="29" fill="#FFFFFF" height="83.2188" id="PowerStatus" rx="2.5" ry="2.5" style="stroke:#000000;stroke-width:0.5;" width="113" x="199.5" y="219.6094"/><ellipse cx="222.6" cy="235.6094" fill="#ADD1B2" rx="11" ry="11" style="stroke:#181818;stroke-width:1.0;"/><path d="M225.3656,231.4844 Q225.5219,231.2656 225.7094,231.1563 Q225.8969,231.0469 226.1156,231.0469 Q226.4906,231.0469 226.725,231.3125 Q226.9594,231.5625 226.9594,232.1719 L226.9594,233.625 Q226.9594,234.2344 226.725,234.5 Q226.4906,234.7656 226.1156,234.7656 Q225.7719,234.7656 225.5688,234.5625 Q225.3656,234.375 225.2563,233.8594 Q225.2094,233.5 225.0219,233.3125 Q224.6938,232.9375 224.0844,232.7188 Q223.475,232.5 222.85,232.5 Q222.0844,232.5 221.4438,232.8281 Q220.8188,233.1563 220.3188,233.9063 Q219.8344,234.6563 219.8344,235.6875 L219.8344,236.7813 Q219.8344,238.0156 220.725,238.8438 Q221.6156,239.6563 223.2094,239.6563 Q224.1469,239.6563 224.8031,239.4063 Q225.1938,239.25 225.6156,238.8125 Q225.8813,238.5469 226.0219,238.4688 Q226.1781,238.3906 226.3813,238.3906 Q226.7094,238.3906 226.9594,238.6563 Q227.225,238.9063 227.225,239.25 Q227.225,239.5938 226.8813,240 Q226.3813,240.5781 225.5844,240.9063 Q224.5063,241.3594 223.2094,241.3594 Q221.6938,241.3594 220.4906,240.7344 Q219.5063,240.2344 218.8188,239.1719 Q218.1313,238.0938 218.1313,236.8125 L218.1313,235.6563 Q218.1313,234.3281 218.7406,233.1875 Q219.3656,232.0313 220.4594,231.4219 Q221.5531,230.7969 222.7875,230.7969 Q223.5219,230.7969 224.1625,230.9688 Q224.8188,231.125 225.3656,231.4844 Z " fill="#000000"/><text fill="#000000" font-family="sans-serif" font-size="11" lengthAdjust="spacing" textLength="63" x="238.4" y="240.1104">PowerStatus</text><line style="stroke:#000000;stroke-width:0.5;" x1="200.5" x2="311.5" y1="251.6094" y2="251.6094"/><ellipse cx="210.5" cy="265.9141" fill="none" rx="3" ry="3" style="stroke:#038048;stroke-width:1.0;"/><text fill="#000000" font-family="sans-serif" font-size="14" lengthAdjust="spacing" textLength="87" x="219.5" y="270.1426">voltage : Real</text><ellipse cx="210.5" cy="283.5234" fill="none" rx="3" ry="3" style="stroke:#038048;stroke-width:1.0;"/><text fill="#000000" font-family="sans-serif" font-size="14" lengthAdjust="spacing" textLength="86" x="219.5" y="287.752">current : Real</text><line style="stroke:#000000;stroke-width:0.5;" x1="200.5" x2="311.5" y1="294.8281" y2="294.8281"/></g><!--class ArduinoStatus--><g id="elem_ArduinoStatus"><rect codeLine="34" fill="#FFFFFF" height="65.6094" id="ArduinoStatus" rx="2.5" ry="2.5" style="stroke:#000000;stroke-width:0.5;" width="144" x="527" y="228.1094"/><ellipse cx="561.35" cy="244.1094" fill="#ADD1B2" rx="11" ry="11" style="stroke:#181818;stroke-width:1.0;"/><path d="M564.1156,239.9844 Q564.2719,239.7656 564.4594,239.6563 Q564.6469,239.5469 564.8656,239.5469 Q565.2406,239.5469 565.475,239.8125 Q565.7094,240.0625 565.7094,240.6719 L565.7094,242.125 Q565.7094,242.7344 565.475,243 Q565.2406,243.2656 564.8656,243.2656 Q564.5219,243.2656 564.3188,243.0625 Q564.1156,242.875 564.0063,242.3594 Q563.9594,242 563.7719,241.8125 Q563.4438,241.4375 562.8344,241.2188 Q562.225,241 561.6,241 Q560.8344,241 560.1938,241.3281 Q559.5688,241.6563 559.0688,242.4063 Q558.5844,243.1563 558.5844,244.1875 L558.5844,245.2813 Q558.5844,246.5156 559.475,247.3438 Q560.3656,248.1563 561.9594,248.1563 Q562.8969,248.1563 563.5531,247.9063 Q563.9438,247.75 564.3656,247.3125 Q564.6313,247.0469 564.7719,246.9688 Q564.9281,246.8906 565.1313,246.8906 Q565.4594,246.8906 565.7094,247.1563 Q565.975,247.4063 565.975,247.75 Q565.975,248.0938 565.6313,248.5 Q565.1313,249.0781 564.3344,249.4063 Q563.2563,249.8594 561.9594,249.8594 Q560.4438,249.8594 559.2406,249.2344 Q558.2563,248.7344 557.5688,247.6719 Q556.8813,246.5938 556.8813,245.3125 L556.8813,244.1563 Q556.8813,242.8281 557.4906,241.6875 Q558.1156,240.5313 559.2094,239.9219 Q560.3031,239.2969 561.5375,239.2969 Q562.2719,239.2969 562.9125,239.4688 Q563.5688,239.625 564.1156,239.9844 Z " fill="#000000"/><text fill="#000000" font-family="sans-serif" font-size="11" lengthAdjust="spacing" textLength="69" x="579.65" y="248.6104">ArduinoStatus</text><line style="stroke:#000000;stroke-width:0.5;" x1="528" x2="670" y1="260.1094" y2="260.1094"/><ellipse cx="538" cy="274.4141" fill="none" rx="3" ry="3" style="stroke:#038048;stroke-width:1.0;"/><text fill="#000000" font-family="sans-serif" font-size="14" lengthAdjust="spacing" textLength="118" x="547" y="278.6426">logicVoltage : Real</text><line style="stroke:#000000;stroke-width:0.5;" x1="528" x2="670" y1="285.7188" y2="285.7188"/></g><!--class MotorStatus--><g id="elem_MotorStatus"><rect codeLine="38" fill="#FFFFFF" height="65.6094" id="MotorStatus" rx="2.5" ry="2.5" style="stroke:#000000;stroke-width:0.5;" width="144" x="348" y="228.1094"/><ellipse cx="387.3" cy="244.1094" fill="#ADD1B2" rx="11" ry="11" style="stroke:#181818;stroke-width:1.0;"/><path d="M390.0656,239.9844 Q390.2219,239.7656 390.4094,239.6563 Q390.5969,239.5469 390.8156,239.5469 Q391.1906,239.5469 391.425,239.8125 Q391.6594,240.0625 391.6594,240.6719 L391.6594,242.125 Q391.6594,242.7344 391.425,243 Q391.1906,243.2656 390.8156,243.2656 Q390.4719,243.2656 390.2688,243.0625 Q390.0656,242.875 389.9563,242.3594 Q389.9094,242 389.7219,241.8125 Q389.3938,241.4375 388.7844,241.2188 Q388.175,241 387.55,241 Q386.7844,241 386.1438,241.3281 Q385.5188,241.6563 385.0188,242.4063 Q384.5344,243.1563 384.5344,244.1875 L384.5344,245.2813 Q384.5344,246.5156 385.425,247.3438 Q386.3156,248.1563 387.9094,248.1563 Q388.8469,248.1563 389.5031,247.9063 Q389.8938,247.75 390.3156,247.3125 Q390.5813,247.0469 390.7219,246.9688 Q390.8781,246.8906 391.0813,246.8906 Q391.4094,246.8906 391.6594,247.1563 Q391.925,247.4063 391.925,247.75 Q391.925,248.0938 391.5813,248.5 Q391.0813,249.0781 390.2844,249.4063 Q389.2063,249.8594 387.9094,249.8594 Q386.3938,249.8594 385.1906,249.2344 Q384.2063,248.7344 383.5188,247.6719 Q382.8313,246.5938 382.8313,245.3125 L382.8313,244.1563 Q382.8313,242.8281 383.4406,241.6875 Q384.0656,240.5313 385.1594,239.9219 Q386.2531,239.2969 387.4875,239.2969 Q388.2219,239.2969 388.8625,239.4688 Q389.5188,239.625 390.0656,239.9844 Z " fill="#000000"/><text fill="#000000" font-family="sans-serif" font-size="11" lengthAdjust="spacing" textLength="58" x="406.7" y="248.6104">MotorStatus</text><line style="stroke:#000000;stroke-width:0.5;" x1="349" x2="491" y1="260.1094" y2="260.1094"/><ellipse cx="359" cy="274.4141" fill="none" rx="3" ry="3" style="stroke:#038048;stroke-width:1.0;"/><text fill="#000000" font-family="sans-serif" font-size="14" lengthAdjust="spacing" textLength="118" x="368" y="278.6426">currentDraw : Real</text><line style="stroke:#000000;stroke-width:0.5;" x1="349" x2="491" y1="285.7188" y2="285.7188"/></g><!--class SystemPower--><g id="elem_SystemPower"><rect codeLine="42" fill="#FFFFFF" height="65.6094" id="SystemPower" rx="2.5" ry="2.5" style="stroke:#000000;stroke-width:0.5;" width="142" x="22" y="228.1094"/><ellipse cx="55.9" cy="244.1094" fill="#ADD1B2" rx="11" ry="11" style="stroke:#181818;stroke-width:1.0;"/><path d="M58.6656,239.9844 Q58.8219,239.7656 59.0094,239.6563 Q59.1969,239.5469 59.4156,239.5469 Q59.7906,239.5469 60.025,239.8125 Q60.2594,240.0625 60.2594,240.6719 L60.2594,242.125 Q60.2594,242.7344 60.025,243 Q59.7906,243.2656 59.4156,243.2656 Q59.0719,243.2656 58.8688,243.0625 Q58.6656,242.875 58.5563,242.3594 Q58.5094,242 58.3219,241.8125 Q57.9938,241.4375 57.3844,241.2188 Q56.775,241 56.15,241 Q55.3844,241 54.7438,241.3281 Q54.1188,241.6563 53.6188,242.4063 Q53.1344,243.1563 53.1344,244.1875 L53.1344,245.2813 Q53.1344,246.5156 54.025,247.3438 Q54.9156,248.1563 56.5094,248.1563 Q57.4469,248.1563 58.1031,247.9063 Q58.4938,247.75 58.9156,247.3125 Q59.1813,247.0469 59.3219,246.9688 Q59.4781,246.8906 59.6813,246.8906 Q60.0094,246.8906 60.2594,247.1563 Q60.525,247.4063 60.525,247.75 Q60.525,248.0938 60.1813,248.5 Q59.6813,249.0781 58.8844,249.4063 Q57.8063,249.8594 56.5094,249.8594 Q54.9938,249.8594 53.7906,249.2344 Q52.8063,248.7344 52.1188,247.6719 Q51.4313,246.5938 51.4313,245.3125 L51.4313,244.1563 Q51.4313,242.8281 52.0406,241.6875 Q52.6656,240.5313 53.7594,239.9219 Q54.8531,239.2969 56.0875,239.2969 Q56.8219,239.2969 57.4625,239.4688 Q58.1188,239.625 58.6656,239.9844 Z " fill="#000000"/><text fill="#000000" font-family="sans-serif" font-size="11" lengthAdjust="spacing" textLength="68" x="74.1" y="248.6104">SystemPower</text><line style="stroke:#000000;stroke-width:0.5;" x1="23" x2="163" y1="260.1094" y2="260.1094"/><ellipse cx="33" cy="274.4141" fill="none" rx="3" ry="3" style="stroke:#038048;stroke-width:1.0;"/><text fill="#000000" font-family="sans-serif" font-size="14" lengthAdjust="spacing" textLength="116" x="42" y="278.6426">totalCurrent : Real</text><line style="stroke:#000000;stroke-width:0.5;" x1="23" x2="163" y1="285.7188" y2="285.7188"/></g><!--class MotorCommand--><g id="elem_MotorCommand"><rect codeLine="47" fill="#FFFFFF" height="83.2188" id="MotorCommand" rx="2.5" ry="2.5" style="stroke:#000000;stroke-width:0.5;" width="136" x="1348" y="219.6094"/><ellipse cx="1376.5" cy="235.6094" fill="#ADD1B2" rx="11" ry="11" style="stroke:#181818;stroke-width:1.0;"/><path d="M1379.2656,231.4844 Q1379.4219,231.2656 1379.6094,231.1563 Q1379.7969,231.0469 1380.0156,231.0469 Q1380.3906,231.0469 1380.625,231.3125 Q1380.8594,231.5625 1380.8594,232.1719 L1380.8594,233.625 Q1380.8594,234.2344 1380.625,234.5 Q1380.3906,234.7656 1380.0156,234.7656 Q1379.6719,234.7656 1379.4688,234.5625 Q1379.2656,234.375 1379.1563,233.8594 Q1379.1094,233.5 1378.9219,233.3125 Q1378.5938,232.9375 1377.9844,232.7188 Q1377.375,232.5 1376.75,232.5 Q1375.9844,232.5 1375.3438,232.8281 Q1374.7188,233.1563 1374.2188,233.9063 Q1373.7344,234.6563 1373.7344,235.6875 L1373.7344,236.7813 Q1373.7344,238.0156 1374.625,238.8438 Q1375.5156,239.6563 1377.1094,239.6563 Q1378.0469,239.6563 1378.7031,239.4063 Q1379.0938,239.25 1379.5156,238.8125 Q1379.7813,238.5469 1379.9219,238.4688 Q1380.0781,238.3906 1380.2813,238.3906 Q1380.6094,238.3906 1380.8594,238.6563 Q1381.125,238.9063 1381.125,239.25 Q1381.125,239.5938 1380.7813,240 Q1380.2813,240.5781 1379.4844,240.9063 Q1378.4063,241.3594 1377.1094,241.3594 Q1375.5938,241.3594 1374.3906,240.7344 Q1373.4063,240.2344 1372.7188,239.1719 Q1372.0313,238.0938 1372.0313,236.8125 L1372.0313,235.6563 Q1372.0313,234.3281 1372.6406,233.1875 Q1373.2656,232.0313 1374.3594,231.4219 Q1375.4531,230.7969 1376.6875,230.7969 Q1377.4219,230.7969 1378.0625,230.9688 Q1378.7188,231.125 1379.2656,231.4844 Z " fill="#000000"/><text fill="#000000" font-family="sans-serif" font-size="11" lengthAdjust="spacing" textLength="74" x="1393.5" y="240.1104">MotorCommand</text><line style="stroke:#000000;stroke-width:0.5;" x1="1349" x2="1483" y1="251.6094" y2="251.6094"/><ellipse cx="1359" cy="265.9141" fill="none" rx="3" ry="3" style="stroke:#038048;stroke-width:1.0;"/><text fill="#000000" font-family="sans-serif" font-size="14" lengthAdjust="spacing" textLength="101" x="1368" y="270.1426">leftSpeed : Real</text><ellipse cx="1359" cy="283.5234" fill="none" rx="3" ry="3" style="stroke:#038048;stroke-width:1.0;"/><text fill="#000000" font-family="sans-serif" font-size="14" lengthAdjust="spacing" textLength="110" x="1368" y="287.752">rightSpeed : Real</text><line style="stroke:#000000;stroke-width:0.5;" x1="1349" x2="1483" y1="294.8281" y2="294.8281"/></g><!--class ZoneStatus--><g id="elem_ZoneStatus"><rect codeLine="52" fill="#FFFFFF" height="65.6094" id="ZoneStatus" rx="2.5" ry="2.5" style="stroke:#000000;stroke-width:0.5;" width="132" x="1026" y="228.1094"/><ellipse cx="1060.8" cy="244.1094" fill="#ADD1B2" rx="11" ry="11" style="stroke:#181818;stroke-width:1.0;"/><path d="M1063.5656,239.9844 Q1063.7219,239.7656 1063.9094,239.6563 Q1064.0969,239.5469 1064.3156,239.5469 Q1064.6906,239.5469 1064.925,239.8125 Q1065.1594,240.0625 1065.1594,240.6719 L1065.1594,242.125 Q1065.1594,242.7344 1064.925,243 Q1064.6906,243.2656 1064.3156,243.2656 Q1063.9719,243.2656 1063.7688,243.0625 Q1063.5656,242.875 1063.4563,242.3594 Q1063.4094,242 1063.2219,241.8125 Q1062.8938,241.4375 1062.2844,241.2188 Q1061.675,241 1061.05,241 Q1060.2844,241 1059.6438,241.3281 Q1059.0188,241.6563 1058.5188,242.4063 Q1058.0344,243.1563 1058.0344,244.1875 L1058.0344,245.2813 Q1058.0344,246.5156 1058.925,247.3438 Q1059.8156,248.1563 1061.4094,248.1563 Q1062.3469,248.1563 1063.0031,247.9063 Q1063.3938,247.75 1063.8156,247.3125 Q1064.0813,247.0469 1064.2219,246.9688 Q1064.3781,246.8906 1064.5813,246.8906 Q1064.9094,246.8906 1065.1594,247.1563 Q1065.425,247.4063 1065.425,247.75 Q1065.425,248.0938 1065.0813,248.5 Q1064.5813,249.0781 1063.7844,249.4063 Q1062.7063,249.8594 1061.4094,249.8594 Q1059.8938,249.8594 1058.6906,249.2344 Q1057.7063,248.7344 1057.0188,247.6719 Q1056.3313,246.5938 1056.3313,245.3125 L1056.3313,244.1563 Q1056.3313,242.8281 1056.9406,241.6875 Q1057.5656,240.5313 1058.6594,239.9219 Q1059.7531,239.2969 1060.9875,239.2969 Q1061.7219,239.2969 1062.3625,239.4688 Q1063.0188,239.625 1063.5656,239.9844 Z " fill="#000000"/><text fill="#000000" font-family="sans-serif" font-size="11" lengthAdjust="spacing" textLength="56" x="1079.2" y="248.6104">ZoneStatus</text><line style="stroke:#000000;stroke-width:0.5;" x1="1027" x2="1157" y1="260.1094" y2="260.1094"/><ellipse cx="1037" cy="274.4141" fill="none" rx="3" ry="3" style="stroke:#038048;stroke-width:1.0;"/><text fill="#000000" font-family="sans-serif" font-size="14" lengthAdjust="spacing" textLength="106" x="1046" y="278.6426">zone : ZoneType</text><line style="stroke:#000000;stroke-width:0.5;" x1="1027" x2="1157" y1="285.7188" y2="285.7188"/></g><!--class LEDStatus--><g id="elem_LEDStatus"><rect codeLine="56" fill="#FFFFFF" height="100.8281" id="LEDStatus" rx="2.5" ry="2.5" style="stroke:#000000;stroke-width:0.5;" width="154" x="706" y="210.6094"/><ellipse cx="753.75" cy="226.6094" fill="#ADD1B2" rx="11" ry="11" style="stroke:#181818;stroke-width:1.0;"/><path d="M756.5156,222.4844 Q756.6719,222.2656 756.8594,222.1563 Q757.0469,222.0469 757.2656,222.0469 Q757.6406,222.0469 757.875,222.3125 Q758.1094,222.5625 758.1094,223.1719 L758.1094,224.625 Q758.1094,225.2344 757.875,225.5 Q757.6406,225.7656 757.2656,225.7656 Q756.9219,225.7656 756.7188,225.5625 Q756.5156,225.375 756.4063,224.8594 Q756.3594,224.5 756.1719,224.3125 Q755.8438,223.9375 755.2344,223.7188 Q754.625,223.5 754,223.5 Q753.2344,223.5 752.5938,223.8281 Q751.9688,224.1563 751.4688,224.9063 Q750.9844,225.6563 750.9844,226.6875 L750.9844,227.7813 Q750.9844,229.0156 751.875,229.8438 Q752.7656,230.6563 754.3594,230.6563 Q755.2969,230.6563 755.9531,230.4063 Q756.3438,230.25 756.7656,229.8125 Q757.0313,229.5469 757.1719,229.4688 Q757.3281,229.3906 757.5313,229.3906 Q757.8594,229.3906 758.1094,229.6563 Q758.375,229.9063 758.375,230.25 Q758.375,230.5938 758.0313,231 Q757.5313,231.5781 756.7344,231.9063 Q755.6563,232.3594 754.3594,232.3594 Q752.8438,232.3594 751.6406,231.7344 Q750.6563,231.2344 749.9688,230.1719 Q749.2813,229.0938 749.2813,227.8125 L749.2813,226.6563 Q749.2813,225.3281 749.8906,224.1875 Q750.5156,223.0313 751.6094,222.4219 Q752.7031,221.7969 753.9375,221.7969 Q754.6719,221.7969 755.3125,221.9688 Q755.9688,222.125 756.5156,222.4844 Z " fill="#000000"/><text fill="#000000" font-family="sans-serif" font-size="11" lengthAdjust="spacing" textLength="50" x="774.25" y="231.1104">LEDStatus</text><line style="stroke:#000000;stroke-width:0.5;" x1="707" x2="859" y1="242.6094" y2="242.6094"/><ellipse cx="717" cy="256.9141" fill="none" rx="3" ry="3" style="stroke:#038048;stroke-width:1.0;"/><text fill="#000000" font-family="sans-serif" font-size="14" lengthAdjust="spacing" textLength="112" x="726" y="261.1426">redLED : Boolean</text><ellipse cx="717" cy="274.5234" fill="none" rx="3" ry="3" style="stroke:#038048;stroke-width:1.0;"/><text fill="#000000" font-family="sans-serif" font-size="14" lengthAdjust="spacing" textLength="128" x="726" y="278.752">greenLED : Boolean</text><ellipse cx="717" cy="292.1328" fill="none" rx="3" ry="3" style="stroke:#038048;stroke-width:1.0;"/><text fill="#000000" font-family="sans-serif" font-size="14" lengthAdjust="spacing" textLength="118" x="726" y="296.3613">blueLED : Boolean</text><line style="stroke:#000000;stroke-width:0.5;" x1="707" x2="859" y1="303.4375" y2="303.4375"/></g><!--class LineFollowingLogic--><g id="elem_LineFollowingLogic"><rect codeLine="63" fill="#FFFFFF" height="52.4141" id="LineFollowingLogic" rx="2.5" ry="2.5" style="stroke:#000000;stroke-width:0.5;" width="124" x="1422" y="80.6094"/><ellipse cx="1437" cy="98.8164" fill="#ADD1B2" rx="11" ry="11" style="stroke:#181818;stroke-width:1.0;"/><path d="M1439.7656,94.6914 Q1439.9219,94.4727 1440.1094,94.3633 Q1440.2969,94.2539 1440.5156,94.2539 Q1440.8906,94.2539 1441.125,94.5195 Q1441.3594,94.7695 1441.3594,95.3789 L1441.3594,96.832 Q1441.3594,97.4414 1441.125,97.707 Q1440.8906,97.9727 1440.5156,97.9727 Q1440.1719,97.9727 1439.9688,97.7695 Q1439.7656,97.582 1439.6563,97.0664 Q1439.6094,96.707 1439.4219,96.5195 Q1439.0938,96.1445 1438.4844,95.9258 Q1437.875,95.707 1437.25,95.707 Q1436.4844,95.707 1435.8438,96.0352 Q1435.2188,96.3633 1434.7188,97.1133 Q1434.2344,97.8633 1434.2344,98.8945 L1434.2344,99.9883 Q1434.2344,101.2227 1435.125,102.0508 Q1436.0156,102.8633 1437.6094,102.8633 Q1438.5469,102.8633 1439.2031,102.6133 Q1439.5938,102.457 1440.0156,102.0195 Q1440.2813,101.7539 1440.4219,101.6758 Q1440.5781,101.5977 1440.7813,101.5977 Q1441.1094,101.5977 1441.3594,101.8633 Q1441.625,102.1133 1441.625,102.457 Q1441.625,102.8008 1441.2813,103.207 Q1440.7813,103.7852 1439.9844,104.1133 Q1438.9063,104.5664 1437.6094,104.5664 Q1436.0938,104.5664 1434.8906,103.9414 Q1433.9063,103.4414 1433.2188,102.3789 Q1432.5313,101.3008 1432.5313,100.0195 L1432.5313,98.8633 Q1432.5313,97.5352 1433.1406,96.3945 Q1433.7656,95.2383 1434.8594,94.6289 Q1435.9531,94.0039 1437.1875,94.0039 Q1437.9219,94.0039 1438.5625,94.1758 Q1439.2188,94.332 1439.7656,94.6914 Z " fill="#000000"/><text fill="#AA3333" font-family="sans-serif" font-size="10" font-style="italic" lengthAdjust="spacing" textLength="58" x="1468" y="95.9902">&#171;constraint&#187;</text><text fill="#000000" font-family="sans-serif" font-size="11" lengthAdjust="spacing" textLength="92" x="1451" y="109.6064">LineFollowingLogic</text><line style="stroke:#000000;stroke-width:0.5;" x1="1423" x2="1545" y1="117.0234" y2="117.0234"/><line style="stroke:#000000;stroke-width:0.5;" x1="1423" x2="1545" y1="125.0234" y2="125.0234"/></g><!--class ObstacleAvoidanceLogic--><g id="elem_ObstacleAvoidanceLogic"><rect codeLine="67" fill="#FFFFFF" height="52.4141" id="ObstacleAvoidanceLogic" rx="2.5" ry="2.5" style="stroke:#000000;stroke-width:0.5;" width="153" x="1199.5" y="80.6094"/><ellipse cx="1214.5" cy="98.8164" fill="#ADD1B2" rx="11" ry="11" style="stroke:#181818;stroke-width:1.0;"/><path d="M1217.2656,94.6914 Q1217.4219,94.4727 1217.6094,94.3633 Q1217.7969,94.2539 1218.0156,94.2539 Q1218.3906,94.2539 1218.625,94.5195 Q1218.8594,94.7695 1218.8594,95.3789 L1218.8594,96.832 Q1218.8594,97.4414 1218.625,97.707 Q1218.3906,97.9727 1218.0156,97.9727 Q1217.6719,97.9727 1217.4688,97.7695 Q1217.2656,97.582 1217.1563,97.0664 Q1217.1094,96.707 1216.9219,96.5195 Q1216.5938,96.1445 1215.9844,95.9258 Q1215.375,95.707 1214.75,95.707 Q1213.9844,95.707 1213.3438,96.0352 Q1212.7188,96.3633 1212.2188,97.1133 Q1211.7344,97.8633 1211.7344,98.8945 L1211.7344,99.9883 Q1211.7344,101.2227 1212.625,102.0508 Q1213.5156,102.8633 1215.1094,102.8633 Q1216.0469,102.8633 1216.7031,102.6133 Q1217.0938,102.457 1217.5156,102.0195 Q1217.7813,101.7539 1217.9219,101.6758 Q1218.0781,101.5977 1218.2813,101.5977 Q1218.6094,101.5977 1218.8594,101.8633 Q1219.125,102.1133 1219.125,102.457 Q1219.125,102.8008 1218.7813,103.207 Q1218.2813,103.7852 1217.4844,104.1133 Q1216.4063,104.5664 1215.1094,104.5664 Q1213.5938,104.5664 1212.3906,103.9414 Q1211.4063,103.4414 1210.7188,102.3789 Q1210.0313,101.3008 1210.0313,100.0195 L1210.0313,98.8633 Q1210.0313,97.5352 1210.6406,96.3945 Q1211.2656,95.2383 1212.3594,94.6289 Q1213.4531,94.0039 1214.6875,94.0039 Q1215.4219,94.0039 1216.0625,94.1758 Q1216.7188,94.332 1217.2656,94.6914 Z " fill="#000000"/><text fill="#AA3333" font-family="sans-serif" font-size="10" font-style="italic" lengthAdjust="spacing" textLength="58" x="1260" y="95.9902">&#171;constraint&#187;</text><text fill="#000000" font-family="sans-serif" font-size="11" lengthAdjust="spacing" textLength="121" x="1228.5" y="109.6064">ObstacleAvoidanceLogic</text><line style="stroke:#000000;stroke-width:0.5;" x1="1200.5" x2="1351.5" y1="117.0234" y2="117.0234"/><line style="stroke:#000000;stroke-width:0.5;" x1="1200.5" x2="1351.5" y1="125.0234" y2="125.0234"/></g><!--class ColorThresholds--><g id="elem_ColorThresholds"><rect codeLine="71" fill="#FFFFFF" height="52.4141" id="ColorThresholds" rx="2.5" ry="2.5" style="stroke:#000000;stroke-width:0.5;" width="111" x="887.5" y="80.6094"/><ellipse cx="902.5" cy="98.8164" fill="#ADD1B2" rx="11" ry="11" style="stroke:#181818;stroke-width:1.0;"/><path d="M905.2656,94.6914 Q905.4219,94.4727 905.6094,94.3633 Q905.7969,94.2539 906.0156,94.2539 Q906.3906,94.2539 906.625,94.5195 Q906.8594,94.7695 906.8594,95.3789 L906.8594,96.832 Q906.8594,97.4414 906.625,97.707 Q906.3906,97.9727 906.0156,97.9727 Q905.6719,97.9727 905.4688,97.7695 Q905.2656,97.582 905.1563,97.0664 Q905.1094,96.707 904.9219,96.5195 Q904.5938,96.1445 903.9844,95.9258 Q903.375,95.707 902.75,95.707 Q901.9844,95.707 901.3438,96.0352 Q900.7188,96.3633 900.2188,97.1133 Q899.7344,97.8633 899.7344,98.8945 L899.7344,99.9883 Q899.7344,101.2227 900.625,102.0508 Q901.5156,102.8633 903.1094,102.8633 Q904.0469,102.8633 904.7031,102.6133 Q905.0938,102.457 905.5156,102.0195 Q905.7813,101.7539 905.9219,101.6758 Q906.0781,101.5977 906.2813,101.5977 Q906.6094,101.5977 906.8594,101.8633 Q907.125,102.1133 907.125,102.457 Q907.125,102.8008 906.7813,103.207 Q906.2813,103.7852 905.4844,104.1133 Q904.4063,104.5664 903.1094,104.5664 Q901.5938,104.5664 900.3906,103.9414 Q899.4063,103.4414 898.7188,102.3789 Q898.0313,101.3008 898.0313,100.0195 L898.0313,98.8633 Q898.0313,97.5352 898.6406,96.3945 Q899.2656,95.2383 900.3594,94.6289 Q901.4531,94.0039 902.6875,94.0039 Q903.4219,94.0039 904.0625,94.1758 Q904.7188,94.332 905.2656,94.6914 Z " fill="#000000"/><text fill="#AA3333" font-family="sans-serif" font-size="10" font-style="italic" lengthAdjust="spacing" textLength="58" x="927" y="95.9902">&#171;constraint&#187;</text><text fill="#000000" font-family="sans-serif" font-size="11" lengthAdjust="spacing" textLength="79" x="916.5" y="109.6064">ColorThresholds</text><line style="stroke:#000000;stroke-width:0.5;" x1="888.5" x2="997.5" y1="117.0234" y2="117.0234"/><line style="stroke:#000000;stroke-width:0.5;" x1="888.5" x2="997.5" y1="125.0234" y2="125.0234"/></g><!--class ArduinoVoltageConstraint--><g id="elem_ArduinoVoltageConstraint"><rect codeLine="76" fill="#FFFFFF" height="52.4141" id="ArduinoVoltageConstraint" rx="2.5" ry="2.5" style="stroke:#000000;stroke-width:0.5;" width="156" x="521" y="80.6094"/><ellipse cx="536" cy="98.8164" fill="#ADD1B2" rx="11" ry="11" style="stroke:#181818;stroke-width:1.0;"/><path d="M538.7656,94.6914 Q538.9219,94.4727 539.1094,94.3633 Q539.2969,94.2539 539.5156,94.2539 Q539.8906,94.2539 540.125,94.5195 Q540.3594,94.7695 540.3594,95.3789 L540.3594,96.832 Q540.3594,97.4414 540.125,97.707 Q539.8906,97.9727 539.5156,97.9727 Q539.1719,97.9727 538.9688,97.7695 Q538.7656,97.582 538.6563,97.0664 Q538.6094,96.707 538.4219,96.5195 Q538.0938,96.1445 537.4844,95.9258 Q536.875,95.707 536.25,95.707 Q535.4844,95.707 534.8438,96.0352 Q534.2188,96.3633 533.7188,97.1133 Q533.2344,97.8633 533.2344,98.8945 L533.2344,99.9883 Q533.2344,101.2227 534.125,102.0508 Q535.0156,102.8633 536.6094,102.8633 Q537.5469,102.8633 538.2031,102.6133 Q538.5938,102.457 539.0156,102.0195 Q539.2813,101.7539 539.4219,101.6758 Q539.5781,101.5977 539.7813,101.5977 Q540.1094,101.5977 540.3594,101.8633 Q540.625,102.1133 540.625,102.457 Q540.625,102.8008 540.2813,103.207 Q539.7813,103.7852 538.9844,104.1133 Q537.9063,104.5664 536.6094,104.5664 Q535.0938,104.5664 533.8906,103.9414 Q532.9063,103.4414 532.2188,102.3789 Q531.5313,101.3008 531.5313,100.0195 L531.5313,98.8633 Q531.5313,97.5352 532.1406,96.3945 Q532.7656,95.2383 533.8594,94.6289 Q534.9531,94.0039 536.1875,94.0039 Q536.9219,94.0039 537.5625,94.1758 Q538.2188,94.332 538.7656,94.6914 Z " fill="#000000"/><text fill="#AA3333" font-family="sans-serif" font-size="10" font-style="italic" lengthAdjust="spacing" textLength="58" x="583" y="95.9902">&#171;constraint&#187;</text><text fill="#000000" font-family="sans-serif" font-size="11" lengthAdjust="spacing" textLength="124" x="550" y="109.6064">ArduinoVoltageConstraint</text><line style="stroke:#000000;stroke-width:0.5;" x1="522" x2="676" y1="117.0234" y2="117.0234"/><line style="stroke:#000000;stroke-width:0.5;" x1="522" x2="676" y1="125.0234" y2="125.0234"/></g><!--class PowerLimits--><g id="elem_PowerLimits"><rect codeLine="79" fill="#FFFFFF" height="52.4141" id="PowerLimits" rx="2.5" ry="2.5" style="stroke:#000000;stroke-width:0.5;" width="91" x="210.5" y="80.6094"/><ellipse cx="225.5" cy="98.8164" fill="#ADD1B2" rx="11" ry="11" style="stroke:#181818;stroke-width:1.0;"/><path d="M228.2656,94.6914 Q228.4219,94.4727 228.6094,94.3633 Q228.7969,94.2539 229.0156,94.2539 Q229.3906,94.2539 229.625,94.5195 Q229.8594,94.7695 229.8594,95.3789 L229.8594,96.832 Q229.8594,97.4414 229.625,97.707 Q229.3906,97.9727 229.0156,97.9727 Q228.6719,97.9727 228.4688,97.7695 Q228.2656,97.582 228.1563,97.0664 Q228.1094,96.707 227.9219,96.5195 Q227.5938,96.1445 226.9844,95.9258 Q226.375,95.707 225.75,95.707 Q224.9844,95.707 224.3438,96.0352 Q223.7188,96.3633 223.2188,97.1133 Q222.7344,97.8633 222.7344,98.8945 L222.7344,99.9883 Q222.7344,101.2227 223.625,102.0508 Q224.5156,102.8633 226.1094,102.8633 Q227.0469,102.8633 227.7031,102.6133 Q228.0938,102.457 228.5156,102.0195 Q228.7813,101.7539 228.9219,101.6758 Q229.0781,101.5977 229.2813,101.5977 Q229.6094,101.5977 229.8594,101.8633 Q230.125,102.1133 230.125,102.457 Q230.125,102.8008 229.7813,103.207 Q229.2813,103.7852 228.4844,104.1133 Q227.4063,104.5664 226.1094,104.5664 Q224.5938,104.5664 223.3906,103.9414 Q222.4063,103.4414 221.7188,102.3789 Q221.0313,101.3008 221.0313,100.0195 L221.0313,98.8633 Q221.0313,97.5352 221.6406,96.3945 Q222.2656,95.2383 223.3594,94.6289 Q224.4531,94.0039 225.6875,94.0039 Q226.4219,94.0039 227.0625,94.1758 Q227.7188,94.332 228.2656,94.6914 Z " fill="#000000"/><text fill="#AA3333" font-family="sans-serif" font-size="10" font-style="italic" lengthAdjust="spacing" textLength="58" x="240" y="95.9902">&#171;constraint&#187;</text><text fill="#000000" font-family="sans-serif" font-size="11" lengthAdjust="spacing" textLength="59" x="239.5" y="109.6064">PowerLimits</text><line style="stroke:#000000;stroke-width:0.5;" x1="211.5" x2="300.5" y1="117.0234" y2="117.0234"/><line style="stroke:#000000;stroke-width:0.5;" x1="211.5" x2="300.5" y1="125.0234" y2="125.0234"/></g><!--link LineFollowingLogic to IRSensorReading--><g id="link_LineFollowingLogic_IRSensorReading"><path codeLine="64" d="M1500.68,132.7894 C1516.25,156.3094 1536.4565,186.8173 1554.7065,214.3673 " fill="none" id="LineFollowingLogic-to-IRSensorReading" style="stroke:#181818;stroke-width:1.0;stroke-dasharray:7.0,7.0;"/><polygon fill="#181818" points="1558.02,219.3694,1556.3844,209.6573,1555.2587,215.201,1549.715,214.0753,1558.02,219.3694" style="stroke:#181818;stroke-width:1.0;"/><text fill="#000000" font-family="sans-serif" font-size="13" lengthAdjust="spacing" textLength="28" x="1532" y="177.1045">uses</text></g><!--link LineFollowingLogic to MotorCommand--><g id="link_LineFollowingLogic_MotorCommand"><path codeLine="65" d="M1472.77,132.7894 C1462.28,156.3094 1448.8944,186.3399 1436.6044,213.8899 " fill="none" id="LineFollowingLogic-to-MotorCommand" style="stroke:#181818;stroke-width:1.0;stroke-dasharray:7.0,7.0;"/><polygon fill="#181818" points="1434.16,219.3694,1441.4796,212.7797,1436.197,214.8031,1434.1736,209.5205,1434.16,219.3694" style="stroke:#181818;stroke-width:1.0;"/><text fill="#000000" font-family="sans-serif" font-size="13" lengthAdjust="spacing" textLength="38" x="1459" y="177.1045">affects</text></g><!--link ObstacleAvoidanceLogic to UltrasonicReading--><g id="link_ObstacleAvoidanceLogic_UltrasonicReading"><path codeLine="68" d="M1272.2,132.7894 C1268.27,158.8494 1263.0154,193.6966 1258.7354,222.0566 " fill="none" id="ObstacleAvoidanceLogic-to-UltrasonicReading" style="stroke:#181818;stroke-width:1.0;stroke-dasharray:7.0,7.0;"/><polygon fill="#181818" points="1257.84,227.9894,1263.1383,219.6871,1258.5861,223.0454,1255.2278,218.4932,1257.84,227.9894" style="stroke:#181818;stroke-width:1.0;"/><text fill="#000000" font-family="sans-serif" font-size="13" lengthAdjust="spacing" textLength="28" x="1268" y="177.1045">uses</text></g><!--link ObstacleAvoidanceLogic to MotorCommand--><g id="link_ObstacleAvoidanceLogic_MotorCommand"><path codeLine="69" d="M1299.12,132.7894 C1320.71,156.3094 1349.2525,187.3993 1374.5425,214.9493 " fill="none" id="ObstacleAvoidanceLogic-to-MotorCommand" style="stroke:#181818;stroke-width:1.0;stroke-dasharray:7.0,7.0;"/><polygon fill="#181818" points="1378.6,219.3694,1375.4605,210.0343,1375.2188,215.686,1369.5671,215.4443,1378.6,219.3694" style="stroke:#181818;stroke-width:1.0;"/><text fill="#000000" font-family="sans-serif" font-size="13" lengthAdjust="spacing" textLength="38" x="1342" y="177.1045">affects</text></g><!--link ColorThresholds to ColorReading--><g id="link_ColorThresholds_ColorReading"><path codeLine="72" d="M943,132.7894 C943,153.8594 943,178.5494 943,204.5194 " fill="none" id="ColorThresholds-to-ColorReading" style="stroke:#181818;stroke-width:1.0;stroke-dasharray:7.0,7.0;"/><polygon fill="#181818" points="943,210.5194,947,201.5194,943,205.5194,939,201.5194,943,210.5194" style="stroke:#181818;stroke-width:1.0;"/><text fill="#000000" font-family="sans-serif" font-size="13" lengthAdjust="spacing" textLength="28" x="944" y="177.1045">uses</text></g><!--link ColorThresholds to ZoneStatus--><g id="link_ColorThresholds_ZoneStatus"><path codeLine="73" d="M967.6,132.7894 C993.06,158.8494 1028.7168,195.3378 1056.4268,223.6978 " fill="none" id="ColorThresholds-to-ZoneStatus" style="stroke:#181818;stroke-width:1.0;stroke-dasharray:7.0,7.0;"/><polygon fill="#181818" points="1060.62,227.9894,1057.1913,218.7566,1057.1257,224.4131,1051.4692,224.3475,1060.62,227.9894" style="stroke:#181818;stroke-width:1.0;"/><text fill="#000000" font-family="sans-serif" font-size="13" lengthAdjust="spacing" textLength="38" x="1014" y="177.1045">affects</text></g><!--link ColorThresholds to LEDStatus--><g id="link_ColorThresholds_LEDStatus"><path codeLine="74" d="M916.58,132.7894 C894.48,153.8594 866.6234,180.41 839.3734,206.38 " fill="none" id="ColorThresholds-to-LEDStatus" style="stroke:#181818;stroke-width:1.0;stroke-dasharray:7.0,7.0;"/><polygon fill="#181818" points="835.03,210.5194,844.3047,207.2059,838.6495,207.0699,838.7855,201.4147,835.03,210.5194" style="stroke:#181818;stroke-width:1.0;"/><text fill="#000000" font-family="sans-serif" font-size="13" lengthAdjust="spacing" textLength="38" x="883" y="177.1045">affects</text></g><!--link ArduinoVoltageConstraint to ArduinoStatus--><g id="link_ArduinoVoltageConstraint_ArduinoStatus"><path codeLine="77" d="M599,132.7894 C599,158.8494 599,193.6294 599,221.9894 " fill="none" id="ArduinoVoltageConstraint-to-ArduinoStatus" style="stroke:#181818;stroke-width:1.0;stroke-dasharray:7.0,7.0;"/><polygon fill="#181818" points="599,227.9894,603,218.9894,599,222.9894,595,218.9894,599,227.9894" style="stroke:#181818;stroke-width:1.0;"/><text fill="#000000" font-family="sans-serif" font-size="13" lengthAdjust="spacing" textLength="60" x="600" y="177.1045">constrains</text></g><!--link PowerLimits to MotorStatus--><g id="link_PowerLimits_MotorStatus"><path codeLine="80" d="M283.08,132.7894 C311.1,158.8494 350.566,195.5437 381.066,223.9037 " fill="none" id="PowerLimits-to-MotorStatus" style="stroke:#181818;stroke-width:1.0;stroke-dasharray:7.0,7.0;"/><polygon fill="#181818" points="385.46,227.9894,381.5928,218.9315,381.7983,224.5846,376.1452,224.7902,385.46,227.9894" style="stroke:#181818;stroke-width:1.0;"/><text fill="#000000" font-family="sans-serif" font-size="13" lengthAdjust="spacing" textLength="28" x="334" y="177.1045">uses</text></g><!--link PowerLimits to PowerStatus--><g id="link_PowerLimits_PowerStatus"><path codeLine="81" d="M256,132.7894 C256,156.3094 256,185.8194 256,213.3694 " fill="none" id="PowerLimits-to-PowerStatus" style="stroke:#181818;stroke-width:1.0;stroke-dasharray:7.0,7.0;"/><polygon fill="#181818" points="256,219.3694,260,210.3694,256,214.3694,252,210.3694,256,219.3694" style="stroke:#181818;stroke-width:1.0;"/><text fill="#000000" font-family="sans-serif" font-size="13" lengthAdjust="spacing" textLength="28" x="257" y="177.1045">uses</text></g><!--link PowerLimits to SystemPower--><g id="link_PowerLimits_SystemPower"><path codeLine="82" d="M222.09,132.6894 C210.36,141.7594 197.32,152.3194 186,162.6094 C163.32,183.2194 143.5469,203.8296 125.6869,223.3796 " fill="none" id="PowerLimits-to-SystemPower" style="stroke:#181818;stroke-width:1.0;stroke-dasharray:7.0,7.0;"/><polygon fill="#181818" points="121.64,227.8094,130.6635,223.8626,125.0124,224.1179,124.7571,218.4668,121.64,227.8094" style="stroke:#181818;stroke-width:1.0;"/><text fill="#000000" font-family="sans-serif" font-size="13" lengthAdjust="spacing" textLength="60" x="187" y="177.1045">constrains</text></g><!--SRC=[XLHDRzim3BtxLn3jOOTXHOlTWYP0FfOXG8OMSTT3YnuKct64AA8XqIdI8VzzikFwGtOsNn8_FPBlKQHPia9OIeqm9wNe7GsiQ4qCt-1H6B57DZA2cHI9Uu7r4SRg88F0xgHEytE8bB0M_WG08QD1ucEASz8y9KK6hiVZx-xfd8Ro0-7krk7rsvrxcuXebnZAT5p6puidFo4JepcZ4-LemIa8KlSh4eIhivRNYQ9ezrRu-RHpTlFQCBD29LYIjbkPshTFJrVEWolp1OR38Inqch7D_phex72n2b5RCYiKiTH9uHZWAoZSyBDG6SB0PHQgX8rCjZv-2gfilnKROKdBoCyNIyj2H_rXXNq_OkMe2ysOe2cHdnraqa8Q6H_p7eKiEBDLmWCfphlQCXHbng3cNbbZ4sTIavT6KIAZPpzN8-mNCVcrop8p8zvxOyAZPTmNggiO9XPgsgllV9qF6NVkioW-fVrUwBXrcM6A6FTSfeStDBsGHi_6XuCSDpzvSYFVvYz_p3owmTY1Bc12f53e4auCekuxMBkvyl66twaRRZTVKdkUwxrmyxFChmVkxwEAF1g1e_QGRcv6dVaVG6RHNkQt-Zi0iTbWnBPkmiFQpNcaS7mW6US3VqdF1M9Uexj5bQf_HFrFMR5aJrk3TaigjfuaH_C9UTBMPbOg-fYDQQcBzrFhGUcHMIvTkM3rbNVrNcJcDTgxEu0grdeVYQNSI-xfHlEmQc-Lhco4Jsf-TYwIchlU4dRw2m00]--></g></svg>