<?xml version="1.0" encoding="us-ascii" standalone="no"?><svg xmlns="http://www.w3.org/2000/svg" xmlns:xlink="http://www.w3.org/1999/xlink" contentStyleType="text/css" height="1128px" preserveAspectRatio="none" style="width:938px;height:1128px;background:#FFFFFF;" version="1.1" viewBox="0 0 938 1128" width="938px" zoomAndPan="magnify"><defs/><g><text fill="#000000" font-family="sans-serif" font-size="14" font-weight="bold" lengthAdjust="spacing" textLength="356" x="283.5" y="24.5332">Line Follower Robot - Requirement Diagram by Alvi</text><!--cluster req [System] LineFollowerRobot [Requirements] by Alvi--><g id="cluster_req [System] LineFollowerRobot [Requirements] by Alvi"><path d="M13.5,44.6094 L392.5,44.6094 A11.25,11.25 0 0 1 400,52.1094 L407,68.2188 L922.5,68.2188 A7.5,7.5 0 0 1 930,75.7188 L930,1112.1094 A7.5,7.5 0 0 1 922.5,1119.6094 L13.5,1119.6094 A7.5,7.5 0 0 1 6,1112.1094 L6,52.1094 A7.5,7.5 0 0 1 13.5,44.6094 " fill="none" style="stroke:#000000;stroke-width:1.5;"/><line style="stroke:#000000;stroke-width:1.5;" x1="6" x2="407" y1="68.2188" y2="68.2188"/><text fill="#000000" font-family="sans-serif" font-size="14" font-weight="bold" lengthAdjust="spacing" textLength="388" x="10" y="61.1426">req [System] LineFollowerRobot [Requirements] by Alvi</text></g><!--cluster System Components--><g id="cluster_System Components"><path d="M37.5,273.6094 L171.5,273.6094 A11.25,11.25 0 0 1 179,281.1094 L186,297.2188 L258.5,297.2188 A7.5,7.5 0 0 1 266,304.7188 L266,940.1094 A7.5,7.5 0 0 1 258.5,947.6094 L37.5,947.6094 A7.5,7.5 0 0 1 30,940.1094 L30,281.1094 A7.5,7.5 0 0 1 37.5,273.6094 " fill="none" style="stroke:#000000;stroke-width:1.5;"/><line style="stroke:#000000;stroke-width:1.5;" x1="30" x2="186" y1="297.2188" y2="297.2188"/><text fill="#000000" font-family="sans-serif" font-size="14" font-weight="bold" lengthAdjust="spacing" textLength="143" x="34" y="290.1426">System Components</text></g><!--cluster Requirements--><g id="cluster_Requirements"><path d="M359.5,237.6094 L449.5,237.6094 A11.25,11.25 0 0 1 457,245.1094 L464,261.2188 L557.5,261.2188 A7.5,7.5 0 0 1 565,268.7188 L565,760.1094 A7.5,7.5 0 0 1 557.5,767.6094 L359.5,767.6094 A7.5,7.5 0 0 1 352,760.1094 L352,245.1094 A7.5,7.5 0 0 1 359.5,237.6094 " fill="none" style="stroke:#000000;stroke-width:1.5;"/><line style="stroke:#000000;stroke-width:1.5;" x1="352" x2="464" y1="261.2188" y2="261.2188"/><text fill="#000000" font-family="sans-serif" font-size="14" font-weight="bold" lengthAdjust="spacing" textLength="99" x="356" y="254.1426">Requirements</text></g><!--cluster Constraints--><g id="cluster_Constraints"><path d="M703.5,507.6094 L775.5,507.6094 A11.25,11.25 0 0 1 783,515.1094 L790,531.2188 L898.5,531.2188 A7.5,7.5 0 0 1 906,538.7188 L906,770.1094 A7.5,7.5 0 0 1 898.5,777.6094 L703.5,777.6094 A7.5,7.5 0 0 1 696,770.1094 L696,515.1094 A7.5,7.5 0 0 1 703.5,507.6094 " fill="none" style="stroke:#000000;stroke-width:1.5;"/><line style="stroke:#000000;stroke-width:1.5;" x1="696" x2="790" y1="531.2188" y2="531.2188"/><text fill="#000000" font-family="sans-serif" font-size="14" font-weight="bold" lengthAdjust="spacing" textLength="81" x="700" y="524.1426">Constraints</text></g><!--entity Arduino--><g id="elem_Arduino"><rect fill="#F1F1F1" height="37.6094" rx="7.5" ry="7.5" style="stroke:#181818;stroke-width:0.5;" width="98" x="99" y="674.6094"/><text fill="#000000" font-family="sans-serif" font-size="14" lengthAdjust="spacing" textLength="78" x="109" y="699.1426">Arduino Uno</text></g><!--entity Ultrasonic--><g id="elem_Ultrasonic"><rect fill="#F1F1F1" height="37.6094" rx="7.5" ry="7.5" style="stroke:#181818;stroke-width:0.5;" width="204" x="46" y="893.6094"/><text fill="#000000" font-family="sans-serif" font-size="14" lengthAdjust="spacing" textLength="184" x="56" y="918.1426">Ultrasonic Sensor (HC-SR04)</text></g><!--entity IR--><g id="elem_IR"><rect fill="#F1F1F1" height="37.6094" rx="7.5" ry="7.5" style="stroke:#181818;stroke-width:0.5;" width="100" x="98" y="601.6094"/><text fill="#000000" font-family="sans-serif" font-size="14" lengthAdjust="spacing" textLength="80" x="108" y="626.1426">IR Sensor x2</text></g><!--entity ColorSensor--><g id="elem_ColorSensor"><rect fill="#F1F1F1" height="37.6094" rx="7.5" ry="7.5" style="stroke:#181818;stroke-width:0.5;" width="177" x="59.5" y="747.6094"/><text fill="#000000" font-family="sans-serif" font-size="14" lengthAdjust="spacing" textLength="157" x="69.5" y="772.1426">Color Sensor (TCS3200)</text></g><!--entity Breadboard--><g id="elem_Breadboard"><rect fill="#F1F1F1" height="37.6094" rx="7.5" ry="7.5" style="stroke:#181818;stroke-width:0.5;" width="95" x="100.5" y="382.6094"/><text fill="#000000" font-family="sans-serif" font-size="14" lengthAdjust="spacing" textLength="75" x="110.5" y="407.1426">Breadboard</text></g><!--entity Motors--><g id="elem_Motors"><rect fill="#F1F1F1" height="37.6094" rx="7.5" ry="7.5" style="stroke:#181818;stroke-width:0.5;" width="98" x="99" y="528.6094"/><text fill="#000000" font-family="sans-serif" font-size="14" lengthAdjust="spacing" textLength="78" x="109" y="553.1426">DC Motor x2</text></g><!--entity Wheels--><g id="elem_Wheels"><rect fill="#F1F1F1" height="37.6094" rx="7.5" ry="7.5" style="stroke:#181818;stroke-width:0.5;" width="78" x="109" y="455.6094"/><text fill="#000000" font-family="sans-serif" font-size="14" lengthAdjust="spacing" textLength="58" x="119" y="480.1426">Wheel x2</text></g><!--entity Caster--><g id="elem_Caster"><rect fill="#F1F1F1" height="37.6094" rx="7.5" ry="7.5" style="stroke:#181818;stroke-width:0.5;" width="154" x="71" y="820.6094"/><text fill="#000000" font-family="sans-serif" font-size="14" lengthAdjust="spacing" textLength="134" x="81" y="845.1426">Front Wheel (Caster)</text></g><!--entity Battery--><g id="elem_Battery"><rect fill="#F1F1F1" height="37.6094" rx="7.5" ry="7.5" style="stroke:#181818;stroke-width:0.5;" width="102" x="97" y="309.6094"/><text fill="#000000" font-family="sans-serif" font-size="14" lengthAdjust="spacing" textLength="82" x="107" y="334.1426">Li-Po Battery</text></g><g id="elem_R1"><ellipse cx="458.64" cy="471.4796" fill="#F1F1F1" rx="74.14" ry="25.3702" style="stroke:#181818;stroke-width:0.5;"/><text fill="#000000" font-family="sans-serif" font-size="14" font-style="italic" lengthAdjust="spacing" textLength="92" x="410.64" y="469.0782">&#171;requirement&#187;</text><text fill="#000000" font-family="sans-serif" font-size="11" lengthAdjust="spacing" textLength="88" x="412.64" y="483.5733">R1: Line Following</text></g><g id="elem_R2"><ellipse cx="458.5886" cy="642.4601" fill="#F1F1F1" rx="90.5886" ry="24.3508" style="stroke:#181818;stroke-width:0.5;"/><text fill="#000000" font-family="sans-serif" font-size="14" font-style="italic" lengthAdjust="spacing" textLength="92" x="407.6829" y="639.195">&#171;requirement&#187;</text><text fill="#000000" font-family="sans-serif" font-size="11" lengthAdjust="spacing" textLength="117" x="395.1829" y="653.6901">R2: Obstacle Avoidance</text></g><g id="elem_R3"><ellipse cx="458.6083" cy="726.6119" fill="#F1F1F1" rx="87.1083" ry="24.5025" style="stroke:#181818;stroke-width:0.5;"/><text fill="#000000" font-family="sans-serif" font-size="14" font-style="italic" lengthAdjust="spacing" textLength="92" x="407.7573" y="723.5937">&#171;requirement&#187;</text><text fill="#000000" font-family="sans-serif" font-size="11" lengthAdjust="spacing" textLength="111" x="398.2573" y="738.0888">R3: Zone Classification</text></g><g id="elem_R4"><ellipse cx="458.584" cy="299.5289" fill="#F1F1F1" rx="73.584" ry="25.4196" style="stroke:#181818;stroke-width:0.5;"/><text fill="#000000" font-family="sans-serif" font-size="14" font-style="italic" lengthAdjust="spacing" textLength="92" x="410.834" y="297.1276">&#171;requirement&#187;</text><text fill="#000000" font-family="sans-serif" font-size="11" lengthAdjust="spacing" textLength="87" x="413.334" y="311.6227">R4: Power Supply</text></g><g id="elem_R5"><ellipse cx="458.3642" cy="557.7382" fill="#F1F1F1" rx="71.3642" ry="25.6288" style="stroke:#181818;stroke-width:0.5;"/><text fill="#000000" font-family="sans-serif" font-size="14" font-style="italic" lengthAdjust="spacing" textLength="92" x="411.6142" y="555.3368">&#171;requirement&#187;</text><text fill="#000000" font-family="sans-serif" font-size="11" lengthAdjust="spacing" textLength="83" x="416.1142" y="569.8319">R5: Motor Control</text></g><g id="elem_R6"><ellipse cx="458.2532" cy="385.3841" fill="#F1F1F1" rx="75.2532" ry="25.2748" style="stroke:#181818;stroke-width:0.5;"/><text fill="#000000" font-family="sans-serif" font-size="14" font-style="italic" lengthAdjust="spacing" textLength="92" x="409.7532" y="382.9828">&#171;requirement&#187;</text><text fill="#000000" font-family="sans-serif" font-size="11" lengthAdjust="spacing" textLength="90" x="410.7532" y="397.4779">R6: Modular Wiring</text></g><g id="elem_C1"><ellipse cx="800.8852" cy="735.6392" fill="#F1F1F1" rx="58.8852" ry="25.5299" style="stroke:#181818;stroke-width:0.5;"/><text fill="#000000" font-family="sans-serif" font-size="14" font-style="italic" lengthAdjust="spacing" textLength="78" x="761.8852" y="733.6119">&#171;constraint&#187;</text><text fill="#000000" font-family="sans-serif" font-size="11" lengthAdjust="spacing" textLength="62" x="769.8852" y="748.107">C1: 5V Logic</text></g><g id="elem_C2"><ellipse cx="800.8207" cy="567.5292" fill="#F1F1F1" rx="88.8207" ry="23.9198" style="stroke:#181818;stroke-width:0.5;"/><text fill="#000000" font-family="sans-serif" font-size="14" font-style="italic" lengthAdjust="spacing" textLength="78" x="756.9918" y="563.6526">&#171;constraint&#187;</text><text fill="#000000" font-family="sans-serif" font-size="11" lengthAdjust="spacing" textLength="117" x="737.4918" y="578.1477">C2: Li-Po Voltage Range</text></g><g id="elem_C3"><ellipse cx="801.1241" cy="650.5624" fill="#F1F1F1" rx="87.6241" ry="23.953" style="stroke:#181818;stroke-width:0.5;"/><text fill="#000000" font-family="sans-serif" font-size="14" font-style="italic" lengthAdjust="spacing" textLength="78" x="757.3148" y="646.7451">&#171;constraint&#187;</text><text fill="#000000" font-family="sans-serif" font-size="11" lengthAdjust="spacing" textLength="115" x="738.8148" y="661.2402">C3: Motor Current Limits</text></g><!--link Arduino to R1--><g id="link_Arduino_R1"><path d="M197.25,702.7294 C240.24,707.7694 301.52,706.8194 336,669.6094 C347.72,656.9594 333.84,528.5394 344,514.6094 C355.42,498.9494 367.6226,490.9594 385.8326,484.6294 " fill="none" id="Arduino-to-R1" style="stroke:#000000;stroke-width:1.0;stroke-dasharray:7.0,7.0;"/><polygon fill="#000000" points="391.5,482.6594,381.6856,481.8362,386.7772,484.3011,384.3123,489.3927,391.5,482.6594" style="stroke:#000000;stroke-width:1.0;"/><text fill="#000000" font-family="sans-serif" font-size="13" lengthAdjust="spacing" textLength="52" x="283" y="666.1045">&#171;satisfy&#187;</text></g><!--link IR to R1--><g id="link_IR_R1"><path d="M198.22,636.7994 C240.35,647.2494 299.78,653.3594 336,619.6094 C353.12,603.6594 329.98,533.3494 344,514.6094 C355.61,499.0894 367.8739,491.1432 386.0739,484.8032 " fill="none" id="IR-to-R1" style="stroke:#000000;stroke-width:1.0;stroke-dasharray:7.0,7.0;"/><polygon fill="#000000" points="391.74,482.8294,381.9251,482.0127,387.0183,484.4742,384.5568,489.5674,391.74,482.8294" style="stroke:#000000;stroke-width:1.0;"/><text fill="#000000" font-family="sans-serif" font-size="13" lengthAdjust="spacing" textLength="52" x="283" y="616.1045">&#171;satisfy&#187;</text></g><!--link Motors to R1--><g id="link_Motors_R1"><path d="M197.08,532.5294 C222.25,524.8894 253.65,515.7394 282,508.6094 C318.69,499.3794 354.1974,491.7505 387.5674,485.0505 " fill="none" id="Motors-to-R1" style="stroke:#000000;stroke-width:1.0;stroke-dasharray:7.0,7.0;"/><polygon fill="#000000" points="393.45,483.8694,383.8387,481.7193,388.5478,484.8536,385.4135,489.5628,393.45,483.8694" style="stroke:#000000;stroke-width:1.0;"/><text fill="#000000" font-family="sans-serif" font-size="13" lengthAdjust="spacing" textLength="52" x="283" y="493.1045">&#171;satisfy&#187;</text></g><!--link Wheels to R1--><g id="link_Wheels_R1"><path d="M187.04,472.5794 C214.57,469.1394 250.87,460.2394 274,437.6094 C282.34,429.4494 272.58,419.4894 282,412.6094 C301.38,398.4594 315.58,399.9894 336,412.6094 C342.76,416.7894 338.1,423.2794 344,428.6094 C358.7,441.8894 372.251,449.2155 390.671,455.7055 " fill="none" id="Wheels-to-R1" style="stroke:#000000;stroke-width:1.0;stroke-dasharray:7.0,7.0;"/><polygon fill="#000000" points="396.33,457.6994,389.1707,450.9359,391.6142,456.0378,386.5122,458.4813,396.33,457.6994" style="stroke:#000000;stroke-width:1.0;"/><text fill="#000000" font-family="sans-serif" font-size="13" lengthAdjust="spacing" textLength="52" x="283" y="399.1045">&#171;satisfy&#187;</text></g><!--link Arduino to R2--><g id="link_Arduino_R2"><path d="M197.15,695.0494 C223.78,698.5194 255.2,707.4994 274,729.6094 C283.71,741.0294 270.79,786.6594 282,796.6094 C299.95,812.5394 318.44,812.9594 336,796.6094 C354.26,779.6094 329.02,704.5694 344,684.6094 C353.77,671.5894 362.4781,664.8745 377.6081,658.6745 " fill="none" id="Arduino-to-R2" style="stroke:#000000;stroke-width:1.0;stroke-dasharray:7.0,7.0;"/><polygon fill="#000000" points="383.16,656.3994,373.3154,656.1107,378.5334,658.2953,376.3488,663.5133,383.16,656.3994" style="stroke:#000000;stroke-width:1.0;"/><text fill="#000000" font-family="sans-serif" font-size="13" lengthAdjust="spacing" textLength="52" x="283" y="793.1045">&#171;satisfy&#187;</text></g><!--link Ultrasonic to R2--><g id="link_Ultrasonic_R2"><path d="M187.66,931.6794 C230.02,949.5194 297.1,968.2694 336,930.6094 C355.65,911.5894 328.01,706.7994 344,684.6094 C353.52,671.3994 362.1317,664.6233 377.2417,658.4033 " fill="none" id="Ultrasonic-to-R2" style="stroke:#000000;stroke-width:1.0;stroke-dasharray:7.0,7.0;"/><polygon fill="#000000" points="382.79,656.1194,372.9449,655.8464,378.1664,658.0227,375.9902,663.2442,382.79,656.1194" style="stroke:#000000;stroke-width:1.0;"/><text fill="#000000" font-family="sans-serif" font-size="13" lengthAdjust="spacing" textLength="52" x="283" y="927.1045">&#171;satisfy&#187;</text></g><!--link Motors to R2--><g id="link_Motors_R2"><path d="M197.33,553.0594 C236.47,558.9594 292.11,570.7594 336,593.6094 C340.19,595.7894 339.94,598.1894 344,600.6094 C360.16,610.2194 373.2608,616.2002 390.7908,622.5702 " fill="none" id="Motors-to-R2" style="stroke:#000000;stroke-width:1.0;stroke-dasharray:7.0,7.0;"/><polygon fill="#000000" points="396.43,624.6194,389.3373,617.7861,391.7306,622.9117,386.605,625.3051,396.43,624.6194" style="stroke:#000000;stroke-width:1.0;"/><text fill="#000000" font-family="sans-serif" font-size="13" lengthAdjust="spacing" textLength="52" x="283" y="569.1045">&#171;satisfy&#187;</text></g><!--link Arduino to R3--><g id="link_Arduino_R3"><path d="M197.29,694.6394 C224.15,697.9394 255.75,706.9094 274,729.6094 C291.44,751.2994 261.7,835.5694 282,854.6094 C299.5,871.0294 318.16,870.6694 336,854.6094 C348.62,843.2494 334.09,792.3994 344,778.6094 C355.89,762.0594 368.8179,752.9823 387.4179,745.1723 " fill="none" id="Arduino-to-R3" style="stroke:#000000;stroke-width:1.0;stroke-dasharray:7.0,7.0;"/><polygon fill="#000000" points="392.95,742.8494,383.1032,742.6456,388.3399,744.7851,386.2004,750.0218,392.95,742.8494" style="stroke:#000000;stroke-width:1.0;"/><text fill="#000000" font-family="sans-serif" font-size="13" lengthAdjust="spacing" textLength="52" x="283" y="851.1045">&#171;satisfy&#187;</text></g><!--link ColorSensor to R3--><g id="link_ColorSensor_R3"><path d="M236.77,778.0294 C251.05,783.6294 264.32,791.7894 274,803.6094 C286.58,818.9694 267.34,879.2094 282,892.6094 C299.71,908.7994 318.45,908.9794 336,892.6094 C354.58,875.2894 329.54,799.4894 344,778.6094 C355.54,761.9494 368.2593,752.8457 386.7793,745.0557 " fill="none" id="ColorSensor-to-R3" style="stroke:#000000;stroke-width:1.0;stroke-dasharray:7.0,7.0;"/><polygon fill="#000000" points="392.31,742.7294,382.4631,742.5318,387.7011,744.668,385.5649,749.906,392.31,742.7294" style="stroke:#000000;stroke-width:1.0;"/><text fill="#000000" font-family="sans-serif" font-size="13" lengthAdjust="spacing" textLength="52" x="283" y="889.1045">&#171;satisfy&#187;</text></g><!--link Battery to R4--><g id="link_Battery_R4"><path d="M169.03,309.2794 C193.42,287.2194 236.95,252.4194 282,238.6094 C333.19,222.9194 386.7979,249.8908 421.6679,273.1408 " fill="none" id="Battery-to-R4" style="stroke:#000000;stroke-width:1.0;stroke-dasharray:7.0,7.0;"/><polygon fill="#000000" points="426.66,276.4694,421.3909,268.1485,422.4999,273.6956,416.9529,274.8046,426.66,276.4694" style="stroke:#000000;stroke-width:1.0;"/><text fill="#000000" font-family="sans-serif" font-size="13" lengthAdjust="spacing" textLength="52" x="283" y="231.1045">&#171;satisfy&#187;</text></g><!--link Breadboard to R4--><g id="link_Breadboard_R4"><path d="M195.57,396.6794 C221.03,391.9494 251.82,382.7094 274,364.6094 C279.85,359.8294 276.12,354.3594 282,349.6094 C311.83,325.5294 346.7713,314.137 381.5413,307.667 " fill="none" id="Breadboard-to-R4" style="stroke:#000000;stroke-width:1.0;stroke-dasharray:7.0,7.0;"/><polygon fill="#000000" points="387.44,306.5694,377.8601,304.2833,382.5244,307.4841,379.3236,312.1483,387.44,306.5694" style="stroke:#000000;stroke-width:1.0;"/><text fill="#000000" font-family="sans-serif" font-size="13" lengthAdjust="spacing" textLength="52" x="283" y="318.1045">&#171;satisfy&#187;</text></g><!--link Arduino to R5--><g id="link_Arduino_R5"><path d="M197.03,700.8694 C221.45,706.1294 250.79,714.9794 274,729.6094 C278.53,732.4594 277.12,736.4194 282,738.6094 C303.89,748.4394 318.55,755.0794 336,738.6094 C347.17,728.0694 334.91,612.9894 344,600.6094 C355.78,584.5594 368.6443,576.4159 387.3643,570.1059 " fill="none" id="Arduino-to-R5" style="stroke:#000000;stroke-width:1.0;stroke-dasharray:7.0,7.0;"/><polygon fill="#000000" points="393.05,568.1894,383.2438,567.2737,388.3119,569.7865,385.7991,574.8546,393.05,568.1894" style="stroke:#000000;stroke-width:1.0;"/><text fill="#000000" font-family="sans-serif" font-size="13" lengthAdjust="spacing" textLength="52" x="283" y="735.1045">&#171;satisfy&#187;</text></g><!--link Motors to R5--><g id="link_Motors_R5"><path d="M197.09,540.4694 C234.89,535.8294 288.86,531.3794 336,535.6094 C355.96,537.3994 371.6522,539.7166 391.0122,543.3366 " fill="none" id="Motors-to-R5" style="stroke:#000000;stroke-width:1.0;stroke-dasharray:7.0,7.0;"/><polygon fill="#000000" points="396.91,544.4394,388.7985,538.8533,391.9952,543.5204,387.3281,546.717,396.91,544.4394" style="stroke:#000000;stroke-width:1.0;"/><text fill="#000000" font-family="sans-serif" font-size="13" lengthAdjust="spacing" textLength="52" x="283" y="531.1045">&#171;satisfy&#187;</text></g><!--link Breadboard to R6--><g id="link_Breadboard_R6"><path d="M195.79,390.6094 C221.14,385.2094 253.11,379.2994 282,376.6094 C305.9,374.3794 312.02,375.7194 336,376.6094 C351.96,377.1994 363.0851,377.8045 379.2851,378.9545 " fill="none" id="Breadboard-to-R6" style="stroke:#000000;stroke-width:1.0;stroke-dasharray:7.0,7.0;"/><polygon fill="#000000" points="385.27,379.3794,376.5758,374.7521,380.2826,379.0253,376.0094,382.732,385.27,379.3794" style="stroke:#000000;stroke-width:1.0;"/><text fill="#000000" font-family="sans-serif" font-size="13" lengthAdjust="spacing" textLength="52" x="283" y="372.1045">&#171;satisfy&#187;</text></g><!--link Arduino to C1--><g id="link_Arduino_C1"><path d="M197.05,694.5394 C224,697.7894 255.78,706.7394 274,729.6094 C284.05,742.2294 270.28,863.5194 282,874.6094 C293.68,885.6694 404.71,907.7194 573,865.6094 C624.29,852.7794 633.97,839.6194 680,813.6094 C711.15,796.0094 740.2764,776.9149 764.1264,760.6149 " fill="none" id="Arduino-to-C1" style="stroke:#000000;stroke-width:1.0;stroke-dasharray:7.0,7.0;"/><polygon fill="#000000" points="769.08,757.2294,759.3926,759.0052,764.952,760.0506,763.9066,765.61,769.08,757.2294" style="stroke:#000000;stroke-width:1.0;"/><text fill="#000000" font-family="sans-serif" font-size="13" lengthAdjust="spacing" textLength="97" x="410" y="862.1045">&#171;constrainedBy&#187;</text></g><!--link Ultrasonic to C1--><g id="link_Ultrasonic_C1"><path d="M181.06,931.7594 C218.59,952.9594 283.36,985.8294 344,998.6094 C443.59,1019.5994 472.77,1016.3094 573,998.6094 C622.84,989.8094 641.76,992.7694 680,959.6094 C743.67,904.4094 777.3934,812.6326 791.2934,766.6626 " fill="none" id="Ultrasonic-to-C1" style="stroke:#000000;stroke-width:1.0;stroke-dasharray:7.0,7.0;"/><polygon fill="#000000" points="793.03,760.9194,786.5963,768.3765,791.5829,765.7054,794.2539,770.6919,793.03,760.9194" style="stroke:#000000;stroke-width:1.0;"/><text fill="#000000" font-family="sans-serif" font-size="13" lengthAdjust="spacing" textLength="97" x="410" y="995.1045">&#171;constrainedBy&#187;</text></g><!--link IR to C1--><g id="link_IR_C1"><path d="M198.21,631.2694 C223.26,636.6194 254.22,643.1094 282,648.6094 C293.97,650.9794 327.9,649.4794 336,658.6094 C354.76,679.7694 323.39,766.2494 344,785.6094 C461.57,895.9994 673.1441,803.2517 758.6641,758.4917 " fill="none" id="IR-to-C1" style="stroke:#000000;stroke-width:1.0;stroke-dasharray:7.0,7.0;"/><polygon fill="#000000" points="763.98,755.7094,754.1513,756.3388,759.5501,758.0279,757.861,763.4267,763.98,755.7094" style="stroke:#000000;stroke-width:1.0;"/><text fill="#000000" font-family="sans-serif" font-size="13" lengthAdjust="spacing" textLength="97" x="410" y="782.1045">&#171;constrainedBy&#187;</text></g><!--link ColorSensor to C1--><g id="link_ColorSensor_C1"><path d="M236.61,777.7694 C251,783.3994 264.35,791.6294 274,803.6094 C289.24,822.5194 269.72,891.6494 282,912.6094 C298.7,941.1194 312.36,944.0994 344,953.6094 C441.47,982.9194 473.81,976.4294 573,953.6094 C624.53,941.7494 639.51,935.6194 680,901.6094 C728.74,860.6694 765.1232,801.0902 784.3232,765.7902 " fill="none" id="ColorSensor-to-C1" style="stroke:#000000;stroke-width:1.0;stroke-dasharray:7.0,7.0;"/><polygon fill="#000000" points="787.19,760.5194,779.3759,766.5143,784.801,764.9117,786.4036,770.3368,787.19,760.5194" style="stroke:#000000;stroke-width:1.0;"/><text fill="#000000" font-family="sans-serif" font-size="13" lengthAdjust="spacing" textLength="97" x="410" y="950.1045">&#171;constrainedBy&#187;</text></g><!--link Battery to C2--><g id="link_Battery_C2"><path d="M164.88,309.1794 C187.87,282.3694 233.05,234.4494 282,208.6094 C367.45,163.4994 561.53,189.3894 573,193.6094 C724.31,249.2494 779.5738,463.8378 794.4438,537.5678 " fill="none" id="Battery-to-C2" style="stroke:#000000;stroke-width:1.0;stroke-dasharray:7.0,7.0;"/><polygon fill="#000000" points="795.63,543.4494,797.7717,533.8362,794.6415,538.5481,789.9296,535.4178,795.63,543.4494" style="stroke:#000000;stroke-width:1.0;"/><text fill="#000000" font-family="sans-serif" font-size="13" lengthAdjust="spacing" textLength="97" x="410" y="179.1045">&#171;constrainedBy&#187;</text></g><!--link R4 to C2--><g id="link_R4_C2"><path d="M515.7,315.6594 C534.72,322.4294 555.54,331.3794 573,342.6094 C663.07,400.5394 742.6287,494.3028 778.1687,539.2528 " fill="none" id="R4-to-C2" style="stroke:#000000;stroke-width:1.0;stroke-dasharray:7.0,7.0;"/><polygon fill="#000000" points="781.89,543.9594,779.4458,534.4186,778.7889,540.0372,773.1703,539.3804,781.89,543.9594" style="stroke:#000000;stroke-width:1.0;"/><text fill="#000000" font-family="sans-serif" font-size="13" lengthAdjust="spacing" textLength="97" x="582" y="349.1045">&#171;constrainedBy&#187;</text></g><!--link Motors to C3--><g id="link_Motors_C3"><path d="M197.16,545.1094 C223.46,541.1794 254.54,531.9194 274,510.6094 C286.23,497.2194 273.94,486.8494 282,470.6094 C298.11,438.1794 322.28,443.1194 336,409.6094 C342.41,393.9594 331.73,269.2494 344,257.6094 C417.83,187.5594 475.37,228.8594 573,257.6094 C627.28,273.5894 652.22,277.3094 680,326.6094 C695.39,353.9194 669.78,583.0994 688,608.6094 C697.6,622.0394 706.4679,628.9392 721.8179,635.1492 " fill="none" id="Motors-to-C3" style="stroke:#000000;stroke-width:1.0;stroke-dasharray:7.0,7.0;"/><polygon fill="#000000" points="727.38,637.3994,720.537,630.316,722.7449,635.5242,717.5368,637.7321,727.38,637.3994" style="stroke:#000000;stroke-width:1.0;"/><text fill="#000000" font-family="sans-serif" font-size="13" lengthAdjust="spacing" textLength="97" x="410" y="216.1045">&#171;constrainedBy&#187;</text></g><!--link R5 to C3--><g id="link_R5_C3"><path d="M515.73,572.9694 C577.02,589.7094 669.0219,614.839 732.4219,632.149 " fill="none" id="R5-to-C3" style="stroke:#000000;stroke-width:1.0;stroke-dasharray:7.0,7.0;"/><polygon fill="#000000" points="738.21,633.7294,730.5813,627.5001,733.3865,632.4124,728.4742,635.2176,738.21,633.7294" style="stroke:#000000;stroke-width:1.0;"/><text fill="#000000" font-family="sans-serif" font-size="13" lengthAdjust="spacing" textLength="97" x="582" y="590.1045">&#171;constrainedBy&#187;</text></g><!--SRC=[XLHDSzem4BtxL-pGGz836R210vDanYYXPSfNRKYcpUGWR44qCHQHH5BQuRztRV7X60m-MNhlhLPlTwMvZXXqUSoWBQ98V309dfW83MNmsDkIIpPdiOOxJcUIpc6o0ZTwvvOLiQa6BK3osOk647c1vYAsBFNAumLDkFyi05TAyK5492Iq8XgyujPOiO0grXQnzlbV1jKgRfA8AlLvozTCCg5NYmorSh1lOdznNGS_H3snZ4CYP8mNgTQjjMLTGBbS1d-bUjsoqYkyxXIpOyckjS2Kw8n1IR8tU4AEPlFdr8wj6yQCfumNwddhGWclY4TUmCtD3P11RpZet_T7Fdpp1kDXiedWxWGJ78YOBqISX2cb1W4apj5uXdcLN1akUInW78iIK0MRTPusZhIaIiGy09_52kz_-PsKVQzI-vhAzdXUsV6sYZzsIkruUOenT1jtH7p7hbHCt1GoI5xLaeo64q5bc3BtoppnZa1Fw7q2wKBbMOylZ4LRIheueBGbLjzWS4aecYitMQR_UNgNbuS2MbGZjZ8vcdyahlTLzEv_ZZlUVQ-uZjbEs9PmQLeQmMepEqmydgL7ULMulfPxuUrjJcOtOJ1HcWQOglikU4ZZW1cfVKRgDE4tDfIP83xb0Ktcq6YTCzfQ4uRfoFlBnI8ojdYrCw9wSrD1WWMG8ZAg-XbL8r65ouXAUEHoPqpZY6oT7Qg-F_BSJc4rC0U5pSwF5ODWCUeFq1Kp7fZEICeGx1Jv78cT52zfamSHwIIyXyrZoa3iqr9dPyfIokJ1xF8vJt9AjCwXDdD7tnrr_FOlw7RwF_pD_ROFmTNLRT8yJGoWiAvgkahLECO5Y1cd8jHCqd4qVwfzeCuyEmMCxEdscVZEWJhpl1od86Spj0Ql7OJOlpl76VaawYUlK3zoVkw0nY4btxc5XIMc1BlEO67hgD65l4qR5E9vGmk8ELk9NH0EtJo1V_QEE4L1wgVmjVKV]--></g></svg>