<?xml version="1.0" encoding="us-ascii" standalone="no"?><svg xmlns="http://www.w3.org/2000/svg" xmlns:xlink="http://www.w3.org/1999/xlink" contentStyleType="text/css" height="1266px" preserveAspectRatio="none" style="width:935px;height:1266px;background:#FFFFFF;" version="1.1" viewBox="0 0 935 1266" width="935px" zoomAndPan="magnify"><defs/><g><text fill="#000000" font-family="sans-serif" font-size="14" font-weight="bold" lengthAdjust="spacing" textLength="346" x="296.25" y="29.5332">Line Follower Robot - Sequence Diagram (by Alvi)</text><rect fill="#DDDDDD" height="1216.0859" style="stroke:#181818;stroke-width:0.5;" width="902.5" x="1" y="44.6094"/><text fill="#000000" font-family="sans-serif" font-size="13" font-weight="bold" lengthAdjust="spacing" textLength="312" x="296.25" y="58.1045">sd [Block] LineFollowerRobot [Control Sequence]</text><rect fill="#FFFFFF" height="980.1641" style="stroke:#181818;stroke-width:1.0;" width="10" x="217.5" y="174.9219"/><rect fill="#FFFFFF" height="30.3516" style="stroke:#181818;stroke-width:1.0;" width="10" x="475.5" y="347.6797"/><rect fill="#FFFFFF" height="30.3516" style="stroke:#181818;stroke-width:1.0;" width="10" x="604" y="408.3828"/><rect fill="#FFFFFF" height="30.3516" style="stroke:#181818;stroke-width:1.0;" width="10" x="722" y="614.3281"/><rect fill="none" height="782.4063" style="stroke:#000000;stroke-width:1.5;" width="768.5" x="161" y="306.9766"/><rect fill="none" height="628.6484" style="stroke:#000000;stroke-width:1.5;" width="748.5" x="171" y="453.7344"/><rect fill="none" height="268.2969" style="stroke:#000000;stroke-width:1.5;" width="728.5" x="181" y="703.0313"/><line style="stroke:#181818;stroke-width:0.5;stroke-dasharray:5.0,5.0;" x1="22" x2="22" y1="142.5703" y2="1180.0859"/><line style="stroke:#181818;stroke-width:0.5;stroke-dasharray:5.0,5.0;" x1="222" x2="222" y1="142.5703" y2="1180.0859"/><line style="stroke:#181818;stroke-width:0.5;stroke-dasharray:5.0,5.0;" x1="480.5" x2="480.5" y1="142.5703" y2="1180.0859"/><line style="stroke:#181818;stroke-width:0.5;stroke-dasharray:5.0,5.0;" x1="608.5" x2="608.5" y1="142.5703" y2="1180.0859"/><line style="stroke:#181818;stroke-width:0.5;stroke-dasharray:5.0,5.0;" x1="726.5" x2="726.5" y1="142.5703" y2="1180.0859"/><line style="stroke:#181818;stroke-width:0.5;stroke-dasharray:5.0,5.0;" x1="840.5" x2="840.5" y1="142.5703" y2="1180.0859"/><text fill="#000000" font-family="sans-serif" font-size="14" lengthAdjust="spacing" textLength="29" x="5" y="139.4941">User</text><ellipse cx="22.5" cy="73.4609" fill="#E2E2F0" rx="8" ry="8" style="stroke:#181818;stroke-width:0.5;"/><path d="M22.5,81.4609 L22.5,108.4609 M9.5,89.4609 L35.5,89.4609 M22.5,108.4609 L9.5,123.4609 M22.5,108.4609 L35.5,123.4609 " fill="none" style="stroke:#181818;stroke-width:0.5;"/><text fill="#000000" font-family="sans-serif" font-size="14" lengthAdjust="spacing" textLength="29" x="5" y="1193.6191">User</text><ellipse cx="22.5" cy="1205.1953" fill="#E2E2F0" rx="8" ry="8" style="stroke:#181818;stroke-width:0.5;"/><path d="M22.5,1213.1953 L22.5,1240.1953 M9.5,1221.1953 L35.5,1221.1953 M22.5,1240.1953 L9.5,1255.1953 M22.5,1240.1953 L35.5,1255.1953 " fill="none" style="stroke:#181818;stroke-width:0.5;"/><rect fill="#E2E2F0" height="31.6094" rx="2.5" ry="2.5" style="stroke:#181818;stroke-width:0.5;" width="63" x="191" y="109.9609"/><text fill="#000000" font-family="sans-serif" font-size="14" lengthAdjust="spacing" textLength="49" x="198" y="131.4941">Arduino</text><rect fill="#E2E2F0" height="31.6094" rx="2.5" ry="2.5" style="stroke:#181818;stroke-width:0.5;" width="63" x="191" y="1179.0859"/><text fill="#000000" font-family="sans-serif" font-size="14" lengthAdjust="spacing" textLength="49" x="198" y="1200.6191">Arduino</text><rect fill="#E2E2F0" height="31.6094" rx="2.5" ry="2.5" style="stroke:#181818;stroke-width:0.5;" width="112" x="424.5" y="109.9609"/><text fill="#000000" font-family="sans-serif" font-size="14" lengthAdjust="spacing" textLength="98" x="431.5" y="131.4941">IR Sensor (L/R)</text><rect fill="#E2E2F0" height="31.6094" rx="2.5" ry="2.5" style="stroke:#181818;stroke-width:0.5;" width="112" x="424.5" y="1179.0859"/><text fill="#000000" font-family="sans-serif" font-size="14" lengthAdjust="spacing" textLength="98" x="431.5" y="1200.6191">IR Sensor (L/R)</text><rect fill="#E2E2F0" height="31.6094" rx="2.5" ry="2.5" style="stroke:#181818;stroke-width:0.5;" width="125" x="546.5" y="109.9609"/><text fill="#000000" font-family="sans-serif" font-size="14" lengthAdjust="spacing" textLength="111" x="553.5" y="131.4941">Ultrasonic Sensor</text><rect fill="#E2E2F0" height="31.6094" rx="2.5" ry="2.5" style="stroke:#181818;stroke-width:0.5;" width="125" x="546.5" y="1179.0859"/><text fill="#000000" font-family="sans-serif" font-size="14" lengthAdjust="spacing" textLength="111" x="553.5" y="1200.6191">Ultrasonic Sensor</text><rect fill="#E2E2F0" height="31.6094" rx="2.5" ry="2.5" style="stroke:#181818;stroke-width:0.5;" width="91" x="681.5" y="109.9609"/><text fill="#000000" font-family="sans-serif" font-size="14" lengthAdjust="spacing" textLength="77" x="688.5" y="131.4941">Servo Motor</text><rect fill="#E2E2F0" height="31.6094" rx="2.5" ry="2.5" style="stroke:#181818;stroke-width:0.5;" width="91" x="681.5" y="1179.0859"/><text fill="#000000" font-family="sans-serif" font-size="14" lengthAdjust="spacing" textLength="77" x="688.5" y="1200.6191">Servo Motor</text><rect fill="#E2E2F0" height="31.6094" rx="2.5" ry="2.5" style="stroke:#181818;stroke-width:0.5;" width="117" x="782.5" y="109.9609"/><text fill="#000000" font-family="sans-serif" font-size="14" lengthAdjust="spacing" textLength="103" x="789.5" y="131.4941">DC Motors (L/R)</text><rect fill="#E2E2F0" height="31.6094" rx="2.5" ry="2.5" style="stroke:#181818;stroke-width:0.5;" width="117" x="782.5" y="1179.0859"/><text fill="#000000" font-family="sans-serif" font-size="14" lengthAdjust="spacing" textLength="103" x="789.5" y="1200.6191">DC Motors (L/R)</text><rect fill="#FFFFFF" height="980.1641" style="stroke:#181818;stroke-width:1.0;" width="10" x="217.5" y="174.9219"/><rect fill="#FFFFFF" height="30.3516" style="stroke:#181818;stroke-width:1.0;" width="10" x="475.5" y="347.6797"/><rect fill="#FFFFFF" height="30.3516" style="stroke:#181818;stroke-width:1.0;" width="10" x="604" y="408.3828"/><rect fill="#FFFFFF" height="30.3516" style="stroke:#181818;stroke-width:1.0;" width="10" x="722" y="614.3281"/><polygon fill="#181818" points="205.5,170.9219,215.5,174.9219,205.5,178.9219,209.5,174.9219" style="stroke:#181818;stroke-width:1.0;"/><line style="stroke:#181818;stroke-width:1.0;" x1="22.5" x2="211.5" y1="174.9219" y2="174.9219"/><text fill="#000000" font-family="sans-serif" font-size="13" lengthAdjust="spacing" textLength="116" x="29.5" y="170.0654">Power On / Initialize</text><line style="stroke:#181818;stroke-width:1.0;" x1="227.5" x2="269.5" y1="205.2734" y2="205.2734"/><line style="stroke:#181818;stroke-width:1.0;" x1="269.5" x2="269.5" y1="205.2734" y2="218.2734"/><line style="stroke:#181818;stroke-width:1.0;" x1="228.5" x2="269.5" y1="218.2734" y2="218.2734"/><polygon fill="#181818" points="238.5,214.2734,228.5,218.2734,238.5,222.2734,234.5,218.2734" style="stroke:#181818;stroke-width:1.0;"/><text fill="#000000" font-family="sans-serif" font-size="13" lengthAdjust="spacing" textLength="90" x="234.5" y="200.417">Enter Idle State</text><polygon fill="#181818" points="205.5,244.625,215.5,248.625,205.5,252.625,209.5,248.625" style="stroke:#181818;stroke-width:1.0;"/><line style="stroke:#181818;stroke-width:1.0;" x1="22.5" x2="211.5" y1="248.625" y2="248.625"/><text fill="#000000" font-family="sans-serif" font-size="13" lengthAdjust="spacing" textLength="91" x="29.5" y="243.7686">Start Command</text><line style="stroke:#181818;stroke-width:1.0;" x1="227.5" x2="269.5" y1="278.9766" y2="278.9766"/><line style="stroke:#181818;stroke-width:1.0;" x1="269.5" x2="269.5" y1="278.9766" y2="291.9766"/><line style="stroke:#181818;stroke-width:1.0;" x1="228.5" x2="269.5" y1="291.9766" y2="291.9766"/><polygon fill="#181818" points="238.5,287.9766,228.5,291.9766,238.5,295.9766,234.5,291.9766" style="stroke:#181818;stroke-width:1.0;"/><text fill="#000000" font-family="sans-serif" font-size="13" lengthAdjust="spacing" textLength="153" x="234.5" y="274.1201">Transition to LineFollowing</text><path d="M161,306.9766 L234,306.9766 L234,315.3281 L224,325.3281 L161,325.3281 L161,306.9766 " fill="#EEEEEE" style="stroke:#000000;stroke-width:1.5;"/><rect fill="none" height="782.4063" style="stroke:#000000;stroke-width:1.5;" width="768.5" x="161" y="306.9766"/><text fill="#000000" font-family="sans-serif" font-size="13" font-weight="bold" lengthAdjust="spacing" textLength="28" x="176" y="321.4717">loop</text><text fill="#000000" font-family="sans-serif" font-size="11" font-weight="bold" lengthAdjust="spacing" textLength="85" x="249" y="320.3955">[LineFollowing]</text><polygon fill="#181818" points="463.5,343.6797,473.5,347.6797,463.5,351.6797,467.5,347.6797" style="stroke:#181818;stroke-width:1.0;"/><line style="stroke:#181818;stroke-width:1.0;" x1="227.5" x2="469.5" y1="347.6797" y2="347.6797"/><text fill="#000000" font-family="sans-serif" font-size="13" lengthAdjust="spacing" textLength="110" x="234.5" y="342.8232">Read Line Sensors</text><polygon fill="#181818" points="238.5,374.0313,228.5,378.0313,238.5,382.0313,234.5,378.0313" style="stroke:#181818;stroke-width:1.0;"/><line style="stroke:#181818;stroke-width:1.0;stroke-dasharray:2.0,2.0;" x1="232.5" x2="479.5" y1="378.0313" y2="378.0313"/><text fill="#000000" font-family="sans-serif" font-size="13" lengthAdjust="spacing" textLength="75" x="244.5" y="373.1748">Line Position</text><polygon fill="#181818" points="592,404.3828,602,408.3828,592,412.3828,596,408.3828" style="stroke:#181818;stroke-width:1.0;"/><line style="stroke:#181818;stroke-width:1.0;" x1="227.5" x2="598" y1="408.3828" y2="408.3828"/><text fill="#000000" font-family="sans-serif" font-size="13" lengthAdjust="spacing" textLength="118" x="234.5" y="403.5264">Check for Obstacles</text><polygon fill="#181818" points="238.5,434.7344,228.5,438.7344,238.5,442.7344,234.5,438.7344" style="stroke:#181818;stroke-width:1.0;"/><line style="stroke:#181818;stroke-width:1.0;stroke-dasharray:2.0,2.0;" x1="232.5" x2="608" y1="438.7344" y2="438.7344"/><text fill="#000000" font-family="sans-serif" font-size="13" lengthAdjust="spacing" textLength="51" x="244.5" y="433.8779">Distance</text><path d="M171,453.7344 L232,453.7344 L232,462.0859 L222,472.0859 L171,472.0859 L171,453.7344 " fill="#EEEEEE" style="stroke:#000000;stroke-width:1.5;"/><rect fill="none" height="628.6484" style="stroke:#000000;stroke-width:1.5;" width="748.5" x="171" y="453.7344"/><text fill="#000000" font-family="sans-serif" font-size="13" font-weight="bold" lengthAdjust="spacing" textLength="16" x="186" y="468.2295">alt</text><text fill="#000000" font-family="sans-serif" font-size="11" font-weight="bold" lengthAdjust="spacing" textLength="73" x="247" y="467.1533">[No Obstacle]</text><polygon fill="#181818" points="829,490.4375,839,494.4375,829,498.4375,833,494.4375" style="stroke:#181818;stroke-width:1.0;"/><line style="stroke:#181818;stroke-width:1.0;" x1="227.5" x2="835" y1="494.4375" y2="494.4375"/><text fill="#000000" font-family="sans-serif" font-size="13" lengthAdjust="spacing" textLength="155" x="234.5" y="489.5811">Follow Line (PWM Control)</text><line style="stroke:#000000;stroke-width:1.0;stroke-dasharray:2.0,2.0;" x1="171" x2="919.5" y1="503.4375" y2="503.4375"/><text fill="#000000" font-family="sans-serif" font-size="11" font-weight="bold" lengthAdjust="spacing" textLength="108" x="176" y="514.8564">[Obstacle Detected]</text><line style="stroke:#181818;stroke-width:1.0;" x1="227.5" x2="269.5" y1="540.625" y2="540.625"/><line style="stroke:#181818;stroke-width:1.0;" x1="269.5" x2="269.5" y1="540.625" y2="553.625"/><line style="stroke:#181818;stroke-width:1.0;" x1="228.5" x2="269.5" y1="553.625" y2="553.625"/><polygon fill="#181818" points="238.5,549.625,228.5,553.625,238.5,557.625,234.5,553.625" style="stroke:#181818;stroke-width:1.0;"/><text fill="#000000" font-family="sans-serif" font-size="13" lengthAdjust="spacing" textLength="179" x="234.5" y="535.7686">Transition to ObstacleDetected</text><polygon fill="#181818" points="829,579.9766,839,583.9766,829,587.9766,833,583.9766" style="stroke:#181818;stroke-width:1.0;"/><line style="stroke:#181818;stroke-width:1.0;" x1="227.5" x2="835" y1="583.9766" y2="583.9766"/><text fill="#000000" font-family="sans-serif" font-size="13" lengthAdjust="spacing" textLength="35" x="234.5" y="579.1201">Stop()</text><polygon fill="#181818" points="710,610.3281,720,614.3281,710,618.3281,714,614.3281" style="stroke:#181818;stroke-width:1.0;"/><line style="stroke:#181818;stroke-width:1.0;" x1="227.5" x2="716" y1="614.3281" y2="614.3281"/><text fill="#000000" font-family="sans-serif" font-size="13" lengthAdjust="spacing" textLength="149" x="234.5" y="609.4717">Rotate to Scan Directions</text><polygon fill="#181818" points="238.5,640.6797,228.5,644.6797,238.5,648.6797,234.5,644.6797" style="stroke:#181818;stroke-width:1.0;"/><line style="stroke:#181818;stroke-width:1.0;stroke-dasharray:2.0,2.0;" x1="232.5" x2="726" y1="644.6797" y2="644.6797"/><text fill="#000000" font-family="sans-serif" font-size="13" lengthAdjust="spacing" textLength="123" x="244.5" y="639.8232">Directional Distances</text><line style="stroke:#181818;stroke-width:1.0;" x1="227.5" x2="269.5" y1="675.0313" y2="675.0313"/><line style="stroke:#181818;stroke-width:1.0;" x1="269.5" x2="269.5" y1="675.0313" y2="688.0313"/><line style="stroke:#181818;stroke-width:1.0;" x1="228.5" x2="269.5" y1="688.0313" y2="688.0313"/><polygon fill="#181818" points="238.5,684.0313,228.5,688.0313,238.5,692.0313,234.5,688.0313" style="stroke:#181818;stroke-width:1.0;"/><text fill="#000000" font-family="sans-serif" font-size="13" lengthAdjust="spacing" textLength="95" x="234.5" y="670.1748">ChooseDirection</text><path d="M181,703.0313 L242,703.0313 L242,711.3828 L232,721.3828 L181,721.3828 L181,703.0313 " fill="#EEEEEE" style="stroke:#000000;stroke-width:1.5;"/><rect fill="none" height="268.2969" style="stroke:#000000;stroke-width:1.5;" width="728.5" x="181" y="703.0313"/><text fill="#000000" font-family="sans-serif" font-size="13" font-weight="bold" lengthAdjust="spacing" textLength="16" x="196" y="717.5264">alt</text><text fill="#000000" font-family="sans-serif" font-size="11" font-weight="bold" lengthAdjust="spacing" textLength="109" x="257" y="716.4502">[Right Path Chosen]</text><line style="stroke:#181818;stroke-width:1.0;" x1="227.5" x2="269.5" y1="743.7344" y2="743.7344"/><line style="stroke:#181818;stroke-width:1.0;" x1="269.5" x2="269.5" y1="743.7344" y2="756.7344"/><line style="stroke:#181818;stroke-width:1.0;" x1="228.5" x2="269.5" y1="756.7344" y2="756.7344"/><polygon fill="#181818" points="238.5,752.7344,228.5,756.7344,238.5,760.7344,234.5,756.7344" style="stroke:#181818;stroke-width:1.0;"/><text fill="#000000" font-family="sans-serif" font-size="13" lengthAdjust="spacing" textLength="109" x="234.5" y="738.8779">Enter RightBypass</text><polygon fill="#181818" points="829,783.0859,839,787.0859,829,791.0859,833,787.0859" style="stroke:#181818;stroke-width:1.0;"/><line style="stroke:#181818;stroke-width:1.0;" x1="227.5" x2="835" y1="787.0859" y2="787.0859"/><text fill="#000000" font-family="sans-serif" font-size="13" lengthAdjust="spacing" textLength="147" x="234.5" y="782.2295">Turn Right, Move Forward</text><line style="stroke:#181818;stroke-width:1.0;" x1="227.5" x2="269.5" y1="817.4375" y2="817.4375"/><line style="stroke:#181818;stroke-width:1.0;" x1="269.5" x2="269.5" y1="817.4375" y2="830.4375"/><line style="stroke:#181818;stroke-width:1.0;" x1="228.5" x2="269.5" y1="830.4375" y2="830.4375"/><polygon fill="#181818" points="238.5,826.4375,228.5,830.4375,238.5,834.4375,234.5,830.4375" style="stroke:#181818;stroke-width:1.0;"/><text fill="#000000" font-family="sans-serif" font-size="13" lengthAdjust="spacing" textLength="83" x="234.5" y="812.5811">LookForLineIR</text><line style="stroke:#000000;stroke-width:1.0;stroke-dasharray:2.0,2.0;" x1="181" x2="909.5" y1="839.4375" y2="839.4375"/><text fill="#000000" font-family="sans-serif" font-size="11" font-weight="bold" lengthAdjust="spacing" textLength="103" x="186" y="850.8564">[Left Path Chosen]</text><line style="stroke:#181818;stroke-width:1.0;" x1="227.5" x2="269.5" y1="876.625" y2="876.625"/><line style="stroke:#181818;stroke-width:1.0;" x1="269.5" x2="269.5" y1="876.625" y2="889.625"/><line style="stroke:#181818;stroke-width:1.0;" x1="228.5" x2="269.5" y1="889.625" y2="889.625"/><polygon fill="#181818" points="238.5,885.625,228.5,889.625,238.5,893.625,234.5,889.625" style="stroke:#181818;stroke-width:1.0;"/><text fill="#000000" font-family="sans-serif" font-size="13" lengthAdjust="spacing" textLength="100" x="234.5" y="871.7686">Enter LeftBypass</text><polygon fill="#181818" points="829,915.9766,839,919.9766,829,923.9766,833,919.9766" style="stroke:#181818;stroke-width:1.0;"/><line style="stroke:#181818;stroke-width:1.0;" x1="227.5" x2="835" y1="919.9766" y2="919.9766"/><text fill="#000000" font-family="sans-serif" font-size="13" lengthAdjust="spacing" textLength="138" x="234.5" y="915.1201">Turn Left, Move Forward</text><line style="stroke:#181818;stroke-width:1.0;" x1="227.5" x2="269.5" y1="950.3281" y2="950.3281"/><line style="stroke:#181818;stroke-width:1.0;" x1="269.5" x2="269.5" y1="950.3281" y2="963.3281"/><line style="stroke:#181818;stroke-width:1.0;" x1="228.5" x2="269.5" y1="963.3281" y2="963.3281"/><polygon fill="#181818" points="238.5,959.3281,228.5,963.3281,238.5,967.3281,234.5,963.3281" style="stroke:#181818;stroke-width:1.0;"/><text fill="#000000" font-family="sans-serif" font-size="13" lengthAdjust="spacing" textLength="83" x="234.5" y="945.4717">LookForLineIR</text><polygon fill="#181818" points="468.5,996.6797,478.5,1000.6797,468.5,1004.6797,472.5,1000.6797" style="stroke:#181818;stroke-width:1.0;"/><line style="stroke:#181818;stroke-width:1.0;" x1="227.5" x2="474.5" y1="1000.6797" y2="1000.6797"/><text fill="#000000" font-family="sans-serif" font-size="13" lengthAdjust="spacing" textLength="76" x="234.5" y="995.8232">Scan for Line</text><polygon fill="#181818" points="238.5,1027.0313,228.5,1031.0313,238.5,1035.0313,234.5,1031.0313" style="stroke:#181818;stroke-width:1.0;"/><line style="stroke:#181818;stroke-width:1.0;stroke-dasharray:2.0,2.0;" x1="232.5" x2="479.5" y1="1031.0313" y2="1031.0313"/><text fill="#000000" font-family="sans-serif" font-size="13" lengthAdjust="spacing" textLength="71" x="244.5" y="1026.1748">Line Found?</text><line style="stroke:#181818;stroke-width:1.0;" x1="227.5" x2="269.5" y1="1061.3828" y2="1061.3828"/><line style="stroke:#181818;stroke-width:1.0;" x1="269.5" x2="269.5" y1="1061.3828" y2="1074.3828"/><line style="stroke:#181818;stroke-width:1.0;" x1="228.5" x2="269.5" y1="1074.3828" y2="1074.3828"/><polygon fill="#181818" points="238.5,1070.3828,228.5,1074.3828,238.5,1078.3828,234.5,1074.3828" style="stroke:#181818;stroke-width:1.0;"/><text fill="#000000" font-family="sans-serif" font-size="13" lengthAdjust="spacing" textLength="234" x="234.5" y="1056.5264">FinishBypass -&gt; Return to LineFollowing</text><polygon fill="#181818" points="205.5,1114.7344,215.5,1118.7344,205.5,1122.7344,209.5,1118.7344" style="stroke:#181818;stroke-width:1.0;"/><line style="stroke:#181818;stroke-width:1.0;" x1="22.5" x2="211.5" y1="1118.7344" y2="1118.7344"/><text fill="#000000" font-family="sans-serif" font-size="13" lengthAdjust="spacing" textLength="171" x="29.5" y="1113.8779">Stop Command / Battery Low</text><line style="stroke:#181818;stroke-width:1.0;" x1="227.5" x2="269.5" y1="1154.0859" y2="1154.0859"/><line style="stroke:#181818;stroke-width:1.0;" x1="269.5" x2="269.5" y1="1154.0859" y2="1167.0859"/><line style="stroke:#181818;stroke-width:1.0;" x1="222.5" x2="269.5" y1="1167.0859" y2="1167.0859"/><polygon fill="#181818" points="232.5,1163.0859,222.5,1167.0859,232.5,1171.0859,228.5,1167.0859" style="stroke:#181818;stroke-width:1.0;"/><text fill="#000000" font-family="sans-serif" font-size="13" lengthAdjust="spacing" textLength="97" x="234.5" y="1149.2295">Enter Stop State</text><!--SRC=[fLLDZzem4BtdLumuWLIqTmwj5YWI4jj5OLSzhFPWabcmC1vg6oZzzHtRmIK9e5QznUFttdnwugHJ23Ef4IQa51tHG4vBSj271VxOeouGnbAiZDX2Ttc2HtMGlInRqa_es1BUXegApNjGE0j4_jk8j3Eaainx9yj4uSZ0gqMJxOHnif0xeHqycd8lDTLiqto1sZ9QMEXCSwXEtTb3tklKaA_A6M59o-A2ySTOCUkS1Pe31M3yUYBNX0IJ3PZnw7ogt6S-1UX_FaSE0vY7sZrhU82fbauA9N-XJrWUXCEKOdPcrCXVjMFojEHUB1p3hpdW2-DWHDkjqELrcHSZj6NVfC7HHK-aNcMP8jerR00NCgdW0yXHb74eeiaoCcLonh4jKVgrC09pJZ4IXfNO9jTzjreuWD4QYmryyFVpqZfHAAn5qMJmNKka7jLOiWpFOJsWbevteXnye-INBRLWgr4OL2ycfjkTVt-2QkHxp41bCId061qM3ikcrAtMdOc9TpE6XQDTjzUyZaFDZIG_JLvnKGZD9J0inpvi8AGY17WmHMApS1LBg5J4A71HnoXnEx_HciXYaef8N-XShjOEviAjFSQY3ZStLE8x2PJXQIUiRODJPLxsHaVe9pOU_88pHs7AU_epeWt3V4UdUG26Fixmunz3z8o_Yz0Z_oj0tPwEYwSS-kvVaQS4tBr7Ew6zBh_Sxk94QcdNCJ5_awFpERIMJGmhX7PjaV4YglOORykXS5on4wTslBSS0oiknuknIskLVG7_b7u3]--></g></svg>