<?xml version="1.0" encoding="us-ascii" standalone="no"?><svg xmlns="http://www.w3.org/2000/svg" xmlns:xlink="http://www.w3.org/1999/xlink" contentStyleType="text/css" height="889px" preserveAspectRatio="none" style="width:842px;height:889px;background:#FFFFFF;" version="1.1" viewBox="0 0 842 889" width="842px" zoomAndPan="magnify"><defs/><g><text fill="#000000" font-family="sans-serif" font-size="14" font-weight="bold" lengthAdjust="spacing" textLength="336" x="254.75" y="29.5332">Line Follower Robot - Sequence Diagram by Alvi</text><rect fill="#DDDDDD" height="838.8984" style="stroke:#181818;stroke-width:0.5;" width="819.5" x="1" y="44.6094"/><text fill="#000000" font-family="sans-serif" font-size="13" font-weight="bold" lengthAdjust="spacing" textLength="359" x="231.25" y="58.1045">sd [Block] LineFollowerRobot [Control Sequence] by Alvi</text><rect fill="#FFFFFF" height="609.9766" style="stroke:#181818;stroke-width:1.0;" width="10" x="157.5" y="174.9219"/><rect fill="#FFFFFF" height="30.3516" style="stroke:#181818;stroke-width:1.0;" width="10" x="360.5" y="205.2734"/><rect fill="#FFFFFF" height="30.3516" style="stroke:#181818;stroke-width:1.0;" width="10" x="489" y="352.0313"/><rect fill="#FFFFFF" height="30.3516" style="stroke:#181818;stroke-width:1.0;" width="10" x="623" y="641.4922"/><rect fill="#FFFFFF" height="30.3516" style="stroke:#181818;stroke-width:1.0;" width="10" x="753" y="265.9766"/><rect fill="#FFFFFF" height="30" style="stroke:#181818;stroke-width:1.0;" width="10" x="753" y="438.0859"/><rect fill="#FFFFFF" height="30" style="stroke:#181818;stroke-width:1.0;" width="10" x="753" y="498.4375"/><rect fill="none" height="275.4609" style="stroke:#000000;stroke-width:1.5;" width="725.5" x="111" y="311.3281"/><rect fill="none" height="182.4063" style="stroke:#000000;stroke-width:1.5;" width="705.5" x="121" y="397.3828"/><rect fill="none" height="154.7578" style="stroke:#000000;stroke-width:1.5;" width="588.5" x="111" y="600.7891"/><rect fill="none" height="61.7031" style="stroke:#000000;stroke-width:1.5;" width="244.5" x="121" y="686.8438"/><line style="stroke:#181818;stroke-width:0.5;stroke-dasharray:5.0,5.0;" x1="22" x2="22" y1="142.5703" y2="802.8984"/><line style="stroke:#181818;stroke-width:0.5;stroke-dasharray:5.0,5.0;" x1="162" x2="162" y1="142.5703" y2="802.8984"/><line style="stroke:#181818;stroke-width:0.5;stroke-dasharray:5.0,5.0;" x1="365.5" x2="365.5" y1="142.5703" y2="802.8984"/><line style="stroke:#181818;stroke-width:0.5;stroke-dasharray:5.0,5.0;" x1="493.5" x2="493.5" y1="142.5703" y2="802.8984"/><line style="stroke:#181818;stroke-width:0.5;stroke-dasharray:5.0,5.0;" x1="627.5" x2="627.5" y1="142.5703" y2="802.8984"/><line style="stroke:#181818;stroke-width:0.5;stroke-dasharray:5.0,5.0;" x1="757.5" x2="757.5" y1="142.5703" y2="802.8984"/><text fill="#000000" font-family="sans-serif" font-size="14" lengthAdjust="spacing" textLength="29" x="5" y="139.4941">User</text><ellipse cx="22.5" cy="73.4609" fill="#E2E2F0" rx="8" ry="8" style="stroke:#181818;stroke-width:0.5;"/><path d="M22.5,81.4609 L22.5,108.4609 M9.5,89.4609 L35.5,89.4609 M22.5,108.4609 L9.5,123.4609 M22.5,108.4609 L35.5,123.4609 " fill="none" style="stroke:#181818;stroke-width:0.5;"/><text fill="#000000" font-family="sans-serif" font-size="14" lengthAdjust="spacing" textLength="29" x="5" y="816.4316">User</text><ellipse cx="22.5" cy="828.0078" fill="#E2E2F0" rx="8" ry="8" style="stroke:#181818;stroke-width:0.5;"/><path d="M22.5,836.0078 L22.5,863.0078 M9.5,844.0078 L35.5,844.0078 M22.5,863.0078 L9.5,878.0078 M22.5,863.0078 L35.5,878.0078 " fill="none" style="stroke:#181818;stroke-width:0.5;"/><rect fill="#E2E2F0" height="31.6094" rx="2.5" ry="2.5" style="stroke:#181818;stroke-width:0.5;" width="63" x="131" y="109.9609"/><text fill="#000000" font-family="sans-serif" font-size="14" lengthAdjust="spacing" textLength="49" x="138" y="131.4941">Arduino</text><rect fill="#E2E2F0" height="31.6094" rx="2.5" ry="2.5" style="stroke:#181818;stroke-width:0.5;" width="63" x="131" y="801.8984"/><text fill="#000000" font-family="sans-serif" font-size="14" lengthAdjust="spacing" textLength="49" x="138" y="823.4316">Arduino</text><rect fill="#E2E2F0" height="31.6094" rx="2.5" ry="2.5" style="stroke:#181818;stroke-width:0.5;" width="112" x="309.5" y="109.9609"/><text fill="#000000" font-family="sans-serif" font-size="14" lengthAdjust="spacing" textLength="98" x="316.5" y="131.4941">IR Sensor (L/R)</text><rect fill="#E2E2F0" height="31.6094" rx="2.5" ry="2.5" style="stroke:#181818;stroke-width:0.5;" width="112" x="309.5" y="801.8984"/><text fill="#000000" font-family="sans-serif" font-size="14" lengthAdjust="spacing" textLength="98" x="316.5" y="823.4316">IR Sensor (L/R)</text><rect fill="#E2E2F0" height="31.6094" rx="2.5" ry="2.5" style="stroke:#181818;stroke-width:0.5;" width="125" x="431.5" y="109.9609"/><text fill="#000000" font-family="sans-serif" font-size="14" lengthAdjust="spacing" textLength="111" x="438.5" y="131.4941">Ultrasonic Sensor</text><rect fill="#E2E2F0" height="31.6094" rx="2.5" ry="2.5" style="stroke:#181818;stroke-width:0.5;" width="125" x="431.5" y="801.8984"/><text fill="#000000" font-family="sans-serif" font-size="14" lengthAdjust="spacing" textLength="111" x="438.5" y="823.4316">Ultrasonic Sensor</text><rect fill="#E2E2F0" height="31.6094" rx="2.5" ry="2.5" style="stroke:#181818;stroke-width:0.5;" width="123" x="566.5" y="109.9609"/><text fill="#000000" font-family="sans-serif" font-size="14" lengthAdjust="spacing" textLength="109" x="573.5" y="131.4941">TCS3200 Sensor</text><rect fill="#E2E2F0" height="31.6094" rx="2.5" ry="2.5" style="stroke:#181818;stroke-width:0.5;" width="123" x="566.5" y="801.8984"/><text fill="#000000" font-family="sans-serif" font-size="14" lengthAdjust="spacing" textLength="109" x="573.5" y="823.4316">TCS3200 Sensor</text><rect fill="#E2E2F0" height="31.6094" rx="2.5" ry="2.5" style="stroke:#181818;stroke-width:0.5;" width="117" x="699.5" y="109.9609"/><text fill="#000000" font-family="sans-serif" font-size="14" lengthAdjust="spacing" textLength="103" x="706.5" y="131.4941">DC Motors (L/R)</text><rect fill="#E2E2F0" height="31.6094" rx="2.5" ry="2.5" style="stroke:#181818;stroke-width:0.5;" width="117" x="699.5" y="801.8984"/><text fill="#000000" font-family="sans-serif" font-size="14" lengthAdjust="spacing" textLength="103" x="706.5" y="823.4316">DC Motors (L/R)</text><rect fill="#FFFFFF" height="609.9766" style="stroke:#181818;stroke-width:1.0;" width="10" x="157.5" y="174.9219"/><rect fill="#FFFFFF" height="30.3516" style="stroke:#181818;stroke-width:1.0;" width="10" x="360.5" y="205.2734"/><rect fill="#FFFFFF" height="30.3516" style="stroke:#181818;stroke-width:1.0;" width="10" x="489" y="352.0313"/><rect fill="#FFFFFF" height="30.3516" style="stroke:#181818;stroke-width:1.0;" width="10" x="623" y="641.4922"/><rect fill="#FFFFFF" height="30.3516" style="stroke:#181818;stroke-width:1.0;" width="10" x="753" y="265.9766"/><rect fill="#FFFFFF" height="30" style="stroke:#181818;stroke-width:1.0;" width="10" x="753" y="438.0859"/><rect fill="#FFFFFF" height="30" style="stroke:#181818;stroke-width:1.0;" width="10" x="753" y="498.4375"/><polygon fill="#181818" points="145.5,170.9219,155.5,174.9219,145.5,178.9219,149.5,174.9219" style="stroke:#181818;stroke-width:1.0;"/><line style="stroke:#181818;stroke-width:1.0;" x1="22.5" x2="151.5" y1="174.9219" y2="174.9219"/><text fill="#000000" font-family="sans-serif" font-size="13" lengthAdjust="spacing" textLength="116" x="29.5" y="170.0654">Power On / Initialize</text><polygon fill="#181818" points="348.5,201.2734,358.5,205.2734,348.5,209.2734,352.5,205.2734" style="stroke:#181818;stroke-width:1.0;"/><line style="stroke:#181818;stroke-width:1.0;" x1="167.5" x2="354.5" y1="205.2734" y2="205.2734"/><text fill="#000000" font-family="sans-serif" font-size="13" lengthAdjust="spacing" textLength="110" x="174.5" y="200.417">Read Line Sensors</text><polygon fill="#181818" points="178.5,231.625,168.5,235.625,178.5,239.625,174.5,235.625" style="stroke:#181818;stroke-width:1.0;"/><line style="stroke:#181818;stroke-width:1.0;stroke-dasharray:2.0,2.0;" x1="172.5" x2="364.5" y1="235.625" y2="235.625"/><text fill="#000000" font-family="sans-serif" font-size="13" lengthAdjust="spacing" textLength="75" x="184.5" y="230.7686">Line Position</text><polygon fill="#181818" points="741,261.9766,751,265.9766,741,269.9766,745,265.9766" style="stroke:#181818;stroke-width:1.0;"/><line style="stroke:#181818;stroke-width:1.0;" x1="167.5" x2="747" y1="265.9766" y2="265.9766"/><text fill="#000000" font-family="sans-serif" font-size="13" lengthAdjust="spacing" textLength="106" x="174.5" y="261.1201">Set Speed (PWM)</text><polygon fill="#181818" points="178.5,292.3281,168.5,296.3281,178.5,300.3281,174.5,296.3281" style="stroke:#181818;stroke-width:1.0;"/><line style="stroke:#181818;stroke-width:1.0;stroke-dasharray:2.0,2.0;" x1="172.5" x2="757" y1="296.3281" y2="296.3281"/><text fill="#000000" font-family="sans-serif" font-size="13" lengthAdjust="spacing" textLength="117" x="184.5" y="291.4717">[Optional] Feedback</text><path d="M111,311.3281 L184,311.3281 L184,319.6797 L174,329.6797 L111,329.6797 L111,311.3281 " fill="#EEEEEE" style="stroke:#000000;stroke-width:1.5;"/><rect fill="none" height="275.4609" style="stroke:#000000;stroke-width:1.5;" width="725.5" x="111" y="311.3281"/><text fill="#000000" font-family="sans-serif" font-size="13" font-weight="bold" lengthAdjust="spacing" textLength="28" x="126" y="325.8232">loop</text><text fill="#000000" font-family="sans-serif" font-size="11" font-weight="bold" lengthAdjust="spacing" textLength="94" x="199" y="324.7471">[Obstacle Check]</text><polygon fill="#181818" points="477,348.0313,487,352.0313,477,356.0313,481,352.0313" style="stroke:#181818;stroke-width:1.0;"/><line style="stroke:#181818;stroke-width:1.0;" x1="167.5" x2="483" y1="352.0313" y2="352.0313"/><text fill="#000000" font-family="sans-serif" font-size="13" lengthAdjust="spacing" textLength="76" x="174.5" y="347.1748">Trigger Pulse</text><polygon fill="#181818" points="178.5,378.3828,168.5,382.3828,178.5,386.3828,174.5,382.3828" style="stroke:#181818;stroke-width:1.0;"/><line style="stroke:#181818;stroke-width:1.0;stroke-dasharray:2.0,2.0;" x1="172.5" x2="493" y1="382.3828" y2="382.3828"/><text fill="#000000" font-family="sans-serif" font-size="13" lengthAdjust="spacing" textLength="92" x="184.5" y="377.5264">Echo Response</text><path d="M121,397.3828 L182,397.3828 L182,405.7344 L172,415.7344 L121,415.7344 L121,397.3828 " fill="#EEEEEE" style="stroke:#000000;stroke-width:1.5;"/><rect fill="none" height="182.4063" style="stroke:#000000;stroke-width:1.5;" width="705.5" x="121" y="397.3828"/><text fill="#000000" font-family="sans-serif" font-size="13" font-weight="bold" lengthAdjust="spacing" textLength="16" x="136" y="411.8779">alt</text><text fill="#000000" font-family="sans-serif" font-size="11" font-weight="bold" lengthAdjust="spacing" textLength="108" x="197" y="410.8018">[Obstacle Detected]</text><polygon fill="#181818" points="741,434.0859,751,438.0859,741,442.0859,745,438.0859" style="stroke:#181818;stroke-width:1.0;"/><line style="stroke:#181818;stroke-width:1.0;" x1="167.5" x2="747" y1="438.0859" y2="438.0859"/><text fill="#000000" font-family="sans-serif" font-size="13" lengthAdjust="spacing" textLength="35" x="174.5" y="433.2295">Stop()</text><polygon fill="#181818" points="741,494.4375,751,498.4375,741,502.4375,745,498.4375" style="stroke:#181818;stroke-width:1.0;"/><line style="stroke:#181818;stroke-width:1.0;" x1="167.5" x2="747" y1="498.4375" y2="498.4375"/><text fill="#000000" font-family="sans-serif" font-size="13" lengthAdjust="spacing" textLength="33" x="174.5" y="493.5811">Turn()</text><line style="stroke:#181818;stroke-width:1.0;" x1="167.5" x2="209.5" y1="558.7891" y2="558.7891"/><line style="stroke:#181818;stroke-width:1.0;" x1="209.5" x2="209.5" y1="558.7891" y2="571.7891"/><line style="stroke:#181818;stroke-width:1.0;" x1="168.5" x2="209.5" y1="571.7891" y2="571.7891"/><polygon fill="#181818" points="178.5,567.7891,168.5,571.7891,178.5,575.7891,174.5,571.7891" style="stroke:#181818;stroke-width:1.0;"/><text fill="#000000" font-family="sans-serif" font-size="13" lengthAdjust="spacing" textLength="134" x="174.5" y="553.9326">Resume Line Following</text><path d="M111,600.7891 L184,600.7891 L184,609.1406 L174,619.1406 L111,619.1406 L111,600.7891 " fill="#EEEEEE" style="stroke:#000000;stroke-width:1.5;"/><rect fill="none" height="154.7578" style="stroke:#000000;stroke-width:1.5;" width="588.5" x="111" y="600.7891"/><text fill="#000000" font-family="sans-serif" font-size="13" font-weight="bold" lengthAdjust="spacing" textLength="28" x="126" y="615.2842">loop</text><text fill="#000000" font-family="sans-serif" font-size="11" font-weight="bold" lengthAdjust="spacing" textLength="74" x="199" y="614.208">[Zone Check]</text><polygon fill="#181818" points="611,637.4922,621,641.4922,611,645.4922,615,641.4922" style="stroke:#181818;stroke-width:1.0;"/><line style="stroke:#181818;stroke-width:1.0;" x1="167.5" x2="617" y1="641.4922" y2="641.4922"/><text fill="#000000" font-family="sans-serif" font-size="13" lengthAdjust="spacing" textLength="64" x="174.5" y="636.6357">Read Color</text><polygon fill="#181818" points="178.5,667.8438,168.5,671.8438,178.5,675.8438,174.5,671.8438" style="stroke:#181818;stroke-width:1.0;"/><line style="stroke:#181818;stroke-width:1.0;stroke-dasharray:2.0,2.0;" x1="172.5" x2="627" y1="671.8438" y2="671.8438"/><text fill="#000000" font-family="sans-serif" font-size="13" lengthAdjust="spacing" textLength="72" x="184.5" y="666.9873">RGB Values</text><path d="M121,686.8438 L182,686.8438 L182,695.1953 L172,705.1953 L121,705.1953 L121,686.8438 " fill="#EEEEEE" style="stroke:#000000;stroke-width:1.5;"/><rect fill="none" height="61.7031" style="stroke:#000000;stroke-width:1.5;" width="244.5" x="121" y="686.8438"/><text fill="#000000" font-family="sans-serif" font-size="13" font-weight="bold" lengthAdjust="spacing" textLength="16" x="136" y="701.3389">alt</text><text fill="#000000" font-family="sans-serif" font-size="11" font-weight="bold" lengthAdjust="spacing" textLength="121" x="197" y="700.2627">[Zone Color Detected]</text><line style="stroke:#181818;stroke-width:1.0;" x1="167.5" x2="209.5" y1="727.5469" y2="727.5469"/><line style="stroke:#181818;stroke-width:1.0;" x1="209.5" x2="209.5" y1="727.5469" y2="740.5469"/><line style="stroke:#181818;stroke-width:1.0;" x1="168.5" x2="209.5" y1="740.5469" y2="740.5469"/><polygon fill="#181818" points="178.5,736.5469,168.5,740.5469,178.5,744.5469,174.5,740.5469" style="stroke:#181818;stroke-width:1.0;"/><text fill="#000000" font-family="sans-serif" font-size="13" lengthAdjust="spacing" textLength="179" x="174.5" y="722.6904">Trigger Zone Action (e.g., LED)</text><polygon fill="#181818" points="150.5,780.8984,160.5,784.8984,150.5,788.8984,154.5,784.8984" style="stroke:#181818;stroke-width:1.0;"/><line style="stroke:#181818;stroke-width:1.0;" x1="22.5" x2="156.5" y1="784.8984" y2="784.8984"/><text fill="#000000" font-family="sans-serif" font-size="13" lengthAdjust="spacing" textLength="56" x="29.5" y="780.042">Power Off</text><!--SRC=[fLHDRnen4BtxLuou5AIIHEcDGoMo914I2BIGL2hYuDqTDbQCPsjxqz9VN- -tDy2fXpru_DwRUJFZjS9AX8LG24ya9Vr63I55P64C6_oLeueHPeAdcXyXEi5KVWZ6li3cP9QBiR4dnpwuEmGZZhdaLf1Y4Vs1WKbWzo0fVj-Nyerw9RuBI5bDiisnRyG7ZF7OaeONWvfbN5iHYumh2rETv49HBpOFDwYCGtC3Wta8zMcuk0r7WnxoHLhD3IaHUumkM3Fxd80aQG- -3JRVxk_kBcANv8es9MmMDAUw3bPuWV7tnW9CO5rsUgNW5kPAMC6b-8k5S_71BRPUMSDmvDRh14BaIJMqAcGwPeDYBNpSIroorcH4EQa4pub-pjh7nEMniCaG4nYkVon7NRuAmMfWFzTkbHLPkDp3awD6F7xtCzPK9eaoM4N6yjXjK_263WRWLN4skmbijKXJry5rBWqwT2lw6UlkpkZzAX_ZDt8TDHcfKighy4oio2HjL-mCBSOM4nVlLTprpL8s79NNdtqNiGlTkAQqpRNwBwNEiJER7tklNgZKmL4bhFYgYVmaTN4Q_gkeLx4C-LFmC2xiC_gz3vyVu9NB74s_yJw_xdbLJX6_slLEjrcFaZIDYos48TwaDrzXyJWR-Lwllit3mL_MzaKw4hWVt3y0]--></g></svg>