<?xml version="1.0" encoding="us-ascii" standalone="no"?><svg xmlns="http://www.w3.org/2000/svg" xmlns:xlink="http://www.w3.org/1999/xlink" contentStyleType="text/css" height="2122px" preserveAspectRatio="none" style="width:647px;height:2122px;background:#FFFFFF;" version="1.1" viewBox="0 0 647 2122" width="647px" zoomAndPan="magnify"><defs/><g><text fill="#000000" font-family="sans-serif" font-size="14" font-weight="bold" lengthAdjust="spacing" textLength="315" x="159.25" y="24.5332">Line Follower Robot - State Machine Diagram</text><text fill="#000000" font-family="sans-serif" font-size="14" font-weight="bold" lengthAdjust="spacing" textLength="46" x="293.75" y="42.1426">by Alvi</text><ellipse cx="435.5" cy="72.2188" fill="#222222" rx="10" ry="10" style="stroke:#222222;stroke-width:1.0;"/><g id="Idle"><rect fill="#F1F1F1" height="50" rx="12.5" ry="12.5" style="stroke:#181818;stroke-width:0.5;" width="50" x="410.5" y="160.2188"/><line style="stroke:#181818;stroke-width:0.5;" x1="410.5" x2="460.5" y1="187.8281" y2="187.8281"/><text fill="#000000" font-family="sans-serif" font-size="14" lengthAdjust="spacing" textLength="22" x="424.5" y="179.752">Idle</text></g><g id="LineFollowing"><rect fill="#F1F1F1" height="50" rx="12.5" ry="12.5" style="stroke:#181818;stroke-width:0.5;" width="106" x="382.5" y="288.2188"/><line style="stroke:#181818;stroke-width:0.5;" x1="382.5" x2="488.5" y1="315.8281" y2="315.8281"/><text fill="#000000" font-family="sans-serif" font-size="14" lengthAdjust="spacing" textLength="86" x="392.5" y="307.752">LineFollowing</text></g><g id="ObstacleDetected"><rect fill="#F1F1F1" height="50" rx="12.5" ry="12.5" style="stroke:#181818;stroke-width:0.5;" width="133" x="211" y="432.2188"/><line style="stroke:#181818;stroke-width:0.5;" x1="211" x2="344" y1="459.8281" y2="459.8281"/><text fill="#000000" font-family="sans-serif" font-size="14" lengthAdjust="spacing" textLength="113" x="221" y="451.752">ObstacleDetected</text></g><g id="Stop"><rect fill="#F1F1F1" height="50" rx="12.5" ry="12.5" style="stroke:#181818;stroke-width:0.5;" width="50" x="410.5" y="432.2188"/><line style="stroke:#181818;stroke-width:0.5;" x1="410.5" x2="460.5" y1="459.8281" y2="459.8281"/><text fill="#000000" font-family="sans-serif" font-size="14" lengthAdjust="spacing" textLength="29" x="421" y="451.752">Stop</text></g><g id="ScanDirections"><rect fill="#F1F1F1" height="50" rx="12.5" ry="12.5" style="stroke:#181818;stroke-width:0.5;" width="115" x="216" y="560.2188"/><line style="stroke:#181818;stroke-width:0.5;" x1="216" x2="331" y1="587.8281" y2="587.8281"/><text fill="#000000" font-family="sans-serif" font-size="14" lengthAdjust="spacing" textLength="95" x="226" y="579.752">ScanDirections</text></g><g id="ChooseDirection"><rect fill="#F1F1F1" height="50" rx="12.5" ry="12.5" style="stroke:#181818;stroke-width:0.5;" width="125" x="201" y="688.2188"/><line style="stroke:#181818;stroke-width:0.5;" x1="201" x2="326" y1="715.8281" y2="715.8281"/><text fill="#000000" font-family="sans-serif" font-size="14" lengthAdjust="spacing" textLength="105" x="211" y="707.752">ChooseDirection</text></g><path d="M19.5,816.2188 L479.5,816.2188 A12.5,12.5 0 0 1 492,828.7188 L492,843.8281 L7,843.8281 L7,828.7188 A12.5,12.5 0 0 1 19.5,816.2188 " fill="#F1F1F1" style="stroke:#F1F1F1;stroke-width:1.0;"/><rect fill="none" height="1171.6094" rx="12.5" ry="12.5" style="stroke:#181818;stroke-width:0.5;" width="485" x="7" y="816.2188"/><line style="stroke:#181818;stroke-width:0.5;" x1="7" x2="492" y1="843.8281" y2="843.8281"/><text fill="#000000" font-family="sans-serif" font-size="14" lengthAdjust="spacing" textLength="102" x="198.5" y="835.752">BypassObstacle</text><!--cluster RightBypass--><g id="cluster_RightBypass"><path d="M31.5,1021.8281 L254.5,1021.8281 A12.5,12.5 0 0 1 267,1034.3281 L267,1044.4375 L19,1044.4375 L19,1034.3281 A12.5,12.5 0 0 1 31.5,1021.8281 " fill="#F1F1F1" style="stroke:#F1F1F1;stroke-width:1.0;"/><rect fill="none" height="891" rx="12.5" ry="12.5" style="stroke:#181818;stroke-width:0.5;" width="248" x="19" y="1021.8281"/><line style="stroke:#181818;stroke-width:0.5;" x1="19" x2="267" y1="1044.4375" y2="1044.4375"/><text fill="#000000" font-family="sans-serif" font-size="14" lengthAdjust="spacing" textLength="79" x="103.5" y="1040.3613">RightBypass</text></g><!--cluster LookForLineIR--><g id="cluster_LookForLineIR"><path d="M79.5,1593.8281 L214.5,1593.8281 A12.5,12.5 0 0 1 227,1606.3281 L227,1616.4375 L67,1616.4375 L67,1606.3281 A12.5,12.5 0 0 1 79.5,1593.8281 " fill="#F1F1F1" style="stroke:#F1F1F1;stroke-width:1.0;"/><rect fill="none" height="279" rx="12.5" ry="12.5" style="stroke:#181818;stroke-width:0.5;" width="160" x="67" y="1593.8281"/><line style="stroke:#181818;stroke-width:0.5;" x1="67" x2="227" y1="1616.4375" y2="1616.4375"/><text fill="#000000" font-family="sans-serif" font-size="14" lengthAdjust="spacing" textLength="93" x="100.5" y="1612.3613">LookForLineIR</text></g><!--cluster LeftBypass--><g id="cluster_LeftBypass"><path d="M319.5,1021.8281 L470.5,1021.8281 A12.5,12.5 0 0 1 483,1034.3281 L483,1044.4375 L307,1044.4375 L307,1034.3281 A12.5,12.5 0 0 1 319.5,1021.8281 " fill="#F1F1F1" style="stroke:#F1F1F1;stroke-width:1.0;"/><rect fill="none" height="523" rx="12.5" ry="12.5" style="stroke:#181818;stroke-width:0.5;" width="176" x="307" y="1021.8281"/><line style="stroke:#181818;stroke-width:0.5;" x1="307" x2="483" y1="1044.4375" y2="1044.4375"/><text fill="#000000" font-family="sans-serif" font-size="14" lengthAdjust="spacing" textLength="70" x="360" y="1040.3613">LeftBypass</text></g><ellipse cx="110" cy="1075.8281" fill="#222222" rx="10" ry="10" style="stroke:#222222;stroke-width:1.0;"/><g id="BypassObstacle.RightBypass.TurnSlightRight"><rect fill="#F1F1F1" height="50" rx="12.5" ry="12.5" style="stroke:#181818;stroke-width:0.5;" width="118" x="51" y="1122.8281"/><line style="stroke:#181818;stroke-width:0.5;" x1="51" x2="169" y1="1150.4375" y2="1150.4375"/><text fill="#000000" font-family="sans-serif" font-size="14" lengthAdjust="spacing" textLength="98" x="61" y="1142.3613">TurnSlightRight</text></g><g id="BypassObstacle.RightBypass.MoveForward1"><rect fill="#F1F1F1" height="50" rx="12.5" ry="12.5" style="stroke:#181818;stroke-width:0.5;" width="114" x="52" y="1209.8281"/><line style="stroke:#181818;stroke-width:0.5;" x1="52" x2="166" y1="1237.4375" y2="1237.4375"/><text fill="#000000" font-family="sans-serif" font-size="14" lengthAdjust="spacing" textLength="94" x="62" y="1229.3613">MoveForward1</text></g><g id="BypassObstacle.RightBypass.TurnLeft"><rect fill="#F1F1F1" height="50" rx="12.5" ry="12.5" style="stroke:#181818;stroke-width:0.5;" width="74" x="71" y="1296.8281"/><line style="stroke:#181818;stroke-width:0.5;" x1="71" x2="145" y1="1324.4375" y2="1324.4375"/><text fill="#000000" font-family="sans-serif" font-size="14" lengthAdjust="spacing" textLength="54" x="81" y="1316.3613">TurnLeft</text></g><g id="BypassObstacle.RightBypass.MoveForward2"><rect fill="#F1F1F1" height="50" rx="12.5" ry="12.5" style="stroke:#181818;stroke-width:0.5;" width="114" x="51" y="1383.8281"/><line style="stroke:#181818;stroke-width:0.5;" x1="51" x2="165" y1="1411.4375" y2="1411.4375"/><text fill="#000000" font-family="sans-serif" font-size="14" lengthAdjust="spacing" textLength="94" x="61" y="1403.3613">MoveForward2</text></g><g id="BypassObstacle.RightBypass.TurnLeftAgain"><rect fill="#F1F1F1" height="50" rx="12.5" ry="12.5" style="stroke:#181818;stroke-width:0.5;" width="110" x="52" y="1470.8281"/><line style="stroke:#181818;stroke-width:0.5;" x1="52" x2="162" y1="1498.4375" y2="1498.4375"/><text fill="#000000" font-family="sans-serif" font-size="14" lengthAdjust="spacing" textLength="90" x="62" y="1490.3613">TurnLeftAgain</text></g><ellipse cx="137" cy="1647.8281" fill="#222222" rx="10" ry="10" style="stroke:#222222;stroke-width:1.0;"/><g id="BypassObstacle.RightBypass.LookForLineIR.ScanIR"><rect fill="#F1F1F1" height="50" rx="12.5" ry="12.5" style="stroke:#181818;stroke-width:0.5;" width="65" x="104.5" y="1694.8281"/><line style="stroke:#181818;stroke-width:0.5;" x1="104.5" x2="169.5" y1="1722.4375" y2="1722.4375"/><text fill="#000000" font-family="sans-serif" font-size="14" lengthAdjust="spacing" textLength="45" x="114.5" y="1714.3613">ScanIR</text></g><g id="BypassObstacle.RightBypass.LookForLineIR.FinishBypass"><rect fill="#F1F1F1" height="50" rx="12.5" ry="12.5" style="stroke:#181818;stroke-width:0.5;" width="104" x="99" y="1798.8281"/><line style="stroke:#181818;stroke-width:0.5;" x1="99" x2="203" y1="1826.4375" y2="1826.4375"/><text fill="#000000" font-family="sans-serif" font-size="14" lengthAdjust="spacing" textLength="84" x="109" y="1818.3613">FinishBypass</text></g><ellipse cx="399" cy="1075.8281" fill="#222222" rx="10" ry="10" style="stroke:#222222;stroke-width:1.0;"/><g id="BypassObstacle.LeftBypass.TurnSlightLeft"><rect fill="#F1F1F1" height="50" rx="12.5" ry="12.5" style="stroke:#181818;stroke-width:0.5;" width="109" x="344.5" y="1122.8281"/><line style="stroke:#181818;stroke-width:0.5;" x1="344.5" x2="453.5" y1="1150.4375" y2="1150.4375"/><text fill="#000000" font-family="sans-serif" font-size="14" lengthAdjust="spacing" textLength="89" x="354.5" y="1142.3613">TurnSlightLeft</text></g><g id="BypassObstacle.LeftBypass.MoveForward3"><rect fill="#F1F1F1" height="50" rx="12.5" ry="12.5" style="stroke:#181818;stroke-width:0.5;" width="114" x="342" y="1209.8281"/><line style="stroke:#181818;stroke-width:0.5;" x1="342" x2="456" y1="1237.4375" y2="1237.4375"/><text fill="#000000" font-family="sans-serif" font-size="14" lengthAdjust="spacing" textLength="94" x="352" y="1229.3613">MoveForward3</text></g><g id="BypassObstacle.LeftBypass.TurnRight"><rect fill="#F1F1F1" height="50" rx="12.5" ry="12.5" style="stroke:#181818;stroke-width:0.5;" width="83" x="357.5" y="1296.8281"/><line style="stroke:#181818;stroke-width:0.5;" x1="357.5" x2="440.5" y1="1324.4375" y2="1324.4375"/><text fill="#000000" font-family="sans-serif" font-size="14" lengthAdjust="spacing" textLength="63" x="367.5" y="1316.3613">TurnRight</text></g><g id="BypassObstacle.LeftBypass.MoveForward4"><rect fill="#F1F1F1" height="50" rx="12.5" ry="12.5" style="stroke:#181818;stroke-width:0.5;" width="114" x="342" y="1383.8281"/><line style="stroke:#181818;stroke-width:0.5;" x1="342" x2="456" y1="1411.4375" y2="1411.4375"/><text fill="#000000" font-family="sans-serif" font-size="14" lengthAdjust="spacing" textLength="94" x="352" y="1403.3613">MoveForward4</text></g><g id="BypassObstacle.LeftBypass.TurnRightAgain"><rect fill="#F1F1F1" height="50" rx="12.5" ry="12.5" style="stroke:#181818;stroke-width:0.5;" width="119" x="339.5" y="1470.8281"/><line style="stroke:#181818;stroke-width:0.5;" x1="339.5" x2="458.5" y1="1498.4375" y2="1498.4375"/><text fill="#000000" font-family="sans-serif" font-size="14" lengthAdjust="spacing" textLength="99" x="349.5" y="1490.3613">TurnRightAgain</text></g><ellipse cx="171" cy="864.8281" fill="#222222" rx="10" ry="10" style="stroke:#222222;stroke-width:1.0;"/><g id="BypassObstacle.DecideDirection"><rect fill="#F1F1F1" height="50" rx="12.5" ry="12.5" style="stroke:#181818;stroke-width:0.5;" width="120" x="111" y="911.8281"/><line style="stroke:#181818;stroke-width:0.5;" x1="111" x2="231" y1="939.4375" y2="939.4375"/><text fill="#000000" font-family="sans-serif" font-size="14" lengthAdjust="spacing" textLength="100" x="121" y="931.3613">DecideDirection</text></g><ellipse cx="151" cy="1966.8281" fill="none" rx="11" ry="11" style="stroke:#222222;stroke-width:1.0;"/><ellipse cx="151" cy="1966.8281" fill="#222222" rx="6" ry="6" style="stroke:#222222;stroke-width:1.0;"/><!--link *start*BypassObstacle to DecideDirection--><g id="link_*start*BypassObstacle_DecideDirection"><path d="M171,874.9781 C171,884.2481 171,892.9681 171,905.6081 " fill="none" id="*start*BypassObstacle-to-DecideDirection" style="stroke:#181818;stroke-width:1.0;"/><polygon fill="#181818" points="171,911.6081,175,902.6081,171,906.6081,167,902.6081,171,911.6081" style="stroke:#181818;stroke-width:1.0;"/></g><!--link DecideDirection to RightBypass--><g id="link_DecideDirection_RightBypass"><path d="M110.95,955.2481 C84.97,965.7881 56.55,981.9381 39,1005.8281 C36.7688,1008.8656 34.9019,1012.1792 33.3438,1015.6575 C32.5648,1017.3966 31.863,1019.177 31.2315,1020.9845 C31.1526,1021.2105 32.9984,1015.7536 32.9217,1015.9803 " fill="none" id="DecideDirection-to-RightBypass" style="stroke:#181818;stroke-width:1.0;"/><polygon fill="#181818" points="30.998,1021.6636,37.6724,1014.4212,32.6011,1016.9276,30.0947,1011.8562,30.998,1021.6636" style="stroke:#181818;stroke-width:1.0;"/><text fill="#000000" font-family="sans-serif" font-size="13" lengthAdjust="spacing" textLength="89" x="66" y="994.3232">Space on Right</text></g><!--link DecideDirection to LeftBypass--><g id="link_DecideDirection_LeftBypass"><path d="M203.62,962.0881 C219.66,974.5381 238.94,990.3181 255,1005.8281 C269.16,1019.4981 283.68,1036.1131 294.8887,1049.6131 C297.6909,1052.9881 300.2862,1056.1684 302.6171,1059.0594 C303.7825,1060.5048 304.8819,1061.878 305.9081,1063.1669 C306.1646,1063.4892 306.4165,1063.8061 306.6638,1064.1177 C306.7256,1064.1955 303.0587,1059.5721 303.1199,1059.6493 " fill="none" id="DecideDirection-to-LeftBypass" style="stroke:#181818;stroke-width:1.0;"/><polygon fill="#181818" points="306.8484,1064.3503,304.3897,1054.8133,303.7414,1060.4328,298.1218,1059.7845,306.8484,1064.3503" style="stroke:#181818;stroke-width:1.0;"/><text fill="#000000" font-family="sans-serif" font-size="13" lengthAdjust="spacing" textLength="80" x="247" y="994.3232">Space on Left</text></g><!--link *start*RightBypass to TurnSlightRight--><g id="link_*start*RightBypass_TurnSlightRight"><path d="M110,1085.9781 C110,1095.2481 110,1103.9681 110,1116.6081 " fill="none" id="*start*RightBypass-to-TurnSlightRight" style="stroke:#181818;stroke-width:1.0;"/><polygon fill="#181818" points="110,1122.6081,114,1113.6081,110,1117.6081,106,1113.6081,110,1122.6081" style="stroke:#181818;stroke-width:1.0;"/></g><!--link TurnSlightRight to MoveForward1--><g id="link_TurnSlightRight_MoveForward1"><path d="M109.72,1172.9581 C109.58,1184.4481 109.4931,1192.1486 109.3531,1203.6386 " fill="none" id="TurnSlightRight-to-MoveForward1" style="stroke:#181818;stroke-width:1.0;"/><polygon fill="#181818" points="109.28,1209.6381,113.3894,1200.6875,109.3409,1204.6385,105.3899,1200.5901,109.28,1209.6381" style="stroke:#181818;stroke-width:1.0;"/></g><!--link MoveForward1 to TurnLeft--><g id="link_MoveForward1_TurnLeft"><path d="M108.72,1259.9581 C108.58,1271.4481 108.4931,1279.1486 108.3531,1290.6386 " fill="none" id="MoveForward1-to-TurnLeft" style="stroke:#181818;stroke-width:1.0;"/><polygon fill="#181818" points="108.28,1296.6381,112.3894,1287.6875,108.3409,1291.6385,104.3899,1287.5901,108.28,1296.6381" style="stroke:#181818;stroke-width:1.0;"/></g><!--link TurnLeft to MoveForward2--><g id="link_TurnLeft_MoveForward2"><path d="M108,1346.9581 C108,1358.4481 108,1366.1481 108,1377.6381 " fill="none" id="TurnLeft-to-MoveForward2" style="stroke:#181818;stroke-width:1.0;"/><polygon fill="#181818" points="108,1383.6381,112,1374.6381,108,1378.6381,104,1374.6381,108,1383.6381" style="stroke:#181818;stroke-width:1.0;"/></g><!--link MoveForward2 to TurnLeftAgain--><g id="link_MoveForward2_TurnLeftAgain"><path d="M107.72,1433.9581 C107.58,1445.4481 107.4931,1453.1486 107.3531,1464.6386 " fill="none" id="MoveForward2-to-TurnLeftAgain" style="stroke:#181818;stroke-width:1.0;"/><polygon fill="#181818" points="107.28,1470.6381,111.3894,1461.6875,107.3409,1465.6385,103.3899,1461.5901,107.28,1470.6381" style="stroke:#181818;stroke-width:1.0;"/></g><!--link TurnLeftAgain to LookForLineIR--><g id="link_TurnLeftAgain_LookForLineIR"><path d="M100.61,1520.8281 C96.44,1536.8981 91.05,1558.5481 87,1577.8281 C86.225,1581.5169 85.4617,1585.3241 84.7187,1589.1669 C84.5329,1590.1276 84.3484,1591.0906 84.1654,1592.0544 C84.0738,1592.5364 85.0932,1587.1222 85.0023,1587.6045 " fill="none" id="TurnLeftAgain-to-LookForLineIR" style="stroke:#181818;stroke-width:1.0;"/><polygon fill="#181818" points="83.8918,1593.5008,89.4885,1585.3967,84.8172,1588.5872,81.6267,1583.9159,83.8918,1593.5008" style="stroke:#181818;stroke-width:1.0;"/></g><!--link *start*LeftBypass to TurnSlightLeft--><g id="link_*start*LeftBypass_TurnSlightLeft"><path d="M399,1085.9781 C399,1095.2481 399,1103.9681 399,1116.6081 " fill="none" id="*start*LeftBypass-to-TurnSlightLeft" style="stroke:#181818;stroke-width:1.0;"/><polygon fill="#181818" points="399,1122.6081,403,1113.6081,399,1117.6081,395,1113.6081,399,1122.6081" style="stroke:#181818;stroke-width:1.0;"/></g><!--link TurnSlightLeft to MoveForward3--><g id="link_TurnSlightLeft_MoveForward3"><path d="M399,1172.9581 C399,1184.4481 399,1192.1481 399,1203.6381 " fill="none" id="TurnSlightLeft-to-MoveForward3" style="stroke:#181818;stroke-width:1.0;"/><polygon fill="#181818" points="399,1209.6381,403,1200.6381,399,1204.6381,395,1200.6381,399,1209.6381" style="stroke:#181818;stroke-width:1.0;"/></g><!--link MoveForward3 to TurnRight--><g id="link_MoveForward3_TurnRight"><path d="M399,1259.9581 C399,1271.4481 399,1279.1481 399,1290.6381 " fill="none" id="MoveForward3-to-TurnRight" style="stroke:#181818;stroke-width:1.0;"/><polygon fill="#181818" points="399,1296.6381,403,1287.6381,399,1291.6381,395,1287.6381,399,1296.6381" style="stroke:#181818;stroke-width:1.0;"/></g><!--link TurnRight to MoveForward4--><g id="link_TurnRight_MoveForward4"><path d="M399,1346.9581 C399,1358.4481 399,1366.1481 399,1377.6381 " fill="none" id="TurnRight-to-MoveForward4" style="stroke:#181818;stroke-width:1.0;"/><polygon fill="#181818" points="399,1383.6381,403,1374.6381,399,1378.6381,395,1374.6381,399,1383.6381" style="stroke:#181818;stroke-width:1.0;"/></g><!--link MoveForward4 to TurnRightAgain--><g id="link_MoveForward4_TurnRightAgain"><path d="M399,1433.9581 C399,1445.4481 399,1453.1481 399,1464.6381 " fill="none" id="MoveForward4-to-TurnRightAgain" style="stroke:#181818;stroke-width:1.0;"/><polygon fill="#181818" points="399,1470.6381,403,1461.6381,399,1465.6381,395,1461.6381,399,1470.6381" style="stroke:#181818;stroke-width:1.0;"/></g><!--link TurnRightAgain to LookForLineIR--><g id="link_TurnRightAgain_LookForLineIR"><path d="M360.01,1520.9181 C330.25,1537.9481 287.57,1559.5181 247,1569.8281 C229.75,1574.2081 100.33,1566.0381 87,1577.8281 C84.1775,1580.3256 81.8627,1583.23 79.9739,1586.4061 C79.0295,1587.9941 78.1917,1589.6501 77.4502,1591.3571 C77.2648,1591.7839 77.0854,1592.2138 76.9119,1592.6467 C76.8252,1592.8631 76.7399,1593.0803 76.656,1593.2982 C76.6141,1593.4071 78.6892,1587.902 78.648,1588.0112 " fill="none" id="TurnRightAgain-to-LookForLineIR" style="stroke:#181818;stroke-width:1.0;"/><polygon fill="#181818" points="76.5314,1593.6255,83.4492,1586.6152,78.2953,1588.9469,75.9635,1583.793,76.5314,1593.6255" style="stroke:#181818;stroke-width:1.0;"/></g><!--link *start*LookForLineIR to ScanIR--><g id="link_*start*LookForLineIR_ScanIR"><path d="M137,1657.9781 C137,1667.2481 137,1675.9681 137,1688.6081 " fill="none" id="*start*LookForLineIR-to-ScanIR" style="stroke:#181818;stroke-width:1.0;"/><polygon fill="#181818" points="137,1694.6081,141,1685.6081,137,1689.6081,133,1685.6081,137,1694.6081" style="stroke:#181818;stroke-width:1.0;"/></g><!--link ScanIR to FinishBypass--><g id="link_ScanIR_FinishBypass"><path d="M140.32,1744.9981 C142.53,1761.1381 144.6244,1776.3538 146.8444,1792.5338 " fill="none" id="ScanIR-to-FinishBypass" style="stroke:#181818;stroke-width:1.0;"/><polygon fill="#181818" points="147.66,1798.4781,150.3995,1789.0179,146.9803,1793.5245,142.4737,1790.1054,147.66,1798.4781" style="stroke:#181818;stroke-width:1.0;"/><text fill="#000000" font-family="sans-serif" font-size="13" lengthAdjust="spacing" textLength="64" x="145" y="1777.3232">Line Found</text></g><!--link FinishBypass to *end*BypassObstacle--><g id="link_FinishBypass_*end*BypassObstacle"><path d="M151,1849.0681 C151,1880.4081 151,1927.5781 151,1949.6981 " fill="none" id="FinishBypass-to-*end*BypassObstacle" style="stroke:#181818;stroke-width:1.0;"/><polygon fill="#181818" points="151,1955.6981,155,1946.6981,151,1950.6981,147,1946.6981,151,1955.6981" style="stroke:#181818;stroke-width:1.0;"/></g><g id="SearchForLine"><rect fill="#F1F1F1" height="50" rx="12.5" ry="12.5" style="stroke:#181818;stroke-width:0.5;" width="114" x="340.5" y="2066.2188"/><line style="stroke:#181818;stroke-width:0.5;" x1="340.5" x2="454.5" y1="2093.8281" y2="2093.8281"/><text fill="#000000" font-family="sans-serif" font-size="14" lengthAdjust="spacing" textLength="94" x="350.5" y="2085.752">SearchForLine</text></g><ellipse cx="435.5" cy="585.2188" fill="none" rx="11" ry="11" style="stroke:#222222;stroke-width:1.0;"/><ellipse cx="435.5" cy="585.2188" fill="#222222" rx="6" ry="6" style="stroke:#222222;stroke-width:1.0;"/><!--link *start* to Idle--><g id="link_*start*_Idle"><path d="M435.5,82.2987 C435.5,99.0787 435.5,129.4388 435.5,153.8688 " fill="none" id="*start*-to-Idle" style="stroke:#181818;stroke-width:1.0;"/><polygon fill="#181818" points="435.5,159.8688,439.5,150.8688,435.5,154.8688,431.5,150.8688,435.5,159.8688" style="stroke:#181818;stroke-width:1.0;"/><text fill="#000000" font-family="sans-serif" font-size="13" lengthAdjust="spacing" textLength="57" x="436.5" y="126.7139">Power On</text></g><!--link Idle to LineFollowing--><g id="link_Idle_LineFollowing"><path d="M435.5,210.5087 C435.5,232.8287 435.5,259.7088 435.5,281.9988 " fill="none" id="Idle-to-LineFollowing" style="stroke:#181818;stroke-width:1.0;"/><polygon fill="#181818" points="435.5,287.9988,439.5,278.9988,435.5,282.9988,431.5,278.9988,435.5,287.9988" style="stroke:#181818;stroke-width:1.0;"/><text fill="#000000" font-family="sans-serif" font-size="13" lengthAdjust="spacing" textLength="91" x="436.5" y="254.7139">Start Command</text></g><!--link LineFollowing to ObstacleDetected--><g id="link_LineFollowing_ObstacleDetected"><path d="M382.24,327.5387 C358.31,335.8488 331.29,348.7587 312.5,368.2188 C295.48,385.8387 287.8051,406.9208 283.1951,426.3508 " fill="none" id="LineFollowing-to-ObstacleDetected" style="stroke:#181818;stroke-width:1.0;"/><polygon fill="#181818" points="281.81,432.1888,287.7796,424.3553,282.9643,427.3238,279.9957,422.5084,281.81,432.1888" style="stroke:#181818;stroke-width:1.0;"/><text fill="#000000" font-family="sans-serif" font-size="13" lengthAdjust="spacing" textLength="108" x="315" y="382.7139">Obstacle Detected</text><text fill="#000000" font-family="sans-serif" font-size="13" lengthAdjust="spacing" textLength="111" x="313.5" y="399.0654">(Ultrasonic Sensor)</text></g><!--link LineFollowing to Stop--><g id="link_LineFollowing_Stop"><path d="M434.41,338.4088 C434.04,347.7188 433.68,358.4588 433.5,368.2188 C433.22,383.3287 433.22,387.1088 433.5,402.2188 C433.68,411.9788 433.8017,416.7235 434.1717,426.0335 " fill="none" id="LineFollowing-to-Stop" style="stroke:#181818;stroke-width:1.0;"/><polygon fill="#181818" points="434.41,432.0287,438.0494,422.877,434.2114,427.0327,430.0558,423.1947,434.41,432.0287" style="stroke:#181818;stroke-width:1.0;"/><text fill="#000000" font-family="sans-serif" font-size="13" lengthAdjust="spacing" textLength="69" x="442" y="382.7139">Stop Button</text><text fill="#000000" font-family="sans-serif" font-size="13" lengthAdjust="spacing" textLength="84" x="434.5" y="399.0654">or Battery Low</text></g><!--link ObstacleDetected to ScanDirections--><g id="link_ObstacleDetected_ScanDirections"><path d="M276.73,482.5087 C276.02,504.8287 275.171,531.7118 274.461,554.0018 " fill="none" id="ObstacleDetected-to-ScanDirections" style="stroke:#181818;stroke-width:1.0;"/><polygon fill="#181818" points="274.27,559.9988,278.5545,551.1307,274.4292,555.0013,270.5586,550.876,274.27,559.9988" style="stroke:#181818;stroke-width:1.0;"/><text fill="#000000" font-family="sans-serif" font-size="13" lengthAdjust="spacing" textLength="118" x="277.5" y="526.7139">Stop &amp; Rotate Servo</text></g><!--link ScanDirections to ChooseDirection--><g id="link_ScanDirections_ChooseDirection"><path d="M271.57,610.5088 C269.8,632.8287 267.665,659.7276 265.895,682.0176 " fill="none" id="ScanDirections-to-ChooseDirection" style="stroke:#181818;stroke-width:1.0;"/><polygon fill="#181818" points="265.42,687.9988,270.1199,679.3436,265.8158,683.0144,262.145,678.7104,265.42,687.9988" style="stroke:#181818;stroke-width:1.0;"/><text fill="#000000" font-family="sans-serif" font-size="13" lengthAdjust="spacing" textLength="107" x="270.5" y="654.7139">Get Distance Data</text></g><!--link ChooseDirection to BypassObstacle--><g id="link_ChooseDirection_BypassObstacle"><path d="M263.01,738.2688 C262.65,756.1388 262.222,777.08 261.552,810.03 " fill="none" id="ChooseDirection-to-BypassObstacle" style="stroke:#181818;stroke-width:1.0;"/><polygon fill="#181818" points="261.43,816.0288,265.6121,807.1119,261.5316,811.0298,257.6138,806.9493,261.43,816.0288" style="stroke:#181818;stroke-width:1.0;"/><text fill="#000000" font-family="sans-serif" font-size="13" lengthAdjust="spacing" textLength="88" x="263.5" y="782.7139">Pick Best Path</text></g><!--link BypassObstacle to SearchForLine--><g id="link_BypassObstacle_SearchForLine"><path d="M375.58,1988.4788 C382.65,2021.2788 387.1688,2042.2428 391.0088,2060.1028 " fill="none" id="BypassObstacle-to-SearchForLine" style="stroke:#181818;stroke-width:1.0;"/><polygon fill="#181818" points="392.27,2065.9688,394.2888,2056.329,391.219,2061.0805,386.4676,2058.0106,392.27,2065.9688" style="stroke:#181818;stroke-width:1.0;"/><text fill="#000000" font-family="sans-serif" font-size="13" lengthAdjust="spacing" textLength="103" x="386.5" y="2032.7139">Bypass Complete</text></g><!--link SearchForLine to LineFollowing--><g id="link_SearchForLine_LineFollowing"><path d="M454.54,2070.2887 C470.87,2062.0588 487.27,2050.9088 498.5,2036.2188 C511.79,2018.8288 506.37,2009.8788 509.5,1988.2188 C546.72,1730.3988 545.5,1663.7088 545.5,1403.2188 C545.5,456.2188 545.5,456.2188 545.5,456.2188 C545.5,415.9088 547.34,400.7288 523.5,368.2188 C514.49,355.9288 506.8713,348.9911 493.8913,341.0111 " fill="none" id="SearchForLine-to-LineFollowing" style="stroke:#181818;stroke-width:1.0;"/><polygon fill="#181818" points="488.78,337.8688,494.352,345.9899,493.0394,340.4874,498.5419,339.1748,488.78,337.8688" style="stroke:#181818;stroke-width:1.0;"/><text fill="#000000" font-family="sans-serif" font-size="13" lengthAdjust="spacing" textLength="93" x="546.5" y="654.7139">Line Reacquired</text></g><!--link Stop to *end*--><g id="link_Stop_*end*"><path d="M435.5,482.5087 C435.5,510.2587 435.5,548.3588 435.5,568.0988 " fill="none" id="Stop-to-*end*" style="stroke:#181818;stroke-width:1.0;"/><polygon fill="#181818" points="435.5,574.0988,439.5,565.0988,435.5,569.0988,431.5,565.0988,435.5,574.0988" style="stroke:#181818;stroke-width:1.0;"/><text fill="#000000" font-family="sans-serif" font-size="13" lengthAdjust="spacing" textLength="56" x="436.5" y="526.7139">Power Off</text></g><!--SRC=[XLHDRzim3BthL_0qT0LoMDlJ3WMQ1XqAf6WHRwTb1qPMOg6Ec4fCWc3eVo-b-2FMKkna-v7lFPAMo9Ph0rFh33nGNTFUU9ZHWXX6K32oWIVKLGnFBAuyhkTkSO2xUcUL-dtv1qQZMtWiHU8xl2JoirCg0J4ITO-orgqaHHGzmpsjr-XAfORXI7XU14PTcubXezcKmcaXQB6vk_XLiyT0pceeZ0lalvxHAfWsoLCUuoqpkRaZ3sDaDlu0KzehzOzV8cfq4-i5iEH2A_55vf86KXY_8vKbHTvzHHHC1mhnXs6PcrWuBVKZeyfp8czys608NPyoIQjVOMm2mmjofLH8lbdQNmNG_e69qRRiLPM4CYYbpUogugDCx6g3KfM44lm9PMgMPnWHZIR7mavbOrLzNJ-ttXLr3BSUa6CfxubsylFy7dtvBIMT0frIScqbuaVElSgvLmFktGgj6mWavDWdqQkGuYbwd4dEUz_UoGW-wsvGMG_bzLtdzLrtEiFvd9tCJSw-6RA7xVNGV_ix3MKjnbEUyg5vJUY3TJPKtR5ejiTMhdGZF4Y83D5J4icES78mw7NL-8jOGv8TiQdbKgfX_DnIIO6PGVssbQChQoLTryQrtqlBfVe0]--></g></svg>