<?xml version="1.0" encoding="us-ascii" standalone="no"?><svg xmlns="http://www.w3.org/2000/svg" xmlns:xlink="http://www.w3.org/1999/xlink" contentStyleType="text/css" height="809px" preserveAspectRatio="none" style="width:1348px;height:809px;background:#FFFFFF;" version="1.1" viewBox="0 0 1348 809" width="1348px" zoomAndPan="magnify"><defs/><g><text fill="#000000" font-family="sans-serif" font-size="14" font-weight="bold" lengthAdjust="spacing" textLength="375" x="476.42" y="24.5332">Line Follower Robot - State Machine Diagram (by Alvi)</text><path d="M19.5,45.6094 L1322.34,45.6094 A12.5,12.5 0 0 1 1334.84,58.1094 L1334.84,73.2188 L7,73.2188 L7,58.1094 A12.5,12.5 0 0 1 19.5,45.6094 " fill="#F1F1F1" style="stroke:#F1F1F1;stroke-width:1.0;"/><rect fill="none" height="757.6094" rx="12.5" ry="12.5" style="stroke:#181818;stroke-width:0.5;" width="1327.84" x="7" y="45.6094"/><line style="stroke:#181818;stroke-width:0.5;" x1="7" x2="1334.84" y1="73.2188" y2="73.2188"/><text fill="#000000" font-family="sans-serif" font-size="14" lengthAdjust="spacing" textLength="347" x="497.42" y="65.1426">stm [Block] LineFollowerRobot [Behavior States] by Alvi</text><ellipse cx="1153.84" cy="94.2188" fill="#222222" rx="10" ry="10" style="stroke:#222222;stroke-width:1.0;"/><g id="SysMLFrame.Idle"><rect fill="#F1F1F1" height="50" rx="12.5" ry="12.5" style="stroke:#181818;stroke-width:0.5;" width="50" x="1128.84" y="158.2188"/><line style="stroke:#181818;stroke-width:0.5;" x1="1128.84" x2="1178.84" y1="185.8281" y2="185.8281"/><text fill="#000000" font-family="sans-serif" font-size="14" lengthAdjust="spacing" textLength="22" x="1142.84" y="177.752">Idle</text></g><g id="SysMLFrame.Initializing"><rect fill="#F1F1F1" height="50" rx="12.5" ry="12.5" style="stroke:#181818;stroke-width:0.5;" width="80" x="1047.84" y="262.2188"/><line style="stroke:#181818;stroke-width:0.5;" x1="1047.84" x2="1127.84" y1="289.8281" y2="289.8281"/><text fill="#000000" font-family="sans-serif" font-size="14" lengthAdjust="spacing" textLength="60" x="1057.84" y="281.752">Initializing</text></g><g id="SysMLFrame.Calibrating"><rect fill="#F1F1F1" height="50" rx="12.5" ry="12.5" style="stroke:#181818;stroke-width:0.5;" width="88" x="923.84" y="366.2188"/><line style="stroke:#181818;stroke-width:0.5;" x1="923.84" x2="1011.84" y1="393.8281" y2="393.8281"/><text fill="#000000" font-family="sans-serif" font-size="14" lengthAdjust="spacing" textLength="68" x="933.84" y="385.752">Calibrating</text></g><g id="SysMLFrame.LineFollowing"><rect fill="#F1F1F1" height="52.7031" rx="12.5" ry="12.5" style="stroke:#181818;stroke-width:0.5;" width="119" x="445.34" y="470.2188"/><line style="stroke:#181818;stroke-width:0.5;" x1="445.34" x2="564.34" y1="497.8281" y2="497.8281"/><text fill="#000000" font-family="sans-serif" font-size="14" lengthAdjust="spacing" textLength="86" x="461.84" y="489.752">LineFollowing</text><text fill="#000000" font-family="sans-serif" font-size="12" lengthAdjust="spacing" textLength="99" x="450.34" y="515.2852">Entry / Follow Line</text></g><g id="SysMLFrame.ObstacleHandling"><rect fill="#F1F1F1" height="52.7031" rx="12.5" ry="12.5" style="stroke:#181818;stroke-width:0.5;" width="131" x="109.34" y="577.2188"/><line style="stroke:#181818;stroke-width:0.5;" x1="109.34" x2="240.34" y1="604.8281" y2="604.8281"/><text fill="#000000" font-family="sans-serif" font-size="14" lengthAdjust="spacing" textLength="111" x="119.34" y="596.752">ObstacleHandling</text><text fill="#000000" font-family="sans-serif" font-size="12" lengthAdjust="spacing" textLength="92" x="114.34" y="622.2852">Entry / Stop, Turn</text></g><g id="SysMLFrame.ZoneAction"><rect fill="#F1F1F1" height="52.7031" rx="12.5" ry="12.5" style="stroke:#181818;stroke-width:0.5;" width="158" x="338.84" y="577.2188"/><line style="stroke:#181818;stroke-width:0.5;" x1="338.84" x2="496.84" y1="604.8281" y2="604.8281"/><text fill="#000000" font-family="sans-serif" font-size="14" lengthAdjust="spacing" textLength="71" x="382.34" y="596.752">ZoneAction</text><text fill="#000000" font-family="sans-serif" font-size="12" lengthAdjust="spacing" textLength="138" x="343.84" y="622.2852">Entry / Trigger LED Action</text></g><g id="SysMLFrame.LineLost"><rect fill="#F1F1F1" height="52.7031" rx="12.5" ry="12.5" style="stroke:#181818;stroke-width:0.5;" width="137" x="585.34" y="577.2188"/><line style="stroke:#181818;stroke-width:0.5;" x1="585.34" x2="722.34" y1="604.8281" y2="604.8281"/><text fill="#000000" font-family="sans-serif" font-size="14" lengthAdjust="spacing" textLength="54" x="626.84" y="596.752">LineLost</text><text fill="#000000" font-family="sans-serif" font-size="12" lengthAdjust="spacing" textLength="117" x="590.34" y="622.2852">Entry / Search or Stop</text></g><g id="SysMLFrame.Stopped"><rect fill="#F1F1F1" height="50" rx="12.5" ry="12.5" style="stroke:#181818;stroke-width:0.5;" width="73" x="738.34" y="684.2188"/><line style="stroke:#181818;stroke-width:0.5;" x1="738.34" x2="811.34" y1="711.8281" y2="711.8281"/><text fill="#000000" font-family="sans-serif" font-size="14" lengthAdjust="spacing" textLength="53" x="748.34" y="703.752">Stopped</text></g><ellipse cx="774.84" cy="782.2188" fill="none" rx="11" ry="11" style="stroke:#222222;stroke-width:1.0;"/><ellipse cx="774.84" cy="782.2188" fill="#222222" rx="6" ry="6" style="stroke:#222222;stroke-width:1.0;"/><!--link *start*SysMLFrame to Idle--><g id="link_*start*SysMLFrame_Idle"><path d="M1153.84,104.5287 C1153.84,117.1588 1153.84,134.1588 1153.84,151.8687 " fill="none" id="*start*SysMLFrame-to-Idle" style="stroke:#181818;stroke-width:1.0;"/><polygon fill="#181818" points="1153.84,157.8687,1157.84,148.8687,1153.84,152.8687,1149.84,148.8687,1153.84,157.8687" style="stroke:#181818;stroke-width:1.0;"/><text fill="#000000" font-family="sans-serif" font-size="13" lengthAdjust="spacing" textLength="57" x="1154.84" y="136.7139">Power On</text></g><!--link Idle to Initializing--><g id="link_Idle_Initializing"><path d="M1138.2,208.3887 C1127.76,224.5287 1117.3296,240.6514 1106.8596,256.8314 " fill="none" id="Idle-to-Initializing" style="stroke:#181818;stroke-width:1.0;"/><polygon fill="#181818" points="1103.6,261.8688,1111.8477,256.4858,1106.3164,257.671,1105.1312,252.1397,1103.6,261.8688" style="stroke:#181818;stroke-width:1.0;"/><text fill="#000000" font-family="sans-serif" font-size="13" lengthAdjust="spacing" textLength="28" x="1124.84" y="240.7139">Start</text></g><!--link Initializing to Calibrating--><g id="link_Initializing_Calibrating"><path d="M1047.44,299.6388 C1029.85,306.2588 1010.05,316.1288 995.84,330.2188 C985.97,340.0088 981.2468,348.3197 976.8268,360.2997 " fill="none" id="Initializing-to-Calibrating" style="stroke:#181818;stroke-width:1.0;"/><polygon fill="#181818" points="974.75,365.9288,981.618,358.8697,976.4807,361.2378,974.1125,356.1005,974.75,365.9288" style="stroke:#181818;stroke-width:1.0;"/><text fill="#000000" font-family="sans-serif" font-size="13" lengthAdjust="spacing" textLength="76" x="996.84" y="344.7139">Init Complete</text></g><!--link Calibrating to LineFollowing--><g id="link_Calibrating_LineFollowing"><path d="M923.45,402.1388 C839.82,420.8388 664.7356,459.9802 570.4956,481.0402 " fill="none" id="Calibrating-to-LineFollowing" style="stroke:#181818;stroke-width:1.0;"/><polygon fill="#181818" points="564.64,482.3488,574.2957,484.2896,569.5196,481.2583,572.551,476.4822,564.64,482.3488" style="stroke:#181818;stroke-width:1.0;"/><text fill="#000000" font-family="sans-serif" font-size="13" lengthAdjust="spacing" textLength="95" x="777.84" y="448.7139">Calibration Done</text></g><!--link LineFollowing to ObstacleHandling--><g id="link_LineFollowing_ObstacleHandling"><path d="M444.98,498.9588 C326.11,502.0388 69.42,512.0288 42.84,541.2188 C18,568.5188 58.5353,583.5082 103.0253,592.3582 " fill="none" id="LineFollowing-to-ObstacleHandling" style="stroke:#181818;stroke-width:1.0;"/><polygon fill="#181818" points="108.91,593.5288,100.8633,587.8497,104.0061,592.5533,99.3026,595.696,108.91,593.5288" style="stroke:#181818;stroke-width:1.0;"/><text fill="#000000" font-family="sans-serif" font-size="13" lengthAdjust="spacing" textLength="108" x="43.84" y="555.7139">Obstacle Detected</text></g><!--link LineFollowing to ZoneAction--><g id="link_LineFollowing_ZoneAction"><path d="M445.3,500.6488 C384.77,505.0288 296.97,515.6988 275.84,541.2188 C252.46,569.4688 288.4856,583.9582 332.7256,592.3682 " fill="none" id="LineFollowing-to-ZoneAction" style="stroke:#181818;stroke-width:1.0;"/><polygon fill="#181818" points="338.62,593.4888,330.5254,587.8783,333.708,592.555,329.0313,595.7376,338.62,593.4888" style="stroke:#181818;stroke-width:1.0;"/><text fill="#000000" font-family="sans-serif" font-size="13" lengthAdjust="spacing" textLength="118" x="276.84" y="555.7139">Zone Color Detected</text></g><!--link LineFollowing to LineLost--><g id="link_LineFollowing_LineLost"><path d="M544.01,523.2488 C552.6,529.0387 561.59,535.2488 569.84,541.2188 C580.35,548.8288 582.44,551.4488 592.84,559.2188 C600.66,565.0588 604.2521,567.715 612.3221,573.495 " fill="none" id="LineFollowing-to-LineLost" style="stroke:#181818;stroke-width:1.0;"/><polygon fill="#181818" points="617.2,576.9888,612.2123,568.4962,613.1351,574.0773,607.554,575.0001,617.2,576.9888" style="stroke:#181818;stroke-width:1.0;"/><text fill="#000000" font-family="sans-serif" font-size="13" lengthAdjust="spacing" textLength="104" x="593.84" y="555.7139">Line Not Detected</text></g><!--link ObstacleHandling to LineFollowing--><g id="link_ObstacleHandling_LineFollowing"><path d="M174.27,576.9188 C175.41,564.3988 179.07,550.1688 188.84,541.2188 C225.23,507.8688 358.1514,500.0005 439.1714,498.2205 " fill="none" id="ObstacleHandling-to-LineFollowing" style="stroke:#181818;stroke-width:1.0;"/><polygon fill="#181818" points="445.17,498.0888,436.0843,494.2874,440.1712,498.1986,436.26,502.2855,445.17,498.0888" style="stroke:#181818;stroke-width:1.0;"/><text fill="#000000" font-family="sans-serif" font-size="13" lengthAdjust="spacing" textLength="75" x="189.84" y="555.7139">Path Cleared</text></g><!--link ZoneAction to LineFollowing--><g id="link_ZoneAction_LineFollowing"><path d="M412.51,577.0788 C411.45,565.3288 412.27,551.7188 418.84,541.2188 C425.23,531.0088 429.6398,526.1091 440.1398,520.0191 " fill="none" id="ZoneAction-to-LineFollowing" style="stroke:#181818;stroke-width:1.0;"/><polygon fill="#181818" points="445.33,517.0088,435.5378,518.0641,441.0048,519.5173,439.5516,524.9843,445.33,517.0088" style="stroke:#181818;stroke-width:1.0;"/><text fill="#000000" font-family="sans-serif" font-size="13" lengthAdjust="spacing" textLength="149" x="419.84" y="555.7139">Zone Response Complete</text></g><!--link LineLost to LineFollowing--><g id="link_LineLost_LineFollowing"><path d="M689.33,577.2088 C700.65,565.9988 708.1,552.7887 698.84,541.2188 C682.23,520.4688 621.3598,509.6322 570.7398,503.7422 " fill="none" id="LineLost-to-LineFollowing" style="stroke:#181818;stroke-width:1.0;"/><polygon fill="#181818" points="564.78,503.0488,573.2574,508.0621,569.7465,503.6266,574.182,500.1158,564.78,503.0488" style="stroke:#181818;stroke-width:1.0;"/><text fill="#000000" font-family="sans-serif" font-size="13" lengthAdjust="spacing" textLength="97" x="703.84" y="555.7139">Line Re-acquired</text></g><!--link LineLost to Stopped--><g id="link_LineLost_Stopped"><path d="M585.31,622.2887 C558.33,632.5488 537.12,647.2488 552.84,666.2188 C575.93,694.0788 675.0591,703.2683 731.9791,706.4083 " fill="none" id="LineLost-to-Stopped" style="stroke:#181818;stroke-width:1.0;"/><polygon fill="#181818" points="737.97,706.7388,729.204,702.2491,732.9776,706.4633,728.7633,710.2369,737.97,706.7388" style="stroke:#181818;stroke-width:1.0;"/><text fill="#000000" font-family="sans-serif" font-size="13" lengthAdjust="spacing" textLength="138" x="553.84" y="662.7139">Timeout or Manual Stop</text></g><!--link Idle to Stopped--><g id="link_Idle_Stopped"><path d="M1179.17,206.2387 C1198.15,225.2787 1220.84,254.6487 1220.84,286.2188 C1220.84,286.2188 1220.84,286.2188 1220.84,604.7188 C1220.84,688.4788 924.5776,704.3087 817.7176,707.3387 " fill="none" id="Idle-to-Stopped" style="stroke:#181818;stroke-width:1.0;"/><polygon fill="#181818" points="811.72,707.5088,820.8298,711.2521,816.718,707.367,820.603,703.2553,811.72,707.5088" style="stroke:#181818;stroke-width:1.0;"/><text fill="#000000" font-family="sans-serif" font-size="13" lengthAdjust="spacing" textLength="103" x="1221.84" y="448.7139">Power Off or Error</text></g><!--link Initializing to Stopped--><g id="link_Initializing_Stopped"><path d="M1087.84,312.5388 C1087.84,333.1988 1087.84,363.6588 1087.84,390.2188 C1087.84,390.2188 1087.84,390.2188 1087.84,604.7188 C1087.84,662.3788 899.8812,692.6248 817.3112,703.2248 " fill="none" id="Initializing-to-Stopped" style="stroke:#181818;stroke-width:1.0;"/><polygon fill="#181818" points="811.36,703.9888,820.7961,706.8102,816.3193,703.3521,819.7774,698.8753,811.36,703.9888" style="stroke:#181818;stroke-width:1.0;"/><text fill="#000000" font-family="sans-serif" font-size="13" lengthAdjust="spacing" textLength="103" x="1088.84" y="502.2139">Power Off or Error</text></g><!--link Calibrating to Stopped--><g id="link_Calibrating_Stopped"><path d="M968.59,416.5488 C969.78,470.1488 969.87,596.3888 945.84,630.2188 C914.38,674.5188 857.3844,692.9673 817.2744,701.3073 " fill="none" id="Calibrating-to-Stopped" style="stroke:#181818;stroke-width:1.0;"/><polygon fill="#181818" points="811.4,702.5288,821.0258,704.6128,816.2953,701.5109,819.3972,696.7803,811.4,702.5288" style="stroke:#181818;stroke-width:1.0;"/><text fill="#000000" font-family="sans-serif" font-size="13" lengthAdjust="spacing" textLength="103" x="965.84" y="555.7139">Power Off or Error</text></g><!--link LineFollowing to Stopped--><g id="link_LineFollowing_Stopped"><path d="M564.39,498.1488 C642.34,500.0388 772.96,508.1988 805.84,541.2188 C845.32,580.8688 843.42,615.0188 820.84,666.2188 C817.96,672.7488 817.6607,674.3761 812.6407,679.6161 " fill="none" id="LineFollowing-to-Stopped" style="stroke:#181818;stroke-width:1.0;"/><polygon fill="#181818" points="808.49,683.9488,817.6045,680.217,811.9489,680.3382,811.8277,674.6827,808.49,683.9488" style="stroke:#181818;stroke-width:1.0;"/><text fill="#000000" font-family="sans-serif" font-size="13" lengthAdjust="spacing" textLength="103" x="837.84" y="609.2139">Power Off or Error</text></g><!--link ObstacleHandling to Stopped--><g id="link_ObstacleHandling_Stopped"><path d="M223.42,630.3388 C250.24,643.2887 284.56,657.9788 316.84,666.2188 C469.83,705.2988 653.75,709.0817 732.26,708.7817 " fill="none" id="ObstacleHandling-to-Stopped" style="stroke:#181818;stroke-width:1.0;"/><polygon fill="#181818" points="738.26,708.7588,729.2448,704.7932,733.26,708.7779,729.2754,712.7931,738.26,708.7588" style="stroke:#181818;stroke-width:1.0;"/><text fill="#000000" font-family="sans-serif" font-size="13" lengthAdjust="spacing" textLength="103" x="317.84" y="662.7139">Power Off or Error</text></g><!--link ZoneAction to Stopped--><g id="link_ZoneAction_Stopped"><path d="M419.86,630.4588 C422.24,643.1188 427.28,657.4988 437.84,666.2188 C482.97,703.4788 654.73,708.1902 732.3,708.4302 " fill="none" id="ZoneAction-to-Stopped" style="stroke:#181818;stroke-width:1.0;"/><polygon fill="#181818" points="738.3,708.4488,729.3124,704.4209,733.3,708.4333,729.2877,712.4209,738.3,708.4488" style="stroke:#181818;stroke-width:1.0;"/><text fill="#000000" font-family="sans-serif" font-size="13" lengthAdjust="spacing" textLength="103" x="438.84" y="662.7139">Power Off or Error</text></g><!--link LineLost to Stopped--><g id="link_LineLost_Stopped"><path d="M678,630.5188 C689.12,641.9088 702.74,655.1788 715.84,666.2188 C723.05,672.2887 726.2333,674.9095 734.0133,680.5195 " fill="none" id="LineLost-to-Stopped-1" style="stroke:#181818;stroke-width:1.0;"/><polygon fill="#181818" points="738.88,684.0288,733.9195,675.5203,734.8244,681.1043,729.2404,682.0093,738.88,684.0288" style="stroke:#181818;stroke-width:1.0;"/><text fill="#000000" font-family="sans-serif" font-size="13" lengthAdjust="spacing" textLength="103" x="716.84" y="662.7139">Power Off or Error</text></g><!--link Stopped to *end*SysMLFrame--><g id="link_Stopped_*end*SysMLFrame"><path d="M774.84,734.2588 C774.84,746.8088 774.84,755.4988 774.84,765.0688 " fill="none" id="Stopped-to-*end*SysMLFrame" style="stroke:#181818;stroke-width:1.0;"/><polygon fill="#181818" points="774.84,771.0688,778.84,762.0688,774.84,766.0688,770.84,762.0688,774.84,771.0688" style="stroke:#181818;stroke-width:1.0;"/></g><!--SRC=[ZPHDRzf048Rl_XMZN99MGRtdK2a1abQ2909EHHmMUu1LrplEUfoMLltldTsr3I6hqgDtdlUTJs3D1c6YBS8z6KC_qC6CriGmW3ahHfYgVEV38wssJfLmjTx3hNdL7xACgG8c49gfX48xp5cJpR8wA2zgBc5vPoZ_lWefkWmnmV8ET-fLauk9wXMqpXUWQfZlw-daNX8Y_CuoWEN75Gm6d-5h8VNUm7EezCdwK7WACQjPAwD_QRiLHcmT-_Zni-U6yh5sYYFcmp2aiZB8AFXnrDE7oYFVnyd2Y2pw4awPiMMtXq_jJ4Fu7UMzdzOogjpW5sKB4wNT4uoad9onI0g_IUBRC6sH-0_fmCWe_odoBnEgMIHXuu-oXLuWYaGrNIDpsVKrB1fdKrngJC-ATp0qg5mqVrDnPxjmUhkLHKx68uZ1jsJAE7GxmxeYM-DXSMt7RNzztP8_tq4uCggEcPHrcCeC1of_QRJhfzZptgF2GiY5Bf4QziPJPHjbehy8ukstf7-uX0UdSjmq1l2ddDh6oOz5sNqaZ-_tOD-UzsRZ4uoT8vUwupFywI6VmT_Vonb1yWpEQ4vs-nyb9OQVO0NkufwLVulipry0]--></g></svg>