<?xml version="1.0" encoding="us-ascii" standalone="no"?><svg xmlns="http://www.w3.org/2000/svg" xmlns:xlink="http://www.w3.org/1999/xlink" contentStyleType="text/css" height="1125px" preserveAspectRatio="none" style="width:1506px;height:1125px;background:#FFFFFF;" version="1.1" viewBox="0 0 1506 1125" width="1506px" zoomAndPan="magnify"><defs/><g><text fill="#000000" font-family="sans-serif" font-size="14" font-weight="bold" lengthAdjust="spacing" textLength="375" x="555.5" y="24.5332">Line Follower Robot - State Machine Diagram (by Alvi)</text><path d="M19.5,45.6094 L1480.5,45.6094 A12.5,12.5 0 0 1 1493,58.1094 L1493,73.2188 L7,73.2188 L7,58.1094 A12.5,12.5 0 0 1 19.5,45.6094 " fill="#F1F1F1" style="stroke:#F1F1F1;stroke-width:1.0;"/><rect fill="none" height="1074.1094" rx="12.5" ry="12.5" style="stroke:#181818;stroke-width:0.5;" width="1486" x="7" y="45.6094"/><line style="stroke:#181818;stroke-width:0.5;" x1="7" x2="1493" y1="73.2188" y2="73.2188"/><text fill="#000000" font-family="sans-serif" font-size="14" lengthAdjust="spacing" textLength="347" x="576.5" y="65.1426">stm [Block] LineFollowerRobot [Behavior States] by Alvi</text><!--cluster ObstacleHandling--><g id="cluster_ObstacleHandling"><path d="M943.5,583.2188 L1372.5,583.2188 A12.5,12.5 0 0 1 1385,595.7188 L1385,605.8281 L931,605.8281 L931,595.7188 A12.5,12.5 0 0 1 943.5,583.2188 " fill="#F1F1F1" style="stroke:#F1F1F1;stroke-width:1.0;"/><rect fill="none" height="526.5" rx="12.5" ry="12.5" style="stroke:#181818;stroke-width:0.5;" width="454" x="931" y="583.2188"/><line style="stroke:#181818;stroke-width:0.5;" x1="931" x2="1385" y1="605.8281" y2="605.8281"/><text fill="#000000" font-family="sans-serif" font-size="14" lengthAdjust="spacing" textLength="111" x="1102.5" y="601.752">ObstacleHandling</text></g><ellipse cx="1158" cy="637.2188" fill="#222222" rx="10" ry="10" style="stroke:#222222;stroke-width:1.0;"/><g id="SysMLFrame.ObstacleHandling.EvaluateSides"><rect fill="#F1F1F1" height="50" rx="12.5" ry="12.5" style="stroke:#181818;stroke-width:0.5;" width="110" x="1122" y="717.7188"/><line style="stroke:#181818;stroke-width:0.5;" x1="1122" x2="1232" y1="745.3281" y2="745.3281"/><text fill="#000000" font-family="sans-serif" font-size="14" lengthAdjust="spacing" textLength="90" x="1132" y="737.252">EvaluateSides</text></g><g id="SysMLFrame.ObstacleHandling.DecidePath"><rect fill="#F1F1F1" height="50" rx="12.5" ry="12.5" style="stroke:#181818;stroke-width:0.5;" width="93" x="1130.5" y="821.7188"/><line style="stroke:#181818;stroke-width:0.5;" x1="1130.5" x2="1223.5" y1="849.3281" y2="849.3281"/><text fill="#000000" font-family="sans-serif" font-size="14" lengthAdjust="spacing" textLength="73" x="1140.5" y="841.252">DecidePath</text></g><g id="SysMLFrame.ObstacleHandling.BypassObstacle"><rect fill="#F1F1F1" height="52.7031" rx="12.5" ry="12.5" style="stroke:#181818;stroke-width:0.5;" width="244" x="963" y="925.7188"/><line style="stroke:#181818;stroke-width:0.5;" x1="963" x2="1207" y1="953.3281" y2="953.3281"/><text fill="#000000" font-family="sans-serif" font-size="14" lengthAdjust="spacing" textLength="102" x="1034" y="945.252">BypassObstacle</text><text fill="#000000" font-family="sans-serif" font-size="12" lengthAdjust="spacing" textLength="224" x="968" y="970.7852">Entry / Leave Line, Move Around Obstacle</text></g><g id="SysMLFrame.ObstacleHandling.WaitForClearPath"><rect fill="#F1F1F1" height="52.7031" rx="12.5" ry="12.5" style="stroke:#181818;stroke-width:0.5;" width="135" x="1225.5" y="925.7188"/><line style="stroke:#181818;stroke-width:0.5;" x1="1225.5" x2="1360.5" y1="953.3281" y2="953.3281"/><text fill="#000000" font-family="sans-serif" font-size="14" lengthAdjust="spacing" textLength="113" x="1236.5" y="945.252">WaitForClearPath</text><text fill="#000000" font-family="sans-serif" font-size="12" lengthAdjust="spacing" textLength="115" x="1230.5" y="970.7852">Entry / Wait and Retry</text></g><g id="SysMLFrame.ObstacleHandling.FindLineAgain"><rect fill="#F1F1F1" height="52.7031" rx="12.5" ry="12.5" style="stroke:#181818;stroke-width:0.5;" width="139" x="1169.5" y="1032.7188"/><line style="stroke:#181818;stroke-width:0.5;" x1="1169.5" x2="1308.5" y1="1060.3281" y2="1060.3281"/><text fill="#000000" font-family="sans-serif" font-size="14" lengthAdjust="spacing" textLength="91" x="1193.5" y="1052.252">FindLineAgain</text><text fill="#000000" font-family="sans-serif" font-size="12" lengthAdjust="spacing" textLength="119" x="1174.5" y="1077.7852">Entry / Search for Line</text></g><ellipse cx="44" cy="94.2188" fill="#222222" rx="10" ry="10" style="stroke:#222222;stroke-width:1.0;"/><g id="SysMLFrame.Idle"><rect fill="#F1F1F1" height="50" rx="12.5" ry="12.5" style="stroke:#181818;stroke-width:0.5;" width="50" x="19" y="158.2188"/><line style="stroke:#181818;stroke-width:0.5;" x1="19" x2="69" y1="185.8281" y2="185.8281"/><text fill="#000000" font-family="sans-serif" font-size="14" lengthAdjust="spacing" textLength="22" x="33" y="177.752">Idle</text></g><g id="SysMLFrame.Initializing"><rect fill="#F1F1F1" height="50" rx="12.5" ry="12.5" style="stroke:#181818;stroke-width:0.5;" width="80" x="108" y="262.2188"/><line style="stroke:#181818;stroke-width:0.5;" x1="108" x2="188" y1="289.8281" y2="289.8281"/><text fill="#000000" font-family="sans-serif" font-size="14" lengthAdjust="spacing" textLength="60" x="118" y="281.752">Initializing</text></g><g id="SysMLFrame.Calibrating"><rect fill="#F1F1F1" height="50" rx="12.5" ry="12.5" style="stroke:#181818;stroke-width:0.5;" width="88" x="237" y="366.2188"/><line style="stroke:#181818;stroke-width:0.5;" x1="237" x2="325" y1="393.8281" y2="393.8281"/><text fill="#000000" font-family="sans-serif" font-size="14" lengthAdjust="spacing" textLength="68" x="247" y="385.752">Calibrating</text></g><g id="SysMLFrame.LineFollowing"><rect fill="#F1F1F1" height="52.7031" rx="12.5" ry="12.5" style="stroke:#181818;stroke-width:0.5;" width="119" x="604.5" y="470.2188"/><line style="stroke:#181818;stroke-width:0.5;" x1="604.5" x2="723.5" y1="497.8281" y2="497.8281"/><text fill="#000000" font-family="sans-serif" font-size="14" lengthAdjust="spacing" textLength="86" x="621" y="489.752">LineFollowing</text><text fill="#000000" font-family="sans-serif" font-size="12" lengthAdjust="spacing" textLength="99" x="609.5" y="515.2852">Entry / Follow Line</text></g><g id="SysMLFrame.ZoneAction"><rect fill="#F1F1F1" height="52.7031" rx="12.5" ry="12.5" style="stroke:#181818;stroke-width:0.5;" width="158" x="505" y="610.7188"/><line style="stroke:#181818;stroke-width:0.5;" x1="505" x2="663" y1="638.3281" y2="638.3281"/><text fill="#000000" font-family="sans-serif" font-size="14" lengthAdjust="spacing" textLength="71" x="548.5" y="630.252">ZoneAction</text><text fill="#000000" font-family="sans-serif" font-size="12" lengthAdjust="spacing" textLength="138" x="510" y="655.7852">Entry / Trigger LED Action</text></g><g id="SysMLFrame.LineLost"><rect fill="#F1F1F1" height="52.7031" rx="12.5" ry="12.5" style="stroke:#181818;stroke-width:0.5;" width="139" x="681.5" y="610.7188"/><line style="stroke:#181818;stroke-width:0.5;" x1="681.5" x2="820.5" y1="638.3281" y2="638.3281"/><text fill="#000000" font-family="sans-serif" font-size="14" lengthAdjust="spacing" textLength="54" x="724" y="630.252">LineLost</text><text fill="#000000" font-family="sans-serif" font-size="12" lengthAdjust="spacing" textLength="119" x="686.5" y="655.7852">Entry / Search for Line</text></g><g id="SysMLFrame.Stopped"><rect fill="#F1F1F1" height="50" rx="12.5" ry="12.5" style="stroke:#181818;stroke-width:0.5;" width="73" x="361.5" y="717.7188"/><line style="stroke:#181818;stroke-width:0.5;" x1="361.5" x2="434.5" y1="745.3281" y2="745.3281"/><text fill="#000000" font-family="sans-serif" font-size="14" lengthAdjust="spacing" textLength="53" x="371.5" y="737.252">Stopped</text></g><ellipse cx="398" cy="846.7188" fill="none" rx="11" ry="11" style="stroke:#222222;stroke-width:1.0;"/><ellipse cx="398" cy="846.7188" fill="#222222" rx="6" ry="6" style="stroke:#222222;stroke-width:1.0;"/><!--link *start*SysMLFrame to Idle--><g id="link_*start*SysMLFrame_Idle"><path d="M44,104.5287 C44,117.1588 44,134.1588 44,151.8687 " fill="none" id="*start*SysMLFrame-to-Idle" style="stroke:#181818;stroke-width:1.0;"/><polygon fill="#181818" points="44,157.8687,48,148.8687,44,152.8687,40,148.8687,44,157.8687" style="stroke:#181818;stroke-width:1.0;"/><text fill="#000000" font-family="sans-serif" font-size="13" lengthAdjust="spacing" textLength="57" x="45" y="136.7139">Power On</text></g><!--link Idle to Initializing--><g id="link_Idle_Initializing"><path d="M68.65,208.3887 C85.1,224.5287 102.386,241.4879 118.886,257.6679 " fill="none" id="Idle-to-Initializing" style="stroke:#181818;stroke-width:1.0;"/><polygon fill="#181818" points="123.17,261.8688,119.5446,252.7114,119.6,258.368,113.9434,258.4234,123.17,261.8688" style="stroke:#181818;stroke-width:1.0;"/><text fill="#000000" font-family="sans-serif" font-size="13" lengthAdjust="spacing" textLength="28" x="104" y="240.7139">Start</text></g><!--link Initializing to Calibrating--><g id="link_Initializing_Calibrating"><path d="M179.52,312.3887 C200.57,328.5287 223.3887,346.0377 244.4887,362.2177 " fill="none" id="Initializing-to-Calibrating" style="stroke:#181818;stroke-width:1.0;"/><polygon fill="#181818" points="249.25,365.8688,244.5421,357.218,245.2823,362.8262,239.674,363.5663,249.25,365.8688" style="stroke:#181818;stroke-width:1.0;"/><text fill="#000000" font-family="sans-serif" font-size="13" lengthAdjust="spacing" textLength="76" x="224" y="344.7139">Init Complete</text></g><!--link Calibrating to LineFollowing--><g id="link_Calibrating_LineFollowing"><path d="M325.31,404.1888 C394.23,422.8188 521.3977,457.1837 598.6377,478.0537 " fill="none" id="Calibrating-to-LineFollowing" style="stroke:#181818;stroke-width:1.0;"/><polygon fill="#181818" points="604.43,479.6188,596.7849,473.4096,599.6031,478.3145,594.6982,481.1327,604.43,479.6188" style="stroke:#181818;stroke-width:1.0;"/><text fill="#000000" font-family="sans-serif" font-size="13" lengthAdjust="spacing" textLength="95" x="497" y="448.7139">Calibration Done</text></g><!--link LineFollowing to ObstacleHandling--><g id="link_LineFollowing_ObstacleHandling"><path d="M723.67,497.8787 C799.73,499.5087 924.89,507.4188 954,541.2188 C959.22,547.2788 955.43,551.3488 954,559.2188 C953.32,562.9588 952,563.5588 951,567.2188 C950.0113,570.8563 949.0859,574.6245 948.2232,578.4386 C948.0075,579.3921 947.7957,580.3485 947.5879,581.3064 C947.4839,581.7854 947.381,582.2647 947.279,582.7442 C947.2535,582.8641 948.4703,577.114 948.4449,577.2339 " fill="none" id="LineFollowing-to-ObstacleHandling" style="stroke:#181818;stroke-width:1.0;"/><polygon fill="#181818" points="947.2027,583.104,952.9793,575.1271,948.2378,578.2123,945.1526,573.4708,947.2027,583.104" style="stroke:#181818;stroke-width:1.0;"/><text fill="#000000" font-family="sans-serif" font-size="13" lengthAdjust="spacing" textLength="108" x="957" y="555.7139">Obstacle Detected</text></g><!--link LineFollowing to ZoneAction--><g id="link_LineFollowing_ZoneAction"><path d="M604.45,500.6487 C543.92,505.0287 456.13,515.6988 435,541.2188 C400.29,583.1388 464.51,556.3288 491,567.2188 C515.54,577.3088 534.9629,591.4126 552.4129,606.5126 " fill="none" id="LineFollowing-to-ZoneAction" style="stroke:#181818;stroke-width:1.0;"/><polygon fill="#181818" points="556.95,610.4388,552.7617,601.5248,553.1691,607.167,547.5269,607.5743,556.95,610.4388" style="stroke:#181818;stroke-width:1.0;"/><text fill="#000000" font-family="sans-serif" font-size="13" lengthAdjust="spacing" textLength="118" x="436" y="555.7139">Zone Color Detected</text></g><!--link LineFollowing to LineLost--><g id="link_LineFollowing_LineLost"><path d="M711.82,523.3788 C718.34,528.5588 724.37,534.5188 729,541.2188 C743.14,561.6988 747.7663,584.0025 749.5863,604.3825 " fill="none" id="LineFollowing-to-LineLost" style="stroke:#181818;stroke-width:1.0;"/><polygon fill="#181818" points="750.12,610.3588,753.3036,601.0386,749.6753,605.3786,745.3353,601.7502,750.12,610.3588" style="stroke:#181818;stroke-width:1.0;"/><text fill="#000000" font-family="sans-serif" font-size="13" lengthAdjust="spacing" textLength="104" x="739" y="555.7139">Line Not Detected</text></g><!--link ZoneAction to LineFollowing--><g id="link_ZoneAction_LineFollowing"><path d="M574.74,610.4688 C569.14,590.1688 565.28,561.9088 578,541.2188 C584.31,530.9588 588.6832,526.0449 599.1732,519.9449 " fill="none" id="ZoneAction-to-LineFollowing" style="stroke:#181818;stroke-width:1.0;"/><polygon fill="#181818" points="604.36,516.9288,594.569,517.9951,600.0377,519.4422,598.5906,524.9108,604.36,516.9288" style="stroke:#181818;stroke-width:1.0;"/><text fill="#000000" font-family="sans-serif" font-size="13" lengthAdjust="spacing" textLength="149" x="579" y="555.7139">Zone Response Complete</text></g><!--link LineLost to LineFollowing--><g id="link_LineLost_LineFollowing"><path d="M806.69,610.5388 C838.42,592.3388 868.18,566.7288 848,541.2188 C832.62,521.7788 777.3186,510.9226 729.6586,504.6426 " fill="none" id="LineLost-to-LineFollowing" style="stroke:#181818;stroke-width:1.0;"/><polygon fill="#181818" points="723.71,503.8588,732.1103,509.0002,728.6672,504.5119,733.1554,501.0688,723.71,503.8588" style="stroke:#181818;stroke-width:1.0;"/><text fill="#000000" font-family="sans-serif" font-size="13" lengthAdjust="spacing" textLength="93" x="856" y="555.7139">Line Reacquired</text></g><!--link LineLost to Stopped--><g id="link_LineLost_Stopped"><path d="M681.4,661.4088 C678.23,662.2288 675.09,663.0088 672,663.7188 C616.01,676.5888 596.87,659.2488 544,681.7188 C532.05,686.7987 532.41,693.5387 521,699.7188 C493.52,714.6088 465.5492,724.0659 440.3592,731.0959 " fill="none" id="LineLost-to-Stopped" style="stroke:#181818;stroke-width:1.0;"/><polygon fill="#181818" points="434.58,732.7088,444.324,734.1423,439.396,731.3647,442.1735,726.4367,434.58,732.7088" style="stroke:#181818;stroke-width:1.0;"/><text fill="#000000" font-family="sans-serif" font-size="13" lengthAdjust="spacing" textLength="138" x="545" y="696.2139">Timeout or Manual Stop</text></g><!--link *start*ObstacleHandling to EvaluateSides--><g id="link_*start*ObstacleHandling_EvaluateSides"><path d="M1159.69,647.3988 C1162.56,663.0387 1167.3977,689.3972 1171.5077,711.8072 " fill="none" id="*start*ObstacleHandling-to-EvaluateSides" style="stroke:#181818;stroke-width:1.0;"/><polygon fill="#181818" points="1172.59,717.7088,1174.9009,708.1348,1171.688,712.7908,1167.0321,709.578,1172.59,717.7088" style="stroke:#181818;stroke-width:1.0;"/><text fill="#000000" font-family="sans-serif" font-size="13" lengthAdjust="spacing" textLength="201" x="1170" y="696.2139">Entry / Stop and Scan Left &amp; Right</text></g><!--link EvaluateSides to DecidePath--><g id="link_EvaluateSides_DecidePath"><path d="M1177,767.8888 C1177,784.0288 1177,799.1888 1177,815.3688 " fill="none" id="EvaluateSides-to-DecidePath" style="stroke:#181818;stroke-width:1.0;"/><polygon fill="#181818" points="1177,821.3688,1181,812.3688,1177,816.3688,1173,812.3688,1177,821.3688" style="stroke:#181818;stroke-width:1.0;"/><text fill="#000000" font-family="sans-serif" font-size="13" lengthAdjust="spacing" textLength="89" x="1178" y="800.2139">Scan Complete</text></g><!--link DecidePath to BypassObstacle--><g id="link_DecidePath_BypassObstacle"><path d="M1130.46,853.3588 C1107.62,858.7388 1082.06,869.2388 1068,889.7188 C1060.73,900.3088 1061.091,908.4613 1066.331,920.1813 " fill="none" id="DecidePath-to-BypassObstacle" style="stroke:#181818;stroke-width:1.0;"/><polygon fill="#181818" points="1068.78,925.6588,1068.7582,915.8099,1066.7392,921.0942,1061.4549,919.0752,1068.78,925.6588" style="stroke:#181818;stroke-width:1.0;"/><text fill="#000000" font-family="sans-serif" font-size="13" lengthAdjust="spacing" textLength="136" x="1069" y="904.2139">If Left/Right Path Found</text></g><!--link DecidePath to WaitForClearPath--><g id="link_DecidePath_WaitForClearPath"><path d="M1195.44,871.8087 C1204.85,883.3188 1216.85,896.9088 1229,907.7188 C1236.03,913.9688 1239.0966,916.5909 1246.9666,922.1409 " fill="none" id="DecidePath-to-WaitForClearPath" style="stroke:#181818;stroke-width:1.0;"/><polygon fill="#181818" points="1251.87,925.5988,1246.8202,917.143,1247.7839,922.7172,1242.2097,923.6808,1251.87,925.5988" style="stroke:#181818;stroke-width:1.0;"/><text fill="#000000" font-family="sans-serif" font-size="13" lengthAdjust="spacing" textLength="57" x="1230" y="904.2139">If No Path</text></g><!--link BypassObstacle to FindLineAgain--><g id="link_BypassObstacle_FindLineAgain"><path d="M1122.67,978.9088 C1146.63,995.2388 1172.563,1012.9182 1196.493,1029.2382 " fill="none" id="BypassObstacle-to-FindLineAgain" style="stroke:#181818;stroke-width:1.0;"/><polygon fill="#181818" points="1201.45,1032.6188,1196.2683,1024.2432,1197.3192,1029.8016,1191.7608,1030.8525,1201.45,1032.6188" style="stroke:#181818;stroke-width:1.0;"/><text fill="#000000" font-family="sans-serif" font-size="13" lengthAdjust="spacing" textLength="100" x="1172" y="1011.2139">Obstacle Passed</text></g><!--link FindLineAgain to LineFollowing--><g id="link_FindLineAgain_LineFollowing"><path d="M1308.73,1038.4288 C1347.9,1022.5888 1389,995.8188 1389,953.2188 C1389,636.2188 1389,636.2188 1389,636.2188 C1389,537.1288 1272.32,594.2688 1177,567.2188 C1129.92,553.8588 1118.21,549.6188 1070,541.2188 C947.79,519.9188 808.9242,507.8442 729.4942,502.0642 " fill="none" id="FindLineAgain-to-LineFollowing" style="stroke:#181818;stroke-width:1.0;"/><polygon fill="#181818" points="723.51,501.6287,732.196,506.2714,728.4968,501.9916,732.7766,498.2925,723.51,501.6287" style="stroke:#181818;stroke-width:1.0;"/><text fill="#000000" font-family="sans-serif" font-size="13" lengthAdjust="spacing" textLength="93" x="1390" y="800.2139">Line Reacquired</text></g><!--link WaitForClearPath to EvaluateSides--><g id="link_WaitForClearPath_EvaluateSides"><path d="M1297.1,925.5888 C1301.27,890.3088 1303.26,826.5288 1272,785.7188 C1262.02,772.6888 1252.6667,765.9306 1237.6267,759.6506 " fill="none" id="WaitForClearPath-to-EvaluateSides" style="stroke:#181818;stroke-width:1.0;"/><polygon fill="#181818" points="1232.09,757.3388,1238.8538,764.4977,1236.7039,759.2653,1241.9363,757.1154,1232.09,757.3388" style="stroke:#181818;stroke-width:1.0;"/><text fill="#000000" font-family="sans-serif" font-size="13" lengthAdjust="spacing" textLength="65" x="1299" y="852.2139">Retry Scan</text></g><!--link Idle to Stopped--><g id="link_Idle_Stopped"><path d="M38.04,208.3687 C33.49,228.9388 28,259.3288 28,286.2188 C28,286.2188 28,286.2188 28,638.2188 C28,706.9188 261.5977,731.6185 355.1877,738.8185 " fill="none" id="Idle-to-Stopped" style="stroke:#181818;stroke-width:1.0;"/><polygon fill="#181818" points="361.17,739.2788,352.5033,734.6002,356.1847,738.8952,351.8897,742.5766,361.17,739.2788" style="stroke:#181818;stroke-width:1.0;"/><text fill="#000000" font-family="sans-serif" font-size="13" lengthAdjust="spacing" textLength="103" x="29" y="448.7139">Power Off or Error</text></g><!--link Initializing to Stopped--><g id="link_Initializing_Stopped"><path d="M148,312.5388 C148,333.1988 148,363.6588 148,390.2188 C148,390.2188 148,390.2188 148,638.2188 C148,729.4688 285.9403,741.7717 355.3803,742.4317 " fill="none" id="Initializing-to-Stopped" style="stroke:#181818;stroke-width:1.0;"/><polygon fill="#181818" points="361.38,742.4888,352.4184,738.4034,356.3802,742.4412,352.3424,746.403,361.38,742.4888" style="stroke:#181818;stroke-width:1.0;"/><text fill="#000000" font-family="sans-serif" font-size="13" lengthAdjust="spacing" textLength="103" x="149" y="502.2139">Power Off or Error</text></g><!--link Calibrating to Stopped--><g id="link_Calibrating_Stopped"><path d="M278.12,416.3388 C275.02,449.3688 272.3,510.1688 287,559.2188 C305.74,621.7388 347.4284,679.8763 373.9884,713.0263 " fill="none" id="Calibrating-to-Stopped" style="stroke:#181818;stroke-width:1.0;"/><polygon fill="#181818" points="377.74,717.7088,375.2342,708.184,374.6137,713.8067,368.9909,713.1861,377.74,717.7088" style="stroke:#181818;stroke-width:1.0;"/><text fill="#000000" font-family="sans-serif" font-size="13" lengthAdjust="spacing" textLength="103" x="288" y="555.7139">Power Off or Error</text></g><!--link LineFollowing to Stopped--><g id="link_LineFollowing_Stopped"><path d="M604.37,499.5888 C553.45,503.1988 479.4,513.3288 421,541.2188 C405.08,548.8188 398.33,551.1688 391,567.2188 C368.39,616.7288 379.3547,676.8093 388.8647,711.7593 " fill="none" id="LineFollowing-to-Stopped" style="stroke:#181818;stroke-width:1.0;"/><polygon fill="#181818" points="390.44,717.5487,391.9367,707.8143,389.1272,712.7242,384.2173,709.9147,390.44,717.5487" style="stroke:#181818;stroke-width:1.0;"/><text fill="#000000" font-family="sans-serif" font-size="13" lengthAdjust="spacing" textLength="103" x="392" y="642.7139">Power Off or Error</text></g><!--link ObstacleHandling to Stopped--><g id="link_ObstacleHandling_Stopped"><path d="M930.9047,641.8427 C930.824,641.879 930.7427,641.9156 930.6609,641.9523 C930.0067,642.2467 929.3187,642.5564 928.5989,642.8809 C922.8403,645.4769 915.0406,649.015 906.1013,653.1263 C888.2225,661.3488 865.785,671.8638 846,681.7188 C830.7,689.3388 828.36,694.7688 812,699.7188 C741.73,720.9988 528.0708,734.6262 440.5308,739.4862 " fill="none" id="ObstacleHandling-to-Stopped" style="stroke:#181818;stroke-width:1.0;"/><polygon fill="#181818" points="434.54,739.8188,443.7479,743.3137,439.5323,739.5416,443.3044,735.326,434.54,739.8188" style="stroke:#181818;stroke-width:1.0;"/><text fill="#000000" font-family="sans-serif" font-size="13" lengthAdjust="spacing" textLength="103" x="847" y="696.2139">Power Off or Error</text></g><!--link ZoneAction to Stopped--><g id="link_ZoneAction_Stopped"><path d="M504.9,660.0888 C500.2,661.3388 495.54,662.5487 491,663.7188 C457.8,672.2488 440.91,658.1688 416,681.7188 C406.2,690.9888 402.6572,699.4305 400.5972,711.7805 " fill="none" id="ZoneAction-to-Stopped" style="stroke:#181818;stroke-width:1.0;"/><polygon fill="#181818" points="399.61,717.6988,405.0362,709.4795,400.4326,712.7669,397.1453,708.1633,399.61,717.6988" style="stroke:#181818;stroke-width:1.0;"/><text fill="#000000" font-family="sans-serif" font-size="13" lengthAdjust="spacing" textLength="103" x="417" y="696.2139">Power Off or Error</text></g><!--link LineLost to Stopped--><g id="link_LineLost_Stopped"><path d="M724.55,663.8788 C708,679.6888 688.92,697.3788 684,699.7188 C640.5,720.4188 507.3509,733.2209 440.5109,738.5609 " fill="none" id="LineLost-to-Stopped-1" style="stroke:#181818;stroke-width:1.0;"/><polygon fill="#181818" points="434.53,739.0387,443.82,742.3093,439.5141,738.6406,443.1829,734.3347,434.53,739.0387" style="stroke:#181818;stroke-width:1.0;"/><text fill="#000000" font-family="sans-serif" font-size="13" lengthAdjust="spacing" textLength="103" x="706" y="696.2139">Power Off or Error</text></g><!--link Stopped to *end*SysMLFrame--><g id="link_Stopped_*end*SysMLFrame"><path d="M398,767.8888 C398,789.4488 398,813.9588 398,829.5988 " fill="none" id="Stopped-to-*end*SysMLFrame" style="stroke:#181818;stroke-width:1.0;"/><polygon fill="#181818" points="398,835.5988,402,826.5988,398,830.5988,394,826.5988,398,835.5988" style="stroke:#181818;stroke-width:1.0;"/></g><!--SRC=[ZLJRZjem47tFLupseJSLxNibAd5LAuLT15ILYdWmoH2i6flQXegkzjyxurm892sy9Jxdp8ndZiTBhn1YgH76HYdp6otCpDfuwC3S2uym4ScMuQ4KcHKxUBS-GKyTvVieycOFtW2nlTb1AYqcNXeTHIue7vpVmRAlJF9p5LAK6V84opvknL4QcoToAoWYFu1mC3-vIJocX0WlKGIm_B22JkSpV4sftaym3PK-QuR2KS2qz58e-KVgZ3WKrdh6wyVC6z3FsWgVqnY6WTdj5NeaUXrbzhdod5_XHiFGQEGIhZaZxUq97ekU1hZ1ujZFQsfLel2BqAdAfUKH3AcSn6FQAln1YNkXsoJX7xg1ebR-LyGdiN6U967YJpI5Ia2AYw3b5HPMPXdrEXuD8GSlcMqj2WNDqEsDTdZkRL5KKKAPO8x29blOKFMrFWLIM-nG-Gn5ykj0XaklwNCovHvJ8Yxa3it10yMT27qGAc1Sn5leThjySo4LKQkELrCWc6YvYniZUY7exCVHKQW3yUOoHLU_5JyEai0y4HfYt7Xu0pEPRNqKz9SwZZJ4XBwdmc_PkwogcHBgCBFxfxrmhYgTRBm9MHv33WYyiJdej4tyNKW_DdQWgFL5Gf8_cI3Bwsl4BoyMepZc6-CZJ0nzzYodgVhKfkQSOwbJLlKo8NNTvrDYvlw31kdV7hdctcEL86kvUvc5eJ2p6T91Exjjve4UHaQQrxF3lcbvHEl8UGihj9FyNXnlpDAakS-g_NNsRh7UDXjsxyXQOzlss0t-zIAxGM_kYnk2nikuGtErEEuegULbjt2hvrgmwB_aivPUQ_Jw5m00]--></g></svg>