<?xml version="1.0" encoding="us-ascii" standalone="no"?><svg xmlns="http://www.w3.org/2000/svg" xmlns:xlink="http://www.w3.org/1999/xlink" contentStyleType="text/css" height="399px" preserveAspectRatio="none" style="width:1364px;height:399px;background:#FFFFFF;" version="1.1" viewBox="0 0 1364 399" width="1364px" zoomAndPan="magnify"><defs/><g><text fill="#000000" font-family="sans-serif" font-size="14" font-weight="bold" lengthAdjust="spacing" textLength="331" x="509.5" y="24.5332">Line Follower Robot - Use Case Diagram by Alvi</text><!--cluster LineFollowerRobot [Use Cases] by Alvi--><g id="cluster_LineFollowerRobot [Use Cases] by Alvi"><path d="M8.5,44.6094 L280.5,44.6094 A3.75,3.75 0 0 1 283,47.1094 L290,68.2188 L1354.5,68.2188 A2.5,2.5 0 0 1 1357,70.7188 L1357,390.1094 A2.5,2.5 0 0 1 1354.5,392.6094 L8.5,392.6094 A2.5,2.5 0 0 1 6,390.1094 L6,47.1094 A2.5,2.5 0 0 1 8.5,44.6094 " fill="none" style="stroke:#000000;stroke-width:1.5;"/><line style="stroke:#000000;stroke-width:1.5;" x1="6" x2="290" y1="68.2188" y2="68.2188"/><text fill="#000000" font-family="sans-serif" font-size="14" font-weight="bold" lengthAdjust="spacing" textLength="271" x="10" y="61.1426">LineFollowerRobot [Use Cases] by Alvi</text></g><!--cluster Line Follower Robot--><g id="cluster_Line Follower Robot"><rect fill="#FFFFFF" height="238" rx="7.5" ry="7.5" style="stroke:#000000;stroke-width:1.0;" width="1195" x="138" y="88.6094"/><text fill="#000000" font-family="sans-serif" font-size="14" font-weight="bold" lengthAdjust="spacing" textLength="141" x="665" y="105.1426">Line Follower Robot</text></g><!--entity User--><g id="elem_User"><ellipse cx="56.5" cy="152.6094" fill="#FFFFFF" rx="8" ry="8" style="stroke:#000000;stroke-width:0.5;"/><path d="M56.5,160.6094 L56.5,187.6094 M43.5,168.6094 L69.5,168.6094 M56.5,187.6094 L43.5,202.6094 M56.5,187.6094 L69.5,202.6094 " fill="none" style="stroke:#000000;stroke-width:0.5;"/><text fill="#000000" font-family="sans-serif" font-size="12" lengthAdjust="spacing" textLength="27" x="43" y="216.5664">User</text></g><!--entity Environment--><g id="elem_Environment"><ellipse cx="56.5" cy="309.6094" fill="#FFFFFF" rx="8" ry="8" style="stroke:#000000;stroke-width:0.5;"/><path d="M56.5,317.6094 L56.5,344.6094 M43.5,325.6094 L69.5,325.6094 M56.5,344.6094 L43.5,359.6094 M56.5,344.6094 L69.5,359.6094 " fill="none" style="stroke:#000000;stroke-width:0.5;"/><text fill="#000000" font-family="sans-serif" font-size="12" lengthAdjust="spacing" textLength="69" x="22" y="373.5664">Environment</text></g><g id="elem_UC_Init"><ellipse cx="224.4969" cy="139.5088" fill="#FFFFFF" rx="62.4969" ry="14.8994" style="stroke:#000000;stroke-width:0.5;"/><text fill="#000000" font-family="sans-serif" font-size="12" lengthAdjust="spacing" textLength="80" x="184.4969" y="142.4189">Initialize Robot</text></g><g id="elem_UC_Follow"><ellipse cx="224.5929" cy="288.7943" fill="#FFFFFF" rx="56.0929" ry="13.6849" style="stroke:#000000;stroke-width:0.5;"/><text fill="#000000" font-family="sans-serif" font-size="12" lengthAdjust="spacing" textLength="63" x="191.3104" y="292.0632">Follow Line</text></g><g id="elem_UC_Detect"><ellipse cx="477.2425" cy="275.5579" fill="#FFFFFF" rx="65.2425" ry="15.4485" style="stroke:#000000;stroke-width:0.5;"/><text fill="#000000" font-family="sans-serif" font-size="12" lengthAdjust="spacing" textLength="87" x="433.7425" y="278.468">Detect Obstacle</text></g><g id="elem_UC_Identify"><ellipse cx="730.3585" cy="282.7811" fill="#FFFFFF" rx="71.3585" ry="16.6717" style="stroke:#000000;stroke-width:0.5;"/><text fill="#000000" font-family="sans-serif" font-size="12" lengthAdjust="spacing" textLength="102" x="679.3585" y="285.6912">Identify Zone Color</text></g><g id="elem_UC_Avoid"><ellipse cx="996.8843" cy="210.5862" fill="#FFFFFF" rx="62.8843" ry="14.9769" style="stroke:#000000;stroke-width:0.5;"/><text fill="#000000" font-family="sans-serif" font-size="12" lengthAdjust="spacing" textLength="81" x="956.3843" y="213.4964">Avoid Obstacle</text></g><g id="elem_UC_Process"><ellipse cx="997.1591" cy="142.6412" fill="#FFFFFF" rx="78.1591" ry="18.0318" style="stroke:#000000;stroke-width:0.5;"/><text fill="#000000" font-family="sans-serif" font-size="12" lengthAdjust="spacing" textLength="118" x="938.1591" y="145.5513">Process Sensor Data</text></g><g id="elem_UC_Control"><ellipse cx="1254.4969" cy="210.5088" fill="#FFFFFF" rx="62.4969" ry="14.8994" style="stroke:#000000;stroke-width:0.5;"/><text fill="#000000" font-family="sans-serif" font-size="12" lengthAdjust="spacing" textLength="80" x="1214.4969" y="213.4189">Control Motors</text></g><g id="elem_UC_Calibrate"><ellipse cx="224.5269" cy="223.6148" fill="#FFFFFF" rx="70.5269" ry="16.5054" style="stroke:#000000;stroke-width:0.5;"/><text fill="#000000" font-family="sans-serif" font-size="12" lengthAdjust="spacing" textLength="100" x="174.5269" y="226.5249">Calibrate Sensors</text></g><g id="elem_UC_Log"><ellipse cx="996.9686" cy="294.7031" fill="#FFFFFF" rx="68.4686" ry="16.0937" style="stroke:#000000;stroke-width:0.5;"/><text fill="#000000" font-family="sans-serif" font-size="12" lengthAdjust="spacing" textLength="95" x="949.4686" y="297.6132">Log Performance</text></g><!--link User to UC_Init--><g id="link_User_UC_Init"><path d="M70.25,178.3794 C93.56,172.4894 138.1934,161.1914 174.8634,151.9114 " fill="none" id="User-to-UC_Init" style="stroke:#000000;stroke-width:1.0;"/><polygon fill="#000000" points="180.68,150.4394,170.9737,148.7696,175.8328,151.666,172.9364,156.5251,180.68,150.4394" style="stroke:#000000;stroke-width:1.0;"/></g><!--link User to UC_Calibrate--><g id="link_User_UC_Calibrate"><path d="M70.25,184.8394 C92.57,190.4794 133.9733,200.9575 170.1333,210.1075 " fill="none" id="User-to-UC_Calibrate" style="stroke:#000000;stroke-width:1.0;"/><polygon fill="#000000" points="175.95,211.5794,168.2062,205.4938,171.1028,210.3528,166.2438,213.2494,175.95,211.5794" style="stroke:#000000;stroke-width:1.0;"/></g><!--link Environment to UC_Follow--><g id="link_Environment_UC_Follow"><path d="M91.12,321.2194 C103.13,315.5594 116.93,309.6994 130,305.6094 C144.33,301.1194 154.3713,298.7221 168.9913,296.1421 " fill="none" id="Environment-to-UC_Follow" style="stroke:#000000;stroke-width:1.0;"/><polygon fill="#000000" points="174.9,295.0994,165.3418,292.7243,169.9761,295.9683,166.7321,300.6026,174.9,295.0994" style="stroke:#000000;stroke-width:1.0;"/></g><!--link Environment to UC_Detect--><g id="link_Environment_UC_Detect"><path d="M91.13,337.5994 C137.33,335.8294 222.91,331.1794 295,319.6094 C343.69,311.7894 392.8196,299.2879 429.2596,289.1479 " fill="none" id="Environment-to-UC_Detect" style="stroke:#000000;stroke-width:1.0;"/><polygon fill="#000000" points="435.04,287.5394,425.2971,286.0985,430.223,288.8798,427.4418,293.8057,435.04,287.5394" style="stroke:#000000;stroke-width:1.0;"/></g><!--link Environment to UC_Identify--><g id="link_Environment_UC_Identify"><path d="M91.07,342.3794 C100.72,343.2994 111.27,344.1494 121,344.6094 C198.25,348.2494 217.86,350.0894 295,344.6094 C432.38,334.8594 586.4671,309.0446 668.6471,294.0746 " fill="none" id="Environment-to-UC_Identify" style="stroke:#000000;stroke-width:1.0;"/><polygon fill="#000000" points="674.55,292.9994,664.9789,290.677,669.6309,293.8954,666.4126,298.5475,674.55,292.9994" style="stroke:#000000;stroke-width:1.0;"/></g><!--link UC_Follow to UC_Process--><g id="link_UC_Follow_UC_Process"><path d="M256.23,277.4194 C275.79,270.4694 301.74,261.5694 325,254.6094 C471.86,210.6794 507.78,193.7094 659,168.6094 C747.57,153.9094 844.6449,147.7323 913.2549,144.9523 " fill="none" id="UC_Follow-to-UC_Process" style="stroke:#000000;stroke-width:1.0;"/><polygon fill="#000000" points="919.25,144.7094,910.0954,141.077,914.2541,144.9118,910.4193,149.0705,919.25,144.7094" style="stroke:#000000;stroke-width:1.0;"/><text fill="#000000" font-family="sans-serif" font-size="13" lengthAdjust="spacing" textLength="55" x="573" y="171.1045">&#171;include&#187;</text></g><!--link UC_Detect to UC_Process--><g id="link_UC_Detect_UC_Process"><path d="M522.16,264.2694 C617.46,239.7994 836.1784,183.6413 938.1584,157.4613 " fill="none" id="UC_Detect-to-UC_Process" style="stroke:#000000;stroke-width:1.0;"/><polygon fill="#000000" points="943.97,155.9694,934.2581,154.3329,939.127,157.2126,936.2473,162.0816,943.97,155.9694" style="stroke:#000000;stroke-width:1.0;"/><text fill="#000000" font-family="sans-serif" font-size="13" lengthAdjust="spacing" textLength="55" x="703" y="191.1045">&#171;include&#187;</text></g><!--link UC_Identify to UC_Process--><g id="link_UC_Identify_UC_Process"><path d="M781.84,270.9394 C814.83,261.4394 857.52,245.4694 889,220.6094 C907.29,206.1694 901.09,192.5194 919,177.6094 C928.82,169.4394 935.3894,165.2437 946.9994,160.0137 " fill="none" id="UC_Identify-to-UC_Process" style="stroke:#000000;stroke-width:1.0;"/><polygon fill="#000000" points="952.47,157.5494,942.6213,157.5989,947.9112,159.603,945.9071,164.8929,952.47,157.5494" style="stroke:#000000;stroke-width:1.0;"/><text fill="#000000" font-family="sans-serif" font-size="13" lengthAdjust="spacing" textLength="55" x="833" y="217.1045">&#171;include&#187;</text></g><!--link UC_Avoid to UC_Control--><g id="link_UC_Avoid_UC_Control"><path d="M1060.18,210.6094 C1100.21,210.6094 1146.02,210.6094 1185.93,210.6094 " fill="none" id="UC_Avoid-to-UC_Control" style="stroke:#000000;stroke-width:1.0;"/><polygon fill="#000000" points="1191.93,210.6094,1182.93,206.6094,1186.93,210.6094,1182.93,214.6094,1191.93,210.6094" style="stroke:#000000;stroke-width:1.0;"/><text fill="#000000" font-family="sans-serif" font-size="13" lengthAdjust="spacing" textLength="55" x="1106" y="207.1045">&#171;include&#187;</text></g><!--link UC_Follow to UC_Detect--><g id="link_UC_Follow_UC_Detect"><path d="M279.55,285.8094 C318.81,283.7694 366.068,281.3095 407.218,279.1795 " fill="none" id="UC_Follow-to-UC_Detect" style="stroke:#000000;stroke-width:1.0;"/><polygon fill="#000000" points="413.21,278.8694,404.0153,275.34,408.2167,279.1278,404.4288,283.3293,413.21,278.8694" style="stroke:#000000;stroke-width:1.0;"/><text fill="#000000" font-family="sans-serif" font-size="13" lengthAdjust="spacing" textLength="55" x="326" y="277.1045">&#171;include&#187;</text></g><!--link UC_Detect to UC_Identify--><g id="link_UC_Detect_UC_Identify"><path d="M541.79,277.3894 C577.59,278.3794 616.3223,279.4632 653.1423,280.4832 " fill="none" id="UC_Detect-to-UC_Identify" style="stroke:#000000;stroke-width:1.0;"/><polygon fill="#000000" points="659.14,280.6494,650.2542,276.4017,654.1419,280.5109,650.0327,284.3986,659.14,280.6494" style="stroke:#000000;stroke-width:1.0;"/><text fill="#000000" font-family="sans-serif" font-size="13" lengthAdjust="spacing" textLength="55" x="573" y="275.1045">&#171;include&#187;</text></g><!--link UC_Identify to UC_Avoid--><g id="link_UC_Identify_UC_Avoid"><path d="M797.12,288.7094 C825.89,289.4194 859.7,287.5394 889,278.6094 C893.74,277.1694 939.6853,247.4085 969.5353,227.9285 " fill="none" id="UC_Identify-to-UC_Avoid" style="stroke:#000000;stroke-width:1.0;"/><polygon fill="#000000" points="974.56,224.6494,964.8369,226.2182,970.3728,227.382,969.209,232.9178,974.56,224.6494" style="stroke:#000000;stroke-width:1.0;"/><text fill="#000000" font-family="sans-serif" font-size="13" lengthAdjust="spacing" textLength="55" x="833" y="275.1045">&#171;include&#187;</text></g><!--link UC_Calibrate to UC_Init--><g id="link_UC_Calibrate_UC_Init"><path d="M224.5,207.0094 C224.5,191.8094 224.5,175.4894 224.5,160.7594 " fill="none" id="UC_Calibrate-to-UC_Init" style="stroke:#000000;stroke-width:1.0;stroke-dasharray:7.0,7.0;"/><polygon fill="#000000" points="224.5,154.7594,220.5,163.7594,224.5,159.7594,228.5,163.7594,224.5,154.7594" style="stroke:#000000;stroke-width:1.0;"/><text fill="#000000" font-family="sans-serif" font-size="13" lengthAdjust="spacing" textLength="53" x="186" y="186.3545">&#171;extend&#187;</text></g><!--link UC_Log to UC_Avoid--><g id="link_UC_Log_UC_Avoid"><path d="M997,278.4094 C997,263.1594 997,246.4894 997,231.6294 " fill="none" id="UC_Log-to-UC_Avoid" style="stroke:#000000;stroke-width:1.0;stroke-dasharray:7.0,7.0;"/><polygon fill="#000000" points="997,225.6294,993,234.6294,997,230.6294,1001,234.6294,997,225.6294" style="stroke:#000000;stroke-width:1.0;"/><text fill="#000000" font-family="sans-serif" font-size="13" lengthAdjust="spacing" textLength="53" x="958.5" y="257.6045">&#171;extend&#187;</text></g><!--SRC=[bL9TQzim57tthxZu9KyfTB2NqGGSsw46vmCxsTQDCHHRSKGTgSXAkgpqlq-o9Dj9NC9UIdhkyJr7znn1H8aX9XJ3b9KbUyKS4hPX0eQmhZ3uIFu922eusiFc15vv98vJugq0mO2JOYSW9nndWZ3gE0D8JzKi7bRY9DVkCCenTrvGzemA3AwIiIfQvAVLg7xPxIwyEKxrJEWBKfg72cVAmvi3C96B2iuEDFTPoJXysn615SwurD7Of9GaYNcSizTpQCgeICbV3FUVdFUk1ig4fFslmeVhr3KGBKfZkkVJZsGI3N4gKxZ_hBOEO3GQWUUl5acgVZhQgollnbr0bGg9Mp2aHy8PtMCgwbddVxifVKfNuGmcY_Kyy9AdUcNhr-qfGfq7m026mo4iasYcFbkd8VXU6gOAbLERaXjH8WWgrLdCrygZ_rlXNPxMg8jdAHhgaW8if3LOR2g1ih8XQlXCDPTF9DiJ_63IVttJHjYCkdJlo4X-jRP6swT6SpzU1s40q_NSNqMBkHT7g-ZwnKlECbnLa69QoH02993TQ4PTjYzBmra9CoOJgopHeAru-7qLpfNu97pqlaOg_0jPNnvvmv70HhZTPGTTTimAM6A-PNoFQDOyMS8N9OCaZ3trslGnMkh6gOP9zN4JOnTerPnEs-pKHDepCHdsJ9h0Z2sJGvynAs0_jL5yWOS7GhFoaEFns6dKRjAQ6jqYwWBP4vX8prdNxeo96-OQ3pVTQHCNglfckZxz9skBSzT4Mc_1VmIckTPIVRcxK6dciZB_0000]--></g></svg>