<?xml version="1.0" encoding="us-ascii" standalone="no"?><svg xmlns="http://www.w3.org/2000/svg" xmlns:xlink="http://www.w3.org/1999/xlink" contentStyleType="text/css" height="823px" preserveAspectRatio="none" style="width:1456px;height:823px;background:#FFFFFF;" version="1.1" viewBox="0 0 1456 823" width="1456px" zoomAndPan="magnify"><defs/><g><text fill="#000000" font-family="sans-serif" font-size="14" font-weight="bold" lengthAdjust="spacing" textLength="324" x="559" y="24.5332">Line Follower Robot - Package Diagram by Alvi</text><!--cluster pkg [System] LineFollowerRobot [Package Structure]by Alvi--><g id="cluster_pkg [System] LineFollowerRobot [Package Structure]by Alvi"><path d="M8.5,44.6094 L346.5,44.6094 A3.75,3.75 0 0 1 349,47.1094 L356,65.7031 L1446.5,65.7031 A2.5,2.5 0 0 1 1449,68.2031 L1449,814.1094 A2.5,2.5 0 0 1 1446.5,816.6094 L8.5,816.6094 A2.5,2.5 0 0 1 6,814.1094 L6,47.1094 A2.5,2.5 0 0 1 8.5,44.6094 " fill="#FFFFFF" style="stroke:#000000;stroke-width:1.5;"/><line style="stroke:#000000;stroke-width:1.5;" x1="6" x2="356" y1="65.7031" y2="65.7031"/><text fill="#000000" font-family="sans-serif" font-size="12" font-weight="bold" lengthAdjust="spacing" textLength="337" x="10" y="59.0664">pkg [System] LineFollowerRobot [Package Structure]by Alvi</text></g><!--cluster Sensor Package--><g id="cluster_Sensor Package"><path d="M40.5,506.6094 L135.5,506.6094 A3.75,3.75 0 0 1 138,509.1094 L145,527.7031 L391.5,527.7031 A2.5,2.5 0 0 1 394,530.2031 L394,782.1094 A2.5,2.5 0 0 1 391.5,784.6094 L40.5,784.6094 A2.5,2.5 0 0 1 38,782.1094 L38,509.1094 A2.5,2.5 0 0 1 40.5,506.6094 " fill="#FFFFFF" style="stroke:#000000;stroke-width:1.5;"/><line style="stroke:#000000;stroke-width:1.5;" x1="38" x2="145" y1="527.7031" y2="527.7031"/><text fill="#000000" font-family="sans-serif" font-size="12" font-weight="bold" lengthAdjust="spacing" textLength="94" x="42" y="521.0664">Sensor Package</text><text fill="#006600" font-family="sans-serif" font-size="11" font-style="italic" lengthAdjust="spacing" textLength="40" x="200" y="541.1221">&#171;frame&#187;</text></g><!--cluster Control Package--><g id="cluster_Control Package"><path d="M436.5,287.6094 L531.5,287.6094 A3.75,3.75 0 0 1 534,290.1094 L541,308.7031 L1088.5,308.7031 A2.5,2.5 0 0 1 1091,311.2031 L1091,655.1094 A2.5,2.5 0 0 1 1088.5,657.6094 L436.5,657.6094 A2.5,2.5 0 0 1 434,655.1094 L434,290.1094 A2.5,2.5 0 0 1 436.5,287.6094 " fill="#FFFFFF" style="stroke:#000000;stroke-width:1.5;"/><line style="stroke:#000000;stroke-width:1.5;" x1="434" x2="541" y1="308.7031" y2="308.7031"/><text fill="#000000" font-family="sans-serif" font-size="12" font-weight="bold" lengthAdjust="spacing" textLength="94" x="438" y="302.0664">Control Package</text><text fill="#006600" font-family="sans-serif" font-size="11" font-style="italic" lengthAdjust="spacing" textLength="40" x="746.5" y="322.1221">&#171;frame&#187;</text></g><!--cluster Code Logic--><g id="cluster_Code Logic"><path d="M612.5,350.6094 L692.5,350.6094 A3.75,3.75 0 0 1 695,353.1094 L702,374.2188 L1056.5,374.2188 A2.5,2.5 0 0 1 1059,376.7188 L1059,623.1094 A2.5,2.5 0 0 1 1056.5,625.6094 L612.5,625.6094 A2.5,2.5 0 0 1 610,623.1094 L610,353.1094 A2.5,2.5 0 0 1 612.5,350.6094 " fill="#FFFFFF" style="stroke:#000000;stroke-width:1.5;"/><line style="stroke:#000000;stroke-width:1.5;" x1="610" x2="702" y1="374.2188" y2="374.2188"/><text fill="#000000" font-family="sans-serif" font-size="14" font-weight="bold" lengthAdjust="spacing" textLength="79" x="614" y="367.1426">Code Logic</text></g><!--cluster Actuator Package--><g id="cluster_Actuator Package"><path d="M1133.5,506.6094 L1236.5,506.6094 A3.75,3.75 0 0 1 1239,509.1094 L1246,527.7031 L1414.5,527.7031 A2.5,2.5 0 0 1 1417,530.2031 L1417,782.1094 A2.5,2.5 0 0 1 1414.5,784.6094 L1133.5,784.6094 A2.5,2.5 0 0 1 1131,782.1094 L1131,509.1094 A2.5,2.5 0 0 1 1133.5,506.6094 " fill="#FFFFFF" style="stroke:#000000;stroke-width:1.5;"/><line style="stroke:#000000;stroke-width:1.5;" x1="1131" x2="1246" y1="527.7031" y2="527.7031"/><text fill="#000000" font-family="sans-serif" font-size="12" font-weight="bold" lengthAdjust="spacing" textLength="102" x="1135" y="521.0664">Actuator Package</text><text fill="#006600" font-family="sans-serif" font-size="11" font-style="italic" lengthAdjust="spacing" textLength="40" x="1258" y="541.1221">&#171;frame&#187;</text></g><!--cluster Power Package--><g id="cluster_Power Package"><path d="M436.5,94.6094 L527.5,94.6094 A3.75,3.75 0 0 1 530,97.1094 L537,115.7031 L734.5,115.7031 A2.5,2.5 0 0 1 737,118.2031 L737,219.1094 A2.5,2.5 0 0 1 734.5,221.6094 L436.5,221.6094 A2.5,2.5 0 0 1 434,219.1094 L434,97.1094 A2.5,2.5 0 0 1 436.5,94.6094 " fill="#FFFFFF" style="stroke:#000000;stroke-width:1.5;"/><line style="stroke:#000000;stroke-width:1.5;" x1="434" x2="537" y1="115.7031" y2="115.7031"/><text fill="#000000" font-family="sans-serif" font-size="12" font-weight="bold" lengthAdjust="spacing" textLength="90" x="438" y="109.0664">Power Package</text><text fill="#006600" font-family="sans-serif" font-size="11" font-style="italic" lengthAdjust="spacing" textLength="40" x="569.5" y="129.1221">&#171;frame&#187;</text></g><!--entity IR_Sensor--><g id="elem_IR_Sensor"><rect fill="#F1F1F1" height="47.6094" rx="2.5" ry="2.5" style="stroke:#181818;stroke-width:0.5;" width="106" x="81" y="561.6094"/><rect fill="#F1F1F1" height="10" style="stroke:#181818;stroke-width:0.5;" width="15" x="167" y="566.6094"/><rect fill="#F1F1F1" height="2" style="stroke:#181818;stroke-width:0.5;" width="4" x="165" y="568.6094"/><rect fill="#F1F1F1" height="2" style="stroke:#181818;stroke-width:0.5;" width="4" x="165" y="572.6094"/><text fill="#000000" font-family="sans-serif" font-size="14" lengthAdjust="spacing" textLength="66" x="96" y="596.1426">IR_Sensor</text></g><!--entity UltrasonicSensor--><g id="elem_UltrasonicSensor"><rect fill="#F1F1F1" height="47.6094" rx="2.5" ry="2.5" style="stroke:#181818;stroke-width:0.5;" width="147" x="222.5" y="561.6094"/><rect fill="#F1F1F1" height="10" style="stroke:#181818;stroke-width:0.5;" width="15" x="349.5" y="566.6094"/><rect fill="#F1F1F1" height="2" style="stroke:#181818;stroke-width:0.5;" width="4" x="347.5" y="568.6094"/><rect fill="#F1F1F1" height="2" style="stroke:#181818;stroke-width:0.5;" width="4" x="347.5" y="572.6094"/><text fill="#000000" font-family="sans-serif" font-size="14" lengthAdjust="spacing" textLength="107" x="237.5" y="596.1426">UltrasonicSensor</text></g><!--entity TCS3200_ColorSensor--><g id="elem_TCS3200_ColorSensor"><rect fill="#F1F1F1" height="47.6094" rx="2.5" ry="2.5" style="stroke:#181818;stroke-width:0.5;" width="187" x="81.5" y="712.6094"/><rect fill="#F1F1F1" height="10" style="stroke:#181818;stroke-width:0.5;" width="15" x="248.5" y="717.6094"/><rect fill="#F1F1F1" height="2" style="stroke:#181818;stroke-width:0.5;" width="4" x="246.5" y="719.6094"/><rect fill="#F1F1F1" height="2" style="stroke:#181818;stroke-width:0.5;" width="4" x="246.5" y="723.6094"/><text fill="#000000" font-family="sans-serif" font-size="14" lengthAdjust="spacing" textLength="147" x="96.5" y="747.1426">TCS3200_ColorSensor</text></g><!--entity ArduinoUno--><g id="elem_ArduinoUno"><rect fill="#F1F1F1" height="47.6094" rx="2.5" ry="2.5" style="stroke:#181818;stroke-width:0.5;" width="114" x="477" y="386.6094"/><rect fill="#F1F1F1" height="10" style="stroke:#181818;stroke-width:0.5;" width="15" x="571" y="391.6094"/><rect fill="#F1F1F1" height="2" style="stroke:#181818;stroke-width:0.5;" width="4" x="569" y="393.6094"/><rect fill="#F1F1F1" height="2" style="stroke:#181818;stroke-width:0.5;" width="4" x="569" y="397.6094"/><text fill="#000000" font-family="sans-serif" font-size="14" lengthAdjust="spacing" textLength="74" x="492" y="421.1426">ArduinoUno</text></g><!--entity LineFollowingAlgorithm--><g id="elem_LineFollowingAlgorithm"><rect fill="#F1F1F1" height="47.6094" rx="2.5" ry="2.5" style="stroke:#181818;stroke-width:0.5;" width="185" x="626.5" y="386.6094"/><rect fill="#F1F1F1" height="10" style="stroke:#181818;stroke-width:0.5;" width="15" x="791.5" y="391.6094"/><rect fill="#F1F1F1" height="2" style="stroke:#181818;stroke-width:0.5;" width="4" x="789.5" y="393.6094"/><rect fill="#F1F1F1" height="2" style="stroke:#181818;stroke-width:0.5;" width="4" x="789.5" y="397.6094"/><text fill="#000000" font-family="sans-serif" font-size="14" lengthAdjust="spacing" textLength="145" x="641.5" y="421.1426">LineFollowingAlgorithm</text></g><!--entity ObstacleAvoidanceLogic--><g id="elem_ObstacleAvoidanceLogic"><rect fill="#F1F1F1" height="47.6094" rx="2.5" ry="2.5" style="stroke:#181818;stroke-width:0.5;" width="196" x="847" y="386.6094"/><rect fill="#F1F1F1" height="10" style="stroke:#181818;stroke-width:0.5;" width="15" x="1023" y="391.6094"/><rect fill="#F1F1F1" height="2" style="stroke:#181818;stroke-width:0.5;" width="4" x="1021" y="393.6094"/><rect fill="#F1F1F1" height="2" style="stroke:#181818;stroke-width:0.5;" width="4" x="1021" y="397.6094"/><text fill="#000000" font-family="sans-serif" font-size="14" lengthAdjust="spacing" textLength="156" x="862" y="421.1426">ObstacleAvoidanceLogic</text></g><!--entity ColorDetectionLogic--><g id="elem_ColorDetectionLogic"><rect fill="#F1F1F1" height="47.6094" rx="2.5" ry="2.5" style="stroke:#181818;stroke-width:0.5;" width="168" x="635" y="561.6094"/><rect fill="#F1F1F1" height="10" style="stroke:#181818;stroke-width:0.5;" width="15" x="783" y="566.6094"/><rect fill="#F1F1F1" height="2" style="stroke:#181818;stroke-width:0.5;" width="4" x="781" y="568.6094"/><rect fill="#F1F1F1" height="2" style="stroke:#181818;stroke-width:0.5;" width="4" x="781" y="572.6094"/><text fill="#000000" font-family="sans-serif" font-size="14" lengthAdjust="spacing" textLength="128" x="650" y="596.1426">ColorDetectionLogic</text></g><!--entity DC_Motor--><g id="elem_DC_Motor"><rect fill="#F1F1F1" height="47.6094" rx="2.5" ry="2.5" style="stroke:#181818;stroke-width:0.5;" width="104" x="1174" y="561.6094"/><rect fill="#F1F1F1" height="10" style="stroke:#181818;stroke-width:0.5;" width="15" x="1258" y="566.6094"/><rect fill="#F1F1F1" height="2" style="stroke:#181818;stroke-width:0.5;" width="4" x="1256" y="568.6094"/><rect fill="#F1F1F1" height="2" style="stroke:#181818;stroke-width:0.5;" width="4" x="1256" y="572.6094"/><text fill="#000000" font-family="sans-serif" font-size="14" lengthAdjust="spacing" textLength="64" x="1189" y="596.1426">DC_Motor</text></g><!--entity Wheel--><g id="elem_Wheel"><rect fill="#F1F1F1" height="47.6094" rx="2.5" ry="2.5" style="stroke:#181818;stroke-width:0.5;" width="80" x="1313" y="561.6094"/><rect fill="#F1F1F1" height="10" style="stroke:#181818;stroke-width:0.5;" width="15" x="1373" y="566.6094"/><rect fill="#F1F1F1" height="2" style="stroke:#181818;stroke-width:0.5;" width="4" x="1371" y="568.6094"/><rect fill="#F1F1F1" height="2" style="stroke:#181818;stroke-width:0.5;" width="4" x="1371" y="572.6094"/><text fill="#000000" font-family="sans-serif" font-size="14" lengthAdjust="spacing" textLength="40" x="1328" y="596.1426">Wheel</text></g><!--entity Caster--><g id="elem_Caster"><rect fill="#F1F1F1" height="47.6094" rx="2.5" ry="2.5" style="stroke:#181818;stroke-width:0.5;" width="82" x="1185" y="712.6094"/><rect fill="#F1F1F1" height="10" style="stroke:#181818;stroke-width:0.5;" width="15" x="1247" y="717.6094"/><rect fill="#F1F1F1" height="2" style="stroke:#181818;stroke-width:0.5;" width="4" x="1245" y="719.6094"/><rect fill="#F1F1F1" height="2" style="stroke:#181818;stroke-width:0.5;" width="4" x="1245" y="723.6094"/><text fill="#000000" font-family="sans-serif" font-size="14" lengthAdjust="spacing" textLength="42" x="1200" y="747.1426">Caster</text></g><!--entity Battery--><g id="elem_Battery"><rect fill="#F1F1F1" height="47.6094" rx="2.5" ry="2.5" style="stroke:#181818;stroke-width:0.5;" width="85" x="627.5" y="149.6094"/><rect fill="#F1F1F1" height="10" style="stroke:#181818;stroke-width:0.5;" width="15" x="692.5" y="154.6094"/><rect fill="#F1F1F1" height="2" style="stroke:#181818;stroke-width:0.5;" width="4" x="690.5" y="156.6094"/><rect fill="#F1F1F1" height="2" style="stroke:#181818;stroke-width:0.5;" width="4" x="690.5" y="160.6094"/><text fill="#000000" font-family="sans-serif" font-size="14" lengthAdjust="spacing" textLength="45" x="642.5" y="184.1426">Battery</text></g><!--entity Breadboard--><g id="elem_Breadboard"><rect fill="#F1F1F1" height="47.6094" rx="2.5" ry="2.5" style="stroke:#181818;stroke-width:0.5;" width="115" x="477.5" y="149.6094"/><rect fill="#F1F1F1" height="10" style="stroke:#181818;stroke-width:0.5;" width="15" x="572.5" y="154.6094"/><rect fill="#F1F1F1" height="2" style="stroke:#181818;stroke-width:0.5;" width="4" x="570.5" y="156.6094"/><rect fill="#F1F1F1" height="2" style="stroke:#181818;stroke-width:0.5;" width="4" x="570.5" y="160.6094"/><text fill="#000000" font-family="sans-serif" font-size="14" lengthAdjust="spacing" textLength="75" x="492.5" y="184.1426">Breadboard</text></g><!--link Control Package to Sensor Package--><g id="link_Control Package_Sensor Package"><path d="M433.9144,415.0248 C433.3933,415.2416 432.8487,415.4676 432.2811,415.7025 C431.146,416.1723 429.919,416.6779 428.6041,417.2167 C425.9743,418.2944 422.9932,419.505 419.693,420.8286 C406.4922,426.1228 388.1869,433.2238 366.8488,440.8481 C324.1725,456.0969 269.365,473.4394 219,482.6094 C202.14,485.6794 77.98,479.4194 65,490.6094 C61.0288,494.0344 57.7472,498.0397 55.0457,502.4306 C54.3703,503.5284 53.7312,504.6502 53.1266,505.7931 C53.0511,505.936 55.7403,500.7539 55.6658,500.8974 " fill="none" id="Control Package-to-Sensor Package" style="stroke:#181818;stroke-width:1.0;stroke-dasharray:7.0,7.0;"/><polygon fill="#181818" points="52.9015,506.2227,60.5981,500.0776,55.2051,501.7849,53.4977,496.3919,52.9015,506.2227" style="stroke:#181818;stroke-width:1.0;"/><text fill="#000000" font-family="sans-serif" font-size="13" lengthAdjust="spacing" textLength="28" x="288" y="479.1045">uses</text></g><!--link Control Package to Actuator Package--><g id="link_Control Package_Actuator Package"><path d="M1091.1198,515.0448 C1091.2714,515.1977 1091.4228,515.3507 1091.5739,515.5041 C1101.2428,525.3163 1109.6531,536.0856 1116.5963,546.1419 C1120.0678,551.17 1123.1726,556.0198 1125.8845,560.4826 C1127.2404,562.714 1128.4981,564.8486 1129.6544,566.8604 C1129.9435,567.3633 1130.2262,567.8586 1130.5025,568.3457 C1130.6407,568.5893 1127.8316,563.6037 1127.9665,563.8432 " fill="none" id="Control Package-to-Actuator Package" style="stroke:#181818;stroke-width:1.0;stroke-dasharray:7.0,7.0;"/><polygon fill="#181818" points="1130.9122,569.0704,1129.9785,559.2659,1128.4575,564.7144,1123.009,563.1934,1130.9122,569.0704" style="stroke:#181818;stroke-width:1.0;"/><text fill="#000000" font-family="sans-serif" font-size="13" lengthAdjust="spacing" textLength="46" x="1032" y="479.1045">controls</text></g><!--link Power Package to Control Package--><g id="link_Power Package_Control Package"><path d="M442,222.4755 C442,223.2142 442,223.9585 442,224.7084 C442,226.2083 442,227.7302 442,229.2726 C442,235.4423 442,241.9395 442,248.6571 C442,255.3748 442,262.313 442,269.3649 C442,272.8908 442,276.4451 442,280.0145 C442,281.7992 442,283.5876 442,285.3782 C442,285.8258 442,286.2736 442,286.7214 C442,286.9454 442,287.1693 442,287.3933 C442,287.4493 442,281.5053 442,281.5613 " fill="none" id="Power Package-to-Control Package" style="stroke:#181818;stroke-width:1.0;stroke-dasharray:7.0,7.0;"/><polygon fill="#181818" points="442,287.5613,446,278.5613,442,282.5613,438,278.5613,442,287.5613" style="stroke:#181818;stroke-width:1.0;"/><text fill="#000000" font-family="sans-serif" font-size="13" lengthAdjust="spacing" textLength="41" x="443" y="260.1045">powers</text></g><!--link Power Package to Sensor Package--><g id="link_Power Package_Sensor Package"><path d="M433.7533,178.7394 C433.5558,178.8405 433.355,178.9433 433.1508,179.048 C432.7425,179.2573 432.321,179.4739 431.8865,179.6977 C431.0175,180.1453 430.0964,180.6218 429.1248,181.1269 C421.3523,185.1678 410.3487,191.0402 396.913,198.6142 C370.0416,213.7622 333.4419,235.7163 293.5063,263.4356 C213.635,318.8744 120.42,397.3744 65,490.6094 C62.3625,495.0456 60.0852,499.7859 58.1194,504.6916 C57.8737,505.3048 59.7736,500.3155 59.5375,500.9336 " fill="none" id="Power Package-to-Sensor Package" style="stroke:#181818;stroke-width:1.0;stroke-dasharray:7.0,7.0;"/><polygon fill="#181818" points="57.3968,506.5387,64.3447,499.5582,59.1808,501.8678,56.8712,496.7039,57.3968,506.5387" style="stroke:#181818;stroke-width:1.0;"/><text fill="#000000" font-family="sans-serif" font-size="13" lengthAdjust="spacing" textLength="41" x="280" y="416.1045">powers</text></g><!--link Power Package to Actuator Package--><g id="link_Power Package_Actuator Package"><path d="M449.0206,221.6747 C449.0667,221.7755 449.1131,221.8762 449.1597,221.9768 C449.3463,222.379 449.5375,222.7788 449.7334,223.176 C450.1251,223.9703 450.5355,224.7539 450.9654,225.5249 C451.8253,227.067 452.7633,228.5585 453.7864,229.9836 C455.8325,232.8338 458.2188,235.4181 461,237.6094 C487.14,258.1994 1033.31,250.4594 1059,271.6094 C1113.565,316.5194 1133.7975,393.0444 1140.275,459.1844 C1141.8944,475.7194 1142.5629,485.606 1142.7844,500.1866 " fill="none" id="Power Package-to-Actuator Package" style="stroke:#181818;stroke-width:1.0;stroke-dasharray:7.0,7.0;"/><polygon fill="#181818" points="1142.8756,506.1859,1146.7384,497.1262,1142.7996,501.1865,1138.7393,497.2477,1142.8756,506.1859" style="stroke:#181818;stroke-width:1.0;"/><text fill="#000000" font-family="sans-serif" font-size="13" lengthAdjust="spacing" textLength="41" x="1137" y="416.1045">powers</text></g><!--SRC=[VLDDRzf04BtxLupeeISY9vLoG0693o55IjGeDEe18RJO4xDYsR5sXqIquhztlBOXs51ViEUzD_FcxSAQ3SAJjWXJCeO-qS4hhOYX2oygsQWCOQ9LvjGMLdiOcWyTHKmvC86mcBQGQeS9Qx9Hv3VQvghWvfNsRmGm8fUY6vCX1oCZG56JdypHpgPb_TiqF89CoV9C_q6ulPEl6QD3udsEHRtYnl7zVHotq59r6nsYw3lq-tsOxVtpKzVpNbQi3RsBEmIZLcWAJbJNE_acWxae6BUB44YTHnd7l4vZncwNyCxXeigZ8qkAbseaMYyMQt8n0OwpE-Te1nuUWft18EG4C7zyNPQSHVdzPjWfJrOdP-LVuzcFkpXUXZnEoE7aOonvE3978v-Qrr9CvQmfqmbewtNQyjTGNJ0uTEbEMtgpj8X2vPsC76uXhNjtAgwmJp5gcmrDHaviR1Sr_7FbMIK6Xn-aKsKJ3FeZ7BQR89UtwmjsEDzrACUX-7hgJVp2MfFnyfducE_lDQAftiTAhaGptfVmHxaoxmoyC6oaM3hkg_uZXofTaN9fOyQZ5LQtxkhGg286lzQvhoQsp-lcPj2-PJtOUVJN-UryUf2KpA1gx1CqhKuzo0lQLK7RrF_vbqnLYiC_]--></g></svg>