<?xml version="1.0" encoding="us-ascii" standalone="no"?><svg xmlns="http://www.w3.org/2000/svg" xmlns:xlink="http://www.w3.org/1999/xlink" contentStyleType="text/css" height="1400px" preserveAspectRatio="none" style="width:1014px;height:1400px;background:#FFFFFF;" version="1.1" viewBox="0 0 1014 1400" width="1014px" zoomAndPan="magnify"><defs/><g><text fill="#000000" font-family="sans-serif" font-size="14" font-weight="bold" lengthAdjust="spacing" textLength="521" x="239" y="24.5332">Line Follower Robot - Requirement Diagram (with State Machine Behavior)</text><!--cluster req [System] LineFollowerRobot [Requirements] by Alvi--><g id="cluster_req [System] LineFollowerRobot [Requirements] by Alvi"><path d="M13.5,44.6094 L392.5,44.6094 A11.25,11.25 0 0 1 400,52.1094 L407,68.2188 L998.5,68.2188 A7.5,7.5 0 0 1 1006,75.7188 L1006,1368.1094 A7.5,7.5 0 0 1 998.5,1375.6094 L13.5,1375.6094 A7.5,7.5 0 0 1 6,1368.1094 L6,52.1094 A7.5,7.5 0 0 1 13.5,44.6094 " fill="none" style="stroke:#000000;stroke-width:1.5;"/><line style="stroke:#000000;stroke-width:1.5;" x1="6" x2="407" y1="68.2188" y2="68.2188"/><text fill="#000000" font-family="sans-serif" font-size="14" font-weight="bold" lengthAdjust="spacing" textLength="388" x="10" y="61.1426">req [System] LineFollowerRobot [Requirements] by Alvi</text></g><!--cluster System Components--><g id="cluster_System Components"><path d="M37.5,355.6094 L171.5,355.6094 A11.25,11.25 0 0 1 179,363.1094 L186,379.2188 L230.5,379.2188 A7.5,7.5 0 0 1 238,386.7188 L238,1022.1094 A7.5,7.5 0 0 1 230.5,1029.6094 L37.5,1029.6094 A7.5,7.5 0 0 1 30,1022.1094 L30,363.1094 A7.5,7.5 0 0 1 37.5,355.6094 " fill="none" style="stroke:#000000;stroke-width:1.5;"/><line style="stroke:#000000;stroke-width:1.5;" x1="30" x2="186" y1="379.2188" y2="379.2188"/><text fill="#000000" font-family="sans-serif" font-size="14" font-weight="bold" lengthAdjust="spacing" textLength="143" x="34" y="372.1426">System Components</text></g><!--cluster Requirements--><g id="cluster_Requirements"><path d="M331.5,413.6094 L421.5,413.6094 A11.25,11.25 0 0 1 429,421.1094 L436,437.2188 L596.5,437.2188 A7.5,7.5 0 0 1 604,444.7188 L604,1192.1094 A7.5,7.5 0 0 1 596.5,1199.6094 L331.5,1199.6094 A7.5,7.5 0 0 1 324,1192.1094 L324,421.1094 A7.5,7.5 0 0 1 331.5,413.6094 " fill="none" style="stroke:#000000;stroke-width:1.5;"/><line style="stroke:#000000;stroke-width:1.5;" x1="324" x2="436" y1="437.2188" y2="437.2188"/><text fill="#000000" font-family="sans-serif" font-size="14" font-weight="bold" lengthAdjust="spacing" textLength="99" x="328" y="430.1426">Requirements</text></g><!--cluster Constraints--><g id="cluster_Constraints"><path d="M742.5,90.6094 L814.5,90.6094 A11.25,11.25 0 0 1 822,98.1094 L829,114.2188 L974.5,114.2188 A7.5,7.5 0 0 1 982,121.7188 L982,349.1094 A7.5,7.5 0 0 1 974.5,356.6094 L742.5,356.6094 A7.5,7.5 0 0 1 735,349.1094 L735,98.1094 A7.5,7.5 0 0 1 742.5,90.6094 " fill="none" style="stroke:#000000;stroke-width:1.5;"/><line style="stroke:#000000;stroke-width:1.5;" x1="735" x2="829" y1="114.2188" y2="114.2188"/><text fill="#000000" font-family="sans-serif" font-size="14" font-weight="bold" lengthAdjust="spacing" textLength="81" x="739" y="107.1426">Constraints</text></g><!--entity Arduino--><g id="elem_Arduino"><rect fill="#F1F1F1" height="37.6094" rx="7.5" ry="7.5" style="stroke:#181818;stroke-width:0.5;" width="98" x="85" y="975.6094"/><text fill="#000000" font-family="sans-serif" font-size="14" lengthAdjust="spacing" textLength="78" x="95" y="1000.1426">Arduino Uno</text></g><!--entity IRSensors--><g id="elem_IRSensors"><rect fill="#F1F1F1" height="37.6094" rx="7.5" ry="7.5" style="stroke:#181818;stroke-width:0.5;" width="117" x="75.5" y="902.6094"/><text fill="#000000" font-family="sans-serif" font-size="14" lengthAdjust="spacing" textLength="97" x="85.5" y="927.1426">IR Sensors (x2)</text></g><!--entity Ultrasonic--><g id="elem_Ultrasonic"><rect fill="#F1F1F1" height="37.6094" rx="7.5" ry="7.5" style="stroke:#181818;stroke-width:0.5;" width="131" x="68.5" y="829.6094"/><text fill="#000000" font-family="sans-serif" font-size="14" lengthAdjust="spacing" textLength="111" x="78.5" y="854.1426">Ultrasonic Sensor</text></g><!--entity Servo--><g id="elem_Servo"><rect fill="#F1F1F1" height="37.6094" rx="7.5" ry="7.5" style="stroke:#181818;stroke-width:0.5;" width="97" x="85.5" y="537.6094"/><text fill="#000000" font-family="sans-serif" font-size="14" lengthAdjust="spacing" textLength="77" x="95.5" y="562.1426">Servo Motor</text></g><!--entity DCMotors--><g id="elem_DCMotors"><rect fill="#F1F1F1" height="37.6094" rx="7.5" ry="7.5" style="stroke:#181818;stroke-width:0.5;" width="115" x="76.5" y="464.6094"/><text fill="#000000" font-family="sans-serif" font-size="14" lengthAdjust="spacing" textLength="95" x="86.5" y="489.1426">DC Motors (x2)</text></g><!--entity Wheels--><g id="elem_Wheels"><rect fill="#F1F1F1" height="37.6094" rx="7.5" ry="7.5" style="stroke:#181818;stroke-width:0.5;" width="150" x="59" y="756.6094"/><text fill="#000000" font-family="sans-serif" font-size="14" lengthAdjust="spacing" textLength="130" x="69" y="781.1426">Wheels (x2 + caster)</text></g><!--entity Battery--><g id="elem_Battery"><rect fill="#F1F1F1" height="37.6094" rx="7.5" ry="7.5" style="stroke:#181818;stroke-width:0.5;" width="102" x="83" y="391.6094"/><text fill="#000000" font-family="sans-serif" font-size="14" lengthAdjust="spacing" textLength="82" x="93" y="416.1426">Li-Po Battery</text></g><!--entity Button--><g id="elem_Button"><rect fill="#F1F1F1" height="37.6094" rx="7.5" ry="7.5" style="stroke:#181818;stroke-width:0.5;" width="97" x="85.5" y="610.6094"/><text fill="#000000" font-family="sans-serif" font-size="14" lengthAdjust="spacing" textLength="77" x="95.5" y="635.1426">Push Button</text></g><!--entity StateMachine--><g id="elem_StateMachine"><rect fill="#F1F1F1" height="37.6094" rx="7.5" ry="7.5" style="stroke:#181818;stroke-width:0.5;" width="176" x="46" y="683.6094"/><text fill="#000000" font-family="sans-serif" font-size="14" lengthAdjust="spacing" textLength="156" x="56" y="708.1426">State Machine Controller</text></g><g id="elem_R1"><ellipse cx="463.8436" cy="1158.533" fill="#F1F1F1" rx="88.8436" ry="24.4236" style="stroke:#181818;stroke-width:0.5;"/><text fill="#000000" font-family="sans-serif" font-size="14" font-style="italic" lengthAdjust="spacing" textLength="92" x="412.9655" y="1155.387">&#171;requirement&#187;</text><text fill="#000000" font-family="sans-serif" font-size="11" lengthAdjust="spacing" textLength="114" x="401.9655" y="1169.8822">REQ-001: Startup in Idle</text></g><g id="elem_R2"><ellipse cx="464.2311" cy="990.5556" fill="#F1F1F1" rx="110.2311" ry="24.4462" style="stroke:#181818;stroke-width:0.5;"/><text fill="#000000" font-family="sans-serif" font-size="14" font-style="italic" lengthAdjust="spacing" textLength="92" x="413.3294" y="985.789">&#171;requirement&#187;</text><text fill="#000000" font-family="sans-serif" font-size="11" lengthAdjust="spacing" textLength="159" x="379.8294" y="1000.2841">REQ-002: Line Following using IR</text></g><g id="elem_R3"><ellipse cx="464.2175" cy="823.549" fill="#F1F1F1" rx="104.2175" ry="23.9396" style="stroke:#181818;stroke-width:0.5;"/><text fill="#000000" font-family="sans-serif" font-size="14" font-style="italic" lengthAdjust="spacing" textLength="92" x="413.0909" y="819.5864">&#171;requirement&#187;</text><text fill="#000000" font-family="sans-serif" font-size="11" lengthAdjust="spacing" textLength="140" x="389.0909" y="834.0815">REQ-003: Obstacle Detection</text></g><g id="elem_R4"><ellipse cx="464.139" cy="562.8372" fill="#F1F1F1" rx="119.139" ry="26.2278" style="stroke:#181818;stroke-width:0.5;"/><text fill="#000000" font-family="sans-serif" font-size="14" font-style="italic" lengthAdjust="spacing" textLength="92" x="413.8126" y="556.0128">&#171;requirement&#187;</text><text fill="#000000" font-family="sans-serif" font-size="11" lengthAdjust="spacing" textLength="195" x="362.3126" y="570.5079">REQ-004: Direction Scanning with Servo</text></g><g id="elem_R5"><ellipse cx="463.9421" cy="738.6978" fill="#F1F1F1" rx="115.9421" ry="25.5884" style="stroke:#181818;stroke-width:0.5;"/><text fill="#000000" font-family="sans-serif" font-size="14" font-style="italic" lengthAdjust="spacing" textLength="92" x="413.4431" y="732.6024">&#171;requirement&#187;</text><text fill="#000000" font-family="sans-serif" font-size="11" lengthAdjust="spacing" textLength="183" x="367.9431" y="747.0976">REQ-005: Decision Making for Bypass</text></g><g id="elem_R6"><ellipse cx="464.2199" cy="475.8534" fill="#F1F1F1" rx="116.7199" ry="25.744" style="stroke:#181818;stroke-width:0.5;"/><text fill="#000000" font-family="sans-serif" font-size="14" font-style="italic" lengthAdjust="spacing" textLength="92" x="413.7656" y="469.5798">&#171;requirement&#187;</text><text fill="#000000" font-family="sans-serif" font-size="11" lengthAdjust="spacing" textLength="186" x="366.7656" y="484.0749">REQ-006: Right/Left Bypass Maneuver</text></g><g id="elem_R7"><ellipse cx="463.8206" cy="906.6056" fill="#F1F1F1" rx="101.8206" ry="23.9963" style="stroke:#181818;stroke-width:0.5;"/><text fill="#000000" font-family="sans-serif" font-size="14" font-style="italic" lengthAdjust="spacing" textLength="92" x="412.7335" y="902.7421">&#171;requirement&#187;</text><text fill="#000000" font-family="sans-serif" font-size="11" lengthAdjust="spacing" textLength="136" x="390.7335" y="917.2372">REQ-007: Line Reacquisition</text></g><g id="elem_R8"><ellipse cx="463.7575" cy="650.7609" fill="#F1F1F1" rx="123.7575" ry="27.1515" style="stroke:#181818;stroke-width:0.5;"/><text fill="#000000" font-family="sans-serif" font-size="14" font-style="italic" lengthAdjust="spacing" textLength="92" x="413.6387" y="642.8971">&#171;requirement&#187;</text><text fill="#000000" font-family="sans-serif" font-size="11" lengthAdjust="spacing" textLength="211" x="354.1387" y="657.3922">REQ-008: Shutdown on Button/Low Battery</text></g><g id="elem_R9"><ellipse cx="464.016" cy="1074.5126" fill="#F1F1F1" rx="107.516" ry="23.9032" style="stroke:#181818;stroke-width:0.5;"/><text fill="#000000" font-family="sans-serif" font-size="14" font-style="italic" lengthAdjust="spacing" textLength="92" x="412.8539" y="1070.3945">&#171;requirement&#187;</text><text fill="#000000" font-family="sans-serif" font-size="11" lengthAdjust="spacing" textLength="146" x="385.8539" y="1084.8896">REQ-009: State Machine Logic</text></g><g id="elem_C1"><ellipse cx="858.4266" cy="316.4394" fill="#F1F1F1" rx="92.4266" ry="23.83" style="stroke:#181818;stroke-width:0.5;"/><text fill="#000000" font-family="sans-serif" font-size="14" font-style="italic" lengthAdjust="spacing" textLength="78" x="814.5381" y="312.3999">&#171;constraint&#187;</text><text fill="#000000" font-family="sans-serif" font-size="11" lengthAdjust="spacing" textLength="123" x="792.0381" y="326.895">C1: 5V Logic for Sensors</text></g><g id="elem_C2"><ellipse cx="858.5961" cy="150.5286" fill="#F1F1F1" rx="107.5961" ry="23.9192" style="stroke:#181818;stroke-width:0.5;"/><text fill="#000000" font-family="sans-serif" font-size="14" font-style="italic" lengthAdjust="spacing" textLength="78" x="814.638" y="145.6558">&#171;constraint&#187;</text><text fill="#000000" font-family="sans-serif" font-size="11" lengthAdjust="spacing" textLength="153" x="777.138" y="160.151">C2: Battery Voltage 7.4V-11.1V</text></g><g id="elem_C3"><ellipse cx="858.7398" cy="233.6342" fill="#F1F1F1" rx="85.2398" ry="24.0248" style="stroke:#181818;stroke-width:0.5;"/><text fill="#000000" font-family="sans-serif" font-size="14" font-style="italic" lengthAdjust="spacing" textLength="78" x="814.9694" y="229.9439">&#171;constraint&#187;</text><text fill="#000000" font-family="sans-serif" font-size="11" lengthAdjust="spacing" textLength="111" x="798.4694" y="244.4391">C3: Motor Current &lt; 1A</text></g><!--link Arduino to R1--><g id="link_Arduino_R1"><path d="M158.47,1013.7594 C191.7,1040.0294 255.21,1087.2194 316,1115.6094 C340.69,1127.1394 363.3906,1134.7538 388.6706,1141.6338 " fill="none" id="Arduino-to-R1" style="stroke:#000000;stroke-width:1.0;stroke-dasharray:7.0,7.0;"/><polygon fill="#000000" points="394.46,1143.2094,386.8263,1136.9864,389.6355,1141.8964,384.7255,1144.7056,394.46,1143.2094" style="stroke:#000000;stroke-width:1.0;"/><text fill="#000000" font-family="sans-serif" font-size="13" lengthAdjust="spacing" textLength="52" x="255" y="1081.1045">&#171;satisfy&#187;</text></g><!--link Arduino to R9--><g id="link_Arduino_R9"><path d="M183.05,1006.3294 C237.67,1019.6494 321.6107,1040.1283 384.7407,1055.5183 " fill="none" id="Arduino-to-R9" style="stroke:#000000;stroke-width:1.0;stroke-dasharray:7.0,7.0;"/><polygon fill="#000000" points="390.57,1056.9394,382.7735,1050.9216,385.7123,1055.7551,380.8787,1058.6939,390.57,1056.9394" style="stroke:#000000;stroke-width:1.0;"/><text fill="#000000" font-family="sans-serif" font-size="13" lengthAdjust="spacing" textLength="52" x="255" y="1022.1045">&#171;satisfy&#187;</text></g><!--link IRSensors to R2--><g id="link_IRSensors_R2"><path d="M192.51,933.7094 C245.42,944.8394 318.5186,960.2138 377.4886,972.6238 " fill="none" id="IRSensors-to-R2" style="stroke:#000000;stroke-width:1.0;stroke-dasharray:7.0,7.0;"/><polygon fill="#000000" points="383.36,973.8594,375.3767,968.0917,378.4672,972.8297,373.7292,975.9202,383.36,973.8594" style="stroke:#000000;stroke-width:1.0;"/><text fill="#000000" font-family="sans-serif" font-size="13" lengthAdjust="spacing" textLength="52" x="255" y="945.1045">&#171;satisfy&#187;</text></g><!--link Ultrasonic to R3--><g id="link_Ultrasonic_R3"><path d="M199.8,843.6694 C246.94,840.0794 305.6173,835.6051 359.0473,831.5351 " fill="none" id="Ultrasonic-to-R3" style="stroke:#000000;stroke-width:1.0;stroke-dasharray:7.0,7.0;"/><polygon fill="#000000" points="365.03,831.0794,355.7522,827.7745,360.0444,831.4591,356.3598,835.7514,365.03,831.0794" style="stroke:#000000;stroke-width:1.0;"/><text fill="#000000" font-family="sans-serif" font-size="13" lengthAdjust="spacing" textLength="52" x="255" y="833.1045">&#171;satisfy&#187;</text></g><!--link Servo to R4--><g id="link_Servo_R4"><path d="M182.69,557.4794 C225.16,558.2594 283.061,559.3202 339.131,560.3402 " fill="none" id="Servo-to-R4" style="stroke:#000000;stroke-width:1.0;stroke-dasharray:7.0,7.0;"/><polygon fill="#000000" points="345.13,560.4494,336.2042,556.2863,340.1308,560.3584,336.0587,564.285,345.13,560.4494" style="stroke:#000000;stroke-width:1.0;"/><text fill="#000000" font-family="sans-serif" font-size="13" lengthAdjust="spacing" textLength="52" x="255" y="556.1045">&#171;satisfy&#187;</text></g><!--link StateMachine to R5--><g id="link_StateMachine_R5"><path d="M222.04,712.1594 C264.36,716.8094 309.5658,721.7646 353.8358,726.6246 " fill="none" id="StateMachine-to-R5" style="stroke:#000000;stroke-width:1.0;stroke-dasharray:7.0,7.0;"/><polygon fill="#000000" points="359.8,727.2794,351.2902,722.3211,354.8299,726.7337,350.4172,730.2734,359.8,727.2794" style="stroke:#000000;stroke-width:1.0;"/><text fill="#000000" font-family="sans-serif" font-size="13" lengthAdjust="spacing" textLength="52" x="255" y="713.1045">&#171;satisfy&#187;</text></g><!--link DCMotors to R6--><g id="link_DCMotors_R6"><path d="M191.76,482.2294 C234.66,481.1794 289.0118,479.8557 341.8918,478.5657 " fill="none" id="DCMotors-to-R6" style="stroke:#000000;stroke-width:1.0;stroke-dasharray:7.0,7.0;"/><polygon fill="#000000" points="347.89,478.4194,338.7951,474.6401,342.8915,478.5413,338.9902,482.6377,347.89,478.4194" style="stroke:#000000;stroke-width:1.0;"/><text fill="#000000" font-family="sans-serif" font-size="13" lengthAdjust="spacing" textLength="52" x="255" y="476.1045">&#171;satisfy&#187;</text></g><!--link IRSensors to R7--><g id="link_IRSensors_R7"><path d="M192.51,918.9794 C239.73,916.8194 301.6963,913.9834 357.6863,911.4234 " fill="none" id="IRSensors-to-R7" style="stroke:#000000;stroke-width:1.0;stroke-dasharray:7.0,7.0;"/><polygon fill="#000000" points="363.68,911.1494,354.5067,907.5646,358.6852,911.3777,354.8721,915.5563,363.68,911.1494" style="stroke:#000000;stroke-width:1.0;"/><text fill="#000000" font-family="sans-serif" font-size="13" lengthAdjust="spacing" textLength="52" x="255" y="911.1045">&#171;satisfy&#187;</text></g><!--link Button to R8--><g id="link_Button_R8"><path d="M182.69,632.6594 C225.07,635.3794 282.8022,639.0764 338.7822,642.6564 " fill="none" id="Button-to-R8" style="stroke:#000000;stroke-width:1.0;stroke-dasharray:7.0,7.0;"/><polygon fill="#000000" points="344.77,643.0394,336.0436,638.4731,339.7802,642.7203,335.5331,646.4568,344.77,643.0394" style="stroke:#000000;stroke-width:1.0;"/><text fill="#000000" font-family="sans-serif" font-size="13" lengthAdjust="spacing" textLength="52" x="255" y="635.1045">&#171;satisfy&#187;</text></g><!--link Battery to R8--><g id="link_Battery_R8"><path d="M185.02,408.2294 C224.86,409.3094 278.65,418.0394 308,453.6094 C329.53,479.6994 295.18,578.9494 316,605.6094 C326.93,619.5994 336.5517,627.0654 353.0217,633.8454 " fill="none" id="Battery-to-R8" style="stroke:#000000;stroke-width:1.0;stroke-dasharray:7.0,7.0;"/><polygon fill="#000000" points="358.57,636.1294,351.7702,629.0045,353.9464,634.226,348.7249,636.4022,358.57,636.1294" style="stroke:#000000;stroke-width:1.0;"/><text fill="#000000" font-family="sans-serif" font-size="13" lengthAdjust="spacing" textLength="52" x="255" y="417.1045">&#171;satisfy&#187;</text></g><!--link IRSensors to C1--><g id="link_IRSensors_C1"><path d="M192.57,927.3694 C212.43,932.3194 232.95,941.3294 246,957.6094 C257.86,972.4194 249.91,1024.0794 254,1042.6094 C271.78,1123.1894 248.61,1169.9894 316,1217.6094 C423.44,1293.5294 507.46,1297.4794 612,1217.6094 C759.51,1104.9094 838.8718,478.8298 854.1218,346.7598 " fill="none" id="IRSensors-to-C1" style="stroke:#000000;stroke-width:1.0;stroke-dasharray:7.0,7.0;"/><polygon fill="#000000" points="854.81,340.7994,849.804,349.2811,854.2365,345.7664,857.7512,350.1988,854.81,340.7994" style="stroke:#000000;stroke-width:1.0;"/><text fill="#000000" font-family="sans-serif" font-size="13" lengthAdjust="spacing" textLength="97" x="415.5" y="1214.1045">&#171;constrainedBy&#187;</text></g><!--link Ultrasonic to C1--><g id="link_Ultrasonic_C1"><path d="M199.58,840.9794 C217.39,835.6094 234.86,826.6094 246,811.6094 C255.21,799.2094 249.55,548.4094 254,533.6094 C269.05,483.5294 273.27,463.7494 316,433.6094 C335.19,420.0694 634.6021,360.2038 778.1221,332.0638 " fill="none" id="Ultrasonic-to-C1" style="stroke:#000000;stroke-width:1.0;stroke-dasharray:7.0,7.0;"/><polygon fill="#000000" points="784.01,330.9094,774.4085,328.7158,779.1034,331.8714,775.9478,336.5663,784.01,330.9094" style="stroke:#000000;stroke-width:1.0;"/><text fill="#000000" font-family="sans-serif" font-size="13" lengthAdjust="spacing" textLength="97" x="415.5" y="364.1045">&#171;constrainedBy&#187;</text></g><!--link Servo to C1--><g id="link_Servo_C1"><path d="M182.64,552.3594 C205.23,547.7994 230.58,538.4894 246,519.6094 C255.35,508.1694 249.58,467.7094 254,453.6094 C271.61,397.4594 266.15,367.8794 316,336.6094 C464.83,243.2594 678.8257,274.1451 786.8857,298.4051 " fill="none" id="Servo-to-C1" style="stroke:#000000;stroke-width:1.0;stroke-dasharray:7.0,7.0;"/><polygon fill="#000000" points="792.74,299.7194,784.8348,293.8451,787.8614,298.6241,783.0824,301.6508,792.74,299.7194" style="stroke:#000000;stroke-width:1.0;"/><text fill="#000000" font-family="sans-serif" font-size="13" lengthAdjust="spacing" textLength="97" x="415.5" y="271.1045">&#171;constrainedBy&#187;</text></g><!--link Arduino to C1--><g id="link_Arduino_C1"><path d="M139.28,1013.7894 C153.11,1070.5194 202.42,1237.6094 316,1302.6094 C474.96,1393.5694 627.49,1375.2494 719,1216.6094 C809.05,1060.4994 848.2052,474.5589 855.7652,346.9389 " fill="none" id="Arduino-to-C1" style="stroke:#000000;stroke-width:1.0;stroke-dasharray:7.0,7.0;"/><polygon fill="#000000" points="856.12,340.9494,851.5948,349.6971,855.8243,345.9406,859.5808,350.1702,856.12,340.9494" style="stroke:#000000;stroke-width:1.0;"/><text fill="#000000" font-family="sans-serif" font-size="13" lengthAdjust="spacing" textLength="97" x="415.5" y="1299.1045">&#171;constrainedBy&#187;</text></g><!--link Battery to C2--><g id="link_Battery_C2"><path d="M141.76,391.4094 C160.38,341.8494 217.65,209.9794 316,158.6094 C468.09,79.1694 672.6679,107.6503 780.9679,131.2803 " fill="none" id="Battery-to-C2" style="stroke:#000000;stroke-width:1.0;stroke-dasharray:7.0,7.0;"/><polygon fill="#000000" points="786.83,132.5594,778.8896,126.7327,781.9449,131.4935,777.1842,134.5489,786.83,132.5594" style="stroke:#000000;stroke-width:1.0;"/><text fill="#000000" font-family="sans-serif" font-size="13" lengthAdjust="spacing" textLength="97" x="415.5" y="104.1045">&#171;constrainedBy&#187;</text></g><!--link DCMotors to C3--><g id="link_DCMotors_C3"><path d="M191.52,477.0394 C211.5,471.8894 232.38,462.7594 246,446.6094 C261.08,428.7394 247.6,417.0994 254,394.6094 C273.29,326.7994 257.75,288.3294 316,248.6094 C464.22,147.5494 686.3913,187.2563 792.9713,214.8363 " fill="none" id="DCMotors-to-C3" style="stroke:#000000;stroke-width:1.0;stroke-dasharray:7.0,7.0;"/><polygon fill="#000000" points="798.78,216.3394,791.0691,210.2122,793.9394,215.0868,789.0649,217.9571,798.78,216.3394" style="stroke:#000000;stroke-width:1.0;"/><text fill="#000000" font-family="sans-serif" font-size="13" lengthAdjust="spacing" textLength="97" x="415.5" y="181.1045">&#171;constrainedBy&#187;</text></g><!--link R6 to C3--><g id="link_R6_C3"><path d="M524.62,453.7494 C552.65,441.8894 585.62,425.5594 612,405.6094 C673.8,358.8894 662.09,316.8994 727,274.6094 C745.61,262.4894 762.2762,255.4505 783.2462,249.2505 " fill="none" id="R6-to-C3" style="stroke:#000000;stroke-width:1.0;stroke-dasharray:7.0,7.0;"/><polygon fill="#000000" points="789,247.5494,779.2352,246.2653,784.2052,248.967,781.5034,253.937,789,247.5494" style="stroke:#000000;stroke-width:1.0;"/><text fill="#000000" font-family="sans-serif" font-size="13" lengthAdjust="spacing" textLength="97" x="621" y="279.1045">&#171;constrainedBy&#187;</text></g><!--SRC=[ZLLTR-8u57tFhxXY7tP6gtOQAFr0RQNWqjbe-UWaqDLgD0zkSC5gQZEsKvOPzR_lTHnAI60M7X2vzzmJ-zvp3uQRb46V2mPtCatbaYc8vACqS0GH-vvnnLwOC73BwKpH5_Ymv6OEiQ66mO0cSrlOPNFwogNww7afUp9W92W-cnkOOdLYk1IUfv-vM53ByDC329IIIo9JgQ2RqkGPGnFD4ghPdHGcvZyO-3u6IKgrtWx5XYacpMfHWfxKuexxjo1euGUpaSp4b4Wby7f-stlpl0M-biuOD1Jx3b_ZbJRivLlUY7KVN1k-bhgWly7Z2eBqbJVm6aZxErnVNmCP3Uv7mzvm7Dj73BzpEreWycKXXILevDS7i7sXOeQjRmHgcd4XOI9a0wY6uhaA2oE8cT1IQVZmR_DZ3WsZ8bG5JrAZg9Q29qLH3jz4g_YOgLS90saAPFvS1TqIXoWTu9QuI1NwzvonDCV17u1ZnTcu0fUemllyw5v2bnh4hN9SyRiAlC_q7BgPCL8uMFwpTfijTHAKWyAHik9gDbdaiF1jCyQxoP2Cmz4mw4FK-p89ezvWrqpBUbYFCtFYnMJloz79YT-nhr4cMm0N44vJbhywyk7gIctARsvs5JSxvNNaOeO0-nr6ZgHv24ch0wD7RMY2_RXbncsXgsyTKd_QmOqlbXVYX0fXZ-1stsh3KPqUGjL6AfPmRPa6zDdoFDczNormjnrF-n2Uimv4rbK-zQt7k78a52nxBKORdHt2SrxqDs8qGQZcczQS7r9_WSETPsOgbmBmIaw2d_fokINWwE8GhijEnKhxSiOJHt2vWw2ard6F_3aSzKUV_u4u68VnNP2B5_hXyA-rPjVMSdnyOyNNGKPD3TTFgvnjAtrPIx-xYmCqQu2Io-I8LWtXV2LFdjQJfKrqc7ODipOObp_xlpEUrm1kF2vxKS-wYUrEb_nz68-Z8DnX1cWk6fl0Tta1GHjeFxYHvf8lZfgFbrWlIDwhg_8Ww0Bhmpt8rDYNdH-VFXpv_h7_u1YQlsP02yXx1oHJolw5Nu4VkCfMlJ9NrdOtYLFCEv1DkpldlXUtcVvUI5c2Uq2LCP7c7gejgP3M7XHgw1VvD-y_]--></g></svg>