<?xml version="1.0" encoding="us-ascii" standalone="no"?><svg xmlns="http://www.w3.org/2000/svg" xmlns:xlink="http://www.w3.org/1999/xlink" contentStyleType="text/css" height="1366px" preserveAspectRatio="none" style="width:880px;height:1366px;background:#FFFFFF;" version="1.1" viewBox="0 0 880 1366" width="880px" zoomAndPan="magnify"><defs/><g><text fill="#000000" font-family="sans-serif" font-size="14" font-weight="bold" lengthAdjust="spacing" textLength="522" x="180.75" y="29.5332">Sequence Diagram - Line Follower Robot with Obstacle Avoidance - by Alvi</text><rect fill="#FFFFFF" height="1106.1641" style="stroke:#181818;stroke-width:1.0;" width="10" x="217.5" y="153.5703"/><rect fill="#FFFFFF" height="30.3516" style="stroke:#181818;stroke-width:1.0;" width="10" x="420.5" y="326.3281"/><rect fill="#FFFFFF" height="30.3516" style="stroke:#181818;stroke-width:1.0;" width="10" x="420.5" y="1037.9766"/><rect fill="#FFFFFF" height="30.3516" style="stroke:#181818;stroke-width:1.0;" width="10" x="549" y="387.0313"/><rect fill="#FFFFFF" height="30.3516" style="stroke:#181818;stroke-width:1.0;" width="10" x="667" y="652.9766"/><rect fill="#FFFFFF" height="30" style="stroke:#181818;stroke-width:1.0;" width="10" x="781" y="473.0859"/><rect fill="#FFFFFF" height="30" style="stroke:#181818;stroke-width:1.0;" width="10" x="781" y="592.625"/><rect fill="#FFFFFF" height="30" style="stroke:#181818;stroke-width:1.0;" width="10" x="781" y="825.7344"/><rect fill="#FFFFFF" height="30" style="stroke:#181818;stroke-width:1.0;" width="10" x="781" y="945.2734"/><rect fill="#FFFFFF" height="30" style="stroke:#181818;stroke-width:1.0;" width="10" x="781" y="1193.3828"/><rect fill="none" height="848.0547" style="stroke:#000000;stroke-width:1.5;" width="713.5" x="161" y="285.625"/><rect fill="none" height="694.2969" style="stroke:#000000;stroke-width:1.5;" width="693.5" x="171" y="432.3828"/><rect fill="none" height="241.5938" style="stroke:#000000;stroke-width:1.5;" width="673.5" x="181" y="741.6797"/><rect fill="none" height="79.0547" style="stroke:#000000;stroke-width:1.5;" width="310.5" x="181" y="997.2734"/><line style="stroke:#181818;stroke-width:0.5;stroke-dasharray:5.0,5.0;" x1="22" x2="22" y1="121.2188" y2="1284.7344"/><line style="stroke:#181818;stroke-width:0.5;stroke-dasharray:5.0,5.0;" x1="222" x2="222" y1="121.2188" y2="1284.7344"/><line style="stroke:#181818;stroke-width:0.5;stroke-dasharray:5.0,5.0;" x1="425.5" x2="425.5" y1="121.2188" y2="1284.7344"/><line style="stroke:#181818;stroke-width:0.5;stroke-dasharray:5.0,5.0;" x1="553.5" x2="553.5" y1="121.2188" y2="1284.7344"/><line style="stroke:#181818;stroke-width:0.5;stroke-dasharray:5.0,5.0;" x1="671.5" x2="671.5" y1="121.2188" y2="1284.7344"/><line style="stroke:#181818;stroke-width:0.5;stroke-dasharray:5.0,5.0;" x1="785.5" x2="785.5" y1="121.2188" y2="1284.7344"/><text fill="#000000" font-family="sans-serif" font-size="14" lengthAdjust="spacing" textLength="29" x="5" y="118.1426">User</text><ellipse cx="22.5" cy="52.1094" fill="#E2E2F0" rx="8" ry="8" style="stroke:#181818;stroke-width:0.5;"/><path d="M22.5,60.1094 L22.5,87.1094 M9.5,68.1094 L35.5,68.1094 M22.5,87.1094 L9.5,102.1094 M22.5,87.1094 L35.5,102.1094 " fill="none" style="stroke:#181818;stroke-width:0.5;"/><text fill="#000000" font-family="sans-serif" font-size="14" lengthAdjust="spacing" textLength="29" x="5" y="1298.2676">User</text><ellipse cx="22.5" cy="1309.8438" fill="#E2E2F0" rx="8" ry="8" style="stroke:#181818;stroke-width:0.5;"/><path d="M22.5,1317.8438 L22.5,1344.8438 M9.5,1325.8438 L35.5,1325.8438 M22.5,1344.8438 L9.5,1359.8438 M22.5,1344.8438 L35.5,1359.8438 " fill="none" style="stroke:#181818;stroke-width:0.5;"/><rect fill="#E2E2F0" height="31.6094" rx="2.5" ry="2.5" style="stroke:#181818;stroke-width:0.5;" width="63" x="191" y="88.6094"/><text fill="#000000" font-family="sans-serif" font-size="14" lengthAdjust="spacing" textLength="49" x="198" y="110.1426">Arduino</text><rect fill="#E2E2F0" height="31.6094" rx="2.5" ry="2.5" style="stroke:#181818;stroke-width:0.5;" width="63" x="191" y="1283.7344"/><text fill="#000000" font-family="sans-serif" font-size="14" lengthAdjust="spacing" textLength="49" x="198" y="1305.2676">Arduino</text><rect fill="#E2E2F0" height="31.6094" rx="2.5" ry="2.5" style="stroke:#181818;stroke-width:0.5;" width="112" x="369.5" y="88.6094"/><text fill="#000000" font-family="sans-serif" font-size="14" lengthAdjust="spacing" textLength="98" x="376.5" y="110.1426">IR Sensor (L/R)</text><rect fill="#E2E2F0" height="31.6094" rx="2.5" ry="2.5" style="stroke:#181818;stroke-width:0.5;" width="112" x="369.5" y="1283.7344"/><text fill="#000000" font-family="sans-serif" font-size="14" lengthAdjust="spacing" textLength="98" x="376.5" y="1305.2676">IR Sensor (L/R)</text><rect fill="#E2E2F0" height="31.6094" rx="2.5" ry="2.5" style="stroke:#181818;stroke-width:0.5;" width="125" x="491.5" y="88.6094"/><text fill="#000000" font-family="sans-serif" font-size="14" lengthAdjust="spacing" textLength="111" x="498.5" y="110.1426">Ultrasonic Sensor</text><rect fill="#E2E2F0" height="31.6094" rx="2.5" ry="2.5" style="stroke:#181818;stroke-width:0.5;" width="125" x="491.5" y="1283.7344"/><text fill="#000000" font-family="sans-serif" font-size="14" lengthAdjust="spacing" textLength="111" x="498.5" y="1305.2676">Ultrasonic Sensor</text><rect fill="#E2E2F0" height="31.6094" rx="2.5" ry="2.5" style="stroke:#181818;stroke-width:0.5;" width="91" x="626.5" y="88.6094"/><text fill="#000000" font-family="sans-serif" font-size="14" lengthAdjust="spacing" textLength="77" x="633.5" y="110.1426">Servo Motor</text><rect fill="#E2E2F0" height="31.6094" rx="2.5" ry="2.5" style="stroke:#181818;stroke-width:0.5;" width="91" x="626.5" y="1283.7344"/><text fill="#000000" font-family="sans-serif" font-size="14" lengthAdjust="spacing" textLength="77" x="633.5" y="1305.2676">Servo Motor</text><rect fill="#E2E2F0" height="31.6094" rx="2.5" ry="2.5" style="stroke:#181818;stroke-width:0.5;" width="117" x="727.5" y="88.6094"/><text fill="#000000" font-family="sans-serif" font-size="14" lengthAdjust="spacing" textLength="103" x="734.5" y="110.1426">DC Motors (L/R)</text><rect fill="#E2E2F0" height="31.6094" rx="2.5" ry="2.5" style="stroke:#181818;stroke-width:0.5;" width="117" x="727.5" y="1283.7344"/><text fill="#000000" font-family="sans-serif" font-size="14" lengthAdjust="spacing" textLength="103" x="734.5" y="1305.2676">DC Motors (L/R)</text><rect fill="#FFFFFF" height="1106.1641" style="stroke:#181818;stroke-width:1.0;" width="10" x="217.5" y="153.5703"/><rect fill="#FFFFFF" height="30.3516" style="stroke:#181818;stroke-width:1.0;" width="10" x="420.5" y="326.3281"/><rect fill="#FFFFFF" height="30.3516" style="stroke:#181818;stroke-width:1.0;" width="10" x="420.5" y="1037.9766"/><rect fill="#FFFFFF" height="30.3516" style="stroke:#181818;stroke-width:1.0;" width="10" x="549" y="387.0313"/><rect fill="#FFFFFF" height="30.3516" style="stroke:#181818;stroke-width:1.0;" width="10" x="667" y="652.9766"/><rect fill="#FFFFFF" height="30" style="stroke:#181818;stroke-width:1.0;" width="10" x="781" y="473.0859"/><rect fill="#FFFFFF" height="30" style="stroke:#181818;stroke-width:1.0;" width="10" x="781" y="592.625"/><rect fill="#FFFFFF" height="30" style="stroke:#181818;stroke-width:1.0;" width="10" x="781" y="825.7344"/><rect fill="#FFFFFF" height="30" style="stroke:#181818;stroke-width:1.0;" width="10" x="781" y="945.2734"/><rect fill="#FFFFFF" height="30" style="stroke:#181818;stroke-width:1.0;" width="10" x="781" y="1193.3828"/><polygon fill="#181818" points="205.5,149.5703,215.5,153.5703,205.5,157.5703,209.5,153.5703" style="stroke:#181818;stroke-width:1.0;"/><line style="stroke:#181818;stroke-width:1.0;" x1="22.5" x2="211.5" y1="153.5703" y2="153.5703"/><text fill="#000000" font-family="sans-serif" font-size="13" lengthAdjust="spacing" textLength="57" x="29.5" y="148.7139">Power On</text><line style="stroke:#181818;stroke-width:1.0;" x1="227.5" x2="269.5" y1="183.9219" y2="183.9219"/><line style="stroke:#181818;stroke-width:1.0;" x1="269.5" x2="269.5" y1="183.9219" y2="196.9219"/><line style="stroke:#181818;stroke-width:1.0;" x1="228.5" x2="269.5" y1="196.9219" y2="196.9219"/><polygon fill="#181818" points="238.5,192.9219,228.5,196.9219,238.5,200.9219,234.5,196.9219" style="stroke:#181818;stroke-width:1.0;"/><text fill="#000000" font-family="sans-serif" font-size="13" lengthAdjust="spacing" textLength="88" x="234.5" y="179.0654">enterIdleState()</text><polygon fill="#181818" points="205.5,223.2734,215.5,227.2734,205.5,231.2734,209.5,227.2734" style="stroke:#181818;stroke-width:1.0;"/><line style="stroke:#181818;stroke-width:1.0;" x1="22.5" x2="211.5" y1="227.2734" y2="227.2734"/><text fill="#000000" font-family="sans-serif" font-size="13" lengthAdjust="spacing" textLength="91" x="29.5" y="222.417">Start Command</text><line style="stroke:#181818;stroke-width:1.0;" x1="227.5" x2="269.5" y1="257.625" y2="257.625"/><line style="stroke:#181818;stroke-width:1.0;" x1="269.5" x2="269.5" y1="257.625" y2="270.625"/><line style="stroke:#181818;stroke-width:1.0;" x1="228.5" x2="269.5" y1="270.625" y2="270.625"/><polygon fill="#181818" points="238.5,266.625,228.5,270.625,238.5,274.625,234.5,270.625" style="stroke:#181818;stroke-width:1.0;"/><text fill="#000000" font-family="sans-serif" font-size="13" lengthAdjust="spacing" textLength="153" x="234.5" y="252.7686">transitionTo(LineFollowing)</text><path d="M161,285.625 L234,285.625 L234,293.9766 L224,303.9766 L161,303.9766 L161,285.625 " fill="#EEEEEE" style="stroke:#000000;stroke-width:1.5;"/><rect fill="none" height="848.0547" style="stroke:#000000;stroke-width:1.5;" width="713.5" x="161" y="285.625"/><text fill="#000000" font-family="sans-serif" font-size="13" font-weight="bold" lengthAdjust="spacing" textLength="28" x="176" y="300.1201">loop</text><text fill="#000000" font-family="sans-serif" font-size="11" font-weight="bold" lengthAdjust="spacing" textLength="116" x="249" y="299.0439">[LineFollowing State]</text><polygon fill="#181818" points="408.5,322.3281,418.5,326.3281,408.5,330.3281,412.5,326.3281" style="stroke:#181818;stroke-width:1.0;"/><line style="stroke:#181818;stroke-width:1.0;" x1="227.5" x2="414.5" y1="326.3281" y2="326.3281"/><text fill="#000000" font-family="sans-serif" font-size="13" lengthAdjust="spacing" textLength="84" x="234.5" y="321.4717">readLineData()</text><polygon fill="#181818" points="238.5,352.6797,228.5,356.6797,238.5,360.6797,234.5,356.6797" style="stroke:#181818;stroke-width:1.0;"/><line style="stroke:#181818;stroke-width:1.0;stroke-dasharray:2.0,2.0;" x1="232.5" x2="424.5" y1="356.6797" y2="356.6797"/><text fill="#000000" font-family="sans-serif" font-size="13" lengthAdjust="spacing" textLength="67" x="244.5" y="351.8232">linePosition</text><polygon fill="#181818" points="537,383.0313,547,387.0313,537,391.0313,541,387.0313" style="stroke:#181818;stroke-width:1.0;"/><line style="stroke:#181818;stroke-width:1.0;" x1="227.5" x2="543" y1="387.0313" y2="387.0313"/><text fill="#000000" font-family="sans-serif" font-size="13" lengthAdjust="spacing" textLength="109" x="234.5" y="382.1748">measureDistance()</text><polygon fill="#181818" points="238.5,413.3828,228.5,417.3828,238.5,421.3828,234.5,417.3828" style="stroke:#181818;stroke-width:1.0;"/><line style="stroke:#181818;stroke-width:1.0;stroke-dasharray:2.0,2.0;" x1="232.5" x2="553" y1="417.3828" y2="417.3828"/><text fill="#000000" font-family="sans-serif" font-size="13" lengthAdjust="spacing" textLength="49" x="244.5" y="412.5264">distance</text><path d="M171,432.3828 L232,432.3828 L232,440.7344 L222,450.7344 L171,450.7344 L171,432.3828 " fill="#EEEEEE" style="stroke:#000000;stroke-width:1.5;"/><rect fill="none" height="694.2969" style="stroke:#000000;stroke-width:1.5;" width="693.5" x="171" y="432.3828"/><text fill="#000000" font-family="sans-serif" font-size="13" font-weight="bold" lengthAdjust="spacing" textLength="16" x="186" y="446.8779">alt</text><text fill="#000000" font-family="sans-serif" font-size="11" font-weight="bold" lengthAdjust="spacing" textLength="129" x="247" y="445.8018">[Obstacle Not Detected]</text><polygon fill="#181818" points="769,469.0859,779,473.0859,769,477.0859,773,473.0859" style="stroke:#181818;stroke-width:1.0;"/><line style="stroke:#181818;stroke-width:1.0;" x1="227.5" x2="775" y1="473.0859" y2="473.0859"/><text fill="#000000" font-family="sans-serif" font-size="13" lengthAdjust="spacing" textLength="95" x="234.5" y="468.2295">moveAlongLine()</text><line style="stroke:#000000;stroke-width:1.0;stroke-dasharray:2.0,2.0;" x1="171" x2="864.5" y1="512.0859" y2="512.0859"/><text fill="#000000" font-family="sans-serif" font-size="11" font-weight="bold" lengthAdjust="spacing" textLength="108" x="176" y="523.5049">[Obstacle Detected]</text><line style="stroke:#181818;stroke-width:1.0;" x1="227.5" x2="269.5" y1="549.2734" y2="549.2734"/><line style="stroke:#181818;stroke-width:1.0;" x1="269.5" x2="269.5" y1="549.2734" y2="562.2734"/><line style="stroke:#181818;stroke-width:1.0;" x1="228.5" x2="269.5" y1="562.2734" y2="562.2734"/><polygon fill="#181818" points="238.5,558.2734,228.5,562.2734,238.5,566.2734,234.5,562.2734" style="stroke:#181818;stroke-width:1.0;"/><text fill="#000000" font-family="sans-serif" font-size="13" lengthAdjust="spacing" textLength="179" x="234.5" y="544.417">transitionTo(ObstacleDetected)</text><polygon fill="#181818" points="769,588.625,779,592.625,769,596.625,773,592.625" style="stroke:#181818;stroke-width:1.0;"/><line style="stroke:#181818;stroke-width:1.0;" x1="227.5" x2="775" y1="592.625" y2="592.625"/><text fill="#000000" font-family="sans-serif" font-size="13" lengthAdjust="spacing" textLength="33" x="234.5" y="587.7686">stop()</text><polygon fill="#181818" points="655,648.9766,665,652.9766,655,656.9766,659,652.9766" style="stroke:#181818;stroke-width:1.0;"/><line style="stroke:#181818;stroke-width:1.0;" x1="227.5" x2="661" y1="652.9766" y2="652.9766"/><text fill="#000000" font-family="sans-serif" font-size="13" lengthAdjust="spacing" textLength="94" x="234.5" y="648.1201">scanDirections()</text><polygon fill="#181818" points="238.5,679.3281,228.5,683.3281,238.5,687.3281,234.5,683.3281" style="stroke:#181818;stroke-width:1.0;"/><line style="stroke:#181818;stroke-width:1.0;stroke-dasharray:2.0,2.0;" x1="232.5" x2="671" y1="683.3281" y2="683.3281"/><text fill="#000000" font-family="sans-serif" font-size="13" lengthAdjust="spacing" textLength="117" x="244.5" y="678.4717">directionalDistances</text><line style="stroke:#181818;stroke-width:1.0;" x1="227.5" x2="269.5" y1="713.6797" y2="713.6797"/><line style="stroke:#181818;stroke-width:1.0;" x1="269.5" x2="269.5" y1="713.6797" y2="726.6797"/><line style="stroke:#181818;stroke-width:1.0;" x1="228.5" x2="269.5" y1="726.6797" y2="726.6797"/><polygon fill="#181818" points="238.5,722.6797,228.5,726.6797,238.5,730.6797,234.5,726.6797" style="stroke:#181818;stroke-width:1.0;"/><text fill="#000000" font-family="sans-serif" font-size="13" lengthAdjust="spacing" textLength="128" x="234.5" y="708.8232">chooseBestDirection()</text><path d="M181,741.6797 L242,741.6797 L242,750.0313 L232,760.0313 L181,760.0313 L181,741.6797 " fill="#EEEEEE" style="stroke:#000000;stroke-width:1.5;"/><rect fill="none" height="241.5938" style="stroke:#000000;stroke-width:1.5;" width="673.5" x="181" y="741.6797"/><text fill="#000000" font-family="sans-serif" font-size="13" font-weight="bold" lengthAdjust="spacing" textLength="16" x="196" y="756.1748">alt</text><text fill="#000000" font-family="sans-serif" font-size="11" font-weight="bold" lengthAdjust="spacing" textLength="63" x="257" y="755.0986">[Path Right]</text><line style="stroke:#181818;stroke-width:1.0;" x1="227.5" x2="269.5" y1="782.3828" y2="782.3828"/><line style="stroke:#181818;stroke-width:1.0;" x1="269.5" x2="269.5" y1="782.3828" y2="795.3828"/><line style="stroke:#181818;stroke-width:1.0;" x1="228.5" x2="269.5" y1="795.3828" y2="795.3828"/><polygon fill="#181818" points="238.5,791.3828,228.5,795.3828,238.5,799.3828,234.5,795.3828" style="stroke:#181818;stroke-width:1.0;"/><text fill="#000000" font-family="sans-serif" font-size="13" lengthAdjust="spacing" textLength="142" x="234.5" y="777.5264">enterState(RightBypass)</text><polygon fill="#181818" points="769,821.7344,779,825.7344,769,829.7344,773,825.7344" style="stroke:#181818;stroke-width:1.0;"/><line style="stroke:#181818;stroke-width:1.0;" x1="227.5" x2="775" y1="825.7344" y2="825.7344"/><text fill="#000000" font-family="sans-serif" font-size="13" lengthAdjust="spacing" textLength="159" x="234.5" y="820.8779">turnRightAndMoveForward()</text><line style="stroke:#000000;stroke-width:1.0;stroke-dasharray:2.0,2.0;" x1="181" x2="854.5" y1="864.7344" y2="864.7344"/><text fill="#000000" font-family="sans-serif" font-size="11" font-weight="bold" lengthAdjust="spacing" textLength="57" x="186" y="876.1533">[Path Left]</text><line style="stroke:#181818;stroke-width:1.0;" x1="227.5" x2="269.5" y1="901.9219" y2="901.9219"/><line style="stroke:#181818;stroke-width:1.0;" x1="269.5" x2="269.5" y1="901.9219" y2="914.9219"/><line style="stroke:#181818;stroke-width:1.0;" x1="228.5" x2="269.5" y1="914.9219" y2="914.9219"/><polygon fill="#181818" points="238.5,910.9219,228.5,914.9219,238.5,918.9219,234.5,914.9219" style="stroke:#181818;stroke-width:1.0;"/><text fill="#000000" font-family="sans-serif" font-size="13" lengthAdjust="spacing" textLength="133" x="234.5" y="897.0654">enterState(LeftBypass)</text><polygon fill="#181818" points="769,941.2734,779,945.2734,769,949.2734,773,945.2734" style="stroke:#181818;stroke-width:1.0;"/><line style="stroke:#181818;stroke-width:1.0;" x1="227.5" x2="775" y1="945.2734" y2="945.2734"/><text fill="#000000" font-family="sans-serif" font-size="13" lengthAdjust="spacing" textLength="150" x="234.5" y="940.417">turnLeftAndMoveForward()</text><path d="M181,997.2734 L254,997.2734 L254,1005.625 L244,1015.625 L181,1015.625 L181,997.2734 " fill="#EEEEEE" style="stroke:#000000;stroke-width:1.5;"/><rect fill="none" height="79.0547" style="stroke:#000000;stroke-width:1.5;" width="310.5" x="181" y="997.2734"/><text fill="#000000" font-family="sans-serif" font-size="13" font-weight="bold" lengthAdjust="spacing" textLength="28" x="196" y="1011.7686">loop</text><text fill="#000000" font-family="sans-serif" font-size="11" font-weight="bold" lengthAdjust="spacing" textLength="88" x="269" y="1010.6924">[LookForLineIR]</text><polygon fill="#181818" points="408.5,1033.9766,418.5,1037.9766,408.5,1041.9766,412.5,1037.9766" style="stroke:#181818;stroke-width:1.0;"/><line style="stroke:#181818;stroke-width:1.0;" x1="227.5" x2="414.5" y1="1037.9766" y2="1037.9766"/><text fill="#000000" font-family="sans-serif" font-size="13" lengthAdjust="spacing" textLength="84" x="234.5" y="1033.1201">readLineData()</text><polygon fill="#181818" points="238.5,1064.3281,228.5,1068.3281,238.5,1072.3281,234.5,1068.3281" style="stroke:#181818;stroke-width:1.0;"/><line style="stroke:#181818;stroke-width:1.0;stroke-dasharray:2.0,2.0;" x1="232.5" x2="424.5" y1="1068.3281" y2="1068.3281"/><text fill="#000000" font-family="sans-serif" font-size="13" lengthAdjust="spacing" textLength="79" x="244.5" y="1063.4717">lineDetected?</text><line style="stroke:#181818;stroke-width:1.0;" x1="227.5" x2="269.5" y1="1105.6797" y2="1105.6797"/><line style="stroke:#181818;stroke-width:1.0;" x1="269.5" x2="269.5" y1="1105.6797" y2="1118.6797"/><line style="stroke:#181818;stroke-width:1.0;" x1="228.5" x2="269.5" y1="1118.6797" y2="1118.6797"/><polygon fill="#181818" points="238.5,1114.6797,228.5,1118.6797,238.5,1122.6797,234.5,1118.6797" style="stroke:#181818;stroke-width:1.0;"/><text fill="#000000" font-family="sans-serif" font-size="13" lengthAdjust="spacing" textLength="153" x="234.5" y="1100.8232">transitionTo(LineFollowing)</text><polygon fill="#181818" points="205.5,1159.0313,215.5,1163.0313,205.5,1167.0313,209.5,1163.0313" style="stroke:#181818;stroke-width:1.0;"/><line style="stroke:#181818;stroke-width:1.0;" x1="22.5" x2="211.5" y1="1163.0313" y2="1163.0313"/><text fill="#000000" font-family="sans-serif" font-size="13" lengthAdjust="spacing" textLength="171" x="29.5" y="1158.1748">Stop Command / Battery Low</text><polygon fill="#181818" points="769,1189.3828,779,1193.3828,769,1197.3828,773,1193.3828" style="stroke:#181818;stroke-width:1.0;"/><line style="stroke:#181818;stroke-width:1.0;" x1="227.5" x2="775" y1="1193.3828" y2="1193.3828"/><text fill="#000000" font-family="sans-serif" font-size="13" lengthAdjust="spacing" textLength="33" x="234.5" y="1188.5264">stop()</text><line style="stroke:#181818;stroke-width:1.0;" x1="227.5" x2="269.5" y1="1258.7344" y2="1258.7344"/><line style="stroke:#181818;stroke-width:1.0;" x1="269.5" x2="269.5" y1="1258.7344" y2="1271.7344"/><line style="stroke:#181818;stroke-width:1.0;" x1="222.5" x2="269.5" y1="1271.7344" y2="1271.7344"/><polygon fill="#181818" points="232.5,1267.7344,222.5,1271.7344,232.5,1275.7344,228.5,1271.7344" style="stroke:#181818;stroke-width:1.0;"/><text fill="#000000" font-family="sans-serif" font-size="13" lengthAdjust="spacing" textLength="95" x="234.5" y="1253.8779">enterStopState()</text><!--SRC=[hLNDZjf03BxdAQozB1mGznvQmQALaDWk2jq7c4syC6eOfpC6nAqFqIViazGp-O4X1B5I4GTmlk_pDxR7OSq50gpmrmvDXZ3JQctL5aQmq0RXcOg23cWXfNTYE6ZUmEkxOvK9Qx8ddIlF6i7x4IR5NYU9ofWil3cqIQaiwqoNoZ1CRBxJXgBOmpoLnCO9Vh0OfyC7K0xcQHMAaMy5M-N8wAnc1EmfUespGhidU26kqU5_39azLS_TcO4ga2JZH_Zxv_V55rOi_5rvxT7ZEF77Xj7NvhJm1PQXUg_6rqNl5MDRYGOJmT4msdbUeEHX70oJAvB10ZpHTgjCVbr6ocASPatc1mry8wi-QhCMnOAeX2W88Li2S2RMz47KBAhSusUAbLW2QC_IDWjE-57af13UaYelWignoutpNlPKDBQetCxYJClSoRJ55Zep05s9s59UwyHsEZe-IS6dQVykypz3nemnbsUHwNg8n2hjSLAGMVjw1QDdLkl9yh6pnCsy0M3Xy9IlBrTFbnjUGniclIOTK_bPRv5ITRD4A5Dcfgta4m_kKhAwRpvKuI-xKFDKqJIsaxvIw2z0jY5oE4N7hOj1VMxVkgMIRPNgzOP3g4SaNBdgkWNiz5WgvuPTIbi_tbaJe1EJlqZ3dyaUbCq73UTQKNlB6feUd2xmurwZ7dgVJu_yBpPbrOGVrVOW-YboViZdQTV1hTqHPJxR7_vpOuSqO_sjQpCIQNr-UYzMtC3lMVsR7UTqC7Vl_fNSisPFmnYcYgM1HodU8RbnBI_Btst8hUcWidbpdF6QLyu_]--></g></svg>