<?xml version="1.0" encoding="us-ascii" standalone="no"?><svg xmlns="http://www.w3.org/2000/svg" xmlns:xlink="http://www.w3.org/1999/xlink" contentStyleType="text/css" height="462.5px" preserveAspectRatio="none" style="width:2539px;height:462px;background:#FFFFFF;" version="1.1" viewBox="0 0 2539 462" width="2539.0625px" zoomAndPan="magnify"><defs/><g><text fill="#000000" font-family="sans-serif" font-size="21.875" font-weight="bold" lengthAdjust="spacing" textLength="532.8125" x="992.5781" y="38.3331">Use Case Diagram - Line Follower Robot (by Alvi)</text><!--cluster Line Follower Robot System--><g id="cluster_Line Follower Robot System"><rect fill="none" height="234.375" rx="3.9063" ry="3.9063" style="stroke:#181818;stroke-width:1.5625;" width="2317.1875" x="213.2813" y="71.2646"/><text fill="#000000" font-family="sans-serif" font-size="21.875" font-weight="bold" lengthAdjust="spacing" textLength="304.6875" x="1219.5313" y="97.0978">Line Follower Robot System</text></g><g id="elem_UC_Start"><ellipse cx="336.9128" cy="152.6774" fill="#FDF6E3" rx="98.6315" ry="24.3815" style="stroke:#000000;stroke-width:0.78125;"/><text fill="#000000" font-family="sans-serif" font-size="21.875" lengthAdjust="spacing" textLength="112.5" x="275.9753" y="159.7346">Start Robot</text></g><g id="elem_UC_Follow"><ellipse cx="627.9457" cy="160.4822" fill="#FDF6E3" rx="97.4769" ry="24.3738" style="stroke:#000000;stroke-width:0.78125;"/><text fill="#000000" font-family="sans-serif" font-size="21.875" lengthAdjust="spacing" textLength="110.9375" x="567.7894" y="167.5394">Follow Line</text></g><g id="elem_UC_Detect"><ellipse cx="1050.5508" cy="246.0623" fill="#FDF6E3" rx="116.957" ry="27.1414" style="stroke:#000000;stroke-width:0.78125;"/><text fill="#000000" font-family="sans-serif" font-size="21.875" lengthAdjust="spacing" textLength="157.8125" x="966.957" y="253.1195">Detect Obstacle</text></g><g id="elem_UC_Scan"><ellipse cx="1710.5979" cy="246.1967" fill="#FDF6E3" rx="125.4417" ry="28.8383" style="stroke:#000000;stroke-width:0.78125;"/><text fill="#000000" font-family="sans-serif" font-size="21.875" lengthAdjust="spacing" textLength="179.6875" x="1619.405" y="252.4118">Scan Environment</text></g><g id="elem_UC_Choose"><ellipse cx="2056.8421" cy="246.0706" fill="#FDF6E3" rx="124.8108" ry="28.7122" style="stroke:#000000;stroke-width:0.78125;"/><text fill="#000000" font-family="sans-serif" font-size="21.875" lengthAdjust="spacing" textLength="178.125" x="1966.1521" y="252.3622">Choose Best Path</text></g><g id="elem_UC_Avoid"><ellipse cx="1376.7931" cy="246.1545" fill="#FDF6E3" rx="113.5118" ry="26.4524" style="stroke:#000000;stroke-width:0.78125;"/><text fill="#000000" font-family="sans-serif" font-size="21.875" lengthAdjust="spacing" textLength="148.4375" x="1297.8868" y="253.2117">Avoid Obstacle</text></g><g id="elem_UC_Reacquire"><ellipse cx="2391.4234" cy="202.5181" fill="#FDF6E3" rx="114.0796" ry="26.5659" style="stroke:#000000;stroke-width:0.78125;"/><text fill="#000000" font-family="sans-serif" font-size="21.875" lengthAdjust="spacing" textLength="150" x="2311.7359" y="209.5753">Reacquire Line</text></g><g id="elem_UC_Stop"><ellipse cx="336.5394" cy="255.7947" fill="#FDF6E3" rx="97.4769" ry="24.3738" style="stroke:#000000;stroke-width:0.78125;"/><text fill="#000000" font-family="sans-serif" font-size="21.875" lengthAdjust="spacing" textLength="110.9375" x="276.3832" y="262.8519">Stop Robot</text></g><!--entity U--><g id="elem_U"><ellipse cx="51.5625" cy="168.1396" fill="#F1F1F1" rx="25" ry="25" style="stroke:#181818;stroke-width:0.78125;"/><path d="M51.5625,199.3896 C57.8125,199.3896 62.5,199.3896 68.75,193.1396 C81.25,193.1396 93.75,205.6396 93.75,218.1396 L93.75,224.3896 C93.75,230.6396 87.5,236.8896 81.25,236.8896 L21.875,236.8896 C15.625,236.8896 9.375,230.6396 9.375,224.3896 L9.375,218.1396 C9.375,205.6396 21.875,193.1396 34.375,193.1396 C40.625,199.3896 45.3125,199.3896 51.5625,199.3896 " fill="#F1F1F1" style="stroke:#181818;stroke-width:0.78125;"/><text fill="#000000" font-family="sans-serif" font-size="21.875" lengthAdjust="spacing" textLength="45.3125" x="28.9063" y="260.379">User</text></g><!--entity OB--><g id="elem_OB"><ellipse cx="628.125" cy="357.2021" fill="#F1F1F1" rx="25" ry="25" style="stroke:#181818;stroke-width:0.78125;"/><path d="M628.125,388.4521 C634.375,388.4521 639.0625,388.4521 645.3125,382.2021 C657.8125,382.2021 670.3125,394.7021 670.3125,407.2021 L670.3125,413.4521 C670.3125,419.7021 664.0625,425.9521 657.8125,425.9521 L598.4375,425.9521 C592.1875,425.9521 585.9375,419.7021 585.9375,413.4521 L585.9375,407.2021 C585.9375,394.7021 598.4375,382.2021 610.9375,382.2021 C617.1875,388.4521 621.875,388.4521 628.125,388.4521 " fill="#F1F1F1" style="stroke:#181818;stroke-width:0.78125;"/><text fill="#000000" font-family="sans-serif" font-size="21.875" lengthAdjust="spacing" textLength="87.5" x="584.375" y="449.4415">Obstacle</text></g><!--link UC_Start to UC_Follow--><g id="link_UC_Start_UC_Follow"><path d="M434.6719,155.124 C465.6094,155.9678 490.4879,156.6337 521.3785,157.4774 " fill="none" id="UC_Start-to-UC_Follow" style="stroke:#000000;stroke-width:1.5625;"/><polygon fill="#000000" points="530.75,157.7334,516.8634,151.1018,522.9404,157.5201,516.5221,163.5971,530.75,157.7334" style="stroke:#000000;stroke-width:1.5625;"/></g><!--link UC_Follow to UC_Detect--><g id="link_UC_Follow_UC_Detect"><path d="M704.2031,175.5928 C776.2656,190.3584 876.2374,210.8375 952.4092,226.4313 " fill="none" id="UC_Follow-to-UC_Detect" style="stroke:#000000;stroke-width:1.5625;"/><polygon fill="#000000" points="961.5937,228.3115,949.0705,219.3682,953.94,226.7447,946.5635,231.6142,961.5937,228.3115" style="stroke:#000000;stroke-width:1.5625;"/></g><!--link UC_Detect to UC_Avoid--><g id="link_UC_Detect_UC_Avoid"><path d="M1168.375,246.2646 C1199.2656,246.2646 1223.2031,246.2646 1253.8594,246.2646 " fill="none" id="UC_Detect-to-UC_Avoid" style="stroke:#000000;stroke-width:1.5625;"/><polygon fill="#000000" points="1263.2344,246.2646,1249.1719,240.0146,1255.4219,246.2646,1249.1719,252.5146,1263.2344,246.2646" style="stroke:#000000;stroke-width:1.5625;"/></g><!--link UC_Avoid to UC_Scan--><g id="link_UC_Avoid_UC_Scan"><path d="M1490.2656,246.2646 C1520.6719,246.2646 1544.4063,246.2646 1575.4531,246.2646 " fill="none" id="UC_Avoid-to-UC_Scan" style="stroke:#000000;stroke-width:1.5625;"/><polygon fill="#000000" points="1584.8281,246.2646,1570.7656,240.0146,1577.0156,246.2646,1570.7656,252.5146,1584.8281,246.2646" style="stroke:#000000;stroke-width:1.5625;"/></g><!--link UC_Scan to UC_Choose--><g id="link_UC_Scan_UC_Choose"><path d="M1836.7969,246.2646 C1867.6719,246.2646 1891.375,246.2646 1922.2188,246.2646 " fill="none" id="UC_Scan-to-UC_Choose" style="stroke:#000000;stroke-width:1.5625;"/><polygon fill="#000000" points="1931.5938,246.2646,1917.5313,240.0146,1923.7813,246.2646,1917.5313,252.5146,1931.5938,246.2646" style="stroke:#000000;stroke-width:1.5625;"/></g><!--link UC_Choose to UC_Reacquire--><g id="link_UC_Choose_UC_Reacquire"><path d="M2166.1406,232.0615 C2206.5625,226.7178 2242.987,221.914 2282.5026,216.6953 " fill="none" id="UC_Choose-to-UC_Reacquire" style="stroke:#000000;stroke-width:1.5625;"/><polygon fill="#000000" points="2291.7969,215.4678,2277.0371,211.1128,2284.0516,216.4907,2278.6738,223.5052,2291.7969,215.4678" style="stroke:#000000;stroke-width:1.5625;"/></g><!--link UC_Reacquire to UC_Follow--><g id="link_UC_Reacquire_UC_Follow"><path d="M2303.7344,185.4834 C2237.1094,173.7646 2142.3594,160.3271 2058.5938,160.3271 C1049.2188,160.3271 1049.2188,160.3271 1049.2188,160.3271 C938.3281,160.3271 820.3281,160.3271 735.2969,160.3271 " fill="none" id="UC_Reacquire-to-UC_Follow" style="stroke:#000000;stroke-width:1.5625;"/><polygon fill="#000000" points="725.9219,160.3271,739.9844,166.5771,733.7344,160.3271,739.9844,154.0771,725.9219,160.3271" style="stroke:#000000;stroke-width:1.5625;"/></g><!--link U to UC_Start--><g id="link_U_UC_Start"><path d="M94.7344,196.4678 C137.3438,188.6865 195.3248,178.0761 247.8717,168.4667 " fill="none" id="U-to-UC_Start" style="stroke:#000000;stroke-width:1.5625;"/><polygon fill="#000000" points="257.0938,166.7803,242.1363,163.1619,249.4087,168.1857,244.385,175.458,257.0938,166.7803" style="stroke:#000000;stroke-width:1.5625;"/><text fill="#000000" font-family="sans-serif" font-size="20.3125" lengthAdjust="spacing" textLength="43.75" x="142.9688" y="175.1633">Start</text></g><!--link U to UC_Stop--><g id="link_U_UC_Stop"><path d="M94.5938,217.1084 C109.2656,221.374 125.9688,225.8428 141.4063,229.0771 C175.4688,236.2021 204.0137,240.6815 237.1543,244.9315 " fill="none" id="U-to-UC_Stop" style="stroke:#000000;stroke-width:1.5625;"/><polygon fill="#000000" points="246.4531,246.124,233.2999,238.136,238.7041,245.1303,231.7099,250.5345,246.4531,246.124" style="stroke:#000000;stroke-width:1.5625;"/><text fill="#000000" font-family="sans-serif" font-size="20.3125" lengthAdjust="spacing" textLength="42.1875" x="143.75" y="223.6008">Stop</text></g><!--link OB to UC_Detect--><g id="link_OB_UC_Detect"><path d="M672.2188,378.249 C745.7656,352.499 888.2452,302.6121 975.1515,272.1902 " fill="none" id="OB-to-UC_Detect" style="stroke:#000000;stroke-width:1.5625;"/><polygon fill="#000000" points="984,269.0928,968.6622,267.8399,976.6262,271.674,972.7922,279.638,984,269.0928" style="stroke:#000000;stroke-width:1.5625;"/><text fill="#000000" font-family="sans-serif" font-size="20.3125" lengthAdjust="spacing" textLength="110.9375" x="774.2188" y="301.7258">Blocks Path</text></g><!--SRC=[RPDDRzim38Rl-XL4TsXx2B1Y7uST1iH9VHhGeKRFWoApZX15z2GcGJRilu-I8y7f1XW6_RoIo9UKsR93U8a8AosljTL3q7jOm3Vh4LfoZauOu9asn72tESFI7UqzA7KB7J8uxVjez8X0mQ9dpPQySlZAm0J13bk6tWOqcQkuitxKAO4sJA7ZioJN9uoqnvdOZnOUFhsVaKD4a-hxhG0QRNP3e8FlL-GemBjstNv-_90K2Zs6YJPEbWbRXa2dQzIIvyx-GdZugFuebKj9BGYW8xnSlfysaRL9vKLuQfHA7hGV1DpyhpNTEJBkRtA1yjnrh0DFsdq-TlKZewHDMtE7YpQX9AwH9LDDNnPCE9zij8T7VxI1_5vQNeyNdlJLbaWwrM1a-AvvM_I9fnNB8zd-dmoP9laPjVbvaA5TLLZfv8x6j-PeL2BTGfkyqMkQiCmy2YlUOR7uUcMsnaMfBcjSb59T2Gk_kBv4XLQlDIxAtCRyyqrjsKc-4jOpXfcNcZWx-W9bgZD1UfDuQKYzIIp_mu0XGf-jfJy2v6vTcvUjZIEpYtbuSZ__0W00]--></g></svg>